<svg xmlns="http://www.w3.org/2000/svg" width="32" height="32" viewBox="0 0 256 256"><path d="M208 35h-24v-8c0-6.158-6.667-10.007-12-6.928A8 8 0 0 0 168 27v8H88v-8c0-6.158-6.667-10.007-12-6.928A8 8 0 0 0 72 27v8H48c-8.837 0-16 7.163-16 16v160c0 8.837 7.163 16 16 16h160c8.837 0 16-7.163 16-16V51c0-8.837-7.163-16-16-16M72 51v8c0 6.158 6.667 10.007 12 6.928A8 8 0 0 0 88 59v-8h80v8c0 6.158 6.667 10.007 12 6.928A8 8 0 0 0 184 59v-8h24v32H48V51zm136 160H48V99h160zm-68-76c0 9.238-10 15.011-18 10.392s-8-16.166 0-20.784a12 12 0 0 1 6-1.608c6.627 0 12 5.373 12 12m44 0c0 9.238-10 15.011-18 10.392s-8-16.166 0-20.784a12 12 0 0 1 6-1.608c6.627 0 12 5.373 12 12m-88 40c0 9.238-10 15.011-18 10.392s-8-16.166 0-20.784A12 12 0 0 1 84 163c6.627 0 12 5.373 12 12m44 0c0 9.238-10 15.011-18 10.392s-8-16.166 0-20.784a12 12 0 0 1 6-1.608c6.627 0 12 5.373 12 12m44 0c0 9.238-10 15.011-18 10.392s-8-16.166 0-20.784a12 12 0 0 1 6-1.608c6.627 0 12 5.373 12 12" style="fill:#fff"/></svg>