<svg xmlns="http://www.w3.org/2000/svg" width="32" height="32" viewBox="0 0 256 256"><path d="M176 89v128c0 6.158-6.667 10.007-12 6.928a8 8 0 0 1-4-6.928V89c0-6.158 6.667-10.007 12-6.928A8 8 0 0 1 176 89m32-48a8 8 0 0 0-8 8v168c0 6.158 6.667 10.007 12 6.928a8 8 0 0 0 4-6.928V49a8 8 0 0 0-8-8m-80 80a8 8 0 0 0-8 8v88c0 6.158 6.667 10.007 12 6.928a8 8 0 0 0 4-6.928v-88a8 8 0 0 0-8-8m-40 40a8 8 0 0 0-8 8v48c0 6.158 6.667 10.007 12 6.928A8 8 0 0 0 96 217v-48a8 8 0 0 0-8-8m-40 40a8 8 0 0 0-8 8v8c0 6.158 6.667 10.007 12 6.928A8 8 0 0 0 56 217v-8a8 8 0 0 0-8-8" style="fill:#fff"/></svg>