<svg xmlns="http://www.w3.org/2000/svg" xml:space="preserve" style="fill-rule:evenodd;clip-rule:evenodd;stroke-linejoin:round;stroke-miterlimit:2" viewBox="0 0 32 32"><path d="M140 204c0 6.583-5.417 12-12 12s-12-5.417-12-12 5.417-12 12-12 12 5.417 12 12m97.08-117C173.904 35.181 82.096 35.181 18.92 87a8 8 0 0 0-2.924 6.185c0 4.391 3.613 8.004 8.004 8.004a8 8 0 0 0 5.08-1.819c57.294-46.984 140.546-46.984 197.84 0a8 8 0 0 0 5.08 1.819c4.391 0 8.004-3.613 8.004-8.004A8 8 0 0 0 237.08 87M205 122.77c-44.947-35.585-108.993-35.585-153.94 0a8 8 0 0 0-3.031 6.27c0 4.389 3.612 8.001 8.001 8.001 1.804 0 3.556-.61 4.97-1.731 39.144-30.984 94.916-30.984 134.06 0a8.001 8.001 0 1 0 9.94-12.54m-32.26 35.76c-26.588-19.323-62.832-19.323-89.42 0a8.01 8.01 0 0 0-3.293 6.47c0 4.39 3.613 8.003 8.003 8.003a8 8 0 0 0 4.71-1.533c20.983-15.26 49.597-15.26 70.58 0a8 8 0 0 0 4.71 1.533c4.39 0 8.003-3.613 8.003-8.003a8.01 8.01 0 0 0-3.293-6.47" style="fill:#fff;fill-rule:nonzero" transform="translate(0 -.517)scale(.125)"/></svg>