<svg xmlns="http://www.w3.org/2000/svg" xml:space="preserve" style="fill-rule:evenodd;clip-rule:evenodd;stroke-linejoin:round;stroke-miterlimit:2" viewBox="0 0 32 32"><path d="M29.898 12.158a2.05 2.05 0 0 0-1.783-1.408l-7.375-.595-2.848-6.886A2.05 2.05 0 0 0 16.001 2c-.828 0-1.578.503-1.892 1.269l-2.845 6.885-7.379.596a2.066 2.066 0 0 0-1.884 2.05c0 .598.26 1.167.713 1.558l5.625 4.853-1.714 7.258q-.058.238-.058.483c0 1.124.924 2.048 2.048 2.048.378 0 .75-.105 1.072-.304L16 24.811l6.316 3.885a2.05 2.05 0 0 0 1.065.298 2.06 2.06 0 0 0 2.05-2.05q0-.24-.056-.475l-1.72-7.259 5.625-4.854c.631-.539.875-1.41.618-2.198" style="fill:#fff"/></svg>