<svg xmlns="http://www.w3.org/2000/svg" viewBox="0 0 600 125"><path d="M53.889 54.427q0 .692-.958.959-1.15.306-7.134.307-5.485 0-7.058-.307-1.304-.269-1.649-1.726-1.304-5.522-2.033-5.906-.615-.268-10.279-.268-6.52 0-6.943.344-.652.615-1.457 4.105-.729 3.183-1.765 3.452-1.303.306-8.745.307Q0 55.694 0 54.581q0-.996 8.668-24.509Q18.065 4.642 18.87 2.111 19.33.654 19.944.653q1.036 0 3.203.192 2.168.192 3.241.191 1.036 0 3.05-.134t3.011-.134q.728 0 1.342 1.267 1.88 4.027 10.97 27.616 9.128 23.74 9.128 24.776M26.696 19.485q-.806 1.688-2.723 7.325-2.071 5.985-2.071 7.019 0 .691 2.302.767 1.188.079 3.911.078 2.532-.001 2.801-.613.076-.193.076-.537 0-1.266-1.764-6.982-1.727-5.523-2.532-7.057M98.191.959q0-.844-.308 2.531-.421 4.258-.652 10.893-.307 7.519-.306 17.107 0 15.84.882 22.553.076.73.076.92 0 .422-.574.499-1.382.192-10.165.192-2.072 0-2.378-.806-.077-1.456-.153-2.916-.04-.306-.307-.613-.23.114-.574.461-4.144 4.066-10.357 4.065-8.094 0-12.964-5.676-4.641-5.408-4.641-13.655 0-8.361 4.564-13.769 4.832-5.754 13.041-5.754 5.791 0 9.014 3.681.536.615.767.615.345 0 .345-.998 0-2.954-.154-8.822-.153-5.867-.153-8.783 0-1.113.613-1.265 2.454-.116 6.751-.46Q98.23 0 97.346 0q.845 0 .845.959M83.732 36.208q-.001-3.03-2.11-5.312t-5.102-2.283q-3.145 0-5.005 2.283t-1.861 5.466q0 3.107 1.879 5.254 1.918 2.301 4.987 2.301t5.139-2.301q2.072-2.3 2.073-5.408M140.767 28.767q0 6.56-.422 7.747-.882 2.724-5.293 9.244-3.836 5.6-6.558 8.745-.999 1.189-6.023 1.188-4.374 0-5.676-.306a2.63 2.63 0 0 1-1.343-.767q-2.3-2.493-6.559-8.668-4.564-6.636-5.448-9.091-.958-2.647-.958-7.94 0-1.496.039-4.508.037-3.01.037-4.545 0-.997 1.343-.997 1.956 0 5.887.115 3.933.116 5.888.115.882 0 .882 1.189 0 1.075-.154 3.241-.153 2.167-.154 3.28 0 3.989.231 6.521.114 1.304 2.223 4.909 2.187 3.797 3.184 3.798.958 0 3.068-3.722 2.033-3.49 2.186-4.756.306-2.724.307-6.597-.001-1.112-.23-3.357-.231-2.244-.231-3.317 0-1.189.806-1.189.92 0 2.742.038 1.822.039 2.743.039.919 0 2.78-.154t2.781-.154q.959 0 1.265.997.658 2.19.657 8.902M181.117 34.559q0 3.874-2.493 4.411-.423.077-7.94.843-4.525.498-13.501 1.189.536 2.494 3.26 3.796 2.224 1.074 5.063 1.074 3.413 0 6.865-1.841 1.457-.92 2.916-1.84.804.384 2.704 3.911 1.898 3.53 1.898 4.488 0 .269-.574.882-4.681 5.024-14.537 5.024-9.129 0-14.729-5.331-5.753-5.408-5.753-14.46 0-8.823 5.139-14.461 5.294-5.83 14.039-5.83 7.364 0 12.503 5.371 5.14 5.37 5.14 12.774m-13.425-2.34q0-2.379-1.688-4.181t-4.027-1.802q-2.416 0-3.989 2.033-1.458 1.88-1.458 4.411 0 1.036 1.074 1.036 2.838 0 8.822-.882 1.267-.194 1.266-.615M223.461 54.274q0 1.035-1.074 1.188-1.073.153-5.599.154-4.834 0-5.984-.23t-1.15-1.573q-.001-1.802.115-5.447.115-3.643.115-5.485 0-1.42-.076-4.238-.079-2.82-.078-4.238 0-5.255-4.564-5.255-1.496.001-3.49 1.304-2.148 1.458-2.148 2.877v20.712q0 1.267-1.189 1.419-1.342.153-5.485.154-4.488 0-5.83-.23-1.189-.191-1.188-1.266 0-2.992.038-9.014t.038-9.051q0-9.55-1.495-14.997a2.7 2.7 0 0 1-.077-.576q0-.614.575-.843 2.417-.269 6.443-.844 6.098-1.188 6.866-1.188.421 0 .652 2.589.23 2.588.652 2.589-.422 0 4.123-2.666 4.544-2.665 7.959-2.665 4.87 0 8.131 2.301 3.644 2.647 3.644 7.364v12.236q0 2.494.039 7.461.036 4.964.037 7.458M255.527 44.148q0 1.15-.288 3.491-.287 2.34-.288 3.432 0 1.094-.23 1.401t-1.266.882q-4.949 2.724-10.97 2.723-11.084 0-11.084-8.477 0-2.53.191-7.613.192-5.082.192-7.613 0-1.688-1.956-1.688h-.498q-.346.038-.498.038-1.458 0-1.458-1.036 0-.614.096-1.879t.097-1.88q0-.805-.097-2.454a48 48 0 0 1-.096-2.455q0-.766 2.455-.843 1.381-.038 1.496-.767.23-1.457.154-4.603a535 535 0 0 0-.154-4.717q0-4.45.843-4.45 1.036 0 2.953.46 2.187.5 3.03.576 1.955.269 5.906.728.96.079.96.652 0 1.534-.249 4.64-.25 3.107-.249 4.68 0 1.88 1.112 1.88 1.342 0 4.066-.115t4.104-.115q.844 0 .844.575 0 .882-.192 2.647t-.191 2.646q0 .922.039 2.686.038 1.764.038 2.685 0 .806-1.112.806-.768 0-2.57-.058a93 93 0 0 0-2.569-.057h-2.877q-.576 0-.576 1.688v2.723q.038 1.842.039 2.723 0 3.221.728 4.45 1.036 1.648 4.066 1.649.959.001 2.743-.442 1.783-.442 2.513-.442.802 0 .803.843M299.021 20.521q0 2.84-.269 8.515-.268 5.676-.267 8.516 0 2.761.191 8.285.192 5.525.192 8.246 0 1.036-.959 1.304-1.458.384-6.175.384-4.182 0-5.83-.23-.73-.115-.921-.92l-.231-2.301q-.19-1.763-.537-1.764.536 0-3.874 2.608t-8.016 2.607q-10.165 0-12.044-9.167-.845-4.258-.845-12.351 0-8.745 1.419-13.807.423-1.573 1.573-1.573 1.763 0 5.37.039 3.603.038 5.371.037 1.188 0 1.188.998 0 .267-.077.805a69 69 0 0 0-.806 10.587q0 6.673.422 9.128.69 4.22 5.025 4.22 1.687 0 3.663-1.495 1.975-1.497 2.052-3.107.077-1.42.078-19.255 0-1.266.191-1.495.23-.385 1.38-.385 1.88 0 5.658.039 3.776.04 5.657.039 1.15 0 1.343.576.078.303.078.917M330.781 31.49q0 1.497-1.65 1.496a33 33 0 0 1-2.128-.097 34 34 0 0 0-2.09-.096q-3.183 0-4.335.997-1.15.998-1.151 4.027 0 1.65.059 5.005.058 3.358.058 5.006 0 1.113.152 3.317.154 2.206.154 3.28 0 .92-1.266 1.036-1.84.153-5.639.154-3.643-.001-5.83-.23-1.265-.153-1.265-1.267 0-3.066.039-9.186.037-6.117.037-9.186 0-9.014-1.649-14.843a2.8 2.8 0 0 1-.076-.576q0-.574.574-.767 2.11-.23 6.176-.844 6.06-1.188 6.251-1.188.691 0 .883 2.416.19 2.416.69 2.416-.537 0 3.146-2.013t7.095-2.013q2.15 0 2.149.921-.001 1.112-.23 3.144-.23 2.187-.269 3.146 0 1.113.037 2.953.077 2.264.078 2.992M370.402 34.559q0 3.874-2.494 4.411-.422.077-7.94.843-4.526.498-13.5 1.189.537 2.494 3.259 3.796 2.224 1.074 5.063 1.074 3.413 0 6.865-1.841 1.457-.92 2.916-1.84.805.384 2.703 3.911 1.899 3.53 1.899 4.488 0 .269-.575.882-4.68 5.024-14.536 5.024-9.13 0-14.73-5.331-5.753-5.408-5.753-14.46 0-8.823 5.139-14.461 5.293-5.83 14.038-5.83 7.364 0 12.504 5.371 5.142 5.372 5.142 12.774m-13.425-2.34q0-2.379-1.689-4.181-1.688-1.803-4.028-1.802-2.415 0-3.989 2.033-1.457 1.88-1.458 4.411 0 1.036 1.074 1.036 2.838 0 8.822-.882 1.268-.194 1.268-.615M445.004 54.158q.076 1.037-1.074 1.037-.728 0-4.199-.844-3.471-.843-4.276-1.15-8.017 3.145-15.382 3.145-11.85 0-19.446-7.901-7.517-7.787-7.518-19.676 0-12.16 7.288-20.176Q407.914.308 419.921.308q5.828 0 10.97 2.225 5.56 2.455 8.745 6.903.651.922.652 1.304 0 1.228-3.433 5.504-3.433 4.277-4.43 4.276-.23.001-1.764-1.573-1.879-1.879-3.834-2.915-2.918-1.573-6.443-1.573-5.755 0-9.13 4.296-3.145 3.95-3.145 9.857 0 6.252 3.26 9.896 3.375 3.759 9.55 3.759 3.913 0 8.745-1.956-.116-1.265-.691-6.443-.499-3.99-.498-6.443 0-.73.498-.883.193-.077.613-.077 1.113 0 3.357.21 2.244.212 3.395.212 1.226 0 3.682-.173t3.681-.173q.96 0 .96 1.265 0 1.842-.211 5.563-.212 3.72-.212 5.561 0 4.947.73 14.805zM488.652 36.208q0 2.953.344 8.783.347 5.83.346 8.746 0 1.532-1.343 1.649-4.756.345-10.893.345-.728.001-.977-2.206-.25-2.205-.595-2.243-.307.153-.807.652-4.295 4.334-9.203 4.334-7.48 0-12.39-5.906-4.641-5.524-4.64-13.194 0-8.86 4.794-14.268 4.986-5.6 13.655-5.6 6.021 0 9.512 4.219.153.193.269.192.346 0 .786-1.86t1.055-1.86q1.418 0 5.409.806 3.796.767 5.447 1.303.575.23.575.614 0 .153-.116.805-1.229 6.942-1.228 14.689m-12.35.23q0-3.26-2.053-5.389T468.9 28.92q-3.3 0-5.332 2.11-2.035 2.11-2.034 5.408 0 3.107 2.149 5.331 2.148 2.226 5.217 2.225 3.258 0 5.331-2.129 2.071-2.128 2.071-5.427M557.578 53.967q0 1.343-1.151 1.497-1.152.153-5.676.154-4.68 0-5.83-.231-1.152-.229-1.152-1.879 0-1.764.115-5.273.116-3.509.116-5.275 0-6.712-.153-9.55-.23-4.564-4.335-4.564-1.802 0-3.585 1.516-1.785 1.515-1.976 3.356-.153 1.61-.152 9.435-.001 1.803.115 5.466.115 3.663.115 5.503 0 1.266-1.113 1.267h-11.622q-1.074 0-1.074-1.573 0-1.803.117-5.409.115-3.604.115-5.447 0-1.418-.078-4.296a179 179 0 0 1-.078-4.333q.001-5.485-4.18-5.485-1.688.001-3.644 1.304-2.149 1.419-2.148 2.992 0 3.492.038 10.433t.038 10.393q0 .96-.231 1.189-.23.229-1.189.308-1.726.153-5.447.154-2.415-.001-5.484-.23-.92-.078-1.094-.268-.173-.192-.173-1.152 0-3.066.038-9.186.039-6.117.039-9.186 0-6.29-.921-14.153a4.5 4.5 0 0 1-.077-.69q0-.653.537-.883.844-.344 3.184-.575 2.875-.267 3.415-.346.383-.076 3.029-.805 1.88-.537 3.031-.537.728 0 .767 2.665.038 2.666.307 2.666.382-.154.882-.537 3.45-2.685 5.447-3.682 2.952-1.419 6.404-1.419 3.53 0 6.291 1.573 3.106 1.764 4.027 4.948 2.033-2.762 5.601-4.641 3.566-1.88 6.942-1.88 5.063 0 8.247 2.34 3.605 2.647 3.606 7.557 0 2.032-.116 6.118-.116 4.085-.116 6.118 0 2.416.116 7.269.116 4.848.116 7.264M600 34.559q0 3.874-2.494 4.411-.423.077-7.94.843-4.526.498-13.501 1.189.536 2.494 3.26 3.796 2.224 1.074 5.063 1.074 3.413 0 6.865-1.841 1.456-.92 2.916-1.84.806.384 2.703 3.911 1.899 3.53 1.899 4.488 0 .269-.575.882-4.68 5.024-14.536 5.024-9.13 0-14.73-5.331-5.753-5.408-5.753-14.46 0-8.823 5.139-14.461c3.527-3.887 8.209-5.83 14.037-5.83q7.365 0 12.505 5.371Q600 27.157 600 34.559m-13.424-2.34q0-2.379-1.689-4.181-1.687-1.803-4.028-1.802-2.415 0-3.989 2.033-1.457 1.88-1.458 4.411 0 1.036 1.074 1.036 2.838 0 8.822-.882 1.269-.194 1.268-.615M227.344 105.314q0 7.785-6.558 13.348-5.754 4.908-14 6.252a4 4 0 0 1-.498.037q-.883 0-3.912-5.389-3.03-5.388-3.03-6.579 0-.42.576-.537 5.56-1.265 7.364-2.148 3.989-1.995 3.989-5.907 0-2.492-2.607-5.562-4.526-5.215-4.909-5.791-2.647-3.989-2.647-8.822 0-7.02 6.482-11.66 5.292-3.835 13.003-4.986.421-.038.652-.037.576 0 .921.92.996 2.8 4.64 10.126a.9.9 0 0 1 .115.384q0 .652-.691.652-.307 0-1.036-.117-.73-.114-1.112-.115-2.762 0-4.833 1.267-2.494 1.457-2.493 4.065 0 2.34 2.762 5.754 4.87 6.138 5.102 6.443 2.719 4.223 2.72 8.402M259.103 111.721q0 1.149-.287 3.49-.288 2.34-.288 3.432t-.231 1.4q-.23.306-1.266.881-4.948 2.724-10.969 2.724-11.086 0-11.085-8.476 0-2.531.192-7.613.19-5.082.191-7.614 0-1.688-1.956-1.688h-.498q-.345.04-.498.038-1.458 0-1.458-1.035 0-.614.097-1.88.096-1.266.096-1.879 0-.806-.096-2.455a47 47 0 0 1-.097-2.455q0-.766 2.456-.844 1.381-.039 1.495-.767.23-1.457.154-4.604a535 535 0 0 0-.154-4.717q0-4.45.843-4.45 1.036 0 2.954.461 2.186.498 3.029.574 1.956.27 5.906.729.96.077.96.652 0 1.535-.249 4.642t-.249 4.678q0 1.88 1.113 1.88 1.342 0 4.065-.115 2.724-.116 4.105-.115.843 0 .843.575 0 .882-.191 2.647-.193 1.764-.192 2.645 0 .92.039 2.686.038 1.764.039 2.685 0 .807-1.113.807-.766 0-2.57-.059a97 97 0 0 0-2.569-.057h-2.877q-.575 0-.575 1.688v2.724q.038 1.84.038 2.723 0 3.223.729 4.45 1.036 1.65 4.065 1.649.96.001 2.743-.442 1.783-.44 2.513-.441.802 0 .803.846M302.598 88.093q0 2.84-.269 8.515-.268 5.677-.268 8.515 0 2.762.191 8.286.192 5.522.192 8.246 0 1.036-.959 1.304-1.457.383-6.175.384-4.181 0-5.83-.23-.73-.116-.921-.921l-.23-2.301q-.192-1.764-.537-1.765.536 0-3.874 2.609t-8.017 2.608q-10.165.001-12.044-9.167-.844-4.257-.844-12.35 0-8.746 1.419-13.809.421-1.571 1.573-1.572 1.763 0 5.369.038a509 509 0 0 0 5.371.038q1.188 0 1.189.997 0 .27-.078.806a69 69 0 0 0-.806 10.586q0 6.676.422 9.129.69 4.22 5.025 4.22 1.688 0 3.663-1.496t2.052-3.106q.078-1.42.078-19.255 0-1.265.191-1.496.23-.383 1.381-.384 1.878 0 5.657.039 3.778.038 5.657.037 1.15 0 1.343.576.08.306.079.919M349.583 68.531q0-.842-.306 2.531-.423 4.258-.652 10.893-.307 7.52-.307 17.107-.001 15.84.883 22.552.077.73.077.921 0 .42-.575.498-1.38.19-10.165.191-2.072 0-2.378-.806l-.152-2.915q-.04-.306-.307-.613-.23.115-.576.46-4.142 4.065-10.356 4.066-8.094-.001-12.964-5.678-4.64-5.407-4.64-13.653 0-8.362 4.564-13.77 4.832-5.754 13.04-5.755 5.793 0 9.014 3.683.537.613.767.613.345 0 .344-.997 0-2.954-.153-8.822-.154-5.869-.154-8.785 0-1.113.615-1.266 2.452-.116 6.751-.46 7.67-.959 6.788-.959.842.006.842.964m-14.459 35.248q0-3.028-2.11-5.311t-5.101-2.282q-3.147 0-5.006 2.282t-1.859 5.465q-.001 3.107 1.879 5.255 1.918 2.302 4.986 2.301t5.139-2.301q2.072-2.302 2.072-5.409M369.451 105.352q0 2.801.115 8.343.116 5.542.115 8.304 0 .808-.958.96-1.306.23-5.868.23-4.603 0-5.907-.23-.845-.153-1.036-.498-.078-.153-.077-1.151 0-2.645.115-7.958.116-5.312.116-7.998 0-10.893-.844-17.337a8 8 0 0 1-.077-.805q0-.767 1.034-.767 1.074 0 3.28.231 2.207.23 3.317.23 1.112 0 3.337-.191 2.225-.192 3.337-.192.92.001.92.767-.001.154-.077.729-.841 7.477-.842 17.333m.998-28.498q0 6.674-7.519 6.674-3.222 0-5.33-1.688-2.303-1.841-2.303-4.986.001-2.99 2.378-4.91 2.186-1.764 5.254-1.765 2.993 0 5.179 1.804 2.341 1.919 2.341 4.871M413.753 104.087q0 8.744-5.35 14.192-5.35 5.447-14.057 5.447-8.438 0-13.885-5.37t-5.448-13.808q0-8.898 5.217-14.441t14.114-5.543q8.668 0 14.039 5.428 5.37 5.427 5.37 14.095m-12.581 0q0-3.03-1.88-5.35t-4.871-2.32q-3.03 0-4.986 2.377-1.841 2.226-1.842 5.293 0 3.106 1.842 5.331 1.956 2.38 4.986 2.378 2.992 0 4.947-2.378 1.803-2.225 1.804-5.331" style="fill:#fff"/></svg>