<svg xmlns="http://www.w3.org/2000/svg" viewBox="0 0 264 30"><path d="M21.354 21.428h-9.605l-1.875 1.921-2.112 2.09q-.61.688-.879 1.243a1.7 1.7 0 0 0-.189.853q.022.445.627.826.606.379 1.964.437l.031.635H0l.199-.635q1.23-.168 2.171-.704 1.251-.741 3.546-3.056L26.981 4.076h1.035l-.002 20.287q.01 1.59.027 1.924.064 1.265.715 1.84.653.576 2.111.669l-.197.636H17.186l.222-.636q1.996-.148 2.289-.258.634-.258 1.123-1.08.487-.82.502-2.852l.03-3.179Zm-.075-1.496.208-8.092-8.227 8.092h8.02M50.461 4.651l3.172 17.07 13.961-17.07h10.953l-.246.636q-2.25 0-3.385.769-1.132.77-1.846 3.043l-4.943 15.897q-.477 1.52-.439 2.261.033.683.744 1.101.712.415 2.734.454l-.175.635H55.449l.243-.635q2.506 0 3.663-.77 1.156-.77 1.871-3.045l5.005-16.101L49.457 29.45h-.965L44.629 8.494l-5.131 16.503q-.316 1.018-.283 1.705.047.925.866 1.489.823.565 2.733.622l-.198.635H32.321l.176-.635q1.857-.057 2.818-.63 1.693-1.038 2.37-3.187L43.49 6.643q-1.007-.841-1.79-1.099-.781-.256-2.594-.256l.242-.636h11.118M81.281 5.271l.221-.636h15.222l-.267.636q-2.07 0-3.124.74-1.055.736-1.766 3.088l-4.934 15.872q-.537 1.701-.509 2.274.033.666.696 1.034.85.48 3.152.519l-.199.635H74.346l.221-.635q2.322-.001 3.366-.712 1.044-.712 1.798-3.116l4.934-15.872q.454-1.479.417-2.238-.037-.682-.697-1.071-.663-.39-3.105-.518M142.331 21.428h-9.603l-1.875 1.921-2.112 2.09q-.608.688-.881 1.243a1.7 1.7 0 0 0-.187.853q.023.445.628.826.603.379 1.964.437l.031.635h-9.316l.198-.635q1.233-.168 2.171-.704 1.25-.741 3.548-3.056l21.066-20.962h1.035l-.005 20.287a76 76 0 0 0 .029 1.924q.064 1.265.714 1.84.653.576 2.11.669l-.197.636h-13.484l.223-.636q1.995-.148 2.29-.258.633-.258 1.12-1.08.49-.82.505-2.852l.028-3.179Zm-.075-1.496.211-8.092-8.227 8.092z" style="fill:#fff"/><path d="M125.265 4.313c.224.206.287.89.287.89l-1.481 6.808h-.8c-.236-2.295-.32-3.946-1.563-4.956-1.241-1.01-1.884-1.575-4.036-1.575-2.217 0-5.019.679-7.175 1.915-2.153 1.235-4.825 3.141-6.259 5.714-1.432 2.576-2.299 5.282-2.158 8.118q.185 3.652 2.447 5.578 2.263 1.925 5.176 1.925 1.23 0 2.961-.531l2.033-6.547c.344-1.1.507-1.817.491-2.159q-.035-.677-.78-1.143-.749-.466-2.518-.467l.193-.709h13.383l-.171.709q-1.191.058-1.855.37a2.3 2.3 0 0 0-1.022.917q-.214.359-.621 1.85l-2.294 7.376Q114.64 30 109.18 30q-4.213-.001-7.225-1.187-3.014-1.189-5.084-3.764-2.07-2.578-2.234-5.868-.348-7.018 7.275-11.569c3.983-2.353 8.474-3.382 13.628-3.635.489 0 1.75-.119 3.508-.119 1.494 0 3.223.049 5.727.227 0 0 .215-.027.488.23M166.605 10.572v12.373c0 3.414 2.697 6.186 6.021 6.186h13.198c3.323 0 6.02-2.771 6.02-6.186l-.001-3.161h-5.973v1.19c0 1.535-1.095 2.658-2.588 2.658h-8.207c-1.492 0-2.585-1.123-2.585-2.658v-7.879c0-1.536 1.093-2.659 2.585-2.659h7.671c1.493 0 2.588 1.123 2.588 2.659v.641h5.973l.002-3.163c0-3.415-2.698-6.187-6.021-6.187h-12.665c-3.323 0-6.02 2.771-6.02 6.187M201.391 23.655V9.907h10.57c1.847 0 3.343 1.539 3.343 3.44v6.874c0 1.896-1.497 3.437-3.343 3.437h-10.57Zm-5.886 5.499h19.218c3.565 0 6.557-3.077 6.557-6.736V11.145c0-3.66-2.992-6.737-6.557-6.737h-19.218zM250.087 7.301c-2.397 0-4.839 1.272-4.839 3.7v2.247l.024.002v3.248H264v-3.48h-13.496c-1.738-.445.167-1.867 1.051-1.971h8.104c2.397 0 4.339-1.972 4.339-4.399V4.399c0-2.428-1.942-4.399-4.339-4.399h-9.538c-2.397 0-4.876 1.42-4.876 3.851v2.248h4.716v-.456c0-1.09.789-1.891 1.866-1.891h6.063c1.037 0 1.807.743 1.862 1.774-.055 1.029-.825 1.771-1.862 1.771l-7.806.002M239.449 8.26c1.814-.136 3.144-.705 3.144-2.712V3.299c0-2.428-1.945-3.299-4.339-3.299h-8.472c-2.394 0-4.875 1.42-4.875 3.851v2.248h4.718v-.456c0-1.091.787-1.891 1.864-1.891h4.994c1.037 0 1.807.194 1.862 1.223-.055 1.031-.825 1.771-1.862 1.771l-4.059.003v3.053h4.595c1.037 0 1.806.742 1.861 1.773-.055 1.029-.824 1.221-1.861 1.221h-5.53c-1.077 0-1.864-.798-1.864-1.889v-.458h-4.718v2.25c0 2.428 2.48 3.849 4.875 3.849h9.008c2.734-.049 4.339-1.421 4.339-3.849v-1.698c0-2.201-1.596-2.67-3.677-2.739" style="fill:#fff"/></svg>