<svg xmlns="http://www.w3.org/2000/svg" style="fill-rule:evenodd;clip-rule:evenodd;stroke-linejoin:round;stroke-miterlimit:2" viewBox="0 0 168 62"><path d="M126.235 11.068a1.07 1.07 0 0 1-1.065-1.065 1.07 1.07 0 0 1 1.065-1.064 1.07 1.07 0 0 1 1.064 1.064 1.07 1.07 0 0 1-1.064 1.065m-11.72 0a1.07 1.07 0 0 1-1.065-1.065 1.07 1.07 0 0 1 1.065-1.064 1.07 1.07 0 0 1 1.064 1.064 1.07 1.07 0 0 1-1.064 1.065m12.097-6.387 2.129-3.67a.44.44 0 1 0-.765-.432l-2.151 3.714a13 13 0 0 0-5.445-1.175c-1.88-.005-3.74.392-5.455 1.164L112.774.567a.44.44 0 0 0-.821.219q0 .114.056.214l2.118 3.67a12.55 12.55 0 0 0-6.498 10.024h25.469a12.49 12.49 0 0 0-6.486-10.013M38.983 4.72c1.38 0 2.527.712 3.072 1.48V4.909h2.104v9.584h-1.514a.6.6 0 0 1-.601-.601v-.69c-.534.779-1.681 1.492-3.061 1.492-2.627 0-4.62-2.249-4.62-4.987s1.993-4.987 4.62-4.987m.379 1.914c-1.704 0-2.861 1.347-2.861 3.073s1.146 3.072 2.861 3.072c1.703 0 2.86-1.347 2.86-3.072s-1.146-3.073-2.86-3.073M46.553 4.909h2.115v1.302c.578-.957 1.669-1.491 2.916-1.491 2.226 0 3.662 1.569 3.662 4.007v5.766h-1.514a.6.6 0 0 1-.601-.601v-4.82c0-1.514-.768-2.438-1.992-2.438-1.403 0-2.471 1.091-2.471 3.139v4.72h-1.514a.6.6 0 0 1-.601-.601zM61.536 4.72c1.38 0 2.527.712 3.072 1.48V.122h2.104v14.382h-1.514a.6.6 0 0 1-.601-.601v-.69c-.534.768-1.692 1.481-3.072 1.481-2.628 0-4.62-2.249-4.62-4.987.011-2.739 2.004-4.987 4.631-4.987m.378 1.914c-1.703 0-2.861 1.347-2.861 3.073s1.147 3.072 2.861 3.072c1.703 0 2.861-1.347 2.861-3.072s-1.158-3.073-2.861-3.073M69.083 4.909h2.126v1.703c.367-1.091 1.436-1.803 2.527-1.803.267 0 .534.022.824.078v2.17c-.368-.111-.668-.178-1.058-.178-1.213 0-2.304 1.013-2.304 2.939v4.675h-1.514a.6.6 0 0 1-.601-.601zM80.259 14.694c-2.839 0-5.02-2.204-5.02-4.987s2.181-4.987 5.02-4.987 5.02 2.204 5.02 4.987-2.182 4.987-5.02 4.987m0-1.96c1.692 0 2.872-1.324 2.872-3.027s-1.191-3.028-2.872-3.028c-1.703 0-2.894 1.325-2.894 3.028s1.191 3.027 2.894 3.027M88.04 2.816a1.423 1.423 0 0 1-1.414-1.413C86.626.635 87.283 0 88.04 0c.79 0 1.402.635 1.402 1.403 0 .79-.612 1.413-1.402 1.413m-1.046 2.093h2.103v9.584h-1.502a.6.6 0 0 1-.601-.601zM95.453 4.72c1.381 0 2.527.712 3.073 1.48V.122h2.104v14.382h-1.514a.6.6 0 0 1-.601-.601v-.69c-.535.768-1.692 1.481-3.073 1.481-2.627 0-4.619-2.249-4.619-4.987.011-2.739 2.003-4.987 4.63-4.987m.39 1.914c-1.703 0-2.861 1.347-2.861 3.073s1.147 3.072 2.861 3.072c1.703 0 2.861-1.347 2.861-3.072s-1.158-3.073-2.861-3.073M14.321 61.755q-5.597 0-9.218-2.743-3.567-2.744-4.115-7.133h5.926q1.59 4.719 7.572 4.719 3.237 0 5.322-2.14 2.14-2.085 2.14-5.926v-3.238q-1.317 1.866-3.676 3.074-2.36 1.206-5.103 1.206-5.542 0-9.383-4.005Q0 41.509 0 35.638q0-5.817 3.786-9.822 3.841-4.06 9.383-4.061 2.744 0 5.103 1.208 2.358 1.152 3.676 3.018v-3.677h6.036v25.734q0 6.804-3.896 10.26-3.841 3.457-9.767 3.457M8.45 41.673q2.359 2.36 5.816 2.36t5.816-2.36q2.36-2.414 2.36-6.035t-2.36-5.981q-2.359-2.414-5.816-2.414T8.45 29.657q-2.36 2.359-2.359 5.981t2.359 6.035m37.873 8.615q-5.595 0-9.437-4.171Q33.1 41.948 33.1 36.022t3.786-10.096q3.842-4.171 9.437-4.171 2.8 0 5.159 1.263 2.359 1.206 3.621 2.963v-3.677h6.035v27.435h-6.035v-3.676q-1.262 1.755-3.621 3.017-2.36 1.208-5.159 1.208m-4.773-8.011q2.305 2.524 5.871 2.524t5.871-2.524 2.305-6.255-2.305-6.255-5.871-2.524-5.871 2.524q-2.305 2.523-2.305 6.255 0 3.73 2.305 6.255m61.687 7.462V34.321q0-3.348-1.262-5.213-1.207-1.865-3.621-1.865-2.909 0-4.664 2.249-1.757 2.25-1.865 6.31v13.937h-6.036V34.321q0-3.348-1.262-5.213-1.208-1.865-3.622-1.865-3.018 0-4.828 2.359-1.756 2.36-1.756 6.639v13.498h-6.035V22.304h6.035v3.731q2.524-4.28 7.792-4.28 6.2 0 8.504 5.432 1.152-2.579 3.512-4.005 2.413-1.427 5.268-1.427 4.608 0 7.243 3.128 2.633 3.128 2.633 8.45v16.406zm24.87.549q-6.146 0-10.096-4.006-3.951-4.06-3.951-10.26t3.896-10.206q3.896-4.06 10.206-4.061 6.365 0 10.26 4.445 3.897 4.39 3.457 11.303h-21.838q.11 3.182 2.414 5.322t5.872 2.14q5.048 0 6.913-3.84h6.31q-1.261 4.005-4.828 6.584-3.567 2.58-8.615 2.579m-.109-23.484q-2.964 0-5.103 1.7-2.086 1.647-2.689 4.72h15.199q-.66-3.183-2.689-4.774-2.03-1.647-4.718-1.646m28.71 23.484q-4.883 0-8.231-2.414-3.292-2.415-3.512-6.475h6.256q.659 4.06 5.651 4.06 2.031 0 3.237-.713 1.208-.768 1.208-2.195t-.933-2.249q-.934-.824-3.127-1.372l-4.5-1.208q-7.023-1.865-7.023-8.284 0-3.458 2.799-5.543 2.797-2.14 7.407-2.14 4.444 0 7.297 2.25t3.183 5.981h-6.036q-.878-3.402-4.499-3.402-1.811 0-2.908.768-1.098.713-1.098 2.03 0 2.359 3.677 3.293l4.609 1.207q7.298 1.865 7.298 8.285 0 3.895-3.019 6.036-2.962 2.085-7.736 2.085" style="fill:#fff;fill-rule:nonzero"/></svg>