<svg xmlns="http://www.w3.org/2000/svg" width="788" height="120" viewBox="0 0 788 120"><path d="M37.955 38.545c11.272 0 20.636 5.819 25.091 12.091V40.091h17.181v78.273H67.864a4.89 4.89 0 0 1-4.909-4.909v-5.637c-4.364 6.364-13.728 12.182-25 12.182C16.5 120 .227 101.636.227 79.273c0-22.364 16.273-40.728 37.728-40.728m3.091 15.637c-13.91 0-23.364 11-23.364 25.091s9.364 25.091 23.364 25.091c13.909 0 23.363-11 23.363-25.091s-9.363-25.091-23.363-25.091M99.773 40.091h17.273v10.636c4.727-7.818 13.636-12.182 23.818-12.182 18.182 0 29.909 12.819 29.909 32.728v47.091h-12.364a4.89 4.89 0 0 1-4.909-4.909V74.091c0-12.364-6.273-19.909-16.273-19.909-11.454 0-20.181 8.909-20.181 25.636v38.546h-12.364a4.89 4.89 0 0 1-4.909-4.909ZM222.136 38.545c11.273 0 20.637 5.819 25.091 12.091V1h17.182v117.455h-12.363a4.89 4.89 0 0 1-4.909-4.91v-5.636C242.773 114.182 233.318 120 222.046 120c-21.455 0-37.728-18.364-37.728-40.727.091-22.364 16.364-40.728 37.818-40.728m3.091 15.637c-13.909 0-23.363 11-23.363 25.091s9.363 25.091 23.363 25.091c13.909 0 23.364-11 23.364-25.091s-9.455-25.091-23.364-25.091M283.955 40.091h17.182V54c3-8.909 11.727-14.727 20.636-14.727 2.182 0 4.364.182 6.727.636v17.727c-3-.909-5.454-1.454-8.636-1.454-9.909 0-18.818 8.273-18.818 24v38.182h-12.364a4.89 4.89 0 0 1-4.909-4.909V40.091ZM375.046 120c-23.182 0-41-18-41-40.727 0-22.728 17.818-40.728 41-40.728s41 18 41 40.728c0 22.727-17.819 40.727-41 40.727m0-16c13.818 0 23.454-10.818 23.454-24.727s-9.727-24.728-23.454-24.728c-13.909 0-23.637 10.819-23.637 24.728S361.137 104 375.046 104M438.591 23c-6.273 0-11.545-5.182-11.545-11.545C427.046 5.182 432.409 0 438.591 0c6.455 0 11.455 5.182 11.455 11.455 0 6.454-5 11.545-11.455 11.545m-8.545 17.091h17.181v78.273h-12.272a4.89 4.89 0 0 1-4.909-4.909ZM499.136 38.545c11.273 0 20.637 5.819 25.091 12.091V1h17.182v117.455h-12.363a4.89 4.89 0 0 1-4.91-4.91v-5.636c-4.363 6.273-13.818 12.091-25.09 12.091-21.455 0-37.728-18.364-37.728-40.727.091-22.364 16.364-40.728 37.818-40.728m3.182 15.637c-13.909 0-23.363 11-23.363 25.091s9.363 25.091 23.363 25.091c13.909 0 23.364-11 23.364-25.091s-9.455-25.091-23.364-25.091" style="stroke-width:9.48393;fill:#fff"/><path d="M731.5 88.818a8.73 8.73 0 0 1-8.727-8.727 8.73 8.73 0 0 1 8.727-8.727 8.73 8.73 0 0 1 8.727 8.727 8.73 8.73 0 0 1-8.727 8.727m-96.091 0a8.73 8.73 0 0 1-8.727-8.727 8.73 8.73 0 0 1 8.727-8.727c4.818 0 8.728 3.909 8.728 8.727s-3.91 8.727-8.728 8.727m99.182-52.363 17.455-30.091c1-1.728.363-3.909-1.364-4.909s-3.909-.364-4.909 1.363l-17.636 30.455c-13.455-6.182-28.546-9.637-44.637-9.637s-31.273 3.455-44.727 9.546L621.136 2.727c-.999-1.727-3.181-2.363-4.909-1.363s-2.363 3.181-1.363 4.909l17.363 30.091c-29.818 16.272-50.272 46.454-53.272 82.181h208.818c-2.909-35.636-23.273-65.818-53.182-82.09" class="logo-android__andy-icon" style="fill-opacity:1;stroke-width:9.48393;fill:#fff"/></svg>