<svg xmlns="http://www.w3.org/2000/svg" style="fill-rule:evenodd;clip-rule:evenodd;stroke-linejoin:round;stroke-miterlimit:2" viewBox="0 0 168 62"><path d="M126.235 11.068a1.07 1.07 0 0 1-1.065-1.065 1.07 1.07 0 0 1 1.065-1.064 1.07 1.07 0 0 1 1.064 1.064 1.07 1.07 0 0 1-1.064 1.065m-11.72 0a1.07 1.07 0 0 1-1.065-1.065 1.07 1.07 0 0 1 1.065-1.064 1.07 1.07 0 0 1 1.064 1.064 1.07 1.07 0 0 1-1.064 1.065m12.097-6.387 2.129-3.67a.44.44 0 1 0-.765-.432l-2.151 3.714a13 13 0 0 0-5.445-1.175c-1.88-.005-3.74.392-5.455 1.164L112.774.567a.44.44 0 0 0-.821.219q0 .114.056.214l2.118 3.67a12.55 12.55 0 0 0-6.498 10.024h25.469a12.49 12.49 0 0 0-6.486-10.013M38.983 4.72c1.38 0 2.527.712 3.072 1.48V4.909h2.104v9.584h-1.514a.6.6 0 0 1-.601-.601v-.69c-.534.779-1.681 1.492-3.061 1.492-2.627 0-4.62-2.249-4.62-4.987s1.993-4.987 4.62-4.987m.379 1.914c-1.704 0-2.861 1.347-2.861 3.073s1.146 3.072 2.861 3.072c1.703 0 2.86-1.347 2.86-3.072s-1.146-3.073-2.86-3.073M46.553 4.909h2.115v1.302c.578-.957 1.669-1.491 2.916-1.491 2.226 0 3.662 1.569 3.662 4.007v5.766h-1.514a.6.6 0 0 1-.601-.601v-4.82c0-1.514-.768-2.438-1.992-2.438-1.403 0-2.471 1.091-2.471 3.139v4.72h-1.514a.6.6 0 0 1-.601-.601zM61.536 4.72c1.38 0 2.527.712 3.072 1.48V.122h2.104v14.382h-1.514a.6.6 0 0 1-.601-.601v-.69c-.534.768-1.692 1.481-3.072 1.481-2.628 0-4.62-2.249-4.62-4.987.011-2.739 2.004-4.987 4.631-4.987m.378 1.914c-1.703 0-2.861 1.347-2.861 3.073s1.147 3.072 2.861 3.072c1.703 0 2.861-1.347 2.861-3.072s-1.158-3.073-2.861-3.073M69.083 4.909h2.126v1.703c.367-1.091 1.436-1.803 2.527-1.803.267 0 .534.022.824.078v2.17c-.368-.111-.668-.178-1.058-.178-1.213 0-2.304 1.013-2.304 2.939v4.675h-1.514a.6.6 0 0 1-.601-.601zM80.259 14.694c-2.839 0-5.02-2.204-5.02-4.987s2.181-4.987 5.02-4.987 5.02 2.204 5.02 4.987-2.182 4.987-5.02 4.987m0-1.96c1.692 0 2.872-1.324 2.872-3.027s-1.191-3.028-2.872-3.028c-1.703 0-2.894 1.325-2.894 3.028s1.191 3.027 2.894 3.027M88.04 2.816a1.423 1.423 0 0 1-1.414-1.413C86.626.635 87.283 0 88.04 0c.79 0 1.402.635 1.402 1.403 0 .79-.612 1.413-1.402 1.413m-1.046 2.093h2.103v9.584h-1.502a.6.6 0 0 1-.601-.601zM95.453 4.72c1.381 0 2.527.712 3.073 1.48V.122h2.104v14.382h-1.514a.6.6 0 0 1-.601-.601v-.69c-.535.768-1.692 1.481-3.073 1.481-2.627 0-4.619-2.249-4.619-4.987.011-2.739 2.003-4.987 4.63-4.987m.39 1.914c-1.703 0-2.861 1.347-2.861 3.073s1.147 3.072 2.861 3.072c1.703 0 2.861-1.347 2.861-3.072s-1.158-3.073-2.861-3.073M35.282 50.685q-5.674 0-9.569-4.229-3.839-4.227-3.839-10.236 0-6.008 3.839-10.236 3.895-4.229 9.569-4.229 2.838 0 5.23 1.28 2.391 1.223 3.671 3.005v-3.728h6.12v27.816h-6.12v-3.727q-1.28 1.78-3.671 3.059-2.392 1.225-5.23 1.225m-4.84-8.122q2.337 2.558 5.952 2.558 3.616 0 5.953-2.558 2.337-2.56 2.337-6.343t-2.337-6.342-5.953-2.559q-3.615 0-5.952 2.559t-2.337 6.342 2.337 6.343m33.227 19.193h-6.12V22.312h6.12v3.728q1.28-1.782 3.671-3.005 2.448-1.28 5.285-1.28 5.676 0 9.514 4.229 3.894 4.229 3.894 10.236 0 6.009-3.894 10.236-3.838 4.229-9.514 4.229-2.837 0-5.285-1.225-2.391-1.278-3.671-3.059zm7.844-16.635q3.617 0 5.952-2.558 2.337-2.56 2.337-6.343t-2.337-6.342q-2.335-2.559-5.952-2.559-3.672 0-6.008 2.559-2.337 2.559-2.337 6.342t2.337 6.343q2.336 2.558 6.008 2.558M97.34 61.756h-6.119V22.312h6.119v3.728q1.28-1.782 3.672-3.005 2.448-1.28 5.285-1.28 5.676 0 9.513 4.229 3.895 4.229 3.895 10.236 0 6.009-3.895 10.236-3.837 4.229-9.513 4.229-2.837 0-5.285-1.225-2.392-1.278-3.672-3.059zm7.845-16.635q3.617 0 5.952-2.558 2.337-2.56 2.337-6.343t-2.337-6.342q-2.335-2.559-5.952-2.559-3.672 0-6.009 2.559T96.84 36.22q0 3.783 2.336 6.343 2.337 2.558 6.009 2.558m29.499 5.564q-4.952 0-8.345-2.448-3.338-2.448-3.561-6.565h6.342q.669 4.117 5.731 4.117 2.059 0 3.282-.723 1.224-.78 1.224-2.226t-.945-2.28q-.947-.836-3.171-1.391l-4.563-1.225q-7.12-1.89-7.12-8.4 0-3.505 2.837-5.619 2.836-2.17 7.51-2.17 4.507 0 7.399 2.282 2.893 2.28 3.227 6.063h-6.119q-.891-3.449-4.562-3.449-1.837 0-2.949.779-1.113.723-1.113 2.059 0 2.391 3.728 3.337l4.673 1.225q7.4 1.89 7.399 8.4 0 3.95-3.06 6.12-3.004 2.114-7.844 2.114" style="fill:#fff;fill-rule:nonzero"/></svg>