<svg xmlns="http://www.w3.org/2000/svg" viewBox="0 0 785 212.6"><path d="M282.455 152.604q1.931 6.149 3.513 9.836 1.58 3.69 5.094 5.972 2.459 1.757 4.479 2.02t2.021 1.845q0 2.46-3.688 2.459-2.285 0-5.884-.527-3.601-.526-8.87-.526-7.377 0-11.856.438-4.479.44-6.235.439-2.987 0-2.985-2.107-.002-2.81 3.513-2.811 4.388.001 5.796-.878 1.405-.876 1.405-3.338 0-2.28-1.581-7.903l-6.85-22.482q-.354-1.404-2.635-1.405h-21.779q-.528.001-1.142.439c-.396.27-.678.677-.791 1.142l-4.215 15.632q-2.635 10.364-2.635 13.524 0 2.636 1.054 3.513 1.052.881 3.513 1.229 3.512.53 5.27 1.229 1.755.705 1.757 2.635-.001 2.108-2.986 2.108-1.935 0-5.796-.527-3.866-.527-9.485-.527-3.865.001-6.762.439c-1.933.291-3.54.439-4.83.439q-3.162 0-3.162-2.283 0-1.405.879-1.845.878-.437 2.195-.614 1.404-.184 2.81-.352 1.491-.174 2.898-1.229 2.458-1.754 3.688-5.006 1.227-3.248 2.635-7.992l27.927-90.631q.702-1.93 1.142-3.074.437-1.141 1.845-1.142 1.93.002 2.459 2.283.527 2.284 1.757 5.973zm-36.183-60.948q-.703.001-1.054 1.405l-8.255 31.089a5.2 5.2 0 0 0-.176 1.229v.526q0 1.055 1.229 1.055h17.564q.527 0 1.054-.439.527-.438.527-.966 0-.349-.352-1.757l-9.484-30.562q-.525-1.579-1.053-1.58" style="fill:#fff"/><path d="M315.827 105.884q0 1.23.527 1.229.525.002 1.405-.879l1.756-2.107q4.566-5.27 9.31-7.641 4.74-2.37 10.362-2.371 5.797 0 11.065 2.811 5.269 2.811 9.134 7.903 3.862 5.095 6.147 12.471 2.282 7.377 2.283 16.335-.002 9.84-2.646 17.916-2.643 8.08-7.401 13.963-4.758 5.887-11.277 9.134-6.522 3.248-14.452 3.249c-5.521 0-10.635-1.348-15.333-4.039l-.705.526-.173 24.941q-.001 3.16.524 4.742.526 1.58 2.635 2.459 1.754.877 3.425 1.054 1.666.173 2.81.352c.761.115 1.375.352 1.845.702q.701.528.702 2.108 0 2.458-3.688 2.459-3.515 0-7.445-.527-3.935-.527-8.444-.526-4.512 0-8.011.526-3.5.527-5.958.527-3.162 0-3.162-2.811-.001-2.461 1.933-2.459 1.931 0 4.566-1.054 2.283-.88 3.073-2.459.79-1.582.791-5.094v-79.391q-.002-4.742-1.229-6.323-1.232-1.58-2.723-2.02-1.494-.437-2.723-.527-1.23-.087-1.229-1.844-.001-2.107 2.723-3.074 2.72-.963 6.762-3.776 5.093-3.512 7.377-6.147 2.281-2.634 3.689-2.634 1.755 0 1.756 3.688zm3.881 63.033q3.705 4.063 10.412 4.062 5.117 0 9.353-2.47 4.237-2.47 7.325-6.977 3.087-4.503 4.765-10.771 1.675-6.265 1.677-13.684 0-15.714-6.62-24.365-6.619-8.652-16.675-8.653-7.413.001-10.679 4.328-3.263 4.327-3.263 13.151v32.843q.002 8.476 3.705 12.536m76.036-63.033q0 1.23.527 1.229.525.002 1.405-.879l1.756-2.107q4.566-5.27 9.31-7.641 4.74-2.37 10.362-2.371 5.796 0 11.065 2.811t9.134 7.903q3.862 5.095 6.147 12.471 2.282 7.377 2.283 16.335-.001 9.84-2.646 17.916-2.643 8.08-7.401 13.963-4.758 5.887-11.277 9.134-6.522 3.248-14.452 3.249c-5.521 0-10.635-1.348-15.333-4.039l-.705.526-.173 24.941q-.001 3.16.524 4.742.526 1.58 2.635 2.459 1.754.877 3.425 1.054 1.666.173 2.81.352c.761.115 1.375.352 1.845.702q.701.528.702 2.108 0 2.458-3.688 2.459-3.515 0-7.445-.527-3.935-.527-8.444-.526-4.512 0-8.011.526-3.5.527-5.958.527-3.162 0-3.162-2.811-.001-2.461 1.933-2.459 1.931 0 4.566-1.054 2.283-.88 3.073-2.459.79-1.582.791-5.094v-79.391q-.002-4.742-1.229-6.323-1.232-1.58-2.723-2.02-1.494-.437-2.723-.527-1.23-.087-1.229-1.844-.001-2.107 2.723-3.074 2.72-.963 6.762-3.776 5.093-3.512 7.377-6.147 2.281-2.634 3.689-2.634 1.755 0 1.756 3.688zm3.881 63.033q3.705 4.063 10.412 4.062 5.117 0 9.353-2.47 4.237-2.47 7.325-6.977 3.087-4.503 4.765-10.771 1.675-6.265 1.677-13.684 0-15.714-6.62-24.365-6.619-8.652-16.675-8.653-7.413.001-10.679 4.328-3.264 4.327-3.263 13.151v32.843q.001 8.476 3.705 12.536m75.859-7.706q-.001 5.796 3.338 7.377 1.403.703 2.81.79 1.404.09 2.547.264 1.14.178 1.845.79.7.617.702 2.196 0 2.46-3.513 2.459-2.989 0-6.834-.527t-8.184-.527q-4.513 0-8.096.527-3.586.527-6.043.527-3.162 0-3.162-2.811 0-2.459 1.757-2.459 1.93 0 4.742-1.054 2.46-.877 2.985-2.371.527-1.492.527-4.128V70.93q-.001-2.283-1.142-3.337a7.6 7.6 0 0 0-2.635-1.581 31 31 0 0 1-2.635-1.054q-1.143-.527-1.142-1.581 0-1.93 2.371-2.547 2.371-.613 5.527-1.844 6.075-2.282 8.938-4.304 2.864-2.019 3.732-2.02 1.388 0 1.737.878.35.88.352 2.459 0 2.284-.264 5.27-.264 2.987-.264 6.674v93.268zm30.563-36.183q-1.406 0-1.756.527-.353.528-.352 2.283v4.215q-.001 16.336 6.938 25.82 6.938 9.484 18.004 9.484 4.915 0 8.519-1.581 3.599-1.58 5.972-3.513 2.372-1.931 3.688-3.513t1.845-1.581q1.404.001 1.404 1.933t-2.107 5.093q-2.107 3.163-6.06 6.235-3.954 3.077-9.396 5.357-5.446 2.282-12.295 2.283-7.204 0-13.086-2.897-5.885-2.899-10.1-8.344-4.216-5.442-6.498-13.173-2.284-7.726-2.283-17.389 0-9.658 2.547-17.477 2.542-7.814 7.113-13.261 4.565-5.442 10.802-8.431 6.234-2.985 13.612-2.986 6.323.001 11.593 2.195 5.269 2.198 8.957 5.885 3.688 3.69 5.709 8.606 2.019 4.919 2.02 10.538 0 2.286-1.405 2.986-1.406.703-4.566.702h-38.819zm25.38-7.377q3.952-1.931 3.952-7.729-.001-4.389-3.601-8.079-3.602-3.688-9.222-3.688-6.15 0-10.714 4.742-4.569 4.743-5.973 11.943l-.526 2.811v.352q0 1.581 2.107 1.581h11.417q8.606.001 12.56-1.933M704.613 145.582q0-3.313-.571-4.334-.572-1.019-3.112-1.657a22 22 0 0 0-2.476-.317 20 20 0 0 1-1.905-.19q-.828-.125-1.271-.444-.445-.316-.444-1.206 0-1.779 2.159-1.778 1.27.001 4.509.508 3.238.509 8.699.508 6.095.001 9.271-.508 3.174-.507 4.064-.508 1.906.001 1.905 1.651 0 .89-.444 1.27-.447.382-1.144.508-.82.143-1.65.19-.953.066-2.096.317-2.287.51-2.857 1.588-.572 1.081-.572 4.382v19.304q0 2.921-1.968 5.397-1.969 2.477-5.397 4.191-3.43 1.714-7.937 2.667-4.51.952-9.589.952-7.876 0-14.541-3.048-6.668-3.047-11.431-8.445t-7.43-12.891q-2.666-7.492-2.667-16.383 0-9.525 2.985-17.59 2.983-8.064 8.191-13.907 5.206-5.84 12.445-9.144 7.239-3.302 15.748-3.302 3.429 0 6.478.462 3.047.461 5.524 1.185 2.476.726 4.19 1.572 1.714.845 2.35 1.606 1.525 1.526 1.524 12.319-.001 3.556-1.651 3.556-1.398 0-1.969-1.714t-1.587-4.255q-4.447-11.175-15.621-11.176-5.463 0-10.097 2.857-4.636 2.859-8.064 8.128-3.428 5.272-5.334 12.7-1.905 7.43-1.905 16.573-.001 8.51 1.969 15.367 1.968 6.859 5.334 11.748 3.364 4.89 7.874 7.557 4.507 2.666 9.589 2.667 3.68 0 5.842-1.021 2.158-1.019 3.302-2.867 1.142-1.849 1.461-4.397.316-2.548.317-5.607zm40.322-39.116q1.586-4.072 4.509-6.997 2.92-2.924 7.048-4.515 4.126-1.59 9.335-1.591 5.333 0 9.461 1.504 4.127 1.505 5.017 2.687 1.016 1.271 1.017 13.843-.001 2.667-1.651 2.667-1.399 0-1.842-1.714-.445-1.714-1.841-5.017-2.034-5.08-4.445-7.747-2.414-2.667-6.858-2.667-5.715 0-8.953 3.482t-3.238 9.557q0 5.066 2.857 8.229 2.858 3.166 8.953 6.33 5.079 2.66 9.018 5.318 3.935 2.66 6.667 5.888a22.6 22.6 0 0 1 4.128 7.28q1.396 4.052 1.396 9.368-.001 5.571-1.841 10.256-1.843 4.685-5.08 8.103-3.24 3.416-7.747 5.379-4.51 1.962-9.843 1.963-8.382 0-13.589-2.667t-5.207-8.128q0-2.158.127-4.191.126-2.03.127-3.81 0-1.396-.063-2.223-.064-.825-.063-1.079 0-3.937 1.905-3.938.888.001 1.27.698.38.7.571 1.905.19 1.209.445 2.857.252 1.652.762 3.429 1.904 6.478 6.159 10.033 4.253 3.557 9.081 3.557 2.792 0 5.334-1.146a13.1 13.1 0 0 0 4.381-3.179q1.84-2.036 2.921-4.834t1.08-6.106q0-5.85-3.62-10.493t-10.858-8.713a294 294 0 0 1-7.175-4.197q-3.366-2.035-5.843-4.707-2.476-2.67-3.937-6.36-1.462-3.687-1.461-9.286-.004-4.957 1.586-9.028M605.826 161.561q-.002 2.812.088 4.567.086 1.758.527 2.897a3.96 3.96 0 0 0 1.405 1.845q.964.703 2.722 1.229 1.58.527 2.986.526 1.405.002 2.459.176 1.052.177 1.669.791.613.616.614 2.02c0 1.642-1.229 2.459-3.688 2.459q-1.582 0-5.708-.527-4.129-.526-10.978-.526c-4.567 0-8.229.176-10.978.526q-4.129.528-5.709.527-3.688 0-3.688-2.811c0-.817.203-1.405.615-1.756q.613-.527 1.58-.703a12.5 12.5 0 0 1 2.196-.176q1.226.001 2.459-.351 2.105-.528 3.249-1.229 1.14-.7 1.669-1.845.525-1.14.614-2.985.087-1.843.088-4.655V81.118q-.001-4.215-.614-5.709-.616-1.49-3.25-2.371-1.757-.526-3.337-.526-1.407 0-2.547-.176-1.144-.173-1.757-.615-.615-.435-.614-1.844 0-2.459 2.635-2.459 1.404.002 5.62.702 4.215.704 11.769.703 7.55.001 11.768-.703 4.215-.7 5.621-.702 2.634 0 2.634 2.459 0 1.231-.526 1.669-.527.44-1.581.614-1.054.177-2.459.264-1.406.09-2.985.438-3.34.704-3.952 2.372-.617 1.67-.615 5.884z" style="fill:#fff"/><path d="M643.06 161.561q-.002 2.812.088 4.567.086 1.758.527 2.897a3.96 3.96 0 0 0 1.405 1.845q.963.703 2.722 1.229 1.58.527 2.986.526 1.405.002 2.459.176 1.052.177 1.669.791.613.616.614 2.02c0 1.642-1.229 2.459-3.688 2.459q-1.582 0-5.708-.527-4.128-.526-10.978-.526c-4.567 0-8.229.176-10.978.526q-4.129.528-5.709.527-3.688 0-3.688-2.811c0-.817.203-1.405.615-1.756q.613-.527 1.58-.703a12.5 12.5 0 0 1 2.196-.176q1.227.001 2.459-.351 2.105-.528 3.249-1.229 1.14-.7 1.669-1.845.525-1.14.614-2.985.087-1.843.088-4.655V81.118q-.001-4.215-.614-5.709-.616-1.49-3.25-2.371-1.757-.526-3.337-.526-1.407 0-2.547-.176-1.144-.173-1.757-.615-.615-.435-.614-1.844 0-2.459 2.635-2.459 1.405.002 5.62.702 4.215.704 11.769.703 7.55.001 11.768-.703 4.215-.7 5.621-.702 2.634 0 2.634 2.459 0 1.231-.526 1.669-.527.44-1.581.614-1.054.177-2.459.264-1.406.09-2.985.438-3.34.704-3.952 2.372-.617 1.67-.615 5.884zM130.604 211.457c-13.758.125-17.287-8.99-35.952-8.888-18.665.105-22.562 9.047-36.319 8.918-14.709-.137-26.13-13.896-34.837-26.891h.002q-.68-1.018-1.344-2.028a137.4 137.4 0 0 1-12.881-24.896h-.002c-3.556-9.043-5.99-18.125-7.359-26.915l153.275.006c4.745 10.743 13.526 19.87 25.891 24.56q-.551 1.228-1.063 2.36h.001c-4.245 9.372-6.706 14.237-12.581 23.216a227 227 0 0 1-2.457 3.684h-.001c-8.655 12.731-20.274 26.741-34.373 26.874M1.912 130.756c-1.475-9.449-1.713-18.559-.787-26.917l75.159-.002-75.749.002c.859-9.252 4.095-19.8 8.773-27.159h.718l.04-.061c10.862-16.794 27.996-26.623 44.109-26.623 16.407 0 26.721 9.032 40.283 9.032 13.159 0 21.174-9.045 40.143-9.045 14.332 0 29.527 7.837 40.35 21.388a48.7 48.7 0 0 0-7.81 5.32h.893c-8.647 7.352-14.103 17.022-15.744 27.144h-.592c-1.473 9.064-.237 18.496 3.488 26.927Zm85.912-79.407c-2.243-12.261 3.519-24.884 10.497-33.395 7.691-9.369 20.858-16.566 32.115-17.341 1.898 12.82-3.339 25.358-10.224 34.238-7.383 9.513-20.097 16.882-32.388 16.498" style="fill:#fff"/></svg>