<svg xmlns="http://www.w3.org/2000/svg" width="1000" height="237" viewBox="0 0 1000 237"><path d="M183.473 0-.436 237h21.891l86.791-111.848c26.891-12.979 56.084-10.557 78.137 6.078V237h16.84l.023-237zm2.91 24.463v86.365c-18.012-10.314-39.086-13.413-60.106-8.91zm205.713 39.836-20.457 142.328h17.744l8.974-60.945a109 109 0 0 1 4.963-5.938c1.61-1.78 2.984-3.25 4.13-4.406a137 137 0 0 1 2.179-2.18q1.59-1.653 4.203-3.828 2.615-2.174 5.924-3.826a16.3 16.3 0 0 1 6.988-1.738q2.258.012 4.594 1.199 2.335 1.186 3.965 3.392 1.514 2.17 1.931 4.305.417 2.13.366 4.461 0 1.936-.079 3.238-.077 1.301-.263 2.496-.184 1.199-.494 2.825l-8.559 60.945h17.941l8.34-59.486c.28-1.548.49-2.854.641-3.918q.226-1.597.318-3.364a95 95 0 0 0 .084-4.615q-.126-9.133-3.383-14.7-3.255-5.565-8.109-8.071-4.855-2.505-9.777-2.461-6.885.075-12.89 2.623a47.4 47.4 0 0 0-11.17 6.703 81 81 0 0 0-9.548 9.02l9.186-64.06zm408.174 0-6.471 45.922a199 199 0 0 0-9.912-.047 71 71 0 0 0-9.96.928q-5.117.826-11.023 2.875-9.023 3.275-16.129 8.933-7.11 5.661-12.082 12.92-4.97 7.261-7.578 15.346-2.609 8.083-2.627 16.203.1 9.611 3.528 17.418c2.28 5.207 5.285 9.551 9.004 13.035q3.378 3.274 8.134 5.91 4.758 2.635 11.703 4.192 6.948 1.557 16.903 1.591 9.815-.104 15.68-1.148 5.862-1.042 8.324-1.773L818.22 64.299zm-313.723 16.58q-4.32.12-7.113 2.947c-1.864 1.88-2.832 4.168-2.895 6.858a9.77 9.77 0 0 0 1.352 4.914 10.35 10.35 0 0 0 3.62 3.662q2.296 1.399 5.245 1.437 3.038-.052 5.281-1.531 2.241-1.48 3.477-3.754 1.231-2.277 1.25-4.728a9.5 9.5 0 0 0-1.305-4.766q-1.282-2.221-3.574-3.61-2.292-1.383-5.338-1.43M356.51 110.012q-13.504.083-23.737 3.578-10.231 3.493-17.48 9.412-7.246 5.924-11.787 13.281-4.539 7.36-6.66 15.174-2.118 7.814-2.092 15.098-.048 7.006 2.021 14.465 2.07 7.454 6.815 13.912 4.743 6.459 12.717 10.468 7.976 4.014 19.746 4.131 6.566-.052 11.588-1.174c3.348-.745 6.22-1.633 8.619-2.656q3.596-1.539 5.885-2.842l2.712-18.773q-2.488 1.952-6.117 4.16c-2.418 1.47-5.271 2.734-8.57 3.79q-4.945 1.577-11.402 1.651-6.855-.07-11.49-2.2-4.632-2.135-7.47-5.499-2.835-3.366-4.292-7.133-1.456-3.765-1.96-7.101-.498-3.336-.464-5.408-.017-6.61 2.457-13.637t7.64-13.107q5.17-6.082 13.239-9.856 8.07-3.78 19.246-3.89a55 55 0 0 1 6.707.415q3.178.406 6.861 1.045l2.295-15.671a84 84 0 0 0-6.262-1.118q-3.404-.49-8.765-.515m325.224.006q-9.74.083-17.755 4.41-8.019 4.33-13.846 11.94-5.827 7.612-8.994 17.536-3.166 9.923-3.205 21.19.052 12.838 4.796 22.828 4.746 9.99 13.557 15.738 8.81 5.752 21.065 5.865 6.656.09 14.683-2.244 8.022-2.334 16.406-8.191l2.711-18.565q-4.313 3.323-9.59 6.606a64.2 64.2 0 0 1-11.074 5.49q-5.797 2.206-11.676 2.293-5.841-.026-11.046-3.297-5.206-3.27-8.502-9.463-3.292-6.187-3.397-14.972.004-2.317.13-4.512.122-2.197.284-4.664h58.627q.328-1.536.574-3.73.25-2.202.262-5.458-.088-11.745-4.459-20.437-4.374-8.692-12.015-13.492t-17.536-4.871m177.899 0q-9.741.083-17.756 4.41-8.02 4.33-13.848 11.94-5.826 7.612-8.992 17.536-3.166 9.923-3.207 21.19.053 12.838 4.799 22.828 4.745 9.99 13.557 15.738 8.81 5.752 21.064 5.865 6.657.09 14.684-2.244 8.022-2.334 16.406-8.191l2.707-18.565q-4.31 3.323-9.586 6.606a64.3 64.3 0 0 1-11.076 5.49q-5.796 2.206-11.674 2.293-5.842-.026-11.049-3.297-5.204-3.27-8.5-9.463-3.292-6.187-3.396-14.972.003-2.317.129-4.512c.08-1.464.178-3.02.285-4.664h58.623c.217-1.024.419-2.267.578-3.73q.24-2.202.262-5.458c-.058-7.83-1.552-14.642-4.465-20.437q-4.366-8.692-12.01-13.492-7.642-4.801-17.535-4.871m78.263.605c-6.465.07-11.843 1.318-16.148 3.742q-6.436 3.638-9.652 9.54c-2.145 3.93-3.205 8.192-3.205 12.784.029 3.818.77 7.271 2.205 10.352a30 30 0 0 0 5.681 8.313 49.4 49.4 0 0 0 7.77 6.595c5.248 3.757 9.422 6.84 12.51 9.252 3.102 2.415 5.304 4.574 6.623 6.473 1.334 1.905 1.986 3.968 1.943 6.195-.073 3.073-1.219 5.534-3.422 7.383q-3.283 2.77-8.262 2.844c-4.45-.05-9.074-1.31-13.857-3.784-4.784-2.476-9.988-5.876-15.584-10.205l-2.912 17.118q6.284 4.464 11.48 7.177c3.464 1.81 6.842 3.12 10.147 3.932s6.799 1.212 10.51 1.197q7.284-.053 12.785-2.363c3.682-1.539 6.74-3.612 9.205-6.215q3.716-3.91 5.564-8.762a27.6 27.6 0 0 0 1.871-9.992c-.029-4.8-.971-8.91-2.841-12.328-1.87-3.415-4.523-6.566-7.944-9.447-3.42-2.882-7.48-5.92-12.162-9.121-2.348-1.6-4.61-3.247-6.799-4.934s-3.985-3.408-5.406-5.164c-1.42-1.757-2.145-3.542-2.203-5.351.058-2.667 1.204-4.85 3.422-6.55s5.187-2.58 8.898-2.634c3.537.032 6.959.617 10.235 1.754a49.6 49.6 0 0 1 9.51 4.494 101 101 0 0 1 8.841 6.066v-18.568c-1.754-1.171-4.014-2.51-6.812-4.021q-4.196-2.265-9.742-3.973c-3.696-1.14-7.785-1.74-12.249-1.799m-655.912.814q-5.933.097-10.634 3.159-4.7 3.06-8.362 7.927a70 70 0 0 0-6.46 10.387l2.712-19.994h-17.53l-13.355 93.711h17.739l7.511-52.805q1.94-4.252 3.678-6.918c1.163-1.777 2.02-3.03 2.58-3.761q4.258-5.87 7.668-8.756 3.409-2.883 6.23-3.79 2.82-.903 5.303-.82 3.737.08 6.338 1.096 2.604 1.022 4.301 2.037v-19.994a31 31 0 0 0-3.232-.98q-1.852-.47-4.487-.499m269.955 0q-8.11-.039-16.228 4.377-8.111 4.416-16.543 13.762l2.297-16.66H503.93l-13.36 93.711h17.535l8.557-59.484c.562-.76 1.52-1.968 2.871-3.635q2.03-2.493 4.916-5.565a72 72 0 0 1 6.297-5.92q3.41-2.853 7.02-4.705 3.606-1.853 7.076-1.918 1.878-.07 4.392.905 2.518.976 4.44 3.83 1.921 2.852 2.021 8.422.01 2.09-.338 6.496-.344 4.406-1.123 10.416l-7.304 51.158h17.742l8.767-59.51q2.456-3.36 5.83-7.127a76 76 0 0 1 7.293-7.125q3.927-3.358 8.04-5.482 4.118-2.127 8.058-2.192 1.765-.078 4.082.936 2.322 1.014 4.082 4.045c1.174 2.02 1.797 5.024 1.858 9.01a45 45 0 0 1-.237 3.966l-.39 3.97-8.559 59.509h17.736l7.926-55.545q.49-3.439.86-6.916.374-3.48.39-7.07-.072-7.932-2.281-12.989-2.204-5.055-5.645-7.822-3.435-2.765-7.21-3.83-3.77-1.066-6.975-1.017-6.042.075-11.404 2.2-5.36 2.127-9.862 5.407-4.495 3.283-7.94 6.816-3.443 3.537-5.652 6.43c-.824-5.311-2.371-9.496-4.644-12.545q-3.406-4.575-7.895-6.47-4.487-1.901-8.96-1.838m-77.027 1.479-13.357 93.711h17.74l13.344-93.711zm206.822 11.508q4.849.013 8.637 2.455 3.795 2.445 5.951 7.18 2.157 4.736 2.1 11.629h-39.219c.504-1.575 1.26-3.53 2.26-5.874q1.504-3.509 4.078-7.027 2.573-3.516 6.54-5.89 3.97-2.38 9.653-2.473m177.899 0q4.85.013 8.637 2.455 3.795 2.445 5.95 7.18 2.158 4.736 2.1 11.629h-39.218c.505-1.575 1.257-3.53 2.257-5.874q1.505-3.509 4.08-7.027 2.574-3.516 6.54-5.89 3.97-2.38 9.654-2.473m-67.922.408-10.02 69.662q-1.495.313-3.261.469-1.77.157-4.67.156-11.216-.121-17.975-4.162c-4.508-2.693-7.76-6.199-9.764-10.516q-3.005-6.47-2.945-13.894-.03-7.526 2.76-15.156 2.788-7.632 8.742-13.909 5.954-6.269 15.424-9.73 6.385-2.237 12.186-2.633 5.796-.4 9.523-.287" style="fill:#fff;fill-opacity:1"/></svg>