<svg xmlns="http://www.w3.org/2000/svg" width="210mm" height="34mm" viewBox="0 0 210 34"><path d="M37.68 231.603c-5.734.005-5.474.08-6.215.995l-.404.499-.04 3.157c.122 5.544-.023 11.07-.025 15.368-.002 10.82.019 11.98.219 12.401.24.506.935 1.127 1.414 1.266.523.15 1.029.12 1.537-.092.663-.277.96-.562 1.252-1.198.22-.479.246-.936.249-4.442l.003-3.907h6.34l4.746 4.731c4.004 3.993 4.831 4.757 5.3 4.894 1.737.508 3.367-1.122 2.856-2.858-.134-.458-.713-1.108-3.3-3.709l-3.138-3.153.443-.288c.188-.11 1.629-1.4 3.074-2.807 2.011-1.958 2.68-2.692 2.845-3.125.19-.496.212-1.25.177-5.987l-.039-5.42c-2.002-1.948-3.882-4.683-6.291-6.121-.369-.175-1.513-.203-8.159-.203-1.084 0-2.026-.001-2.845 0zm30.993 0c-5.734.005-5.473.08-6.214.995-.367.454-.409.604-.452 1.651 0 3.72-.018 11.56-.019 15.336 0 12.712.02 14.016.22 14.438.24.504.933 1.126 1.416 1.269.166.049 3.607.09 7.647.09 3.266 0 6.207.052 8.366-.038.563-.159 5.876-5.487 6.192-6.25.18-.432.206-1.791.206-10.503 0-5.504-.039-10.21-.086-10.458-.068-.354-.563-.861-2.255-2.543-1.352-1.35-2.333-2.287-3.142-3.124-.87-.898-.496-.862-9.034-.862-1.084 0-2.026-.001-2.845 0zm98.342 0c-3.457 0-5.481.05-5.724.143-.484.183-5.85 5.518-6.119 6.083-.175.368-.203 1.587-.203 8.798.044 2.091.042 7.549.042 8.635 0 1.262-.087 2.84.2 3.914.297.623 5.757 6.051 6.17 6.128h.001c.184.034 2.709.07 5.611.077 4.898.015 5.316-.003 5.812-.235.725-.34 5.73-5.381 6.006-6.052.165-.398.206-1.116.206-3.64 0-4.752-.002-4.407 0-10.475 0-3.517-.04-6.598-.087-6.846-.069-.358-.665-1.035-2.894-3.285-1.544-1.559-3.002-2.926-3.24-3.04-.367-.173-1.247-.205-5.781-.205zm-155.059.006c-.293 0-.586.046-.825.137-.418.158-4.112 3.777-8.263 8.095-2.25 2.341-2.747 2.935-2.824 3.345C.033 245.72 0 250.334 0 253.812c0 10.85-.057 10.058.845 11.026.425.351.653.431 1.437.431 1.086 0 1.669-.276 2.11-1.151.3-.592.283-.674.283-6.96v-6.317h14.696v6.359c0 5.634.025 6.412.22 6.823.24.506.936 1.128 1.416 1.266.522.15 1.028.12 1.536-.092.663-.277.96-.561 1.252-1.197.231-.503.246-1.116.249-10.504.002-5.483-.036-10.161-.083-10.396-3.028-3.38-7.8-9.296-11.178-11.355a2.4 2.4 0 0 0-.827-.136zm125.653.012c-1.082 0-2.453.005-4.196.013l-7.943.036-.5.404c-.274.223-.61.612-.747.867-.236.44-.247 1.056-.247 13.494.158 5.113.087 13.106.024 14.892-.023 1.028-.004 2.07.042 2.316.098.524 1.08 1.573 1.555 1.663.174.033 3.772.067 7.997.076 7.249.014 7.712 0 8.216-.236.726-.34 5.73-5.381 6.007-6.051.14-.34.205-.943.205-1.904 0-1.675.12-3.052-.088-4.496-.068-.345-.525-.895-1.933-2.327l-1.845-1.876 1.68-1.665c.958-.948 1.788-1.894 1.93-2.198.22-.467.251-.88.254-3.29.002-1.515-.036-2.958-.084-3.206-.069-.358-.665-1.034-2.894-3.285-1.544-1.559-3.005-2.928-3.247-3.042-.289-.138-.938-.184-4.186-.185m-42.153.011q-.147-.004-.305.008c-.809.06-1.511.536-1.921 1.301-.237.44-.248 1.046-.248 13.113 0 8.566.045 12.772.14 13.024 1.027.953 5.074 5.788 6.288 6.228.175.034 2.693.068 5.595.076 4.898.014 5.316-.003 5.812-.235.324-.152 1.44-1.162 2.837-2.568 1.109-1.201 1.953-1.885 3.169-3.492.191-.506.21-1.885.176-13.277l-.037-12.712-.404-.5c-.603-.744-1.192-1.021-2.035-.958-.81.06-1.512.536-1.922 1.301-.236.44-.248 1.028-.248 12.42v11.956l-1.701 1.705-1.702 1.705h-7.89l-1.699-1.703-1.698-1.703-.036-12.112-.036-12.111-.404-.5c-.528-.65-1.044-.945-1.73-.965zm92.982 0q-.147-.004-.305.008c-.53.04-.823.15-1.189.446-.933.756-.98.96-.98 4.238 0 2.365.039 3.004.207 3.359.114.24 2.293 2.555 4.843 5.144s4.68 4.778 4.655 4.862c0 2.803-.08 4.163-.083 6.769-.01 6.365.012 7.136.213 7.559.243.511.936 1.134 1.418 1.273.523.15 1.029.12 1.537-.093.662-.276.96-.561 1.252-1.197.229-.496.246-1.03.249-7.572.003-6.334-.034-7.32.163-7.517 2.06-1.763 7.964-6.833 9.403-9.368.172-.45.201-1.068.166-3.496l-.043-2.95-.404-.498c-.603-.745-1.192-1.022-2.036-.959-.528.04-.823.15-1.188.446-.893.723-.981 1.039-.981 3.523v2.205l-3.687 3.689-3.687 3.689-3.627-3.667-3.628-3.667-.067-2.38-.066-2.38-.405-.5c-.527-.65-1.044-.945-1.73-.965zm-121.774 4.65 5.577.005 5.578.005 1.77 1.73 1.77 1.73v17.493l-1.77 1.739v-.001l-1.77 1.738-5.578.004-5.577.004v-12.224zm-30.994 0h11.168c1.261 1.26 2.257 2.252 3.527 3.432v7.778l-1.77 1.739-1.77 1.739-5.578.004-5.577.004c.02-4.397-.074-9.456-.021-13.326zm92.981 0h11.293l1.701 1.706 1.702 1.705v3.072l-1.705 1.702-1.706 1.701h-11.285v-4.942zm34.397 0h7.882l1.705 1.702 1.705 1.701v6.396c0 3.388.02 6.7.007 8.815l-.013 2.427-1.698 1.704-1.698 1.703h-7.89l-1.696-1.703-1.696-1.704-.021-1.438c0-3.76.006-6.028.008-8.687l.006-7.509 1.7-1.703zm-151.056.97c2.081 1.997 4.287 4.272 6.123 6.126l1.257 1.252v1.542H4.677l.044-1.505c2.496-2.903 4.487-4.855 7.271-7.414m116.66 13.6h11.285l1.705 1.701 1.705 1.702c.006.916.001 1.943 0 2.766 0 .214-.511.82-1.701 2.012l-1.702 1.705h-11.292v-5.91z" style="fill:#fff;fill-opacity:1;stroke-width:.133594" transform="translate(0 -231.5)"/></svg>