<svg xmlns="http://www.w3.org/2000/svg" viewBox="0 0 264 47"><path d="M166.675 9.199V8.043h8.06v10.23h-5.722v2.014h-1.969v2.259h-2.268v9.826h1.96v2.075h2.154v2.197h5.845V47h-7.999v-1.275h-2.461v-1.194h-1.969v-1.67h-1.784v-2.217h-2.092V38.46h-1.968v-2.624h-1.908V19.089h1.908v-2.525h1.907v-2.283h2.215v-2.183h1.722v-1.576h1.785V9.199zM188.54 9.008V7.995h8.613v1.013h2.461v1.283h1.847v1.832h1.969v1.955h2.03v2.259h2.092v30.638h-9.506V20.428h-2.061v-1.892h-4.983v1.77h-2.215v2.139h-2.278v9.894h2.153v2.198h1.97v1.771h5.291v10.667h-7.383v-.834h-2.585v-1.282h-1.661v-1.771h-1.969v-2.077h-1.908v-2.382h-1.907v-2.625h-2.092V19.147h1.784v-2.583h2.154v-2.242h1.969v-2.261h1.846v-1.648h1.907V9.005zM12.122 9.008V7.995h8.613v1.013h2.461v1.283h1.847v1.832h1.969v1.955h2.031v2.26h2.092v30.637h-9.507V20.429h-2.061v-1.893h-4.983v1.77h-2.215v2.139h-2.278v9.894h2.153v2.198h1.97v1.771h5.291v10.667h-7.383v-.833H9.537v-1.283H7.876v-1.771H5.907v-2.076H4v-2.383H2.092v-2.625H0V19.147h1.784v-2.583h2.155v-2.242h1.968v-2.261h1.846v-1.648H9.66V9.005zM228.954 18.128V7.995h-7.479v1.063l-2.362.006v1.25h-2.045v1.72h-2.047v2.186h-1.811v2.189h-1.968v2.735h-2.046v16.721h2.125v2.657h1.889v2.422h1.969v2.266h1.968v1.719h1.966v1.172h2.678v.874h8.972v-.796h2.441v-1.406h1.653v-1.954h1.812v-2.266h2.203v-2.188h1.968V0h-10.155v34.537h-1.731v1.797H223.6v-1.797h-1.809v-2.344h-2.126v-9.767h2.282v-2.032h1.969v-2.266zM244.88 18.886v-2.459h1.715v-2.144h2.033v-2.207h1.78V10.31h2.032V8.86h2.287v-.865H264v10.323h-6.479v1.576h-2.096v1.198h-1.907v1.388H264v9.647h-10.418v1.514h1.97v1.197h1.842v1.514H264v10.623h-9.273v-.85h-2.162v-1.324h-1.969v-1.766h-1.84V41.08h-2.161v-2.521h-1.715v-2.775h-2.287V18.879zM62.677 22.724v-6.265h-1.948v-2.32h-2.005v-2.132h-1.811v-1.652h-1.907V9.053h-2.354V7.995h-9.741v1.058h-2.598v1.302h-1.745v1.652h-1.826v2.132h-2.111v2.198h-1.746v10.212h1.948v1.994h1.989v1.83h13.679v2.035h2.029v1.995h-2.111v2.074h-5.235v-2.156h-1.867v-2.035H32.885v6.226h1.948v2.115h2.03v2.117h2.03v1.668h1.785v1.302h2.435v1.261h9.661v-1.261h2.192v-1.302h1.947v-1.668h1.948v-2.075h1.908v-2.116h1.908v-9.766h-2.354v-1.913h-1.989v-2.278H45.143v-2.035h-1.989v-1.994h1.989v-2.156h5.236v2.32h1.948v1.993zM84.549 36.76v-2.153h-1.985v-2.03h-1.823V18.482h6.035v-3.615h-2.349v-2.235H82.24v-1.706h-1.499V4.549h-10.37v6.377h-1.337v1.706h-2.026v2.235h-2.551v3.615h5.914v17.344h2.025v2.437h1.702v2.356h1.984v2.397h1.743v1.786h1.741v1.301h2.633v.852h7.333V36.76zM112.475 30.204h2.21v-2.197h1.844v-2.482h1.107v-9.152h-1.353V14.34h-1.722v-2.156h-2.008v-1.709h-2.214V9.174h-2.131V7.995h-6.599v1.179h-1.844v1.301h-2.05v1.709h-2.213v2.156h-1.968v1.993h-2.213v30.629h10.083V18.407h6.804v5.451h-2.09v1.464h-3.157v7.282l6.148 14.358h10.412zM151.108 19.103v-2.605h-2.029V14.3h-2.067v-2.198h-1.826v-1.58h-1.865V9.215h-2.355v-1.22h-9.774v1.221h-2.309v1.22h-2.028v1.668h-1.662v2.197h-2.15v2.198h-1.865v2.605h-1.988v16.764h1.988v2.603h1.865v2.2h2.15v2.197h1.662v1.668h2.028v1.221h2.312v1.22h9.774v-1.22h2.352v-1.221h1.865v-1.668h1.828v-2.197h2.068v-2.2h2.029v-2.634h1.824V19.103zm-10.422 13.143v2.199h-2.028v2.034h-5.188v-2.034h-1.867v-2.199h-2.19v-9.523h2.19v-2.199h1.867v-2.031h5.188v2.034h2.028v2.199h2.028v9.52z" style="fill:#fff"/></svg>