<svg xmlns="http://www.w3.org/2000/svg" viewBox="0 0 264 57"><path d="M96.385 2.489c2.177-2.792 6.772-3.339 9.433-.911 1.088.911 1.874 2.246 2.297 3.582 4.959 17.239 10.038 34.54 14.996 51.779h-8.828c-1.391-4.795-2.721-9.53-4.172-14.326H92.999c-1.391 4.796-2.782 9.531-4.173 14.326h-8.828c4.777-16.45 9.493-32.901 14.27-49.351.666-1.761.907-3.703 2.117-5.099m5.2 10.562c-2.116 7.163-4.172 14.326-6.228 21.489h12.456c-2.116-7.163-4.172-14.326-6.228-21.489M158.485 2.853c1.511-2.246 4.535-3.339 7.135-2.61 2.358.546 4.232 2.61 4.837 4.977 4.958 17.24 10.038 34.54 14.996 51.78h-8.828c-1.331-4.796-2.721-9.531-4.112-14.326h-17.112A640 640 0 0 1 151.228 57H142.4c4.777-16.572 9.554-33.083 14.331-49.655.605-1.518.786-3.217 1.754-4.492m-.666 31.687h12.396c-2.056-7.163-4.172-14.326-6.167-21.489-2.177 7.163-4.173 14.326-6.229 21.489M116.46.182h31.987v8.681h-11.791V57h-8.405V8.863H116.46zM194.886.486c.786-.304 1.693-.365 2.539-.365h10.098c5.684.122 11.066 3.643 13.485 8.742 1.693 3.338 1.874 7.223 1.451 10.865-.303 3.825-1.935 7.649-4.777 10.138-1.512 1.396-3.447 2.185-5.14 3.46-.907.728-.907 2.064-.484 2.974 4.475 6.92 9.131 13.719 13.666 20.578h-10.037c-4.354-6.616-8.647-13.172-13.061-19.789-1.27-1.881-1.633-4.37-.847-6.495.605-1.639 2.056-2.853 3.628-3.46 3.023-1.153 6.047-2.974 7.74-5.888 1.33-2.125 1.209-4.796.665-7.224-.726-3.096-3.688-5.463-6.772-5.402h-6.531c-.967 0-1.935.85-1.935 1.821v46.316h-8.526V6.859c0-2.731 2.056-5.463 4.838-6.373M230.199.182h8.949V57h-8.949zM25.215 0h4.293v10.137c0 2.793-.06 5.646-.181 8.438-.182 4.067-.484 8.134-1.089 12.201-.484 2.732-1.391 5.463-2.6 8.013-1.935 4.128-4.958 7.588-8.405 10.502-3.084 2.731-6.712 4.674-10.521 6.009-2.177.729-4.414 1.336-6.712 1.639v-8.498c2.721-.425 5.382-1.396 7.8-2.671 2.903-1.518 5.503-3.582 7.74-6.07a30.2 30.2 0 0 0 5.442-8.56c1.633-3.581 2.479-7.405 3.084-11.29.726-4.917 1.028-9.895 1.149-14.812zM31.201 0h7.921v56.878h-7.921c-.06-6.009 0-12.14 0-18.15zM40.876 0h4.293c-.06 5.827.121 11.594.847 17.361.544 4.431 1.33 8.984 3.144 13.112 1.693 4.006 4.112 7.77 7.256 10.805a27.3 27.3 0 0 0 10.642 6.374c1.089.364 2.237.667 3.386.789v8.498c-2.297-.303-4.474-.91-6.591-1.639-2.539-.91-5.018-2.064-7.316-3.581-1.693-1.093-3.144-2.368-4.656-3.703-2.358-2.185-4.535-4.735-6.168-7.649-1.27-2.246-2.177-4.613-2.902-7.041-.665-2.489-.907-4.978-1.21-7.527-.483-5.464-.725-10.988-.665-16.451-.06-3.096-.06-6.191-.06-9.348" style="fill:#fff"/><path d="M25.215 0v5.038c-.121 4.978-.423 9.895-1.149 14.812-.605 3.824-1.451 7.709-3.084 11.29-1.391 3.096-3.144 6.01-5.442 8.56-2.177 2.428-4.777 4.552-7.74 6.07-2.479 1.335-5.079 2.246-7.8 2.671v8.498c2.298-.303 4.535-.91 6.712-1.639 3.809-1.335 7.498-3.339 10.521-6.009 3.386-2.914 6.47-6.374 8.405-10.502 1.149-2.55 2.116-5.22 2.6-8.013.665-4.006.907-8.073 1.089-12.14.121-2.793.181-5.646.181-8.438V.061C28.057 0 26.606 0 25.215 0M31.201 0v56.939c2.661-.061 5.261 0 7.921 0V.061C36.462 0 33.862 0 31.201 0M40.876 0v9.288c-.061 5.523.121 10.987.665 16.45.302 2.549.544 5.099 1.209 7.527.726 2.428 1.633 4.856 2.903 7.042 1.632 2.853 3.749 5.402 6.167 7.648 1.452 1.336 2.963 2.61 4.656 3.703 2.298 1.518 4.777 2.671 7.317 3.581 2.116.729 4.354 1.336 6.591 1.639V48.38c-1.149-.182-2.298-.486-3.386-.789-3.931-1.275-7.619-3.521-10.643-6.374-3.144-2.974-5.563-6.738-7.256-10.805-1.753-4.188-2.539-8.68-3.144-13.112-.665-5.645-.846-11.473-.786-17.239C43.718 0 42.267 0 40.876 0" style="fill:#fff"/><path d="M256.187 33.038c-.677-1.05-1.722-1.791-2.891-1.791-2.83 0-4.122 2.965-4.122 5.743s1.292 5.744 4.122 5.744c1.231 0 2.276-.679 2.891-1.791.677 1.544 1.907 2.408 3.445 2.408 2.83 0 4.306-3.21 4.306-6.422 0-3.15-1.476-6.423-4.306-6.423-1.476.185-2.707 1.049-3.445 2.532m-1.784 4.076c0 .68-.492 1.297-1.045 1.297-.554 0-1.046-.555-1.046-1.297 0-.679.492-1.297 1.046-1.297.615-.061 1.045.556 1.045 1.297m3.63 0c0-.803.492-1.421 1.169-1.421.615 0 1.107.68 1.107 1.421 0 .803-.492 1.42-1.107 1.42-.677-.061-1.169-.678-1.169-1.42M251.573 17.167c-1.599 1.173-2.399 2.964-2.399 5.063 0 2.1.862 3.83 2.399 5.065 1.293.988 3.138 1.544 5.045 1.544 3.691 0 7.382-2.038 7.382-6.609s-3.753-6.607-7.382-6.607c-1.907 0-3.691.556-5.045 1.544m8.059 5.002c0 1.606-2.03 1.791-3.014 1.791s-3.014-.185-3.014-1.791 2.03-1.791 3.014-1.791c.984.062 3.014.247 3.014 1.791M251.573 1.604c-1.599 1.173-2.399 2.965-2.399 5.064s.862 3.829 2.399 5.064c1.293.988 3.138 1.543 5.045 1.543 3.691 0 7.382-2.037 7.382-6.607 0-4.509-3.753-6.608-7.382-6.608-1.907.062-3.691.618-5.045 1.544m8.059 5.064c0 1.606-2.03 1.791-3.014 1.791s-3.014-.185-3.014-1.791 2.03-1.791 3.014-1.791 3.014.185 3.014 1.791" style="fill:#fff;stroke-width:1.01737"/><path d="M263.938 55.456v-5.249l-14.579-6.238V57h4.552v-6.176z" style="fill:#fff"/></svg>