<svg xmlns="http://www.w3.org/2000/svg" viewBox="0 0 264 57"><path d="M219.089 5.592c5-6.396 15.347-7.489 21.481-2.123 2.509 2.112 4.267 5.027 5.165 8.165 11.356 39.074 22.763 78.13 34.103 117.212-6.701.007-13.406-.012-20.107.007-3.162-10.774-6.248-21.566-9.369-32.35-12.96-.026-25.913-.006-38.873-.013a6114 6114 0 0 0-9.42 32.367c-6.666-.022-13.331-.004-19.998-.011a85237 85237 0 0 1 32.431-111.814c1.291-3.901 1.778-8.259 4.583-11.444m11.832 23.945c-4.752 16.187-9.408 32.405-14.133 48.601 9.419.046 18.834.017 28.249.017-4.709-16.206-9.398-32.412-14.118-48.618ZM360.273 6.433c3.492-5.066 10.245-7.524 16.187-5.959 5.443 1.253 9.606 5.942 11.043 11.222 11.345 39.046 22.73 78.078 34.074 117.128-6.712.052-13.42 0-20.13.026-3.121-10.782-6.207-21.576-9.352-32.36-12.938.007-25.873-.022-38.809.011-3.093 10.79-6.283 21.555-9.374 32.346-6.66.007-13.314-.006-19.974.007C334.72 91.373 345.63 53.926 356.5 16.467c1.154-3.389 1.598-7.118 3.789-10.041m-1.63 71.722c9.38.013 18.755.006 28.135.006-4.667-16.241-9.41-32.459-14.06-48.698-4.678 16.233-9.409 32.451-14.066 48.692ZM264.841.278h72.729v19.614c-8.929.007-17.85-.01-26.773.007 0 36.315.007 72.631-.004 108.946h-19.181c0-36.313-.005-72.629.006-108.946-8.928-.017-17.85 0-26.778-.007 0-6.543-.01-13.077 0-19.619ZM442.888 1.076c1.841-.637 3.808-.854 5.753-.809 7.644.027 15.29.007 22.932.011 12.874.238 25.16 8.224 30.732 19.811 3.857 7.524 4.254 16.274 3.283 24.528-.673 8.641-4.296 17.281-10.937 23.009-3.508 3.125-7.878 5.021-11.634 7.805-2.063 1.569-2.166 4.62-1.099 6.803 10.145 15.663 20.691 31.081 31.049 46.609-7.575.013-15.151-.017-22.728.013-9.915-14.895-19.73-29.866-29.607-44.782-2.904-4.246-3.694-9.868-1.954-14.713 1.356-3.717 4.604-6.435 8.222-7.838 6.905-2.636 13.715-6.774 17.539-13.292 2.91-4.897 2.759-10.939 1.451-16.299-1.536-6.957-8.314-12.431-15.479-12.192-4.955.033-9.905-.022-14.852.022-2.24-.052-4.346 1.896-4.318 4.164-.024 34.975.011 69.952-.01 104.926-6.444-.013-12.878 0-19.322-.007-.012-37.652.013-75.306-.012-112.957.042-6.594 4.731-12.804 10.985-14.807ZM523.1.278h20.332c-.006 42.859.013 85.711-.013 128.568-6.769-.019-13.543 0-20.319-.006V.282ZM57.334.015c3.255-.01 6.512 0 9.768-.008.013 7.656 0 15.313.005 22.967.034 6.392-.147 12.781-.412 19.164-.436 9.219-1.013 18.456-2.54 27.571-1.049 6.282-3.222 12.342-5.918 18.096-4.399 9.271-11.31 17.115-19.079 23.713-6.95 6.116-15.246 10.569-23.971 13.583-4.936 1.698-10.015 3.01-15.187 3.739.005-6.42.005-12.845 0-19.265 6.226-.935 12.211-3.145 17.771-6.065 6.596-3.487 12.535-8.18 17.532-13.708 5.162-5.71 9.276-12.321 12.398-19.34 3.677-8.07 5.644-16.786 6.982-25.515 1.676-11.094 2.375-22.319 2.634-33.533.037-3.792.005-7.594.017-11.391ZM71.032.028C77.025-.011 83.021.022 89.016.011q.003 64.412 0 128.833c-5.98.013-11.963-.028-17.943.022-.076-13.693-.01-27.389-.031-41.081-.008-29.251.011-58.501-.01-87.752ZM93.016.011c3.239-.002 6.475-.008 9.712.002-.105 13.093.34 26.211 1.902 39.22 1.277 10.104 3.078 20.282 7.102 29.696 3.815 9.107 9.315 17.573 16.481 24.396 6.843 6.526 15.136 11.542 24.146 14.43 2.514.805 5.085 1.435 7.698 1.816-.003 6.417-.006 12.836 0 19.252-5.135-.696-10.17-2.019-15.07-3.685-5.836-2.03-11.48-4.659-16.664-8.031-3.785-2.435-7.227-5.348-10.533-8.386-5.449-5.025-10.327-10.738-13.99-17.205-2.866-5.035-4.956-10.478-6.594-16.029-1.5-5.578-2.141-11.342-2.723-17.076-1.126-12.392-1.547-24.847-1.467-37.286.007-7.037.004-14.078.007-21.114Z" style="fill:#fff" transform="scale(.44 .44232)"/><path d="M57.334.015c-.011 3.798.021 7.599-.017 11.399-.259 11.214-.957 22.438-2.634 33.533-1.338 8.729-3.306 17.445-6.982 25.515-3.122 7.023-7.236 13.631-12.398 19.34-4.997 5.532-10.936 10.221-17.532 13.708-5.56 2.924-11.545 5.131-17.771 6.065.005 6.42.005 12.845 0 19.265 5.172-.729 10.251-2.041 15.187-3.739 8.725-3.014 17.021-7.467 23.971-13.583 7.769-6.598 14.68-14.442 19.079-23.713 2.695-5.754 4.869-11.814 5.918-18.096 1.527-9.114 2.105-18.352 2.54-27.571.265-6.383.446-12.772.412-19.164-.005-7.661.008-15.318-.005-22.974-3.257.008-6.513-.003-9.768.008M71.032.028c.021 29.254.002 58.5.011 87.754.021 13.693-.045 27.389.032 41.081 5.979-.054 11.961-.013 17.942-.022q.003-64.412 0-128.833c-5.996.015-11.992-.019-17.985.021M93.016.011c-.002 7.036 0 14.077 0 21.113-.08 12.44.341 24.894 1.467 37.286.582 5.734 1.223 11.497 2.723 17.076 1.638 5.55 3.728 10.993 6.594 16.029 3.662 6.466 8.541 12.18 13.99 17.205 3.306 3.038 6.748 5.951 10.533 8.384 5.184 3.374 10.828 6.003 16.664 8.033 4.9 1.666 9.935 2.989 15.07 3.685-.006-6.417-.003-12.835 0-19.253-2.614-.379-5.184-1.01-7.698-1.815-9.01-2.888-17.304-7.904-24.146-14.43-7.166-6.823-12.666-15.288-16.481-24.396-4.024-9.414-5.825-19.592-7.102-29.699-1.562-13.006-2.007-26.124-1.902-39.217-3.255-.002-6.492.004-9.731.007M566.683 116.108l7.549 2.288-.147-2.581c0-7.109 6.088-11.785 12.855-11.785 7.745 0 13.051 6.038 13.051 13.587 0 4.531-2.385 9.061-6.428 11.202l-3.214-3.411c3.116-1.119 5.454-4.869 5.454-8.131 0-4.966-4.09-8.863-9.01-8.863-4.724 0-8.717 4.038-8.717 8.762 0 2.581 1.217 5.261 3.264 6.866v.879l-18.848-5.65v-14.693h4.188v11.543h.01ZM595.026 79.834h4.185v23.716l-19.724-16.073c-1.848-1.509-4.138-3.261-6.574-3.261-3.847 0-7.011 3.409-7.011 7.206 0 3.752 3.02 6.819 6.72 7.063v4.577c-6.525-.73-10.91-4.967-10.91-11.64 0-6.233 4.626-11.588 11.007-11.588 2.726 0 5.452 1.024 7.549 2.724l14.754 12.078V79.834h.011ZM561.709 59.773c0 10.516 8.623 19.069 19.221 19.069 10.516 0 19.07-8.553 19.07-19.069 0-10.822-8.409-19.298-19.146-19.298s-19.145 8.476-19.145 19.298m19.23-14.79c8.295 0 14.792 6.597 14.792 15.023 0 7.9-6.635 14.327-14.792 14.327-8.241 0-14.947-6.427-14.947-14.327-.011-8.563 6.424-15.023 14.944-15.023ZM561.709 19.305c0 10.516 8.623 19.069 19.221 19.069 10.516 0 19.07-8.553 19.07-19.069C600 8.484 591.596.007 580.865.007s-19.156 8.477-19.156 19.298m19.23-14.789c8.295 0 14.792 6.597 14.792 15.023 0 7.9-6.635 14.329-14.792 14.329-8.241 0-14.947-6.429-14.947-14.329-.011-8.566 6.424-15.023 14.944-15.023Z" style="fill:#fff" transform="scale(.44 .44232)"/></svg>