<svg xmlns="http://www.w3.org/2000/svg" xml:space="preserve" width="597.3" height="128" viewBox="0 0 597.3 128"><g fill="#fff"><path d="M28.6 51.3h5c2.4 0 4.2 1.8 4.2 4.2s-1.8 4.2-4.2 4.2H18.7c-2.4 0-4.2-1.8-4.2-4.2V40.7c0-2.4 1.8-4.2 4.2-4.2s4.2 1.8 4.2 4.2v3.6c6.2-8.6 16.1-14.2 27.5-14.2 18.6 0 33.8 15.2 33.8 33.8 0 18.7-15.2 33.9-33.8 33.9-11.5 0-21.7-5.7-27.8-14.5-1.3-1.9-.9-4.6 1-5.8 1.9-1.3 4.5-.9 5.8 1C34 85 41.7 89.3 50.3 89.3 64.4 89.3 75.8 78 75.8 64c0-13.9-11.4-25.3-25.3-25.3-9.5 0-17.6 5-21.9 12.6m25 11.4 8.6 8.6c1.2 1.2 1.2 3.3 0 4.5s-3.3 1.2-4.5 0l-9.5-9.5c-.5-.7-.9-1.5-.9-2.3V50.3c0-1.7 1.5-3.2 3.2-3.2s3.1 1.5 3.1 3.2zM108.3 94.9c-2.3 0-4.6-.3-4.6-3.2v-.5l5.6-53c.4-4.2 6.1-3.7 9.1-3.7 2.3 0 6.5.3 6.5 3.4v.3l-4.3 41.9h13.6c2.4 0 3 1.6 3 3.8 0 1.9-.3 3.9-.5 5.8-.3 2.5-.9 5.2-4 5.2zM146 95.1c-1.7 0-4.8-.1-4.8-2.5 0-1.2.6-2.2.9-3.4l17.7-50.6c1.3-3.8 5.1-4.1 8.6-4.1h7.4c3.2 0 7.2.3 7.7 4.1l7.1 50.6c.1.9.3 1.7.3 2.6 0 4.6-8.2 3.3-10.8 3.3-2.4 0-5.5-.3-5.8-3.3l-.6-7.3h-13.9l-2.1 7.3c-.9 3-3.5 3.3-6.3 3.3zm18-23.7h8.9l-1.4-16.8c-.2-1.9-.4-3.7-.5-5.6h-.3c-.4 1.9-1.1 3.7-1.6 5.6zM199.7 92.3c-1.3-.7-3.5-1.9-3.5-3.5 0-2.4 3.1-9.8 5.9-9.8 2.1 0 7.8 3.5 13.3 3.5 2.9 0 5.8-.9 5.8-4.3 0-7.6-20.5-7.4-20.5-24.6 0-13.2 10.1-19.6 22.4-19.6 2.8 0 15.1 1.6 15.1 5.5 0 2.3-3.4 9.6-6 9.6-2.4 0-6.4-2.2-10.5-2.2-2.6 0-5.5.5-5.5 3.7 0 7 20.6 7.3 20.6 24.4 0 13.2-9.8 20.5-22.4 20.5-4.8.1-10.2-.8-14.7-3.2M254.3 91.6v-.3l4.4-41.9h-9.9c-2.4 0-3-1.7-3-3.8 0-1.9.3-3.9.5-5.8.3-2.5.9-5.2 4-5.2h34.9c2.4 0 3 1.6 3 3.8 0 1.9-.3 3.9-.5 5.8-.3 2.5-1 5.2-4 5.2H274l-4.4 42c-.4 4-5.8 3.7-8.8 3.7-2.4 0-6.5-.3-6.5-3.5M305.1 91.6v-.3l5.6-52.9c.3-3.1 1.7-3.7 4.6-3.7h16.8c11.5 0 18.8 4.7 18.8 17 0 15.4-7.4 24-23.1 24h-5.4l-1.6 15.7c-.4 4.1-6.3 3.7-9.2 3.7-2.4 0-6.5-.3-6.5-3.5M323.9 61h5.7c4.6 0 5.3-3.4 5.3-7.2 0-2.9-1.1-4.4-4.1-4.4H325zM357.5 94.9c-2.3 0-4.6-.3-4.6-3.2v-.5l5.6-53c.4-4.2 6.1-3.7 9.1-3.7 2.3 0 6.5.3 6.5 3.4v.3l-4.3 41.9h13.6c2.4 0 3 1.6 3 3.8 0 1.9-.3 3.9-.5 5.8-.3 2.5-.9 5.2-4 5.2zM395.3 95.1c-1.7 0-4.8-.1-4.8-2.5 0-1.2.6-2.2.9-3.4l17.7-50.6c1.3-3.8 5.1-4.1 8.6-4.1h7.4c3.2 0 7.2.3 7.7 4.1l7.1 50.6c.1.9.3 1.7.3 2.6 0 4.6-8.2 3.3-10.8 3.3-2.4 0-5.5-.3-5.8-3.3l-.6-7.3h-13.9l-2.2 7.3c-.9 3-3.5 3.3-6.3 3.3zm17.9-23.7h8.9l-1.4-16.8c-.2-1.9-.4-3.7-.5-5.6h-.3c-.4 1.9-1.1 3.7-1.6 5.6zM450.7 91.6v-.3l2.2-21.6-10.8-29.4c-.3-.9-.6-1.7-.6-2.7 0-4 8.4-3.1 10.6-3.1 2.8 0 4.9.4 5.8 3.4l5.1 16.8 8.7-17.5c1.7-3.5 6.6-2.7 9.8-2.7 1.7 0 6.4-.1 6.4 2.5 0 1.5-.6 2.2-1.3 3.3l-16.9 29.4-2.3 21.7c-.4 4.3-7.1 3.7-10.1 3.7-2.4 0-6.6-.3-6.6-3.5M493.4 94.9c-2.3 0-4.6-.3-4.6-3.2v-.5l5.6-52.8c.3-3.1 1.7-3.7 4.6-3.7h28.7c2.4 0 3 1.6 3 3.8 0 1.9-.3 3.9-.5 5.8-.3 2.5-.9 5.2-4 5.2h-17.5l-.7 7.3h15.3c2.4 0 3 1.6 3 3.8 0 1.9-.3 3.9-.5 5.8-.3 2.5-.9 5.2-4 5.2h-15.4l-.9 8.8H523c2.4 0 3 1.6 3 3.8 0 1.9-.3 3.9-.5 5.8-.3 2.5-.9 5.2-4 5.2h-28.1zM538.6 94.9c-2.2 0-4.6-.3-4.6-3.2v-.5l5.6-52.8c.3-3.1 1.7-3.7 4.6-3.7h18c16.3 0 24.3 8.2 24.3 24.4 0 20.7-6.5 35.8-29.7 35.8zm12.2-14.7h7.4c10.7 0 11.6-12.1 11.6-20.2 0-6.1-2.1-10.6-8.9-10.6H554z"/></g></svg>