<svg xmlns="http://www.w3.org/2000/svg" xml:space="preserve" width="597.3" height="128" viewBox="0 0 597.3 128"><g fill="#fff"><path d="m102.7 50.5 20.4 3.4c1.1.1 2.1.9 2.4 2 .3 1.2.2 2.3-.8 3.1l-14.4 14.6 3.2 20.3c.1 1.2-.3 2.3-1.3 2.9-.5.4-1.2.6-1.8.6-.4 0-.9-.1-1.4-.3l-18.3-9.3-18.3 9.3c-.4.3-.9.3-1.4.3-.6 0-1.3-.2-1.8-.6-1-.6-1.4-1.7-1.3-2.9L71 73.6 56.6 59c-.8-.8-1.1-1.9-.8-3.1.3-1.1 1.3-1.9 2.4-2l20.4-3.4L88 32.2c.5-.9 1.5-1.6 2.7-1.6 1.1 0 2.1.7 2.8 1.6zM145.6 92.1v-.3l5.6-52.9c.3-3.1 1.7-3.7 4.6-3.7h25.8c2.4 0 3 1.6 3 3.8 0 1.9-.3 3.9-.5 5.8-.3 2.5-.9 5.2-4 5.2h-14.6l-1 10.3h12.8c2.4 0 3 1.6 3 3.8 0 1.9-.3 3.9-.5 5.8-.3 2.5-.9 5.2-4 5.2h-12.9L161.2 92c-.4 4.1-6.3 3.7-9.2 3.7-2.3-.2-6.4-.4-6.4-3.6M186.4 95.5c-1.7 0-4.8-.1-4.8-2.5 0-1.2.6-2.2.9-3.4L200.2 39c1.3-3.8 5.1-4.1 8.6-4.1h7.4c3.2 0 7.2.3 7.7 4.1l7.1 50.6c.1.9.3 1.7.3 2.6 0 4.6-8.2 3.3-10.8 3.3-2.4 0-5.5-.3-5.8-3.3l-.6-7.3h-13.9l-2.1 7.3c-.9 3-3.5 3.3-6.3 3.3zm18-23.6h8.9l-1.4-16.8c-.2-1.9-.4-3.7-.5-5.6h-.4c-.4 1.9-1.1 3.7-1.6 5.6zM248.7 95.5c-3.2 0-7.7-.3-8.3-4.2l-7.1-50.5c-.1-.9-.3-1.7-.3-2.6 0-4.6 7.7-3.3 10.8-3.3 2.4 0 5.5.2 5.8 3.2l3.2 37.2c.2 1.9.4 3.7.5 5.6h.3c.4-1.9 1-3.7 1.6-5.6l11.2-37.2c.9-3 3.5-3.2 6.3-3.2h5.6c1.8 0 4.8 0 4.8 2.5 0 1.2-.6 2.2-.9 3.4l-17.6 50.5c-1.4 3.9-5.6 4.2-9.1 4.2zM283 70.7c0-20 7-36.2 29.5-36.2 16.5 0 24.1 9 24.1 25.1 0 20-6.8 36.5-29.4 36.5-16.5-.1-24.2-9.4-24.2-25.4m36.8-10.3c0-5.9-1.6-11.3-8.6-11.3-10.2 0-11.4 13-11.4 20.6 0 6 1.6 11.5 8.7 11.5 10.4.1 11.3-13.2 11.3-20.8M340.4 92.1v-.3l5.6-52.9c.3-3.1 1.7-3.7 4.6-3.7h16.8c10.3 0 18.8 3.7 18.8 15.3 0 7.8-3.2 15-11.6 16.3l-.1.3c4.7 1.4 5.9 5.2 6.6 9.5l2.1 13.7c.1.7.3 1.3.3 2.1 0 3.7-6.4 3.1-8.8 3.1-2.5 0-6.8.1-7.2-3.2l-1.7-13.2c-.2-1.5-.6-3.2-2.1-3.8s-4.6-.3-6-.3L356 91.8c-.4 4.1-6.3 3.7-9.2 3.7-2.2 0-6.4-.2-6.4-3.4m18.9-30.6h5.7c4.6 0 5.3-3.4 5.3-7.2 0-2.9-1.1-4.4-4.1-4.4h-5.8zM395.2 95.5c-2.3 0-6-.3-6-3.4v-.3l5.6-53.1c.3-3.5 4-3.7 6.8-3.7h2.8c2.3 0 6.1.3 6.1 3.4v.3l-5.6 53.1c-.3 3.4-4.1 3.7-6.9 3.7zM425.6 92.1v-.3l4.4-41.9h-9.9c-2.4 0-3-1.7-3-3.8 0-1.9.3-3.9.5-5.8.3-2.5.9-5.2 4-5.2h34.9c2.4 0 3 1.6 3 3.8 0 1.9-.3 3.9-.5 5.8-.3 2.5-1 5.2-4 5.2h-9.7l-4.4 42c-.4 4-5.8 3.7-8.8 3.7-2.4-.1-6.5-.3-6.5-3.5M465.3 95.3c-2.3 0-4.6-.3-4.6-3.2v-.5l5.6-52.8c.3-3.1 1.7-3.7 4.6-3.7h28.7c2.4 0 3 1.6 3 3.8 0 1.9-.3 3.9-.5 5.8-.3 2.5-.9 5.2-4 5.2h-17.5l-.7 7.3h15.3c2.4 0 3 1.6 3 3.8 0 1.9-.3 3.9-.5 5.8-.3 2.5-.9 5.2-4 5.2h-15.4l-.9 8.8h17.4c2.4 0 3 1.6 3 3.8 0 1.9-.3 3.9-.5 5.8-.3 2.5-.9 5.2-4 5.2h-28zM506.5 92.8c-1.3-.7-3.5-1.9-3.5-3.5 0-2.4 3.1-9.8 5.9-9.8 2.1 0 7.8 3.5 13.3 3.5 2.9 0 5.8-.9 5.8-4.3 0-7.6-20.5-7.4-20.5-24.6 0-13.2 10.1-19.6 22.4-19.6 2.8 0 15.1 1.6 15.1 5.5 0 2.3-3.4 9.6-6 9.6-2.4 0-6.4-2.2-10.5-2.2-2.6 0-5.5.5-5.5 3.7 0 7 20.6 7.3 20.6 24.4 0 13.2-9.8 20.5-22.4 20.5-4.8 0-10.2-.8-14.7-3.2"/></g></svg>