<svg xmlns="http://www.w3.org/2000/svg" xml:space="preserve" viewBox="0 0 3839 773.36"><path d="M644.94 535.91V502.8c0-58.76-47.8-106.56-106.56-106.56h-46.27c-6.78 0-12.3-5.52-12.3-12.3s5.52-12.31 12.3-12.31h46.27c58.76 0 106.56-47.8 106.56-106.56s-47.8-106.56-106.56-106.56h-82.46c-58.76 0-106.57 47.8-106.57 106.56v270.85c0 8.73-7.1 15.84-15.84 15.84H226.72c-45.38 0-88.38-17.3-121.07-48.71-32.73-31.45-51.17-73.41-51.91-118.14-.77-45.93 16.53-89.23 48.69-121.94 32.18-32.72 75.17-50.74 121.05-50.74h84.47v-53.72h-84.47c-60.4 0-116.99 23.72-159.35 66.79C21.79 268.34-.98 325.35.03 385.79c.99 59.15 25.28 114.54 68.4 155.98 42.74 41.08 98.96 63.7 158.29 63.7h106.79c38.35 0 69.56-31.2 69.56-69.56V265.06c0-29.14 23.71-52.84 52.84-52.84h82.46c29.14 0 52.84 23.71 52.84 52.84s-23.71 52.84-52.84 52.84H492.1c-36.41 0-66.03 29.62-66.03 66.03s29.62 66.02 66.03 66.02h46.27c29.14 0 52.84 23.71 52.84 52.84v33.11c0 38.35 31.2 69.56 69.56 69.56h24.64v-53.72h-24.64c-8.73.01-15.83-7.1-15.83-15.83m903.88-307.86v311.39c0 6.78-5.52 12.3-12.3 12.3s-12.3-5.52-12.3-12.3V228.05c0-38.35-31.2-69.56-69.56-69.56h-112.82v53.72h112.82c8.73 0 15.84 7.1 15.84 15.84v311.39c0 36.41 29.62 66.03 66.03 66.03s66.03-29.62 66.03-66.03V228.05c0-8.73 7.1-15.84 15.84-15.84h116.71v-53.72H1618.4c-38.38 0-69.58 31.21-69.58 69.56m1324.51 377.42h53.72V158.49h-53.72zm-1098.11 0h53.72V158.49h-53.72zm661.57 0h53.72V158.49h-53.72zm-1050.63-64.22-17.89-49.97c-10.06-28.08-36.85-46.95-66.68-46.95h-104.74c-6.78 0-12.3-5.52-12.3-12.3s5.52-12.3 12.3-12.3h51.91c21.48 0 41.69-10.48 54.05-28.05s15.43-40.12 8.19-60.34l-45.34-126.65c-11.02-30.78-39.27-50.67-71.97-50.67s-60.95 19.89-71.97 50.67l-121.06 338.09a13.55 13.55 0 0 1-12.74 8.97H815.96c-29.14 0-52.85-23.71-52.85-52.85v-36.71c0-6.75 5.49-12.24 12.23-12.24h127.48c36.37 0 65.96-29.59 65.96-65.96v-.14c0-36.37-29.59-65.96-65.96-65.96H775.35c-6.75 0-12.23-5.49-12.23-12.24v-40.6c0-29.14 23.71-52.85 52.85-52.85h152.86v-53.72H815.96c-58.76 0-106.57 47.81-106.57 106.57v40.6c0 36.37 29.59 65.96 65.96 65.96h127.48c6.75 0 12.23 5.49 12.23 12.24v.15c0 6.75-5.49 12.23-12.23 12.23H775.35c-36.37 0-65.96 29.59-65.96 65.96v36.71c0 58.76 47.81 106.57 106.57 106.57h171.96c28.33 0 53.77-17.92 63.32-44.58L1172.3 222.8c5-13.97 17.64-15.06 21.39-15.06s16.39 1.09 21.39 15.06l45.34 126.64c1.89 5.26-.15 9.34-1.53 11.31-1.38 1.96-4.53 5.26-10.13 5.26h-51.91c-36.41 0-66.03 29.62-66.03 66.02 0 36.41 29.62 66.03 66.03 66.03h104.74c7.2 0 13.67 4.56 16.1 11.34l17.89 49.97c9.87 27.58 36.19 46.11 65.49 46.11h37.27v-53.72h-37.27c-6.67-.01-12.66-4.23-14.91-10.51M2447.16 0h-35.53c-15.09 0-29.46 4.76-41.55 13.78-12.1 9.01-20.78 21.42-25.09 35.87L2149.97 702.5c-4.75 15.9-18.81 17.14-23.01 17.14s-18.26-1.24-23.01-17.14l-195-652.85c-4.32-14.46-13-26.86-25.09-35.87C1871.76 4.76 1857.39 0 1842.3 0h-35.53v53.72h35.53c6.95 0 13.19 4.65 15.17 11.3l195.01 652.85c5.16 17.27 15.42 31.65 29.68 41.59 13.05 9.09 28.54 13.9 44.8 13.9 16.25 0 31.75-4.81 44.8-13.9 14.26-9.93 24.52-24.31 29.68-41.59l195.01-652.85c1.99-6.66 8.23-11.3 15.17-11.3h35.53V0zm258.06 355.12h-46.6c-39.4 0-71.45-32.05-71.45-71.45s32.05-71.45 71.45-71.45h165.31V158.5h-165.31c-69.02 0-125.17 56.15-125.17 125.17s56.15 125.17 125.17 125.17h46.6c39.4 0 71.45 32.05 71.45 71.45s-32.05 71.45-71.45 71.45h-165.88v53.72h165.88c69.02 0 125.17-56.15 125.17-125.17s-56.15-125.17-125.17-125.17m650.53-135.6c-43.49-43.49-101.31-67.44-162.82-67.44s-119.33 23.95-162.82 67.44-67.44 101.31-67.44 162.82 23.95 119.33 67.44 162.82 101.31 67.44 162.82 67.44 119.33-23.95 162.82-67.44 67.44-101.31 67.44-162.82-23.95-119.33-67.44-162.82m-162.82 337.72c-96.45 0-174.91-78.46-174.91-174.91s78.46-174.91 174.91-174.91 174.91 78.46 174.91 174.91-78.47 174.91-174.91 174.91m621.43-398.75c-38.35 0-69.56 31.2-69.56 69.56v308.81c0 8.21-6.68 14.88-14.88 14.88-6.27 0-11.9-3.97-14.01-9.87L3589.68 189.3c-11.01-30.74-41.15-48.31-73.33-42.72-32.17 5.58-54.63 32.29-54.63 64.94v324.39c0 8.73-7.1 15.84-15.84 15.84h-24.64v53.72h24.64c38.35 0 69.56-31.2 69.56-69.56V211.52c0-8.92 6.33-11.35 10.1-12.01s10.55-.5 13.56 7.9l126.24 352.58c9.74 27.2 35.7 45.48 64.59 45.48 37.83 0 68.6-30.78 68.6-68.6V228.05c0-8.73 7.1-15.84 15.84-15.84H3839v-53.72z" style="fill:#fff;fill-opacity:1"/></svg>