<svg xmlns="http://www.w3.org/2000/svg" xml:space="preserve" width="597.3" height="128" viewBox="0 0 597.3 128"><g fill="#fff"><path d="M1.2 37.6c0-4 3.3-7.3 7.4-7.3h22.6c2.7 0 5.2 1 7 2.8l25.5 25.6c3.8 3.8 4 10 0 13.8L43.5 92.8c-1.8 2-4.3 3-6.9 3-2.5 0-5-1-6.9-3L4.2 67.3c-1.9-1.9-3-4.3-3-7zm72 13.4c8 8.2 8 21.2 0 29.2l-17 17.2c-.8.7-1.7 1-2.6 1s-1.9-.4-2.6-1.1c-1.4-1.4-1.4-3.5-.2-5.1L68 75c5.2-5.2 5.2-13.6 0-18.8L48.6 36.6c-1.3-1.5-1.1-3.9.3-5.2.7-.7 1.5-1 2.5-1 .9 0 1.7.3 2.4 1zM98.4 69.4c0-20.6 8.3-36.7 31-36.7 3.4 0 14.8.9 14.8 5.5 0 2.2-3.2 10.9-5.8 10.9-2.3 0-5.8-1.7-9.6-1.7-11.3 0-13.5 11.5-13.5 20.5 0 7.7 2.1 11.7 10.3 11.7 4.4 0 8.1-2.1 10.3-2.1 2.8 0 3.8 7.7 3.8 9.8 0 .9-.1 1.8-.7 2.5-2.6 3-12.4 4.5-16.3 4.5-16.3 0-24.3-8.8-24.3-24.9M144.5 68.9c0-20 7-36.2 29.5-36.2 16.5 0 24.1 9 24.1 25.1 0 20-6.8 36.5-29.4 36.5-16.6 0-24.2-9.3-24.2-25.4m36.8-10.2c0-5.9-1.6-11.3-8.6-11.3-10.2 0-11.4 13-11.4 20.6 0 6 1.6 11.5 8.7 11.5 10.3.1 11.3-13.3 11.3-20.8M206 93.6c-2.3 0-4.6-.3-4.6-3.2v-.5l5.6-53c.4-4.2 6.1-3.7 9.1-3.7 2.3 0 6.5.3 6.5 3.4v.4l-4.3 41.9h13.6c2.4 0 3 1.6 3 3.8 0 1.9-.3 3.9-.5 5.8-.3 2.5-.9 5.2-4 5.2H206zM245.4 93.6c-2.3 0-4.6-.3-4.6-3.2v-.5l5.6-53c.4-4.2 6.1-3.7 9.1-3.7 2.3 0 6.5.3 6.5 3.4v.4l-4.3 41.9h13.6c2.4 0 3 1.6 3 3.8 0 1.9-.3 3.9-.5 5.8-.3 2.5-.9 5.2-4 5.2h-24.4zM285.1 93.6c-2.3 0-4.6-.3-4.6-3.2v-.5l5.6-52.8c.3-3.1 1.7-3.7 4.6-3.7h28.7c2.4 0 3 1.6 3 3.8 0 1.9-.3 3.9-.5 5.8-.3 2.5-.9 5.2-4 5.2h-17.5l-.7 7.3H315c2.4 0 3 1.6 3 3.8 0 1.9-.3 3.9-.5 5.8-.3 2.5-.9 5.2-4 5.2h-15.4l-.9 8.8h17.4c2.4 0 3 1.6 3 3.8 0 1.9-.3 3.9-.5 5.8-.3 2.5-.9 5.2-4 5.2h-28zM325.4 69.4c0-20.6 8.3-36.7 31-36.7 3.4 0 14.8.9 14.8 5.5 0 2.2-3.2 10.9-5.8 10.9-2.3 0-5.8-1.7-9.6-1.7-11.3 0-13.5 11.5-13.5 20.5 0 7.7 2.1 11.7 10.3 11.7 4.4 0 8.1-2.1 10.3-2.1 2.8 0 3.8 7.7 3.8 9.8 0 .9-.1 1.8-.7 2.5-2.6 3-12.4 4.5-16.3 4.5-16.4 0-24.3-8.8-24.3-24.9M385.3 90.3V90l4.4-41.9h-9.9c-2.4 0-3-1.7-3-3.8 0-1.9.3-3.9.5-5.8.3-2.5.9-5.2 4-5.2h34.9c2.4 0 3 1.6 3 3.8 0 1.9-.3 3.9-.5 5.8-.3 2.5-1 5.2-4 5.2H405l-4.4 42c-.4 4-5.8 3.7-8.8 3.7-2.4-.1-6.5-.3-6.5-3.5M425.2 93.7c-2.3 0-6-.3-6-3.4V90l5.6-53.1c.3-3.5 4-3.7 6.8-3.7h2.8c2.3 0 6.1.3 6.1 3.4v.4l-5.7 53c-.3 3.4-4.1 3.7-6.9 3.7zM443.4 68.9c0-20 7-36.2 29.5-36.2 16.5 0 24.1 9 24.1 25.1 0 20-6.8 36.5-29.4 36.5-16.6 0-24.2-9.3-24.2-25.4m36.8-10.2c0-5.9-1.6-11.3-8.6-11.3-10.2 0-11.4 13-11.4 20.6 0 6 1.6 11.5 8.7 11.5 10.3.1 11.3-13.3 11.3-20.8M501 90.4V90l5.6-53.1c.4-4.3 6.5-3.7 9.5-3.7 4.2 0 6.1-.1 8 4l10.1 21.9c.9 2 2.2 3.6 2.9 5.8l.3-.1c0-2.1.1-4.1.3-6.2l2.3-21.8c.4-4.1 5.8-3.7 8.9-3.7 2.3 0 6.5.3 6.5 3.4v.5l-5.5 53c-.4 4.1-6.5 3.7-9.4 3.7-4.3 0-6 0-8.1-4l-10-19.4c-1.2-2.3-2.8-4.8-3.4-7.4l-.3.1v1.1c0 8.5-1.5 17.7-2.4 26-.4 4-6.1 3.7-8.9 3.7-2.2-.1-6.4-.3-6.4-3.4M560.8 91c-1.3-.7-3.5-1.9-3.5-3.5 0-2.4 3.1-9.8 5.9-9.8 2.1 0 7.8 3.5 13.3 3.5 2.9 0 5.8-.9 5.8-4.3 0-7.6-20.5-7.4-20.5-24.6 0-13.2 10.1-19.6 22.4-19.6 2.8 0 15.1 1.6 15.1 5.5 0 2.3-3.4 9.6-6 9.6-2.4 0-6.4-2.2-10.5-2.2-2.6 0-5.5.5-5.5 3.7 0 7 20.6 7.3 20.6 24.4 0 13.2-9.8 20.5-22.4 20.5-4.8.1-10.3-.8-14.7-3.2"/></g></svg>