<svg xmlns="http://www.w3.org/2000/svg" viewBox="0 0 200 40"><path d="m51.102 29.399 3.308-18.798h8.001q3.88 0 5.519 1.369t1.639 4.436q0 1.564-.361 3.609-.903 5.054-3.083 7.218-2.18 2.166-7.023 2.166Zm10.527-13.986h-2.376l-1.594 9.174h2.376q1.173 0 1.744-.286.572-.287.752-1.308l1.053-5.986q.03-.18.03-.481 0-.692-.481-.902-.482-.21-1.504-.211m21.529 6.888h-5.714l-.391 2.286h7.008l-.842 4.812H70.496l3.309-18.798h12.572l-1.564 4.812h-6.166l-.421 2.527h5.714Zm2.738 6.767 1.685-4.963q2.526.692 4.631.692t3.399-.18l.241-1.504-2.497-.241q-2.856-.27-4.045-1.293-1.188-1.023-1.188-2.887 0-.812.18-1.805.693-3.85 2.512-5.293 1.82-1.444 5.639-1.444t6.737.752l-1.564 4.812q-2.617-.451-4.21-.451-1.594 0-2.707.15l-.241 1.474 2.015.211q3.068.33 4.361 1.458 1.294 1.128 1.294 3.023 0 1.925-.842 3.97-.421 1.052-.918 1.76a4.5 4.5 0 0 1-1.263 1.203q-.767.495-1.399.752-.631.255-1.594.375-1.413.211-3.458.211-3.73 0-6.768-.782m25.172-7.278.03-.572h-.24l-1.414 8.181h-5.714l3.308-18.798h5.715l-1.354 7.67h.241q.24-.963.541-1.444l3.79-6.226h6.165l-5.895 9.234 2.737 9.564h-6.165l-1.654-6.737q-.091-.302-.091-.872m25.027-6.377h-4.151l-2.436 13.986h-5.714l2.436-13.986h-4.121l.873-4.812h13.985Zm7.459 1.474-1.384 7.82h2.376q1.173 0 1.745-.286.571-.285.752-1.308l1.383-7.82h-2.406q-1.143 0-1.714.286-.572.285-.752 1.308m3.459-6.737q3.82 0 5.443 1.489 1.625 1.488 1.625 4.586t-.978 6.482-3.098 5.263-6.196 1.88q-4.074 0-5.699-1.489-1.624-1.488-1.624-4.586 0-1.474.421-3.895.422-2.421 1.113-4.181.691-1.759 1.865-3.053 2.254-2.496 7.128-2.496m18.227 14.707h-3.73l-.782 4.542h-5.714l3.308-18.798h9.023q5.113 0 5.113 4.752 0 2.255-.631 4.076-.632 1.82-1.399 2.887-.767 1.068-2.105 1.804-1.339.738-3.083.737m-2.075-9.444-.812 4.632h1.323q1.023 0 1.549-.225.526-.227.677-1.038.39-2.226.391-2.436 0-.572-.452-.752-.45-.181-1.353-.181Z" style="fill:#fff;white-space:pre"/><path d="M44.043 12h-15a1.5 1.5 0 0 0-1.5 1.5v10a1.5 1.5 0 0 0 1.5 1.5h6l-.5 1.5h-2.25a.753.753 0 0 0-.75.75c0 .412.338.75.75.75h8.5a.75.75 0 0 0 0-1.5h-2.25l-.5-1.5h6a1.5 1.5 0 0 0 1.5-1.5v-10a1.5 1.5 0 0 0-1.5-1.5m-.5 9h-14v-7h14z" style="fill:#ddd"/></svg>