<svg xmlns="http://www.w3.org/2000/svg" viewBox="0 0 264 66"><path d="M23.393 45.364q-7.414 0-12.667-3.069t-7.989-8.317Q-.001 28.73 0 22.326q0-6.137 2.516-11.252Q5.032 5.96 9.843 2.98 14.653 0 21.186 0q8.3 0 13.462 4.892 5.164 4.893 5.164 13.52 0 2.225-.353 4.269H8.121q.794 8.45 5.12 12.009 4.327 3.558 11.123 3.558t12.447-2.579l1.059 6.314q-7.503 3.38-14.477 3.381M8.828 17.167h22.775q0-4.714-2.649-7.383T21.01 7.116q-5.12 0-8.033 2.535-2.915 2.535-4.149 7.516M51.95 45.364q-6.001 0-9.666-3.558-3.664-3.56-3.663-9.073-.001-8.271 7.768-11.83 7.769-3.56 18.097-3.736 0-5.87-2.252-7.96-2.25-2.092-7.194-2.091-2.737 0-5.473.845-2.737.843-5.915 3.068l-1.147-6.493q2.649-2.045 6.532-3.291Q52.921.001 57.159 0q5.56 0 8.871 1.957 3.31 1.958 4.856 6.493 1.544 4.538 1.544 12.453v8.894q0 3.559.309 5.382.309 1.824 1.369 2.802 1.058.978 3.266.979h.794l-1.236 6.404h-.618q-3.707 0-5.826-.712-2.119-.711-3.222-2.046-1.104-1.336-2.074-3.646-5.472 6.404-13.242 6.404m1.501-6.404q3.179 0 6.135-1.602a14.55 14.55 0 0 0 4.9-4.269V22.681q-9.534.358-13.639 2.536t-4.105 7.071q0 3.38 1.81 5.026t4.899 1.646m37.12 6.404q-5.12 0-8.96-1.201t-5.87-2.624l.971-7.738q1.764 1.6 5.429 3.023 3.664 1.425 8.077 1.424 4.148.001 6.4-1.424 2.251-1.424 2.251-4.002 0-3.025-2.472-4.58-2.471-1.558-6.179-2.625-4.062-1.067-6.841-2.268-2.781-1.2-4.767-3.691-1.986-2.492-1.987-6.582 0-5.604 3.973-9.34T92.866 0q3.797 0 6.444.756a30.2 30.2 0 0 1 5.297 2.091l-.971 7.293a17.2 17.2 0 0 0-4.679-2.802q-2.56-1.023-5.914-1.022-3.884 0-6.135 1.467t-2.251 4.403q0 1.957 1.059 3.158t3.001 2.001 6.003 2.046q5.03 1.51 8.695 4.269 3.664 2.758 3.664 8.717-.001 5.337-3.752 9.162t-12.756 3.825M112.154 66l9.976-23.483L104.121.89h8.828l13.506 32.377L138.637.89h8.828L120.982 66zM151.757 47.632V.934h16.949q7.416 0 11.697 3.58 4.26 3.559 4.259 10.563 0 4.87-2.052 7.983-2.053 3.09-5.827 4.959l10.461 19.613h-9.467l-8.938-17.345h-8.607v17.345zm8.475-24.483h6.223q9.335 0 9.335-7.605 0-3.669-2.118-5.56-2.12-1.912-6.886-1.912h-6.554zm30.764 24.483V.934h16.485q16.486 0 16.486 15.077 0 7.805-4.171 11.608-4.171 3.802-12.116 3.802h-8.21v16.211zm8.474-23.349h7.217q4.37 0 6.532-2.002 2.142-2 2.141-6.137t-2.185-6.115q-2.184-1.957-6.687-1.957h-7.018zm49.369 24.283q-7.283 0-12.536-3.003-5.273-3-8.055-8.494-2.78-5.514-2.78-12.853-.001-7.205 3.067-12.719 3.09-5.493 8.585-8.495T249.699 0q3.576 0 6.952.734 3.376.733 5.826 2.001l-.927 8.139q-5.76-2.669-11.851-2.669-7.415 0-11.189 4.381-3.773 4.359-3.773 11.497 0 7.405 3.707 11.852 3.708 4.426 10.726 4.425 2.847 0 6.356-.733v-8.339h-6.356v-7.072H264V45.03q-2.583 1.534-6.599 2.536-3.995 1-8.562 1" style="white-space:pre;fill:#fff"/></svg>