<svg xmlns="http://www.w3.org/2000/svg" width="930" height="169" viewBox="0 0 590.55 107.315"><path fill="#52ad67" d="m246.1 53.18-29.498-.123-.088-.733c-.123-1 .41-7.564.83-10.261.19-1.21.41-2.694.49-3.299.375-2.808 1.843-8.623 3.148-12.46 1.355-3.987 2.688-6.926 4.804-10.592 1.958-3.393 3.405-5.312 5.99-7.939 2.798-2.844 5.577-4.69 8.783-5.832 3.618-1.054 6.74-1.408 10.147-.321 3.846 1.246 6.076 2.653 9.485 5.98 4.58 4.473 8.308 10.907 11.194 19.316 1.742 5.074 3.146 12.09 3.839 19.178.296 3.023.5 5.882.455 6.352l-.08.856z" style="fill:#fff;fill-opacity:1;stroke-width:.970907"/><path fill="#38894b" d="M273.107 104.834c-1.216-.838-2.881-1.91-3.7-2.383-2.477-1.428-5.01-2.85-6.12-3.431-1.255-.658-9.267-4.391-9.424-4.391-.06 0-.681-.237-1.378-.526-.698-.29-1.41-.554-1.583-.587-.172-.035-.822-.28-1.443-.547-.62-.268-2.014-.782-3.096-1.145a598.69 557.47 0 0 1-3.28-1.106c-1.945-.666-7.458-2.217-12.463-3.506-1.579-.407-7.23-1.555-9.315-1.891-4.808-.779-6.325-1.062-6.528-1.223-.126-.101-.147-.585-.05-1.077l.181-.895 1.362.164c2.102.25 7.205 1.071 9.1 1.464.94.193 3.183.637 4.987.986 5.184 1 5.854 1.14 6.691 1.387.433.128 1.436.332 2.23.455.795.122 2.034.375 2.756.56l1.312.336.082-.846c.046-.466.026-.9-.043-.965-.07-.065-1.052-.228-2.182-.363-13.609-2.275-26.463-13.413-26.537-26.367l.08-1.567h62.71l-.041 2.565c-.073 4.341-1.69 8.58-5.083 13.316-1.288 1.798-5.878 5.95-8.047 7.284-3.851 2.363-9.346 4.367-12.853 4.686-2.815.256-2.707.18-2.707 1.968 0 1.512.025 1.572.72 1.712 2.115.425 12.09 3.744 16.072 5.348 4.889 1.968 6.1 2.493 11.152 4.834 5.824 2.701 7.518 3.612 7.392 3.975-.11.317-7.702 3.3-8.398 3.3-.19 0-1.34-.687-2.556-1.524" style="fill:#fff;fill-opacity:1;stroke-width:.996826;stroke:none;stroke-opacity:1;opacity:1"/><g aria-label="electron" style="font-size:73.8105px;line-height:1.25;font-family:&quot;DejaVu Serif&quot;;-inkscape-font-specification:&quot;DejaVu Serif&quot;;text-align:center;letter-spacing:0;word-spacing:0;text-anchor:middle;fill:#fff;fill-opacity:1;stroke-width:1.84526"><path d="M323.247 62.481h-28.58v.289q0 7.748 2.92 11.713 2.92 3.928 8.613 3.928 4.361 0 7.136-2.27 2.812-2.307 3.929-6.812h5.334q-1.586 6.307-5.875 9.478-4.253 3.172-11.208 3.172-8.398 0-13.515-5.514-5.082-5.55-5.082-14.705 0-9.082 5.01-14.632t13.154-5.55q8.686 0 13.335 5.37 4.65 5.334 4.83 15.533m-7.82-3.82q-.216-6.704-2.847-10.091-2.595-3.424-7.497-3.424-4.577 0-7.208 3.424-2.63 3.424-3.207 10.091zM342.06 77.114h6.272v3.82H329.05v-3.82h6.38V28.675h-6.38v-3.82h13.01zM390.535 62.481h-28.58v.289q0 7.748 2.919 11.713 2.92 3.928 8.614 3.928 4.36 0 7.136-2.27 2.81-2.307 3.928-6.812h5.334q-1.586 6.307-5.875 9.478-4.252 3.172-11.208 3.172-8.398 0-13.515-5.514-5.082-5.55-5.082-14.705 0-9.082 5.01-14.632t13.154-5.55q8.686 0 13.335 5.37 4.65 5.334 4.83 15.533m-7.821-3.82q-.216-6.704-2.847-10.091-2.595-3.424-7.497-3.424-4.577 0-7.208 3.424-2.63 3.424-3.207 10.091zM432.161 69.437q-1.405 6.127-5.406 9.334-4 3.208-10.343 3.208-8.362 0-13.443-5.514-5.082-5.55-5.082-14.705 0-9.19 5.082-14.668 5.081-5.514 13.443-5.514 3.64 0 7.244.865 3.604.829 7.244 2.559v9.803h-3.857q-.756-5.046-3.315-7.353-2.523-2.306-7.244-2.306-5.37 0-8.11 4.18-2.738 4.145-2.738 12.434t2.703 12.47q2.739 4.181 8.145 4.181 4.289 0 6.847-2.234 2.56-2.235 3.496-6.74zM443.514 46.48h-5.839v-3.857h5.839V30.73h6.667v11.893h12.47v3.856h-12.47v24.328q0 4.865.937 6.235.937 1.369 3.46 1.369 2.595 0 3.785-1.514 1.189-1.55 1.26-4.973h5.01q-.288 5.226-2.847 7.64-2.559 2.415-7.784 2.415-5.73 0-8.11-2.523-2.378-2.559-2.378-8.65zM500.494 42.551v9.587h-3.82q-.18-2.848-1.586-4.253t-4.109-1.406q-4.902 0-7.532 3.388-2.595 3.388-2.595 9.731v17.516h7.676v3.82h-20.29v-3.82h5.982V46.407h-6.343v-3.784h12.975v6.812q1.946-4 5.01-5.91 3.063-1.947 7.46-1.947 1.621 0 3.387.252 1.802.252 3.785.721M522.694 78.411q5.334 0 8.037-4.217 2.74-4.216 2.74-12.434t-2.74-12.397q-2.703-4.217-8.037-4.217t-8.073 4.217q-2.703 4.18-2.703 12.397t2.74 12.434 8.036 4.217m0 3.568q-8.36 0-13.443-5.514-5.081-5.55-5.081-14.705 0-9.154 5.045-14.668 5.082-5.514 13.48-5.514t13.442 5.514q5.082 5.514 5.082 14.668t-5.082 14.705q-5.045 5.514-13.443 5.514M547.959 80.934v-3.82h5.982V46.479h-6.343v-3.856h12.975v6.812q1.838-3.893 4.757-5.875 2.955-1.982 6.848-1.982 6.343 0 9.334 3.64 2.992 3.64 2.992 11.353v20.543h5.91v3.82h-18.308v-3.82h5.73V58.66q0-7.028-1.73-9.623-1.73-2.63-6.09-2.63-4.614 0-7.029 3.387-2.414 3.352-2.414 9.803v17.516h5.766v3.82z" style="fill:#fff;fill-opacity:1" transform="translate(0 -3.62)"/></g><g aria-label="acorn" style="font-size:73.8105px;line-height:1.25;font-family:&quot;DejaVu Serif&quot;;-inkscape-font-specification:&quot;DejaVu Serif&quot;;text-align:center;letter-spacing:0;word-spacing:0;text-anchor:middle;fill:#fff;fill-opacity:1;stroke-width:1.84526"><path d="M25.833 68.896v-8.109H17.29q-4.937 0-7.352 2.127t-2.415 6.523q0 4 2.451 6.343t6.631 2.343q4.145 0 6.668-2.56 2.559-2.558 2.559-6.667m6.631-11.893v20.11h5.91v3.82H25.834V76.79q-2.199 2.667-5.082 3.929-2.883 1.261-6.74 1.261-6.379 0-10.127-3.388T.136 69.437q0-5.947 4.289-9.226t12.11-3.28h9.298v-2.63q0-4.362-2.667-6.74-2.631-2.415-7.424-2.415-3.965 0-6.308 1.802t-2.919 5.334H3.091v-7.749q3.46-1.477 6.704-2.198 3.28-.757 6.379-.757 7.965 0 12.11 3.964 4.18 3.929 4.18 11.461M78.416 69.437q-1.406 6.127-5.406 9.334-4.001 3.208-10.344 3.208-8.361 0-13.443-5.514-5.082-5.55-5.082-14.705 0-9.19 5.082-14.668 5.082-5.514 13.443-5.514 3.64 0 7.244.865 3.604.829 7.244 2.559v9.803h-3.856q-.757-5.046-3.316-7.353-2.523-2.306-7.244-2.306-5.37 0-8.109 4.18-2.74 4.145-2.74 12.434t2.704 12.47q2.739 4.181 8.145 4.181 4.289 0 6.848-2.234t3.496-6.74zM104.004 78.411q5.334 0 8.037-4.217 2.74-4.216 2.74-12.434t-2.74-12.397q-2.703-4.217-8.037-4.217t-8.073 4.217q-2.703 4.18-2.703 12.397t2.74 12.434q2.738 4.217 8.036 4.217m0 3.568q-8.361 0-13.443-5.514-5.082-5.55-5.082-14.705 0-9.154 5.046-14.668 5.082-5.514 13.48-5.514t13.442 5.514q5.082 5.514 5.082 14.668t-5.082 14.705q-5.045 5.514-13.443 5.514M161.524 42.551v9.587h-3.82q-.18-2.848-1.586-4.253-1.405-1.406-4.108-1.406-4.902 0-7.533 3.388-2.594 3.388-2.594 9.731v17.516h7.676v3.82h-20.29v-3.82h5.982V46.407h-6.343v-3.784h12.975v6.812q1.946-4 5.01-5.91 3.063-1.947 7.46-1.947 1.621 0 3.387.252 1.802.252 3.784.721M164.552 80.934v-3.82h5.983V46.479h-6.344v-3.856h12.975v6.812q1.838-3.893 4.757-5.875 2.956-1.982 6.848-1.982 6.343 0 9.334 3.64 2.992 3.64 2.992 11.353v20.543h5.91v3.82H188.7v-3.82h5.73V58.66q0-7.028-1.73-9.623-1.73-2.63-6.09-2.63-4.614 0-7.028 3.387-2.415 3.352-2.415 9.803v17.516h5.766v3.82z" style="fill:#fff;fill-opacity:1" transform="translate(0 -3.62)"/></g></svg>