<svg xmlns="http://www.w3.org/2000/svg" fill="none" viewBox="0 0 648 751"><path fill="#fff" fill-rule="evenodd" d="M647.167 58.79v518.235c0 4.86-.198 9.375-.627 13.557-.977 9.375-1.161 18.459-9.88 28.802-.851 1.013-9.752 7.637-9.752 7.637-4.789 2.348-8.057 4.077-13.459 6.251L352.656 742.536c-13.54 6.206-19.201 8.625-29.035 8.43v.002h-.077v-.002c-9.833.195-15.495-2.224-29.033-8.43L33.716 633.272c-5.4-2.174-8.669-3.903-13.457-6.251 0 0-8.902-6.624-9.754-7.637-8.718-10.343-8.902-19.427-9.88-28.802C.196 586.4 0 581.885 0 577.025V58.79C0 15.842 15.843 0 58.771 0h529.625c42.927 0 58.771 15.842 58.771 58.79m-94.125 460.912v-2.87l-.12-1.314-.12-1.195-.239-1.196-.238-1.196-.239-1.076-.352-1.076-.359-1.075-.477-.956-.599-1.077-.59-.956-.718-1.075-.71-.957-.836-.836-.83-.957-.956-.836-.949-.838-.951-.597-.956-.717-.948-.598-1.069-.597-1.076-.599-1.189-.597-1.188-.477-1.188-.599-1.315-.471-1.068-.358-1.069-.359-1.196-.359-1.068-.358-1.188-.359-1.19-.359-1.196-.238-1.308-.359-1.188-.359-1.306-.238-1.308-.36-1.308-.358-1.316-.358-1.188-.24-1.068-.359-1.076-.239-.95-.358-.949-.239-1.428-.477-1.315-.479-1.188-.479-.949-.597-1.076-.597-.829-.838-.479-.717-.589-1.315-.122-1.553v-.24l.122-1.195.469-1.076.717-1.076 1.07-.957.837-.477.949-.479 1.068-.239 1.196-.24 1.308-.238h2.616l1.068.12 1.196.118 1.188.12 1.188.24 1.188.239 1.196.24 1.188.357 1.188.36 1.31.358.956.478 1.068.359.949.477 1.076.479.949.477 1.068.479.958.599 1.068.477.956.717.95.598 1.068.598.956.716.711-.956.597-.956.71-.956.718-.956.71-1.076.598-.956.716-.956.712-.957.596-.956.711-.956.717-.957.599-.956.709-1.075.718-.957.71-.956.598-.956.709-.958-.948-.716-.949-.717-.956-.719-.951-.596-1.075-.717-.949-.599-1.069-.597-1.076-.597-.95-.479-1.069-.597-1.195-.479-1.069-.479-1.068-.477-1.069-.359-1.195-.477-1.069-.24-1.07-.359-1.194-.358-1.07-.239-1.188-.24-1.188-.239-1.076-.238-1.189-.239-1.308-.12-1.188-.239-1.315-.12h-1.188l-1.308-.12-1.308-.118h-5.118l-1.188.118-1.188.12-1.196.12-1.188.119-1.07.24-1.188.239-1.074.238-1.071.239-.949.24-1.076.359-1.188.477-1.188.36-1.076.477-1.068.598-1.07.478-1.076.598-.948.597-.95.717-.956.718-.83.597-.956.837-.83.958-.836.836-.83.956-.718.956-.711.957-.596 1.075-.592 1.077-.477 1.075-.479 1.076-.471 1.076-.238 1.074-.359 1.078-.24 1.076-.239 1.074-.12 1.196-.118 1.076-.12 1.195v2.751l.12 1.313.118 1.196.12 1.195.239 1.076.24 1.196.359.956.35 1.076.359.957.479.829.597 1.075.591.957.598.836.71.836.717.838.831.837.836.836.829.719.956.597.949.717 1.07.598.956.597 1.189.597 1.068.598 1.195.478 1.189.478 1.188.478 1.308.479 1.076.359 1.068.358 1.071.359 1.186.24 1.076.357 1.19.359 1.186.24 1.196.359 1.188.238 1.308.359 1.19.239 1.306.358 1.196.239 1.188.359 1.07.238 1.076.36.948.239.83.24 1.427.596 1.196.479 1.068.478.949.478.958.717.829.717.599.836.478 1.196.118 1.435v.239l-.118 1.196-.36 1.074-.478.958-.71.837-.956.717-.83.478-.956.358-1.07.239-1.068.24-1.196.239-1.308.118h-2.616l-1.306-.118h-1.19l-1.194-.239-1.308-.12-1.188-.239-1.188-.238-1.196-.24-1.068-.359-1.19-.359-1.188-.358-1.074-.478-1.071-.358-1.068-.479-1.076-.477-1.069-.479-.948-.599-1.078-.477-.948-.599-1.069-.716-.956-.597-1.069-.717-.956-.718-1.07-.717-.949-.717-.717.956-.83.836-.717.957-.829.956-.718.836-.71.957-.836.956-.711.838-.837.956-.71.836-.837.957-.709.956-.718.836-.83.956-.718.957-.829.838-.717.956.949.836.836.717.951.717.956.718 1.898 1.434.956.598.95.597 1.076.599.949.596 1.069.598 1.075.479 1.069.589 1.07.479 1.074.479 1.19.478 1.069.358 1.188.358 1.075.479 1.189.359 1.188.358 1.069.24 1.195.358 1.188.238 1.188.24 1.189.239 1.196.239 1.188.12 1.188.238 1.308.12 1.195.12 1.189.12h1.307l1.189.119h4.999l1.189-.119 1.307-.12 1.196-.12 1.068-.12 1.189-.118 1.196-.24 1.068-.239 1.07-.239 1.188-.24 1.076-.357 1.188-.36 1.188-.357 1.188-.479 1.196-.479 1.068-.597 1.069-.479 1.076-.597.949-.717.95-.59.956-.717.83-.717.955-.838.711-.717.837-.837.709-.836.599-.956.711-.956.597-.958.597-.956.471-1.074.479-.958.477-1.076.36-1.196.232-1.076.357-1.194.24-1.196.119-1.314.12-1.196Zm-82.389 25.216v-19.719h-46.655v-14.821h41.416v-18.522h-41.416v-14.224h46.057v-19.725h-68.782v87.011Zm-86.954 0v-87.011h-24.392l-.597.957-.591 1.075-.717.949-.599 1.076-.589.956-.599 1.078-.709.948-.599 1.077-.596.956-.592.956-.716 1.068-.592.957-.597 1.075-.597.957-.71 1.068-.6.956-.589.956-.599 1.071-.597.955-.711 1.076-.596.957-.598 1.068-.591.957-.717 1.075-.59.949-.598.956-.598 1.076-.71.958-.598 1.076-.592.949-.596 1.076-.71.956-.598 1.068-.597.957-.591-.957-.597-1.068-.719-.956-.59-1.076-.598-.949-.59-1.076-.598-.958-.717-1.076-.591-.956-.598-.949-.59-1.075-.597-.957-.717-1.068-.592-.957-.598-1.076-.589-.955-.599-1.071-.717-.956-.591-.956-.597-1.068-.597-.957-.711-1.075-.597-.957-.591-1.068-.599-.956-.596-.956-.712-1.077-.597-.948-.591-1.078-.597-.956-.599-1.076-.709-.949-.597-1.075-.591-.957h-24.4v87.011h22.613v-51.212l.71.956.6 1.084.709.954.597 1.076.718.958.59 1.074.718.964.59 1.076.718.956.597 1.076.711.956.597 1.084.711.956.597 1.076.711.956.597 1.083.717.956.71 1.076.598.956.71 1.083.598.956.718 1.076.589.956.717 1.084.591.956.717 1.074.599.958.709 1.076.598.964.71 1.074.598.956.71 1.076.599.964.716 1.076h.472l.597-.956.711-1.084.597-.956.718-.956.59-1.076.716-.957.591-.963.599-1.074.717-.958.591-.956.717-.962.591-1.076.716-.956.598-.958.591-1.082.717-.956.59-.958.717-1.074.591-.958.717-.962.599-1.076.59-.956.718-.956.59-1.083.716-.957.599-.956.709-.956.599-1.083.589-.956.719-.957.597-1.075.71-.957.598-.956.711-1.084.596-.956v51.452ZM244.91 510.139h-20.109l.47-1.076.359-1.083.479-1.196.478-1.076.351-1.082.477-1.076.479-1.196.472-1.083.357-1.076.479-1.075.477-1.082.352-1.196.479-1.076.477-1.083.36-1.076.471-1.076.479-1.201.477-1.078.352-1.074.479-1.083.478-1.196.358-1.083.47-1.076.479 1.076.359 1.083.47 1.196.479 1.083.359 1.074.477 1.078.472 1.201.357 1.076.479 1.076.479 1.083.35 1.076.479 1.196.36 1.082.469 1.075.479 1.076.36 1.083.477 1.196.471 1.076.359 1.082.478 1.076.471 1.196.359 1.083Zm38.083 34.779-.478-1.078-.478-1.076-.47-1.076-.36-1.194-.478-1.07-.478-1.074-.472-1.076-.954-2.152-.471-1.196-.479-1.076-.36-1.075-.47-1.076-.956-2.152-.478-1.195-.47-1.076-.479-1.077-.479-1.075-.35-1.076-.479-1.076-.479-1.196-.478-1.074-.471-1.076-.479-1.076-.477-1.076-.472-1.076-.357-1.196-.479-1.075-.472-1.076-.477-1.076-.479-1.076-.477-1.076-.472-1.195-.478-1.076-.358-1.076-.471-1.076-.479-1.074-.478-1.076-.478-1.196-.472-1.076-.956-2.152-.352-1.075-.477-1.077-.479-1.068-.47-1.196-.479-1.075-.479-1.077-.477-1.076-.471-1.075-.36-1.076-.477-1.196-.471-1.075-1.434-3.228-.472-1.076-.478-1.196-.358-1.074-.471-1.076-.479-1.076-.477-1.076-.471-1.076-.478-1.195-.958-2.152-.35-1.076-.479-1.075-.479-1.077-.47-1.195-.479-1.076-.477-1.076-.479-1.076-.471-1.076-.358-1.074-.478-1.196-.472-1.076-.956-2.152h-22.016l-.47 1.076-.479 1.076-.477 1.076-.36 1.196-.471 1.074-.477 1.076-.479 1.076-.471 1.076-.478 1.076-.479 1.195-.479 1.077-.35 1.075-.958 2.152-.47 1.076-.479 1.195-.477 1.076-.472 1.076-.478 1.076-.358 1.076-.478 1.074-.472 1.196-.477 1.076-.479 1.076-.472 1.076-.477 1.076-.479 1.075-.358 1.196-.471 1.076-.479 1.075-.477 1.076-.472 1.077-.477 1.075-.478 1.196-.472 1.068-.358 1.077-.479 1.075-.477 1.076-.471 1.076-.479 1.076-.478 1.196-.471 1.076-.479 1.074-.358 1.076-.478 1.076-.472 1.076-.477 1.195-.477 1.076-.472 1.076-.956 2.152-.359 1.075-.471 1.196-.478 1.076-.479 1.076-.471 1.076-.478 1.076-.479 1.074-.471 1.196-.358 1.076-.478 1.076-.478 1.075-.472 1.077-.478 1.076-.478 1.195-.471 1.076-.479 1.076-.357 1.076-.479 1.075-.47 1.076-.479 1.196-.479 1.076-.47 1.076-.478 1.076-.478 1.074-.359 1.07-.472 1.194-.477 1.076-.479 1.076-.471 1.078h24.034l.478-1.078.359-1.076.477-1.076.472-1.194.359-1.07.479-1.074.47-1.076.359-1.076.479-1.076.477-1.076.352-1.076.477-1.195.479-1.076.359-1.076.47-1.076h34.152l.479 1.076.359 1.076.478 1.076.472 1.195.358 1.076.956 2.152.352 1.076.478 1.076.478 1.074.352 1.07.478 1.194.478 1.076.358 1.076.472 1.078ZM178.378 533.09v-38.843h-39.272v17.445h17.376v10.878l-.951.598-.836.478-1.068.478-.956.479-1.07.477-1.068.24-1.188.358-1.196.238-1.188.24-1.188.12-1.308.119-1.316.12h-2.735l-1.308-.12-1.188-.119-1.188-.238-1.196-.24-1.188-.359-1.189-.359-1.075-.477-1.068-.479-1.071-.478-.956-.598-.948-.597-.949-.717-.957-.718-.828-.717-.719-.836-.829-.837-.718-.836-.71-.958-.598-.956-.597-.956-.591-1.076-.477-1.077-.479-1.195-.352-.956-.358-1.076-.239-1.074-.24-1.078-.239-1.074-.12-1.196-.118-1.076-.112-1.195v-2.751l.112-1.194.118-1.195.24-1.316.239-1.075.239-1.189.358-1.195.472-1.076.359-1.076.477-1.076.599-.956.589-1.076.598-.956.592-.837.717-.956.829-.837.718-.836.829-.718.837-.717.83-.716.957-.599.948-.598.956-.598 1.069-.477 1.07-.479 1.068-.358 1.076-.358 1.069-.24 1.188-.238 1.076-.12 1.188-.119h2.496l1.315.119 1.308.12 1.189.118 1.188.239 1.188.24 1.076.239 1.068.358 1.069.359.956.359.95.478.956.478 1.068.598.95.596.956.599.95.597.949.718.956.598.949.836.956.718.711-.956.836-.838.712-.956.836-.956.709-.956.718-.837.83-.956.716-.956.831-.956.717-.839.71-.956.837-.956.711-.836.717-.957.829-.956.718-.956.829-.836.717-.957-.949-.718-.956-.836-.949-.717-.956-.717-.95-.599-.949-.716-1.076-.599-.949-.597-1.068-.597-.958-.598-1.068-.478-1.069-.598-1.076-.478-1.068-.479-1.069-.477-1.076-.359-.95-.359-1.068-.238-1.076-.359-1.07-.24-1.068-.239-1.075-.238-1.189-.239-1.188-.24-1.076-.119-1.308-.24-1.188-.118h-1.188l-1.308-.12-1.316-.12h-5.111l-1.196.12-1.189.12-1.187.118-1.189.12-1.195.239-1.189.12-1.188.239-1.07.358-1.194.239-1.068.359-1.068.24-1.078.477-1.188.36-.949.357-1.189.599-1.075.477-1.069.479-1.068.597-1.076.598-1.07.598-.948.598-.957.597-.949.717-.956.598-.95.717-.83.717-.956.838-.83.716-.836.838-.83.835-.718.837-.829.836-.717.839-.711.956-.717.956-.71.956-.598.956-.596.956-.592.957-.598.956-.597 1.076-.471 1.076-.956 2.152-.472 1.075-.478 1.196-.359 1.076-.359 1.195-.35 1.076-.24 1.196-.359 1.194-.239 1.076-.118 1.196-.239 1.188-.121 1.315-.112 1.196v1.195l-.119 1.314v3.946l.119 1.194.112 1.196.121 1.196.117 1.075.24 1.196.12 1.076.239 1.195.359 1.077.238 1.195.352 1.074.239 1.076.479 1.078.358.956.472 1.074.956 2.152.471 1.076.597.956.598 1.076.592.958.596.954.71.958.598.956.717.837.711.956.717.836.829.837.838.838.829.716.837.837.83.717.836.718.95.717.95.716.956.719.949.596.956.598 1.069.598.948.592 1.078.597 1.068.479 1.069.477 1.076.477 1.187.479 1.069.359 1.069.477 1.076.36 1.188.239 1.07.358 1.194.239 1.068.239 1.19.24 1.188.238 1.196.12 1.188.12 1.188.119 1.308.12 1.188.119h5.12l1.306-.119 1.196-.12 1.308-.119 1.188-.12 1.308-.12 1.19-.12 1.194-.238 1.188-.239 1.07-.239 1.196-.238 1.068-.36 1.188-.358 1.069-.36 1.075-.358 1.07-.359 1.068-.479 1.196-.477 1.068-.479 1.188-.477 1.07-.599 1.074-.47 1.07-.598 1.069-.598 1.076-.596.949-.599.956-.597.95-.718.949-.597.956-.717.831-.599.956-.717Zm330.33-263.41v64.992c0 11.519-5.324 16.863-16.371 16.863h-8.192c-11.46 0-16.784-5.344-16.784-16.863V152.856c0-11.517 5.324-16.861 16.784-16.861h7.37c11.053 0 16.377 5.344 16.377 16.861v56.359h42.977v-58.827c0-35.783-17.193-53.06-52.8-53.06h-21.292c-35.608 0-53.216 17.685-53.216 53.475v185.922c0 35.791 17.608 53.475 53.216 53.475h21.699c35.616 0 53.215-17.684 53.215-53.475V269.68Zm-152.1 118.052h43.805V99.796h-43.805Zm-63.559-160.01c0 11.518-5.316 16.869-16.369 16.869h-18.015V138.463h18.015c11.053 0 16.369 5.345 16.369 16.861Zm-9.414-127.926h-68.77v287.936h43.8V283.25h24.97c35.614 0 53.214-17.684 53.214-53.467v-76.512c0-35.789-17.6-53.475-53.214-53.475M139.274 261.037h51.578v-39.896h-51.578v-81.448h53.631V99.797H95.476v287.935h98.245v-39.897h-54.447Zm182.288 429.252 127.982-42.206H198.805Z" clip-path="url(#a)" clip-rule="evenodd"/><defs><clipPath id="a"><path fill="#fff" d="M0 0h647.167v750.977H0z"/></clipPath></defs><script/></svg>