<svg xmlns="http://www.w3.org/2000/svg" viewBox="0 0 264 47"><g transform="scale(.44 .44064)"><path d="M170.924 37.234c1.758 1.215 3.075 2.535 3.954 3.951q1.419 2.536 1.722 5.677v46.726q0 4.259-1.569 6.64-1.571 2.38-3.498 3.801-2.23 1.62-5.068 2.23h-31.524V35.202h28.482q4.869.206 7.501 2.032m2.232 9.424q-.305-2.228-1.317-4.054-.813-1.517-2.535-2.787c-1.149-.846-2.707-1.2-4.663-1.065l-26.456.102v64.161h26.861q2.129-.403 3.853-1.419 1.418-.81 2.736-2.433c.876-1.08 1.386-2.565 1.521-4.459zm-14.902 4.107q.912.861 1.419 1.875.507 1.115.609 2.532v29.397q.1 2.536-.456 3.901-.558 1.371-1.368 1.977-.912.81-2.029.912h-6.081l-.201-41.659h5.472q1.725.202 2.635 1.065m-1.215 4.407q-.204-.81-.607-1.317-.913-1.112-3.144-.609v34.87q.91.303 1.722.201a2.3 2.3 0 0 0 1.266-.606q.562-.506.763-1.927zM200.726 35.509v70.548h-19.664V35.509zm-3.447 4.056h-12.974v62.64h12.974zM226.573 58.62v-2.94q.1-2.026-.912-2.434-.406-.198-1.113 0-.813 0-1.167.357-.356.354-.456.861-.207.504 0 1.216v3.852l15.608 10.138q2.938 1.62 4.512 3.444 1.57 1.827 2.178 3.448c.474 1.218.711 2.499.711 3.852v15.505q-.203 3.35-1.725 5.425-1.517 2.08-3.444 3.192-2.233 1.318-4.969 1.927h-20.474q-3.852-.1-6.03-1.927c-1.452-1.212-2.518-2.499-3.193-3.849-.813-1.623-1.317-3.447-1.521-5.476V72.1l18.449 11.254v3.952c0 .609.081 1.065.252 1.368q.252.456.657.66.406.302 1.014.303 1.522-.103 1.725-1.218.1-.401-.102-1.113v-4.663l-13.48-8.107q-3.55-1.928-5.322-4.107c-1.183-1.452-2.047-2.754-2.584-3.903q-.913-2.028-.912-4.054V45.851q.199-3.852 1.824-5.98 1.623-2.128 3.649-3.144 2.33-1.113 5.169-1.317h18.143q4.663.203 7.198 1.725 2.534 1.517 3.852 3.444 1.418 2.232 1.824 4.969v25.844zm-1.623-8.818q1.622.201 2.485.762.864.557 1.368 1.266.508.81.711 1.824v2.938l13.177 7.905-.204-17.329q.1-2.637-1.167-4.309-1.265-1.674-2.787-2.583-1.825-1.116-4.156-1.422h-19.664q-2.333.207-3.648 1.269-1.318 1.062-2.028 2.178a9.8 9.8 0 0 0-1.116 3.042v16.421q-.1 2.025.813 3.546a13.6 13.6 0 0 0 2.025 2.635q1.218 1.319 2.94 2.331l16.625 10.744v6.589q-.002 1.927-.813 2.991-.81 1.066-1.824 1.569-1.116.611-2.635.813-1.927-.201-2.94-.861-1.013-.656-1.521-1.47-.608-.91-.81-2.13V85.28l-11.86-7.095-.201 16.621q.1 2.939 1.266 4.513 1.166 1.569 2.583 2.382 1.62.91 3.75 1.113h19.766q2.939-.1 4.411-1.317 1.467-1.216 2.178-2.634.812-1.723.813-3.853V79.907q.1-1.218-.609-2.436a10.6 10.6 0 0 0-1.62-2.128 26 26 0 0 0-2.433-2.13l-18.044-11.656v-7.501q.099-1.723.963-2.532c.573-.54 1.167-.948 1.773-1.218a9.4 9.4 0 0 1 2.433-.504M289.418 62.067l-7.297 8.41 7.297 8.92v26.66h-18.752V86.394l-2.634-2.434v22.299h-18.956V35.41h18.956v22.298l2.634-3.145V35.41h18.752zm-3.244-22.604h-11.758l-.102 16.928-9.529 9.73-.405-27.063h-11.86v63.045h11.758V75.95l9.226 8.718v17.534h12.466v-22.4l-8.008-9.325 8.212-9.526zM344.458 58.62v-2.94q.1-2.026-.912-2.434-.405-.198-1.116 0-.813 0-1.167.357a1.65 1.65 0 0 0-.456.861q-.202.504 0 1.216v3.852l15.61 10.138q2.938 1.62 4.513 3.444 1.57 1.827 2.178 3.448c.471 1.218.711 2.499.711 3.852v15.505q-.205 3.35-1.725 5.425-1.52 2.08-3.448 3.192-2.228 1.318-4.965 1.927h-20.474q-3.851-.1-6.034-1.927c-1.452-1.212-2.514-2.499-3.192-3.849q-1.215-2.434-1.521-5.476V72.1l18.449 11.254v3.952q0 .914.255 1.368c.165.303.387.525.657.66q.406.302 1.014.303 1.52-.103 1.722-1.218.102-.401-.102-1.113v-4.663l-13.48-8.107c-2.364-1.284-4.141-2.655-5.323-4.107-1.179-1.452-2.043-2.754-2.583-3.903q-.91-2.028-.912-4.054V45.851q.203-3.852 1.827-5.98 1.621-2.128 3.648-3.144 2.332-1.113 5.17-1.317h18.143q4.66.203 7.197 1.725 2.535 1.517 3.853 3.444 1.418 2.232 1.824 4.969v25.844zm-1.623-8.818c1.08.135 1.911.387 2.484.762.573.372 1.032.792 1.368 1.266.339.54.573 1.149.711 1.824v2.938l13.175 7.905-.201-17.329q.1-2.637-1.164-4.309-1.27-1.674-2.791-2.583-1.823-1.116-4.155-1.422h-19.664q-2.332.207-3.651 1.269c-.877.708-1.555 1.434-2.026 2.178a9.6 9.6 0 0 0-1.113 3.042v16.421q-.103 2.025.81 3.546a13.4 13.4 0 0 0 2.026 2.635q1.218 1.319 2.94 2.331l16.624 10.744v6.589q-.002 1.927-.813 2.991-.809 1.066-1.824 1.569-1.115.611-2.634.813-1.927-.201-2.94-.861-1.012-.656-1.522-1.47c-.405-.606-.678-1.317-.81-2.13V85.28l-11.86-7.095-.201 16.621q.1 2.939 1.266 4.513 1.165 1.569 2.584 2.382 1.62.91 3.75 1.113h19.766q2.938-.1 4.41-1.317 1.467-1.216 2.179-2.634.814-1.723.813-3.853V79.907q.098-1.218-.609-2.436a10.6 10.6 0 0 0-1.621-2.128 26 26 0 0 0-2.433-2.13l-18.044-11.656v-7.501q.099-1.723.964-2.532.86-.811 1.773-1.218a9.3 9.3 0 0 1 2.433-.504M409.531 35.611V95.82q-.103 3.547-1.47 5.626-1.367 2.077-3.09 3.192-1.929 1.219-4.461 1.723h-29.901V89.13h19.055v-3.346H376.69q-3.75-.199-5.676-1.824-1.926-1.621-2.737-3.648-1.015-2.33-1.014-5.17V35.611h19.463v32.334h3.346V35.611zm-3.345 3.75h-12.262v27.675q-.103 1.315-.711 2.328-.507.913-1.572 1.623-1.066.711-3.091.81-1.521.103-2.637-.303-1.011-.406-1.824-1.419c-.54-.678-.846-1.758-.909-3.243V39.364h-11.86v35.982q.1 2.028.912 3.649.707 1.417 2.178 2.583 1.468 1.166 4.308 1.167h15.104v5.269q-.205 1.318-.915 2.331c-.405.543-1.014 1.047-1.824 1.521q-1.22.711-3.244.711h-13.582v10.033h25.848q1.724-.202 3.042-1.011 1.112-.71 2.076-2.13.963-1.417.963-3.853zM435.277 58.62v-2.94q.102-2.026-.912-2.434-.406-.198-1.113 0-.813 0-1.167.357-.356.354-.456.861-.203.504 0 1.216v3.852l15.607 10.138q2.938 1.62 4.513 3.444 1.57 1.827 2.181 3.448c.471 1.218.708 2.499.708 3.852v15.505q-.201 3.35-1.725 5.425-1.517 2.08-3.445 3.192-2.228 1.318-4.965 1.927h-20.477q-3.852-.1-6.031-1.927c-1.452-1.212-2.517-2.499-3.192-3.849q-1.215-2.434-1.521-5.476V72.1l18.449 11.254v3.952c0 .609.081 1.065.252 1.368q.252.456.657.66c.273.201.609.303 1.017.303q1.516-.103 1.722-1.218.1-.401-.102-1.113v-4.663l-13.48-8.107q-3.55-1.928-5.323-4.107c-1.182-1.452-2.046-2.754-2.583-3.903q-.913-2.028-.912-4.054V45.851c.132-2.569.744-4.561 1.824-5.98q1.621-2.128 3.648-3.144 2.331-1.113 5.17-1.317h18.143q4.663.203 7.197 1.725 2.535 1.517 3.853 3.444 1.418 2.232 1.824 4.969v25.844zm-1.62-8.818q1.62.201 2.484.762.86.557 1.368 1.266.505.81.708 1.824v2.938l13.178 7.905-.204-17.329q.102-2.637-1.164-4.309-1.269-1.674-2.788-2.583-1.826-1.116-4.155-1.422h-19.667q-2.33.207-3.648 1.269-1.317 1.062-2.026 2.178a9.6 9.6 0 0 0-1.116 3.042v16.421q-.104 2.025.813 3.546a13.5 13.5 0 0 0 2.025 2.635q1.217 1.319 2.941 2.331l16.621 10.744v6.589q0 1.927-.81 2.991c-.543.711-1.149 1.233-1.827 1.569q-1.112.611-2.634.813-1.925-.201-2.937-.861c-.678-.438-1.182-.927-1.522-1.47q-.611-.91-.813-2.13V85.28l-11.86-7.095-.201 16.621q.102 2.939 1.266 4.513 1.164 1.569 2.587 2.382 1.618.91 3.75 1.113h19.766q2.94-.1 4.407-1.317 1.47-1.216 2.182-2.634.81-1.723.81-3.853V79.907q.102-1.218-.606-2.436a10.6 10.6 0 0 0-1.624-2.128 25 25 0 0 0-2.433-2.13l-18.041-11.656v-7.501q.099-1.723.964-2.532.86-.811 1.773-1.218a9.3 9.3 0 0 1 2.433-.504M495.184 35.815V54.26h-8.719v51.999h-20.474V54.26h-8.314V35.41zm-3.954 3.648h-29.901v10.744h8.514v52.403h12.365v-52.1h9.022zM518.295 54.059v8.209h12.974v18.449H517.89v7.804h13.379v18.044l-32.944-.204V35.41h33.349v18.649zm-3.954 11.96v-15.71h13.378V39.565h-25.643v64.059h25.643V92.373h-13.582V76.967h13.783V66.019zM596.24 37.993q2.026 1.673 2.838 3.498 1.016 2.128.912 4.663v60.51h-19.259V55.782c-.069-.742-.336-1.216-.81-1.42a3.5 3.5 0 0 0-.813-.102q-.608 0-.963.306-.354.303-.555.606-.306.407-.306.814v50.477h-19.055V56.085q0-1.114-.81-1.723a2.3 2.3 0 0 0-.813-.405q-.707 0-1.116.303-.404.306-.606.711-.302.404-.303 1.012v50.174h-18.449V35.509h23.618q2.23-.203 3.901.354 1.674.558 2.889 1.368 1.318.914 2.433 2.13.608-1.116 1.521-1.773a10 10 0 0 1 1.825-1.065 20 20 0 0 1 2.13-.711h15.913c2.566.339 4.528 1.068 5.878 2.181m.204 7.654q-.104-1.725-.81-3.043c-.408-.744-1.101-1.434-2.079-2.079q-1.47-.96-4.108-.96h-13.885a7.8 7.8 0 0 0-3.039.81q-1.22.608-2.485 1.824-1.27 1.219-1.977 3.243c-.543-1.281-1.182-2.397-1.926-3.345q-1.116-1.216-2.736-2.229-1.625-1.012-4.258-.909l-18.953.201v63.45h11.252V55.58q-.103-1.42.504-2.535.509-1.016 1.674-1.824 1.166-.814 3.498-.813 1.215 0 2.331.609.811.504 1.569 1.773.763 1.269.763 3.7v46.12h11.962V55.577q0-1.215.606-2.331.505-.914 1.623-1.671 1.112-.761 3.345-.762a5.4 5.4 0 0 1 2.329.303c.609.273 1.167.744 1.671 1.422q.761 1.012.762 3.241v46.828h12.367zM135.151 0h12.413v4.326h-8.065v5.248h8.065v4.464h-8.065v9.328h-4.348zM161.68 23.366h-4.23v-3.639h-8.191l-2.427 3.639h-4.978L158.236 0h3.444zm-4.23-8.052v-6.82l-5.002 6.82zM163.336 0h4.906l6.915 15.707L182.121 0h4.954v23.366h-4.366V11.584l-5.394 11.782h-4.414l-5.199-11.782v11.782h-4.366zM268.467 0h4.905l6.916 15.707L287.251 0h4.957v23.366h-4.366V11.584l-5.397 11.782h-4.414l-5.199-11.782v11.782h-4.365zM188.452 0h4.518v23.366h-4.518zM194.212 0h4.519v19.106h5.886v4.26h-10.405zM199.598 0h5.019l4.747 9.574L213.972 0h4.975l-7.483 14.86v8.506h-4.381V14.86zM243.504 6.445c-1.986-3.781-5.946-6.361-10.513-6.361-6.553 0-11.866 5.314-11.866 11.866 0 6.553 5.31 11.863 11.866 11.863 4.597 0 8.584-2.613 10.555-6.438l-5.376.045a7.439 7.439 0 0 1-12.482-5.47 7.44 7.44 0 0 1 7.438-7.441c1.92 0 3.666.727 4.987 1.921z" style="fill-opacity:1;fill:#fff"/><path d="M255.244 23.876c-6.588 0-11.926-5.34-11.926-11.926 0-6.585 5.341-11.926 11.926-11.926 6.589 0 11.926 5.341 11.926 11.926.003 6.589-5.337 11.926-11.926 11.926m7.594-11.926a7.549 7.549 0 0 0-15.095 0 7.548 7.548 0 0 0 15.095 0M301.512.003a7.688 7.688 0 0 1 0 15.326l-3.417-.015v8.052h-4.381V0h4.381zm-3.414 4.494v6.337l3.414-.003a3.22 3.22 0 0 0 0-6.331zM356.708 23.669h-4.338V.201l6.024-.009 3.415.003a7.689 7.689 0 0 1 2.073 14.863l5.056 8.608h-4.747l-7.084-12.103h-.399zm5.104-12.646a3.22 3.22 0 0 0 0-6.331h-5.104v6.337zM314.284 13.501l.003 3.415a3.22 3.22 0 0 0 3.165 2.625 3.23 3.23 0 0 0 3.169-2.625l.003-3.415.009-13.3h4.488v13.3l-.006 3.415a7.687 7.687 0 0 1-7.663 7.062 7.687 7.687 0 0 1-7.662-7.062l.018-3.415-.009-13.3h4.503zM329.601 23.669h4.425V4.623h3.969V.201h-12.229v4.422h3.835zM351.23 23.669h-12.16V.201h12.16v4.296h-7.801v5.572h7.801v4.383h-7.801v4.882h7.801zM3.159 94.524a12.15 12.15 0 0 1 6.82-10.915v-6.513C4.026 73.768.003 67.402 0 60.099c.003-7.303 4.026-13.672 9.979-16.997V13.696C9.982 6.256 16.01.225 23.45.225h72.289c7.441 0 13.472 6.031 13.472 13.471v29.406c5.952 3.325 9.976 9.694 9.979 16.997-.003 7.303-4.027 13.669-9.979 16.997v6.513a12.14 12.14 0 0 1 6.819 10.915c-.003 6.706-5.433 12.14-12.142 12.14H69.133v-2.662a9.493 9.493 0 0 0-9.478-9.478v-5.325c7.267.003 13.306 5.238 14.56 12.145h29.676a6.83 6.83 0 0 0 6.817-6.82c.006-3.096-2.067-5.709-4.888-6.543l-1.101-.324-.828-1.635V74.938l.717-1.533.903-.402c4.927-2.214 8.362-7.155 8.359-12.907.003-5.725-3.399-10.645-8.287-12.874l-.192-.087-1.5-.993V13.693a8.16 8.16 0 0 0-8.152-8.148H23.45a8.16 8.16 0 0 0-8.148 8.148v32.449l-1.195.789-.309.204-.189.087c-4.89 2.229-8.289 7.152-8.286 12.874-.003 5.752 3.432 10.693 8.358 12.907l.9.402.721 1.533v11.084l-.832 1.635-1.101.324c-2.82.834-4.893 3.447-4.887 6.543a6.83 6.83 0 0 0 6.817 6.82h29.675c1.258-6.907 7.297-12.142 14.564-12.145h.111v5.325h-.108a9.495 9.495 0 0 0-9.481 9.478v2.662H15.302c-6.706-.003-12.14-5.434-12.143-12.14" style="fill-opacity:1;fill:#fff"/><path d="M17.573 40.525c.003-11.053 8.962-20.009 20.015-20.012 11.053.003 20.012 8.959 20.012 20.012s-8.959 20.012-20.012 20.012-20.012-8.959-20.015-20.012m3.327 0c.018 9.217 7.471 16.67 16.688 16.688 9.214-.018 16.669-7.471 16.687-16.688-.018-9.214-7.473-16.67-16.687-16.685-9.217.015-16.67 7.471-16.688 16.685" style="fill-opacity:1;fill:#fff"/><circle cx="22.245" cy="54.787" r="1.552" style="fill-opacity:1;fill:#fff" transform="translate(-16.237 -123.794)scale(3.0003)"/><path d="M61.593 40.525c0-11.053 8.959-20.009 20.012-20.012 11.053.003 20.012 8.959 20.012 20.012s-8.959 20.012-20.012 20.012-20.012-8.959-20.012-20.012m20.012 16.688c9.214-.015 16.67-7.471 16.685-16.685-.015-9.214-7.471-16.67-16.685-16.688-9.214.018-16.673 7.474-16.688 16.688.018 9.214 7.474 16.667 16.688 16.685" style="fill-opacity:1;fill:#fff"/><circle cx="28.305" cy="54.787" r="1.552" style="fill-opacity:1;fill:#fff" transform="translate(-16.237 -123.794)scale(3.0003)"/></g></svg>