<svg xmlns="http://www.w3.org/2000/svg" viewBox="0 0 3840 1260"><path d="M1400.6 933.8c10.6-115 107.3-205 225.1-205s214.4 90 225.1 205h79.3c-10.8-158.7-142.9-284.1-304.3-284.1s-293.5 125.4-304.3 284.1zM1625.6 1180.9c-119.6 0-217.5-93-225.5-210.6h-79.2c8.1 161.3 141.4 289.6 304.7 289.6s296.7-128.3 304.7-289.6h-79.2c-7.9 117.7-105.8 210.6-225.5 210.6M1039.7 970.3h79.1v269.8h-79.1zM1347.9 669.9H813.8V749h225.9v184.8h79.1V749h229.1zM2728.6 970.3h79.1v269.8h-79.1zM3162.2 1161.1h-19.4l-84.9-190.7h-86.5l109.2 245.3c6.6 14.9 21.4 24.4 37.6 24.4h122.9V970.3H3162v190.8zM3162.2 669.9h79.1v263.9h-79.1zM2935 694.4c-6.6-14.9-21.4-24.4-37.6-24.4h-168.8v263.9h79.1V749h65.2l82.3 184.8h86.5zM2532.5 933.8h81l58.5-263.9h-81zM2140 1164.8h-14.5l-43.1-194.5h-81l59.8 269.8h143l59.8-269.8h-80.9zM2481.3 1164.8h-14.4l-43.1-194.5h-81l59.8 269.8h143l59.8-269.8h-81zM2357.2 669.9h-107.5l-58.5 263.9h80.9l31.3-141 31.3 141h81zM2015.8 669.9h-81l58.5 263.9h81zM3418.3 922h223.1c21.4 0 39.8 4.3 55.5 11.8h114.4c-31.1-52.4-87.3-90.5-168.8-90.8h-224.2c-62.7 0-62.7-94 0-94h388.6v-79.1h-388.6c-168 0-168 252.1 0 252.1M3828.2 970.3h-88.6c47.9 69.8 15.2 190.7-98.2 190.7h-347.3v79.1h347.3c164.7 0 227-153.6 186.8-269.8M1372.109 340.917h62.511c11.906 0 22.963 8.504 23.388 19.986h.425v-47.202h-86.324v-82.498h83.348c11.906 0 22.963 8.505 23.388 19.987h.425v-47.202h-174.775v.425c11.907.85 20.411 13.183 20.411 24.664v216.025c0 11.481-8.93 24.239-20.411 24.664v.425h88.025v-.425c-11.906-.851-20.837-13.183-20.837-24.664zM1552.718 399.484c0 27.641 22.963 51.88 51.454 51.88 28.492 0 51.88-24.239 51.88-51.88V230.237c0-11.482-8.93-24.239-20.837-24.664v-.426h88.451c-11.907.851-20.837 13.183-20.837 24.664v164.57c0 53.156-43.8 83.774-98.231 83.774-54.432 0-99.082-31.043-99.082-83.774v-164.57c0-11.481-8.931-24.238-20.412-24.664v-.425h88.026v.425c-11.907.851-20.412 13.183-20.412 24.664zM2274.006 247.481c-14.883-23.813-48.478-20.837-48.478-20.837-55.282 0-52.73 42.1-52.73 42.1s-3.827 21.262 23.814 35.295l55.282 29.342c53.155 28.491 46.776 68.889 46.776 68.889s2.552 75.694-108.862 75.694c0 0-32.319.85-50.604-5.953l-15.734-48.904h.425c17.01 24.239 66.338 28.067 66.338 28.067 62.511-2.552 62.936-45.076 62.936-45.076s2.977-18.286-21.687-31.469l-54.857-29.341c-57.408-30.618-50.604-71.867-50.604-71.867s-1.701-74.418 96.956-74.418c0 0 44.225 1.276 51.454 8.08v40.398zM1843.578 111.695c9.78 9.356 23.388 15.309 38.272 15.309 30.192 0 54.431-23.813 54.431-52.73s-24.239-52.73-54.431-52.73c0 0-41.674-3.828-60.81 48.052V30.474c14.033-17.861 35.72-30.618 60.384-30.618 42.525 0 76.545 33.169 76.545 74.418s-34.445 74.418-76.545 74.418c-21.262 0-40.398-8.505-54.006-21.688l-26.365-28.916c-7.229-6.804-17.01-11.482-28.066-11.482-22.113 0-39.548 17.435-39.548 38.697s17.861 38.698 39.548 38.698c0 0 29.342 3.827 48.053-31.469v31.469c-11.482 13.182-28.492 22.112-48.053 22.112-34.445 0-62.086-27.215-62.086-60.384 0-33.17 27.641-60.385 62.086-60.385 17.01 0 32.744 6.804 43.8 17.86zM1857.793 229.402c0-11.481-8.93-23.388-20.837-24.239v-.425h88.025v.425c-11.481.851-20.411 12.758-20.411 24.239v216.45c0 11.482 8.93 24.239 20.411 24.664v.426h-88.025v-.426c11.907-.85 20.837-13.182 20.837-24.664zM1802.674 229.63c0-11.481 8.93-24.239 20.412-24.664v-.425h-88.026v.425c11.907.851 20.412 13.183 20.412 24.664v270.881s-.851 47.628-39.548 75.269v.425c7.654-1.276 86.325-15.734 86.325-91.853z" class="st0" style="fill-opacity:1;fill:#fff"/><path d="M1924.917 252.424h.425c11.907-20.837 30.192-20.837 30.192-20.837h47.628v214.324c0 11.481-8.93 24.239-20.837 24.664V471h88.451v-.425c-11.907-.851-20.837-13.183-20.837-24.664V231.587h39.973c12.332 0 21.687 9.356 22.113 21.263h.425l14.458-48.053H1938.95zM2364.698 399.484c0 27.641 22.963 51.88 51.88 51.88 28.491 0 51.88-24.239 51.88-51.88V230.237c0-11.482-8.93-24.239-20.412-24.664v-.426h88.026c-11.907.851-20.412 13.183-20.412 24.664v164.57c0 53.156-43.8 83.774-98.657 83.774-54.431 0-98.656-31.043-98.656-83.774v-164.57c0-11.481-8.931-24.238-20.837-24.664v-.425h88.025v.425c-11.907.851-20.837 13.183-20.837 24.664zM31.3 1016.7h85.9v184.9H31.3zM621.7 1006.4h85.9v203.3h-85.9zM564.1 1165.3l-59.8 74.8-118-251.8 82.8-25.7z" class="st0" style="fill-opacity:1;fill:#fff"/><path d="M74.3 1080.7h140.5v54H74.3zM375.6 997.3h54v204.3h-54zM0 962.6h319.9v54H0z" class="st0" style="fill-opacity:1;fill:#fff"/><path d="M344.3 1016.7h101.1l23.7-54.1H344.3zM621.7 962.6h117.2v54H621.7zM0 1186.1h148.6v54H0zM590.3 1186.1h148.6v54H590.3zM344.3 1186.1H461v54H344.3zM250.6 983.7h69.3v87.3h-69.3z" class="st0" style="fill-opacity:1;fill:#fff"/><path d="m614.9 962.6-116.8 235.6 39.5 41.9 137.6-277.5z" class="st0" style="fill-opacity:1;fill:#fff"/><path d="M504.3 1192.8h33.3v47.3h-33.3z" class="st0" style="fill-opacity:1;fill:#fff"/></svg>