<svg xmlns="http://www.w3.org/2000/svg" width="980.448" height="148.011"><g class="currentLayer" transform="matrix(2.506 0 0 2.5255 -10.995 -15.79)"><title>Layer 1</title><path fill="#fff" fill-rule="evenodd" d="M215.781 8.578c-15.377 3.495-27.426 16.743-23.189 25.495 3.103 6.409 13.926 6.186 19.885-.409 6.195-6.857 5.806-18.257-.623-18.257-2.291 0-2.289-1.08.003-2.037 5.329-2.227 23.025-2.742 25.038-.729.705.705.36 1.087-2.369 2.627-5.862 3.308-15.619 13.86-17.982 19.446-1.175 2.778-2.226 3.268-8.84 4.121-1.654.214-3.852 1.778-3.852 2.742 0 1.279 2.467 1.467 6.082.464 3.077-.855 3.605-.323 2.272 2.288-5.288 10.355-14.278 16.637-21.374 14.934-5.702-1.367-6.024-4.126-.589-5.044 6.315-1.067 4.666-9.775-1.851-9.775-11.44 0-12.758 13.455-1.717 17.528 12.777 4.713 31.577-3.848 38.852-17.693 2.318-4.41 2.54-4.558 8.97-5.977 8.603-1.897 11.931-4.171 10.859-7.419-1.253-3.797.942-7.259 5.459-8.61 1.914-.572 1.338-4.158-1.101-6.858-2.219-2.456-2.137-2.72.953-3.09 1.016-.121 1.541-.595 1.671-1.51.216-1.521-3.04-1.878-6.937-.76-1.574.451-2.768.31-5.626-.668-4.789-1.637-18.339-2.095-23.994-.809M43.919 10.397C24.573 14.594 10.59 31.833 21.116 38.508c8.795 5.578 20.681-.474 21.948-11.173.746-6.294-.669-9.034-4.916-9.522-3.635-.417-3.597-1.212.124-2.614 4.197-1.58 11.239-1.052 18.617 1.397 9.943 3.301 16.27 2.852 19.69-1.398 2.611-3.243 1.057-4.568-3.83-3.265-2.139.57-3.83.434-11.028-.889-9.474-1.741-12.288-1.844-17.802-.647m322.73.835c-8.52 2.723-18.446 14.335-27.458 32.121-1.651 3.259-2.206 3.891-3.188 3.634-.875-.229-1.872.432-3.773 2.503-2.816 3.067-4.063 2.879-1.977-.299a225 225 0 0 0 1.895-2.933c.326-.522 1.158-1.744 1.849-2.715 1.445-2.031 3.442-5.902 4.035-7.821.405-1.311.382-1.315-6.887-1.276-8.782.047-9.581.353-15.612 5.986-4.765 4.45-4.769 4.449-5.18-.586-.325-3.979-1.605-5.476-4.686-5.476-3.425 0-3.33-.873 1.029-9.45 4.167-8.2 4.198-8.333 1.969-8.463-5.347-.311-7.83 1.354-10.774 7.226-.741 1.478-2.433 4.554-3.76 6.836-8.411 14.46-12.061 20.947-12.622 22.434-.547 1.448-.774 1.583-1.564.927-.619-.513-1.056-.563-1.323-.15-.478.738-4.474 1.554-5.006 1.022-.205-.206.704-2.516 2.02-5.135 3.828-7.612 3.798-12.913-.076-13.764-1.967-.432-7.353 1.065-9.004 2.503-1.33 1.159-2.131.561-2.6-1.938-1.026-5.469-8.99-1.95-10.566 4.669-.263 1.1-.188 1.548.216 1.298.854-.528.776 1.07-.095 1.941-.391.391-.51.711-.265.711.246 0-.792 2.328-2.305 5.173-2.813 5.29-4.732 10.122-4.222 10.632.489.489 9.874-.522 9.874-1.063 0-.282 1.2-3.063 2.666-6.181 1.467-3.118 2.667-5.875 2.667-6.126 0-1.062 7.531-8.538 8.19-8.13 1.138.703.86 1.636-2.56 8.605-4.987 10.16-4.374 12.497 3.275 12.497 3.319 0 4.319-.265 6.715-1.785l2.816-1.785 1.915 2.031c4.157 4.407 16.135 2.749 21.432-2.966 1.649-1.78 2.073-1.619 2.993 1.141 1.275 3.824 6.961 4.894 9.882 1.859l1.302-1.353 1.325 1.429c2.698 2.911 7.391 1.43 12.789-4.038 1.874-1.899 3.418-3.378 3.432-3.288.013.089.08 1.802.148 3.805.275 8.099 5.358 8.561 12.8 1.162 5.078-5.047 5.398-5.08 5.398-.557 0 7.676 5.992 7.379 13.521-.67 5.59-5.975 4.033-9.387-1.644-3.603-2.837 2.891-3.581 2.945-3.581.264 0-3.301 1.988-5.981 7.196-9.702 15.792-11.284 28.849-28.922 23.522-31.773-2.824-1.512-12.713 1.366-15.265 4.441-1.078 1.299-1.823.628-1.823-1.639 0-3.587-2.659-4.229-9.055-2.185m5.332 3.377c.649 1.947-20.305 25.697-21.836 24.751-1.671-1.033 12.634-20.103 17.988-23.981 2.421-1.754 3.451-1.96 3.848-.77m18.036.564c-.585 3.198-20.57 25.129-22.06 24.208-.906-.56 3.188-7.437 8.275-13.9 6.615-8.402 14.517-14.312 13.785-10.308m-147.002.924c2.474 4.623-2.173 13.55-9.503 18.254-5.103 3.275-5.266 2.206-1.016-6.692 4.469-9.359 9.021-14.362 10.519-11.562m-142.923 2.73c-.845 1.216-3.217 5.143-5.271 8.729-12.705 22.181-12.238 21.178-12.398 26.663-.206 7.046 2.025 9.011 7.359 6.48 2.839-1.347 3.91-2.788 4.234-5.69.242-2.167.165-2.424-.495-1.66-.429.498-1.314.898-1.965.889-2.062-.027-1.091-2.437 5.618-13.942l6.394-10.963 3.327-.177c3.914-.209 5.468-3.675 1.648-3.675-2.518 0-2.551-.389-.347-4.15 2.752-4.694 2.729-4.74-2.27-4.726-4.285.013-4.3.019-5.834 2.222m-44.795 1.884c-2.289 1.396-7.646 8.393-10.695 13.972-2.382 4.358-2.701 4.597-9.467 7.089-4.967 1.829-8.082 3.771-8.36 5.212-.326 1.693 1.834 1.211 7.394-1.65 6.264-3.223 7.056-2.865 4.164 1.878-5.172 8.484-13.09 12.87-20.646 11.437-6.839-1.297-7.674-3.905-1.68-5.251 6.236-1.401 5.493-7.337-1.021-8.158-9.373-1.182-12.411 9.659-4.037 14.402 12.596 7.135 34.7-.826 41.269-14.864 1.482-3.169 2.077-3.889 3.21-3.889 2.201 0 2.128.546-.952 7.123-3.172 6.777-3.578 9.405-1.735 11.247 1.593 1.593 6.064 1.597 9.029.008 2.192-1.175 2.198-1.175 2.827 0 2.141 4.002 11.971-.599 15.843-7.415 3.195-5.625.871-7.108-3.001-1.915-3.698 4.961-2.441 1.09 1.986-6.115 5.019-8.167 5.631-9.833 3.39-9.233-.734.197-2.579.361-4.101.366l-2.767.008-3.728 6.258c-4.009 6.731-8.74 12.994-9.7 12.844-1.955-.305.531-7.191 5.272-14.602 2.817-4.404 2.778-4.5-1.795-4.5-3.725 0-4.032.108-5.889 2.077-1.086 1.152-2.123 1.812-2.327 1.482-.203-.328-.87-.596-1.484-.596-2.437 0-1.612-5.112 2.09-12.95 2.768-5.861 1.776-7.231-3.089-4.265m144.642 2.114c-1.475 2.251-1.874 8.582-.541 8.582 2.49 0 7.865-3.7 8.54-5.879 1.334-4.299 4.809-6.593 3.831-2.529-1.771 7.365-9.515 13.705-13.785 11.288-4.247-2.403-4.33-5.552-.286-10.848 2.103-2.754 3.98-3.269 2.241-.614M37.71 26.405c-2.669 7.832-10.887 12.954-14.688 9.153-2.595-2.596-2.035-6.712 1.43-10.503 1.749-1.914 2.155-1.199 1.266 2.229-.69 2.659-.58 6.494.186 6.494 1.731 0 7.731-4.412 8.358-6.145 1.945-5.381 5.265-6.563 3.448-1.228m210.382-1.025c-1.354 1.496-1.292 5.562.103 6.824 3.045 2.757 7.805.582 7.805-3.566 0-4.009-5.265-6.178-7.908-3.258m-138.617 9.559c-2.769.537-2.23-.125-5.778 7.09-1.654 3.365-3.7 7.025-4.546 8.134-.846 1.11-1.37 2.186-1.165 2.391s.154.665-.114 1.021c-3.125 4.143 4.66 8.731 10.07 5.934 1.716-.887 1.88-.868 3.206.378 2.931 2.753 8.713.289 13.711-5.842 3.584-4.397 3.486-10.028-.106-6.059-2.578 2.85-1.711.06 1.797-5.779 4.906-8.165 4.911-8.097-.476-7.567-2.363.233-4.312.467-4.331.521-.435 1.232-9.08 14.44-10.637 16.251-5.184 6.03-3.797-1.339 2.098-11.147 3.842-6.393 3.595-6.746-3.729-5.326m22.415 3.181c-3.984 3.906-5.032 6.324-2.74 6.324.633 0 1.318-.271 1.523-.602s.615-.452.913-.268-1.321 4.052-3.596 8.595-4.138 8.397-4.138 8.564 1.85.304 4.112.304h4.113l3.702-7.162c5.238-10.136 10.757-15.181 11.287-10.319.268 2.464 2.824 2.825 4.279.604 1.987-3.033 1.996-.81.009 2.488-6.486 10.772-2.605 17.283 8.411 14.11 5.966-1.719 15.166-12.562 11.477-13.527-1.174-.307-1.167-.365.297-2.522 7.012-10.333-5.389-14.087-15.173-4.592-1.509 1.465-2.906 2.401-3.104 2.081s.037-.912.522-1.315c3.995-3.315-1.709-6.398-7.192-3.888-3.539 1.62-3.959 1.544-5.193-.945-1.515-3.055-5.072-2.281-9.509 2.07m226.915 1.603c-1.293 2.552-2.67 5.841-4.064 9.709-.312.866-.574.972-1.101.445-1.268-1.268-2.849-.717-5.76 2.006-3.087 2.887-3.962 2.753-3.344-.514.622-3.292 2.526-5.582 8.697-10.46 6.667-5.271 7.76-5.504 5.572-1.186m-114.479-1.975c-1.322.256-3.001 2.891-7.521 11.803-2.256 4.449-2.899 9.303-1.427 10.775.983.983 6.202.943 6.202-.048 0-1.011 5.092-12.1 7.974-17.366 1.264-2.309 2.298-4.509 2.298-4.888 0-.677-4.592-.846-7.526-.276m57.741 2.921c-.322 2.863-3.357 7.801-7.163 11.657-3.778 3.826-3.902 1.984-.336-4.959 4.887-9.514 8.145-12.423 7.499-6.698m-133.413-1.315c.519 1.352-1.326 4.24-4.226 6.617-4.953 4.058-4.154.059 1.103-5.527 1.995-2.12 2.641-2.345 3.123-1.09m158.819.011c.556 1.448-9.402 15.496-10.502 14.816-1.759-1.087 1.053-6.989 5.744-12.056 3.471-3.75 4.213-4.18 4.758-2.76m-161.612 12.09c-3.096 3.576-7.897 5.811-8.592 3.999-.59-1.538.906-3.195 3.762-4.167 1.552-.528 3.484-1.326 4.295-1.775 2.339-1.294 2.58-.42.535 1.943" class="selected"/></g></svg>