<svg xmlns="http://www.w3.org/2000/svg" viewBox="0 0 264 29"><path d="M22.509 8.676c-1.808-2.593-4.792-4.283-8.167-4.283-5.524 0-9.997 4.524-9.997 10.105 0 5.58 4.473 10.105 9.997 10.105 4.007 0 7.465-2.388 9.061-5.831h-8.824v-4.595h14.092q.008.161.008.321c0 1.486-.219 2.923-.632 4.274C26.244 24.692 20.791 29 14.342 29 6.422 29 0 22.505 0 14.498S6.422 0 14.342 0c5.87 0 10.913 3.569 13.133 8.676H22.51ZM43.893.287v.001L25.772 27.875h5.61l3.871-5.892h8.64v5.903h4.674V.287zm-5.538 16.97 5.538-8.428v8.428zM85.166.287v.001L72.669 19.305V.287h-4.674v.001L49.873 27.875h5.616L67.995 8.829v19.057h4.674v-.033L85.166 8.829v19.057h4.672V.286h-4.672ZM107.816 5.013V.287H93.619v27.606l4.673-.018h9.524v-4.726h-9.524v-6.433h9.524v-4.724h-9.524V5.013zM137.574 18.806l3.748-8.533h-4.585l-2.414 5.5-3.594-3.355c1.646-1.337 3.091-3.028 3.091-5.848a5.72 5.72 0 0 0-1.659-4.027c-1.221-1.231-2.938-1.937-4.719-1.937-3.085 0-6.279 2.231-6.279 5.964 0 2.6 1.417 4.281 2.824 5.525-2.605 1.865-4.873 3.851-4.873 7.946 0 2.324.832 4.438 2.341 5.964 1.522 1.54 3.647 2.389 5.987 2.389 4.431 0 6.629-2.168 8.313-5.52l5.435 5.079 2.847-3.11zm-11.78-13.315c.396-.401 1.03-.647 1.648-.647.659 0 1.329.266 1.754.694.294.296.437.632.437 1.032 0 1.19-.565 1.838-2.106 2.99-1.349-1.091-2.173-1.851-2.173-2.99 0-.424.144-.779.44-1.079m6.648 14.562c-1.446 3.257-2.473 4.101-5 4.101-1.241 0-2.284-.398-3.025-1.141-.729-.739-1.112-1.766-1.112-2.972 0-2.227 1.132-3.109 3.92-5.062l.04-.03 5.261 4.912zM197.396.967l-18.119 27.588h5.609l3.871-5.89h8.639v5.904h4.676V.967zm-5.537 16.974 5.537-8.427v8.427zM159.161 28.569zl12.491-19.023v19.024h4.674v-.001L194.448.98h-5.612l-12.51 19.042V.968h-4.674v.036l-12.491 19.018V.968h-4.676v27.601zM259.325.967v11.112h-8.439V.967h-4.673v27.597h4.673V16.808h8.439v11.756H264V.967zM219.155.967h-15.256v4.724h5.292v22.873h4.675V5.691h5.289z" style="fill-opacity:1;fill-rule:nonzero;stroke:none;fill:#fff"/><path d="M239.608 21.126a9.72 9.72 0 0 1-7.285 3.282c-5.417 0-9.807-4.437-9.807-9.909 0-5.474 4.39-9.911 9.807-9.911 2.848 0 5.415 1.294 7.203 3.283h5.476c-2.394-4.602-7.174-7.853-12.679-7.853-7.911 0-14.324 6.484-14.324 14.481s6.413 14.483 14.324 14.483c5.544 0 10.351-3.197 12.732-7.856z" style="fill-opacity:1;fill-rule:nonzero;stroke:none;fill:#fff"/></svg>