<svg xmlns="http://www.w3.org/2000/svg" viewBox="0 0 264 46"><g fill="#fff"><path d="M252.528.428h11.464L247.83 25.625l-2.621 19.66h-10.361l3.036-22.432L227.523.428h11.189l5.527 12.739zM131.793 27.563h13.672l1.383-9.967H133.31l.969-7.201h15.743l1.523-9.967h-26.11l-6.216 44.857h25.97l1.383-9.973h-15.749zM52.222 23.13l3.453-9.275 1.106 9.275zm-3.73 8.86h9.393l1.66 13.29h16.99l7.874-24.365 3.87 24.366h8.979l9.946-25.75 1.658 25.75h9.946L116.044.426h-11.88l-9.257 23.672L91.314.426H80.678L68.522 37.25 63.962.426H50.701l-14.782 37.24 1.934-14.537h-17.96l-1.245 8.86h7.875l-.553 3.046c-1.382.83-4.558.969-5.802.969s-10.498-.83-10.084-10.799c.41-9.967 13.673-19.242 29.42-14.12l1.522-9.552C30.526-2.067 2.95-.052.134 24.653-1.523 39.187 11.74 46.11 20.58 45.972c5.112.277 10.914-1.662 12.986-2.77l-.69 2.078h10.499l5.111-13.29z"/><path d="M216.333.013c-7.185-.277-17.545 3.876-20.999 20.628-3.453 16.75 5.802 23.534 14.367 24.642 8.566 1.107 20.584-4.292 22.794-20.351 2.212-16.06-5.667-24.503-16.163-24.92zm-1.104 9.552c2.9 0 9.117 1.939 7.597 13.567s-8.702 13.013-11.328 12.736-8.012-2.076-6.492-12.736c1.522-10.66 7.185-13.705 10.225-13.567z"/><path d="M172.677 17.596h5.803c4.283 0 5.111-2.77 5.248-3.876.139-1.108-1.104-3.324-3.314-3.324h-6.769l-.964 7.2zm-2.486 17.72h7.875c4.282 0 5.248-3.323 5.386-4.43.139-1.108-1.104-3.323-3.314-3.323h-8.841l-1.104 7.752zm-11.6 9.967L164.808.43h19.063c4.56 0 11.19 5.261 10.362 12.321-.829 7.06-3.04 7.476-4.56 8.584 2.35 2.075 4.698 5.398 3.731 11.628s-6.079 12.321-15.058 12.321h-19.753z"/></g></svg>