<svg xmlns="http://www.w3.org/2000/svg" viewBox="0 0 264 73"><path d="M286.972.484H300l-18.367 28.573-2.979 22.291H266.88l3.451-25.435L258.557.484h12.715l6.282 14.445ZM149.773 31.253h15.537l1.571-11.302h-15.382l1.101-8.165h17.891l1.73-11.302h-29.67l-7.064 50.864h29.511l1.57-11.307h-17.895ZM59.352 26.227l3.925-10.517 1.257 10.517h-5.181Zm-4.238 10.047h10.673l1.886 15.07H86.98l8.949-27.629 4.396 27.629h10.205l11.302-29.198 1.884 29.198h11.301L131.878.482h-13.501l-10.519 26.843L103.776.482H91.689L77.874 42.239 72.694.482h-15.07L40.826 42.708l2.198-16.481h-20.41L21.2 36.272h8.949l-.629 3.454c-1.569.941-5.179 1.099-6.592 1.099s-11.93-.941-11.46-12.245c.468-11.301 15.537-21.819 33.433-16.011l1.728-10.832C34.698-2.343 3.363-.059.161 27.952-1.721 44.436 13.35 52.285 23.395 52.13c5.808.314 12.403-1.884 14.756-3.141l-.784 2.355h11.931l5.808-15.07Z" style="fill:#fff" transform="scale(.88 .87552)"/><path d="M245.841.014c-8.163-.315-19.937 4.395-23.861 23.39-3.924 18.993 6.592 26.686 16.326 27.943 9.733 1.255 23.391-4.867 25.901-23.076C266.722 10.06 257.768.485 245.841.014m-1.253 10.832c3.296 0 10.359 2.198 8.632 15.382-1.726 13.187-9.889 14.757-12.871 14.444-2.985-.316-9.106-2.355-7.379-14.444 1.73-12.085 8.165-15.54 11.621-15.382Z" style="fill:#fff" transform="scale(.88 .87552)"/><path d="M196.234 19.951h6.594c4.865 0 5.808-3.14 5.963-4.395.157-1.256-1.255-3.768-3.765-3.768h-7.692l-1.096 8.163Zm-2.826 20.093h8.949c4.865 0 5.964-3.767 6.121-5.024.157-1.255-1.256-3.767-3.767-3.767h-10.046l-1.255 8.791Zm-13.182 11.303L187.291.485h21.662c5.182 0 12.716 5.967 11.775 13.971-.942 8.007-3.454 8.479-5.181 9.734 2.67 2.353 5.337 6.12 4.239 13.185-1.1 7.066-6.908 13.972-17.11 13.972h-22.449Z" style="fill:#fff" transform="scale(.88 .87552)"/><path d="M61.895 56.917h-6.66L39.537 83.346h18.689v-5.859h-7.617l7.617-13.662 11.042 19.553h8.511v-.062H91.07c11.503 0 17.271-4.441 17.271-13.229 0-1.512-.186-2.93-.587-4.256l10.608 17.486h5.089l15.265-26.367h-8.08l-9.531 17.267-10.053-17.269h-8.696l2.405 3.947c-2.805-2.652-6.846-3.947-12.119-3.947H75.156v21.925zm20.786 5.981h10.024c5.21 0 7.862 2.283 7.862 6.846 0 2.746-.831 4.751-2.405 5.798-1.512 1.08-4.379 1.604-8.388 1.604h-7.062V62.898zM149.972 56.917h-6.692l-15.637 26.428h7.896v-.062h10.793v-5.89h-7.554l7.494-13.599 11.04 19.551h8.603v-.062h4.38V67.34l19.953 15.943h5.18V56.917h-6.908v15.757l-20.138-15.757h-5.151v21.926ZM199.376 58.395c-1.08.958-1.634 2.684-1.634 5.152v13.075c0 2.529.554 4.256 1.603 5.212 1.018.957 2.867 1.45 5.583 1.45h15.511c2.684 0 4.626-.493 5.644-1.45 1.017-.955 1.604-2.683 1.604-5.212v-3.67l-7.617-.122v4.07h-14.742V63.054h14.742v3.608h7.617v-3.115c0-2.59-.586-4.318-1.604-5.152-1.018-1.017-2.806-1.51-5.644-1.51h-15.511c-2.684.032-4.535.495-5.552 1.51M237.832 66.693v-3.795h20.569v-5.981h-28.186v26.366h28.525v-6.106h-20.908V72.49h12.058v-5.797Z" style="fill-opacity:1;fill:#fff" transform="scale(.88 .87552)"/></svg>