<svg xmlns="http://www.w3.org/2000/svg" viewBox="0 0 264 58"><g fill="#fff"><path d="M252.528.423h11.464L247.83 25.352l-2.621 19.45h-10.361l3.036-22.193L227.523.423h11.189l5.527 12.603zM131.793 27.269h13.672l1.383-9.861H133.31l.969-7.124h15.743l1.523-9.86h-26.11L119.22 44.8h25.97l1.383-9.866h-15.749zM52.222 22.883l3.453-9.176 1.106 9.176zm-3.73 8.765h9.393l1.66 13.149h16.99l7.874-24.105 3.87 24.105h8.979l9.946-25.475 1.658 25.475h9.946L116.044.421h-11.88l-9.257 23.42L91.314.42H80.678L68.522 36.853 63.962.42H50.701L35.919 37.263l1.934-14.38h-17.96l-1.245 8.765h7.875l-.553 3.013c-1.382.82-4.558.958-5.802.958S9.67 34.798 10.084 24.936c.41-9.86 13.673-19.037 29.42-13.97l1.522-9.45C30.526-2.044 2.95-.052.134 24.39-1.523 38.77 11.74 45.62 20.58 45.482c5.112.274 10.914-1.644 12.986-2.74l-.69 2.055h10.499l5.111-13.149z"/><path d="M216.333.013c-7.185-.275-17.545 3.834-20.999 20.408-3.453 16.57 5.802 23.282 14.367 24.378 8.566 1.095 20.584-4.246 22.794-20.133C234.707 8.778 226.828.424 216.332.013zm-1.104 9.45c2.9 0 9.117 1.918 7.597 13.421-1.52 11.505-8.702 12.875-11.328 12.601s-8.012-2.054-6.492-12.6c1.522-10.546 7.185-13.559 10.225-13.422z"/><path d="M172.677 17.408h5.803c4.283 0 5.111-2.74 5.248-3.835.139-1.096-1.104-3.288-3.314-3.288h-6.769l-.964 7.123zm-2.486 17.53h7.875c4.282 0 5.248-3.287 5.386-4.383.139-1.095-1.104-3.286-3.314-3.286h-8.841l-1.104 7.669zm-11.6 9.862L164.808.424h19.063c4.56 0 11.19 5.205 10.362 12.19-.829 6.985-3.04 7.396-4.56 8.492 2.35 2.053 4.698 5.34 3.731 11.504s-6.079 12.19-15.058 12.19h-19.753z"/></g><path d="M80.767 57.806H78.16v-2.857h-1.956v2.857h-2.608v-8.078h2.608v2.856h1.956v-2.856h2.607zm3.548-1.279-.303 1.279H81.26l2.114-8.078h4.028l2.114 8.078h-2.752l-.298-1.279zm1.146-4.316h-.145l-.535 2.263h1.201zm9.96 3.282.196 2.17q-.819.337-2.058.337t-1.989-.258q-.75-.26-1.182-.813a3.35 3.35 0 0 1-.601-1.306q-.168-.753-.168-1.851 0-1.1.168-1.851.172-.758.601-1.317.834-1.071 3.064-1.071.498 0 1.168.097.671.097.997.24l-.391 1.976a7.5 7.5 0 0 0-1.551-.181q-.702 0-.978.131-.274.129-.274.516v3.389q.507.102 1.029.102 1.108 0 1.969-.31m3.768-1.205h-.052v3.518H96.53v-8.078h2.607v3.296h.052q.027-.388.13-.619l1.28-2.677h2.813l-1.956 3.969 2.021 4.109h-2.812l-1.346-2.895a1.9 1.9 0 0 1-.13-.623m4.746 3.375.363-2.132q1.201.299 2.161.299.959 0 1.546-.077v-.647L106.831 55q-1.591-.14-2.184-.752-.596-.616-.596-1.82 0-1.654.727-2.277.722-.618 2.454-.618 1.737 0 3.129.323l-.326 2.069q-1.21-.194-1.942-.194-.73 0-1.238.065v.632l.94.092q1.71.167 2.361.809.652.635.652 1.777 0 .814-.224 1.375-.223.564-.526.854-.307.291-.87.444-.559.157-.983.19-.424.031-1.127.031-1.695 0-3.143-.337m12.114-2.958h-2.021v-1.861h2.021v-2.005h1.877v2.005h2.034v1.861h-2.034v2.016h-1.877zm14.64 3.101h-2.608v-2.857h-1.956v2.857h-2.607v-8.078h2.607v2.856h1.956v-2.856h2.608zm.912-4.034q0-2.207.833-3.223.834-1.017 3.013-1.016 2.18 0 3.013 1.016.834 1.016.834 3.223 0 1.098-.177 1.851a3.4 3.4 0 0 1-.606 1.306q-.428.553-1.187.813-.754.257-1.877.258-1.122 0-1.876-.258-.76-.26-1.188-.813a3.4 3.4 0 0 1-.605-1.306q-.177-.753-.177-1.851m2.803-1.344v3.361h1.08q.537 0 .778-.12.243-.125.242-.563v-3.361h-1.094q-.522 0-.764.12-.242.124-.242.563m8.358 1.464-.158 3.914h-2.724l.493-8.078h3.404l1.02 4.108h.089l1.019-4.108h3.4l.498 8.078h-2.724l-.158-3.914h-.094l-.987 3.914h-1.997l-1.002-3.914zm13.233-1.012v1.875h-2.608v.984h3.194v2.067h-5.802v-8.078h5.737l-.326 2.068h-2.803v1.084zm6.374 4.926h-4.68v-8.078h4.224q1.173 0 1.676.452t.503 1.32q0 .864-.321 1.334a1.42 1.42 0 0 1-.852.614v.078q1.578.273 1.578 2.133 0 .97-.521 1.56-.522.588-1.607.587m-1.057-3.217h-1.015v1.315h1.006q.545 0 .545-.656 0-.66-.536-.659m-.196-3.089h-.819v1.2h.81q.494 0 .494-.6t-.485-.6m9.992 3.62 1.406 2.686h-2.869l-1.071-2.404h-.558v2.404h-2.608v-8.078h4.107q2.803 0 2.803 2.829 0 1.94-1.21 2.563m-2.492-3.324h-.6v1.615h.6q.47 0 .685-.096.214-.098.214-.448v-.527q0-.35-.214-.448-.214-.097-.685-.096m10.025 1.084v1.875h-2.607v.984h3.194v2.067h-5.802v-8.078h5.737l-.326 2.068h-2.803v1.084zm8.396 1.358.628-4.51h2.724l-1.28 8.078h-3.399l-.601-2.972h-.158l-.587 2.972h-3.404l-1.276-8.078h2.724l.615 4.51h.079l.936-4.51h1.998l.922 4.51z" style="fill:#fff;white-space:pre"/></svg>