<svg xmlns="http://www.w3.org/2000/svg" viewBox="0 0 264 74.1"><path d="m212.402 429.325 14.814-8.577h72.9l13.177-18.869h53.098l13.332 18.869h73.993l14.89 8.656v20.113l-15.75 9.123H228.151l-15.749-9.123Zm241.39 32.437 18.712-10.839v-22.924l-17.931-10.369h-73.292l-13.177-18.869h-56.37l-13.255 18.869h-72.12l-17.855 10.291v23.002l18.791 10.839Z" style="fill-rule:evenodd;fill:#fff" transform="translate(-208.504 -398.761)"/><path d="M330.066 416.168c0 .988.805 1.771 1.771 1.761h7.233v-2.203h-6.793v-.617h5.353v-2.192h-7.553zM330.077 408.907c0-.911.784-1.756 1.76-1.752h7.233v2.192h-6.793v.617h5.353v2.222h-7.564zM378.397 437.122h22.923v9.122l-8.186 5.536h-25.302l8.382-5.615h14.813v-3.43h-22.923v-8.929l8.462-5.729h25.261l-8.344 5.612h-15.086zM404.518 428.077h10.291v23.703h-10.291zM429.077 437.122H452v9.122l-8.189 5.536h-25.299l8.382-5.615h14.814v-3.43h-22.923v-8.929l8.459-5.729h25.263l-8.344 5.612h-15.086z" style="fill-rule:evenodd;fill:#fff" transform="translate(-208.504 -398.761)"/><path d="M345.807 446.165v-3.43h9.861l8.382-5.613h-18.243v-3.433h14.851l8.344-5.612h-24.521l-8.966 5.498v18.205h24.95l8.42-5.615zM273.764 446.165v-3.43h9.863l8.381-5.613h-18.244v-3.433h14.852l8.343-5.612h-24.522l-8.964 5.498v18.205h24.949l8.421-5.615zM322.338 443.905l-12.787-7.954v15.829h-10.293v-23.703h10.448l12.632 6.939v-6.939h10.292v23.703h-10.292zM237.742 433.689v12.476h12.786v-3.43h-10.447l8.343-5.613h12.397v9.357l-7.876 5.301h-25.494v-17.932l8.537-5.771h27.913l-8.304 5.612zM331.579 404.2a4.446 4.446 0 0 0-4.446 4.445v7.781a4.446 4.446 0 0 0 4.446 4.445h7.493v-2.191h-7.307c-1.289 0-2.432-1.222-2.432-2.51v-7.271c0-1.289 1.143-2.48 2.432-2.48h7.307v-2.222h-7.493zM345.765 415.786v-6.439h7.145v-2.192h-7.546c-.976-.004-1.76.841-1.76 1.752l-.009 7.261c0 .988.803 1.771 1.769 1.761h4.603l-.012-5.051h-3.463v2.172h1.28v.735zM325.014 404.179h-7.178a5.477 5.477 0 0 0-5.477 5.476c0 3.025 2.453 5.418 5.477 5.392h2.187v.739h-7.616v2.144h7.368a2.51 2.51 0 0 0 2.509-2.507 2.493 2.493 0 0 0-2.509-2.489l-1.909-.008a3.254 3.254 0 1 1 0-6.507h7.153z" style="fill-rule:evenodd;fill:#fff" transform="translate(-208.504 -398.761)"/><path d="M325.014 409.288h-7.461v.735l2.238.004c3.026 0 5.477 2.393 5.477 5.417s-2.451 5.424-5.477 5.424l-7.384-.015v-2.179h7.368a3.253 3.253 0 0 0 3.254-3.253 3.24 3.24 0 0 0-3.254-3.234l-1.909-.007a2.509 2.509 0 0 1 0-5.017h7.153zM361.257 406.78c-.089-.209-.12-.259-.36-.259-.241 0-.299.125-.391.334l-4.55 14.016 2.394.003 2.574-7.77.847 2.624h-1.699v2.211h4.835z" style="fill-rule:evenodd;fill:#fff" transform="translate(-208.504 -398.761)"/><path d="M345.106 420.873a4.447 4.447 0 0 1-4.447-4.445v-7.781a4.447 4.447 0 0 1 4.447-4.445h7.804v2.222h-7.616c-1.291 0-2.434 1.191-2.434 2.48v7.27c0 1.289 1.142 2.51 2.434 2.51h5.395v-6.536h-4.195v-2.182h6.425v10.395l4.577-14.163a3.603 3.603 0 0 1 6.83.093l4.753 14.583h-9.007v-2.191h5.851l-3.967-12.163c-.232-.669-.646-.748-1.059-.748-.432 0-.831.177-1.056.788l-4.657 14.314h-10.078z" style="fill-rule:evenodd;fill:#fff" transform="translate(-208.504 -398.761)"/><path d="M83.597 73.893h-2.464v-2.726h-1.848v2.726h-2.464v-7.708h2.464v2.727h1.848v-2.727h2.464zm3.353-1.22-.286 1.22h-2.601l1.998-7.708h3.806l1.998 7.708h-2.601l-.281-1.22zm1.082-4.119h-.136l-.506 2.159h1.135zm9.412 3.133.185 2.07q-.774.321-1.945.321-1.17 0-1.879-.246-.708-.248-1.117-.776a3.2 3.2 0 0 1-.568-1.246q-.158-.718-.158-1.766 0-1.05.158-1.767.163-.722.568-1.255.788-1.023 2.895-1.022.471 0 1.104.093.634.091.942.229l-.37 1.885a7 7 0 0 0-1.465-.172q-.663 0-.924.123-.26.124-.259.494v3.233q.48.096.972.097 1.047 0 1.861-.295m3.56-1.151h-.049v3.357h-2.464v-7.708h2.464v3.145h.049q.025-.37.123-.59l1.21-2.555h2.658l-1.848 3.788 1.909 3.92h-2.657l-1.272-2.762a1.8 1.8 0 0 1-.123-.595m4.485 3.221.343-2.035q1.135.286 2.042.286t1.46-.075v-.617l-1.108-.101q-1.505-.132-2.064-.718-.563-.586-.563-1.735 0-1.577.686-2.171.683-.591 2.319-.591 1.641 0 2.957.308l-.308 1.974q-1.144-.185-1.835-.185t-1.17.061v.604l.888.088q1.616.158 2.231.771.616.608.616 1.695 0 .776-.211 1.313-.212.537-.497.814-.29.279-.823.424-.528.15-.928.18-.4.031-1.065.031-1.602 0-2.97-.321m11.446-2.824h-1.909v-1.775h1.909v-1.911h1.774v1.911h1.922v1.775h-1.922v1.925h-1.774zm13.834 2.96h-2.464v-2.726h-1.848v2.726h-2.464v-7.708h2.464v2.727h1.848v-2.727h2.464zm.862-3.849q0-2.105.787-3.075.787-.969 2.847-.969t2.847.969q.787.97.787 3.075 0 1.048-.167 1.766a3.26 3.26 0 0 1-.572 1.246q-.405.528-1.122.776-.712.246-1.773.246t-1.773-.246q-.719-.248-1.122-.776a3.26 3.26 0 0 1-.572-1.246q-.167-.718-.167-1.766m2.648-1.282v3.206h1.021q.506 0 .735-.114.23-.118.229-.538V68.11h-1.034q-.493 0-.722.114-.23.12-.229.538m7.898 1.396-.15 3.735h-2.574l.467-7.708h3.216l.964 3.92h.083l.964-3.92h3.212l.471 7.708h-2.574l-.15-3.735h-.088l-.933 3.735h-1.887l-.946-3.735zm12.503-.965v1.789h-2.464v.938h3.019v1.973h-5.483v-7.708h5.421l-.308 1.973h-2.649v1.035zm6.024 4.7h-4.422v-7.708h3.99q1.11 0 1.584.432.476.431.476 1.26 0 .823-.304 1.272a1.35 1.35 0 0 1-.805.587v.074q1.491.26 1.491 2.035 0 .925-.492 1.488-.494.56-1.518.56m-.999-3.07h-.959v1.255h.95q.515 0 .515-.625 0-.63-.506-.63m-.185-2.946h-.774v1.145h.765q.467 0 .467-.573t-.458-.572m9.441 3.452 1.328 2.564h-2.71l-1.012-2.294h-.528v2.294h-2.464v-7.708h3.881q2.648 0 2.649 2.7 0 1.85-1.144 2.444m-2.354-3.171h-.568V69.7h.568q.444 0 .646-.092.203-.094.203-.428v-.501q0-.337-.203-.428-.202-.093-.646-.093m9.472 1.035v1.789h-2.464v.938h3.019v1.973h-5.483v-7.708h5.421l-.308 1.973h-2.649v1.035zm7.933 1.295.594-4.303h2.574l-1.21 7.708h-3.212l-.568-2.836h-.149l-.555 2.836h-3.216l-1.206-7.708h2.574l.581 4.303h.075l.884-4.303h1.888l.871 4.303z" style="fill:#fff;white-space:pre;transform-box:fill-box;transform-origin:50% 50%"/></svg>