<svg xmlns="http://www.w3.org/2000/svg" xml:space="preserve" id="Layer_1" x="0" y="0" viewBox="0 0 3840 715"><style>.st1{fill:#fff}</style><path d="M407.065 423.514v106.9h-226.4v-106.9zM671.4 398.3h106.9v310.1H671.4zM778.3 398.3H671.4c0-46.5-69.7-46.5-69.7 0H494.8c-.1-189 283.5-189 283.5 0M494.7 398.3h106.9v310.1H494.7z" class="st1"/><path d="M768.822 476.964v106.9h-260.1v-106.9zM2990.3 327.4h106.9v381h-106.9z" class="st1"/><path d="M3166.048 256.58v106.9h-244.6v-106.9zM2417.1 398.3H2524v310.1h-106.9zM2524 398.3h-106.9c0-46.5-69.7-46.5-69.7 0h-106.9c0-189 283.5-189 283.5 0M2240.5 398.3h106.9v310.1h-106.9z" class="st1"/><path d="M2514.584 477.003v106.9h-260.1v-106.9zM1008.1 393.7H1115v314.7h-106.9zM831.5 393.7h106.9v314.7H831.5z" class="st1"/><path d="M1061.6 398.3h-53.5c0-46.5-69.7-46.5-69.7 0H831.5c0-189 230.1-189 230.1 0M1291.7 398.3h-106.9c0-46.5-69.7-46.5-69.7 0h-53.5c0-189 230.1-189 230.1 0" class="st1"/><path d="M1184.8 393.7h106.9v314.7h-106.9zM1903.7 393.7h106.9v314.7h-106.9zM1727 393.7h106.9v314.7H1727z" class="st1"/><path d="M1957.2 398.3h-53.5c0-46.5-69.7-46.5-69.7 0h-106.9c-.1-189 230.1-189 230.1 0M2187.3 398.3h-106.9c0-46.5-69.7-46.5-69.7 0h-53.5c0-189 230.1-189 230.1 0" class="st1"/><path d="M2080.3 393.7h106.9v314.7h-106.9zM1569.07 429.062v106.9h-192.8v-106.9zM1569.09 256.582v106.9h-192.8v-106.9z" class="st1"/><path d="M1451.8 601.5v-345h-106.9v365.7c0 47.6 38.6 86.2 86.2 86.2h138V601.5zM3430.839 428.993v106.9h-192.8v-106.9zM3430.86 256.513v106.9h-192.8v-106.9z" class="st1"/><path d="M3313.6 601.5v-345h-106.9v365.7c0 47.6 38.6 86.2 86.2 86.2h138V601.5zM3484.1 413H3591v295.4h-106.9zM3697.6 511.6l-22.6 22.7-84-65.8 31.1 118.7L3749.9 715l75.6-75.6z" class="st1"/><path d="M3662 235c-98.3 0-178 79.7-178 178 0 73 44 135.7 106.9 163.1V468.5l30.8 117.7c13 3 26.4 4.7 40.2 4.7 98.3 0 178-79.7 178-178 .1-98.2-79.6-177.9-177.9-177.9m0 249.1c-39.2 0-71.1-31.8-71.1-71.1 0-39.2 31.8-71.1 71.1-71.1s71.1 31.8 71.1 71.1-31.8 71.1-71.1 71.1M2880.8 256.6h-62.9c-62.5 0-115.9 45.2-126.1 106.9l-32.9 198.3c-3.8 22.9-23.6 39.8-46.9 39.8h-47.4v106.9h70c62.5 0 115.9-45.2 126.1-106.9l32.9-198.3c3.8-22.9 23.6-39.8 46.9-39.8h40.3zM380.1 423.5l-40.8 40.8c.2 2.6.4 5.1.4 7.7 0 64.3-52.1 116.4-116.4 116.4S106.9 536.3 106.9 472 159 355.7 223.3 355.7c37.7 0 71 18 92.3 45.7l76-76c-40.9-46.9-101.1-76.6-168.3-76.6C100 248.8 0 348.7 0 472.1s100 223.3 223.3 223.3 223.3-100 223.3-223.3c0-16.7-1.8-32.9-5.3-48.5h-61.2zM1297.8 3.5h54.1v57.1h49.4V3.5h54.1v161.7h-54.1v-58h-49.4v58h-54.1zM1537.6 2.3h53.6l68.2 162.9h-58.7l-8.6-21.7h-56.6l-8.3 21.7h-57.8zm41.1 102.8-14.8-39.3-14.8 39.3zM1673.4 3.5h79c28.6 0 46.9 7.2 58.2 18.5 9.7 9.7 14.8 21.7 14.8 38.3v.5c0 23.6-12.2 40-31.9 49.4l37.7 55h-61.7L1739 119h-11.6v46.2h-54.1V3.5zm77.4 76.9c12.9 0 20.8-5.8 20.8-15.7v-.5c0-10.4-8.1-15.5-20.6-15.5h-23.6v31.6h23.4zM1887.3 49.2h-47.6V3.5H1989v45.7h-47.6v116h-54.1zM2007.2 92.6V3.5h55V92c0 20.1 10.4 28.6 24.9 28.6s24.9-7.9 24.9-27.5V3.5h55v88c0 55.2-32.1 76.9-80.4 76.9-48.2 0-79.4-22.2-79.4-75.8M2191.5 3.5h50.6l57.5 71.4V3.5h53.6v161.7h-48.1L2245 90.6v74.6h-53.6V3.5zM2375.4 84.8v-.5c0-48.3 38.1-84.3 89.2-84.3 27.7 0 50.1 9.2 67.7 24.5L2502 61c-10.6-9-22.4-14.1-35.8-14.1-21 0-36.3 16.2-36.3 38.1v.5c0 22.9 15.9 38.6 38.6 38.6 9.2 0 14.3-1.4 18.5-3.7v-16.2h-27.7V69.5h78.3v74.8c-17.6 14.3-42 24.3-71.4 24.3-50.4.1-90.8-33.7-90.8-83.8" class="st1"/></svg>