<svg xmlns="http://www.w3.org/2000/svg" viewBox="0 0 600 197"><path d="M398.781 42.086q1.519.093 3.042.195c7.774.538 15.21 2.364 22.155 5.97 4.961 2.58 9.36 5.919 13.285 9.898 4.261 4.324 7.787 9.168 10.438 14.633 1.949 4.015 3.301 8.222 4.241 12.576 1.144 5.339 1.522 10.745 1.297 16.18-.367 8.726-2.297 17.063-6.411 24.825-2.868 5.417-6.61 10.168-11.06 14.369-7.138 6.739-15.501 11.135-25.111 13.171-3.555.751-7.138 1.225-10.774 1.339-.162.006-.327.054-.49.081h-4.276c-.931-.069-1.862-.132-2.786-.201-11.126-.805-21.282-4.24-30.084-11.246-6.945-5.525-12.387-12.267-16.095-20.363-1.886-4.111-3.15-8.423-3.991-12.864-.949-5.024-1.252-10.096-1-15.192.537-10.726 3.363-20.744 9.588-29.621 7.285-10.384 16.807-17.771 29.104-21.341 3.748-1.088 7.568-1.814 11.463-2.112 1.237-.096 2.471-.144 3.705-.219.204-.012.403-.051.604-.078zm-1.691 98.676c3.955-.03 7.781-.354 11.537-1.282 8.177-2.018 14.979-6.261 20.384-12.729 5.52-6.601 8.387-14.273 9.165-22.778.27-2.909.3-5.825.129-8.744-.192-3.168-.606-6.303-1.447-9.369-2.625-9.571-8-17.207-16.258-22.732-6.177-4.129-13.09-6.018-20.459-6.385-4.027-.198-8.033-.015-12.006.706-6.939 1.261-13.113 4.126-18.434 8.787q-7.739 6.783-11.198 16.474c-1.751 4.885-2.448 9.945-2.52 15.11-.06 4.012.222 8 1.093 11.922 1.583 7.078 4.766 13.324 9.733 18.645 4.384 4.7 9.6 8.078 15.672 10.147 4.772 1.625 9.699 2.177 14.609 2.228M600 152.777c-.417 1.012-.738 1.216-1.882 1.216-3.733 0-7.466.003-11.204 0-1.316 0-1.799-.489-1.799-1.811V45.263c0-1.372.483-1.853 1.877-1.853 3.732 0 7.468-.012 11.198.021.462.003.964.187 1.36.43.237.147.306.567.45.871z" style="fill-opacity:1;fill:#fff"/><path d="m295.471 88.268 5.616 7.459c3.955 5.255 7.906 10.511 11.864 15.772q7.63 10.143 15.261 20.281c4.988 6.628 9.967 13.252 14.961 19.874.372.486.531.982.267 1.549-.27.571-.793.757-1.381.787-.271.018-.541.003-.814.003-4.598 0-9.198-.003-13.799.006-.786 0-1.363-.264-1.858-.916-8.673-11.594-17.366-23.176-26.057-34.759-4.934-6.576-9.873-13.155-14.81-19.729-.039-.054-.087-.102-.156-.186q-.9.838-1.787 1.664c-4.006 3.744-8.006 7.486-12.009 11.23-2.204 2.06-4.411 4.123-6.63 6.171-.288.262-.406.526-.406.916.012 11.198.009 22.402.009 33.603 0 .132.003.27 0 .408-.03 1.024-.552 1.583-1.576 1.589-3.922.012-7.841.009-11.762 0-.994-.006-1.517-.565-1.538-1.565-.003-.114 0-.237 0-.354V45.257c0-1.348.486-1.844 1.829-1.844h10.741c.237 0 .475-.009.715 0 1.036.049 1.546.559 1.591 1.592.007.153 0 .306 0 .456V97.91c.889-.831 1.691-1.573 2.487-2.324 4.729-4.435 9.45-8.873 14.183-13.306l18.609-17.432c5.198-4.873 10.393-9.753 15.588-14.627 2.189-2.057 4.384-4.105 6.57-6.168a2.23 2.23 0 0 1 1.598-.64h16.447c.934 0 1.462.34 1.658 1.039.162.577-.061 1.024-.463 1.412-1.588 1.507-3.171 3.015-4.763 4.516-2.816 2.655-5.636 5.303-8.45 7.958a8181 8181 0 0 0-11.702 11.033c-3.997 3.771-7.991 7.549-11.991 11.318-2.66 2.519-5.33 5.027-8.042 7.579M470.247 98.715V45.458q0-.23.003-.459c.018-1.003.529-1.528 1.526-1.586.069-.003.135 0 .198 0 15.228 0 30.453-.036 45.677.021 7 .025 13.7 1.598 20.093 4.46 5.561 2.486 10.444 5.952 14.687 10.315 6.916 7.102 11.51 15.477 13.766 25.14 1.3 5.565 1.837 11.198 1.72 16.895-.162 7.657-1.492 15.089-4.393 22.206-2.42 5.937-5.892 11.213-10.267 15.892-6.705 7.186-14.861 11.909-24.411 14.225-4.123.997-8.297 1.441-12.54 1.435-14.744-.018-29.495-.006-44.245-.009a5 5 0 0 1-.754-.054c-.549-.087-.886-.414-.982-.958a5 5 0 0 1-.075-.856q-.004-26.704-.003-53.41m14.895 41.047h.657c9.913 0 19.823.009 29.735-.012a72 72 0 0 0 5.333-.213c3.682-.291 7.193-1.267 10.55-2.808 4.387-2.006 8.075-4.934 11.252-8.552a40.6 40.6 0 0 0 7.021-11.252c1.834-4.402 2.819-8.994 3.183-13.744a56.7 56.7 0 0 0-.451-12.934c-.775-5.072-2.423-9.856-4.973-14.312-2.831-4.955-6.489-9.198-11.183-12.477-5.621-3.925-11.936-5.751-18.75-5.784-10.606-.051-21.218-.015-31.825-.018h-.549zM197.867 100.193c-.639 2.069-2.039 3.585-3.537 5.081-10.036 9.999-20.038 20.035-30.056 30.059-3.61 3.609-7.465 3.6-11.087-.024-10.339-10.348-20.675-20.69-31.008-31.038-3.52-3.523-3.517-7.373.012-10.901a50981 50981 0 0 1 31.179-31.212c3.381-3.385 7.357-3.388 10.739-.003 10.074 10.077 20.137 20.17 30.233 30.233 1.498 1.493 2.892 3.012 3.525 5.087zM98.237 197.103c-2.063-.655-3.556-2.081-5.042-3.577-9.994-10.044-20.018-20.059-30.033-30.086-3.582-3.585-3.585-7.414-.012-10.991 10.367-10.372 20.73-20.747 31.096-31.116 3.447-3.45 7.396-3.462 10.822-.03 10.366 10.369 20.729 20.744 31.092 31.116 3.559 3.568 3.571 7.475.024 11.015-10.098 10.117-20.215 20.216-30.293 30.351-1.444 1.444-2.928 2.75-4.937 3.318zM61.862 73.98c0-11.534.102-23.071-.066-34.599-.048-3.337.748-5.943 3.297-8.147 2.048-1.772 3.865-3.817 5.787-5.742A81714 81714 0 0 1 93.675 2.679c3.574-3.574 7.429-3.571 11 0q15.508 15.513 31.011 31.026c3.552 3.555 3.546 7.462-.003 11.018a97653 97653 0 0 1-36.678 36.71 82539 82539 0 0 1-32.389 32.426c-2.003 2.003-3.775 1.537-4.502-1.24-.222-.859-.24-1.787-.24-2.685-.018-11.984-.012-23.969-.012-35.954M37.142 98.97c0 10.58.015 21.168-.024 31.75-.006 1.006-.162 2.072-.522 3.003-.706 1.838-2.033 2.066-3.421.682-4.867-4.859-9.72-9.733-14.579-14.6-5.615-5.625-11.234-11.249-16.846-16.877-2.325-2.333-2.334-5.564-.021-7.906a228682 228682 0 0 1 31.02-31.36c.685-.688 1.33-1.627 2.492-1.186 1.111.417 1.55 1.42 1.706 2.531.099.688.177 1.388.177 2.084.012 10.628.006 21.252.006 31.879z" style="fill-opacity:1;fill:#fff"/></svg>