<svg xmlns="http://www.w3.org/2000/svg" viewBox="0 0 3000 840.9"><path d="M0 47.28h83.285v715.956h441.29v72.037H0ZM1170.728 243.155v592.118h-76.558V727.204c-21.007 36.032-49.886 64.166-86.662 84.429-36.777 19.518-78.818 29.277-126.098 29.277-77.302 0-138.463-21.379-183.483-64.165-44.276-43.531-66.426-106.952-66.426-190.238V243.155h79.934V578.61c0 62.304 15.397 109.584 46.164 141.84q46.15 48.423 131.708 48.423c62.278 0 111.446-18.773 147.452-56.294 36.031-38.266 54.034-91.183 54.034-158.726V243.155ZM1706.578 799.268c-15.024 13.508-33.772 24.012-56.295 31.511-21.752 6.754-44.647 10.131-68.66 10.131-55.55 0-98.309-14.997-128.331-45.019-30.023-30.022-45.047-72.436-45.047-127.215V310.698h-105.808v-67.543h105.808V113.706h79.935v129.449h180.106v67.543H1488.18v353.484c0 35.26 8.642 62.278 25.9 81.051 18.003 18.003 43.531 27.018 76.531 27.018 16.514 0 32.283-2.633 47.28-7.898q23.654-7.858 40.526-22.497ZM1928.326 359.095c18.774-39.755 46.536-69.777 83.312-90.04 37.521-20.263 83.684-30.394 138.463-30.394v77.674l-19.146-1.143c-62.278 0-111.073 19.146-146.334 57.411-35.287 38.293-52.918 91.955-52.918 160.987v301.683h-79.908V243.155h76.531ZM2294.175 243.155h79.935v592.118h-79.935Zm40.526-129.449c-16.487 0-30.394-5.637-41.642-16.885-11.249-11.275-16.886-24.784-16.886-40.526 0-15.025 5.637-28.161 16.886-39.409C2304.307 5.637 2318.214 0 2334.701 0c16.514 0 30.395 5.637 41.669 16.886 11.249 10.503 16.886 23.268 16.886 38.265 0 16.514-5.637 30.395-16.886 41.67-11.274 11.248-25.155 16.885-41.669 16.885M2755.728 840.91c-48.024 0-94.188-6.754-138.463-20.262-43.531-14.254-77.674-31.884-102.431-52.918l36.005-63.022c24.783 19.518 55.922 35.633 93.443 48.397 37.521 12.019 76.558 18.002 117.084 18.002 54.034 0 93.815-8.243 119.317-24.757q39.408-25.887 39.409-72.037c0-21.778-7.127-38.664-21.407-50.657-14.253-12.764-32.255-22.151-54.034-28.161-21.752-6.754-50.657-13.109-86.663-19.119-48.024-9.015-86.689-18.029-115.966-27.017-29.251-9.759-54.407-25.901-75.414-48.424q-30.395-33.744-30.395-93.417 0-74.31 61.906-121.577c41.297-31.538 98.708-47.28 172.235-47.28 38.292 0 76.557 5.238 114.823 15.742 38.292 9.759 69.803 22.896 94.56 39.409l-34.888 64.166c-48.77-33.772-106.952-50.657-174.495-50.657-51.03 0-89.668 9.014-115.94 27.017-25.502 18.002-38.266 41.643-38.266 70.92 0 22.523 7.127 40.526 21.38 54.034 15.024 13.509 33.399 23.641 55.151 30.395q32.668 9.015 90.066 19.146c47.28 8.988 85.174 18.002 113.707 27.017 28.506 8.988 52.891 24.385 73.154 46.137Q3000 614.654 3000 672.053c0 51.774-21.752 93.071-65.283 123.838-42.786 30.022-102.431 45.019-178.989 45.019" style="font:160px/1.25 Montserrat;fill-opacity:1;letter-spacing:0;word-spacing:0;stroke:none;fill:#fff"/></svg>