<svg xmlns="http://www.w3.org/2000/svg" viewBox="0 0 570.756 210.914"><path d="M48.641 173.198h-21.79v-38.365h-5.265v43.322h27.055zm5.352-25.982c0 8.444-.134 16.668.063 24.884.082 3.421 2.329 5.67 5.545 6.724 5.665 1.856 10.633.464 15.339-4.208-.239 4.603 2.225 3.56 4.434 3.338v-30.649h-5.299c0 5.669.135 11.073-.065 16.464-.084 2.256-.514 4.65-1.431 6.692-1.521 3.392-5.228 4.863-8.744 4.059-3.901-.89-4.39-3.78-4.361-7.115.059-6.67.017-13.34.017-20.189zm32.221 9.462c2.375-.655 5.027-.668 5.419-1.614 2.133-5.161 6.298-4.226 10.189-3.805 2.547.275 4.144 1.877 4.033 4.771-.109 2.8-2.075 3.211-4.192 3.604-3.668.679-7.44 1.062-10.958 2.211-4.22 1.378-6.01 4.665-5.77 9.031.229 4.153 2.686 7.003 6.951 8.224 5.199 1.489 9.57-.441 12.37-2.439 3.475 1.17 5.897 2.102 8.395 2.728.498.124 1.705-.833 1.843-1.454.191-.867-.166-2.651-.548-2.726-3.302-.646-2.502-3.145-2.528-5.208-.059-4.646-.01-9.295-.02-13.942-.013-6.064-2.088-8.626-7.764-9.621-8.34-1.464-15.029.942-16.744 6.083-.314.94-.335 1.978-.676 4.157M94 136.481c10.947-.036 19.721-8.841 19.601-19.671-.121-10.894-8.907-19.442-19.905-19.365-10.722.076-19.305 8.709-19.368 19.481-.064 10.84 8.74 19.592 19.672 19.555m-27.466 74.432C30.159 211.124.208 181.425.001 144.939c-.206-36.734 29.204-66.484 66.068-66.83 36.372-.343 66.521 29.382 66.721 65.781.203 37.026-29.237 66.808-66.256 67.023M113.585 77.883c.033-10.874 8.493-19.198 19.466-19.154 10.809.044 19.352 8.671 19.272 19.466-.079 10.656-8.895 19.318-19.595 19.249-10.785-.068-19.175-8.641-19.143-19.561" style="fill-opacity:1;fill-rule:nonzero;stroke:none;fill:#fff"/><path d="M105.488 163.076c1.102 8.449-3.392 13.254-10.725 11.332-1.634-.429-3.922-2.453-3.969-3.809-.058-1.664 1.57-4.336 3.095-4.913 3.667-1.385 7.7-1.8 11.599-2.61M141.646 162.996q.885-15.89 15.665-16.982 15.048.74 16.385 13.256l-10.765-.041q-.926-5.97-3.128-7.884-2.203-1.956-4.488.659-2.265 2.613-2.389 10.725-.226 10.724 2.224 12.145 2.45 1.398 4.94-.35 2.492-1.75 2.676-7.308l-5.62-.021-.061-4.527h16.55q-1.193 13.976-9.407 16.055-8.213 2.08-15.007-1.153-6.792-3.231-7.575-14.574M190.453 158.633q-3.87.164-4.014 5.99v6.216q.308 5.722 4.096 5.991 3.705-.391 3.644-3.315v-10.847q.287-3.685-3.726-4.035m3.602-2.183 9.654.021v23.138h-9.675l-.02-.783q-1.132.886-6.897.679-5.886-.123-8.644-3.746-2.76-3.644-2.409-7.904.062-3.911 2.202-7.102 2.142-3.191 8.193-4.714 5.744-.392 7.596 1.174zM220.445 155.915q7.37-1.173 9.262 4.57.99-2.593 6.527-4.879 9.674-1.42 10.415 7.164v16.694l-8.089-.041.061-13.75q.124-4.715-3.89-4.509-3.479-.514-5.024 3.315v15.087h-8.314 1.666-1.666v-15.787q-.001-3.129-3.665-3.459-2.572-.226-3.87 2.47v16.776h-8.46v-22.703h7.637-1.667 2.531l-.02 2.757q2.778-3.21 6.566-3.705M261.511 158.633q-3.581.184-3.685 5.537h7.144q-.041-5.105-3.459-5.537m-.123-2.512q12.166.371 12.742 11.63h-16.304q-.184 7.474 1.812 8.46 1.996.968 3.952-.246 1.997-1.214 1.585-5.537h8.749-1.791 1.791q-1.832 7.39-7.699 8.645-5.867 1.256-11.013-.74-5.125-2.017-6.669-9.223l-.021-1.605q1.523-10.87 12.866-11.384M283.66 146.59h27.09v6.525l-17.765-.02v7.431h14.1v5.043h-14.1v13.936h-9.325zM327.526 156.739q9.572-.803 9.552 7.04h-7.411q.083-3.54-4.384-3.396-2.43.533-2.45 2.408v16.777h-10.024v-22.705h9.036-1.956 2.985l-.02 2.757q1.563-2.222 4.672-2.881M353.031 158.633q-3.87.164-4.013 5.99v6.216q.307 5.722 4.096 5.991 3.705-.391 3.644-3.315v-10.847q.287-3.685-3.727-4.035m3.603-2.183 9.653.021v23.138h-9.674l-.02-.783q-1.132.886-6.897.679-5.887-.123-8.645-3.746-2.758-3.644-2.408-7.904.061-3.911 2.202-7.102t8.193-4.714q5.743-.392 7.596 1.174zM383.023 155.915q7.368-1.173 9.262 4.57.989-2.593 6.526-4.879 9.675-1.42 10.415 7.164v16.694l-8.088-.041.061-13.75q.123-4.715-3.89-4.509-3.48-.514-5.024 3.315v15.087h-8.315 1.666-1.666v-15.787q-.001-3.129-3.665-3.459-2.572-.226-3.87 2.47v16.776h-8.46v-22.703h7.638-1.668 2.531l-.02 2.757q2.78-3.21 6.567-3.705M424.09 158.633q-3.581.184-3.685 5.537h7.144q-.042-5.105-3.459-5.537m-.124-2.512q12.165.371 12.743 11.63h-16.304q-.185 7.474 1.811 8.46 1.998.968 3.953-.246 1.997-1.214 1.585-5.537h8.749-1.792 1.792q-1.833 7.39-7.699 8.645-5.866 1.256-11.013-.74-5.125-2.017-6.67-9.223l-.02-1.605q1.523-10.87 12.865-11.384M438.355 155.669h9.386l4.077 15.006 5.125-15.006h8.748l5.332 15.006 4.076-15.006h9.304l-9.304 23.837h-8.625l-5.125-14.347-4.942 14.347h-8.666zM499.739 158.961q-4.098.124-4.199 5.353v6.875q.287 5.105 4.281 5.372 3.952-.37 3.87-5.496v-6.669q-.103-5.393-3.952-5.435m-13.524 8.028q.534-6.155 4.22-8.604 3.684-2.45 8.851-2.285h1.523q5.64.288 8.811 2.995 3.17 2.707 3.601 7.833.145 6.36-3.54 9.222-3.664 2.82-8.933 3.355h-1.586q-6.771-.516-9.777-3.541-2.985-2.984-3.17-8.975M529.834 156.739q9.572-.803 9.551 7.04h-7.41q.082-3.54-4.385-3.396-2.429.533-2.45 2.408v16.777h-10.024v-22.705h9.037-1.957 2.985l-.02 2.757q1.564-2.222 4.673-2.881M551.015 179.568H540.99v-22.705l.041-10.19h10.004l-.02 13.895 8.584-10.787h5.187l-6.628 8.81 12.598 21.038h-10.89l-8.007-12.824-.72.865zM328.979.855c-2.404 1.048-4.314 3.205-5.546 6.04-.74 1.91-.926 5.238-.926 18.365v16.024h-4.744c-6.411 0-9.429 1.479-11.895 5.792-2.403 4.068-2.403 7.149-.123 11.525 2.341 4.56 5.423 6.102 11.894 6.102h4.807l.185 26.623c.247 25.514.308 26.87 1.603 30.753 2.587 7.704 8.873 15.345 15.345 18.611 6.902 3.514 18.242 4.808 26.254 3.02 6.532-1.54 9.983-6.101 9.552-12.756-.307-4.684-2.156-7.519-6.347-9.553-3.02-1.48-4.993-1.48-11.587-.062-3.821.864-8.627-.678-10.539-3.204-1.232-1.726-1.293-2.527-1.478-27.61l-.185-25.822h8.505c11.586-.062 13.99-1.11 16.886-7.643.924-2.095 1.233-3.759.986-5.361-.431-3.451-3.329-7.395-6.595-9.06-2.404-1.233-3.636-1.355-11.216-1.355h-8.442l-.185-17.133-.185-17.195-1.788-2.28c-3.142-4.13-9.614-5.855-14.236-3.821M172.443 3.011c-2.959 1.357-4.253 2.712-5.547 5.793-.801 1.972-.925 9.861-.925 64.341 0 57.931.062 62.245 1.11 64.216 3.82 7.643 14.975 8.32 19.659 1.234l1.726-2.65V73.7c0-34.266-.185-63.046-.431-63.971-1.171-4.006-6.471-7.889-10.785-7.889-1.295 0-3.451.555-4.807 1.171M420.806 41.529c-14.482 3.39-24.897 11.525-29.705 23.296-3.512 8.689-3.882 12.386-3.882 42.339 0 26.746 0 27.486 1.294 30.136 2.712 5.546 9.737 7.889 15.346 5.054 2.896-1.48 4.684-3.883 5.485-7.458.369-1.602.677-13.558.677-29.273 0-25.083.062-26.685 1.294-30.26 1.541-4.622 4.623-8.32 8.074-9.738 3.512-1.417 11.031-1.849 15.469-.924 4.191.863 7.272 3.205 9.182 7.025 2.589 5.239 6.101 7.767 10.663 7.767 3.697 0 6.347-1.172 8.751-3.883 4.375-4.992 4.129-9.922-.801-17.195-7.582-11.216-17.997-16.947-31.617-17.502-4.252-.124-7.826.061-10.23.616M215.583 42.33c-2.835 1.479-4.068 2.774-5.3 5.424-1.048 2.28-1.172 4.621-1.172 30.382 0 23.173.185 28.719.987 32.664 1.787 8.689 4.868 14.483 11.277 21.323 4.5 4.746 9.615 8.012 15.716 10.046 4.375 1.417 5.978 1.602 13.312 1.664 7.396 0 8.874-.185 13.25-1.664 13.743-4.561 22.926-14.483 26.932-29.089 1.294-4.684 1.355-6.347 1.603-32.971.246-29.89.122-31.123-2.774-34.513-5.731-6.841-16.085-5.115-19.598 3.205-.801 1.973-.925 6.348-.925 29.705 0 25.823-.061 27.61-1.293 31.43-2.528 8.32-8.506 11.957-18.735 11.34-7.704-.492-11.649-3.142-14.73-9.737-1.233-2.65-1.294-4.005-1.603-32.725l-.307-29.951-1.664-2.465c-3.02-4.56-10.354-6.533-14.976-4.068M536.236 65.935c3.513 1.479 6.779 4.745 8.752 8.566 4.683 9.183 4.067 29.829-1.109 38.272-3.329 5.423-9.615 8.628-16.764 8.628-10.354 0-17.071-5.67-19.475-16.517-1.355-6.039-.985-21.754.616-26.315 2.404-6.841 6.04-10.724 12.45-13.311 4.005-1.603 10.97-1.295 15.53.677M518.303 42.27c-13.929 3.081-25.638 13.311-30.445 26.561-2.835 7.889-3.513 12.142-3.513 23.604-.061 15.778 2.219 24.96 8.505 34.451 5.238 7.827 12.819 13.188 22.556 15.839 5.547 1.54 17.934 1.54 23.419.061 11.648-3.205 20.954-10.785 26.13-21.385 3.451-7.211 5.177-14.421 5.67-24.405 1.541-27.61-10.661-48.563-31.493-54.11-5.422-1.48-15.714-1.787-20.829-.616" style="fill-opacity:1;fill-rule:nonzero;stroke:none;fill:#fff"/></svg>