<svg xmlns="http://www.w3.org/2000/svg" width="446.971" height="33.67" viewBox="0 0 118.261 8.909"><path d="M.968 5.335 1.564 3.1q.223-.893 1.116-.893h10.722l-.28 1.34H3.667l-.363 1.34h8.31q1.117 0 .894.894l-.596 2.233q-.297.894-1.19.894H0l.28-1.34h9.455l.363-1.34H1.787q-1.042 0-.82-.894M12.769 8.015l1.303-4.914q.223-.893 1.116-.893H25.91l-.28 1.34h-9.455l-.363 1.34h7.864l-.28 1.34h-7.938l-.363 1.34h9.474l-.26 1.34H13.402q-.894 0-.633-.893M25.277 8.015l1.303-4.914q.223-.893 1.116-.893h11.168l-.279 1.34h-9.902l-1.08 4.02h7.688l.446-1.34h-2.066l.28-1.34h4.02l-.856 3.164q-.298.857-.93.857H25.91q-.894 0-.633-.894M37.524 8.909l5.36-6.701h2.681l4.02 6.7h-2.68l-.893-1.34h-4.467l.893-1.34h2.68l-1.34-2.233-4.02 4.914zM54.797 8.909l1.787-6.701h2.234l2.68 5.36 5.36-5.36h2.234l-1.787 6.7h-2.233l.893-3.126-3.127 3.127h-3.127l-1.787-3.574-.893 3.574zM67.752 8.909l5.36-6.701h2.681l4.02 6.7h-2.68l-.893-1.34h-4.467l.893-1.34h2.68l-1.34-2.233-4.02 4.914zM82.047 2.208h10.721q.894 0 .708.856l-.559 2.27q-.298.894-1.042.894h-3.127l3.127 2.68h-2.68l-4.468-4.02h5.984l.363-1.34h-7.147l-1.433 5.36H80.26zM92.768 8.909l1.787-6.701h2.234l-.987 3.695 5.9-3.695h3.574l-6.514 3.797 4.28 2.904H99.47l-3.713-2.811-.754 2.81z" style="font-style:normal;font-variant:normal;font-weight:400;font-stretch:normal;font-size:9.52996px;line-height:1.25;font-family:NiseMarkIII;-inkscape-font-specification:NiseMarkIII;fill:#fff;fill-opacity:1;stroke:none;stroke-width:.238249"/><path d="m115.891 8.66-.062.249h-11.936l.062-.249q.82 0 1.142-.31.21-.21.496-1.228l1.464-5.36q.223-.844.199-1.03-.013-.198-.211-.335-.199-.136-.794-.136l.074-.261h11.936l-.075.26q-.818 0-1.129.31-.285.423-.471 1.192l-1.464 5.36q-.248.88-.236 1.08.013.185.211.322.199.136.794.136m-5.98-8.09q-.26.212-.472 1.192l-1.464 5.36q-.248.88-.236 1.08.013.185.15.285.148.099.285.087.297-.025.496-.224.21-.21.496-1.228l1.464-5.36q.224-.844.199-1.03-.013-.198-.149-.298t-.273-.087q-.298.025-.496.224m3.573 0q-.21.212-.471 1.192l-1.464 5.36q-.249.88-.236 1.08.012.185.149.285.149.099.285.087.298-.025.496-.224.211-.21.497-1.228l1.464-5.36q.223-.844.198-1.03-.012-.198-.149-.298t-.273-.087q-.297.025-.496.224" style="font-style:normal;font-variant:normal;font-weight:400;font-stretch:normal;font-size:9.52995px;line-height:1.25;font-family:NiseMarkIII;-inkscape-font-specification:NiseMarkIII;fill:#fff;fill-opacity:1;stroke:none;stroke-width:.317631"/></svg>