<svg xmlns="http://www.w3.org/2000/svg" viewBox="0 0 264 159"><path d="M85.169 0v102.761h-69.22Z" style="fill-opacity:1;stroke:#000;stroke-width:.781966px;stroke-linecap:butt;stroke-linejoin:miter;stroke-opacity:0;display:inline;fill:#fff"/><path d="M158.491 2.049h33.437v101.59h-33.437z" style="fill-opacity:1;stroke:#000;stroke-width:5.22119;stroke-linecap:round;stroke-linejoin:miter;stroke-miterlimit:4;stroke-opacity:0;stroke-dasharray:none;stroke-dashoffset:0;display:inline;fill:#fff"/><path d="M199.127 2.097a97 97 0 0 0-1.205-.026l-.205 34.803h.081v-.108a16 16 0 0 1 1.726-.127l7.02-34.107c-2.739-.332-5.319-.368-7.417-.435Zm12.874.967-9.857 33.729c.878.121 1.739.312 2.566.568l16.191-32.069a49.7 49.7 0 0 0-8.9-2.228Zm14.312 4.491-19.362 30.681c.647.313 1.274.672 1.87 1.064l24.874-27.317a50.4 50.4 0 0 0-7.382-4.428Zm12.035 8.244L210.52 40.59a16.4 16.4 0 0 1 1.852 1.884l32.743-19.028a50.7 50.7 0 0 0-6.767-7.647Zm9.306 11.551-34.071 16.766q.585.911 1.048 1.903l37.405-8.983a50.3 50.3 0 0 0-4.382-9.686Zm5.782 14.845-38.119 5.564c.391 1.174.654 2.412.768 3.689h38.472a50.7 50.7 0 0 0-1.121-9.253Zm-37.351 12.301c-.789 8.256-7.724 14.709-16.154 14.709-.726 0-1.432-.052-2.133-.145v-.703h-.081v35.141c2.887-.021 4.377-.141 6.623-.141 27.223 0 49.388-21.732 50.217-48.861Z" style="fill-opacity:1;stroke:#000;stroke-width:5.15489;stroke-linecap:round;stroke-linejoin:miter;stroke-miterlimit:4;stroke-opacity:0;stroke-dasharray:none;stroke-dashoffset:0;display:inline;fill:#fff"/><path d="M143.096 0v102.761H73.875Z" style="fill-opacity:1;stroke:#000;stroke-width:.781966px;stroke-linecap:butt;stroke-linejoin:miter;stroke-opacity:0;display:inline;fill:#fff"/><path d="m0 135.231 13.092-21.706q.935-1.86 1.87-1.861h9.352v2.884l.623-1.023q.935-1.86 1.87-1.861h11.222v23.567h-7.482v-18.605l-11.221 18.605h-7.481l11.222-18.605h-3.741q-.623 0-1.247.621L7.481 135.231zm48.004-9.303v4.342h17.455v4.961H40.522v-15.504q0-.62.312-1.241l3.429-6.201q.311-.621 1.247-.621h19.949v4.962H50.497q-.624 0-.935.621l-1.558 3.721h17.455l-2.494 4.96zm27.43 4.342h12.468v-4.342h-4.988l2.494-4.96h9.975v13.024q0 1.239-1.247 1.239H69.2q-1.247 0-1.247-1.239v-14.265q0-.62.311-1.241l3.429-6.201q.312-.621 1.247-.621h21.196v4.962H77.927q-.623 0-.935.621l-1.558 3.721zm53.614 4.961h-8.728l-3.429-4.961h-9.04l-2.493-4.496v9.457h-7.481v-23.567h14.338q.935 0 1.871 1.861zm-15.617-9.922-5.58-8.062q-.623-.622-1.246-.621h-1.247v8.683z" style="font-size:69.46884918px;font-style:normal;font-weight:400;fill:#fff;fill-opacity:1;stroke:none;display:inline;font-family:NiseMegaDrive"/><path d="M142.48 130.555h9.05q.647 0 .969-.582l2.747-5.891.162-.648-.162-.647-2.747-5.826q-.323-.647-.969-.648h-9.05zm-7.756-19.42h21.654q.97 0 1.616 1.295l5.009 10.357.162.647-.162.648-5.009 10.357q-.647 1.295-1.616 1.295h-21.654zm31.026 0h20.684q.97 0 1.616 1.295l3.394 7.12.161.648-.161.647-5.01 5.826 5.171 9.063h-7.756l-7.434-12.3h3.879q.647 0 .969-.323l2.586-2.913-1.293-3.237q-.324-.647-.97-.648h-8.079v19.421h-7.757zm36.197 24.599h-7.756v-24.599h7.756zm10.342-16.507 7.757 11.328 7.757-11.328v-8.092h7.756v9.063q0 1.294-.323 1.942l-8.726 13.594h-12.927l-8.726-13.594q-.325-.648-.324-1.942v-9.063h7.756zm33.612 6.797v4.531H264v5.179h-25.855V119.55q0-.647.323-1.294l3.555-6.473q.323-.648 1.293-.648H264v5.178h-15.513q-.647 0-.969.648l-1.617 3.884H264l-2.585 5.179z" style="font-size:72.2677002px;font-style:normal;font-weight:400;fill:#fff;fill-opacity:1;stroke:none;display:inline;font-family:NiseMegaDrive"/><path d="m55.625 158 1.797-2.691h9.771l2.303-3.672-2.303-2.887q-.463-.617-1.347-.617h-3.931l1.797-2.69h5.39q.9 0 1.517.785l1.264 1.598 1.712-2.775q.9-1.401 2.696-1.401h3.594l-4.998 8.001L79.885 158h-5.391l-1.98-2.523-1.053 1.682q-.561.84-1.46.841ZM83.479 149.031v-2.69h5.504l.73-1.234q.954-1.457 2.752-1.457h3.594l-1.685 2.691h4.38q.898 0 1.573.952l3.425 4.764q.394.561.113 1.178l-2.64 3.812q-.674.953-1.572.953h-7.188v-2.691h3.594q.898 0 1.46-.673l.955-1.626q.28-.392 0-.784l-1.798-2.578q-.491-.618-1.516-.617h-2.47L87.073 158h-5.391l5.616-8.969Zm15.275-5.381h3.594l3.763 5.269-1.516 2.803Zm4.662 0h6.121l-2.864 4.483ZM118.522 158v-14.35h5.391v3.587h8.985q.9 0 1.517.953l2.976 4.428H132l-1.123-1.794q-.674-.897-1.572-.897h-5.392V158Zm10.783-11.659-1.797-2.691h3.594l1.796 2.691Zm4.492 0L132 143.65h3.594l1.797 2.691ZM139.188 146.341v-2.691h18.87v2.691Zm0 3.586v-2.69h18.87v2.69q0 .898-.393 1.739l-2.752 5.493q-.45.84-1.348.841h-11.681v-2.691h7.188q.899 0 1.404-.897l2.191-4.485ZM159.855 149.031v-2.69h12.973q.954 0 1.46-.898l.842-1.793h5.391l-1.797 3.587q-.898 1.794-2.695 1.794h-3.595V158h-5.391v-8.969ZM199.84 155.084l-1.685 2.019q-.562.897-1.46.897h-14.377v-2.691h9.884q.716 0 1.292-.897l.505-.855v-7.216h-11.681v-2.691h17.971v9.865q0 .897-.449 1.569m2.246-6.053 2.696-5.381h3.594l-2.696 5.381Zm-.899 0v-5.381h2.696Z" style="fill:#fff"/></svg>