<svg xmlns="http://www.w3.org/2000/svg" xml:space="preserve" id="Layer_1" x="0" y="0" viewBox="0 0 3839 291.4"><style>.st1{fill:#fff}</style><path d="M274.8 102.1h114v189.3h-114zM0 102.1h114v189.3H0zM2615.566 102.046v114h-189.3v-114zM2852.3 209.2V103.1c0-.6-.5-1-1-1h-111.9c-.6 0-1 .5-1 1v99.2c0 49.2 39.9 89.1 89.1 89.1h318.6c45.5 0 82.5-35.7 83.1-80.1 0-.6-.5-1.1-1.1-1.1h-374.8c-.6.1-1-.4-1-1M3320.6 102.1h114v189.3h-114zM549.6 102.1h114v189.3h-114zM3725 102.1v77c0 17.2-14 31.2-31.2 31.2h-238.4v81.1h294.4c49.2 0 89.1-39.9 89.1-89.1V102.1zM736.3 0H1170v81.1H736.3zM1650.7 113c49.3 0 89.2 39.9 89.2 89.2s-39.9 89.2-89.2 89.2M1356.7 81.1h365.6V0h-390.5c-46.5 0-84.7 35.7-88.7 81.1zM1812.6 102.1h114v189.3h-114zM2189.5 102.1v57.1h-225.1v68.1h225.1v64.1h114V102.1zM2214.8 0h-313.5c-46.5 0-84.7 35.7-88.7 81.1h490.9c-4-45.4-42.2-81.1-88.7-81.1M3140.5 0H2827c-46.5 0-84.7 35.7-88.7 81.1h490.9C3225.1 35.7 3187 0 3140.5 0M3750.3 0h-429.8l.2 81.1H3839c-4-45.4-42.2-81.1-88.7-81.1M550 81.1H0V0h574.9c46.5 0 84.7 35.7 88.7 81.1z" class="st1"/><path d="m1650.9 113.2-193.1-.3v68h157.3c18.3 0 18.3 29.2 0 29.2h-227.2c-17.2 0-31.2-14-31.2-31.2v-77h-114v100.2c0 49.2 39.9 89.1 89.1 89.1h319c49.2 0 89.1-39.9 89.1-89.1 0-48.9-39.8-88.8-89-88.9M850.3 191.9V181h293.6v-68H868.7c-7.5 0-13.9-4.5-16.8-10.9H736.3v100.2c0 49.2 39.9 89.1 89.1 89.1H1170v-81.1H868.7c-10.2 0-18.4-8.3-18.4-18.4" class="st1"/></svg>