<svg xmlns="http://www.w3.org/2000/svg" xml:space="preserve" id="Layer_1" x="0" y="0" viewBox="0 0 3839 437.04"><style>.st0{fill:#fff}</style><path d="m652.59 428.71-8.32 8.33h179.4l-.62-.63-32.67-32.66H677.56zM550.9 48.77c-.11.19-.23.38-.34.58-.13.23-.27.46-.41.69-.06.11-.13.22-.19.33 9.81-8.46 22.76-15.14 39.71-16.72.05-.01.1-.01.16-.02 1.07-.1 2.15-.17 3.25-.23.18-.01.35-.03.53-.03 1.26-.06 2.54-.09 3.85-.09h192.93L823.67 0H597.46c-24.55 0-44.52 19.97-44.52 44.52 0 .57-.16 1.13-.45 1.61-.19.31-.39.65-.6.99-.08.13-.16.27-.24.41-.13.22-.26.43-.4.66-.12.19-.23.39-.35.58" class="st0"/><path d="M536.25 77.45c-.13.24-.26.48-.39.71l-.51.96c-.03.06-.06.11-.09.17-5.34 10.3-7.29 18.65-7.32 18.76l-.03.11c-.02.09-.05.17-.08.25-.03.09-.07.18-.11.27-.04.08-.08.16-.12.23l-.15.24c-.05.07-.1.14-.16.2-.06.07-.12.14-.19.2-.06.06-.12.12-.19.18s-.14.11-.22.16c-.07.05-.14.1-.22.15s-.16.08-.24.12-.16.08-.24.11c-.09.03-.19.06-.28.08-.08.02-.16.05-.24.06-.14.03-.29.04-.43.04-.04 0-.08.01-.11.01h-.16c-.05 0-.1-.02-.16-.02-.06-.01-.13-.01-.19-.02l-.11-.03q-.165-.03-.33-.09c-.08-.03-.16-.05-.24-.09-.1-.04-.2-.09-.29-.14-.08-.04-.15-.09-.23-.13-.09-.06-.17-.12-.25-.18-.07-.06-.14-.12-.2-.18-.07-.07-.14-.14-.2-.22-.06-.07-.12-.14-.17-.22-.06-.08-.11-.16-.16-.25-.05-.08-.09-.16-.13-.25s-.07-.18-.11-.27c-.03-.09-.06-.19-.09-.29-.02-.09-.04-.18-.05-.28-.02-.1-.03-.21-.03-.31 0-.05-.01-.09-.01-.14V40.81L316.57 39.6l-2.06-.01h-.14a23.21 23.21 0 0 0-19.54 10.61L69.21 397.54h120.54L373 115.42c.07-.11.17-.2.25-.3.07-.09.14-.18.22-.26.02-.01.03-.03.04-.05.06-.05.12-.09.18-.13.05-.04.09-.07.14-.1.09-.06.16-.13.26-.18l.06-.03c.08-.04.16-.06.25-.1.06-.02.11-.05.17-.07.08-.03.16-.07.24-.1.02-.01.04-.01.07-.01.1-.02.21-.02.31-.04.14-.02.27-.05.41-.05h129.91c.16 0 .32.02.47.04h.04l.12.03c.1.02.2.05.3.08.02.01.05.01.08.02s.07.03.1.04q.135.045.27.12c.03.02.07.03.1.05l.06.03c.1.06.2.12.29.19.03.02.05.03.08.05.01 0 .01.01.02.01.12.09.23.2.34.31.03.03.06.07.09.11.07.08.14.17.2.25.02.02.03.04.05.07s.03.07.05.1c.03.04.05.08.08.12.01.02.01.05.03.07.03.05.06.11.09.16.06.13.1.27.14.41.01.03.02.05.03.07 0 .01 0 .03.01.04.01.03.01.06.01.08.03.13.05.25.06.38.01.08 0 .16 0 .24v.27c-.01.09-.03.17-.04.26-.01.08-.02.17-.04.25-.01.04-.03.08-.04.12-.01.05-.03.09-.05.13 0 .01 0 .01-.01.01-.03.07-.04.14-.07.21q-.105.24-.24.45L327.07 397.54h120.54c2.24-3.45 8.46-13.02 17.26-26.58.13-.2.26-.4.39-.61 4.61-7.1 9.92-15.28 15.73-24.22l.55-.85c6.59-10.14 13.8-21.25 21.37-32.9.4-.61.79-1.22 1.19-1.84 3.86-5.94 7.81-12.02 11.8-18.17.36-.55.71-1.1 1.07-1.65 1.43-2.2 2.87-4.42 4.31-6.64.08-.13.17-.26.25-.39 3.28-5.05 6.58-10.13 9.88-15.22.29-.45.58-.9.88-1.35 3.21-4.94 6.41-9.87 9.6-14.78l1.27-1.96c.69-1.07 1.39-2.13 2.08-3.2.8-1.24 1.61-2.47 2.41-3.71.83-1.27 1.65-2.54 2.47-3.81.34-.52.68-1.05 1.02-1.57 1.84-2.83 3.67-5.65 5.48-8.44.81-1.25 1.62-2.49 2.42-3.72 2.94-4.52 5.82-8.97 8.65-13.32 2.42-3.72 4.79-7.37 7.11-10.94 2.08-3.21 4.12-6.35 6.11-9.41q1.485-2.295 2.94-4.53c1.32-2.03 2.62-4.03 3.89-5.99 11.34-17.46 20.49-31.54 25.84-39.78.9-1.39 1.86-2.75 2.87-4.07 3.02-3.96 6.5-7.57 10.37-10.78l.28-.23a64.1 64.1 0 0 1 18.8-10.8c1-.37 2.01-.72 3.02-1.04.12-.04.24-.07.35-.1a64 64 0 0 1 18.8-2.83h.15l8.02.02c.04 0 .07.01.11.01.13 0 .25.02.38.04.07.01.14.02.21.04.03.01.06.01.09.02h.01c.01 0 .02.01.04.01.08.02.15.05.22.08.06.02.12.04.18.07.08.03.15.08.23.12.05.02.09.05.13.07.04.03.09.05.13.07a4.158 4.158 0 0 1 .43.35c.01.01.02.02.03.02.03.03.06.07.09.11.08.09.16.19.24.29.04.06.08.12.11.18v.01c.01.02.03.04.05.06.01.01.01.02.01.03.04.07.07.14.1.21s.06.13.09.2c.03.08.06.16.08.25.01.05.03.09.04.14s.03.1.04.16c.03.18.05.36.05.54v282.32h109.19V39.5H597.46c-.81 0-1.61.01-2.41.04-.18.01-.35.01-.53.02-.65.02-1.3.05-1.94.09-.12.01-.24.02-.36.02-30.08 2.04-46.91 21.45-55.73 37.34-.08.15-.16.29-.24.44" class="st0"/><path d="m431.98 153.5 61.31-33.28H380.83l18.07 33.28zM634.12 182.92l36.81-64.59-2.67-.01h-.01c-.28 0-.55.01-.83.02-12.4.15-24.48 4.29-34.35 11.76-.67.51-1.33 1.03-1.98 1.57l-.28.23a61 61 0 0 0-5.98 5.7c-2.21 2.42-4.23 5-6.01 7.75-14.11 21.73-54.63 84.11-92.2 141.97-.63.97-1.25 1.93-1.88 2.89q-2.07 3.18-4.11 6.33c-1.13 1.74-2.25 3.47-3.37 5.19-.84 1.3-1.68 2.59-2.52 3.88-3.89 5.99-7.72 11.88-11.44 17.61-.59.91-1.18 1.81-1.76 2.71-.9 1.39-1.79 2.76-2.68 4.13-.1.15-.19.3-.29.44-23.03 35.46-41.27 63.53-45.65 70.28l18.07 33.29zM673.17 126.96l-33.29 58.4v247.28l33.29-33.28zM794.77 399.36l33.29 33.28V4.39l-33.29 33.29zM322.14 403.75l-59.99 32.57-1.32.72h204.7l-18.08-33.29z" class="st0"/><path d="M268.39 18.38 0 431.58l20.04-10.88 41.27-22.41L289.62 46.81c5.47-8.42 14.71-13.44 24.74-13.44h.17l2.57.02 206.08 1.22 11.85-19.42L544.3 0H302.25c-13.72 0-26.38 6.87-33.86 18.38M64.28 403.75 4.7 436.09l-1.74.95h204.7l-18.07-33.29zM528.03 38.59v40c.12-.27.25-.54.37-.81.05-.12.11-.24.16-.36.28-.61.56-1.21.85-1.82l.18-.39.75-1.56c.06-.13.12-.26.19-.39.29-.61.59-1.21.89-1.82.07-.13.13-.27.2-.4.25-.51.51-1.02.77-1.53l.21-.42c.3-.6.61-1.19.91-1.79.07-.13.14-.26.2-.4.26-.49.51-.98.77-1.47.08-.15.16-.3.23-.45.31-.58.61-1.16.91-1.73.06-.12.13-.24.19-.36.26-.48.51-.96.77-1.43.08-.15.16-.29.24-.44.3-.55.6-1.1.89-1.64.06-.12.13-.23.19-.34.25-.45.49-.9.74-1.34.08-.14.16-.29.24-.43.28-.51.57-1.02.84-1.52.06-.11.12-.21.18-.32l.68-1.21c.08-.14.16-.29.24-.43l.77-1.36c.06-.1.11-.19.16-.29.21-.38.42-.74.63-1.1.07-.12.13-.23.2-.35.24-.42.47-.82.7-1.21l.12-.21c.19-.34.38-.66.56-.97.06-.1.12-.21.18-.31a29 29 0 0 0 .59-1.02c.02-.04.04-.07.07-.11.17-.3.34-.58.5-.84.04-.07.09-.15.13-.22.36-.6.66-1.12.92-1.55.01-.01.02-.03.03-.04.13-.21.24-.41.34-.57V7.95L536.3 25.03zM274.29 422.66l44.89-24.37 55.44-85.35 121.64-187.26-61.32 33.28-177.08 272.62z" class="st0"/><path d="m393.44 156.47-18.07-33.29-180.32 277.6 18.07 33.29zM1499.89 18.38l-90.44 139.24 33.29 9.86 78.44-120.76a29.42 29.42 0 0 1 24.75-13.44h324.25L1903.45 0h-369.71c-13.72 0-26.38 6.87-33.85 18.38M1874.56 37.68v49.25l33.28 33.28V4.39l-4.93 4.93z" class="st0"/><path d="m1526.38 50.11-79.2 121.93v225.5h445.22v-205h-151.49l-29.63 45.61h68.83c.05 0 .09.01.14.01.08 0 .16.01.24.02l.18.03c.04.01.08.01.12.02.05.01.1.02.15.04.08.02.15.05.22.07.05.02.09.03.14.05h.01c.02.01.04.02.07.03.07.03.14.07.21.1.07.04.13.07.2.11.02.01.04.02.06.04.01.01.03.02.04.03.03.02.05.04.08.06.06.05.12.09.18.14.04.04.08.07.12.11l.09.09c.04.04.08.08.11.12l.14.17c.02.03.05.06.07.09.01.01.02.02.03.04s.03.05.04.07c.04.06.07.12.11.19s.08.14.11.21c.01.02.02.04.03.07v.01c.02.04.03.09.04.13.03.08.05.15.08.23.01.05.03.1.04.15.01.04.02.08.02.12l.03.18c.01.08.01.16.02.24 0 .05.01.09.01.14v99.18c0 .05-.01.09-.01.14 0 .08-.01.16-.02.24l-.03.18c-.01.04-.01.08-.02.12-.01.05-.02.1-.04.14-.02.08-.05.16-.08.23-.02.04-.03.09-.04.13v.01c-.01.02-.02.05-.03.07-.03.07-.07.14-.11.21-.03.06-.07.13-.11.19-.01.02-.02.05-.04.07-.01.02-.03.03-.04.05-.02.03-.04.05-.06.07-.04.06-.09.12-.14.18-.04.04-.07.08-.11.12l-.09.09c-.04.04-.08.07-.12.11-.06.05-.12.09-.18.14-.02.02-.05.04-.07.06-.02.01-.03.03-.05.04a.2.2 0 0 0-.06.04c-.06.04-.13.07-.19.11-.07.04-.13.07-.2.1-.02.01-.05.02-.07.04h-.01c-.03.01-.06.02-.1.03-.12.04-.24.08-.36.11-.04.01-.08.03-.12.04-.02 0-.05 0-.07.01-.17.03-.34.05-.52.05h-185.02c-18.69 0-34.34-13.31-37.95-30.94-.52-2.52-.79-5.13-.79-7.8V190.44c0-.09.01-.18.02-.27 0-.04 0-.07.01-.11.01-.09.03-.18.05-.26l.03-.13.06-.21c.01-.04.03-.08.05-.12.03-.08.06-.17.1-.25.02-.03.04-.07.05-.1.04-.08.08-.16.13-.24l58.59-90.2a29.4 29.4 0 0 1 22.88-13.38c.62-.04 1.24-.06 1.87-.06h228.14V39.5h-322.43c-7.94 0-15.25 3.96-19.56 10.61" class="st0"/><path d="M1595.86 300.94v-96.48l-33.29-9.86v110.2c0 .56.01 1.12.04 1.67.87 17.16 15.11 30.86 32.49 30.86h177.5l-4.93-4.93-28.36-28.36h-140.36a3.1 3.1 0 0 1-3.09-3.1M1413.91 435.19l-1.84 1.85h515.44l-3.7-3.7-29.59-29.59h-448.86zM1647.32 124.61h256.14l-2.09-2.09-31.2-31.2h-229.96c-7.92 0-15.23 3.97-19.54 10.61l-56.33 86.72 33.29 9.86 47.08-72.49c.57-.88 1.55-1.41 2.61-1.41" class="st0"/><path d="m1642.07 272.19 61.32-33.29 32.22-49.61-18.07-33.29zM1723 153.04l18.07 33.29h153.15l33.29-33.29zM1743.72 299.65l33.28 33.29v-84.19l-33.28 33.29zM1645.03 277.65h94.3l28.35-28.36 4.93-4.93h-66.26zM1407.68 432.64l33.29-33.28V173.43l-33.29-9.86zM1898.61 399.36l33.29 33.28V157.43l-33.29 33.29zM2528.21 185.29h91.46v52.86h-91.46zM2488.71 273.25l33.29-33.28v-56.5l-33.29-33.28zM2650.91 273.79l-29.43-29.43h-95.09l-26.63 26.63-6.66 6.66h161.67zM2650.91 149.66l3.86-3.87H2493.1l3.7 3.7 29.59 29.59h95.09zM2659.16 150.19l-33.28 33.28v56.5l33.28 33.28zM3228.83 0h-382.16c-13.72 0-26.38 6.87-33.86 18.38L2698.2 194.82c-8.68 13.36-8.68 30.63 0 43.99l116.82 179.85c7.48 11.51 20.13 18.38 33.86 18.38h379.95l-3.7-3.7-29.59-29.59h-334.48c-10.03 0-19.28-5.02-24.75-13.44l-102.26-157.42c-6.34-9.77-6.34-22.39 0-32.15L2834.1 46.72c5.47-8.41 14.72-13.44 24.75-13.44h336.7z" class="st0"/><path d="M2954.19 98.54a29.42 29.42 0 0 1 24.75-13.44h214.79V39.5h-334.88c-7.92 0-15.23 3.97-19.54 10.61l-100.04 154.01a23.32 23.32 0 0 0 0 25.39l102.26 157.42c3.78 5.81 9.84 9.57 16.6 10.42q1.455.18 2.94.18h332.66v-54h-218.02c-10.03 0-19.28-5.02-24.75-13.44l-63.15-97.22c-6.34-9.76-6.34-22.39 0-32.15zM3199.94 399.36l33.29 33.28v-124.2l-33.29 33.28z" class="st0"/><path d="M2986.04 124.61h242.79l-3.7-3.7-29.59-29.59h-216.61c-7.92 0-15.23 3.97-19.54 10.61l-66.38 102.19a23.34 23.34 0 0 0-3.23 17.63c.59 2.71 1.66 5.34 3.23 7.75l63.15 97.22a23.22 23.22 0 0 0 19.54 10.61h219.84l29.59-29.59 3.7-3.7h-246.02c-1.05 0-2.03-.53-2.6-1.41l-48.91-75.29a19.35 19.35 0 0 1 0-21.05l52.14-80.27c.57-.88 1.55-1.41 2.6-1.41M3233.23 4.39l-2.93 2.93-30.36 30.36v49.25l33.29 33.28zM875.3 432.87l-4.16 4.17h496.63l-33.28-33.29H904.43zM1290.83 213.65l13.72-21.12h-287.52c-.16 0-.31-.02-.47-.04-.03-.01-.07-.01-.1-.02-.04-.01-.08-.02-.11-.03-.08-.02-.16-.04-.25-.07-.05-.02-.11-.04-.16-.06-.04-.02-.08-.03-.12-.04-.01 0-.02-.01-.03-.01-.05-.02-.09-.05-.13-.07-.05-.02-.1-.05-.14-.07-.07-.04-.13-.08-.19-.12l-.11-.08s-.01 0-.01-.01c-.02-.02-.05-.03-.07-.05-.12-.09-.23-.2-.34-.31-.01-.01-.02-.01-.02-.02l-.01-.01c-.02-.02-.04-.05-.06-.07a3 3 0 0 1-.2-.26c-.02-.02-.03-.04-.05-.07a.5.5 0 0 1-.05-.1c-.03-.04-.05-.08-.08-.12-.01-.02-.01-.05-.03-.07-.03-.05-.06-.1-.09-.16-.06-.15-.11-.3-.16-.45 0-.01-.01-.02-.01-.04 0-.01 0-.03-.01-.04-.01-.03-.01-.06-.01-.08a2.5 2.5 0 0 1-.06-.38c-.01-.07 0-.15 0-.22v-.29c.01-.08.03-.17.04-.25s.02-.17.04-.25c.01-.04.03-.08.04-.12.01-.05.03-.09.05-.13v-.01c.03-.07.04-.15.08-.22q.105-.24.24-.45l57.94-89.2a29.42 29.42 0 0 1 24.75-13.44h235.55V39.5H992.71c-1.49 0-2.95.14-4.37.41a23.22 23.22 0 0 0-15.16 10.19l-66.92 103.01v244.42h426.42v-54h-307.06c-.18 0-.35-.02-.52-.05-.02 0-.05 0-.07-.01l-.12-.03c-.12-.03-.24-.07-.36-.11-.03-.01-.06-.02-.1-.03h-.01a1 1 0 0 0-.07-.03c-.07-.03-.14-.07-.2-.1-.07-.04-.13-.07-.2-.11a.2.2 0 0 1-.06-.04c-.02-.01-.03-.02-.04-.03-.03-.02-.05-.04-.07-.06-.06-.05-.12-.09-.18-.14-.04-.03-.08-.07-.12-.11l-.09-.09c-.04-.04-.08-.08-.11-.12-.05-.06-.09-.11-.13-.17-.02-.03-.05-.06-.07-.09a.1.1 0 0 1-.03-.04c-.01-.02-.03-.05-.04-.07-.04-.06-.07-.12-.11-.19s-.08-.14-.11-.21a1 1 0 0 1-.03-.07v-.01c-.02-.04-.03-.09-.04-.13-.03-.08-.05-.15-.08-.23-.01-.05-.03-.1-.04-.15-.01-.04-.02-.08-.02-.12l-.03-.18c-.01-.08-.01-.16-.02-.24 0-.05-.01-.09-.01-.14v-99.18c0-.05.01-.09.01-.14 0-.08.01-.16.02-.24l.03-.18c.01-.04.01-.08.02-.12.01-.05.02-.1.04-.15.02-.08.05-.16.08-.23.02-.04.03-.09.04-.13v-.01c.01-.02.02-.04.03-.07.03-.07.07-.14.11-.21.03-.06.07-.13.11-.19.01-.02.03-.05.04-.07.01-.01.02-.02.03-.04.02-.03.05-.06.07-.08.04-.06.09-.12.14-.17.04-.04.07-.08.11-.12l.09-.09c.04-.04.08-.07.12-.11.06-.05.12-.1.18-.14.03-.02.05-.04.07-.06.01-.01.03-.02.04-.03a1.281 1.281 0 0 1 .26-.15c.07-.04.13-.07.21-.1.02-.01.04-.02.07-.03h.01c.05-.02.09-.03.14-.05.07-.03.15-.05.22-.07.05-.01.1-.03.15-.04.04-.01.08-.02.12-.02l.18-.03c.08-.01.16-.01.25-.02.05 0 .09-.01.14-.01h249.3zM866.75 432.64l33.29-33.28V154.52l-33.29-9.87z" class="st0"/><path d="m1066.41 304.04-33.29 33.29h301.37l33.28-33.29zM1028.73 332.94l33.29-33.29v-17.61l-33.29-33.29zM1278.33 250.93l-3.57-6.57h-241.64l33.29 33.29h226.42zM1373.76 158.5l-61.32 33.29-32.22 49.61 18.07 33.28zM1338.88 399.36l33.29 33.28v-124.2l-33.29 33.28zM946.68 18.38 868.52 138.7l33.29 9.86 66.16-101.84c5.47-8.41 14.72-13.43 24.75-13.43h341.77L1367.77 0H980.54c-13.73 0-26.38 6.87-33.86 18.38M1372.17 4.39l-33.29 33.29v49.25l33.29 33.28z" class="st0"/><path d="M1102.08 125.47c.05-.05.1-.08.15-.13q.195-.165.42-.3c.06-.04.13-.07.19-.11.16-.08.32-.14.48-.19.06-.02.11-.04.17-.05.23-.05.46-.09.7-.09h263.57l-33.29-33.29H1097.1c-7.92 0-15.23 3.97-19.54 10.61l-51.28 78.94 61.32-33.29 14.01-21.56c.14-.2.3-.37.47-.54" class="st0"/><path d="M1370.8 153.04h-280.22l-61.32 33.29h280.22zM2241.73 0H1963.5l33.29 33.29h232.76c10.03 0 19.28 5.02 24.75 13.44l228.36 351.57 61.32 33.29-268.39-413.2C2268.11 6.87 2255.46 0 2241.73 0M2479.7 403.75h-125.31l-.39.72-17.68 32.57h204.7zM2279.84 360.96l3.09-5.69 14.98-27.59h-151.66l6.69 33.28zM2348.93 400.78l-45.56-70.14-18.07 33.29 45.56 70.14zM2114.01 290.5v108.86l33.29 33.28v-67.91l-12.13-27.05z" class="st0"/><path d="M2158.43 107.64c-.11-.15-.23-.29-.35-.44-.28-.35-.56-.7-.85-1.03-.13-.15-.26-.3-.4-.44-.33-.36-.67-.7-1.01-1.04l-.27-.27c-.44-.41-.89-.8-1.35-1.18-.12-.1-.25-.19-.38-.29-.35-.27-.7-.53-1.06-.79-.17-.12-.33-.23-.5-.34-.35-.23-.71-.45-1.07-.67-.15-.09-.3-.18-.46-.27-.5-.28-1.02-.55-1.54-.79-.1-.04-.2-.08-.29-.13-.44-.2-.88-.38-1.32-.55-.19-.07-.37-.14-.56-.2-.38-.13-.76-.26-1.14-.37-.19-.06-.38-.11-.58-.17-.47-.12-.94-.24-1.41-.33-.1-.02-.2-.05-.3-.07-.57-.11-1.14-.19-1.71-.26-.19-.02-.37-.04-.56-.05q-.615-.06-1.23-.09c-.21-.01-.42-.02-.63-.02-.37-.01-.73 0-1.1.01-.28.01-.57.01-.85.03-.37.02-.74.06-1.11.1-.27.03-.54.05-.81.09-.41.06-.82.13-1.22.21-.24.04-.47.08-.71.13-.6.13-1.19.28-1.79.46l-.13.03c-8.08 2.39-14.01 8.23-16.47 15.74-.03.09-.05.19-.08.28-.76 2.42-1.17 5.01-1.17 7.71v135.34l33.29-33.29v-62.77a3.104 3.104 0 0 1 5.71-1.69l41.18 63.39 61.32 33.29-95.98-147.76c-.36-.5-.73-1.01-1.11-1.51" class="st0"/><path d="m2151.69 229.11-33.29 33.29h134.14l-61.32-33.29zM1959.11 432.64l33.29-33.28V37.68l-33.29-33.29zM1964.13 436.41l-.63.63h179.4l-4.16-4.17-29.12-29.12h-112.83zM2141.9 337.52l-2.36-11.76-9.4-14.45z" class="st0"/><path d="M2303.13 321.47c.12 0 .24.03.36.05.12.01.25.02.37.05.02 0 .03.01.05.01.09.02.16.07.25.1.02.01.03.01.05.02.13.05.26.08.38.15.02.01.03.02.05.03.09.05.17.12.25.18.01.01.02.02.04.03.1.07.21.13.3.21l.04.04c.08.08.14.17.22.26.08.1.18.19.25.3l48.49 74.66h120.54L2249.1 50.11a23.22 23.22 0 0 0-19.54-10.61h-230.95v358.04h109.19V275.98c0-.1.01-.19.02-.28.01-.06.01-.13.02-.19 0-.02 0-.03.01-.05.01-.06.03-.12.04-.17.03-.11.05-.22.09-.32.02-.07.05-.13.08-.19.04-.09.07-.18.12-.27.01-.01.01-.03.02-.04.03-.05.07-.1.1-.15.05-.08.1-.16.16-.24.02-.02.03-.04.04-.06.03-.04.07-.07.11-.11.06-.07.12-.13.19-.2.03-.03.06-.06.09-.08l.12-.09c.06-.05.12-.09.19-.14.05-.03.1-.07.16-.1.02-.01.04-.03.06-.04s.04-.01.06-.02c.06-.03.11-.06.17-.08.07-.03.14-.06.21-.08.04-.02.09-.04.13-.05.01 0 .02-.01.03-.01l.13-.03c.04-.01.07-.02.1-.03.04-.01.08-.01.12-.01.05-.01.1-.03.16-.03h.14c.07-.01.14-.01.21-.01h.18c.05 0 .09.01.13.01.07.01.13.01.2.02s.13.02.2.04c.05.01.09.02.14.04.05.01.1.03.15.05.07.02.14.05.21.08.05.02.1.04.14.06s.07.03.11.05c.08.04.15.09.22.14.05.03.1.06.14.09.02.02.04.03.06.05.08.06.15.13.22.19.03.02.06.05.08.07s.04.03.05.05l.03.03c.07.07.12.15.18.22.05.06.1.12.14.18.01.01.01.02.02.02l30.64 47.18h159.01zm-192.23-52.86c-.05 0-.09-.01-.13-.01a2 2 0 0 1-.42-.05c-.04-.01-.08-.01-.12-.02-.05-.01-.1-.03-.15-.04-.07-.02-.15-.05-.22-.07-.05-.02-.09-.03-.14-.05h-.01a1 1 0 0 0-.07-.03c-.07-.03-.14-.07-.21-.1-.07-.04-.13-.07-.2-.11a.2.2 0 0 1-.06-.04c-.01-.01-.03-.02-.04-.03-.03-.02-.05-.04-.08-.06-.06-.05-.12-.09-.18-.14-.04-.04-.08-.07-.12-.11l-.09-.09c-.04-.04-.08-.08-.11-.12-.05-.06-.09-.12-.14-.18-.02-.03-.04-.05-.06-.08-.01-.01-.02-.03-.03-.04-.01-.02-.03-.05-.04-.07-.04-.06-.07-.12-.11-.19s-.08-.14-.11-.21a1 1 0 0 1-.03-.07v-.01c-.02-.04-.03-.09-.04-.13-.03-.08-.05-.15-.08-.23-.01-.05-.03-.1-.04-.15-.01-.04-.02-.08-.02-.12l-.03-.18c-.01-.08-.01-.16-.02-.24 0-.05-.01-.09-.01-.14V122.67c0-10.79 5.15-20.15 13.63-25.73 2.56-1.68 5.42-3.04 8.54-3.96.31-.09.62-.16.94-.24 10.56-2.8 21.13-.11 28.76 7.01.06.05.12.1.17.15.02.01.03.03.04.05 1.8 1.71 3.43 3.66 4.85 5.85l102.64 158.01c.09.14.17.3.24.45.03.07.05.15.08.23.02.05.03.09.05.14.01.04.03.08.04.12.02.09.03.17.04.26.01.08.03.16.04.24v.5c-.01.13-.04.25-.06.38-.01.03-.01.06-.01.08 0 .01 0 .03-.01.04 0 .01-.01.01-.01.02-.04.16-.09.31-.16.47-.02.06-.06.11-.09.16-.01.02-.01.05-.03.07-.02.04-.05.08-.08.12-.02.03-.03.07-.05.1-.02.02-.03.04-.05.07-.06.09-.13.17-.2.26-.02.02-.03.04-.05.06-.01.01-.01.02-.02.02-.01.01-.02.01-.02.02-.11.11-.22.22-.34.31-.02.02-.05.03-.07.05l-.01.01-.11.08c-.06.04-.13.09-.19.12-.05.03-.1.05-.14.07-.05.02-.09.05-.14.07-.01 0-.02.01-.02.01-.04.02-.08.03-.12.04-.05.02-.11.04-.16.06-.08.03-.16.05-.25.07l-.11.03c-.03.01-.07.01-.1.02-.15.02-.31.04-.47.04H2110.9zM3714 418.65l118.49-182.42c8.68-13.36 8.68-30.63 0-43.99L3719.55 18.38C3712.08 6.87 3699.42 0 3685.7 0h-413.54l33.29 33.29h368.08c2.51 0 4.97.31 7.33.92 1.03.26 2.03.59 3.02.96.39.15.78.3 1.17.47 1.27.54 2.51 1.16 3.69 1.88.32.2.64.4.96.61 1.85 1.21 3.58 2.63 5.13 4.25 1.27 1.33 2.43 2.79 3.45 4.36l98.37 151.44c5.55 8.54 6.24 19.28 2.08 28.37-.59 1.3-1.29 2.56-2.08 3.78l-103.92 159.99a29.42 29.42 0 0 1-24.75 13.44h-362.53l-29.59 29.59-3.7 3.7h407.99c13.72-.01 26.37-6.89 33.85-18.4" class="st0"/><path d="M3449.92 299.65V129l-30.03-30.03-3.25-3.26v237.23l30.73-30.73z" class="st0"/><path d="M3667.72 212.43c-.04-.49-.09-.98-.16-1.47v-.03c-.07-.51-.17-1.02-.27-1.52-.02-.11-.05-.22-.08-.33-.09-.41-.2-.82-.31-1.22l-.09-.3c-.14-.47-.29-.94-.47-1.4-.01-.02-.01-.04-.02-.06-.18-.48-.38-.95-.59-1.42-.05-.11-.1-.22-.16-.33-.17-.36-.35-.71-.53-1.06l-.21-.39c-.25-.45-.51-.89-.79-1.32v-.01l-20.4-31.41-44.31-68.21c-3.24-4.98-8.15-8.46-13.75-9.89-1.87-.48-3.81-.72-5.79-.72h-158.76l3.26 3.26 30.03 30.03h118.37c1.05 0 2.03.53 2.6 1.41l50.47 77.7c2.19 3.38 3.26 7.3 3.09 11.35q-.03.615-.09 1.23c0 .03-.01.11-.02.14-.03.32-.09.71-.16 1.1 0 .01-.02.09-.02.1-.07.41-.15.77-.23 1.13l-.05.2c-.09.37-.18.7-.28 1.02l-.1.3c-.12.35-.22.64-.33.93-.05.13-.1.25-.16.38l-.05.11c-.12.29-.21.51-.31.72-.09.19-.19.38-.28.57l-.11.22c-.07.14-.14.27-.21.4a25 25 0 0 1-.7 1.17l-50.58 77.86c-.57.88-1.55 1.41-2.6 1.41h-118.26l-33.29 33.29h158.66c.52 0 1.04-.02 1.56-.05.08-.01.15-.02.23-.02.45-.03.89-.08 1.33-.14l.19-.03c.46-.07.92-.14 1.37-.24.04-.01.07-.02.11-.02.48-.1.97-.22 1.44-.35.01 0 .02 0 .02-.01 2.02-.56 3.96-1.4 5.77-2.49.01-.01.03-.02.04-.03.42-.25.83-.52 1.23-.8.41-.29.8-.58 1.18-.88.41-.32.77-.63 1.13-.95.18-.16.34-.31.5-.47.11-.1.21-.2.31-.31.09-.09.18-.17.26-.26.13-.14.26-.27.38-.4l.6-.66.04-.04.26-.32c.24-.29.47-.57.69-.87.05-.07.1-.13.15-.2.25-.35.5-.7.73-1.06 0-.01.01-.01.01-.02l64.82-99.79c.28-.43.54-.88.79-1.32.07-.12.13-.24.2-.37q.285-.525.54-1.08c.05-.11.1-.22.15-.32.21-.46.4-.93.58-1.4.24-.63.44-1.28.62-1.92.12-.45.24-.89.34-1.34.11-.51.2-1.03.28-1.55l.03-.24c.05-.35.08-.7.11-1.06.05-.54.08-1.09.09-1.64.01-.66 0-1.32-.04-1.98.02-.12.01-.21 0-.31M3301.05 37.68l-33.29-33.29v428.25l33.29-33.28z" class="st0"/><path d="m3687.51 386.93 103.92-159.99c2.5-3.86 3.76-8.27 3.76-12.69a23.25 23.25 0 0 0-3.76-12.69l-98.37-151.44a23.1 23.1 0 0 0-3.7-4.4 23.16 23.16 0 0 0-10.05-5.48c-1.87-.48-3.81-.72-5.79-.72h-366.26v358.04h360.71a23.3 23.3 0 0 0 19.54-10.63m-84.19-55.23c-.02.02-.04.06-.05.07-.27.36-.58.74-.89 1.12-.12.14-.23.28-.35.41-.26.3-.52.58-.77.85l-.72.75c-.16.16-.32.32-.48.47-.41.39-.82.76-1.25 1.13-.02.02-.04.03-.05.05a29.35 29.35 0 0 1-11.09 5.89l-.09.03c-.58.16-1.18.3-1.77.43-.07.01-.13.03-.2.04-.56.11-1.12.21-1.69.29-.1.01-.19.03-.29.05-.55.07-1.1.13-1.66.17l-.32.03c-.65.04-1.31.07-1.97.07h-166.17c-.18 0-.35-.02-.52-.05-.02 0-.05 0-.07-.01a.6.6 0 0 1-.12-.04c-.12-.03-.24-.07-.36-.11l-.1-.03h-.01c-.02-.01-.05-.02-.07-.04-.07-.03-.14-.07-.2-.1-.07-.04-.13-.07-.2-.11a.2.2 0 0 1-.06-.04c-.02-.01-.03-.03-.05-.04a.3.3 0 0 0-.07-.05c-.06-.05-.12-.09-.18-.14-.04-.03-.08-.07-.12-.11l-.09-.09c-.04-.04-.07-.08-.11-.12-.05-.06-.09-.12-.14-.18a.3.3 0 0 1-.05-.07c-.01-.02-.03-.03-.04-.05a1.281 1.281 0 0 1-.15-.26 2 2 0 0 1-.13-.27v-.01c-.02-.05-.03-.09-.05-.14-.03-.07-.05-.15-.07-.22-.01-.05-.03-.1-.04-.15-.01-.04-.02-.08-.02-.12l-.03-.18c-.01-.08-.02-.16-.02-.25 0-.05-.01-.09-.01-.13V88.21c0-.05.01-.09.01-.14 0-.08.01-.16.02-.25l.03-.18c.01-.04.01-.08.02-.12.01-.05.02-.1.04-.15.02-.07.05-.15.07-.22.02-.05.03-.09.05-.14V87c.01-.02.02-.04.03-.07.03-.07.07-.14.1-.2.04-.07.07-.13.11-.2a.2.2 0 0 1 .04-.06c.01-.01.02-.03.03-.04.02-.03.04-.05.06-.08.05-.06.09-.12.14-.18.04-.04.07-.08.11-.12l.09-.09c.04-.04.08-.08.12-.11.06-.05.12-.09.18-.14.03-.02.05-.04.08-.06.01-.01.02-.02.04-.03s.04-.02.07-.04c.06-.04.13-.08.2-.11.07-.04.14-.07.21-.1l.06-.03h.01c.05-.02.09-.03.14-.05.07-.03.14-.05.22-.07.05-.01.1-.03.15-.04.04-.01.08-.01.12-.02l.18-.03c.08-.01.17-.02.25-.02.05 0 .09-.01.14-.01h166.26c3.07 0 6.06.48 8.9 1.37.06.02.12.03.18.05 3.11 1 6.02 2.53 8.63 4.49 2.72 2.05 5.12 4.57 7.04 7.53l64.71 99.62c.35.55.69 1.11 1.01 1.68.09.16.18.33.27.49.11.21.24.43.35.64.11.23.22.46.32.69.07.15.14.29.21.44.26.58.51 1.17.73 1.77.03.07.05.15.08.22.19.52.36 1.05.52 1.58.06.19.11.39.17.58.05.18.11.37.16.55.01.04.02.09.03.12.07.25.12.52.18.79l.09.37c.11.54.22 1.09.3 1.64l.02.11c.01.05.01.11.02.16.01.06.01.12.02.18.05.36.1.73.14 1.09 0 .02.01.11.01.13.04.44.08.92.1 1.4v.03c.02.47.03.94.03 1.42v.17c0 .58-.03 1.17-.07 1.76l-.03.38c-.02.23-.03.46-.05.69l-.02.2c-.03.26-.07.53-.11.79-.01.09-.02.18-.04.27-.01.1-.02.2-.04.3 0 .01-.02.09-.02.11-.08.48-.16.92-.25 1.35 0 0-.02.12-.03.13-.1.45-.2.89-.32 1.34l-.06.24c-.03.12-.07.23-.1.35-.05.16-.09.32-.14.48-.16.51-.32 1.02-.51 1.52-.03.1-.07.19-.1.29l-.1.26c-.16.42-.33.84-.52 1.25l-.07.16c-.02.05-.05.1-.07.15-.03.07-.06.13-.09.2-.13.29-.26.56-.4.82l-.09.18c-.1.19-.19.36-.29.54-.08.15-.16.3-.24.44-.04.07-.08.15-.12.23l-.13.23c-.25.44-.5.84-.76 1.23l-64.82 99.79c-.36.56-.73 1.09-1.12 1.61" class="st0"/></svg>