<svg xmlns="http://www.w3.org/2000/svg" viewBox="0 0 1300 336.4"><path d="M1269.871 88.698 1300 19.368h-218.429l-84.928 196.726h130.912l-26.914 57.618H923.418l55.929-127.777H849.102l24.919-57.237h140.477l30.128-69.33H822.611l-84.93 196.726h128.921l-26.915 57.618H547.819l25.916-57.618h61.856l30.109-70.159h-74.303l24.919-57.237h136.101l31.106-69.33H563.291l-97.379 216.28h-14.907V9.684L315.966 160.327V0L0 334.416h135.577L254.016 220.74v111.682l111.828-114.674v118.663h788.088l84.565-190.476h-128.463l24.921-57.237z" style="fill:#fff"/></svg>