<svg xmlns="http://www.w3.org/2000/svg" width="1461.33" height="397.82" viewBox="0 0 386.643 105.257"><path d="m364.32.941-19.325 7.246v7.383l4.222-1.583v8.004l8.454 3.17V10.819l6.649-2.493Z" style="display:inline;fill-opacity:1;stroke-width:1.30421;stroke-miterlimit:4;stroke-dasharray:none;stroke-opacity:1;paint-order:fill markers;stroke:#fff;fill:#fff"/><path d="m365.608.941 19.325 7.246v7.383l-4.221-1.583v.006l-8.454-3.169v-.004l-6.65-2.494Z" style="display:inline;fill:none;fill-opacity:1;stroke-width:1.30421;stroke-miterlimit:4;stroke-dasharray:none;stroke-opacity:1;paint-order:fill markers;stroke:#fff"/><path d="m365.345.562.933.349v7.385l-.933-.349Z" style="display:inline;fill-opacity:1;stroke-width:.778924;stroke-miterlimit:4;stroke-dasharray:none;stroke-opacity:1;paint-order:fill markers;fill:#fff;stroke:#fff"/><path d="m365.608 35.582 19.325-7.246v-7.383l-4.221 1.583v-8.003l-8.454-3.17v14.341l-6.65 2.494Z" style="display:inline;fill-opacity:1;stroke-width:1.30421;stroke-miterlimit:4;stroke-dasharray:none;stroke-opacity:1;paint-order:fill markers;stroke:#fff;fill:#fff"/><path d="m364.32 35.582-19.325-7.246v-7.383l4.222 1.583v-.006l8.454 3.17v.004l6.649 2.493Z" style="display:inline;fill:none;fill-opacity:1;stroke-width:1.30421;stroke-miterlimit:4;stroke-dasharray:none;stroke-opacity:1;paint-order:fill markers;stroke:#fff"/><path d="m364.583 35.961-.933-.349v-7.385l.933.35Z" style="display:inline;fill-opacity:1;stroke-width:.778924;stroke-miterlimit:4;stroke-dasharray:none;stroke-opacity:1;paint-order:fill markers;stroke:#fff;fill:#fff"/><path d="M.299 2.303v8.135h14.212v23.783h10.193V10.438h14.213V2.303ZM39.757 2.303v31.918H49.95V22.688h21.965v11.533h10.192V2.303H71.915v11.436H49.95V2.303ZM107.829 1.824c-13.351 0-16.318.335-18.758 2.201-2.441 1.867-3.158 5.121-3.158 14.021 0 9.379.669 12.538 3.158 14.452 2.44 1.866 5.407 2.201 18.854 2.201 13.207 0 16.222-.335 18.663-2.201s3.158-5.073 3.158-14.26c0-9.14-.718-12.346-3.158-14.213s-5.408-2.201-18.759-2.201m0 8.279c8.901 0 9.954.143 11.054 1.435.862 1.053 1.149 2.871 1.149 7.609 0 3.876-.335 5.264-1.436 6.125-1.292.957-2.871 1.149-10.671 1.149-8.039 0-9.571-.144-10.863-1.149-1.148-.909-1.435-2.201-1.435-6.173 0-4.067.191-5.886.765-6.987.957-1.866 1.867-2.009 11.437-2.009M133.594 2.303v31.918h9.571l-.239-23.879h1.722l12.012 23.879h8.087l12.011-23.879h1.627l-.239 23.879h9.57V2.303h-17.514l-9.523 20.72-9.475-20.72ZM191.047 23.645v1.531c0 4.403.718 6.269 2.919 7.657 2.249 1.435 6.126 1.866 16.031 1.866 9.523 0 13.543-.239 15.457-.957 3.302-1.244 4.641-3.972 4.641-9.523 0-4.45-.813-6.603-3.014-8.039-2.058-1.292-4.116-1.531-14.643-1.866-6.748-.192-9.38-.335-10.241-.575-1.005-.239-1.436-.861-1.436-2.057 0-2.345.67-2.536 8.901-2.536 6.891 0 8.087.095 8.901.574.718.43.861.861.957 2.632h9.379c.048-.622.048-1.292.048-1.484 0-3.78-.766-5.79-2.68-7.082-2.249-1.531-5.599-1.962-14.882-1.962-7.657 0-12.059.191-13.925.574-4.403.957-6.126 3.685-6.126 9.762 0 7.035 2.202 9.045 10.097 9.284l2.584.095 5.169.24 7.656.287c3.111.048 3.828.526 3.828 2.44 0 2.824 0 2.824-10.432 2.824-6.843 0-7.895-.096-8.805-.67-.765-.479-.957-1.101-.957-3.015ZM254.753 1.824c-13.351 0-16.318.335-18.758 2.201-2.441 1.867-3.159 5.121-3.159 14.021 0 9.379.67 12.538 3.159 14.452 2.44 1.866 5.407 2.201 18.854 2.201 13.207 0 16.222-.335 18.663-2.201s3.158-5.073 3.158-14.26c0-9.14-.718-12.346-3.158-14.213s-5.408-2.201-18.759-2.201m0 8.279c8.901 0 9.954.143 11.054 1.435.862 1.053 1.149 2.871 1.149 7.609 0 3.876-.335 5.264-1.436 6.125-1.292.957-2.871 1.149-10.671 1.149-8.039 0-9.571-.144-10.863-1.149-1.148-.909-1.435-2.201-1.435-6.173 0-4.067.191-5.886.765-6.987.957-1.866 1.867-2.009 11.437-2.009M280.518 2.303v31.918h9.906l-.239-23.831h1.052l16.797 23.831h16.892V2.303h-9.906l.24 23.783h-1.005L297.554 2.303Z" style="font:700 32.5088px/1.25&quot;Microgramma D Extended&quot;;font-feature-settings:normal;text-align:start;writing-mode:lr-tb;text-anchor:start;fill-opacity:1;stroke-width:.40636;letter-spacing:0;word-spacing:0;display:inline;fill:#fff"/><path d="M18.916 53.883V99.53h13.687l-.342-34.15h2.464l17.177 34.15h11.566l17.177-34.15h2.327l-.342 34.15h13.687V53.883H71.27L57.651 83.516 44.1 53.883ZM133.109 53.199c-19.094 0-23.337.479-26.827 3.148s-4.517 7.322-4.517 20.052c0 13.413.958 17.93 4.517 20.667 3.49 2.669 7.733 3.148 26.964 3.148 18.888 0 23.2-.479 26.69-3.148s4.517-7.254 4.517-20.394c0-13.071-1.027-17.656-4.517-20.325s-7.733-3.148-26.827-3.148Zm0 11.839c12.729 0 14.235.205 15.809 2.053 1.232 1.506 1.642 4.106 1.642 10.882 0 5.543-.479 7.528-2.053 8.759-1.848 1.369-4.106 1.643-15.261 1.643-11.497 0-13.687-.205-15.535-1.643-1.643-1.3-2.053-3.148-2.053-8.828 0-5.817.274-8.417 1.095-9.991 1.368-2.67 2.669-2.875 16.356-2.875Z" style="font:700 46.4917px/1.25&quot;Microgramma D Extended&quot;;font-feature-settings:normal;text-align:start;writing-mode:lr-tb;text-anchor:start;fill:none;fill-opacity:1;stroke-width:1.26019;stroke-miterlimit:4;stroke-dasharray:none;stroke-opacity:1;letter-spacing:0;word-spacing:0;display:inline;stroke:#fff"/><path d="m213.859 48.524-32.232 56.316h4.303l-.029.049h7.429l32.29-56.315h-4.302l.029-.05Z" style="font:700 46.4917px/1.25&quot;Microgramma D Extended&quot;;font-feature-settings:normal;text-align:start;writing-mode:lr-tb;text-anchor:start;fill-opacity:1;stroke-width:.498746;stroke-opacity:1;letter-spacing:0;word-spacing:0;display:inline;fill:#fff"/><path d="M242.795 53.883v11.634h20.325V99.53h14.577V65.517h20.326V53.883ZM332.536 53.199c-19.094 0-23.337.479-26.827 3.148s-4.517 7.322-4.517 20.052c0 13.413.958 17.93 4.517 20.667 3.49 2.669 7.733 3.148 26.964 3.148 18.888 0 23.199-.479 26.69-3.148s4.516-7.254 4.516-20.394c0-13.071-1.026-17.656-4.516-20.325s-7.734-3.148-26.827-3.148m0 11.839c12.729 0 14.234.205 15.808 2.053 1.232 1.506 1.643 4.106 1.643 10.882 0 5.543-.479 7.528-2.053 8.759-1.848 1.369-4.106 1.643-15.261 1.643-11.498 0-13.688-.205-15.535-1.643-1.643-1.3-2.053-3.148-2.053-8.828 0-5.817.273-8.417 1.094-9.991 1.369-2.67 2.669-2.875 16.357-2.875" style="font:700 46.4917px/1.25&quot;Microgramma D Extended&quot;;font-feature-settings:normal;text-align:start;writing-mode:lr-tb;text-anchor:start;fill-opacity:1;stroke-width:.581147;stroke-opacity:1;letter-spacing:0;word-spacing:0;display:inline;fill:#fff"/></svg>