<svg xmlns="http://www.w3.org/2000/svg" viewBox="0 0 264 84"><path d="M231.43 65.049H32.563C14.609 65.049 0 50.458 0 32.524S14.61 0 32.563 0h198.865c17.956 0 32.563 14.59 32.563 32.524-.002 17.934-14.606 32.525-32.561 32.525M32.563 7.694c-13.707 0-24.86 11.139-24.86 24.832 0 13.691 11.152 24.832 24.86 24.832h198.865c13.705 0 24.86-11.14 24.86-24.832s-11.153-24.832-24.86-24.832z" style="fill-opacity:1;fill:#fff"/><path d="M58.104 47.608V17.587h-9.04v20.99l-13.331-20.99h-9.716v30.021h9.039V25.939l14.008 21.669zM72.792 47.608V27.293h-9.038v20.315zM72.792 23.003v-5.416h-9.038v5.416zM104.427 47.608V33.611c0-2.934-5.65-6.996-8.586-6.996h-2.713c-2.033 0-4.293 1.806-6.327 2.709v-2.031h-9.039v20.315h9.039V33.611c0-1.354 3.163-2.934 4.52-2.934s3.841 1.58 3.841 2.934v13.996zM180.055 48.307V34.312c0-2.935-5.647-6.997-8.59-6.997h-2.709c-2.035 0-4.295 1.806-6.33 2.709v-2.031h-9.037v20.315h9.037V34.312c0-1.354 3.165-2.935 4.521-2.935s3.839 1.581 3.839 2.935v13.995zM119.115 47.608V27.293h4.746v-2.709h-4.746v-4.288h-9.262v4.288h-4.747v2.709h4.747v20.315zM136.514 26.616c-7.23 0-13.331 4.965-13.331 11.059 0 6.322 6.101 11.287 13.331 11.287 6.328 0 11.525-3.612 12.881-8.352h-9.263v2.709c0 2.257-1.58 2.937-3.614 2.937s-3.39-.679-3.39-2.937v-5.643h16.723c-.002-6.094-5.878-11.06-13.337-11.06m0 2.031c2.035 0 3.616 1.355 3.616 3.612v2.03h-7.005v-2.03c0-2.257 1.357-3.612 3.389-3.612M225.551 26.616c-7.459 0-13.334 4.965-13.334 11.059 0 6.322 5.873 11.287 13.334 11.287 7.227 0 13.33-4.965 13.33-11.287-.003-6.093-6.103-11.059-13.33-11.059m0 2.031c2.03 0 3.388 1.355 3.388 3.612v11.059c0 2.257-1.358 2.935-3.388 2.935-2.259 0-3.618-.678-3.618-2.935V32.259c-.002-2.257 1.356-3.612 3.618-3.612M199.561 17.587v11.06s-2.713-2.031-6.329-2.031c-5.649 0-10.394 4.965-10.394 10.382 0 5.645 4.747 11.288 10.394 11.288 3.616 0 6.329-1.355 6.329-1.355v.676h9.039v-30.02zm-3.39 12.415c2.033 0 3.39 1.58 3.39 3.61v8.352c0 2.033-1.357 2.709-3.39 2.709-2.258 0-3.616-.675-3.616-2.709v-8.352c0-2.03 1.358-3.61 3.616-3.61M26.693 83.873v-7.296c0-1.383-1.384-2.767-2.769-2.767H13.347v10.063h3.274v-6.791c0-.503.377-1.006.881-1.006h5.036c.504 0 1.008.503 1.008 1.006v6.791zM114.069 83.873v-7.296c0-1.383-1.385-2.767-2.769-2.767h-10.577v10.063h3.272v-6.791c0-.503.379-1.006.883-1.006h5.036c.504 0 1.006.503 1.006 1.006v6.791zM161.895 83.873v-7.296c0-1.383-1.384-2.767-2.77-2.767h-10.577v10.063h3.273v-6.791c0-.503.377-1.006.883-1.006h5.035c.504 0 1.007.503 1.007 1.006v6.791zM133.344 83.873v-7.296c0-1.383-1.385-2.767-2.771-2.767h-14.228v10.063h3.274v-6.791c0-.503.376-1.006.88-1.006h1.889c.379 0 .882.503.882 1.006v6.791h3.275v-6.791c0-.503.376-1.006.88-1.006h1.889c.378 0 .882.503.882 1.006v6.791zM11.081 83.873H2.77c-1.384 0-2.77-.88-2.77-2.263v-7.923h11.081v2.39h-7.43c-.377 0-.881.378-.881.881 0 .504.504.881.881.881h6.926v2.011H3.651c-.377 0-.881.504-.881.882 0 .503.504 1.005.881 1.005h7.43zM52.01 84h-8.311c-1.385 0-2.771-.88-2.771-2.263v-7.925H52.01v2.39h-7.431c-.376 0-.88.378-.88.882s.504.881.88.881h6.926v2.011h-6.926c-.376 0-.88.504-.88.882 0 .504.504 1.005.88 1.005h7.431zM146.743 83.873h-8.312c-1.384 0-2.771-.88-2.771-2.263v-7.923h11.082v2.39h-7.429c-.378 0-.883.378-.883.881 0 .504.504.881.883.881h6.923v2.011h-6.923c-.378 0-.883.504-.883.882 0 .503.504 1.005.883 1.005h7.429v2.138h.001zM28.079 73.811v2.265h3.274c.881 0 .881 0 .881 1.006v6.791h3.148v-6.791c0-1.006 0-1.006 1.007-1.006h3.148v-2.265zM68.089 73.811v2.265h3.273c.881 0 .881 0 .881 1.006v6.791h3.147v-6.791c0-1.006 0-1.006 1.009-1.006h3.148v-2.265zM163.74 73.811v2.265h3.274c.882 0 .882 0 .882 1.006v6.791h3.147v-6.791c0-1.006 0-1.006 1.007-1.006h3.147v-2.265zM54.269 73.811v10.064h3.274v-1.76c0-.503.378-1.008.881-1.008h4.155c.505 0 .882.504.882 1.008v1.76h2.77v-2.768c0-.376-.377-.879-.377-1.383 0-.376.882-1.256.882-2.262v-.881c0-.882-1.385-2.769-2.267-2.769zm4.155 2.265h4.155c.505 0 .881.503.881 1.006v.88a.86.86 0 0 1-.881.881h-4.155a.86.86 0 0 1-.881-.881v-.88c.001-.502.378-1.006.881-1.006M83.23 73.811c-.882 0-2.266 1.887-2.266 2.769v7.295h3.273v-2.768h5.917v2.768h3.273V76.58c0-.882-1.384-2.769-2.392-2.769zm1.888 2.265h4.155c.377 0 .881.503.881 1.006v1.761h-5.917v-1.761c0-.502.378-1.006.881-1.006M98.842 83.873V73.81h-3.146v10.064zM264 83.86v-7.295c0-1.383-1.385-2.768-2.772-2.768h-14.227V83.86h3.273v-6.791c0-.504.377-1.007.881-1.007h1.888c.379 0 .883.503.883 1.007v6.79h3.272v-6.79c0-.504.377-1.007.881-1.007h1.889c.378 0 .883.503.883 1.007v6.79h3.148zM244.747 83.86h-8.311c-1.385 0-2.77-.881-2.77-2.262v-7.925h11.08v2.39h-7.428c-.378 0-.882.377-.882.881 0 .503.504.88.882.88h6.924v2.012h-6.924c-.378 0-.882.504-.882.881 0 .504.504 1.006.882 1.006h7.428zM220.816 73.797v2.263h3.273c.882 0 .882 0 .882 1.007v6.79h3.147v-6.79c0-1.007 0-1.007 1.009-1.007h3.146v-2.263zM183.523 73.85c-.882 0-2.771 1.384-2.771 2.263v1.385c0 .88 1.889 2.263 2.771 2.263h5.54c.504 0 1.007.504 1.007.881 0 .503-.504 1.005-1.007 1.005h-8.311v2.263h9.318c.882 0 2.644-1.383 2.644-2.263v-1.383c0-1.007-1.762-2.391-2.644-2.391h-5.54c-.504 0-1.007-.377-1.007-.881 0-.503.503-.881 1.007-.881h8.184v-2.262zM210.196 73.85c-.882 0-2.771 1.384-2.771 2.263v1.385c0 .88 1.889 2.263 2.771 2.263h5.54c.503 0 1.007.504 1.007.881 0 .503-.504 1.005-1.007 1.005h-8.311v2.263h9.318c.881 0 2.644-1.383 2.644-2.263v-1.383c0-1.007-1.763-2.391-2.644-2.391h-5.541c-.504 0-1.007-.377-1.007-.881 0-.503.504-.881 1.007-.881h8.185v-2.262zM193.722 73.85v4.53c0 .88 1.384 2.263 2.266 2.263h2.265v3.269h3.274v-3.269h2.267c.88 0 2.266-1.383 2.266-2.263v-4.53h-3.148v3.649c0 .376-.504.881-1.007.881h-4.029c-.504 0-1.008-.504-1.008-.881V73.85z" style="fill-opacity:1;fill:#fff"/></svg>