<svg xmlns="http://www.w3.org/2000/svg" data-name="Warstwa 1" viewBox="0 0 264.07 95.8"><title>nesh</title><path fill="#fff" d="M132.1 0h99.47a32.54 32.54 0 0 1 3.81 64.86 31 31 0 0 1-3.7.23H32.38A32.56 32.56 0 0 1 27.61.34 30 30 0 0 1 32.27 0Zm-.06 7.7H32.93a28.5 28.5 0 0 0-5.12.48 24.83 24.83 0 0 0 5.12 49.25h198.2a29.3 29.3 0 0 0 5.12-.48 24.83 24.83 0 0 0-5-49.2ZM257.28 83.93h-3.34V78c0-1.69-.18-1.86-1.85-1.86s-1.76.19-1.77 1.81v5.94h-3.21v-10c.44 0 .83-.05 1.22-.05h12.36c2.29 0 3.35 1.07 3.35 3.38v6.66h-3.14v-6.12c0-.52-.34-1.39-.67-1.46a6.2 6.2 0 0 0-2.54.11c-.2 0-.35.75-.36 1.16-.05 2.08-.05 4.16-.05 6.36M119.5 83.93h-3v-10c.34 0 .69-.09 1-.09h12.48c2.25 0 3.4 1.16 3.41 3.39s0 4.38 0 6.66h-3.26v-5.82c0-1.77-1.33-2.64-2.91-1.81a1.74 1.74 0 0 0-.61 1.28c-.06 2.07 0 4.15 0 6.42-1 0-1.9.05-2.79 0-.2 0-.5-.55-.51-.85v-5.28c0-1.41-.3-1.66-1.83-1.66s-1.78.21-1.79 1.68v5.76a2 2 0 0 1-.19.32M66.28 83.92h-2.63c-.08-.12-.15-.18-.15-.25-.08-2.54.11-2.52-2.68-2.49h-.36c-3 0-2.74-.35-3 2.8h-3.09V73.85h3.7a42 42 0 0 0 5.27 0 3.14 3.14 0 0 1 3.29 4.1c-.67 1.66-.3 3.16-.36 4.74.01.34.01.74.01 1.23m-5.74-5h1.74c.9 0 1.16-.48 1.14-1.29s-.14-1.48-1.14-1.49-2.15 0-3.22 0-1.5.4-1.51 1.48.61 1.32 1.53 1.28c.49-.03.97-.01 1.45-.01ZM93.42 83.91h-3.23v-2.64h-5.91v2.61h-3.31c0-2.2-.07-4.42 0-6.64a4.27 4.27 0 0 1 .88-2.37 3.1 3.1 0 0 1 2-1c2.19-.12 4.39-.05 6.59 0a3 3 0 0 1 2.91 2.64c.12 2.41.07 4.85.07 7.4m-3.4-5.1c.43-2.23.08-2.67-2-2.67h-2.54a1.07 1.07 0 0 0-1.2 1.17v1.5ZM135.79 73.77h10.91v2.37h-6.14a2.7 2.7 0 0 0-1.07 0 4.3 4.3 0 0 0-1 .86c.33.26.66.75 1 .76 1.76.08 3.52 0 5.27 0h1.4v2.1h-5.47a2.9 2.9 0 0 0-1.07 0 6 6 0 0 0-1.13.82c.37.32.74.91 1.13.93 1.83.1 3.67.05 5.51.05h1.51v2.12c-3 0-5.93.1-8.86-.05-1.5-.07-2.12-1-2.13-2.54v-7.07a3 3 0 0 1 .14-.35M10.55 77.84v2.1H4.37c-.64 0-1.5 0-1.48.94s.74.89 1.42.89h6.75v2.13c-.33 0-.67.07-1 .07H3.23c-2.27 0-3.19-.85-3.19-3.14v-7h11v2.33H4.75c-.75 0-1.86-.26-1.84.91s1.12.75 1.81.77c1.88.03 3.79 0 5.83 0M244.77 73.78v2.36h-6a2.7 2.7 0 0 0-1.06 0 5.5 5.5 0 0 0-1.11.82c.36.28.71.79 1.08.81 1.75.09 3.51 0 5.27 0h1.33v2.1h-6.24c-.67 0-1.42 0-1.44.85s.74 1 1.46 1h6.67v2.09c-3 0-5.95.06-8.93 0a2 2 0 0 1-2-1.87c-.08-2.7 0-5.41 0-8.18ZM52 73.92v2.38h-6.14a2.9 2.9 0 0 0-1.06 0 5 5 0 0 0-1.05.78c.36.3.7.83 1.07.85 1.83.09 3.67 0 5.51 0h1.16v2c-.49 0-1 .09-1.56.1-1.64 0-3.28-.05-4.92 0-.43 0-.83.54-1.25.83.42.33.82.93 1.25.95 1.87.11 3.75.05 5.63.05H52v2.09c-3 0-6 .07-9 0a2 2 0 0 1-2-1.87c-.1-2.7 0-5.41 0-8.19ZM151.91 83.92h-3.23v-10c.31 0 .65-.09 1-.09h9a3 3 0 0 1 3.33 3.34v6.68h-3.26V77.9c0-1.58-.2-1.78-1.81-1.78h-3.59c-1 0-1.44.43-1.43 1.44.01 2.08-.01 4.15-.01 6.36M219.36 73.93v2.28h-7.1c-.74 0-1.9-.3-1.9.84s1.16.84 1.91.86h3.95a3.045 3.045 0 1 1 0 6.09h-8.69v-2.34h7.19c.79 0 2 .29 2-.92s-1.2-.91-2-.93h-4.19a2.93 2.93 0 0 1-.36-5.85c3.01-.08 6.04-.03 9.19-.03M192.72 73.93v2.28h-7.23c-.7 0-1.78-.29-1.8.82s1 .87 1.76.88h4.2a3 3 0 0 1 3.14 3 3 3 0 0 1-3.11 3.06h-8.83v-2.34h4.85a23 23 0 0 0 3 0c.5-.06 1.28-.49 1.33-.83.09-.78-.65-1-1.33-1h-4.92a3 3 0 0 1-3-3.17 3 3 0 0 1 2.74-2.68c3.03-.06 6.06-.02 9.2-.02M16.63 83.91h-3.27v-10c.4 0 .78-.09 1.16-.09h8.88c2.19 0 3.3 1.14 3.31 3.33v6.7h-3.18v-5.69c0-1.87-.18-2-2-2h-3.36c-1.12 0-1.51.47-1.5 1.52-.02 2.03-.04 4.1-.04 6.23M104.06 83.9h-3.25v-9.95a10 10 0 0 1 1-.1h9a3 3 0 0 1 3.29 3.24v5.75c0 .89-.24 1.25-1.15 1.15a20 20 0 0 0-2.08 0V78.1c0-1.74-.2-1.95-1.9-1.95h-3.6c-1 0-1.38.41-1.37 1.37v5ZM202.98 73.99h3.15c0 1.57.08 3.08 0 4.58a2.64 2.64 0 0 1-2.53 2.13h-1.88v3.23h-3.44V80.7h-1.74a2.62 2.62 0 0 1-2.8-2.85v-3.86h3.17v2.94c0 .94.37 1.5 1.39 1.48s2.16 0 3.24 0 1.43-.5 1.41-1.48.03-1.9.03-2.94M228.28 83.92h-3.26v-6.5c0-1-.22-1.39-1.26-1.3s-1.82 0-2.81 0v-2.18h11.33v2.18a20 20 0 0 1-2.57 0c-1.28-.17-1.56.38-1.51 1.55.08 2.03.08 4.07.08 6.25M39.53 73.94v2.2h-1.84c-2.56 0-2.25-.36-2.26 2.33v5.43h-3.22v-6.6c0-.88-.24-1.24-1.15-1.18s-1.9 0-2.92 0v-2.2ZM171.11 83.91h-3.17v-6.13c0-1.64 0-1.64-1.64-1.64h-2.45v-2.19h11.35v2.19h-3c-.83 0-1.13.28-1.12 1.1.05 2.19.03 4.37.03 6.67M72.28 83.9v-6.34c0-1.07-.24-1.56-1.39-1.44a27 27 0 0 1-2.69 0v-2.18h11.27v2.18a25 25 0 0 1-2.61 0c-1.19-.12-1.5.38-1.45 1.5.08 2.07 0 4.14 0 6.28ZM95.78 73.85h3.07v10.06h-3.07Z"/><path fill="#fff" d="M58.05 47.64h-8.63c-.34 0-.74-.54-1-.91q-6.26-9.64-12.49-19.32c-.21-.32-.44-.63-.84-1.21v21.4h-9v-30h8.69a1.54 1.54 0 0 1 1.5.83c3.89 6.18 7.82 12.35 11.73 18.52.25.38.52.76 1 1.44V17.64h9ZM199.59 28.43v-10.8h9v30c-.43 0-.85.07-1.27.07a37 37 0 0 1-5.87-.06c-2.08-.33-3.94.22-5.9.57-5.93 1.07-11.3-2.93-12.54-9.26a10.58 10.58 0 0 1 8.39-12.1 10.26 10.26 0 0 1 6.74 1Zm-7 9.35v4c.06 1.81.76 2.62 2.57 2.85a8.2 8.2 0 0 0 1.79 0c1.79-.17 2.6-1 2.62-2.79 0-2.72.06-5.43 0-8.15 0-2.26-1.44-3.69-3.42-3.68s-3.47 1.43-3.55 3.71c-.01 1.38.03 2.71.02 4.1ZM77.84 27.36h9l.15 1.9c1-.52 1.83-1 2.69-1.45 5.18-2.87 11.17-.63 14.24 4a3 3 0 0 1 .55 1.56v14.2c-.38 0-.68.11-1 .11h-7.2c-.89 0-1.17-.24-1.16-1.15V34.42a3.76 3.76 0 0 0-4.72-3.49 7.3 7.3 0 0 0-2.52 1.31 3.13 3.13 0 0 0-1 2c-.09 4 0 8 0 12v1.35h-9ZM180.05 48.31h-9.23v-13.2a3.84 3.84 0 0 0-4.76-3.5 11 11 0 0 0-1.86.81 2.92 2.92 0 0 0-1.72 3c.1 3.84 0 7.68 0 11.52v1.37h-9V28.1h9l.09 1.9c1-.57 2-1.1 2.9-1.59a10.82 10.82 0 0 1 14.15 4.28 3.9 3.9 0 0 1 .51 1.93V47.7a6 6 0 0 1-.08.61M225.55 49.02a14.8 14.8 0 0 1-8.37-2.48c-6.5-4.39-6.57-12.88-.14-17.38a15.46 15.46 0 0 1 17.83.58c5.31 4.26 5.49 11.28.39 15.8a14.7 14.7 0 0 1-9.71 3.48m-3.52-11.29v5.76a2.43 2.43 0 0 0 2.36 2.66 8.5 8.5 0 0 0 2 .05 2.49 2.49 0 0 0 2.57-2.73c0-3.8.06-7.6 0-11.4a3.2 3.2 0 0 0-3.53-3.37 3.25 3.25 0 0 0-3.41 3.52c-.01 1.83.01 3.67.01 5.51M140.17 40.66h9.25a11 11 0 0 1-.4 1.21 11.2 11.2 0 0 1-4.11 4.73 15.33 15.33 0 0 1-17.62-.75c-5.53-4.49-5.44-11.93.2-16.26 6.22-4.78 16.07-3.66 20.49 2.33a8.37 8.37 0 0 1 1.78 5.78h-16.48v6.6a1.7 1.7 0 0 0 .32.77c.66 1.06 2.53 1.5 4.4 1a2.58 2.58 0 0 0 2.14-2.67c.06-.86.03-1.77.03-2.74m-6.95-6.42h6.89c.13-1.94.3-3.82-1.57-5a3.41 3.41 0 0 0-3.95 0c-1.79 1.29-1.37 3.19-1.37 5M119.16 24.58h4.68v2.73h-4.63v20.23h-9.31v-20.2h-4.71v-2.76h4.66v-4.25h9.31ZM63.86 27.34h8.84v20.21h-8.84ZM63.85 22.98v-5.42h8.88v5.42Z"/><path d="M83.632 95.616h-2.464v-2.724H79.32v2.724h-2.464v-7.7h2.464v2.723h1.848v-2.723h2.464zm3.352-1.219-.286 1.219h-2.6l1.997-7.7h3.806l1.998 7.7h-2.6l-.282-1.219zm1.083-4.114h-.137l-.506 2.156h1.135zm9.412 3.128.185 2.068q-.775.321-1.945.321t-1.879-.246-1.118-.774a3.2 3.2 0 0 1-.567-1.246q-.159-.717-.159-1.764t.159-1.764q.163-.721.567-1.254.789-1.021 2.896-1.021.471 0 1.104.092.633.093.942.229l-.37 1.883a7 7 0 0 0-1.465-.171q-.664 0-.924.123t-.26.493v3.229q.48.097.973.097 1.047 0 1.861-.295m3.559-1.148h-.048v3.353h-2.464v-7.7h2.464v3.141h.048q.027-.37.124-.589l1.21-2.552h2.657l-1.848 3.784 1.91 3.916h-2.658l-1.271-2.759a1.9 1.9 0 0 1-.124-.594m4.485 3.216.343-2.033q1.136.286 2.042.286t1.461-.074v-.616l-1.109-.102q-1.504-.132-2.064-.717-.563-.585-.563-1.733 0-1.576.687-2.17.681-.59 2.318-.589 1.642 0 2.957.308l-.308 1.971q-1.143-.185-1.835-.185a9 9 0 0 0-1.17.062v.603l.889.088q1.615.158 2.231.77.615.606.616 1.694 0 .774-.212 1.311-.21.537-.497.814-.29.277-.823.422-.528.15-.928.181-.4.03-1.065.03-1.602 0-2.97-.321m11.447-2.82h-1.91v-1.773h1.91v-1.91h1.773v1.91h1.923v1.773h-1.923v1.923h-1.773zm13.833 2.957h-2.464v-2.724h-1.848v2.724h-2.464v-7.7h2.464v2.723h1.848v-2.723h2.464zm.862-3.846q0-2.103.788-3.071.787-.969 2.846-.968 2.06 0 2.847.968.788.968.788 3.071 0 1.047-.167 1.764a3.3 3.3 0 0 1-.572 1.246q-.405.528-1.122.774-.714.246-1.774.246t-1.773-.246q-.717-.246-1.122-.774a3.25 3.25 0 0 1-.572-1.246q-.167-.717-.167-1.764m2.649-1.28v3.203h1.021q.506 0 .734-.115.23-.119.229-.536v-3.204h-1.034q-.493 0-.721.115-.23.118-.229.537m7.897 1.394-.149 3.732h-2.574l.466-7.7h3.217l.963 3.916h.084l.963-3.916h3.212l.471 7.7h-2.574l-.149-3.732h-.088l-.933 3.732h-1.888l-.946-3.732zm12.504-.963v1.786h-2.464v.937h3.018v1.972h-5.482v-7.7h5.421l-.308 1.971h-2.649v1.034zm6.023 4.695h-4.422v-7.7h3.991q1.109 0 1.584.431t.475 1.258q0 .824-.304 1.272a1.34 1.34 0 0 1-.805.585v.075q1.492.259 1.492 2.033 0 .924-.493 1.487-.492.559-1.518.559m-.999-3.067h-.959v1.254h.95q.515 0 .515-.625 0-.629-.506-.629m-.185-2.944h-.774v1.144h.766q.466 0 .466-.572t-.458-.572m9.441 3.45 1.329 2.561h-2.711l-1.012-2.293h-.528v2.293h-2.464v-7.7h3.881q2.649 0 2.649 2.697 0 1.848-1.144 2.442m-2.354-3.168h-.568v1.54h.568q.444 0 .647-.093.201-.092.202-.426v-.502q0-.334-.202-.427-.203-.092-.647-.092m9.473 1.034v1.786h-2.464v.937h3.018v1.972h-5.482v-7.7h5.421l-.308 1.971h-2.649v1.034zm7.933 1.293.594-4.298h2.574l-1.21 7.7h-3.212l-.568-2.834h-.15l-.554 2.834h-3.216l-1.206-7.7h2.574l.581 4.298h.075l.884-4.298h1.888l.871 4.298z" style="fill:#fff;white-space:pre;transform-box:fill-box;transform-origin:50% 50%"/></svg>