<svg xmlns="http://www.w3.org/2000/svg" width="416" height="48" viewBox="0 0 416 48"><path d="M251.002 2.711Q247.852.923 244.99.922H113.841q-3.579 0-5.366 2.146-1.79 2.004-1.789 5.008v31.626q0 4.15 2.075 5.652 2.146 1.503 3.864 1.503h65.611q5.938 0 5.938-5.938V19.454h-48.296v8.943h34.63v8.943h-49.512V10.51H238.48l.857.286q.93.287.932.859v7.799H199.7v8.943h40.569v18.46h13.666V8.077q0-3.504-2.933-5.366M286.704 28.397h34.63v8.943h-49.513V10.51h72.051v-.071h68.042V.922H264.667q-3.58 0-5.366 2.146-1.79 2.004-1.789 5.008v31.626q-.001 4.15 2.075 5.652 2.147 1.503 3.863 1.503h65.61q5.939 0 5.939-5.938V19.454h-48.295z" style="fill-opacity:1;fill:#fff"/><path d="M343.37 18.81v28.047h70.977v-10.16H357.68v-8.3h41.14V18.81zM58.32 35.552V.922h14.31V41.49q0 1.718-1.217 3.291-1.073 1.36-2.361 2.075-3.72 1.216-7.155.572a16.8 16.8 0 0 1-6.583-2.36 573 573 0 0 0-5.652-4.15 234 234 0 0 1-6.046-4.543 557 557 0 0 1-6.761-5.331 16983 16983 0 0 0-13.737-10.732q-6.583-5.007-7.728-6.869v33.414H1.653V6.933q0-2.36 2.075-4.222Q5.945.924 8.236.35q.858 0 1.968.071 1.109.072 2.468.215 2.646.359 4.508 1.502zM82.006 20.885q.643-1.145 1.789-2.003 1.144-.859 2.683-1.359a10.5 10.5 0 0 1 3.256-.501q1.717 0 3.22.501 1.502.501 2.647 1.359a6.5 6.5 0 0 1 1.789 2.003q.644 1.145.644 2.432 0 1.288-.644 2.434a6.1 6.1 0 0 1-1.789 1.967q-1.145.823-2.647 1.324-1.503.5-3.22.5t-3.256-.5-2.683-1.324a6.1 6.1 0 0 1-1.789-1.967 4.9 4.9 0 0 1-.644-2.434q0-1.287.644-2.432" style="fill-opacity:1;fill:#fff"/></svg>