<svg xmlns="http://www.w3.org/2000/svg" viewBox="0 0 264 58"><path d="m35.961 115.284-.072-44.013h5.7v52.701h-5.7L5.556 79.602l.141 44.37H0V71.271h5.982zM47.952 71.271h27.96v5.199H53.793v18.303h21.978v5.199H53.793v18.801h22.119v5.199h-27.96zM78.573 97.764c0-16.236 12.606-27.42 27.492-27.42 15.453 0 27.489 11.823 27.489 27.276 0 15.456-11.964 27.279-27.489 27.279-15.597 0-27.492-12.036-27.492-27.063zm5.91-.144c0 12.393 9.33 22.08 21.651 22.08 12.465 0 21.582-10.041 21.582-22.08 0-12.036-9.117-22.077-21.651-22.077-12.393 0-21.582 9.828-21.582 22.005zM182.202 84.945a22.4 22.4 0 0 0-5.91-5.697c-3.42-2.352-7.551-3.705-12.249-3.705-11.538 0-21.579 8.832-21.579 22.005 0 13.389 10.113 22.221 21.648 22.221 5.556 0 10.47-1.92 14.103-4.77 3.705-2.922 6.267-6.909 7.122-11.043h-28.686v-4.842h35.523c-.072 3.063-.783 6.909-2.352 10.185-4.557 9.9-15.099 15.669-25.71 15.669-15.381 0-27.561-11.823-27.561-27.42 0-15.81 12.393-27.207 27.633-27.207 10.683 0 20.583 5.985 24.714 14.601h-6.696zM195 71.271h29.199v5.199h-23.358v18.303h23.214v5.199h-23.214v18.801h23.358v5.199H195zM226.548 97.764c0-16.236 12.606-27.42 27.492-27.42 15.453 0 27.489 11.823 27.489 27.276 0 15.456-11.964 27.279-27.489 27.279-15.597 0-27.492-12.036-27.492-27.063zm5.913-.144c0 12.393 9.327 22.08 21.648 22.08 12.465 0 21.579-10.041 21.579-22.08 0-12.036-9.114-22.077-21.648-22.077-12.393 0-21.579 9.828-21.579 22.005zM346.569 97.764c0-16.236 12.606-27.42 27.492-27.42 15.456 0 27.492 11.823 27.492 27.276 0 15.456-11.964 27.279-27.492 27.279-15.597 0-27.492-12.036-27.492-27.063zm5.91-.144c0 12.393 9.33 22.08 21.654 22.08 12.462 0 21.579-10.041 21.579-22.08 0-12.036-9.114-22.077-21.651-22.077-12.39 0-21.582 9.828-21.582 22.005zM460.377 109.8c-3.417 8.121-12.603 15.102-24.213 15.102-15.597 0-27.489-12.039-27.489-27.279 0-15.027 11.607-27.276 27.417-27.276 13.032 0 21.222 8.688 24.285 15.384h-6.339c-1.782-3.135-7.764-10.185-17.946-10.185-12.321 0-21.579 9.756-21.579 22.005 0 12.465 9.327 22.149 21.579 22.149 11.04 0 16.665-7.905 17.946-9.9zM518.208 71.271h29.202v5.199h-23.358v18.303h23.214v5.199h-23.214v18.801h23.358v5.199h-29.202zM577.035 76.47h-16.983v-5.199H600v5.199h-17.052v47.502h-5.913zM503.319 123.972h7.335l-27.381-26.424 25.17-26.28h-6.408l-27.627 28.575V71.271h-5.841v52.701h5.841v-17.175l5.376-5.616zM320.457 128.001c-11.469-22.812-22.908-45.561-34.353-68.328.063-.045.114-.087.171-.117q4.285-2.19 8.565-4.38c4.032-2.058 8.07-4.107 12.099-6.177 4.236-2.178 8.688-3.486 13.494-3.33 3.273.105 6.27 1.056 8.904 3.063 2.322 1.773 3.963 4.074 5.223 6.675 1.194 2.466 2.046 5.037 2.094 7.806.069 3.849-1.095 7.329-3.159 10.56-1.38 2.16-2.958 4.149-4.809 5.91-1.275 1.212-2.637 2.331-3.957 3.492-4.836-3.432-9.567-6.786-14.319-10.155l2.685-9.831h13.695V52.791c-7.071.069-14.064.135-21.057.204-2.547 7.2-5.082 14.358-7.62 21.531 8.187 6.771 16.344 13.518 24.51 20.274 3.246-1.239 6.324-2.763 9.222-4.644 4.617-3 8.466-6.768 11.292-11.514 2.628-4.413 3.945-9.219 4.017-14.352.045-3.18-.438-6.288-1.374-9.336-1.239-4.041-3.159-7.695-6.09-10.758-5.49-5.751-12.225-8.841-20.193-9.126-4.71-.165-9.165.897-13.368 3.009-1.893.951-3.747 1.98-5.655 2.904-4.242 2.052-8.508 4.062-12.765 6.084-3.753 1.785-7.509 3.561-11.262 5.34q-1.905.904-3.81 1.812c12.747 25.992 25.482 51.957 38.208 77.919z" style="fill-opacity:1;fill:#fff" transform="scale(.44 .43894)"/><path d="M320.457 128.001c-3.225 1.386-6.384 2.748-9.615 4.137a301039 301039 0 0 0-38.211-77.919c1.272-.603 2.541-1.209 3.81-1.809 3.756-1.782 7.509-3.558 11.265-5.343 4.254-2.022 8.52-4.032 12.765-6.084 1.905-.921 3.759-1.95 5.652-2.904 4.203-2.112 8.658-3.174 13.368-3.006 7.968.282 14.703 3.372 20.196 9.123 2.928 3.063 4.848 6.717 6.09 10.758.936 3.048 1.419 6.159 1.374 9.339-.075 5.13-1.389 9.936-4.017 14.349-2.829 4.746-6.675 8.514-11.295 11.517-2.898 1.878-5.976 3.402-9.219 4.641-8.166-6.756-16.326-13.503-24.513-20.274 2.538-7.173 5.073-14.331 7.623-21.528 6.993-.069 13.986-.138 21.057-.204v10.395h-13.695c-.894 3.273-1.785 6.537-2.688 9.834l14.322 10.152c1.32-1.158 2.682-2.28 3.957-3.492 1.848-1.761 3.426-3.747 4.809-5.91 2.061-3.231 3.225-6.711 3.159-10.56-.051-2.769-.9-5.337-2.094-7.806-1.257-2.601-2.904-4.902-5.226-6.675-2.631-2.004-5.631-2.955-8.901-3.063-4.806-.156-9.258 1.152-13.494 3.33-4.029 2.07-8.067 4.119-12.102 6.18q-4.281 2.188-8.562 4.38c-.057.03-.111.072-.174.114 11.451 22.767 22.89 45.516 34.359 68.328M328.548 28.074l-6.798-1.401c1.332-8.886 2.661-17.769 3.996-26.673 4.164.606 8.289 1.212 12.477 1.824-3.231 8.772-6.447 17.493-9.675 26.25M365.697 20.826c2.211 3.579 4.389 7.113 6.606 10.704-7.218 4.467-14.433 8.931-21.666 13.41-1.518-2.265-3.006-4.488-4.53-6.765 6.525-5.778 13.038-11.544 19.59-17.349M348.267 6.861c3.192 2.205 6.327 4.374 9.474 6.549a79287 79287 0 0 1-17.076 20.364l-6.015-3.714c4.521-7.698 9.048-15.417 13.617-23.199" style="fill-opacity:1;fill:#fff" transform="scale(.44 .43894)"/></svg>