<svg xmlns="http://www.w3.org/2000/svg" xml:space="preserve" viewBox="-6 159 525 184"><g fill="#fff"><path d="M431 343c-.35-.28-.69-.79-1.07-.82-12.06-1.07-21.13-7.05-27.81-16.92-5.36-7.92-8.21-16.85-10.11-26.11-2.09-10.13-2.62-20.43-1.84-30.68.8-10.52 2.71-20.86 7.69-30.46 5.75-11.09 14.41-18.07 26.5-21.37 10.34-2.82 20.32-2.09 30.1 1.67 9.06 3.49 15.45 10.09 19.5 18.84 3.54 7.65 5.97 15.65 7.15 24.05 1.08 7.71 2.2 15.42 1.7 23.21-.84 13.07-2.92 25.85-9.2 37.65-5.31 9.99-13.59 15.98-24.3 18.88-2.37.64-4.88.77-7.31 1.22-.38.07-.68.55-1.02.84zm-12.04-63.21c-.37 5.65.56 12.01 2.05 18.31 1.23 5.17 3.1 10.07 6.28 14.41 4.48 6.11 13.57 6.1 17.36 1.36 1.54-1.93 3.2-3.84 4.31-6.01 4.99-9.83 5.73-20.56 5.82-31.29.04-4.72-1.04-9.47-1.82-14.17-.96-5.76-3.17-11.14-6.41-15.96-4.29-6.4-13.96-7.98-19.2-1.46-1.9 2.37-3.31 4.9-4.37 7.7-3.19 8.48-4.19 17.28-4.02 27.11M518 341c-.75.31-1.49.88-2.24.89-7.46.07-14.92.04-22.62.04V215H518zM370.08 276.31c2.86 3.31 5.48 6.1 7.8 9.12 2.82 3.68 4.86 7.55 5.41 12.52.74 6.61-.02 12.76-2.17 18.89-2.33 6.62-6.5 11.92-12.01 16.11-8.62 6.55-18.53 9.59-29.25 8.91-12.91-.81-24.66-4.87-33.48-15.01-5.26-6.04-8.21-13.06-8.43-21.19-.15-5.36.07-10.63 2.6-15.48 2.23-4.28 5.21-8.05 8.5-11.57.56-.6 1.33-1.01 1.92-1.45-2.55-5.13-4.83-9.85-7.23-14.51-3.65-7.08-3.21-14.38-1.17-21.71 3.62-12.98 12.46-20.76 25.17-24.29 13.06-3.62 25.63-2.42 37.02 5.32 8.75 5.94 14.09 14.1 15.44 24.92 1.2 9.61-1.37 17.88-7.07 25.43-1 1.31-2.01 2.63-3.05 3.99m-29.52 41.09c1.94-.35 3.93-.5 5.79-1.08 5.18-1.64 8.17-6.87 7.81-13.02-.32-5.5-2.47-9.71-7.83-11.49-5.23-1.74-10.49-1.75-14.9 2.27-4.44 4.06-5.65 9.8-3.11 15.43 2.33 5.13 6.25 8.1 12.24 7.89m11.41-66.37c.15-7.03-4.78-11.91-11.79-11.91-6.35 0-10.82 4.19-11.03 11.53-.18 6.48 5.19 11.39 11.84 11.33 6.37-.06 10.99-4.67 10.98-10.95M217.86 276.36c-1.45-2.51-2.98-5.07-4.43-7.67-3.25-5.84-5.72-11.9-5.39-18.8.72-15.02 9.18-27.02 23.2-32.1 11.05-4 22.01-4.16 32.9.18 11.87 4.72 19.9 13.27 22.58 25.79 2.23 10.4.21 20.33-6.82 28.81-1.03 1.25-1.93 2.61-2.71 3.68 3.22 4 6.23 7.73 9.23 11.48 2.35 2.94 3.13 6.37 3.75 10.05 1.25 7.45-.19 14.34-3.02 21.14-2.29 5.51-5.86 10.06-10.5 13.63-9.14 7.02-19.69 10.18-31.11 9.29-9.12-.71-17.86-3.3-25.42-8.82-9.52-6.95-14.74-16.09-15.32-28.12-.49-10.08 3.5-17.96 9.98-25.05.9-.98 1.82-1.95 2.72-2.92.12-.13.19-.29.36-.57m29.84 40.78c8.3.7 13.26-5.77 13.54-12.54.32-7.7-5.92-14.13-13.52-13.8-8.01.35-13.8 5.51-13.67 13.17.11 6.24 4.8 14.01 13.65 13.17m11.27-65.84c-.21-7.73-4.82-11.92-11.6-12.17-6.05-.22-11.11 3.81-11.26 11.8-.12 6.23 5.19 11.11 11.61 11.05 6.48-.06 11.27-4.58 11.25-10.68M19.04 238.64v103.23c-8.64.18-17.05.03-25.42.1-1.06-4.44-1.42-107.48-.48-127.71 1.03-.11 2.12-.34 3.21-.34 10.16 0 20.32-.11 30.48.12 8.96.2 17.77 1.7 26.08 5.11 11.79 4.82 18.27 13.66 19.22 26.52.3 4.11.49 8.1.07 12.26-1.45 14.4-9.11 23.85-22.26 28.99-7.75 3.03-15.93 4.16-24.56 4.04-1.03-4.1-.23-8.23-.38-12.3-.15-3.99-.03-7.99-.03-12.25 2.24-.45 4.43-1.16 6.65-1.25 2.63-.11 4.78-1.27 6.99-2.37 3.42-1.7 5.09-4.7 5.3-8.35.13-2.26-.16-4.63-.7-6.83-1.25-5-5.69-6.31-9.82-7.25-4.46-1.04-9.13-1.15-14.35-1.72M160.86 241.04c-3.83-.5-7.11-.8-10.33-1.38-8.17-1.45-15.79.32-22.84 4.26-9.57 5.35-14.69 13.92-16.79 24.54-2.02 10.22-1.32 20.08 3.58 29.4 4.99 9.5 12.74 15.85 23.27 17.74 5.28.94 10.9.02 16.36-.16 1.76-.06 3.5-.45 5.75-.75v12.43c0 3 .04 6-.01 9-.05 3.2-.08 3.21-3.14 3.91-9.11 2.1-18.24 2.72-27.55 1.13-7.45-1.28-14.31-3.72-20.64-7.85-12.1-7.9-19.32-19.28-23.43-32.81-2.61-8.61-3.7-17.49-3.01-26.49 1.32-17.19 6.9-32.65 19.45-44.94 7.88-7.72 17.51-12.18 28.39-14.16 8.62-1.57 17.15-1.01 25.7.18.97.14 1.88.68 2.85.78 1.97.22 2.4 1.45 2.4 3.13-.02 7.15-.01 14.3-.01 22.04M79.08 181.11c-4.54-9.02-4.12-14.82 1.53-19.11 4.68-3.56 12.56-4.91 19.29.6 2.79 2.29 4 5.45 4.21 9.17.2 3.6-1.61 6.3-3.24 9.12.38.58.57 1.05.91 1.37 3.99 3.64 4.07 8.16 2.64 12.82-1.63 5.32-5.76 8.03-10.99 8.84-3.94.61-7.84.2-11.56-1.82-7.61-4.14-9.43-12.96-3.82-19.64.31-.37.59-.77 1.03-1.35m10.88 14.01c2.87.03 4.88-1.78 4.92-4.44.03-2.07-2.87-4.71-5.06-4.61-2 .09-4.66 2.63-4.7 4.48-.04 2.53 2.09 4.55 4.84 4.57m-.25-27.1c-2.02.11-3.66 1.83-3.68 3.87-.02 2.05 2.19 4.11 4.22 3.94 2.03-.18 3.77-2.02 3.69-3.93-.09-2.21-2.05-4-4.23-3.88M111.29 181.08c-2.69-3.92-4.24-7.96-3.05-12.38.73-2.71 2.16-5.28 4.63-6.91 5.46-3.61 12.96-4.31 19.32 1.01 4.92 4.12 5.13 10.03.72 18.38.42.5.86 1.19 1.45 1.7 5.21 4.55 3.01 16.3-4.11 19.47-6.85 3.05-13.28 2.38-19.18-2.03-4.99-3.73-5.59-12.8-2.13-16.63.67-.74 1.33-1.48 2.35-2.61m5.84 9.6c.11 2.78 2.28 4.6 5.33 4.45 2.6-.12 4.65-2.38 4.4-4.84-.19-1.85-2.85-4.19-4.8-4.22-2.16-.04-5 2.62-4.93 4.61m8.82-18.7c-.03-2.2-1.95-4.03-4.15-3.96-2.02.07-3.7 1.76-3.76 3.79-.07 2.08 2.06 4.14 4.13 4.02 2-.12 3.81-1.96 3.78-3.85M172.49 182.42c.08 5.67-1.15 10.87-3.99 15.75-1.13 1.94-2.56 3.39-4.55 4.4-4.3 2.18-8.79 2.74-13.34 1.22-3.18-1.07-5.81-2.97-7.45-6.16-4.63-9-5.29-18.32-2.06-27.77 3.36-9.82 12.61-13.18 22.1-9.11 4.78 2.05 6.46 6.51 7.71 10.96.96 3.43 1.08 7.12 1.58 10.71m-10.06-.21c-.51-2.86-.91-5.63-1.55-8.35-.25-1.09-.89-2.16-1.57-3.07-2.28-3.04-5.9-2.73-7.48.74-2.89 6.34-2.45 12.89-.65 19.4.33 1.19 1.38 2.26 2.3 3.17 1.41 1.4 3.53 1.45 4.89.04 1.01-1.05 1.99-2.35 2.38-3.71.79-2.66 1.15-5.45 1.68-8.22M205.98 192.03c-2.36 10.01-11.29 14.36-21.15 11.07-3.36-1.12-5.53-3.61-7.04-6.63-3.33-6.67-4.41-13.61-3.13-21.09.87-5.08 2.32-9.52 6.27-13.06 7.33-6.56 20.12-3.8 23.8 5.33.92 2.28 1.65 4.69 2.04 7.1.4 2.44.29 4.97.4 7.46m-22.19-1.06c-.21 3.34-.03 6.8 1.54 10 .95 1.94 1.96 3.96 4.63 3.83 2.36-.12 3.31-1.9 4.19-3.71.22-.44.42-.89.59-1.36 1.66-4.66 1.27-9.46.75-14.22-.17-1.57-.95-3.17-1.77-4.56-1.92-3.25-5.48-4.58-8-.18-1.82 3.19-2.06 6.55-1.93 10.2M345.89 191.53c-3.27 3.29-6.14 5.85-8.61 8.75-3.39 3.99-7.82 3.86-12.31 3.54-.65-.05-1.6-1.23-1.73-2-.27-1.62-.08-3.31-.08-5.08.37-.25.74-.71 1.14-.74 4.41-.39 7.5-2.83 10.34-6.04 3.42-3.86 7.2-7.39 10.77-11.11 1.14-1.19 2.13-2.52 3.19-3.79.72-.86 2.01-1.76.92-2.92-.69-.73-1.99-1.2-3.02-1.22-6.49-.11-12.98-.02-19.47-.07-3.64-.02-3.83-.27-3.89-4.03-.02-1.46 0-2.92 0-4.84h4.73c6.49.01 12.98.02 19.47.01 7.17-.01 12.3 6.01 11.79 12.54-.15 1.92-.54 3.51-2.01 4.87-1.81 1.68-3.43 3.55-5.21 5.41 3.86 6.05 8.17 11.67 10.54 19.12h-8.05c-1.39 0-1.89-.96-2.48-2.05-1.81-3.31-3.79-6.54-6.03-10.35M4.14 185.53c0-1.4-.02-2.87 0-4.33.04-3.13.1-3.03 3.21-4.39 1.3-.57 2.78-1.44 3.43-2.6 1.2-2.15-.05-4.5-2.51-5.53-.6-.25-1.23-.52-1.87-.59-.97-.1-1.96-.03-3.32-.03-.47 6.04-.15 11.97-.21 17.89-.06 5.81-.01 11.62-.01 17.83-3.21.55-6.28.29-9.62.22v-44.72c4.34-.85 8.79-.35 13.2-.27 1.95.04 3.93.42 5.81.95 8.36 2.37 9.46 6.94 8.95 13.61-.68 8.92-7.2 13.42-17.06 11.96"/><path d="M49.86 168.26c-5.66-.47-10.84-.81-14.76 3.6-3.3 3.71-3.5 8.11-3.07 12.65.71 7.45 7.61 11.55 16.88 10v9.25c-4.25.39-8.4.9-12.42-.1-6.82-1.7-11.31-6.38-13.34-12.9-2.81-9-1.9-17.74 4.2-25.33 3.01-3.74 7.21-5.8 11.97-6.38 2.46-.3 4.99-.14 7.48-.01 2.47.13 2.93.62 3.04 2.96.09 1.81.02 3.63.02 6.26M240.98 164.21h8.96c.06 1.24.16 2.35.16 3.47.01 6.66-.15 13.32.03 19.98.25 9.2-8.41 16.03-15.83 15.54-5.97-.4-11.98-.07-17.97-.09-1.29-.01-2.57-.15-4.01-.24v-8.49c1-.12 2.09-.37 3.19-.38 5.99-.04 12-.24 17.98.05 4.56.22 7.84-2.91 7.57-7.63-.33-5.81-.08-11.65-.08-17.48zM277.14 162.2h9.53c.09 1.07.26 2.18.26 3.28.02 7.32.21 14.65-.05 21.97-.23 6.49-2.61 11.96-9.12 14.65-1.2.49-2.52.92-3.79.94-6.14.1-12.29.04-18.69.04-.68-2.88-.38-5.64-.18-8.91l7.42-.03c2.83 0 5.68-.19 8.49.05 3.77.32 6.3-1.9 6.16-5.93-.17-4.82-.03-9.65-.02-14.48-.01-3.79-.01-7.58-.01-11.58M193.85 267.38v17.34h-29.7c-.52-5.69-.13-11.39-.29-17.34zM325.81 179.14v7.21c-3.32.94-28.4 1.19-35.62.33v-7.23c3.88-.69 26.82-.91 35.62-.31M212.14 162.07h19.98c.27.34.64.59.65.84.25 9.76.58 7.87-7.76 8.02-3.16.06-6.32.06-9.47 0-3.03-.06-3.29-.35-3.38-3.52-.06-1.62-.02-3.26-.02-5.34"/><path d="M222.5 175.06c2.67 0 5.33.01 8 0 1.4 0 2.15.73 2.33 2.07.07.49.02 1 .04 1.5.15 5.74-.43 5.4-5.11 5.34-4.16-.06-8.33.03-12.49-.03-2.48-.04-2.95-.51-3.1-2.81-.07-1-.06-2 0-3 .14-2.67.47-2.99 3.35-3.06 2.31-.06 4.65-.02 6.98-.01 0-.01 0 0 0 0M255.08 182.21V162.2h8.69v19.65c-2.63.56-5.41.06-8.69.36M50.01 185.81v-7.27c3.64-.82 7.26-.28 10.84-.38 3.48-.1 6.96-.02 10.65-.02.9 2.45.5 4.85.33 7.69-7.35.05-14.54.06-21.82-.02M369.02 165.71c.09 1.97-1.49 3.76-3.58 4.04-1.33.18-4.04-2.14-4.22-3.62-.21-1.68 1.74-4 3.49-4.15 2.29-.2 4.21 1.45 4.31 3.73M378.1 165.81c-.05 2.03-1.79 3.89-3.62 3.88-2.06-.01-3.71-2.07-3.56-4.43.15-2.38 1.36-3.39 3.89-3.28 2.38.1 3.36 1.24 3.29 3.83"/></g></svg>