<svg xmlns="http://www.w3.org/2000/svg" xml:space="preserve" width="5020" height="624.7" viewBox="0 0 5020 624.7"><path d="m1559.362 35.824-403.707 552.789h212.657l50.913-73.718h204.354l10.003 73.718h207.655l-88.323-552.789Zm-53.414 348.937 90.924-133.332 15.804 133.332zm733.995-344.988h-227.66l-156.842 548.84h195.252l45.011-156.839h48.413l65.017 156.839h210.156l-80.921-182.696c115.13-33.756 162.643-107.38 162.643-192.85 0-43.16-13.304-83.873-45.912-114.432-39.11-36.86-107.529-58.862-215.157-58.862zm-36.61 261.115h-70.919l30.908-107.38h69.219c27.507 0 46.712 5.454 57.515 15.703 8.302 7.804 12.503 18.053 12.503 29.055 0 34.414-34.209 62.622-99.226 62.622zm858.027 179.593-135.136-100.328c-31.708 36.86-68.418 57.263-113.43 57.263-51.713 0-91.724-33.756-91.724-94.121 0-75.317 56.715-150.539 144.338-150.539 44.212 0 78.421 21.909 90.925 66.666l174.346-71.367c-24.207-97.319-113.53-160.035-239.464-160.035-251.867 0-374.499 181.943-374.499 331.635 0 147.436 113.43 240.711 276.974 240.711 124.232 0 209.355-47.766 267.67-119.885zm361.196-444.657L3018.85 588.613h212.656l50.914-73.718h204.354l10.003 73.718h207.655l-88.324-552.789Zm-53.414 348.937 90.924-133.332 15.804 133.332zm941.75-274.373c-44.212-41.56-115.131-70.52-228.561-70.52h-206.855l-156.841 548.839h253.567c135.136 0 236.062-35.26 306.08-101.174 62.517-58.767 95.926-134.084 95.926-216.452.1-66.665-20.005-119.979-63.316-160.693zm-176.847 273.62c-30.008 28.209-80.922 44.664-140.138 44.664h-34.209l65.018-228.958h32.508c46.713 0 75.92 10.155 94.225 27.456 15.004 14.105 24.207 33.756 24.207 63.469.1 33.756-17.405 70.615-41.611 93.37zm818.216-193.696 43.412-150.539H4497.74l-156.842 548.84h502.133l42.512-150.539h-310.282l17.504-59.613h285.276l37.51-132.485h-285.176l15.804-55.664z" style="fill:none;fill-opacity:1;stroke:#fff;stroke-width:25.7969;stroke-dasharray:none;stroke-opacity:1"/><g style="fill:none;fill-opacity:1;stroke:none"><path d="m598.5 32.3 83.6 555.9h-175l-8.2-64.4-1.8-14H270l-4.7 7.3-46.1 71.1H45.6L427.2 32.3zM336.2 403.4h153.9l-2-17.8-15.8-141.8-5-44.8-24.4 38L352 378.8zM612.3 16.3H418.8L15.2 604.2h212.6l50.9-78.4H483l10 78.4h207.6zM365.4 387.4l90.9-141.8 15.8 141.8zM1099.2 36.5c96.9 0 165.4 19.5 203.8 57.9 13.9 13.9 24.5 30.7 31.4 50 6.5 18.1 9.8 38.5 9.8 60.5 0 44.1-11.8 82.3-35 113.7-25.5 34.4-64.7 60.1-116.4 76.2L1176 400l6.7 16.2 71.7 172.1h-175.2l-61.1-156.6-4-10.2h-71.4l-3.2 11.8-41.8 154.9h-162L883.9 36.5zM970.8 314.2h91.8c34.1 0 63-7.8 83.4-22.6 20.5-14.9 31.8-36.2 31.8-60.1 0-16.1-6.1-31.1-17.2-42.2-14.2-14.2-37.3-21.4-68.9-21.4h-81.5l-3.2 11.8L976.2 294zm128.4-293.7H871.6L714.8 604.2H910l45-166.8h48.4l65 166.8h210.1l-80.9-194.3c115.1-35.9 162.6-114.2 162.6-205.1 0-45.9-13.3-89.2-45.9-121.7-39.1-39.2-107.5-62.6-215.1-62.6M991.7 298.2l30.9-114.2h69.2c27.5 0 46.7 5.8 57.5 16.7 8.3 8.3 12.5 19.2 12.5 30.9 0 36.7-34.2 66.7-99.2 66.7h-70.9zM1750.3 24c57.9 0 109.2 15 148.5 43.3 34.7 25 59.3 60 71.9 101.7L1825 232.4c-7.6-18.4-18.8-33.3-33.5-44.4-18.1-13.6-41.2-20.8-67-20.8-45.5 0-87.1 19.8-117.2 55.8-27.3 32.7-43 76.5-43 120.3 0 34.9 10.7 64.3 31 85.2 19.3 19.9 46.5 30.8 76.7 30.8 24.7 0 48-6 69.4-17.7 16.4-9 31.6-21.2 46.1-37.1l110.4 87.3c-27.1 32.4-58.6 57.9-93.8 75.7-43.7 22.1-94.6 33.3-151.3 33.3-38.6 0-74.6-5.7-106.9-17.1-31.6-11-59.2-27.2-82-48-47-42.8-71.9-103.3-71.9-175 0-38.4 7.6-78.7 22-116.6 15.4-40.6 37.8-77.1 66.6-108.7C1526.8 84.6 1611.1 24 1750.3 24m0-16c-251.8 0-374.4 193.5-374.4 352.7 0 156.8 113.4 256 276.9 256 124.2 0 209.3-50.9 267.7-127.6l-135.1-106.7c-31.7 39.2-68.4 60.9-113.4 60.9-51.7 0-91.7-35.9-91.7-100.1 0-80.1 56.7-160.1 144.3-160.1 44.2 0 78.4 23.3 90.9 70.9l174.3-75.9C1965.5 74.7 1876.2 8 1750.3 8M2461.2 32.3l83.6 555.9h-175l-8.2-64.4-1.8-14h-227.1l-4.7 7.3-46.1 71.1h-173.6l381.6-555.9zm-262.3 371.1h153.9l-2-17.8-15.8-141.8-5-44.8-24.4 38-90.9 141.8zM2475 16.3h-193.5l-403.6 587.9h212.6l50.9-78.4h204.3l10 78.4h207.6zm-246.9 371.1 90.9-141.8 15.8 141.8zM2941.1 36.5c51.9 0 97.3 6.7 134.9 20 32.8 11.6 60.5 28.5 82.3 50.3 39.5 39.5 58.7 91.7 58.7 159.6 0 41.5-7.8 81.3-23.3 118.3-15.4 37.1-38.3 70.9-67.9 100.5-33.6 33.6-74.8 59.2-122.7 76.3-49.5 17.6-107.4 26.6-172 26.6h-232.6l148.2-551.7h194.4m-143.4 413.7h55c63 0 118.2-19 151.4-52.2 28.2-28.2 46.4-71.6 46.4-110.5 0-33.6-9.4-59.4-28.9-78.9-22.8-22.8-57.3-33.9-105.5-33.9h-44.8l-3.2 11.9-65 243.5zm143.4-429.6h-206.8l-156.8 583.7H2831c135.1 0 236-37.5 306-107.6 62.5-62.5 95.9-142.6 95.9-230.2 0-70.9-20-127.6-63.4-170.9-44.1-44.1-115-75-228.4-75m-122.6 413.6 65-243.5h32.5c46.7 0 75.9 10.8 94.2 29.2 15 15 24.2 35.9 24.2 67.5 0 35.9-17.5 75-41.7 99.2-30 30-80.9 47.5-140.1 47.5h-34.1zM3833.3 36.5l-34.7 128.1h-306.1l-3.2 11.9-15.8 59.2-5.4 20.1h285.2l-29 108.9h-285.1l-3.2 11.7-17.5 63.4-5.6 20.3h310.4l-34 128.1h-468.8l148.2-551.7zm20.9-16h-497.8l-156.8 583.7h502l42.5-160.1h-310.2l17.5-63.4h285.2l37.5-140.9H3489l15.8-59.2h306z" style="fill:none;fill-opacity:1;stroke:none" transform="translate(1158.963)"/></g><g aria-label="PC" style="font-size:833.836px;line-height:1.25;font-family:Digitalt;-inkscape-font-specification:Digitalt;text-align:center;letter-spacing:0;word-spacing:0;text-anchor:middle;fill:#fff;fill-opacity:1;stroke-width:4.34289"><path d="M327.504 306.513q55.867 0 81.715-21.68 26.683-22.513 26.683-55.867 0-20.012-14.175-34.187-10.006-10.006-25.849-14.175t-32.52-4.17H326.67l-34.188 130.08ZM174.078 20.507h195.951q80.882 0 132.58 15.843t84.218 48.363q23.347 23.347 34.187 53.365 11.674 29.185 11.674 64.206 0 55.033-20.013 100.06-20.012 44.193-58.368 76.713-37.523 31.686-92.556 49.196t-124.241 17.51h-82.55l-42.526 158.43H17.317ZM907.019 616.7q-61.704 0-112.568-17.51-50.864-18.345-87.553-51.698-35.855-33.354-56.7-80.048-20.013-47.53-20.013-106.731 0-60.037 22.514-122.574 23.347-62.538 70.042-113.402 46.695-51.698 116.737-84.218Q910.354 8 1004.578 8q47.528 0 86.719 12.508 40.024 11.674 70.876 34.188 30.852 21.68 51.697 53.365t30.019 70.042l-174.272 75.88q-9.172-35.855-33.354-53.366-24.18-17.51-57.534-17.51-32.52 0-59.203 14.175-26.682 13.341-45.86 35.855-18.345 22.513-29.185 51.697-10.006 28.35-10.006 58.369 0 48.362 25.849 74.211 26.683 25.85 65.873 25.85 34.187 0 61.704-15.844 27.516-15.842 51.698-45.027l135.081 106.731q-44.193 57.535-109.232 92.556-65.04 35.021-158.43 35.021" style="font-family:&quot;Gotham Ultra&quot;;-inkscape-font-specification:&quot;Gotham Ultra&quot;;fill:#fff;fill-opacity:1" transform="translate(-14.48)"/></g></svg>