<svg xmlns="http://www.w3.org/2000/svg" viewBox="0 0 600 290"><path d="M61.278 213.427a2.8 2.8 0 0 1-1.23-.289C19.855 193.631-.899 170.889.03 147.367c.755-19.362 16.556-37.642 45.696-52.872 27.645-14.445 66.64-25.91 112.769-33.158a2.819 2.819 0 0 1 .875 5.57C65.927 81.581 7.031 112.498 5.663 147.592c-.824 20.806 19.365 42.286 56.848 60.478a2.82 2.82 0 0 1-1.233 5.357M411.664 68.967q-.23 0-.463-.036c-29.693-4.875-61.032-8.129-93.155-9.666a2.813 2.813 0 0 1-2.682-2.95c.075-1.552 1.419-2.74 2.95-2.677 32.34 1.546 63.9 4.821 93.804 9.732a2.813 2.813 0 0 1 2.322 3.236 2.815 2.815 0 0 1-2.776 2.361M322.955 261.439c-.788 0-1.57 0-2.361-.004a2.81 2.81 0 0 1-2.806-2.824 2.814 2.814 0 0 1 2.815-2.809h.012c.773.003 1.564.003 2.343.003 150.814.003 269.821-39.199 271.391-89.581.55-17.633-13.612-35.519-40.966-51.723-27.235-16.141-66.273-29.898-112.88-39.783a2.825 2.825 0 0 1-2.175-3.342 2.825 2.825 0 0 1 3.345-2.171c47.2 10.012 86.823 23.997 114.583 40.448 29.224 17.317 44.345 36.941 43.726 56.745-.833 26.794-30.433 51.218-83.341 68.764-51.158 16.962-119.861 26.277-193.686 26.277" style="fill-opacity:1;fill:#fff"/><path d="m373.989 114.726 74.4-56.712-87.383 34.881-24.557-25.561 7.829 35.42-74.397 56.709 87.386-34.89 24.553 25.561z" style="fill-opacity:1;fill:#fff"/><path d="M280.816 185.52c1.068-5.251 3.014-4.487 8.337-5.335l4.957-.779-1.543 8.264-4.957.791c-5.323.846-7.669 2.268-6.794-2.941m-10.745-7.567-3.856 20.752c-1.056 5.666.656 7.489 6.108 6.626l31.57-5.008 6.767-36.391-31.573 5.002c-5.452.863-7.97 3.356-9.016 9.019m200.414-32.754-.37 2.005 32.565-5.169c2.571-.412 5.074-3.011 5.6-5.82.514-2.809-1.14-4.755-3.711-4.343l-8.364 1.321-13.344 2.123-3.381.529c-3.913.626-8.204 5.086-8.995 9.354m-228.477 93.84.264-1.447c1.119.084 2.62.517 3.931.322l33.844-5.308c-1.258 6.751-10.175 8.445-23.787 10.601l-15.488 2.46-8.307 44.665 20.352-3.227c50.105-4.945 69.166-30.842 75.286-61.711l61.053-9.691 9.837-52.938 4.966-.794c5.44-.863 4.637-1.846 3.594 3.808l-9.005 48.439 43.832-6.957.598-3.209c3.308 1.459 7.176 1.973 11.266 1.33l75.804-12.024 7.068-38.048-4.911-3.498c4.255-5.044 7.573-11.212 8.535-16.391l1.194-6c3.783-22.442-16.908-28.403-26.352-26.902l-43.5 6.902c-7.706 1.224-16.187 6.593-22.361 13.705-5.708-5.654-14.517-7.852-19.642-7.037l-48.43 7.681 5.423 11.982 43.675-6.92c6.3-1.005 10.508 1.509 11.663 6.499-.467 1.32-11.663 60.935-11.663 60.935l-15.661 2.487 8.397-45.133c1.041-5.652-.667-7.48-6.105-6.614l-30.012 4.767-9.846 52.938-17.215 2.74 11.266-60.613-14.171-16.716-51.014 18.442 24.178-3.838.391-.054-15.375 82.716c-3.907 21.01-26.327 41.103-46.216 44.261l-20.349 3.224 3.086-16.553 15.479-2.448c13.609-2.166 28.93-15.787 31.573-30.03l1.669-8.963-40.309 6.394c-8.644 1.375-13.335-3.876-11.636-13.007l7.23-38.884c1.278-6.911 5.591-12.647 11.359-15.63l.093-1.038 20.226-15.564-11.814 1.988c-6.288.993-17.942 5.706-25.35 15.152-5.6-6.683-15.395-9.299-20.911-8.424l-43.449 6.902 7.082-38.06 31.699-5.031c16.872-2.671 35.543-21.651 38.863-39.474l4.764-25.648c3.317-17.834-9.224-31.858-26.099-29.181l-69.275 10.989-14.761 79.416-63.789 10.123c-5.398.858-10.652 6.181-11.708 11.886l-23.84 128.219c-1.056 5.708 2.463 9.645 7.861 8.794l121.717-19.314 9.846-52.938 4.957-.794c5.452-.854 4.649-1.835 3.591 3.816l-9.002 48.424zm-90.322-29.026-40.7 6.457 1.531-8.261 32.872-5.227 8-43.017-32.872 5.224 1.53-8.27 40.701-6.46zm-2.463 13.239-3.38 18.196-72.009 11.422 22.442-120.772 59.488-9.438-3.073 16.548-42.268 6.712-6.454 34.74 34.436-5.462-3.073 16.539-34.439 5.461-6.467 34.752zm82.716 4.548-17.224 2.721 8.387-45.118c1.059-5.657-.652-7.492-6.105-6.629l-30.009 4.767-9.837 52.938-17.224 2.737 12.914-69.479.4-.066 57.134-9.065c8.643-1.374 13.332 3.868 11.633 13.007zm111.927-85.2 16.833-2.665-12.923 69.483-17.215 2.728 12.911-69.474zm104.441 32.746 5.976-32.141c1.895-10.166 12.821-20.151 22.126-21.63l40.271-6.382c6.785-1.08 11.498 6.499 10.114 13.912l-1.976 10.346c-1.386 7.417-8.962 15.299-15.741 16.379l-41.801 6.635-.602 3.753c-.794 4.265 2.036 7.597 5.949 6.974l46.722-7.44-3.149 16.956-52.707 8.355c-9.308 1.474-17.064-5.543-15.182-15.717M199.181 85.268l5.843-31.437 21.916-3.477c2.875-.454 4.343 1.185 3.771 4.216l-3.993 21.516c-.572 3.041-2.746 5.248-5.622 5.705z" style="fill-opacity:1;fill:#fff"/><path d="m339.258 99.975-4.649-18.427-2.626.315-.842 4.545c-.583 3.152-3.116 5.714-6.087 6.192l-18.006 2.854c-2.974.476-4.674-1.428-4.087-4.577l9.073-48.806c.584-3.137 3.116-5.705 6.085-6.18l18.008-2.854c2.972-.473 4.671 1.428 4.085 4.565l-1.161 6.214 36.4-5.781 1.383-7.44c3.489-18.776-9.275-33.05-27.049-30.241l-34.827 5.528c-17.763 2.821-36.779 22.138-40.268 40.914l-9.687 52.114c-3.486 18.776 9.278 33.049 27.053 30.228l11.639-1.837zM365.063 88.859c.95-2.556 1.606-3.528 2.093-6.15l1.236-6.626-14.484 2.304z" style="fill-opacity:1;fill:#fff"/></svg>