<svg xmlns="http://www.w3.org/2000/svg" preserveAspectRatio="xMidYMin" viewBox="0 0 264 86.6"><path d="M18.712 61.816c4.733-.002 9.447-.291 13.893-1.982 11.894-4.094 19.773-16.651 19.38-29.047-.345-6.076-2.406-12.089-6.082-16.958C40.429 6.097 30.894 1.712 21.488 1.946L.332 1.937v17.861l-.057.245.057-.003V85.3h8.609V61.816M8.856 9.64c4.848-.009 9.694-.112 14.533.111 7.205.478 14.205 4.497 17.731 10.873 4.417 7.545 3.913 17.755-1.533 24.645-3.8 5.114-9.985 8.386-16.376 8.489-4.754.066-9.411.03-14.27.03zM145.552 49.885v-16.2h-12.665a35.5 35.5 0 0 1 1.331 9.616c0 2.251-.22 4.449-.621 6.584z" style="fill:#fff"/><path d="M130.5 59.102c-5.817 11.661-17.864 19.674-31.792 19.674-19.611 0-35.509-15.883-35.509-35.477 0-19.592 15.898-35.477 35.509-35.477 12.685 0 23.808 6.649 30.088 16.644h8.929C130.714 9.991 115.885 0 98.707 0 74.772 0 55.368 19.386 55.368 43.299c0 23.915 19.404 43.301 43.339 43.301 18.351 0 34.026-11.401 40.346-27.498zM194.078 18.465V1.937h-41.745v83.391h15.853V49.885h24.7v-16.2h-24.7v-15.22z" style="fill:#fff"/><path d="m260.543 85.328-24.797-43.329 22.926-40.062h-19.079l-13.388 23.392L212.82 1.937h-19.079l22.926 40.062-24.798 43.329h19.08l15.256-26.659 15.259 26.659z" style="fill:#fff"/></svg>