<svg xmlns="http://www.w3.org/2000/svg" viewBox="0 0 264 36"><path d="M33.899 12.062c-2.041-.003-10.213.652-10.213 11.896 0 12.847 10.664 12.018 10.664 12.018s10.418-.109 10.418-12.018S34.467 12.072 34.35 12.062c0 0-.16.002-.451 0m.451 6.093s3.815-.622 3.815 5.803c0 5.949-3.815 5.305-3.815 5.305s-3.978.044-3.978-5.305c0-6.448 3.978-5.728 3.978-5.803M48.845 2.679h6.679v18.195l5.169-8.808h7.136l-7.136 10.548 7.136 13.379h-7.136l-5.169-11.136v11.136h-6.679ZM71.914 5.92l2.524 3.606 9.6-5.804L81.079 0l-9.05 5.862zM92.299 35.993h5.906V22.241s.246-3.616 3.281-3.616 3.035 3.616 3.035 3.616v13.752h5.578V22.241s.124-3.616 3.16-3.616c3.034 0 3.034 3.616 3.034 3.616v13.752h5.783V18.625s.411-6.559-5.783-6.559-6.194 3.902-6.194 3.902.739-3.902-5.578-3.902c-6.316 0-6.316 3.902-6.316 3.902s.902-3.902-2.502-3.902h-3.404ZM136.171 12.076c-2.041-.004-10.212.652-10.212 11.893 0 12.849 10.664 12.02 10.664 12.02s10.419-.11 10.419-12.02c0-11.908-10.302-11.886-10.419-11.893zm.452 6.091s3.814-.621 3.814 5.802c0 5.951-3.814 5.306-3.814 5.306s-3.978.046-3.978-5.306c0-6.445 3.978-5.726 3.978-5.802M150.742 35.993h6.439V22.241s-.164-3.616 3.405-3.616 3.569 3.616 3.569 3.616v13.752h5.987V18.625s.041-6.559-5.987-6.559c-6.03 0-6.974 3.902-6.974 3.902s.575-3.902-1.805-3.902h-4.634ZM185.01 12.066h27.639s2.668-.103 2.668 2.549v19.996s.059 1.382-1.276 1.382h-4.001s-1.335-.033-1.335-1.382v-12.37s-.116-1.579-1.276-1.579h-4.002s-1.335-.156-1.335 1.579v12.37s-.174 1.382-1.333 1.382h-3.771s-1.451.084-1.451-1.382v-12.37s.406-1.579-1.392-1.579h-3.77s-1.335-.156-1.335 1.579v12.37s0 1.382-1.333 1.382h-4.002s-1.219-.093-1.219-1.382V14.615s.059-2.356 2.524-2.549M225.752 23.976s1.284-.098 1.284 1.28v9.355s-.136 1.382-1.242 1.382h-2.708s-1.329-.036-1.329-1.382v-9.355s.057-1.28 1.37-1.28c1.312 0 2.544.047 2.625 0M223.127 19.958s-1.37.025-1.37-1.333v-4.01s-.003-1.326 1.391-1.326h2.625s1.263-.027 1.263 1.326v4.01s.131 1.333-1.242 1.333c-1.374 0-2.625-.018-2.667 0M233.586 34.611s.041 1.382 1.354 1.382h3.856s1.353-.077 1.353-1.382v-12.37s.041-1.579 1.313-1.579h3.937s1.353-.156 1.353 1.579v12.37s-.081 1.382 1.313 1.382h2.667s1.23-.077 1.23-1.382V15.968s-.041-2.679-2.625-2.679h-13.085s-2.666.023-2.666 2.679c0 2.657.124 18.789 0 18.643M262.714 23.976s1.283-.098 1.283 1.28v9.355s-.134 1.382-1.242 1.382h-2.707s-1.329-.036-1.329-1.382v-9.355s.058-1.28 1.37-1.28 2.543.047 2.625 0M260.089 19.958s-1.37.025-1.37-1.333v-4.01s-.003-1.326 1.391-1.326h2.625s1.262-.027 1.262 1.326v4.01s.132 1.333-1.242 1.333-2.625-.018-2.666 0M78.617 12.062c-7.878 0-9.68 6.078-9.68 11.896s3.485 12.018 10.213 12.018c6.729 0 7.342-1.367 7.342-1.367v-4.021c-.047-.014-5.509 0-8.408 0-2.901 0-2.339-3.937-2.339-3.937h12.511v-4.393s.003-10.196-9.639-10.196m.451 5.223c3.328 0 3.363 1.326 3.363 1.326v3.647h-6.686v-3.647s-.005-1.326 3.323-1.326M0 4.52v31.456h7.383V24.868h5.742s7.424-.621 7.424-6.713v-6.093s-.046-7.542-7.424-7.542C5.821 4.52.032 4.625 0 4.52m7.383 6.092c.011.002 2.766 0 3.938 0 2.021.604 1.804 2.695 1.804 2.695v2.652c0 2.205-1.804 2.652-1.804 2.652H7.383Z" style="fill-opacity:1;stroke:none;stroke-width:5.91784;stroke-linecap:butt;stroke-linejoin:round;stroke-miterlimit:4;stroke-dasharray:none;stroke-opacity:1;paint-order:markers stroke;fill:#fff"/></svg>