<svg xmlns="http://www.w3.org/2000/svg" viewBox="0 0 264 70"><path d="M84.453 80.481c8.799-10.287 21.867-16.812 36.465-16.812 2.928 0 5.793.279 8.577.777a47.8 47.8 0 0 0 2.901-16.464C132.396 21.483 110.907 0 84.408 0 57.903 0 36.42 21.483 36.42 47.985a47.8 47.8 0 0 0 2.913 16.479 48.4 48.4 0 0 1 8.655-.795c14.598.003 27.663 6.528 36.465 16.812m45.042-16.032c-5.76 15.768-19.554 27.657-36.423 30.738a48 48 0 0 1 2.904 16.47c0 11.907-4.344 22.791-11.523 31.176 8.802 10.287 21.867 16.815 36.465 16.815 26.505 0 47.988-21.486 47.988-47.991 0-23.574-17.001-43.161-39.411-47.208M75.834 95.196c-16.905-3.051-30.729-14.952-36.501-30.729C16.965 68.541 0 88.113 0 111.657c0 26.505 21.486 47.991 47.988 47.991 14.598 0 27.663-6.528 36.465-16.812-7.176-8.388-11.52-19.272-11.52-31.176a47.9 47.9 0 0 1 2.901-16.464m0 0a48.1 48.1 0 0 0 17.238-.012c-1.983-5.433-4.932-10.392-8.619-14.706a48 48 0 0 0-8.619 14.718M267.966 59.187q0 14.135-9.6 21.672-9.601 7.533-27.204 7.533h-15.066v40.269h-6.801V31.185h23.868q34.803 0 34.803 28.002m-51.87 23.337h13.401q16.466 0 23.802-5.436 7.331-5.433 7.332-17.634 0-11.266-6.933-16.701-6.934-5.432-21.468-5.433h-16.134zM371.109 79.791c0 15.468-3.864 27.702-11.601 36.702Q347.904 130 327.507 129.999q-20.339.001-31.938-13.506c-7.734-9-11.601-21.276-11.601-36.837q0-23.266 11.7-36.636 11.704-13.369 31.971-13.368c13.605 0 24.246 4.479 31.938 13.434q11.53 13.436 11.532 36.705m-79.74 0q0 20.933 9.333 32.37 9.334 11.435 26.805 11.436c11.733 0 20.703-3.777 26.901-11.337 6.198-7.557 9.3-18.375 9.3-32.469q-.002-21.069-9.3-32.301-9.298-11.236-26.769-11.235-17.402 0-26.835 11.334c-6.291 7.554-9.435 18.291-9.435 32.202M400.314 86.19v42.471h-6.804V31.185h23.202q18.138 0 26.808 6.699c5.778 4.467 8.667 11.193 8.667 20.169q0 9.805-5.166 16.536c-3.447 4.491-8.676 7.713-15.702 9.669l26.469 44.406h-8.133l-25.14-42.474zm0-5.868h18.6c8.223 0 14.601-1.83 19.137-5.499 4.533-3.666 6.804-9.075 6.804-16.236 0-7.422-2.226-12.819-6.669-16.2q-6.67-5.067-21.741-5.067h-16.131zM500.055 128.661h-6.864V37.587h-31.674v-6.402h70.209v6.402h-31.671zM600 103.524q0 12.207-8.97 19.338-8.968 7.133-23.835 7.134-17.87 0-27.405-3.939v-6.801c7.026 2.979 15.978 4.47 26.868 4.47q12.005 0 19.038-5.496 7.033-5.507 7.032-14.439.001-5.531-2.337-9.168-2.331-3.632-7.596-6.633c-3.516-2.001-8.667-4.158-15.471-6.468-9.954-3.42-16.833-7.122-20.634-11.097q-5.704-5.972-5.703-15.903 0-10.933 8.571-17.835c5.712-4.602 13.053-6.9 22.032-6.9q13.734 0 25.803 5.199l-2.466 5.868q-12.136-5.068-23.202-5.07-10.8 0-17.199 5.004c-4.272 3.333-6.402 7.869-6.402 13.602 0 3.6.651 6.558 1.962 8.868 1.308 2.313 3.459 4.389 6.432 6.237 2.979 1.842 8.091 4.056 15.336 6.633 7.599 2.625 13.311 5.166 17.133 7.635 3.816 2.466 6.609 5.268 8.364 8.4 1.77 3.129 2.649 6.918 2.649 11.361" style="fill-opacity:1;fill:#fff" transform="scale(.44 .43846)"/></svg>