<svg xmlns="http://www.w3.org/2000/svg" viewBox="0 0 264 56"><path d="M168.995 0h-34.63c-10.681 0-15.915 6.557-15.915 15.071v25.866c0 5.283-2.511 9.076-7.812 9.076H80.349a.387.387 0 0 0-.388.375v5.22c0 .213.175.392.388.392h34.284c10.677 0 15.924-6.528 15.924-15.046V15.071c0-5.287 2.492-9.089 7.823-9.089h30.615c.24 0 .429-.17.429-.383V.387c0-.204-.189-.387-.429-.387M67.057 0H.418C.176 0 0 .183 0 .387v5.212c0 .213.176.392.418.392h62.631c5.295 0 7.808 3.793 7.808 9.08 0 5.267-2.513 9.052-7.808 9.052H13.502C5.807 24.123 0 30.544 0 39.062v16.533c0 .226.176.405.419.405h11.29a.406.406 0 0 0 .406-.405V39.062c0-5.254 3.038-8.961 7.447-8.961h47.495c10.66 0 15.886-6.508 15.886-15.026C82.943 6.57 77.717 0 67.057 0M259.037 27.301a.476.476 0 0 1 0-.613c3.32-2.732 4.963-6.849 4.963-11.613C264 6.57 258.784 0 248.093 0h-66.622a.395.395 0 0 0-.394.405v5.194a.39.39 0 0 0 .394.392h62.621c5.279 0 7.827 3.793 7.827 9.08 0 5.267-2.531 9.052-7.827 9.052h-.078l-62.543.013a.38.38 0 0 0-.394.399v5.19c0 .209.167.376.394.376h62.621c6.905.08 7.814 6.762 7.814 10.18l.013.643c0 5.296-2.548 9.106-7.827 9.106h-62.621c-.227 0-.394.162-.394.374v5.204a.39.39 0 0 0 .394.392h66.622C258.794 56 264 48.943 264 40.924v-.643c0-5.114-1.643-9.997-4.963-12.98" style="fill:#fff;fill-opacity:1"/></svg>