<svg xmlns="http://www.w3.org/2000/svg" viewBox="0 0 264 54"><path d="M79.665 13.816v27.488h4.847V16.766h2.975c2.146 0 3.115.058 3.479.209.72.299 1.46 1.208 1.764 2.16.159.5.29 1.583.337 2.785.096 2.463-.191 3.992-.948 4.984-.79 1.037-1.272 1.2-3.503 1.2h-1.915v2.984l3.009-.058 3.01-.059 1.065-.499c1.946-.912 3.358-2.777 3.928-5.179.319-1.341.313-4.34-.01-5.78-.311-1.384-.958-2.777-1.686-3.62a7 7 0 0 0-1.304-1.122c-1.41-.899-1.954-.955-8.829-.955zm21.419 0v27.488h4.848V13.816h-4.848m60.781 0c-2.17 0-4.404.076-4.964.165-1.26.199-2.733.862-3.566 1.611-.84.753-1.557 1.885-1.944 3.075-.242.74-.317 1.415-.328 2.836-.013 1.96.154 2.794.831 4.114.441.859 1.617 2.099 2.424 2.563.936.539 2.136.825 4.196.99 1.568.126 1.934.204 2.444.539q.603.394 1.05 1.295c.419.847.443 1.022.44 2.844-.001 1.816-.028 1.995-.431 2.757-.272.517-.666.971-1.079 1.243l-.65.428-4.118.048-4.115.043v2.937h4.68c2.848 0 5.009-.07 5.512-.175 1.916-.401 3.51-1.634 4.284-3.315.652-1.415.882-2.87.797-5.053-.089-2.301-.433-3.554-1.359-4.929-1.149-1.708-2.434-2.295-5.7-2.592-1.209-.11-2.447-.304-2.752-.431-.672-.284-1.301-.996-1.577-1.787-.275-.779-.271-3.039.009-3.992.275-.944 1.11-1.811 1.989-2.074.425-.127 1.852-.188 4.255-.188h3.621v-2.952zm55.7 0v4.038h4.848v-4.038h-4.848m-46.607 3.105.051 9.901c.042 9.745.048 9.914.385 10.799.188.493.59 1.232.893 1.644.622.841 1.431 1.43 2.453 1.785.493.172 1.328.239 2.917.244l2.228.01v-2.95h-1.455c-1.386 0-1.479-.019-1.872-.427-.245-.254-.484-.748-.58-1.205-.107-.493-.151-3.06-.123-7.067l.044-6.288 2.619-.045 2.618-.043v-2.941h-5.315v-3.417h-4.863m33.473 0V26.7c0 9.458.012 9.814.324 10.755.37 1.121 1.124 2.232 1.945 2.853.312.237.932.558 1.377.708.62.213 1.313.278 2.96.282l2.15.006v-2.951h-1.388c-1.159 0-1.453-.05-1.792-.316-.225-.175-.479-.576-.568-.892-.099-.355-.161-3.147-.161-7.218v-6.639h5.326l-.044-1.436-.045-1.437-2.619-.043-2.617-.045v-3.406h-4.848m-4.274 3.377-5.175.084c-5.564.084-6.14.152-7.774.975-1.826.92-3.1 2.706-3.677 5.154-.242 1.022-.284 1.901-.284 5.784 0 4.411.013 4.616.357 5.461.693 1.701 1.724 2.751 3.209 3.26.656.226 1.338.277 3.586.281l2.777.005v-2.95h-1.944c-1.842 0-1.967-.023-2.404-.389-.291-.241-.526-.645-.636-1.077-.217-.857-.228-7.613-.014-9.25.302-2.325.831-3.413 1.93-3.999.379-.2 1.031-.273 2.872-.32l2.385-.063v18.05h5.003v-5.801c0-3.188-.05-7.915-.106-10.501zm-73.431.006-5.198.077c-5.65.087-6.462.189-8.004 1.01-1.792.953-3.07 2.836-3.611 5.314-.343 1.574-.503 8.021-.239 9.579.23 1.361.871 2.73 1.637 3.504.564.57 1.499 1.133 2.281 1.369.215.065 1.675.123 3.244.131l2.853.014v-2.949h-1.998c-2.254 0-2.55-.106-2.975-1.068-.19-.429-.264-1.271-.313-3.542-.07-3.228.156-6.73.508-7.892.316-1.044.905-1.846 1.597-2.183.506-.247.971-.295 2.946-.297l2.345-.005.039 8.969.04 8.967h4.848V20.304m5.219.034c-1.408 0-2.559.018-2.556.039.002.021 1.61 4.709 3.571 10.42l3.568 10.385-2.009 5.144c-1.104 2.833-2.008 5.169-2.008 5.193s.959.024 2.131 0l2.13-.043L143 35.945a5337 5337 0 0 0 6.235-15.568c.002-.021-1.01-.039-2.252-.039-1.638 0-2.292.054-2.379.195-.066.106-1.264 3.125-2.658 6.711s-2.597 6.539-2.677 6.567c-.082.026-1.189-2.994-2.457-6.713l-2.306-6.76zm85.62 0v20.964h4.848V20.338h-4.848m29.316.077-.046 10.444h.007l-.045 10.443h5.008V23.254l2.383.063c2.533.066 2.955.171 3.666.927.558.593.956 1.672 1.133 3.076.093.735.167 4.111.167 7.649v6.333H264l-.005-6.173c0-6.546-.116-8.1-.752-9.875-.864-2.414-2.454-3.846-5.042-4.543-.856-.23-1.769-.271-6.162-.281zm-12.254.045c-1.367 0-2.73.17-3.708.504-1.303.445-2.121.966-2.943 1.873-.89.984-1.534 2.317-1.913 3.945-.233.999-.287 1.837-.274 4.271.013 2.561.065 3.215.342 4.227.472 1.718 1.087 2.875 2.023 3.816.921.924 2.283 1.635 3.817 1.979.69.155 1.646.204 3.107.166 2.52-.067 3.718-.388 5.188-1.388 1.232-.837 2.165-2.157 2.694-3.82.754-2.373.887-6.286.307-9.172-.281-1.402-.967-2.923-1.73-3.849-.718-.87-1.893-1.633-3.15-2.048-1.018-.334-2.394-.504-3.76-.504m.058 2.891c.71 0 1.422.137 1.979.418.728.366 1.186 1.005 1.582 2.212.261.79.325 1.509.388 4.121.079 3.411-.078 5.018-.612 6.231-.375.856-.983 1.521-1.651 1.805-.286.121-1.037.214-1.734.214-.989 0-1.368-.07-1.92-.359a3.1 3.1 0 0 1-1.124-1.053c-.707-1.134-.939-2.619-.948-5.965-.008-3.185.157-4.466.749-5.761.199-.439.603-.976.903-1.204.569-.43 1.477-.659 2.388-.659M38.608 11.23l-.047 42.769-11.537-3.726V0l14.727 3.868c9.426 2.516 15.194 7.408 15.1 15.98-.094 9.971-4.737 13.977-13.787 11.369V11.555c-.002-2.376-4.456-2.515-4.456-.325" style="fill-opacity:1;fill:#fff"/><path d="M65.481 44.635 54.6 41.28l3.003-1.024c6.05-1.911 3.516-3.961-2.769-2.797l-6.002 2.005-10.271-3.169.938-.327c5.722-1.957 11.584-3.261 17.54-2.841 8.302.605 13.695 2.422 14.445 5.777.469 2.002-1.407 4.147-5.816 5.684zM27.024 29.819v2.936l-4.549-1.398zm21.714 20.686-10.177-3.214v-.559l16.038-5.452 10.882 3.355zM27.024 40.208v3.448l-5.299-1.678zm11.535-3.912 10.272 3.168-10.272 3.494zm-22.933 3.773-9.895-3.122c.094 0 .188-.046.234-.046l16.508-5.544 4.55 1.398v3.26zm6.097 1.909 5.3 1.678v3.215c-4.268 1.491-8.959 1.957-14.117 1.119C7.372 47.105.197 46.359.009 43.237c-.189-3.075 2.674-5.265 5.721-6.29l9.896 3.122-2.626.93c-3.236 1.167-.235 4.008 3.284 2.797zM38.653 54l-.094-.232v-6.476l10.178 3.214z" style="fill-opacity:1;fill:#fff"/></svg>