<svg xmlns="http://www.w3.org/2000/svg" viewBox="0 0 268 68"><path d="M44.878 14.763a28.8 28.8 0 0 1 1.811 10.05q0 4.5-1.402 8.238-2.34 6.31-7.421 10.516-5.26 4.323-11.805 5.024v6.018q0 .351-.526 2.805-1.051 4.85-1.927 11.044-2.923-12.973-3.215-13.79v-6.136q-6.369-.642-11.511-4.906Q-.001 36.266 0 24.813q0-4.791 1.578-9.348a23.05 23.05 0 0 1 4.441-7.77q3.214-3.797 7.245-5.259Q9 4.948 6.193 8.804q-3.797 5.26-3.797 11.978 0 2.453.468 4.849.993 5.025 4.851 9.346 3.972 4.501 8.822 5.668c1.676.584 2.96.899 3.857.936v-6.079q0-.934-.058-2.103-.408-1.927-2.221-2.22a.4.4 0 0 0-.291-.118H28.4q.408 0 .35.118-2.162.351-2.512 2.22-.177.936-.176 2.162v6.02q2.98-.644 4.091-.936 4.733-1.226 8.648-5.434 5.493-5.96 5.492-14.431 0-5.785-2.922-10.605t-8.005-7.743q8.005 3.045 11.512 12.331M61.644 6.851q-.526-4.085-3.445-4.903h14.198q-4.326 1.46-3.857 5.02v30.233q0 3.211.819 5.545 3.27 6.538 9.641 6.83-8.006-.233-12.447-4.844-4.909-5.078-4.908-11.323zm39.005-.041q.52-4.099 3.652-4.863H89.984q4.249 1.29 3.782 4.863v31.049q-.001 3.107-.881 4.863-3.344 6.622-9.563 6.854 4.858-.117 8.311-1.873 1.815-.936 4.157-2.988 4.857-4.275 4.858-11.249zM146.398 45.205l-2.337-5.727q-1.988-4.908-5.319-5.96a86 86 0 0 0-3.154-.233 9 9 0 0 0-.644-.059l.991-.292q3.03-.876 3.031-2.923-.001-.642-.466-1.753-2.334-5.552-3.442-8.357-2.157-5.024-3.266-5.667-.875-.466-2.857 3.505-2.1 4.267-2.682 5.728l-1.982 5.083q-.409 1.052-.409 1.812 0 2.69 3.719 2.865-4.909 0-6.776 2.51c-1.327 2.263-2.437 4.929-3.332 8.007l-.351 2.045q.352 2.22 2.631 2.629h-9.35q2.57-1.17 6.253-7.834 1.987-3.508 4.849-9.765 4.266-9.354 5.026-11.168 2.922-6.781 3.856-9.004l3.448-9.004 8.24 19.491h-.059a925 925 0 0 1 1.754 3.739q3.096 6.485 7.889 16.769 2.394 5.2 5.609 6.776h-13.733q3.214-.175 2.863-3.213M178.698 43.685c0 2.573 1.098 4.092 3.285 4.559h-13.089q2.815-.7 3.229-4.559V6.687q0-3.976-3.169-4.676h13.088q-2.403.525-3.344 4.499v13.035q0 3.742 4.935 5.32-4.935 1.051-4.935 6.254zm18.71-21.019Q205.822 11.8 214.764 0l-26.762 24.986h.057l-.057.059h.176q6.367 2.397 11.16 5.728 11.395 7.952 12.271 19.29.176-1.693.176-3.329 0-11.041-6.195-18.11-3.565-4.089-8.182-5.958M238.966 26.668q-1.636 1.29-1.636 3.567v4.036q0 1.755.995 7.192a13.4 13.4 0 0 0 2.042 3.215q2.86 3.331 6.655 3.567-5.833-.175-10.849-4.093-5.543-4.21-5.544-9.881V6.673q-1.003-4.152-3.593-5.029h13.734q-3.44.818-3.439 5.203v13.215q0 2.689 1.461 3.861.054.582 7.997.934-5.255.175-7.823 1.811m10.746-25.024h15.834l.057 15.746c-.469-4.332-2.198-7.883-5.2-10.654q-4.03-3.687-10.691-5.092m2.747 46.776q8.061-.641 15.541-15.193V48.42q-1.11-1.579-3.504-1.578-1.697 0-3.976.787-2.277.79-8.061.791" style="fill:#fff;fill-opacity:1"/></svg>