<svg xmlns="http://www.w3.org/2000/svg" viewBox="0 0 264 37"><path d="m84.033 29.22-1.707-.789c.108-.351.213-.789.213-1.227 0-1.14-10.02-7.284-27.396-7.284-16.629 0-23.772 4.212-23.772 9.651 0 14.388 62.787-6.666 62.787 25.095 0 11.58-13.644 20.529-40.935 20.529-26.01 0-33.474-6.843-35.925-6.843-.639 0-.96.438-1.491.702l-1.386-.264 8.847-14.916 1.707.702c0 .354-.216.705-.216 1.404 0 5.178 13.755 8.862 27.399 8.862 19.401 0 26.01-4.56 26.01-9.39 0-17.193-61.935 4.125-61.935-25.002 0-14.739 18.867-20.88 39.549-20.88 18.549 0 31.554 6.666 32.835 6.666 1.386 0 1.599-.348 1.92-.612l1.704.438zM102.363 73.089c2.346 0 2.772-.702 2.772-2.634V14.307c0-1.932-.429-2.631-2.772-2.631v-1.23h69.186c2.559 0 3.624-.702 3.624-1.929h1.491v14.562h-1.491c0-1.578-1.065-2.28-3.624-2.28h-51.276v15.618h33.474c2.556 0 3.624-.702 3.624-2.28h1.491v14.736h-1.491c0-.702-.213-1.227-.855-1.578-.531-.351-1.491-.528-2.769-.528h-33.474v17.199h52.236c2.556 0 3.624-.705 3.624-2.106h1.491v14.388h-1.491c0-1.23-1.068-1.932-3.624-1.932h-70.146zM272.175 40.626v1.23c-1.068.177-2.025.876-2.025 2.808v17.283c0 1.404.531 1.929 1.917 2.193v1.227c-6.714 3.159-23.133 9.828-41.574 9.828-24.519 0-46.053-10.005-46.053-32.814 0-22.812 25.158-32.814 47.331-32.814 8.742 0 17.058 1.668 23.133 3.246 5.652 2.019 9.807 3.6 10.554 3.6.96 0 1.92-.441 2.346-.966l1.491.525-10.338 14.388-1.494-.789c.105-.351.213-.876.213-1.491 0-2.721-11.514-8.16-25.692-8.16-17.907 0-32.406 7.284-32.406 22.113 0 15.528 14.499 22.806 30.915 22.806 13.434 0 21.321-3.771 24.519-5.7v-7.281h-18.336c-2.13 0-3.411.876-3.411 2.103h-1.494V38.523h1.494c0 1.227 1.281 2.103 3.411 2.103zM277.497 74.319v-1.23c1.92-.087 2.559-.525 4.05-3.333l29.103-53.868c.534-.879 1.173-1.845 1.173-2.634 0-.963-.852-1.404-2.241-1.578v-1.23h23.241v1.23c-1.596.174-2.238.699-2.238 1.314 0 .702.426 1.404.96 2.283l30.915 54.483c1.491 2.721 1.917 3.333 4.155 3.333v1.23h-21.213v-1.23c1.386 0 1.92-.438 1.92-.876 0-.966-.96-2.193-8.103-14.742h-36.564c-6.183 11.406-7.782 13.161-7.782 14.301 0 .792.639 1.23 1.599 1.317v1.227h-18.975Zm55.542-26.85-12.792-22.986-12.582 22.986z" style="fill-opacity:1;fill:#fff" transform="scale(.44 .43652)"/><path d="M600 84.762H0V0h600zM5.4 79.365h589.2V5.4H5.4z" style="fill-opacity:1;fill:#fff" transform="scale(.44 .43652)"/><path d="M385.098 10.446v63.87h205.164v-63.87zm8.697 44.835c-1.704-11.37 36.069-26.529 85.281-34.515l-3.261.837s-4.836 1.179-6.171 1.506c-25.104 6.135-42.693 17.187-41.226 26.985 1.506 10.032 22.476 15.465 49.152 13.608 1.482-.105 6.741-.357 7.887-.408-49.398 6.783-89.958 3.363-91.662-8.013m123.018 2.457c-10.905 2.478-24.534 4.584-24.534 4.584V33.819l7.026 23.193s16.737-2.715 29.475-8.019c11.073-4.611 17.94-10.395 17.475-16.554-.75-10.008-22.032-15.348-48.309-13.659a749 749 0 0 1-8.715.462c49.389-6.786 89.943-3.363 91.65 8.01 1.449 9.672-25.662 22.077-64.068 30.486" style="fill-opacity:1;fill:#fff" transform="scale(.44 .43652)"/></svg>