<svg xmlns="http://www.w3.org/2000/svg" viewBox="0 0 264 38"><path d="M80.217 68.958q0 7.716-4.68 12.462-4.683 4.743-12.651 4.743H1.395V68.958h61.491V51.75H17.082q-7.592 0-12.336-4.809Q-.001 42.134 0 34.542V17.205q0-3.668 1.392-6.828 1.391-3.164 3.732-5.442a17.7 17.7 0 0 1 5.439-3.606A16.4 16.4 0 0 1 17.082 0H74.4v17.205H17.082v17.337h45.804q3.668 0 6.831 1.329t5.505 3.606q2.339 2.276 3.669 5.439 1.327 3.165 1.326 6.834ZM180.18 86.163h-68.955q-17.212.001-17.211-17.205V17.205q0-3.668 1.392-6.828 1.39-3.164 3.735-5.442a17.8 17.8 0 0 1 5.439-3.606Q107.68.001 111.225 0h66.045v17.205h-66.045v51.753h51.621V51.75h-34.29V34.542h51.624ZM244.917 51.75h-51.624V34.542h51.624ZM304.848 86.163h-51.624V68.958h17.331V17.205h-17.331V0h34.542v68.958h17.082ZM333.471 0c-2.277 0-4.443.441-6.51 1.326a17.7 17.7 0 0 0-5.439 3.606q-2.34 2.276-3.735 5.439-1.391 3.163-1.392 6.831v51.756q0 17.206 17.076 17.205h51.63q17.203.001 17.202-17.205V17.202c0-2.358-.441-4.587-1.326-6.696-.885-2.106-2.103-3.945-3.663-5.505-1.56-1.563-3.399-2.79-5.508-3.675Q388.642-.001 385.101 0zm0 17.202h51.63v51.756h-51.63zM432.324 0c-2.277 0-4.443.441-6.51 1.326a17.7 17.7 0 0 0-5.439 3.606q-2.34 2.276-3.735 5.439-1.391 3.163-1.392 6.831v51.756q0 17.206 17.076 17.205h51.63q17.203.001 17.202-17.205V17.202c0-2.358-.438-4.587-1.326-6.696a17.1 17.1 0 0 0-3.672-5.505 17 17 0 0 0-5.508-3.675C488.541.441 486.315 0 483.954 0zm0 17.202h51.63v51.756h-51.63zM531.177 0c-2.274 0-4.452.441-6.522 1.326a17.7 17.7 0 0 0-5.436 3.606q-2.34 2.276-3.735 5.439-1.391 3.163-1.392 6.831v51.756c0 11.472 5.7 17.205 17.085 17.205h51.621q17.203.001 17.202-17.205V17.202c0-2.358-.441-4.587-1.326-6.696-.885-2.106-2.103-3.945-3.663-5.505-1.56-1.563-3.399-2.79-5.508-3.675S585.156 0 582.798 0zm0 17.202h51.621v51.756h-51.621z" style="fill:#fff" transform="scale(.44 .44103)"/></svg>