<svg xmlns="http://www.w3.org/2000/svg" baseProfile="tiny" viewBox="0 0 264 65"><path d="M29.219 0c-5.643 0-11.132 4.642-12.138 10.39l-4.017 19.959c-.106 2.514.246 5.946 1.03 6.586.998 5.537 19.46 31.177 18.929 35.08-.496 3.915-2.674 15.435-2.674 15.435-.67 3.881-3.32 6.991-7.199 6.991-3.885 0-6.535-3.098-5.865-6.991l3.497-19.136H6.995l-4.63 26.545c-.944 5.387 2.707 9.668 8.127 9.668h19.652c5.445 0 10.627-4.281 11.625-9.668 0 0 5.062-24.794 5.038-26.545-.018-1.764-.51-1.956-.51-1.956 0-2.016-16.429-29.138-18.109-30.148-.721-.42-1.316-3.106-1.34-4.729-.03-1.613 2.164-12.45 2.164-12.45.667-3.882 4.344-6.995 8.229-6.995 3.882 0 5.504 3.113 4.834 6.995l-2.98 17.179h13.887l4.837-25.823C58.913 4.642 55.232 0 49.59 0zm37.86 0L50.62 94.862c-.943 5.387 2.704 9.668 8.127 9.668H78.4c5.441 0 10.72-4.281 11.727-9.668L107.718 0H95.372L78.601 92.185c-.243 1.34-1.544 2.469-2.878 2.469h-9.777c-1.367 0-2.28-1.12-2.058-2.469L80.248 0zm47.327 0L94.549 104.53h13.169l9.056-47.327h16.768c5.456 0 10.627-4.314 11.624-9.672l7.202-37.141C153.456 4.63 149.784 0 144.142 0h-29.736m47.018 0-20.575 104.53h29.63l2.055-12.964h-14.608l5.97-35.288h14.608l2.056-10.907h-14.605l6.48-32.407h14.611L189.098 0zm35.393 0-19.752 104.53h13.169l8.951-47.327h9.365c1.228 1.148 1.376 3.26 1.538 4.321.243 1.538.502 3.503.312 5.041-.171 1.526-7.204 37.962-7.204 37.962h13.171s7.407-39.692 7.407-40.329c.024-.649 0-2.683-.716-3.807-.483-.721-1.313-2.377-2.268-2.981-1.839-1.18-3.912-1.959-3.912-1.959h-.928c3.77-1.484 10.873-3.93 11.63-7.92l7.199-37.141C235.873 4.63 232.195 0 226.55 0zm70.477 0-19.86 104.53h15.125l12.24-60.598 4.838 60.598h13.171L312.665 0H297.54l-10.287 54.631L280.46 0zm52.261 0-19.854 104.53h13.169L332.723 0zm20.058 0-19.854 104.53h15.23l12.243-60.598 4.834 60.598h13.172L385.092 0h-15.227L359.68 54.631 352.89 0zm51.037 0-2.472 12.964h8.229l-16.254 91.566h15.022l16.564-91.566h7.92L421.717 0zm36.214 0-20.575 104.53h29.628l2.058-12.964h-14.608l6.072-35.288h14.605l2.061-10.907h-14.611l6.376-32.407h14.61L454.539 0zm33.437 0-19.857 104.53h15.224l12.247-60.598 4.837 60.598h13.169L505.778 0h-15.227l-10.189 54.631L473.572 0zm52.372 0L492.81 104.53h30.042c5.457 0 10.72-4.281 11.733-9.668l15.942-84.469C551.609 4.63 547.943 0 542.298 0zm56.479 0c-5.649 0-11.03 4.642-12.039 10.39l-14.716 84.469c-.953 5.39 2.614 9.671 8.031 9.671h21.707c5.442 0 10.718-4.284 11.73-9.671l15.942-84.469C600.904 4.642 597.214 0 591.581 0zm-45.269 12.039h6.072c3.882 0 6.532 3.11 5.862 6.995l-12.965 68.419c-.676 3.881-4.449 7.099-8.334 7.099h-5.967zm52.985 0h.411c3.882 0 6.43 3.11 5.76 6.995l-12.343 68.419c-.673 3.869-4.251 7.099-8.127 7.099-3.888 0-5.507-3.218-4.84-7.099l12.243-68.419.099-.31.105-.309.1-.412.102-.309.105-.412.099-.309.105-.31.202-.306.102-.31.21-.309.102-.307.205-.309.21-.208.201-.306.21-.309.307-.208.207-.207.208-.207.303-.208.312-.204.208-.204.306-.208.31-.102.309-.207.207-.102.409-.105.307-.1h.309l.306-.105h.415zm-449.81.412h6.382c1.4 0 4.371 3.206 4.116 4.63L132.1 42.905c-.253 1.337-2.055 4.419-3.389 4.419l-7.843.126-1.318-.637s-.944-1.222-.622-1.953l6.174-31.586c.568-.466 1.259-.823 1.956-.823m81.996 0h6.382c1.403 0 4.39 3.206 4.113 4.63l-5.456 25.718c-.237 1.349-3.587 4.528-4.933 4.528h-5.661c-1.169 0-1.974-.769-2.058-1.848 0-.171-.024-.417 0-.619l6.072-31.586.099-.102.105-.099.202-.105h.102l.102-.103.102-.102h.102l.102-.102h.106l.204-.102h.303v-.102h.012zM0 113.583v34.263h587.257v-34.263zm431.704 3.602h5.033c1.223 0 2.097.977 1.851 2.263l-1.133 5.762h-2.776l.613-3.806c.141-.86-.367-1.545-1.232-1.545-.859 0-1.71.682-1.851 1.545l-.511 2.782c-.09.162.168.943.304 1.027.381.22 4.014 6.241 4.014 6.685.084.223.135.331.099.415-.102.751-1.133 5.862-1.133 5.862-.219 1.172-1.361 2.157-2.569 2.157h-4.323c-1.199 0-1.971-.985-1.749-2.157l1.034-5.862h2.98l-.715 4.218c-.138.857.361 1.644 1.229 1.644.835 0 1.722-.781 1.857-1.644l.616-3.398c-.55-1.418-4.192-6.592-4.426-7.821-.159-.138-.225-.88-.204-1.439.033-.61.823-4.425.823-4.425h.105v-.304l.099-.207v-.099l.099-.105v-.103l.103-.099v-.105l.102-.099.105-.105v-.099h.099l.105-.103.099-.105.103-.099v-.105h.102l.099-.099.099-.102h.105l.102-.102h.102l.103-.1h.309zm23.658 0h3.704l.514 8.746 4.732-8.746h3.708l-7.614 13.376-1.85 9.771h-3.293l1.649-10.495zm33.644 0h5.036c1.22 0 2.073.977 1.851 2.263l-1.133 5.762h-2.779l.619-3.806c.138-.86-.364-1.545-1.235-1.545-.859 0-1.716.682-1.851 1.545l-.514 2.782c-.108.162.139.943.307 1.027.363.22 4.014 6.241 4.014 6.685.108.223.105.331.105.415-.141.751-1.03 5.862-1.03 5.862-.223 1.172-1.377 2.157-2.578 2.157h-4.42c-1.199 0-1.974-.985-1.755-2.157l1.031-5.862h2.986l-.718 4.218c-.141.86.394 1.647 1.232 1.647.856 0 1.683-.781 1.851-1.647l.616-3.395c-.562-1.418-4.185-6.592-4.423-7.821-.156-.141-.222-.88-.204-1.439.03-.613.823-4.425.823-4.425l.099-.103v-.201l.102-.207v-.102l.103-.105v-.1l.102-.102v-.105l.102-.099.102-.105v-.099h.105l.096-.103.103-.105.102-.099.102-.105.102-.099.102-.102h.102l.105-.102h.1l.102-.1h.303zm23.97 0h6.899l-.517 2.779h-1.752l-3.599 20.371h-3.395l3.599-20.371h-1.748zm26.954 0h6.174l-.516 2.779h-3.191l-1.436 7.304h3.289l-.516 2.365h-3.191l-1.334 7.821h3.185l-.409 2.878h-6.586zm25.415 0h3.807l.613 13.376 5.865-13.274 3.701-.102-3.903 23.147h-2.881l1.848-12.24-5.147 12.24h-2.058l-.613-12.553-2.265 12.553h-3.398zm-552.588.826h6.072l-.414 2.876h-3.29l-1.337 7.205h3.191l-.415 2.472h-3.293l-1.232 7.818h3.188l-.514 2.881H8.127zm28.396 0h2.881l1.542 12.139 2.262-12.139h3.398l-4.429 23.246h-2.878l-1.133-13.481-2.674 13.481h-3.395zm30.865 0h6.791l-.409 2.876h-1.752l-3.704 20.373h-3.287l3.596-20.373h-1.851zm29.94 0h6.172l-.514 2.876h-3.191l-1.439 7.205h3.188l-.412 2.472h-3.188l-1.337 7.818h3.191l-.412 2.881h-6.582zm29.015 0h6.583c1.22 0 1.992 1.079 1.749 2.362l-1.542 8.229c-.171.893-1.739 1.62-2.575 1.959h.415v.099h.412l.102.103h.309v.099h.207v.105h.103c.138.249.204.988.204 1.13 0 .138-1.65 9.157-1.65 9.157h-2.983s1.595-8.1 1.649-8.433c.034-.361-.039-.796-.102-1.13-.024-.249-.036-.676-.309-.928h-2.058l-1.956 10.491h-2.984zm29.42 0h6.893l-.409 2.876h-1.749l-3.704 20.373h-3.293l3.602-20.373h-1.851zm34.261 0h3.912l-1.235 23.246h-3.912l.514-5.351h-2.365l-1.956 5.351h-3.494zm27.371 0h2.98l-4.425 23.246h-2.882zm26.542 0h2.881l1.541 12.139 2.269-12.139h3.29l-4.321 23.246h-2.983l-1.031-13.481-2.677 13.481h-3.392zm34.056 0h3.807l.613 13.479 5.871-13.373h3.698l-3.909 23.146h-2.881l1.851-12.243-5.147 12.243h-2.058l-.616-12.549-2.26 12.549h-3.295zm37.346 0h6.069l-.414 2.876h-3.29L321 128.092h3.188l-.415 2.472h-3.287l-1.337 7.818h3.287l-.514 2.881h-6.478zm29.832 0h2.881l1.545 12.139 2.262-12.139h3.29l-4.317 23.246h-2.882l-1.132-13.481-2.677 13.481h-3.396zm30.559 0h6.892l-.513 2.876h-1.749l-3.599 20.373h-3.296l3.605-20.373h-1.851zm-246.611 2.774c-.162 0-.297.096-.414.207l-1.337 6.994v.106c0 .222.156.408.411.408h1.235c.306 0 1.076-.616 1.133-.925l1.129-5.763c.054-.33-.513-1.03-.823-1.03zm60.905 6.994-2.161 5.865h1.647z" style="fill:#fff" transform="scale(.44 .43965)"/></svg>