<svg xmlns="http://www.w3.org/2000/svg" viewBox="0 0 264 73"><path d="M224.679.388c0 .31-.336.387-1.419.387-1.239 0-1.42.053-1.42.517 0 .465.181.517 1.936.517 1.367 0 1.935-.103 1.935-.335 0-.156.077-.569.155-.905.129-.492.051-.569-.517-.569-.412 0-.67.129-.67.388M229.839.388c0 .31-.335.387-1.419.387-1.213 0-1.419.078-1.419.491 0 .362.258.517 1.187.646.67.079 1.548.156 1.935.156.696 0 .748-.077.748-1.034 0-.853-.077-1.034-.516-1.034-.284 0-.516.181-.516.388M219.26 1.292c0 .388.181.517.645.517.465 0 .645-.129.645-.517 0-.387-.18-.517-.645-.517-.464 0-.645.13-.645.517M183.061 1.215c-.103.077-.181 1.861-.181 3.928 0 4.266-.309 5.274-2.012 6.773-1.909 1.681-2.348 1.784-9.392 1.784h-6.399v1.292h7.044c7.895 0 8.231-.078 10.114-1.938 1.729-1.758 1.935-2.508 1.935-7.574 0-4.136-.025-4.446-.464-4.446-.258 0-.568.077-.645.181M70.541 3.671c-.103 1.034-.413 2.403-.697 3.024l-.516 1.163.645.646.645.647.439-1.009c.464-1.137.852-3.541.877-5.247 0-.983-.051-1.086-.619-1.086s-.619.13-.774 1.862M111.333 5.222c-.155 4.032-.464 5.118-1.858 6.564-1.599 1.682-2.76 1.914-9.211 1.914h-5.366v1.318l6.527-.078c6.399-.077 6.554-.077 7.792-.723 2.606-1.345 3.484-3.723 3.484-9.383 0-3.025 0-3.025-.62-3.025-.619 0-.619.026-.748 3.413M135.406 2.404c0 .568.155.621 8.979 1.835 4.928.672 9.391 1.293 9.933 1.37l.955.155V4.317c0-1.06-.103-1.448-.413-1.577-.774-.311-.929-.155-.826.749.052.491.078.905.078.905-.026 0-4.206-.568-9.315-1.292-5.082-.698-9.288-1.293-9.314-1.293-.051 0-.077.259-.077.595" style="fill:#fff"/><path d="M167.116 3.619c-.439 1.473-1.858 3.024-3.096 3.386-.8.258-1.007.44-1.007.93 0 .543.129.595 1.11.595 1.883 0 3.689-1.706 4.412-4.213.129-.388.619-.44 5.779-.44h5.651l-.052-.594-.051-.569-6.219-.077-6.218-.052zM54.389 3.748v.646h12.385V3.102H54.389zM228.549 3.748v.646h-9.289v4.782c0 2.636-.077 4.756-.18 4.756-.129-.026-.929-.026-1.806 0-1.548.026-1.626.052-1.626.673v.672l2.4-.078 2.373-.077.078-4.731.051-4.705h9.289V4.394c0-1.214-.052-1.292-.645-1.292-.516 0-.645.129-.645.646M93.349 4.523v.646h15.739V3.877H93.349zM207.134 5.04v.646h7.482V4.394h-7.482zM131.536 6.824c0 3.257-.129 3.361-4.309 3.516l-3.303.129-.129 1.24c-.258 2.094-.748 2.353-4.412 2.482-2.993.077-3.096.103-3.019.646.078.517.233.543 2.916.62 1.574.052 3.225 0 3.715-.077 1.29-.232 2.09-1.189 2.09-2.455v-1.034h2.709c2.942 0 4.283-.363 4.748-1.242.155-.309.284-1.757.284-3.257v-2.74h-.645c-.645 0-.645.027-.645 2.172" style="fill:#fff"/><path d="m115.59 6.514.078.594 6.398.078 6.373.051V5.945h-12.926zM87.673 7.237v1.034l-6.76.052-6.786.077v1.294l7.431.077 7.405.052v-1.81c0-1.758-.026-1.81-.645-1.81-.567 0-.645.104-.645 1.034M201.457 7.237v1.034h-13.416v1.552h14.706v-1.81c0-1.758-.025-1.81-.645-1.81-.567 0-.645.104-.645 1.034M135.457 7.289c.078.594 1.058.75 18.603 3.128l1.213.181V9.046c0-1.472-.026-1.55-.619-1.55-.542 0-.645.155-.723.853l-.077.853-8.773-1.241a777 777 0 0 0-9.237-1.241c-.335 0-.464.156-.387.569M211.468 9.073c-.671 2.766-2.141 4.368-4.025 4.368-.619 0-.8.13-.877.647-.129.62-.103.646 1.471.646 2.554 0 3.87-1.189 4.67-4.188.18-.749.361-1.809.361-2.352 0-.828-.077-.957-.568-.957-.516 0-.645.234-1.032 1.836M225.84 7.496c-.207.336.774 2.43 1.341 2.895.387.284.413.284.233-.18-.129-.285-.362-1.035-.516-1.681-.284-1.138-.723-1.551-1.058-1.034M168.664 8.943c-.129.363-.232.699-.232.776 0 .052 2.193.104 4.876.104 4.206 0 4.902-.052 5.031-.414.439-1.163.413-1.163-4.644-1.138l-4.773.052zM66.903 11.374c-.103.154-.774.62-1.496 1.034l-1.342.775h-10.45v1.292h5.883c5.754 0 5.883-.026 6.889-.646 2.245-1.37 2.013-1.396 3.741.233l1.574 1.447h4.696l-.593-.646c-.568-.595-.775-.646-2.89-.646h-2.297l-1.47-1.371c-.8-.723-1.497-1.421-1.548-1.55-.129-.259-.516-.233-.697.078M135.406 11.891c0 .646-.465.542 9.675 1.938 4.696.62 8.902 1.214 9.366 1.293l.826.155V13.7c0-1.474-.026-1.551-.619-1.551-.542 0-.645.154-.723.853l-.077.853-8.773-1.241a871 871 0 0 0-9.211-1.24c-.284 0-.464.18-.464.517M228.549 12.64c0 .775-.026.801-1.264.801-.697 0-1.6-.129-2.013-.284l-.722-.259.825.853c.774.75 1.007.854 2.658.931l1.806.103v-1.317c0-.725-.103-1.319-.232-1.319s-.413-.078-.645-.155c-.336-.129-.413.026-.413.646M19.119 21.583C12.978 23.496 8.463 32.646 8.772 42.52c.129 4.628.775 5.739 4.851 8.737 2.761 2.017 3.148 6.334.774 8.711-1.264 1.267-2.451 1.551-6.373 1.551H4.696L2.348 66.74 0 71.988l4.438.077c2.58.052 5.057-.051 5.96-.206 3.999-.776 7.689-4.033 10.192-9.048 3.096-6.151 3.973-14.837 1.935-18.843-.594-1.163-2.142-2.817-4.051-4.265-1.239-.93-1.987-2.12-2.168-3.541-.18-1.396.284-3.257 1.007-4.059 1.187-1.292 1.857-1.447 6.502-1.601l4.36-.13.929-3.878c.516-2.145 1.006-4.186 1.109-4.6l.181-.698-5.083.026c-3.457 0-5.47.129-6.192.361M32.845 21.506c-.077.259-3.148 15.38-6.631 32.776-.284 1.498-.542 4.161-.645 6.849-.155 4.886.103 6.54 1.368 8.479 1.78 2.714 7.018 3.852 10.578 2.249 4.025-1.758 7.663-6.669 9.521-12.743.439-1.5 6.554-32.259 7.431-37.351.051-.259-.645-.337-3.045-.337l-3.096-.025-.568 2.817c-.335 1.525-1.806 8.788-3.276 16.129-1.497 7.316-3.019 14.268-3.38 15.431-1.058 3.336-2.839 5.274-5.212 5.636-1.419.207-2.219-.129-2.942-1.241-.464-.775-.516-1.163-.412-3.955.103-2.636.593-5.48 3.251-18.843 1.728-8.66 3.122-15.845 3.122-15.974 0-.363-5.935-.259-6.064.103M57.847 21.583c-.103.388-10.424 50.457-10.424 50.637 0 .104 1.419.13 3.174.104l3.147-.078 2.064-10.21 2.065-10.21 3.689-.078c2.013-.025 3.664-.154 3.664-.258 0-.103.464-2.378 1.032-5.067.568-2.687 1.032-4.937 1.032-4.988s-1.677-.078-3.741-.078-3.741-.026-3.741-.077.412-2.12.903-4.575c.49-2.456.903-4.523.903-4.576 0-.051 1.78-.077 3.973-.077h3.948l.954-4.86c.516-2.661 1.007-5.04 1.084-5.272.129-.414-.387-.466-6.76-.517-4.412-.052-6.915.025-6.966.18M79.933 21.842c-.103.284-4.644 11.632-10.063 25.203-5.418 13.569-9.933 24.84-9.985 25.02-.103.259.619.311 3.432.259l3.56-.078 1.574-4.135 1.574-4.137h9.263l.077 3.93.078 3.929 7.069.078c6.141.077 7.121.025 7.225-.311.051-.207 1.264-6.384 2.709-13.7 2.348-12.02 2.838-14.32 2.838-13.157-.026.802 1.574 24.996 1.703 26.03l.129 1.112 1.857-.078 1.832-.077 6.089-12.976c5.599-11.917 6.786-14.32 6.373-12.874-.18.648-5.599 25.642-5.599 25.85 0 .077 1.523.103 3.406.077l3.406-.077 4.593-23.135c2.528-12.718 4.747-23.987 4.954-25.021l.361-1.861h-6.528l-7.328 13.441c-4.025 7.392-7.379 13.389-7.43 13.337-.078-.077-.852-6.151-1.729-13.518l-1.6-13.39h-6.424l-5.186 24.893c-2.864 13.673-5.264 24.969-5.367 25.046-.077.104-.155-11.166-.155-25.02V21.325H83.39c-3.019 0-3.277.026-3.457.517m-.516 24.556v6.85h-2.58c-1.419 0-2.581-.078-2.581-.207 0-.207 5.006-13.493 5.109-13.493.026 0 .052 3.077.052 6.85M132.026 21.765c0 .051-2.245 11.295-4.98 25.021l-4.954 24.944 3.2.077c1.78.026 3.251.026 3.302-.025.103-.079 10.166-49.527 10.166-49.888 0-.155-6.683-.285-6.734-.129M154.37 22.282c-.336 1.524-2.193 10.649-2.193 10.83 0 .129 1.161.233 2.606.233 2.348 0 2.58.051 2.451.438-.232.828-7.379 37.274-7.379 37.688 0 .336.49.388 3.225.388 3.122 0 3.225-.026 3.354-.595.232-.956 7.611-37.635 7.611-37.79 0-.078 1.161-.129 2.58-.129s2.581-.078 2.581-.156c0-.103.593-2.662 1.29-5.712.722-3.051 1.29-5.583 1.29-5.661 0-.051-3.896-.103-8.644-.103h-8.643zM173.721 22.282c-.155.646-5.857 28.872-6.605 32.775-.645 3.309-.929 9.539-.516 11.683.877 4.394 3.173 6.205 8.024 6.256 2.245.026 2.606-.051 4.128-.776 3.948-1.886 7.199-6.358 9.16-12.561.49-1.577 6.94-33.94 7.405-37.119.077-.595.077-.595-3.019-.595h-3.07l-3.174 15.717c-3.406 16.775-3.87 18.817-4.825 20.729-1.496 2.922-4.902 4.524-6.682 3.128-1.936-1.525-1.729-3.851 2.115-23.367 1.729-8.633 3.122-15.897 3.122-16.078 0-.283-.619-.361-2.967-.361-2.864 0-2.967.026-3.096.569M197.845 21.945c0 .284-9.779 48.88-9.959 49.448-.129.44.155.466 3.457.466 2.658 0 3.638-.077 3.716-.311.077-.18.748-3.67 1.496-7.754.774-4.11 1.471-7.367 1.574-7.238.077.104.542 3.593 1.032 7.729l.851 7.574h4.206c2.322 0 4.206-.077 4.206-.156 0-.103-.8-4.316-1.806-9.383-.981-5.092-1.806-9.357-1.806-9.538 0-.154.516-.594 1.161-.982 2.631-1.525 5.392-5.506 6.811-9.797 1.858-5.66 2.064-12.82.49-16.491-.67-1.576-2.425-3.127-3.947-3.515-1.342-.336-11.482-.388-11.482-.052m6.863 10.883c2.529 1.577 2.658 6.746.233 9.951-1.316 1.706-4.774 3.206-4.774 2.068 0-.491 1.806-12.045 1.961-12.51.155-.466 1.419-.208 2.58.491M251.177 22.308c-7.07 2.481-13.546 11.915-15.92 23.185-2.09 10.055-.696 19.775 3.535 24.169 1.677 1.783 3.586 2.584 6.038 2.584 1.728 0 2.193-.129 3.87-.956 6.734-3.36 12.049-12.148 14.603-24.168.645-2.999.697-3.8.697-8.737 0-5.997-.31-7.754-1.884-11.089-2.244-4.679-6.398-6.565-10.939-4.988m2.399 13.234c1.987 1.034 2.916 3.489 2.916 7.754.026 13.389-10.837 23.083-13.907 12.407-.981-3.412-.361-9.253 1.419-13.157 2.425-5.376 6.708-8.504 9.572-7.004M219.905 23.057c-.103.62-1.883 11.812-3.973 24.892l-3.793 23.781 5.805.077c6.993.078 7.792-.077 9.908-2.016 3.225-2.972 5.341-9.538 5.341-16.672 0-3.334-.284-4.317-1.729-5.842l-1.161-1.241 1.058-1.24c2.684-3.051 4.154-7.807 4.154-13.571 0-4.989-1.058-7.677-3.457-8.763-.929-.413-1.755-.491-6.528-.491h-5.47zm6.812 9.797c.464.18.98.62 1.213 1.059.49.956.567 3.852.129 5.144-.336 1.06-1.652 2.403-2.684 2.791-1.058.414-2.064.363-1.909-.051.077-.207.49-2.223.955-4.472.438-2.248.851-4.265.903-4.446.129-.388.335-.388 1.393-.025m-3.07 19.928c1.496.776 2.064 1.629 2.244 3.361.387 3.903-1.78 6.72-5.521 7.108-1.316.155-1.419.129-1.29-.336.077-.258.567-2.636 1.083-5.273s.981-4.937 1.032-5.118c.181-.491 1.187-.362 2.452.258" style="fill:#fff"/></svg>