<svg xmlns="http://www.w3.org/2000/svg" viewBox="0 0 264 74"><path d="M257.348 67.994c-29.884 5.343-53.927 27.46-61.506 56.536-2.734 10.499-2.92 16.65-2.61 98.099.187 74.801.249 76.541 1.491 82.318 6.896 31.126 29.014 53.306 60.45 60.637 4.101.932 9.319 1.118 42.93 1.304 34.791.249 38.395.187 39.327-.745s.994-12.923.994-148.857c0-100.771-.187-148.236-.622-149.106-.621-1.118-1.677-1.18-38.084-1.118-29.572.062-38.456.249-42.37.932M313.573 217.1v125.869l-25.286-.31c-23.298-.249-25.783-.373-30.442-1.553-20.005-5.157-34.854-20.565-39.016-40.632-1.367-6.275-1.367-160.847-.062-166.998 3.727-17.458 15.842-31.933 32.182-38.457 8.2-3.292 11.99-3.665 38.581-3.727l24.043-.062z" style="fill:#fff" transform="matrix(.24528 0 0 .24662 -47.369 -16.523)"/><path d="M262.691 129.189c-3.914.746-9.879 3.728-13.047 6.524-6.524 5.653-9.754 13.668-9.257 23.111.248 4.908.559 6.213 2.547 10.189 2.92 6.026 7.331 10.437 13.357 13.419 4.163 2.051 5.219 2.299 10.624 2.486 4.908.186 6.648 0 9.941-1.119 13.481-4.535 21.62-17.644 19.321-31.063-2.671-15.967-17.83-26.653-33.486-23.547M368.68 67.435c-.249.186-.435 67.532-.435 149.665 0 135.499.062 149.229.994 149.602 1.677.621 49.888.373 55.852-.248 25.224-2.858 47.466-18.204 59.58-41.004 1.554-2.92 3.604-7.829 4.66-10.873 3.914-11.68 3.79-8.573 3.79-97.85 0-71.26-.125-81.884-.994-86.419-6.151-32.369-30.815-56.785-63.246-62.376-4.349-.746-11.059-.932-32.679-.932-14.91 0-27.336.186-27.522.435m66.352 135.313c9.692 2.547 17.644 9.94 20.874 19.384 2.051 5.84 1.989 14.413-.062 19.756-3.789 9.816-11.245 16.713-20.812 19.26-15.532 4.038-32.058-5.343-36.593-20.751-1.367-4.721-1.305-12.674.248-17.52 4.66-15.221 20.813-24.167 36.345-20.129" style="fill:#fff" transform="matrix(.24528 0 0 .24662 -47.369 -16.523)"/><path d="M1228.236 115.588c-15.5 5.1-24.7 20-22.1 36.2 1.6 10.4 7.6 18.6 16.8 23.3 12.5 6.2 25.8 4.6 35.8-4.4 7.5-6.8 10.7-13.9 10.7-24 0-9.5-2.8-16.6-9.1-22.9-7.9-7.9-22.1-11.5-32.1-8.2m17.7 14.6c6 3.1 9.3 8.1 9.8 14.9.6 8.9-3.2 15.3-11.1 18.6-13.4 5.6-28.6-7.3-24.8-21.2 1.6-6.2 4.3-9.7 9.3-12.2 5.4-2.6 11.7-2.7 16.8-.1M557.936 146.688v30.6l6.3-.3 6.2-.3.5-19.3.5-19.3 14.5 19.5 14.5 19.6 6-.2 6-.3v-60l-6.2-.3-6.3-.3v39.5l-14.7-19.7-14.8-19.7h-12.5zM657.936 146.688v30.5h13v-61h-13zM716.436 117.488c-.3.7-.4 14.3-.3 30.2l.3 29 6.3.3 6.2.3v-40.5l15 20.2 15 20.2h12v-61h-13l-.2 19.2-.3 19.2-14.4-19.2-14.3-19.2h-5.9c-3.9 0-6.1.4-6.4 1.3M813.636 116.888c-.4.3-.7 3.3-.7 6.5v5.8h20v48h13v-48h19v-13h-25.3c-14 0-25.7.3-26 .7M908.936 146.688v30.5h47v-12h-35v-14h32v-11h-32v-12l17.3-.2 17.2-.3.3-5.8.3-5.7h-47.1zM1005.436 117.488c-.3.7-.4 14.3-.3 30.2l.3 29 6.3.3 6.2.3v-40.5l15 20.2 15 20.2h12v-61h-13l-.2 19.2-.3 19.2-14.4-19.2-14.3-19.2h-5.9c-3.9 0-6.1.4-6.4 1.3M1110.936 146.588v30.6h13.3c15.4 0 22.7-1.5 29.3-6.1 19.5-13.4 16.5-42.1-5.4-52.2-4.1-1.9-6.9-2.2-20.9-2.5l-16.3-.4zm32.7-15.5c8.4 3.9 12 14.6 7.8 23.5-3.2 6.6-9.7 9.6-21.1 9.6h-7.4v-35h8.3c5.9 0 9.4.6 12.4 1.9M1080.736 204.288c-13.9 1.8-26.3 8.3-36.5 19.2-22.3 24-21.6 60.5 1.7 83.7 8.6 8.7 16.4 13.2 27.6 16 18.4 4.7 37 1 52.2-10.5 5.9-4.4 13.6-13 13-14.5-.2-.4-4.3-4.1-9.2-8.4l-8.8-7.7-2.7 3.5c-12.9 16.9-39 18.7-54.1 3.6-2.2-2.2-5.2-6.3-6.7-9.2-2.5-4.8-2.8-6.3-2.8-15.3 0-8.6.3-10.7 2.5-15 7.4-15.3 25.7-23.6 41.6-19 7.4 2.1 14.4 6.5 18.8 11.8l3.4 4.1 4.4-3.6c2.4-1.9 6.6-5.6 9.3-8l5-4.5-3.9-4.8c-13-15.8-34-24-54.8-21.4M586.136 208.188c-23.8 6.3-36.1 22.2-30.8 40.2 3.8 13.3 16.4 19.8 49.9 25.8 22.5 4 29.1 7.3 29.1 14.4 0 4.9-2.9 8.5-9.2 11.4-5.4 2.5-6.6 2.7-20.2 2.7-16.1 0-22.4-1.3-34.3-6.7-3.7-1.7-6.9-2.9-7.1-2.7-1.2 1.5-10.7 19.2-10.4 19.4 1 1.1 17 6.9 23.6 8.7 11 2.9 34.5 3.6 46.5 1.4 22.4-4.2 33.5-14.5 34.5-31.8.8-14.3-3.2-21.7-15.5-28.1-8.8-4.6-16.4-6.8-35.8-10.7-16.9-3.3-21.7-4.9-25.2-8.2-3.1-2.9-3.1-8.1.1-11.3 7.2-7.2 33-7.5 53-.5 3.3 1.1 6.3 1.7 6.7 1.3.7-.8 7.9-17.7 7.9-18.7 0-.9-15.3-5.4-23.9-7-11.6-2.2-29.6-2-38.9.4M671.336 208.888c.3 1 7.3 25.9 15.6 55.3s15.3 54.3 15.6 55.2c.5 1.6 2.1 1.8 14.4 1.8h13.9l1.1-3.8c9.9-35.8 19.9-69.4 20.4-68.2.3.8 5 17.2 10.4 36.5l9.8 35 14 .3 14 .3 15.9-55.8c8.7-30.7 16-56.4 16.3-57.1.3-.9-2.5-1.2-12.2-1.2h-12.5l-1.4 4.7c-.8 2.7-5.6 20.7-10.7 40-5.2 19.4-9.6 35.3-10 35.3-.3 0-5-15.2-10.4-33.8-5.4-18.5-10.7-36.5-11.8-40l-1.9-6.3-10.2.3-10.2.3-11.7 40c-6.4 22-11.7 40.2-11.8 40.5s-4.6-15.9-9.9-36c-5.4-20.1-10.4-38.4-11-40.8l-1.2-4.2h-12.5c-11.5 0-12.5.1-12 1.7M860.936 264.188v57h26l-.2-56.8-.3-56.7-12.7-.3-12.8-.3zM913.936 219.688v12.5h36v89h25v-89l17.8-.2 17.7-.3v-24l-48.2-.3-48.3-.2zM1164.936 264.188v57h24v-45h53v45h24l-.2-56.8-.3-56.7-11.7-.3-11.8-.3v45.1h-53v-45h-24z" style="fill:#fff" transform="matrix(.24528 0 0 .24662 -47.369 -17.199)"/></svg>