<svg xmlns="http://www.w3.org/2000/svg" viewBox="0 6 264 39"><path fill="#fff" d="M7.765 45.069v-31.2h15.529v31.2ZM0 13.869v-7.8h31.059v7.8ZM46.588 45.069V37.27h31.059v7.798Zm7.765-7.798V13.869h15.529V37.27Zm-7.765-23.402v-7.8h31.059v7.8ZM93.176 45.069V37.27h23.294v7.798Zm23.294-7.798v-7.802h7.763v7.801Zm-31.059-.001V13.869h15.53V37.27Zm31.059-15.601v-7.8h7.763v7.799Zm-23.294-7.8v-7.8h23.294v7.8ZM139.764 21.669h23.294v7.8h-23.294ZM186.353 45.069V37.27h23.294v7.798Zm23.294-7.798v-7.802h7.764v7.801Zm-31.058-.001v-7.801h15.529v7.801Zm7.764-7.801v-7.8h23.294v7.8Zm23.294-7.8v-7.8h7.764v7.799Zm-31.058 0v-7.8h15.529v7.799Zm7.764-7.8v-7.8h23.294v7.8ZM232.941 45.069V37.27h23.294v7.798Zm23.294-7.798V21.669h-7.764v-7.8H264V37.27Zm-31.058-.001V13.869h15.529V37.27Zm15.529-7.801v-7.8h7.765v7.8Zm-7.765-15.6v-7.8h23.294v7.8Z"/></svg>