<svg xmlns="http://www.w3.org/2000/svg" viewBox="0 0 200 40"><path d="M65.644 22.24v-2.627l-2.388-.875c-.208-.803-.485-1.558-.898-2.256l.024-.003 1.135-2.362-1.854-1.857-2.364 1.125-.003.003c-.697-.412-1.454-.673-2.257-.881l-.876-2.407h-2.632l-.876 2.407c-.805.208-1.562.498-2.259.91l-.005-.019-2.366-1.132-1.86 1.854 1.127 2.361.003.003c-.413.696-.822 1.453-1.029 2.256l-2.558.873v2.627l2.558.875c.207.802.573 1.56.985 2.255l.018.003-1.114 2.363 1.865 1.857 2.37-1.124.005-.002c.696.41 1.455.795 2.258 1.002L53.531 32h2.632l.876-2.531c.804-.207 1.562-.559 2.258-.971l.005-.012 2.367 1.115 1.859-1.861-1.127-2.365-.002-.003c.412-.697.649-1.455.857-2.257zm-10.798 3.064a4.38 4.38 0 0 1-4.385-4.377 4.383 4.383 0 0 1 4.385-4.378 4.38 4.38 0 0 1 4.386 4.378 4.38 4.38 0 0 1-4.386 4.377M74.053 6.37l-.575-1.386-1.489.074a5 5 0 0 0-.986-.986l.001-.003.079-1.493L69.694 2l-1.003 1.111v.002a5 5 0 0 0-1.398-.002L66.289 2l-1.389.574.078 1.493a5 5 0 0 0-.987.989l-.001-.001-1.497-.077-.573 1.386 1.11 1 .003.002a5.5 5.5 0 0 0-.009 1.399L61.903 9.77l.576 1.387 1.503-.082c.285.379.624.707.994.984v.003l-.076 1.493 1.523.574 1.136-1.111v-.002c.294.054.796.067 1.265.002l.937 1.111 1.355-.574-.094-1.493c.379-.284.702-.62.979-.989l-.001.001 1.493.077.575-1.388-1.113-.999-.004-.002a5 5 0 0 0-.003-1.393zm-5.103 4.006a2.507 2.507 0 0 1-3.272-1.355 2.497 2.497 0 0 1 1.355-3.267 2.502 2.502 0 1 1 1.917 4.622" style="fill:#fff"/><path d="m89.702 10.449-.873 4.788h-4.153l-2.437 13.914h-5.717l2.437-13.914h-4.122l.873-4.788zm6.59 6.254-1.384 7.78h2.376q1.175 0 1.746-.279.572-.29.752-1.307l1.384-7.78h-2.407q-1.144 0-1.715.28-.572.289-.752 1.306M99.752 10q3.822 0 5.446 1.486 1.625 1.477 1.625 4.559t-.983 6.453q-.974 3.361-3.099 5.226-2.117 1.875-6.199 1.876-4.073 0-5.697-1.476-1.625-1.486-1.625-4.569 0-1.465.421-3.87.422-2.413 1.114-4.159.692-1.755 1.865-3.042Q94.877 10 99.752 10m15.497 6.703-1.385 7.78h2.377q1.175 0 1.746-.279.571-.29.752-1.307l1.384-7.78h-2.407q-1.144 0-1.716.28-.57.289-.751 1.306m3.46-6.703q3.822 0 5.446 1.486 1.625 1.477 1.625 4.559t-.983 6.453q-.974 3.361-3.099 5.226-2.117 1.875-6.199 1.876-4.073 0-5.697-1.476-1.625-1.486-1.625-4.569 0-1.465.421-3.87.422-2.413 1.114-4.159.692-1.755 1.865-3.042Q113.834 10 118.709 10m20.28 14.363-.843 4.788h-11.434l3.31-18.702h5.717l-2.467 13.914zm0 4.459 1.685-4.937q2.527.687 4.634.688 2.106 0 3.4-.18l.24-1.496-2.497-.24q-2.858-.268-4.052-1.286-1.185-1.018-1.184-2.873 0-.808.181-1.795.692-3.83 2.507-5.266Q145.729 10 149.55 10t6.741.748l-1.565 4.788q-2.617-.449-4.213-.449-1.594 0-2.708.15l-.241 1.466 2.017.209q3.069.33 4.363 1.456 1.293 1.117 1.294 3.003 0 1.914-.843 3.95-.422 1.047-.923 1.755a4.4 4.4 0 0 1-1.263 1.187 8 8 0 0 1-1.395.748q-.631.26-1.595.379-1.413.21-3.46.21-3.73 0-6.77-.778" style="fill:#fff;white-space:pre"/></svg>