<svg xmlns="http://www.w3.org/2000/svg" viewBox="0 0 200 40"><path d="M74.121 1.25h6.03L72.441 20h-8.34l-1.11-18.75h6.33v11.91h.27Zm17.4 11.67h-5.7l-.39 2.28h6.99l-.84 4.8h-12.69l3.3-18.75h12.54l-1.56 4.8h-6.15l-.42 2.52h5.7Zm18.81 7.08h-6.27l-1.38-5.58h-1.23l-.96 5.58h-5.7l3.3-18.75h9q5.13 0 5.13 4.59 0 1.89-.57 3.6-1.05 3.24-3.3 4.32Zm-7.41-13.95-.66 3.75h1.32q1.02 0 1.545-.225t.72-1.29.195-1.305q0-.6-.465-.765t-1.515-.165Zm24.87 0h-4.14L121.221 20h-5.7l2.43-13.95h-4.11l.87-4.8h13.95ZM127.52 20l3.3-18.75h5.7L133.22 20Zm22.14-5.37-.48 5.04q-1.92.78-4.86.78-3.78 0-5.415-1.47t-1.635-4.53q0-1.29.42-3.81.9-5.16 3.105-7.5T147.77.8q1.11 0 2.535.225t2.085.555l-1.68 4.59q-1.77-.42-3.315-.42t-2.205.3-.81 1.2L143 15.11q1.08.24 2.22.24 2.43 0 4.44-.72m6.36 5.37h-6l7.89-18.75h8.82L168.05 20h-6.03l-.12-2.97h-4.71Zm5.13-12.99-2.1 5.25h2.4V7.01ZM181.43 20h-11.4l3.3-18.75h5.7l-2.46 13.95h5.7ZM66.01 39.587h-6l7.89-18.75h8.82l1.32 18.75h-6.03l-.12-2.97h-4.71Zm5.13-12.99-2.1 5.25h2.4v-5.25Zm24.42 12.99h-6.27l-1.38-5.58h-1.23l-.96 5.58h-5.7l3.3-18.75h9q5.13 0 5.13 4.59 0 1.89-.57 3.6-1.05 3.24-3.3 4.32Zm-7.41-13.95-.66 3.75h1.32q1.02 0 1.545-.225t.72-1.29.195-1.305q0-.6-.465-.765t-1.515-.165Zm22.74 8.58-.48 5.04q-1.92.78-4.86.78-3.78 0-5.415-1.47t-1.635-4.53q0-1.29.42-3.81.9-5.16 3.105-7.5t6.975-2.34q1.11 0 2.535.225t2.085.555l-1.68 4.59q-1.77-.42-3.315-.42t-2.205.3-.81 1.2l-1.38 7.86q1.08.24 2.22.24 2.43 0 4.44-.72m6.36 5.37h-6l7.89-18.75h8.82l1.32 18.75h-6.03l-.12-2.97h-4.71Zm5.13-12.99-2.1 5.25h2.4v-5.25Zm8.879 12.99 3.3-18.75h7.98q3.87 0 5.505 1.365t1.635 4.425q0 1.56-.36 3.6-.9 5.04-3.075 7.2t-7.005 2.16Zm10.5-13.95h-2.37l-1.59 9.15h2.37q1.17 0 1.74-.285t.75-1.305l1.05-5.97q.03-.18.03-.48 0-.69-.48-.9t-1.5-.21m21.48 6.87h-5.7l-.39 2.28h6.99l-.84 4.8h-12.69l3.3-18.75h12.54l-1.56 4.8h-6.15l-.42 2.52h5.7Z" style="white-space:pre;fill:#fff"/><path d="M43.981 16.25V20h3.75v-3.75zm-15 0V20h3.75v-3.75zm0 15h7.5V35h-7.5zm18.75 0V35h-7.5v-3.75zm0-22.5V5h3.75v3.75zm-18.75 0h3.75v3.75h11.25V8.75h3.75v3.75h3.75v3.75h3.75V20h3.75v11.25h-3.75v-7.5h-3.75v7.5h-3.75V27.5h-18.75v3.75h-3.75v-7.5h-3.75v7.5h-3.75V20h3.75v-3.75h3.75V12.5h3.75zM25.231 5h3.75v3.75h-3.75z" style="fill-rule:evenodd;stroke-width:0;stroke-miterlimit:4;fill:#fff"/></svg>