<svg xmlns="http://www.w3.org/2000/svg" viewBox="112.746 22.749 421.799 89.46"><path d="M148.136 109.496c-6.552.808-12.9 1.271-19.683 1.767l-15.707-87.76h17.874l11.013 65.439c1.423-2.346 2.278-3.643 3.021-5 10.379-18.973 20.794-37.926 31.048-56.965 1.438-2.67 2.972-3.998 6.14-3.789 4.244.281 8.521.07 13.76.07-16.06 29.188-31.661 57.54-47.466 86.238M490.166 49.591c-3.337-.563-6.267-1.031-9.145-1.492.549-16.417 15.285-27.437 32.664-24.791 16.388 2.494 25.185 17.3 18.734 32.678-2.256 5.376-6.101 10.308-10.048 14.7-5.554 6.18-11.912 11.634-17.856 17.47-1.957 1.92-3.696 4.063-6.184 6.826h30.083l-3.1 15.532h-52.88c1.093-9.374 5.453-16.91 11.573-23.393 6.858-7.265 14.168-14.101 21.201-21.202 2.926-2.954 5.87-5.94 8.38-9.235 1.673-2.196 2.953-4.855 3.772-7.503 1.605-5.187-.812-10.378-5.196-12.1-4.743-1.863-9.92.286-12.45 5.415-1.167 2.363-1.89 4.946-3.003 7.939a358 358 0 0 1-6.545-.844M448.401 37.065c-7.913-.36-9.796 1.187-14.11 11.431-2.48-.458-5.06-.917-7.632-1.414-2.424-.469-4.84-.978-7.258-1.468 4.145-17.897 21.436-27.262 38.207-20.84 8.055 3.086 12.405 9.243 13.567 17.653 1.204 8.719-1.897 15.68-9.054 20.792-1.456 1.04-3.05 1.89-4.888 3.017 9.433 6.23 12.156 14.802 8.764 24.864-4.004 11.878-12.53 19.163-25.08 20.788-17.117 2.217-29.373-7.175-31.13-23.902l15.476-2.012c3.926 10.957 6.812 13.35 14.174 11.99 6.44-1.19 10.845-7.183 10.554-14.36-.288-7.112-3.705-9.943-13.952-11.298l2.737-13.223c7.241-.53 13.976-1.753 15.437-10.436.85-5.049-.07-9.328-5.812-11.582M323.11 62.112c13.876.326 21.777 6.525 23.077 17.745 1.688 14.57-6.582 27.95-19.221 31.099-13.847 3.45-26.017-2.466-28.924-14.06-3.779-15.076 4.737-30.535 18.71-33.872 1.933-.461 3.94-.61 6.358-.912m10.68 18.8c-.581-4.552-2.704-7.943-7.446-8.847-4.878-.93-9.405.634-11.638 4.926-2.236 4.297-3.707 9.22-4.396 14.03-.653 4.558 1.569 8.528 6.266 10.255 4.858 1.787 9.506.37 11.793-3.854 2.602-4.805 3.7-10.423 5.421-16.51M366.722 98.83c-.19.73-.31 1.044-.375 1.369-2.27 11.475-2.269 11.475-14.864 10.205l9.718-46.919h11.615v4.426c.547-.08.999-.066 1.39-.214 4.881-1.85 9.634-4.777 14.658-5.35 7.994-.914 13.64 5.122 12.467 13.026-1.656 11.16-4.159 22.198-6.473 33.252-.183.877-1.669 2.022-2.624 2.097-3.283.26-6.6.1-10.511.1 1.95-9.532 3.8-18.581 5.653-27.63.167-.814.614-1.665.489-2.427-.474-2.89-.183-6.766-1.93-8.391-2.943-2.738-6.91-.734-9.364 1.751-2.59 2.623-4.98 5.861-6.238 9.28-1.763 4.787-2.397 9.99-3.61 15.426M259.295 90.416c-.277 4.952.076 9.272 5.24 11.048 3.78 1.302 7.745-1.114 11.098-5.832.87-1.223 2.962-2.14 4.52-2.181 2.445-.065 4.916.713 7.367 1.185.457.088.869.412 1.296.624-4.768 12.842-16.283 19.121-28.88 15.805-4.931-1.298-8.955-4.034-10.972-8.71-4.706-10.909-3.034-21.441 4.11-30.55 6.744-8.598 16.192-11.348 26.883-8.833 7.207 1.695 11.388 6.854 12.316 14.988l-11.491 1.397c-1.319-4.294-3.114-7.985-8.38-7.62-5.331.367-8.516 3.623-10.33 8.194-1.274 3.213-1.847 6.705-2.777 10.485M230.308 69.275c7.634-7.473 10.695-8.462 18.291-5.557-.726 1.631-1.426 3.25-2.165 4.851-.762 1.652-1.562 3.286-2.306 4.846-9.724.09-14.421 3.336-17.148 12.64-2.007 6.842-3.311 13.89-4.946 20.843-.298 1.266-.68 2.512-1.032 3.799h-12.527l9.752-47.165h11.791c-.223 1.374-.447 2.759-.807 4.814-.084 1.138-.034 1.605.017 2.072zM200.936 90.046c-1.486 7.064-2.907 13.708-4.368 20.537h-12.723c1.737-8.413 3.424-16.627 5.131-24.838 1.287-6.19 2.808-12.341 3.812-18.576.499-3.099 1.569-4.395 4.79-4.06 2.62.272 5.291.055 8.84.055-1.864 9.108-3.64 17.785-5.482 26.882M198.348 56.913c-1.277-.765-2.888-1.624-2.809-2.278.374-3.089 1.21-6.121 1.912-9.32h12.696l-2.343 11.599z" style="fill:#fff"/><path d="M230.07 69.078c-.122.578-.482.96-.842 1.34-.05-.467-.101-.934-.02-1.658.297-.131.46-.006.862.318" style="fill:#fff"/></svg>