<svg xmlns="http://www.w3.org/2000/svg" viewBox="0 0 264 68"><path d="m0 .018 32.286 154.8L64.404.018H47.022L32.286 87.024 17.385.018zM71.523.018h17.385v154.8H71.523zM104.46 0v154.827h17.391V74.832l24.183 79.992h16.032l-19.347-73.2c10.749-6.447 13.914-14.889 13.914-14.889V17.553C149.511 1.743 137.229 0 137.229 0zm17.391 15.759h17.391v53.802h-17.391zM162.087.018h51.987v15.726h-17.385v139.074h-17.385V15.747h-17.217zM310.26 0l-33.585 154.662v.162h17.226l3.642-20.868h24.291l3.477 20.868h17.391zm0 66.732 7.935 53.313H301.02zM349.668.018h17.388v139.071h25.995v15.729h-43.38zM535.599.018h15.894l16.224 66.723L582.453.018H600l-24.336 91.059v63.741h-17.385V91.08zM504.402.018c-19.761 0-26.112 17.538-26.112 17.538.162.246 0 116.406 0 119.718 2.619 18.816 26.112 17.544 26.112 17.544 26.064 0 26.055-17.544 26.055-17.544V17.553C523.719-.849 504.402.018 504.402.018m-8.724 17.535h17.394v121.512h-17.394zM220.86.018h17.553v137.253h17.55V.018h17.217v137.253s-5.628 17.547-25.332 17.547c-19.701 0-26.988-17.547-26.988-17.547zM412.263 0v154.827h34.944c16.218-4.224 17.223-15.762 17.223-15.762s-.024-41.352-.024-52.041c-1.218-6.75-6.765-6.975-6.765-6.975s-.024-1.881 0-3.369c6.129-.471 6.792-7.122 6.792-7.122s-.027-41.313 0-52.008C461.778 4.926 447.207 0 447.207 0zm17.442 17.661h17.499v51.897h-17.499zm-.051 67.605h17.55v53.799h-17.55z" style="fill-opacity:1;fill:#fff" transform="scale(.44 .43917)"/></svg>