<svg xmlns="http://www.w3.org/2000/svg" width="379.861" height="153.659" viewBox="0 0 1101.596 445.61"><text x="214.216" y="106.578" fill="#ef00eb" stroke="#0105ff" stroke-width="7.25" font-family="TrasksHand" font-size="5.8" transform="translate(-65.246 -52.553)"><tspan x="214.216" y="106.578" fill="#fafafa" fill-opacity=".4" stroke="none">John Loreth 2022</tspan></text><g class="currentLayer" transform="matrix(2.8282 0 0 2.80962 -15.936 -12.401)"><title>Layer 1</title><path fill="#fff" fill-rule="evenodd" d="M118.19 4.623c-5.563.558-10.341 2.364-15.794 5.969-1.367.903-3.887 3.042-5.6 4.753l-3.115 3.111h-2.113c-3.919 0-7.559 2.141-9.965 5.861-1.461 2.259-1.463 2.26-3.467 2.479-1.102.121-3.124.385-4.492.588-2.022.301-2.852.266-4.437-.186-1.336-.38-4.07-.605-8.692-.714-5.08-.12-7.07-.298-8.063-.722-.726-.309-1.631-.562-2.011-.562-.418 0-1.201-.695-1.983-1.761-3.257-4.436-5-5.02-14.279-4.783-3.865.099-7.746.137-8.624.084-4.782-.284-7.278-.069-9.02.777-9.048 4.392-14.287 25.657-8.421 34.182 3.633 5.281 11.751 7.404 18.136 4.743 3.701-1.542 5.746-.215 3.2 2.077-1.483 1.334-5.231 7.099-7.036 10.821-2.742 5.653-3.851 9.916-5.031 19.343a403 403 0 0 1-.881 6.389c-.313 2.147-.793 5.501-1.067 7.453s-.661 4.668-.86 6.034c-.2 1.366-.597 4.161-.883 6.211a3146 3146 0 0 1-2.221 15.617c-1.266 8.744-1.01 11.95 1.357 16.943 6.382 13.468 26.523 15.734 37.171 4.182 3.629-3.936 5.45-7.826 6.416-13.706.796-4.836.289-4.449 6.131-4.694 9.358-.393 17.326-2.907 24.588-7.759l2.13-1.423 1.597 1.753c6.763 7.423 18.161 9.591 27.188 5.171l1.812-.887 1.738.881c6.789 3.441 16.373 2.794 23.476-1.583 1.324-.815 1.195-.999 2.038 2.896 3.04 14.042 13.749 24.627 28.237 27.908 18.881 4.277 33.688-6.323 33.699-24.125l.002-3.494 1.863.26c14.692 2.048 30.723-3.343 42.032-14.137l1.482-1.414 3.664 3.699c11.281 11.386 29.521 15.789 41.621 10.047 1.215-.576 1.321-.569 2.948.206 6.016 2.867 14.26 2.857 20.461-.025l2.092-.973 1.634.817c5.551 2.776 13.864 2.758 20.196-.042l2.001-.885 1.609.872c5.338 2.894 14.839 2.808 20.751-.186 8.566-4.34 12.266-10.214 13.884-22.047.724-5.29 1.339-9.665 2.782-19.781.292-2.05.791-5.564 1.108-7.809s.805-5.678 1.084-7.631c.645-4.521 1.075-7.58 1.721-12.244.283-2.05 1.11-7.72 1.836-12.6 2.575-17.31 1.624-22.811-4.989-28.855-6.188-5.655-17.635-7.012-25.837-3.063-1.305.628-1.371.626-2.839-.085-7.899-3.829-19.998-2.295-26.333 3.337-4.376 3.892-8.001 10.302-8.001 14.15 0 .634-.151 1.923-.335 2.865s-.603 3.592-.931 5.889c-.718 5.032-.588 4.929-3.787 3.008-16.863-10.126-41.294-6.967-57.001 7.368-3.406 3.109-3.048 3.077-5.163.47-5.661-6.977-18.634-13.425-27.01-13.425-.833 0-2.022-.102-2.643-.226l-1.13-.226.231-2.702c1.327-15.566-14.477-27.351-29.472-21.977-9.08 3.255-14.796 10.213-16.126 19.63-1.618 11.458-1.315 10.841-4.539 9.228-5.715-2.859-9.741-3.695-18.376-3.815-6.163-.086-6.385-.115-6.283-.799 3.352-22.473-12.427-39-35.066-36.726m13.15 7.43c14.432 5.267 20.277 21.868 12.628 35.862a528 528 0 0 0-1.688 3.107c-.581 1.092-.15 1.388 1.212.83 9.993-4.096 20.407-4.768 27.771-1.792 4.736 1.914 8.203 4.118 11.209 7.124 2.979 2.979 2.952 2.995 3.666-2.236 1.665-12.209 2.366-16.995 2.721-18.568 2.952-13.116 19.645-18.701 28.571-9.559 3.837 3.93 4.866 7.888 3.875 14.912-1.136 8.05-1.14 7.385.037 7.089 12.964-3.264 29.138 4.28 36.676 17.105 1.358 2.31 2.852 3.482 2.852 2.237 0-.493 3.336-4.42 5.827-6.86 6.401-6.268 13.479-10.092 22.921-12.383 2.647-.642 14.038-.642 16.682.001 7.97 1.936 15.283 6.197 19.21 11.193 2.015 2.564 2.864 2.576 3.213.045.135-.976.506-3.691.824-6.034 2.493-18.369 2.937-20.336 5.385-23.89 5.516-8.01 18.366-10.146 25.105-4.175 1.296 1.147 1.201 1.156 3.464-.336 8.601-5.67 20.14-3.219 24.193 5.14 1.289 2.657 1.56 7.842.688 13.146-.688 4.186-1.583 10.335-3.498 24.045-.28 2.001-.755 5.355-1.056 7.454-.83 5.78-1.156 8.08-1.723 12.156-3.682 26.473-4.019 28.329-5.754 31.63-5 9.516-18.691 12.508-25.937 5.667-.974-.919-1.938-.943-2.73-.069-4.138 4.572-14.205 4.999-20.178.855-1.885-1.308-3.075-1.474-3.913-.548-2.643 2.921-11.179 4.576-15.721 3.048-1.789-.601-5.209-2.595-5.636-3.286-.422-.684-1.512-.411-3.447.864-3.388 2.234-5.299 2.788-10.122 2.935-13.398.41-25.651-6.664-31.687-18.292-1.343-2.588-1.73-2.695-3.089-.855-16.531 22.375-49.872 25.724-64.545 6.482-1.816-2.38-2.411-2.27-2.699.499-.121 1.17-.344 3.204-.495 4.522l-.274 2.396 1.737.004c11.831.029 18.674 12.411 13.022 23.564-7.387 14.578-32.704 11.791-43.226-4.757-4.616-7.26-5.715-14.524-3.949-26.087.535-3.499 1.073-7.239 2.146-14.907.559-3.996.604-4.311 1.448-10.115 1.518-10.443 1.524-9.938-.121-9.938-1.589 0-3.155 1.726-3.42 3.769-.123.953-.446 3.249-.716 5.104s-.75 5.208-1.066 7.453-.721 5.04-.901 6.211a489 489 0 0 0-.878 6.212c-.96 7.102-2.462 10.517-6.075 13.819-6.578 6.012-16.673 6.516-22.391 1.117-1.013-.956-1.668-.933-3.056.108-6.974 5.233-16.37 4.783-22.044-1.055-1.708-1.757-3.753-5.59-3.753-7.034 0-1.641-.892-1.427-3.609.865-4.263 3.596-11.807 8.151-13.498 8.151-.274 0-.649.133-.834.295-.186.162-1.296.565-2.467.895-6.716 1.891-13.429 2.224-17.624.873-2.929-.944-2.767-1.096-3.368 3.16-1.614 11.428-2.433 13.921-5.766 17.552-9.781 10.655-27.445 5.776-28.326-7.825-.19-2.925-.09-3.769 2.903-24.533.296-2.049.781-5.483 1.078-7.631.486-3.506.884-6.279 1.961-13.664.185-1.269.589-4.064.898-6.211 1.946-13.537 10.356-27.548 19.407-32.333 1.097-.58 1.304-1.777.354-2.045-1.869-.526-3.075-.591-4.855-.262-3.317.613-7.339-.535-9.035-2.579-.659-.794-1.308-.73-2.637.262-7.781 5.806-16.569 1.468-16.569-8.178 0-7.181 3.786-16.78 7.567-19.186 1.617-1.029 5.876-1.349 6.721-.504.512.512 2.483.529 2.986.026.495-.495 4.354-.495 4.848 0 .548.548 1.727.468 3.089-.212 3.567-1.779 8.585.87 9.114 4.81l.196 1.462 1.994-.044c1.966-.043 3.505.435 5.429 1.687.907.59 1.04.587 2.943-.059 1.91-.65 2.088-.653 4.286-.076 1.657.434 2.546.505 3.203.256 1.734-.659 3.696-.397 5.836.78l2.047 1.125 1.902-.821c1.411-.609 3.127-.922 6.646-1.214l4.743-.393.724-1.952c1.842-4.967 6.122-7.305 9.833-5.371 2.071 1.079 2.523.957 3.884-1.048 6.815-10.045 21.637-15.025 32.701-10.987m-12.618 5.48c-.195.07-1.073.328-1.952.573-17.895 4.996-23.694 30.088-8.686 37.584 1.877.937 1.92 1.159.525 2.747-2.324 2.647-2.553 3.659-5.16 22.841-.305 2.245-.697 4.88-.872 5.856a65 65 0 0 0-.528 3.727c-.116 1.073-.361 2.91-.546 4.081a391 391 0 0 0-.888 6.212 427 427 0 0 1-1.119 7.651c-1.376 8.714.946 12.801 7.514 13.224 6.593.423 11.213-3.912 12.032-11.293.119-1.073.367-2.91.552-4.081.184-1.171.59-3.966.901-6.211s.795-5.679 1.075-7.631.752-5.306 1.05-7.454.693-4.862.878-6.033.592-4.126.905-6.566c.313-2.441.72-5.302.905-6.36.548-3.143.414-5.758-.375-7.305-.97-1.904-.908-2.187.595-2.682 16.584-5.474 20.314-29.037 5.882-37.159-2.347-1.32-10.661-2.448-12.688-1.721M19.758 29.452c-2.074 2.465-3.79 8.376-4.035 13.898l-.167 3.776 1.068 1.193c2.247 2.512 6.784 1.481 10.301-2.341 1.496-1.625 4.308-6.956 4.308-8.165 0-1.165.713-1.966 1.75-1.966 1.491 0 1.664-.936.381-2.062-.896-.786-1.066-1.197-1.066-2.576 0-1.786-.736-2.815-2.014-2.815-1.702 0-2.484 2.79-1.381 4.924 2.024 3.914-6.155 15.353-9.181 12.842-1.137-.944-.937-5.395.377-8.414.268-.615.487-1.246.487-1.402s.74-1.756 1.646-3.556c1.886-3.749 1.859-4.394-.184-4.394-1.117 0-1.579.213-2.29 1.058m17.177-.392c-1.151 2.152 1.036 4.3 2.609 2.561 1.147-1.267.633-3.029-.923-3.158-1.011-.084-1.393.051-1.686.597m53.289.31c-.631.9-1.653 3.89-2.517 7.365-.194.781-.602 2.388-.907 3.572-.304 1.184-.553 2.786-.553 3.559 0 2.973-3.672 5.153-5.324 3.161-.448-.539.143-2.622 1.986-7 1.277-3.035.091-4.802-2.211-3.294-.594.389-1.24.491-2.094.331-4.633-.869-8.322 2.378-9.221 8.117-.341 2.175-2.576 3.311-4.096 2.08-.891-.722-.803-1.677.562-6.09.997-3.223 1.064-4.507.248-4.766-1.55-.491-2.404.31-3.437 3.227-2.751 7.766-6.538 10.796-4.268 3.416 1.791-5.823 1.762-5.679 1.258-6.286-.482-.581-2.685-.779-2.999-.27-.24.387-1.658 5.567-1.997 7.291-.361 1.838-1.396 3.14-2.97 3.739-1.724.656-1.877.397-1.104-1.878a6.13 6.13 0 0 0-1.16-5.969c-.355-.409-.447-.933-.281-1.597.61-2.443.491-2.754-1.092-2.87-1.906-.139-2.699.605-2.569 2.411.169 2.339-4.223 8.787-6.686 9.816-1.459.61-3.474-.173-3.15-1.225.102-.331.512-1.72.912-3.087.4-1.366.899-3.052 1.109-3.745.78-2.579-.402-3.957-2.453-2.86-.722.387-2.044 4.809-2.782 9.306-.475 2.894 5.306 5.27 7.797 3.204.494-.409.788-.402 1.918.047 1.725.686 10.404.626 11.251-.077.452-.375.772-.351 1.794.134 1.762.836 3.595.426 5.077-1.135.643-.678 1.202-1.173 1.242-1.101s.314.604.61 1.181c.822 1.605 5.397 2.163 6.978.851.373-.31.768-.255 1.671.232 1.802.97 3.944.561 5.457-1.043 1.398-1.482 1.86-1.587 1.86-.423 0 1.785 5.008 2.67 7.024 1.242.755-.534.905-.528 2.116.089 2.249 1.147 5.372.777 7.098-.841 1.568-1.469.533-2.642-1.218-1.379-2.606 1.88-4.615 1.005-3.97-1.73 1.43-6.062 2.22-8.477 3.392-10.373 1.228-1.985 1.76-4.28 1.25-5.398-.604-1.327-2.6-1.29-3.551.066m112.911.052c-1.675.432-4.173 1.999-5.283 3.313-1.868 2.209-2.326 3.831-3.542 12.518-.3 2.147-.788 5.581-1.085 7.631a2672 2672 0 0 0-1.066 7.453c-.289 2.05-.674 4.685-.855 5.856a184 184 0 0 0-.534 3.727c-.113.879-.353 2.635-.533 3.904s-.584 4.144-.898 6.389-.728 4.96-.92 6.034c-3.948 22.078 12.221 38.837 34.201 35.449 37.62-5.798 46.101-58.336 10.673-66.121-10.7-2.352-17.861 1.949-17.856 10.721.004 5.511 2.605 7.842 9.371 8.401 17.39 1.435 12.798 27.521-4.844 27.521-8.934 0-13.343-6.14-11.723-16.326.233-1.464.678-4.499.99-6.744s.73-5.12.929-6.388c.2-1.269.507-3.425.682-4.792s.57-4.241.874-6.389c.305-2.147.702-5.102.883-6.566.18-1.464.485-3.62.677-4.791 2.422-14.79 1.994-17.955-2.762-20.402-1.038-.535-5.848-.794-7.379-.398m141.67.924c-3.353 1.623-5.728 4.866-6.24 8.518-.34 2.426-1.189 8.271-1.959 13.487a244 244 0 0 0-.839 6.3c-.173 1.512-.402 3.029-.507 3.371-.106.342-.358 1.98-.56 3.639a338 338 0 0 1-.915 6.744c-.302 2.049-.772 5.323-1.046 7.276s-.755 5.306-1.069 7.453a424 424 0 0 0-.864 6.211c-.162 1.269-.46 3.345-.662 4.614a355 355 0 0 0-.943 6.566c-.316 2.343-.726 5.125-.912 6.182-1.432 8.138 4.087 13.213 11.818 10.868 5.256-1.595 7.063-4.405 8.227-12.791.326-2.342.737-5.137.914-6.211.177-1.073.573-3.868.879-6.211.306-2.342.789-5.856 1.072-7.808s.759-5.306 1.057-7.454.694-4.862.879-6.033.428-2.929.54-3.905.354-2.812.537-4.081.585-4.064.892-6.211.723-4.943.925-6.212c.202-1.268.512-3.425.687-4.791s.572-4.241.88-6.389c.984-6.856.994-7.097.379-8.95-1.515-4.56-8.082-6.646-13.17-4.182m23.619.269c-2.698 1.353-4.632 3.643-5.44 6.438-.475 1.642-.7 3.038-1.698 10.507-.344 2.577-1.095 7.873-1.913 13.487a542 542 0 0 0-.912 6.566c-.203 1.562-.439 3.079-.524 3.372s-.32 1.89-.522 3.549a362 362 0 0 1-.88 6.566c-1.286 8.9-1.677 11.594-2.16 14.907a339 339 0 0 0-.866 6.389c-.191 1.561-.531 3.718-.757 4.791-2.331 11.101 3.028 17.499 11.883 14.185 5.353-2.002 6.632-4.52 8.199-16.137.886-6.568 1.581-11.503 1.951-13.842.185-1.171.428-2.928.538-3.904a107 107 0 0 1 .542-3.904c.187-1.172.59-3.967.896-6.211 1.127-8.263 1.6-11.585 1.944-13.665.194-1.171.518-3.407.72-4.969s.599-4.437.884-6.389c.284-1.952.676-4.835.872-6.406.195-1.572.516-3.71.714-4.752 1.807-9.532-4.96-14.847-13.471-10.578M78.962 39.737c.31.502-1.677 4.216-3.198 5.978-2.542 2.947-4.065.872-2.061-2.809 1.403-2.578 4.479-4.431 5.259-3.169M47.56 43.539c0 2.134-2.003 4.452-2.992 3.462-.821-.82-.699-1.373.748-3.386 1.299-1.808 2.244-1.84 2.244-.076m13.664 12.169C48.201 58.56 36.808 68.439 32.759 80.39c-1.483 4.377-1.352 3.703-3.143 16.149-.294 2.05-.693 4.765-.886 6.034a309 309 0 0 0-.699 4.969 558 558 0 0 1-.894 6.389 367 367 0 0 0-.874 6.388c-.37 2.984-.752 5.546-1.642 11.003-1.99 12.199.389 17.011 8.21 16.599 6.113-.322 9.742-3.936 10.788-10.743.356-2.315.573-3.856 2.001-14.197.297-2.147.701-4.862.899-6.033.197-1.172.506-3.328.687-4.792.18-1.464.56-4.259.845-6.211 1.139-7.804 1.701-11.835 2.005-14.374 1.288-10.779 8.958-17.908 18.09-16.813 16.09 1.929 11.999 26.348-4.633 27.649-8.047.629-12.404 4.687-12.404 11.551 0 7.005 5.851 9.767 16.149 7.624 36.242-7.541 43.036-58.485 8.803-66.007-3.475-.764-11.054-.696-14.837.133m91.394.008c-11.246 2.696-20.638 11.222-24.056 21.835-.69 2.145-1.341 5.789-2.376 13.31-.309 2.245-.715 5.04-.902 6.211a257 257 0 0 0-.723 4.969l-.89 6.566c-1.294 9.525 1.124 13.487 8.233 13.487 7.274 0 10.393-4.115 11.839-15.617.184-1.464.57-4.259.857-6.211.913-6.204 1.672-11.635 1.983-14.201 1.399-11.521 14.222-15.975 18.088-6.283.542 1.358.338 3.856-1.035 12.676a516 516 0 0 0-.898 6.211c-.311 2.245-.797 5.679-1.079 7.631a1116 1116 0 0 0-1.065 7.631c-.304 2.245-.706 4.852-.893 5.794-2.72 13.708 5.246 26.706 18.071 29.486 10.927 2.368 18.133-1.747 18.143-10.361.007-5.835-2.486-8.169-9.359-8.765-6.2-.538-8.164-4.058-6.808-12.199.281-1.687.77-4.984 1.086-7.327s.722-5.217.901-6.389a498 498 0 0 0 .88-6.211c.726-5.346 1.535-11 1.96-13.705 1.678-10.683-2.268-20.145-10.638-25.509-5.477-3.509-14.167-4.744-21.319-3.029m138.243-.149c-13.511 3.137-24.212 12.105-28.772 24.114-8.339 21.96 4.077 42.366 25.872 42.521 14.419.103 17.352-18.171 3.151-19.64-7.427-.768-11.537-4.929-11.558-11.701-.046-14.85 20.442-22.441 26.71-9.897 1.865 3.731 1.848 4.085-1.215 24.626-.957 6.42-1.07 10.492-.333 12.045 4.223 8.899 19.33 4.122 19.33-6.112 0-.67.229-2.598.509-4.285s.775-4.984 1.101-7.327.809-5.696 1.072-7.453c2.261-15.066-1.041-25.009-10.666-32.12-6.198-4.578-17.124-6.647-25.201-4.771" class="selected"/></g></svg>