<svg xmlns="http://www.w3.org/2000/svg" viewBox="0 0 4766.2 1435"><path d="M556.701 1070.641c13.568-52.04 26.254-101.077 39.147-150.36 59.602-226.937 118.108-454.112 180.283-680.405 6.459-23.887 14.188-47.321 25.389-69.492 28.398-56.575 72.693-91.433 136.37-99.154 58.315-7.102 113.166 1.072 158.533 42.364 31.855 28.82 49.927 66.251 61.532 106.708 44.97 159.614 86.262 320.086 128.435 480.367 31.823 121.317 63.248 242.641 94.856 363.752.215.643.644 1.287 1.073 2.145 4.535-.429 3.026-4.505 3.67-6.888 51.618-202.001 103.038-403.764 154.656-605.758 30.989-121.11 61.962-242.221 92.497-363.331 2.391-9.247 5.823-12.281 15.713-12.281 92.505.429 185.002.214 277.721.214 15.276 0 15.062 0 10.963 15.07-53.994 194.256-107.757 388.719-162.188 582.967-54.208 193.399-106.922 387.433-165.214 579.727-19.573 64.328-54.637 118.322-114.453 152.536-81.082 46.248-208.436 36.573-274.695-72.503-23.672-38.932-36.779-81.749-49.037-124.971-67.99-240.068-133.169-481.002-198.562-721.935-.651-2.598-1.509-4.957-2.581-8.174-4.528 6.887-5.172 13.973-7.102 20.645-60.436 222.433-120.681 444.858-183.286 666.862-13.107 46.463-23.649 93.577-44.723 137.466-22.171 46.034-52.501 84.323-99.178 107.996-80.677 40.648-185.86 19.359-245.676-48.203-36.565-41.292-55.924-90.551-70.97-142.4-86.706-299.01-169.527-599.109-252.992-899.192-21.933-78.286-43.659-157.032-65.83-235.54-2.574-9.04-.643-10.565 8.182-10.565 94.428.214 188.887.214 283.322 0 9.032 0 11.82 3.249 13.965 11.423C373.63 353.67 440.985 617.625 508.308 881.564c15.069 59.149 30.107 118.107 45.176 177.256.644 3.027 1.501 5.815 3.217 11.821M4059.455 1076.034h-462.93c-33.356 0-66.473-4.083-98.749-13.758-90.978-26.89-141.325-89.709-158.754-181.141-4.718-25.174-6.863-50.538-6.863-75.927V192.769c0-41.101 7.078-80.676 29.892-115.748 32.26-49.466 80.438-71.398 137.465-75.068 58.72-3.869 117.655-.644 176.391-1.502 9.04-.214 8.182 4.957 8.182 10.748 0 70.143-.238 140.04 0 210.176.429 106.041-2.812 212.114 1.501 317.94 3.217 83.465 26.675 160.893 82.607 225.65 43.008 49.919 97.867 80.463 161.33 96.382 79.596 19.788 159.606 20.431 238.995 0 127.783-33.134 203.718-116.599 233.618-243.937 9.032-38.519 12.035-77.666 12.035-117.027-.215-162.211 0-324.399-.215-486.61 0-10.962 3.027-13.536 13.568-13.322 55.71 1.073 111.642-1.93 167.359 1.502 104.754 6.243 170.362 75.283 171.005 180.489.643 128.435.215 257.052.215 385.479 0 83.25.214 166.286-.215 249.537-.214 37.216-5.791 74.004-18.715 109.067-28.606 78.937-86.468 123.47-166.716 141.113-26.675 6.037-53.993 8.611-81.32 8.611-146.689-.215-293.188-.215-439.686-.215M2095.437 956.211c0-151.003.214-301.799-.215-452.825 0-10.756 2.788-13.544 13.56-13.544 87.548.429 175.327.429 262.867 0 10.112 0 12.257 3.002 12.257 12.686-.215 303.324-.215 606.854 0 910.154 0 9.89-2.574 12.496-12.472 12.496-87.993-.429-175.962-.429-263.963 0-10.104 0-12.249-3.035-12.249-12.71.215-152.075.215-304.158.215-456.257M2682.05 956.211c0-151.003.215-301.799-.214-452.825 0-10.971 2.812-13.544 13.568-13.544 87.326.429 174.46.429 261.794 0 9.675 0 13.345 1.501 13.345 12.471-.428 303.324-.214 606.855 0 910.155 0 9.89-2.597 12.495-12.487 12.495-87.977-.428-175.97-.428-263.939 0-10.327 0-12.281-3.034-12.281-12.71.429-151.86.214-303.943.214-456.042" style="fill:#fff"/><path d="M4237.569 266.122c0 84.545 1.716 169.297-.643 253.834-1.509 58.077-22.37 109.926-66.473 149.931-83.465 75.719-242.857 60.888-294.499-76.149-10.533-27.962-15.903-56.997-16.142-86.682-.214-165.643-.214-331.072-.428-496.715 0-7.745 2.168-10.104 9.897-10.104 119.395.214 238.996.214 358.39 0 8.604 0 10.542 2.574 10.542 10.748-.215 84.966-.215 169.932-.215 255.137zM2066.823 167.167c.215-87.334 70.358-160.686 153.608-165.858 61.509-3.654 114.216 14.418 153.362 62.819 62.82 77.428 39.791 191.008-47.32 239.21-85.396 47.329-189.292 21.075-237.709-60.031-14.831-24.506-21.297-51.396-21.941-76.14M2996.551 162.416c-.214 77.889-53.326 141.137-132.93 160.067-81.535 19.359-166.716-23.029-197.474-98.749-39.377-96.358 21.941-199.825 121.11-218.993 71.86-13.973 133.368 7.102 178.973 66.275 20.86 27.318 29.249 59.363 30.321 91.4" style="fill:#fff"/></svg>