<svg xmlns="http://www.w3.org/2000/svg" width="1065" height="187"><g style="fill:#fff;fill-opacity:1"><path d="M.232 48.63H5.72V6.187L22.9 48.63h4.49L44.796 6.436V48.63h6.162V1.198h-9.21l-16.03 39.767L9.51 1.198H.232zM60.078 6.39h5.78V1.198h-5.78zm0 42.24h5.78V13.487h-5.78zM99.47 25.813l5.488-.738c-1.268-8.027-6.617-12.552-14.1-12.552-10.39 0-17.572 7.24-17.572 18.537 0 11.395 6.807 18.523 16.656 18.523 7.95 0 13.52-4.364 15.018-12.266l-5.256-.876c-1.243 5.523-4.795 8.613-9.517 8.613-6.2 0-10.57-5.172-10.57-13.992 0-8.95 4.587-14.137 10.681-14.137 4.61-.005 8.404 3.255 9.172 8.888M111.9 48.63h5.863V30.979c0-8.13 4.827-13.115 12.307-13.115h.98v-5.256a19 19 0 0 0-2.139-.13c-5.42 0-9.07 2.92-11.434 8.854v-7.845H111.9zM149.576 49.58c10.467 0 17.714-7.252 17.714-18.523 0-11.36-7.245-18.536-17.714-18.536-10.369 0-17.562 7.175-17.562 18.536 0 11.27 7.193 18.523 17.562 18.523m0-4.363c-6.694 0-11.2-5.215-11.2-14.157 0-9.006 4.425-14.137 11.2-14.137 6.803 0 11.291 5.188 11.291 14.137 0 8.894-4.556 14.157-11.29 14.157M224.53 49.58c10.492 0 17.74-7.252 17.74-18.523 0-11.36-7.245-18.536-17.74-18.536-10.345 0-17.548 7.175-17.548 18.536.002 11.27 7.205 18.523 17.547 18.523m0-4.363c-6.67 0-11.188-5.215-11.188-14.157 0-9.006 4.413-14.137 11.187-14.137 6.825 0 11.325 5.188 11.325 14.137.002 8.894-4.582 14.157-11.325 14.157M257.786 13.486c0-.41-.075-.881-.075-1.292 0-4.972 2.22-7.303 6.975-7.303 1.095 0 2.696.125 4.738.466V.99a32.3 32.3 0 0 0-5.794-.497c-7.922 0-11.66 4.2-11.66 12.73v.26h-6.954v3.854h6.953v31.874h5.817V17.338h14.768v18.208c0 4.529 0 7.822 1.61 9.866 2.231 2.905 5.434 4.164 10.072 4.164 1.61 0 3.28-.218 4.92-.53v-4.401c-1.463.363-2.874.4-4.05.4-5.997 0-6.66-2.785-6.66-9.343V17.336h9.3v-3.854h-9.3V4.604l-5.892.543v8.334h-14.768M171.386 39.09c1.817 6.27 7.79 9.979 16.388 9.979 8.99 0 14.943-4.565 14.943-10.79 0-5.33-3.925-8.087-12.043-9.895-7.509-1.672-11.96-1.776-11.96-6.078 0-3.282 2.972-5.451 7.94-5.451 4.695 0 7.75 1.898 8.988 5.45l5.408-1.017c-1.9-5.65-6.962-8.765-14.18-8.765-8.543 0-14.012 4.525-14.012 10.4 0 5.772 3.938 7.996 12.476 9.822 7.166 1.57 11.298 1.962 11.298 6.2 0 3.365-3.382 5.85-8.856 5.85-5.395 0-9.535-2.413-11.116-6.678z" style="fill:#fff;fill-opacity:1"/><path d="M290.855 11.076c2.344 0 4.238 1.85 4.238 4.139 0 2.344-1.849 4.21-4.184 4.21a4.17 4.17 0 0 1-4.168-4.185c0-2.272 1.865-4.164 4.114-4.164m.14-.69c-2.743 0-4.947 2.146-4.947 4.829 0 2.725 2.16 4.9 4.875 4.9a4.86 4.86 0 0 0 4.858-4.873c.002-2.642-2.17-4.856-4.786-4.856m2.215 7.697-1.17-2.582c.695-.245 1.086-.777 1.086-1.463 0-.94-.79-1.608-1.922-1.608h-2.39v5.653h.834v-2.398h1.556l1.075 2.398zm-3.562-3.061v-1.883h1.556c.64 0 1.034.336 1.034.89 0 .61-.427.993-1.13.993zM733.715 154.558c5.865 19.997 25.158 31.12 55.853 31.12 33.75 0 54.324-15.384 54.324-35.806 0-8.368-3.36-15.56-9.85-20.996-7.994-6.64-17.443-7.968-28.988-9.924-19.895-3.305-29.869-2.503-29.766-8.742.025-3.385 3.984-6.964 11.924-6.964 9.9 0 16.188 3.28 19.968 9.47l32.3-5.236c-7.088-17.317-24.557-26.887-50.137-26.887-31.87 0-50.39 14.807-50.39 34.652 0 8.568 4.436 16.713 11.977 22.2 9.421 6.767 19.92 8.346 31.921 10.3 14.86 2.529 22.852 1.802 23.48 7.367.48 3.834-5.236 6.814-15.11 6.814-13.878 0-21.596-3.86-23.5-11.277zM287.597 82.769l36.122-.1v14.31c5.692-11.152 16.067-17.037 29.868-17.037 24.21 0 33.764 11.75 33.764 37.234v66.326h-39.408v-60.838c0-9.397-3.478-15.46-10.212-15.46-6.905 0-11.175 4.886-11.175 14.283v62.017h-38.96z" style="fill:#fff;fill-opacity:1"/><path d="M628.304 183.5h29.066l14.907-56.303 13.585 56.303h29.464l33.426-100.778h-28.24l-14.806 50.765L692.6 82.722h-30.468l-12.604 49.388-14.41-49.388h-39.916L628.305 183.5M88.29 183.422h40.151l18.59-76.347 19.192 76.347h39.344L243.55 49.746h-33.682l-20.23 77.024-19.807-77.524h-36.6l-19.282 78.3-19.632-78.3H50.468z" style="fill:#fff;fill-opacity:1"/><path d="M240.232 74.654h39.452V49.77h-39.45zm0 8.015h39.452v100.753h-39.45zM454.815 120.458c0-4.01.198-8.77-2.508-11.927-1.853-2.607-5.617-3.984-8.944-3.984-9.472.023-14.812 10.898-14.835 29.59 0 8.946 1.734 24.807 14.658 24.807 4.11 0 6.866-1.754 9.124-5.136 2.905-4.36 2.507-7.945 2.507-12.905v-20.445zm2.55 62.964v-13.578h-.374c-6.062 11.198-14.96 15.507-28.288 15.507-30.554 0-41.668-27.211-41.668-52.22 0-25.98 10.905-53.192 42.92-53.192 10.173 0 18.945 4.184 25.357 10.299V49.044h40.042v134.38h-37.988M568.244 133.237c0-18.818-6.34-27.888-16.11-27.888-9.826 0-16.113 9.07-16.113 27.888 0 18.913 6.362 27.962 16.113 27.962 9.848 0 16.11-9.05 16.11-27.962m-72.84 0c0-32.026 22.775-53.245 56.677-53.245 34.005 0 56.65 21.22 56.65 53.245 0 31.87-22.647 53.27-56.65 53.27-33.9 0-56.677-21.4-56.677-53.27M843.537 81.095c-1.467-1.517-3.134-2.078-5.165-2.078-2.035 0-3.88.56-5.337 2.074A7.9 7.9 0 0 0 831 86.565c0 2.07.735 3.777 2.035 5.1 1.462 1.51 3.302 2.08 5.337 2.08 2.033 0 3.682-.566 5.165-2.08 1.302-1.314 2.036-3.017 2.036-5.1 0-2.272-.732-3.955-2.036-5.474zm-1.103.938c1.101 1.14 1.658 2.653 1.658 4.53 0 1.69-.552 3.025-1.658 4.347-1.102 1.136-2.388 1.703-4.043 1.703-1.668 0-3.135-.567-4.243-1.703-1.293-1.322-1.856-2.653-1.856-4.347 0-1.88.563-3.396 1.856-4.53 1.108-1.333 2.575-1.894 4.243-1.894 1.65 0 2.932.56 4.043 1.895z" style="fill:#fff;fill-opacity:1"/><path d="M841.695 84.686c0-1.714-.922-2.464-2.946-2.464h-3.313v8.495h1.285v-3.77h1.481l2.21 3.77h1.467l-2.387-3.77c1.48-.194 2.203-.95 2.203-2.26zm-1.47-.2c0 .943-.56 1.513-1.844 1.513h-1.662v-2.64h1.662c1.284-.001 1.843.373 1.843 1.128z" style="fill:#fff;fill-opacity:1"/><g aria-label="9" style="font-size:207.731px;line-height:1.25;font-family:Arial;-inkscape-font-specification:Arial;text-align:center;letter-spacing:0;word-spacing:0;text-anchor:middle;stroke-width:1.08192;fill:#fff;fill-opacity:1"><path d="m803.507 161.543 17.548-1.623q2.231 12.375 8.52 17.953 6.289 5.58 16.127 5.58 8.42 0 14.708-3.855 6.39-3.855 10.447-10.245 4.058-6.491 6.796-17.446t2.739-22.315q0-1.217-.102-3.651-5.477 8.723-15.011 14.2-9.433 5.376-20.49 5.376-18.46 0-31.24-13.389t-12.78-35.298q0-22.62 13.287-36.414 13.389-13.795 33.472-13.795 14.505 0 26.474 7.81 12.07 7.81 18.257 22.316 6.289 14.403 6.289 41.79 0 28.501-6.187 45.44-6.188 16.838-18.46 25.662-12.172 8.825-28.604 8.825-17.446 0-28.502-9.636-11.056-9.737-13.288-27.285m74.755-65.626q0-15.722-8.419-24.952-8.317-9.23-20.083-9.23-12.172 0-21.2 9.94t-9.027 25.763q0 14.2 8.52 23.127 8.622 8.824 21.2 8.824 12.678 0 20.793-8.824 8.216-8.926 8.216-24.648" style="fill:#fff;fill-opacity:1" transform="scale(1.06886 .93557)"/></g><g aria-label="x" style="font-size:207.731px;line-height:1.25;font-family:Arial;-inkscape-font-specification:Arial;text-align:center;letter-spacing:0;word-spacing:0;text-anchor:middle;stroke-width:1.08192;fill:#fff;fill-opacity:1"><path d="m895.346 195.928 39.356-55.99-36.414-51.73h22.822l16.533 25.257q4.666 7.201 7.506 12.07 4.463-6.695 8.216-11.868l18.156-25.459h21.808l-37.225 50.716 40.065 57.004h-22.416l-22.112-33.472-5.883-9.028-28.3 42.5z" style="fill:#fff;fill-opacity:1" transform="scale(1.06886 .93557)"/></g></g></svg>