<svg xmlns="http://www.w3.org/2000/svg" width="242mm" height="69.5mm" viewBox="0 0 242 69.5"><g style="fill:#fff;fill-opacity:1"><g style="fill:#fff;fill-opacity:1"><path d="m201.079 861.19.133 2.828h-.338q-.098-.747-.267-1.067-.275-.516-.738-.756-.453-.249-1.2-.249h-1.698v9.211q0 1.112.24 1.387.338.374 1.04.374h.418v.329h-5.112v-.33h.427q.764 0 1.084-.461.196-.285.196-1.299v-9.21h-1.45q-.844 0-1.2.124-.462.169-.791.649t-.391 1.298h-.338l.142-2.827zM184.29 861.849v4.738h2.195q.756 0 1.103-.328.355-.338.471-1.325h.329v4.08h-.329q-.009-.702-.187-1.03-.169-.33-.48-.49-.302-.169-.907-.169h-2.196v3.788q0 .916.116 1.21.089.221.373.381.391.214.818.214h.436v.329h-5.175v-.33h.427q.747 0 1.085-.435.213-.284.213-1.369v-7.788q0-.916-.115-1.21-.09-.222-.365-.382-.382-.213-.818-.213h-.427v-.33h8.971l.116 2.65h-.311q-.231-.844-.543-1.236-.302-.4-.755-.578-.445-.177-1.387-.177zM168.366 860.915v4.17h-.329q-.16-1.2-.578-1.912-.408-.71-1.173-1.129-.765-.418-1.583-.418-.924 0-1.529.57-.605.56-.605 1.28 0 .55.383 1.004.551.667 2.623 1.779 1.689.906 2.302 1.395.623.48.952 1.138.338.658.338 1.379 0 1.369-1.067 2.365-1.058.986-2.73.986-.524 0-.987-.08-.275-.044-1.147-.32-.862-.284-1.093-.284-.223 0-.356.133-.124.134-.187.551h-.329v-4.134h.33q.23 1.298.622 1.947.39.64 1.191 1.067.81.427 1.77.427 1.11 0 1.75-.587.65-.587.65-1.387 0-.444-.249-.898-.24-.453-.756-.844-.346-.267-1.893-1.13-1.548-.87-2.205-1.387-.65-.515-.987-1.138-.338-.622-.338-1.369 0-1.298.996-2.231.995-.943 2.534-.943.96 0 2.036.471.497.223.702.223.231 0 .373-.134.152-.142.24-.56zM154.816 860.915q2.347 0 4.063 1.787 1.725 1.778 1.725 4.446 0 2.747-1.734 4.56-1.734 1.814-4.196 1.814-2.49 0-4.188-1.769-1.69-1.77-1.69-4.579 0-2.871 1.957-4.685 1.698-1.574 4.063-1.574m-.17.65q-1.617 0-2.595 1.2-1.218 1.493-1.218 4.374 0 2.952 1.262 4.543.97 1.21 2.56 1.21 1.699 0 2.801-1.326 1.112-1.324 1.112-4.178 0-3.094-1.218-4.615-.978-1.209-2.703-1.209" style="font-size:18.2087px;font-family:&quot;Times New Roman&quot;;-inkscape-font-specification:&quot;Times New Roman, &quot;;letter-spacing:-.949854px;fill:#fff;stroke-width:1.13805;fill-opacity:1" transform="translate(-75.906 -1342.804)scale(1.5728)"/><path d="M150.87 873.247h-3.218l-4.081-5.637q-.454.018-.738.018h-.25q-.133-.01-.275-.018v3.503q0 1.138.249 1.414.338.39 1.014.39h.47v.33h-5.165v-.33h.454q.764 0 1.093-.497.187-.276.187-1.307v-7.788q0-1.139-.25-1.414-.346-.391-1.03-.391h-.454v-.33h4.392q1.92 0 2.828.285.915.276 1.547 1.032.64.746.64 1.787 0 1.111-.73 1.929-.72.818-2.24 1.156l2.49 3.458q.853 1.192 1.467 1.583.613.391 1.6.498zm-8.562-6.197q.169 0 .293.009h.205q1.725 0 2.596-.747.88-.747.88-1.903 0-1.129-.711-1.831-.702-.711-1.867-.711-.516 0-1.396.168z" style="font-size:18.2087px;font-family:&quot;Times New Roman&quot;;-inkscape-font-specification:&quot;Times New Roman, &quot;;letter-spacing:-.949854px;fill:#fff;stroke-width:1.13805;fill-opacity:1" transform="translate(-75.906 -1342.804)scale(1.5728)"/><path d="m138.867 860.915.275 4.099h-.275q-.551-1.84-1.574-2.65-1.022-.809-2.454-.809-1.2 0-2.17.614-.968.604-1.528 1.938-.552 1.334-.552 3.316 0 1.636.525 2.836.524 1.2 1.574 1.84 1.058.641 2.41.641 1.173 0 2.07-.498.899-.507 1.974-2l.276.178q-.907 1.609-2.116 2.356t-2.872.746q-2.996 0-4.64-2.222-1.228-1.654-1.228-3.895 0-1.804.81-3.316.808-1.511 2.222-2.338 1.423-.836 3.103-.836 1.307 0 2.578.64.374.196.534.196.24 0 .418-.17.23-.24.329-.666z" style="font-size:18.2087px;font-family:&quot;Times New Roman&quot;;-inkscape-font-specification:&quot;Times New Roman, &quot;;letter-spacing:-.949854px;fill:#fff;stroke-width:1.13805;fill-opacity:1" transform="translate(-75.906 -1342.804)scale(1.5728)"/><path d="M129.479 872.918v.329h-5.166v-.33h.427q.747 0 1.084-.435.214-.284.214-1.369v-7.788q0-.916-.116-1.21-.089-.222-.364-.382-.391-.213-.818-.213h-.427v-.33h5.166v.33h-.436q-.738 0-1.076.435-.222.285-.222 1.37v7.788q0 .916.116 1.21.088.221.373.381.382.214.809.214z" style="font-size:18.2087px;font-family:&quot;Times New Roman&quot;;-inkscape-font-specification:&quot;Times New Roman, &quot;;letter-spacing:-.949854px;fill:#fff;stroke-width:1.13805;fill-opacity:1" transform="translate(-75.906 -1342.804)scale(1.5728)"/><path d="m115.166 873.247-5.44-11.848v9.408q0 1.298.28 1.62.384.436 1.214.436h.499v.384h-4.901v-.384h.498q.893 0 1.267-.54.228-.333.228-1.516v-9.2q0-.935-.207-1.35-.146-.302-.54-.499-.385-.208-1.246-.208v-.384h3.987l5.109 11.018 5.026-11.018h3.987v.384h-.488q-.903 0-1.277.54-.228.333-.228 1.516v9.2q0 1.299.29 1.62.384.437 1.215.437h.488v.384h-5.98v-.384h.497q.904 0 1.267-.54.229-.333.229-1.516v-9.408l-5.431 11.848z" style="font-size:18.2087px;font-family:&quot;Times New Roman&quot;;-inkscape-font-specification:&quot;Times New Roman, &quot;;letter-spacing:-.949854px;fill:#fff;stroke-width:1.32915;fill-opacity:1" transform="translate(-75.906 -1342.804)scale(1.5728)"/><path d="M175.458 860.915q2.347 0 4.063 1.787 1.725 1.778 1.725 4.446 0 2.747-1.734 4.56-1.734 1.814-4.197 1.814-2.489 0-4.187-1.769-1.69-1.77-1.69-4.579 0-2.871 1.957-4.685 1.698-1.574 4.063-1.574m-.17.65q-1.617 0-2.595 1.2-1.218 1.493-1.218 4.374 0 2.952 1.262 4.543.97 1.21 2.56 1.21 1.699 0 2.801-1.326 1.112-1.324 1.112-4.178 0-3.094-1.218-4.615-.978-1.209-2.703-1.209" style="font-size:18.2087px;font-family:&quot;Times New Roman&quot;;-inkscape-font-specification:&quot;Times New Roman, &quot;;letter-spacing:-.949854px;fill:#fff;stroke-width:1.13805;fill-opacity:1" transform="translate(-75.906 -1342.804)scale(1.5728)"/></g><g style="fill:#fff;fill-opacity:1"><path d="M198.47 878.738v4.767h-.376q-.183-1.372-.66-2.186-.468-.813-1.342-1.29t-1.81-.478q-1.056 0-1.747.65-.692.64-.692 1.464 0 .63.437 1.149.63.762 2.999 2.032 1.931 1.037 2.632 1.596.712.549 1.088 1.301.386.752.386 1.576 0 1.565-1.22 2.703-1.209 1.129-3.12 1.129-.6 0-1.128-.092-.315-.05-1.311-.366-.986-.325-1.25-.325-.255 0-.407.152-.142.153-.213.63h-.377v-4.726h.377q.264 1.484.711 2.226.447.732 1.362 1.22.925.488 2.023.488 1.27 0 2.002-.671.742-.671.742-1.586 0-.508-.285-1.026-.274-.519-.864-.966-.396-.305-2.165-1.29-1.768-.997-2.52-1.586-.742-.59-1.128-1.301-.387-.712-.387-1.566 0-1.484 1.139-2.55 1.138-1.078 2.896-1.078 1.098 0 2.328.538.57.254.803.254.264 0 .427-.152.173-.163.274-.64z" style="font-size:18.2087px;font-family:&quot;Times New Roman&quot;;-inkscape-font-specification:&quot;Times New Roman, &quot;;letter-spacing:-.949854px;fill:#fff;stroke-width:1.30102;fill-opacity:1" transform="translate(-75.906 -1342.804)scale(1.5728)"/><path d="M129.425 875.542v.462q-.662 0-1.075.237-.412.238-.787.888-.25.437-.787 2.087l-4.724 13.659h-.5l-3.862-10.835-3.836 10.835h-.45l-5.037-14.072q-.562-1.574-.712-1.862-.25-.475-.687-.7-.425-.237-1.162-.237v-.462h6.273v.462h-.3q-.662 0-1.012.3t-.35.725q0 .437.55 2.012l3.337 9.51 2.811-8.086-.5-1.424-.4-1.137q-.262-.625-.587-1.1-.162-.238-.4-.4-.312-.225-.625-.325-.237-.075-.75-.075v-.462h6.599v.462h-.45q-.7 0-1.025.3t-.325.812q0 .638.563 2.225l3.249 9.21 3.224-9.335q.55-1.55.55-2.15 0-.287-.187-.537-.175-.25-.45-.35-.475-.175-1.237-.175v-.462z" style="font-size:18.2087px;font-family:&quot;Times New Roman&quot;;-inkscape-font-specification:&quot;Times New Roman, &quot;;letter-spacing:-.949854px;fill:#fff;stroke-width:1.59962;fill-opacity:1" transform="translate(-75.906 -1342.804)scale(1.5728)"/><path d="M132.843 892.46v.375h-5.905v-.376h.488q.854 0 1.24-.498.244-.325.244-1.565v-8.904q0-1.047-.132-1.382-.102-.254-.417-.437-.447-.244-.935-.244h-.488v-.376h5.905v.376h-.498q-.843 0-1.23.498-.254.325-.254 1.565v8.904q0 1.047.132 1.382.102.254.427.437.437.244.925.244z" style="font-size:18.2087px;font-family:&quot;Times New Roman&quot;;-inkscape-font-specification:&quot;Times New Roman, &quot;;letter-spacing:-.949854px;fill:#fff;stroke-width:1.30102;fill-opacity:1" transform="translate(-75.906 -1342.804)scale(1.5728)"/><path d="M130.655 879.053h3.74l8.426 10.337v-7.949q0-1.27-.284-1.585-.376-.427-1.19-.427h-.477v-.376h4.797v.376h-.487q-.875 0-1.24.528-.224.326-.224 1.484v11.618h-.366l-9.087-11.1v8.488q0 1.27.275 1.585.386.427 1.189.427h.488v.376h-4.798v-.376h.478q.884 0 1.25-.528.224-.325.224-1.484v-9.585q-.6-.701-.915-.925-.305-.224-.905-.417-.294-.091-.894-.091z" style="font-size:18.2087px;font-family:&quot;Times New Roman&quot;;-inkscape-font-specification:&quot;Times New Roman, &quot;;letter-spacing:-.949854px;fill:#fff;stroke-width:1.30102;fill-opacity:1" transform="translate(-75.906 -1342.804)scale(1.5728)"/><path d="M145.332 892.835v-.376h.519q.874 0 1.24-.559.223-.335.223-1.504v-8.904q0-1.29-.284-1.616-.397-.447-1.18-.447h-.518v-.376h5.61q3.09 0 4.697.701 1.616.701 2.592 2.338.986 1.636.986 3.78 0 2.877-1.749 4.809-1.961 2.154-5.976 2.154zm3.934-.996q1.29.285 2.165.285 2.358 0 3.913-1.657t1.555-4.492q0-2.857-1.555-4.503-1.555-1.647-3.995-1.647-.914 0-2.083.295zM166.78 878.738q2.684 0 4.645 2.043 1.972 2.033 1.972 5.082 0 3.14-1.982 5.214t-4.797 2.074q-2.846 0-4.788-2.023-1.93-2.023-1.93-5.235 0-3.283 2.235-5.356 1.942-1.8 4.645-1.8m-.193.742q-1.85 0-2.968 1.372-1.392 1.707-1.392 5 0 3.375 1.443 5.195 1.108 1.382 2.927 1.382 1.942 0 3.202-1.515 1.27-1.514 1.27-4.777 0-3.537-1.392-5.275-1.118-1.382-3.09-1.382M191.32 879.053v.376q-.54 0-.875.193t-.64.722q-.203.355-.64 1.697l-3.842 11.11h-.407l-3.14-8.813-3.121 8.813h-.366l-4.096-11.445q-.458-1.281-.58-1.515-.203-.386-.559-.569-.345-.193-.945-.193v-.376h5.103v.376h-.244q-.539 0-.824.244t-.284.59q0 .355.447 1.636l2.714 7.735 2.287-6.577-.407-1.158-.325-.925q-.213-.508-.478-.895-.132-.193-.325-.325-.254-.183-.508-.264-.193-.061-.61-.061v-.376h5.367v.376h-.366q-.57 0-.834.244t-.264.66q0 .519.457 1.81l2.643 7.49 2.622-7.592q.448-1.26.448-1.748 0-.234-.153-.437-.142-.203-.366-.285-.386-.142-1.006-.142v-.376z" style="font-size:18.2087px;font-family:&quot;Times New Roman&quot;;-inkscape-font-specification:&quot;Times New Roman, &quot;;letter-spacing:-.949854px;fill:#fff;stroke-width:1.30102;fill-opacity:1" transform="translate(-75.906 -1342.804)scale(1.5728)"/></g></g><path d="M244.922 2.424c-25.13-.142-49.779 5.466-74.03 16.006v30.953c19.84-8.775 36.092-13.505 50.317-14.408v70.261c-16.922 1.352-33.62 6.528-50.316 14.176v21.98c18.493-8.99 35.191-13.042 50.316-14.17v67.085c-17.818 3.16-34.961 7.893-50.316 15.086v31.605c47.595-27.651 98.141-24.93 150.949.68V20.926c-26.178-12.467-51.79-18.36-76.92-18.502M15.64 20.47 5.443 25.68v9.294l10.198-4.532zm150.72 0-28.103 13.597v28.106L166.36 47.44zM41.023 25.23l-13.142 7.931v13.371l13.142-7.476zm91.569 5.437-26.063 13.146V69.2l26.063-13.144zm117.664.676c13.5-.034 27.091 2.683 40.535 8.39v70.942c-6.573-2.493-19.687-5.661-28.486-6.477-11.861-1.1-21.38-.55-21.38-.55l.003-71.844a100 100 0 0 1 9.328-.461m-149.621.912-22.21 10.426v22.44l22.21-10.655zM70.49 35.203l-18.133 8.611v16.092l18.133-8.158zm95.871 17.225-28.103 13.824v28.103l28.103-14.73zm0 31.957-28.103 13.597v28.106l28.103-14.506zm-150.72 31.504-10.198 4.986v9.518l10.198-4.536zm150.72.677-28.103 13.602v28.105l28.103-14.732zm-125.338 4.08-13.142 7.934v13.6l13.142-7.48zm212.35 2.87c12.474.02 25.008 2.402 37.418 7.332v69.806c-15.866-5.212-30.598-8.16-49.865-7.254l.002-69.127q6.207-.766 12.445-.757m-120.781 2.572-26.063 13.144v25.614l26.063-13.373zm-31.957 1.812-22.21 10.426v22.44l22.21-10.655zm-30.145 2.717-18.133 8.615v16.092l18.133-8.16zm95.871 17.457-28.103 13.824v27.88l28.103-14.508zm0 32.863-28.103 13.598v28.102l28.103-14.502zm-150.72 30.596-10.198 5.213v9.293l10.198-4.533zm150.72 1.584-28.103 13.602v28.105l28.103-14.732zm-125.338 3.176-13.142 7.932v13.373l13.142-7.256zm91.569 5.44-26.063 13.144v25.379l26.063-13.139zm-31.957 1.587-22.21 10.424v22.44l22.21-10.653zm-30.145 2.944-18.133 8.613v16.092l18.133-8.16z" style="fill:#fff;fill-opacity:1;stroke:none;stroke-width:1.52051" transform="scale(.26458)"/><path d="M35.081 50.15v6.718l-6.895 3.537V53.63zm0-8.214v6.716l-6.895 3.538v-6.776zm-8.455 8.635v5.937l-5.876 2.758V53.39zm0-8.156v5.938L20.75 51.17v-5.937zm-7.975 13.313v-4.377l-4.798 2.279v4.317zm0-8.215v-4.378l-4.798 2.279v4.318zm-7.797 1.2v3.717l-3.477 1.979V50.81zm0-8.156v3.657l-3.477 1.98v-3.54Zm-6.716-1.26v2.58L1.44 43.074v-2.458zm0 8.216v2.579l-2.698 1.2v-2.46z" style="fill:#fdfdff;fill-opacity:1;stroke:none;stroke-width:.402302"/><path d="M35.081 24.905v6.717l-6.895 3.538v-6.776zm0-8.215v6.716l-6.895 3.539v-6.777zm-8.455 8.635v5.938L20.75 34.02v-5.876zm0-8.156v5.938l-5.876 2.818v-5.936zm-7.975 13.313v-4.377l-4.798 2.28V32.7zm0-8.215V17.89l-4.798 2.278v4.318zm-7.797 1.2v3.717l-3.477 1.979v-3.598zm0-8.156v3.658l-3.477 1.979v-3.54Zm-6.716-1.26v2.58L1.44 17.828v-2.458zm0 8.216v2.579l-2.698 1.2v-2.46z" style="fill:#fff;fill-opacity:1;stroke:none;stroke-width:.402302"/></svg>