<svg xmlns="http://www.w3.org/2000/svg" viewBox="0 0 264 76"><path d="m178.191 57.318-9.855 8.153h-50.957l8.187-34.319 8.243-6.541h8.184l-8.184 34.319 8.184-4.9 6.568-24.49 4.929-4.929h11.528l-8.213 34.319 8.213-6.512 4.9-21.266 6.601-6.541h9.886zM508.351 57.318l-11.201 8.153h-46.951l4.181-19.594 7.436-7.139h9.556l-5.611 21.537 8.241-4.9 2.089-11.14 5.5-5.497h11.467l-5.616 21.537 7.769-5.197 2.209-9.201 7.166-7.139h8.544zM386.072 65.471l8.244-8.153h35.364s3.044.897 4.779-2.957c1.582-3.585-1.492-3.585-1.492-3.585H416.54s-4.719-1.077-4.749-6.871c-.09-14.245 11.621-17.922 11.621-17.922h34.523l-6.869 6.811h-18.099s-5.767 1.645-5.887 6.454c-.087 2.18 2.6 1.733 2.6 1.733h14.752s8.543 1.432 6.571 10.633c-2.57 12.098-11.471 13.857-11.471 13.857z" style="fill-opacity:1;fill:#fff" transform="scale(.44)"/><path d="M357.997 65.471h14.752l4.479-16.964c.541-1.973 5.737-4.212 4.362-3.972-1.345.237 4.719-.898 4.719-.898s1.913.538 2.867 1.853c.988 1.282-.954 3.197-1.224 4.689-.268 1.492 1.645 1.642 1.645 1.642h8.243s4.419-1.642 5.614-3.284c1.168-1.672 2.627-3.405 2.627-4.87 0-1.462-3.254-3.284-3.254-3.284l-3.315-1.612h-24.64s-11.798 6.752-13.17 8.154c-.48.417-3.705 18.546-3.705 18.546M185.537 46.745c-1.135 1.311-4.836 12.842-4.032 14.721.835 1.826 5.407 4.002 5.407 4.002h24.013s11.198-7.019 12.065-8.003c.835-1.015 4.002-12.215 4.002-13.383 0-1.165-2.687-5.347-2.687-5.347h-28.078c.003.003-9.522 6.695-10.69 8.01m18.727-2.66h7.379s-.838 8.874-2.687 11.38c-1.882 2.51-6.034 4.69-6.034 4.69s-4.659.477-5.317 0c-.687-.538-.18-5.347-.18-5.347s.628-5.197 1.495-6.722c.838-1.492 5.344-4.001 5.344-4.001M275.081 46.745c-1.134 1.311-4.836 12.842-4.001 14.721.837 1.826 5.376 4.002 5.376 4.002h33.422s1.105-5.313 2.48-10.693c1.311-5.046 2.867-12.81 2.867-13.383 0-1.195 8.303-11.675 8.303-11.675h-14.515l-7.346 9.018h-15.892c.033.003-9.496 6.695-10.694 8.01m18.727-2.66h7.349s-.807 8.874-2.69 11.38c-1.822 2.51-6.004 4.69-6.004 4.69s-4.656.477-5.346 0c-.628-.538-.178-5.347-.178-5.347s.628-5.197 1.522-6.722c.838-1.492 5.347-4.001 5.347-4.001M223.414 65.471l7.583-26.733h32.079s4.242.447 5.674 2.837c1.495 2.393 1.018 6.511 1.018 6.511l-4.362 17.385h-13.38s1.552-8.514 3.047-14.695c1.492-6.184-2.69-6.691-2.69-6.691h-8.003l-4.599 16.04s-4.002 4.659-5.674 5.346zM552.613 65.471l8.513-26.733h32.08s4.212.447 5.704 2.837c1.495 2.393 1.018 6.511 1.018 6.511l-4.513 17.385h-14.664s2.449-7.166 4.004-13.383c1.492-6.151-2.182-8.003-2.182-8.003h-8.034l-4.482 16.037s-3.701 4.659-5.343 5.349zM319.196 46.745c-1.165 1.311-4.809 12.842-4.001 14.721.807 1.826 5.346 4.002 5.346 4.002h24.043s4.78-2.987 8.334-5.346c0 0-20.429.15-21.684 0-.567-.061-.357-2.537-.297-3.999h16.427s3.164-.688 7.884-4.602c4.779-3.912 5.376-4.332 5.376-7.439 0-3.074-2.69-5.347-2.69-5.347h-28.072c.057.003-9.498 6.695-10.666 8.01m18.76-2.66h10.78s-1.195 4.091-7.076 6.691h-8.991c-.867-2.329 1.255-4.182 2.45-5.199 1.252-1.135 2.837-1.492 2.837-1.492M535.231 65.471s4.539-14.365 5.974-18.967c.717-2.506-.955-2.419-4.122-2.419s-5.467.687-9.856 8.003c-5.136 8.544 7.587 10.873 7.587 10.873l-.898 2.507h-14.695s-8.033.33-8.033-9.345c0-11.888 15.202-17.388 15.202-17.388h32.107l-8.541 26.733h-14.725zM76.792 24.731c.744-.027 1.522-.06 2.299-.06 16.725 0 31.062 16.217 32.137 24.46.12.868.18 1.645.24 2.303C111.258 28.912 76.164 0 47.969 0 26.223 0 16.07 8.781 12.723 18.697c-5.017 12.515 1.585 30.317 16.997 42.98 1.642 1.314 3.254 2.536 4.926 3.674-.717.06-1.492.06-2.269.06-16.727 0-31.065-16.217-32.14-24.46-.087-.868-.177-1.642-.237-2.3.207 22.518 35.304 51.431 63.499 51.431 21.743 0 31.899-8.808 35.244-18.697 5.019-12.485-1.582-30.284-16.995-42.98-1.645-1.315-3.257-2.54-4.956-3.674M45.397 62.127c-12.423-10.186-16.548-25.151-9.589-33.665 7.019-8.511 22.852-7.526 35.574 2.393 12.603 9.795 17.442 24.727 10.991 33.628 2.629-5.346-.298-13.38-7.229-18.846-7.436-5.854-16.785-6.452-20.906-1.402-4.152 5.046-1.673 13.947 5.616 20.008 5.644 4.692 12.483 6.332 17.382 4.632-8.271 4.392-21.323 1.883-31.839-6.748M330.061 82.129c-4.756-1.402-10.114 5.317-14.689 15.569-4.074 17.087-13.137 42.277-13.72 59.662-.267 7.715 6.857 9.976 11.693 11.684 15.317 5.401 24.272.117 28.835-5.401 3.278-3.959-.192-7.259-4.257-6.049-5.878 1.738-13.062 2.918-14.548-2.759-1.633-6.262 7.079-31.986 13.095-51.142 3.29-10.468 6.073-19.144-6.403-21.579ZM250.708 112.438c-10.366 1.075-30.966 6.559-30.966 33.208 0 1.252-3.758 30.086 33.428 26.742 37.198-3.341 43.457-26.742 43.457-26.742s9.201-30.927-13.371-30.086c-13.773.507-20.057 6.685-20.057 6.685s9.19 1.805 11.174 8.403c3.768 12.513 2.378 33.623-17.859 31.71-20.312-1.918-10.39-28.75-3.99-42.355 2.213-4.677 1.672-7.925-1.81-7.565Z" style="fill-opacity:1;fill:#fff" transform="scale(.44)"/><path d="M374.394 112.438c-10.369 1.075-30.968 6.559-30.968 33.208 0 1.252-3.756 30.086 33.427 26.742 37.198-3.341 43.46-26.742 43.46-26.742s9.199-30.927-13.371-30.086c-13.776.507-20.056 6.685-20.056 6.685s9.186 1.805 11.17 8.403c3.771 12.513 2.381 33.623-17.859 31.71-20.311-1.918-10.39-28.75-3.989-42.355 2.209-4.677 1.672-7.925-1.811-7.565ZM129.477 132.272c-1.666-33.016 43.938-47.831 60.176-49.083 16.247-1.264 33.43 2.282 33.43 2.282s-2.506 32.59-10.029 33.427c-7.514.838-5.848-24.652-20.06-23.398-26.021 2.291-36.462 30.657-36.772 40.113-.138 4.573 1.264 25.067 20.057 23.401 18.805-1.678 22.986-11.708 26.745-13.374 3.764-1.678 10.972-4.977 10.027 3.344-2.078 18.379-36.772 23.401-36.772 23.401s-44.628 2.465-46.799-40.11ZM437.035 169.05c-15.878.838-7.103-18.393-3.342-30.089 3.765-11.705 3.074-24.536 16.713-23.398 15.079 1.243 3.341 20.056 3.341 20.056s22.905-25.117 43.46-23.4c5.02.414-10.03 33.43-10.03 33.43s-3.758-12.119-13.371-10.03c-27.633 6.014-20.891 32.596-36.765 33.434Z" style="fill-opacity:1;fill:#fff" transform="scale(.44)"/></svg>