<svg xmlns="http://www.w3.org/2000/svg" viewBox="0 0 264 45"><path d="m25.334.029 59.108 102.367h80.219L105.553.029zM38 6.426h61.219l50.484 87.44H88.481zM46.467 54.903 0 102.396h73.888zm-2.486 13.373 17.241 27.723H16.888zM141.517 47.488 187.984-.001h-73.888zm2.486-13.366L126.761 6.398h44.331zM200.725 66.682c-.112-.152-.351 1.157-.716 3.916-.366 2.758-.571 4.812-.607 6.149.38 2.86 1.344 2.881 2.909 4.323 1.302.81 2.413.583 5.542.938 3.133.363 21.773.369 24.927.015 3.144-.347 5.775-.781 7.494-1.925 3.35-2.124 5.621-5.185 6.812-13.443.851-4.458 1.223-5.603 1.123-7.705-.127-2.817-1.546-4.709-4.262-5.66-2.715-.953-6.678-.492-11.083-.492h-8.699c-9.352 0-15.016.042-17.816 1.999-3.19 2.151-4.455 5.017-5.624 11.885m66.871-32.904h-13.243c.444-3.223.323-5.378.233-7.346-.091-2.005-.296-3.763-1.196-4.407-1.885-1.641-9.57-1.495-17.747-1.495h-7.648c-8.134 0-12.892-.048-15.363 1.801q-4.79 3.764-5.79 11.51l-2.154 8.877s1.435-2.176 4.658-2.523c5.657-.62 15.079-.043 18.619-.043 8.627.15 15.756-.363 20.392.402 4.637.779 9.685 1.786 12.098 4.431 2.133 2.21 3.299 5.603 3.51 10.172.142 3.015-.45 7.943-1.767 14.766-.737 3.293-1.595 6.265-2.58 8.902a28 28 0 0 1-4.063 7.357c-1.721 2.261-3.775 6.177-6.162 7.486-3.763 1.941-8.59 1.813-12.955 2.331-4.362.519-11.358 0-18.287 0-6.186 0-12.463.143-16.967-.396q-6.765-.814-11.146-3.946c-3.568-2.625-5.573-6.961-6.002-13.003-.021-3.122.323-6.668 1.033-10.656l7.382-39.134c1.402-8.569 3.997-15.249 10.168-19.231q5.15-3.24 12.499-4.285c4.903-.705 12.989-1.052 20.045-1.052h10.85c7.377 0 9.431.995 14.602 2.978s7.896 5.941 8.171 11.88c.085 1.733-.317 9.454-1.19 14.624M318.479 16.804c-8.703 0-16.629.4-19.547 1.197-2.852.802-4.64.732-5.927 2.792-1.28 2.063-2.096 4.223-2.446 6.491-.354 2.261-.671 5.303-.946 9.114.275 2.289 1 3.866 2.175 4.718 2.251 1.438 10.14 1.566 20.386 1.566 9.177 0 16.022-.193 19.61-1.764q2.281-.907 3.927-4.086c1.106-2.127 1.773-3.678 2.556-7.678.435-2.423.625-4.471.592-6.155-.052-2.142-.707-3.564-1.967-4.275-1.383-.766-3.504-1.279-6.352-1.536-2.858-.255-6.875-.384-12.061-.384m22.213 31.749c5.456 2.261 5.456 7.58 5.598 13.699.021.863.223 5.516-.058 7.131-.281 1.605-.19 2.845-.287 3.363-1.205 5.615-1.598 8.09-3.477 11.41-1.878 3.326-2.984 5.707-6.261 7.486-2.858 1.635-6.483 2.771-10.866 3.405-4.392.632-12.082.952-18.857.952h-8.754q-11.368 0-17.783-.83c-4.271-.555-6.79-2.547-9.303-4.87-2.372-2.09-4.622-7.166-5.012-12.057.127-2.282.529-3.448 1.197-7.748.882-3.973 1.09-7.175 1.788-9.307.698-2.124 2.09-4.629 3.625-6.583 1.525-1.947 3.784-3.377 6.461-4.919 1.646-.952 2.138-1.315.456-2.737-1.852-1.557-2.344-3.015-2.864-4.92-.269-.595-.408-6.396-.438-6.587.819-13.245 4.25-19.991 10.394-25.088 3.61-3.128 5.202-4.984 13.21-5.56 4.108-.336 15.375-.497 21.129-.497 7.938 0 15.656.17 18.942.513 2.888.423 5.392 1.049 7.531 1.867 2.142.824 1.921 2.224 3.552 4.208 1.432 1.828 2.19 4.727 2.284 8.694.06 2.737-.115 5.59-.535 8.566a36.4 36.4 0 0 1-2.302 8.606q-1.668 4.14-4.328 6.624c-2.223 2.445-1.912 4.16-4.857 5.133-.632.214-.97.065-.955-.036.006-.08.26-.132.77.082m-31.094 5.907c-5.594 0-11.315-.021-14.333.322-3.018.341-5.489.994-7.425 1.956q-2.667 1.212-4.292 4.394c-1.091 2.124-2.048 5.081-2.885 8.871-.71 4.394-.619 5.267-.752 6.546.269 2.331.752 3.704 2.498 4.479 1.752.775 4.271 2.128 7.739 2.277 2.646.287 9.551.433 16.484.433 7.198 0 12.84.504 16.746-.967 1.843-.819 3.875-1.047 5.044-3.149 1.176-2.101 1.683-4.273 2.577-8.326.71-3.1 1.048-5.529 1.006-7.293-.048-2.005-.604-5.666-1.683-6.713-.891-1.016-2.884-1.77-5.965-2.268-3.084-.503-8.467-.562-14.759-.562M385.488 95.999c-7.892 0-16.266-.506-20.905-1.513-4.637-1.011-8.005-2.784-10.126-5.319-2.615-2.973-2.132-7.218-2.498-13.025.154-4.647.734-9.304 1.471-13.682l4.779-25.366c1-5.438 2.414-10.357 4.25-14.763 1.831-4.401 4.413-8.072 7.733-10.998 1.903-1.856 4.398-3.321 7.488-4.41 3.084-1.08 6.603-1.791 10.542-2.123 3.933-.337 8.775-.507 14.508-.507 4.335 0 8.235.149 11.69.448q5.192.447 9.104 1.63c2.613.787 4.827 1.968 6.643 3.53q4.943 4.535 5.165 14.27.095 3.922-1.175 13.479l-4.875 25.477c-2.637 14.48-5.794 23.986-13.675 28.521q-4.797 2.686-11.56 3.518c-4.513.556-12.103.833-18.559.833m14.956-78.575q-9.026.002-12.914.341-3.882.33-6.69 1.453a12.3 12.3 0 0 0-3.873 2.542q-1.709 1.668-3.413 5.56c-1.13 2.603-2.124 3.976-2.969 8.367l-5.404 28.969c-.617 4.287-1.006 5.637-1.154 8.319.163 2.402.556 4.159 1.196 5.273.64 1.117 1.592 2.005 2.836 2.667q2.384 1.246 6.087 1.599 3.707.354 12.225.355c6.902 0 12.031-.215 15.408-.627 3.38-.417 5.938-1.379 7.684-2.871 3.223-2.927 5.081-7.305 6.981-16.426l4.996-26.708c.725-5.105 1.054-6.839 1-9.472-.085-3.647-.211-5.551-1.779-6.674-1.507-1.154-3.619-1.883-6.328-2.197-2.716-.315-7.338-.47-13.889-.47M467.819 95.999c-7.893 0-16.266-.506-20.906-1.513-4.636-1.011-8.004-2.784-10.125-5.319-2.616-2.973-2.132-7.218-2.498-13.025.157-4.647.731-9.304 1.471-13.682l4.779-25.366c1-5.438 2.413-10.357 4.25-14.763 1.83-4.401 4.413-8.072 7.736-10.998 1.9-1.856 4.398-3.321 7.485-4.41 3.084-1.08 6.6-1.791 10.542-2.123 3.933-.337 8.775-.507 14.508-.507q6.504 0 11.69.448c3.462.299 6.494.84 9.107 1.63 2.61.787 4.824 1.968 6.639 3.53q4.943 4.535 5.169 14.27.093 3.922-1.178 13.479l-4.876 25.477c-2.637 14.48-5.79 23.986-13.671 28.521-3.205 1.791-7.05 2.963-11.563 3.518-4.513.556-12.104.833-18.559.833m14.955-78.575c-6.017 0-10.324.116-12.913.341q-3.884.33-6.694 1.453a12.3 12.3 0 0 0-3.869 2.542q-1.71 1.668-3.413 5.56c-1.13 2.603-2.124 3.976-2.97 8.367l-5.404 28.969c-.619 4.287-1.006 5.637-1.154 8.319.164 2.402.556 4.159 1.197 5.273.64 1.117 1.592 2.005 2.836 2.667q2.382 1.246 6.087 1.599 3.706.354 12.224.355c6.902 0 12.031-.215 15.408-.627 3.378-.417 5.939-1.379 7.685-2.871 3.223-2.927 5.081-7.305 6.981-16.426l4.996-26.708c.725-5.105 1.054-6.839 1-9.472-.085-3.647-.212-5.551-1.779-6.674-1.508-1.154-3.619-1.883-6.329-2.197-2.715-.315-7.337-.47-13.889-.47M550.15 95.999c-7.893 0-16.269-.506-20.906-1.513-4.637-1.011-8.008-2.784-10.125-5.319-2.616-2.973-2.133-7.218-2.498-13.025.154-4.647.731-9.304 1.471-13.682l4.778-25.366c1-5.438 2.414-10.357 4.25-14.763 1.831-4.401 4.411-8.072 7.733-10.998 1.9-1.856 4.398-3.321 7.488-4.41 3.081-1.08 6.601-1.791 10.539-2.123q5.905-.506 14.512-.507 6.502 0 11.686.448c3.465.299 6.495.84 9.108 1.63 2.61.787 4.827 1.968 6.642 3.53q4.941 4.535 5.165 14.27c.064 2.615-.332 7.107-1.175 13.479l-4.875 25.477c-2.64 14.48-5.793 23.986-13.674 28.521-3.202 1.791-7.051 2.963-11.563 3.518-4.51.556-12.101.833-18.556.833m14.955-78.575c-6.017 0-10.325.116-12.913.341q-3.883.33-6.691 1.453a12.3 12.3 0 0 0-3.872 2.542q-1.71 1.668-3.414 5.56c-1.129 2.603-2.123 3.976-2.969 8.367l-5.404 28.969c-.619 4.287-1.006 5.637-1.154 8.319.163 2.402.556 4.159 1.196 5.273.641 1.117 1.592 2.005 2.837 2.667 1.589.83 3.615 1.365 6.086 1.599 2.468.235 6.546.355 12.222.355 6.905 0 12.034-.215 15.411-.627 3.38-.417 5.939-1.379 7.685-2.871 3.223-2.927 5.08-7.305 6.98-16.426l4.997-26.708c.724-5.105 1.054-6.839.999-9.472-.084-3.647-.211-5.551-1.779-6.674-1.507-1.154-3.619-1.883-6.328-2.197-2.716-.315-7.34-.47-13.889-.47" style="fill:#fff" transform="scale(.44 .43947)"/></svg>