<svg xmlns="http://www.w3.org/2000/svg" viewBox="0 0 264 82"><path d="M47.438 3.605v3.606h8.765V0h-8.765zM209.344 3.605v3.606h8.765V0h-8.765zM152.109 18.8v18.285h8.766V.515h-8.766zM0 17.512v8.757l18.202.103c17.737.154 18.15.154 18.15 1.184s-.413 1.03-18.15 1.185L0 28.844v7.726h45.375V19.058H9.281v-2.576h36.094V8.757H0zM47.438 22.663V36.57h8.765V8.757h-8.765zM58.266 22.663V36.57h9.281V16.482h26.812V36.57h9.282V8.757H58.266zM105.188 22.663V36.57h44.859v-7.726h-36.094V16.482h36.094V8.757h-44.859zM162.938 12.619v3.863l17.685.103c17.222.155 17.635.155 17.635 1.185s-.413 1.03-17.635 1.185l-17.685.103V36.57h44.859V8.757h-44.859zm35.32 14.937c0 .979-.413 1.03-13.252 1.185-12.633.103-13.303.051-13.303-.824 0-.515.155-1.134.361-1.34.206-.153 6.136-.257 13.252-.205 12.529.154 12.942.205 12.942 1.184M209.344 22.663V36.57h8.765V8.757h-8.765zM219.656 22.663V36.57h9.282l.103-9.941.154-9.889 17.428-.155L264 16.482V8.757h-44.344zM79.406 46.356v3.091h8.766c4.847 0 8.766.155 8.766.36 0 .258-4.435 5.82-9.797 12.413l-9.797 12.002v7.16h30.937V75.2l-10.828-.103-10.88-.155 10.622-13.031 10.622-12.98-.154-2.729-.155-2.679-14.025-.154-14.077-.103zM111.323 44.244c.31.567 2.888 4.585 5.724 8.911 2.887 4.327 5.105 8.241 5.001 8.654-.103.411-2.887 4.892-6.187 9.941-3.352 5.047-6.033 9.271-6.033 9.374 0 .155 2.011.258 4.538.258h4.486l4.228-6.542 4.176-6.541 4.228 6.541 4.229 6.542h4.64c3.558 0 4.486-.155 4.228-.619-.206-.36-3.145-4.79-6.497-9.786L132 61.861l5.93-9.17 5.878-9.168-3.919-.154c-2.166-.103-4.228-.052-4.537.103-.361.103-2.218 2.781-4.125 5.923s-3.61 5.718-3.816 5.718c-.155 0-1.959-2.627-3.919-5.821l-3.609-5.769-4.538-.154c-4.382-.154-4.537-.103-4.022.875M153.605 44.708c-5.93 3.091-6.91 10.765-1.857 14.783l1.805 1.442-1.598 1.081c-4.899 3.297-5.878 10.714-2.063 15.71 1.96 2.576 6.188 4.327 10.416 4.275 4.331 0 7.322-1.184 9.539-3.76 3.97-4.635 3.867-11.383-.206-15.091-1.135-1.031-2.321-1.855-2.682-1.855-.309 0 .361-.875 1.496-1.957 2.372-2.163 3.454-5.099 2.939-7.88-1.031-5.408-4.899-8.19-11.499-8.19-2.887 0-4.073.257-6.29 1.442m9.59 5.511c.877.824 1.289 1.803 1.289 3.04 0 2.472-.412 3.347-2.114 4.171-2.062 1.082-3.815.927-5.465-.463-1.135-.979-1.444-1.648-1.444-3.4 0-1.751.309-2.42 1.444-3.399 1.959-1.648 4.64-1.648 6.29.051m-.773 14.423c3.558 1.854 4.125 7.417 1.083 10.147-4.95 4.429-11.344-2.37-7.786-8.242 1.598-2.575 4.022-3.296 6.703-1.905M178.922 62.324v19.058h7.734V43.266h-7.734z" style="fill:#fff"/></svg>