<svg xmlns="http://www.w3.org/2000/svg" width="158" height="56" viewBox="53 0 158 56"><path d="M70.153 26.237v.162q10.33.204 15.254 4.368 4.925 4.165 4.925 10.066.002 6.593-5.605 10.874C80.995 54.569 76.022 56 69.824 56c-5.357 0-9.497-1.142-12.428-3.416S53 47.723 53 44.809c0-1.932.657-3.499 1.97-4.683s2.891-1.771 4.725-1.771c1.721 0 3.203.52 4.428 1.549 1.233 1.04 1.841 2.411 1.841 4.106 0 2.265-1.425 4.163-4.284 5.697-.56.297-.848.638-.848 1.013 0 .698.8 1.311 2.41 1.839a15.6 15.6 0 0 0 4.916.784q8.255 0 8.257-12.902-.002-12.773-9.914-12.773l-5.485.238c-1.106 0-1.667-.434-1.667-1.302 0-.997.585-1.5 1.747-1.5l3.996.162c4.075 0 6.806-.962 8.191-2.896 1.394-1.923 2.082-4.666 2.082-8.226 0-3.662-.52-6.361-1.569-8.081-1.049-1.73-2.851-2.589-5.398-2.589-1.384 0-2.69.248-3.907.749-1.217.496-1.833.98-1.833 1.466q0 .676 1.201 1.405c2.098 1.422 3.155 2.962 3.155 4.624 0 1.634-.585 2.929-1.762 3.9q-1.764 1.446-3.973 1.448c-1.697 0-3.21-.554-4.54-1.653-1.329-1.107-2.002-2.469-2.002-4.112q0-4.193 4.445-7.247C62.144 2.009 65.94.988 70.585.988c5.133 0 9.457 1.158 12.981 3.465 3.531 2.308 5.292 5.263 5.292 8.883 0 7.119-6.238 11.419-18.705 12.901M103.016 52.354V3.389h-7.223V.742h28.94c8.368 0 14.998 2.519 19.875 7.569 4.877 5.041 7.319 11.411 7.319 19.101 0 3.985-.745 7.74-2.233 11.24q-2.235 5.266-6.872 9.573-4.637 4.304-9.513 5.543c-3.251.826-7.239 1.236-11.979 1.236H95.793v-2.65Zm13.926-48.965v48.965h4.507c6.895 0 11.059-1.924 12.492-5.764 1.434-3.85 2.147-10.424 2.147-19.731 0-7.281-.441-12.519-1.321-15.694-.873-3.185-2.21-5.281-3.997-6.276-1.785-.998-4.059-1.5-6.806-1.5zM160.007 27.668c0-8.116 2.514-14.757 7.559-19.927C172.603 2.581 178.649 0 185.695 0q9.815 0 17.561 7.28C208.422 12.135 211 19.041 211 27.991c0 8.388-2.434 15.115-7.319 20.174q-7.326 7.587-17.897 7.588c-7.615 0-13.821-2.692-18.601-8.057q-7.174-8.047-7.176-20.028m35.154.229q0-12.467-.481-16.426c-.328-2.649-1.161-4.778-2.506-6.397-1.346-1.617-3.564-2.426-6.646-2.426q-3.904.001-6.223 1.959c-1.544 1.311-2.505 3.406-2.891 6.293-.376 2.887-.568 8.523-.568 16.912 0 8.303.159 13.804.489 16.487.32 2.682 1.185 4.82 2.586 6.413q2.103 2.385 6.607 2.383c2.49 0 4.524-.638 6.093-1.915 1.57-1.287 2.555-3.365 2.948-6.251.4-2.887.592-8.567.592-17.032" style="fill-opacity:1;fill-rule:nonzero;stroke:none;fill:#fff"/></svg>