<svg xmlns="http://www.w3.org/2000/svg" viewBox="0 0 264 57"><path d="M219.088 5.592c4.999-6.396 15.347-7.489 21.481-2.123 2.508 2.112 4.266 5.027 5.164 8.165 11.357 39.074 22.763 78.129 34.103 117.211-6.701.007-13.406-.012-20.107.007-3.161-10.774-6.247-21.566-9.368-32.35-12.961-.026-25.914-.006-38.873-.012a6181 6181 0 0 0-9.421 32.366c-6.665-.022-13.331-.004-19.997-.011a86142 86142 0 0 1 32.431-111.814c1.291-3.901 1.778-8.258 4.582-11.443m11.833 23.945c-4.752 16.187-9.408 32.405-14.133 48.601 9.419.045 18.834.017 28.249.017-4.71-16.207-9.398-32.412-14.118-48.618ZM360.271 6.433c3.493-5.066 10.245-7.524 16.188-5.959 5.442 1.253 9.604 5.942 11.043 11.222 11.344 39.046 22.729 78.078 34.072 117.127-6.712.052-13.419 0-20.13.027-3.121-10.783-6.207-21.577-9.35-32.36-12.938.006-25.873-.022-38.811.01-3.092 10.79-6.281 21.556-9.372 32.346-6.66.007-13.315-.006-19.975.007 10.782-37.48 21.692-74.928 32.563-112.386 1.132-3.39 1.577-7.118 3.767-10.041m-1.63 71.722c9.381.012 18.756.006 28.135.006-4.666-16.241-9.408-32.459-14.059-48.699-4.688 16.233-9.419 32.451-14.076 48.693M264.84.278h72.728v19.614c-8.928.007-17.849-.01-26.772.007 0 36.314.007 72.63-.005 108.945h-19.179c0-36.312-.006-72.628.005-108.945-8.928-.017-17.85 0-26.777-.007 0-6.544-.011-13.077 0-19.619ZM442.895 1.076c1.842-.637 3.808-.854 5.754-.809 7.644.027 15.288.007 22.931.011 12.873.238 25.16 8.224 30.731 19.811 3.858 7.524 4.255 16.274 3.283 24.528-.671 8.64-4.295 17.281-10.937 23.009-3.507 3.125-7.877 5.02-11.633 7.805-2.062 1.568-2.167 4.62-1.1 6.803 10.145 15.662 20.692 31.08 31.051 46.608-7.576.013-15.152-.017-22.728.013-9.917-14.895-19.731-29.865-29.608-44.782-2.903-4.246-3.693-9.868-1.953-14.713 1.356-3.717 4.604-6.435 8.221-7.838 6.906-2.635 13.714-6.773 17.539-13.292 2.909-4.897 2.758-10.939 1.45-16.298-1.535-6.958-8.313-12.431-15.477-12.192-4.955.033-9.906-.022-14.853.022-2.24-.052-4.347 1.895-4.318 4.164-.023 34.975.011 69.952-.011 104.925-6.442-.013-12.878 0-19.32-.007-.012-37.651.012-75.305-.012-112.957 0-6.593 4.688-12.803 10.953-14.806ZM523.097.278h20.33c-.006 42.859.013 85.711-.012 128.567-6.769-.019-13.543 0-20.318-.006V.282ZM57.334.015c3.255-.01 6.512 0 9.767-.008.014 7.656 0 15.313.005 22.967.034 6.391-.147 12.781-.411 19.163-.436 9.22-1.013 18.457-2.54 27.571-1.049 6.283-3.222 12.343-5.919 18.096-4.398 9.271-11.309 17.115-19.078 23.713-6.951 6.116-15.246 10.569-23.971 13.583-4.936 1.699-10.015 3.01-15.187 3.739.005-6.42.005-12.845 0-19.265 6.226-.934 12.211-3.144 17.771-6.064 6.596-3.488 12.535-8.18 17.532-13.709 5.162-5.71 9.275-12.32 12.398-19.339 3.676-8.07 5.644-16.786 6.981-25.516 1.677-11.093 2.375-22.318 2.635-33.532.037-3.792.005-7.594.017-11.391ZM71.032.028C77.024-.011 83.021.022 89.015.011q.003 64.412 0 128.832c-5.98.013-11.962-.028-17.942.023-.076-13.693-.011-27.389-.032-41.081-.007-29.252.012-58.501-.009-87.752ZM93.016.011c3.238-.002 6.475-.008 9.711.002-.105 13.093.341 26.211 1.902 39.219 1.277 10.104 3.079 20.282 7.102 29.696 3.816 9.107 9.315 17.573 16.481 24.396 6.843 6.526 15.136 11.543 24.146 14.431 2.514.804 5.085 1.434 7.698 1.815-.003 6.418-.006 12.836 0 19.252-5.135-.696-10.17-2.019-15.07-3.685-5.836-2.03-11.48-4.659-16.664-8.031-3.785-2.435-7.226-5.348-10.533-8.386-5.449-5.025-10.327-10.738-13.99-17.204-2.866-5.036-4.956-10.478-6.593-16.029-1.501-5.579-2.141-11.342-2.723-17.076-1.127-12.393-1.548-24.847-1.467-37.286.006-7.037.004-14.078.006-21.114Z" style="fill:#fff" transform="scale(.44 .44232)"/><path d="M57.334.015c-.011 3.798.021 7.599-.017 11.399-.26 11.214-.957 22.438-2.635 33.532-1.337 8.73-3.306 17.446-6.981 25.516-3.123 7.022-7.236 13.63-12.398 19.339-4.997 5.532-10.936 10.221-17.532 13.709-5.56 2.923-11.545 5.131-17.771 6.064.005 6.42.005 12.845 0 19.265 5.172-.729 10.251-2.04 15.187-3.739 8.725-3.014 17.02-7.467 23.971-13.583 7.769-6.598 14.68-14.442 19.078-23.713 2.696-5.753 4.87-11.813 5.919-18.096 1.527-9.113 2.105-18.351 2.54-27.571.264-6.382.445-12.772.411-19.163-.005-7.661.009-15.318-.005-22.974-3.256.008-6.512-.003-9.767.008M71.032.028c.021 29.254.002 58.5.01 87.754.022 13.693-.044 27.389.032 41.08 5.98-.054 11.961-.012 17.942-.022q.003-64.41 0-128.832c-5.995.015-11.992-.019-17.984.021M93.016.011c-.002 7.036 0 14.077 0 21.113-.081 12.44.34 24.893 1.467 37.286.582 5.734 1.222 11.496 2.723 17.076 1.637 5.55 3.727 10.993 6.593 16.028 3.662 6.466 8.541 12.18 13.99 17.205 3.307 3.038 6.748 5.951 10.533 8.384 5.184 3.374 10.828 6.003 16.664 8.033 4.9 1.666 9.935 2.989 15.07 3.685-.006-6.417-.003-12.834 0-19.252-2.614-.38-5.184-1.011-7.698-1.815-9.01-2.889-17.304-7.905-24.146-14.431-7.166-6.823-12.665-15.288-16.481-24.396-4.023-9.414-5.825-19.592-7.102-29.698-1.561-13.006-2.007-26.124-1.902-39.217-3.254-.002-6.492.004-9.73.007M595.011 105.104h4.194v23.758l-19.758-16.1c-1.853-1.514-4.148-3.271-6.588-3.271-3.854 0-7.024 3.418-7.024 7.221 0 3.758 3.022 6.831 6.729 7.076v4.586c-6.538-.731-10.927-4.977-10.927-11.662 0-6.243 4.635-11.612 11.026-11.612 2.733 0 5.465 1.026 7.563 2.731l14.784 12.101-.011-14.824ZM563.885 84.073l13.27 9.807.1-.097c-.538-1.076-.878-2.293-.878-3.612 0-6.048 5.611-10.635 11.515-10.635 6.731 0 12.1 5.465 12.1 12.149 0 6.341-5.27 12.247-11.756 12.247-3.711 0-6.831-1.854-9.712-3.999l-16.879-12.542 2.243-3.318Zm24.49-.147c-4.587 0-7.905 3.903-7.905 7.805 0 4.002 3.66 7.808 7.659 7.808 4.247 0 7.759-3.609 7.759-7.808 0-4.099-3.407-7.805-7.514-7.805ZM561.641 59.545c0 10.536 8.639 19.106 19.257 19.106 10.534 0 19.102-8.57 19.102-19.106 0-10.839-8.424-19.334-19.178-19.334-10.764 0-19.188 8.495-19.188 19.334Zm19.262-14.817c8.313 0 14.82 6.613 14.82 15.053 0 7.915-6.647 14.354-14.82 14.354-8.256 0-14.972-6.439-14.972-14.354 0-8.583 6.435-15.053 14.975-15.053ZM561.641 19.374c0 10.533 8.639 19.104 19.257 19.104 10.534 0 19.102-8.571 19.102-19.104C600 8.532 591.576.038 580.822.038c-10.764 0-19.188 8.494-19.188 19.336Zm19.262-14.819c8.313 0 14.82 6.61 14.82 15.052 0 7.916-6.647 14.355-14.82 14.355-8.256 0-14.972-6.439-14.972-14.355 0-8.581 6.435-15.052 14.975-15.052Z" style="fill:#fff" transform="scale(.44 .44232)"/></svg>