<svg xmlns="http://www.w3.org/2000/svg" viewBox="0 0 264 35"><path d="m207.83 25.969-24.648 8.914h24.805l9.437-5.193zM184.813.242h29.28l38.991 19.712h-15.293l-10.748-4.928-6.631 2.689zM239.346 9.273 264 .363h-24.805l-9.432 5.19z" style="fill:#fff"/><path d="M262.372 35h-29.284l-38.991-19.712h15.293l10.748 4.928 6.63-2.689zM0 .004h19.409v23.654H0zM0 26.554h49.736v7.242H0zM31.539.004h23.052l15.772 13.272-11.4 8.341zM60.657 22.931v10.863h18.196V22.931L114.031.004H97.049L61.871 22.931zM116.461 3.622l19.407 12.069v18.103h-19.407zM118.886.004l49.739 33.79h10.916V0h-9.462v23.766L134.657.004z" style="fill:#fff"/></svg>