<?xml version="1.0" encoding="utf-8"?>
<!-- Generator: Adobe Illustrator 18.0.0, SVG Export Plug-In . SVG Version: 6.00 Build 0)  -->
<!DOCTYPE svg PUBLIC "-//W3C//DTD SVG 1.1//EN" "http://www.w3.org/Graphics/SVG/1.1/DTD/svg11.dtd">
<svg version="1.1" id="allgames" xmlns="http://www.w3.org/2000/svg" xmlns:xlink="http://www.w3.org/1999/xlink" x="0px" y="0px"
	 width="597.3px" height="128px" viewBox="0 0 597.3 128" enable-background="new 0 0 597.3 128" xml:space="preserve">
<g enable-background="new    ">
	<path fill="#FFFFFF" d="M54.9,92.8c-0.9-6.1-1.7-12.3-2.6-18.4c-0.4-3.3-0.9-6.5-1.5-9.7c-0.1-0.9-0.3-1.8-0.3-2.8
		c-0.1-3.6,2.8-6.6,6.4-6.8H111c3.1,0,5.6,1.9,6.5,4.8c0.3,1.2,0.3,2.4,0.1,3.6c-0.5,3-0.9,6.1-1.3,9.2c-0.4,3-0.9,6.1-1.4,9.1
		c-0.3,2.9-0.8,5.8-1.2,8.7c-0.5,4.4-0.9,8.3-6.1,9.3c-0.3,0.1-0.8,0.1-1.1,0.1c-14.9,0-29.8,0-44.5,0c-3.1,0-5.5-1.6-6.6-4.4
		C55.1,94.7,55.1,93.7,54.9,92.8z M62.9,41.6h42.5c1.7,0,3.1,0.9,3.4,2.6c0.5,2-0.9,4-3.1,4.1H63.1c-1.6,0-2.9-0.9-3.3-2.3
		C59.1,43.8,60.6,41.7,62.9,41.6z M81.4,62c-8.3,0.4-18.8,5.6-19.5,14.9c-0.2,3.2,0.9,5.8,2.8,8.3c2.7,3.3,6.2,5.3,10.2,6.5
		c4,1.3,8,1.7,12.2,1.3c6-0.3,13.2-3.2,16.9-8.2c1.7-2.1,2.7-4.6,2.8-7.2c0-2.3-0.7-4.5-2-6.4c-4.1-6.7-13-9.3-20.5-9.5
		C83.4,61.8,82.3,61.9,81.4,62z M69.5,28.2h29.2c1.8,0,3.2,1.2,3.4,2.8c0.3,2-1.3,3.8-3.4,3.9H69.8c-1.8,0-3-1.1-3.4-2.8
		C66.1,30.1,67.4,28.2,69.5,28.2z M80,80.2c-1.8-1.5-1.8-3.8,0-5.2c1.3-0.9,2.8-1.3,4.2-1.3c1.6,0,3.2,0.4,4.5,1.5
		c1.7,1.5,1.5,3.8-0.3,5.2c-1.3,0.8-2.7,1.1-4.3,1.1C82.7,81.4,81.3,81.1,80,80.2z"/>
	<path fill="#FFFFFF" d="M139.9,93.7c-1.7,0-4.8-0.1-4.8-2.5c0-1.2,0.6-2.2,0.9-3.4l17.7-50.6c1.3-3.8,5.1-4.1,8.6-4.1h7.4
		c3.2,0,7.2,0.3,7.7,4.1l7.1,50.6c0.1,0.9,0.3,1.7,0.3,2.6c0,4.6-8.2,3.3-10.8,3.3c-2.4,0-5.5-0.3-5.8-3.3l-0.6-7.3h-13.9l-2.2,7.3
		c-0.9,3-3.5,3.3-6.3,3.3H139.9z M157.8,70.1h8.9l-1.4-16.8c-0.2-1.9-0.4-3.7-0.5-5.6h-0.3c-0.4,1.9-1.1,3.7-1.6,5.6L157.8,70.1z"/>
	<path fill="#FFFFFF" d="M197,93.6c-2.3,0-4.6-0.3-4.6-3.2v-0.5l5.6-53c0.4-4.2,6.1-3.7,9.1-3.7c2.3,0,6.5,0.3,6.5,3.4V37l-4.3,41.9
		h13.6c2.4,0,3,1.6,3,3.8c0,1.9-0.3,3.9-0.5,5.8c-0.3,2.5-0.9,5.2-4,5.2H197z"/>
	<path fill="#FFFFFF" d="M236.4,93.6c-2.3,0-4.6-0.3-4.6-3.2v-0.5l5.6-53c0.4-4.2,6.1-3.7,9.1-3.7c2.3,0,6.5,0.3,6.5,3.4V37
		l-4.3,41.9h13.6c2.4,0,3,1.6,3,3.8c0,1.9-0.3,3.9-0.5,5.8c-0.3,2.5-0.9,5.2-4,5.2H236.4z"/>
	<path fill="#FFFFFF" d="M287.6,69.4c0-21.1,8.7-36.7,31.6-36.7c3.4,0,15.4,0.8,15.4,5.5c0,2.2-3.3,10.9-5.8,10.9
		c-2.5,0-6.3-1.7-10.2-1.7c-11.7,0-14.2,10.9-14.2,20.5c0,7.8,1.5,12.2,10.2,12.2c1.6,0,3.1-0.2,4.5-0.4l0.9-8.8
		c-3.8,0-6.9,1-6.9-3.8c0-1.7,0.3-3.5,0.5-5.3c0.3-2.4,1.3-4.3,4-4.3h13.3c2.1,0,4.5,0.3,4.5,2.9v0.5l-2.5,24.6
		c-0.1,1.1-0.3,2.2-1.1,3c-4,4-14.4,5.8-19.9,5.8C295.5,94.3,287.6,85.5,287.6,69.4z"/>
	<path fill="#FFFFFF" d="M342.4,93.7c-1.7,0-4.8-0.1-4.8-2.5c0-1.2,0.6-2.2,0.9-3.4l17.7-50.6c1.3-3.8,5.1-4.1,8.6-4.1h7.4
		c3.2,0,7.2,0.3,7.7,4.1l7.1,50.6c0.1,0.9,0.3,1.7,0.3,2.6c0,4.6-8.2,3.3-10.8,3.3c-2.4,0-5.5-0.3-5.8-3.3l-0.6-7.3h-13.9l-2.2,7.3
		c-0.9,3-3.5,3.3-6.3,3.3H342.4z M360.4,70.1h8.9l-1.4-16.8c-0.2-1.9-0.4-3.7-0.5-5.6H367c-0.4,1.9-1.1,3.7-1.6,5.6L360.4,70.1z"/>
	<path fill="#FFFFFF" d="M395.7,90.3V90l5.6-53.1c0.4-4.5,7.1-3.7,10.2-3.7c3.5,0,5.8,0.3,7.2,4l7.3,19.1c0.5,1.4,1,2.8,1.5,4.3
		c4-8,9-15.7,13.6-23.4c2.7-4.6,6.6-4,11.4-4c2.3,0,6.5,0.3,6.5,3.4V37L453.4,90c-0.4,4-5.8,3.7-8.8,3.7c-2.3,0-6.5-0.3-6.5-3.4V90
		l2.2-21.1c0.3-2.2,0.6-4.6,1.2-6.6l-0.3-0.1c-2.8,5.1-5.9,9.8-9,14.7c-2.1,3.2-4,2.9-7.5,2.9c-2.3,0-4-0.7-5-2.9
		c-2.1-4.9-4.1-9.7-5.9-14.7l-0.3,0.1c0,0.4,0.1,0.9,0.1,1.4c0,1.7-0.2,3.5-0.3,5.2L410.9,90c-0.4,4-5.8,3.7-8.8,3.7
		C399.8,93.7,395.7,93.5,395.7,90.3z"/>
	<path fill="#FFFFFF" d="M468.2,93.6c-2.3,0-4.6-0.3-4.6-3.2v-0.5l5.6-52.8c0.3-3.1,1.7-3.7,4.6-3.7h28.7c2.4,0,3,1.6,3,3.8
		c0,1.9-0.3,3.9-0.5,5.8c-0.3,2.5-0.9,5.2-4,5.2h-17.5l-0.7,7.3h15.3c2.4,0,3,1.6,3,3.8c0,1.9-0.3,3.9-0.5,5.8
		c-0.3,2.5-0.9,5.2-4,5.2h-15.4l-0.9,8.8h17.4c2.4,0,3,1.6,3,3.8c0,1.9-0.3,3.9-0.5,5.8c-0.3,2.5-0.9,5.2-4,5.2H468.2z"/>
	<path fill="#FFFFFF" d="M509.4,91c-1.3-0.7-3.5-1.9-3.5-3.5c0-2.4,3.1-9.8,5.9-9.8c2.1,0,7.8,3.5,13.3,3.5c2.9,0,5.8-0.9,5.8-4.3
		c0-7.6-20.5-7.4-20.5-24.6c0-13.2,10.1-19.6,22.4-19.6c2.8,0,15.1,1.6,15.1,5.5c0,2.3-3.4,9.6-6,9.6c-2.4,0-6.4-2.2-10.5-2.2
		c-2.6,0-5.5,0.5-5.5,3.7c0,7,20.6,7.3,20.6,24.4c0,13.2-9.8,20.5-22.4,20.5C519.3,94.3,513.9,93.4,509.4,91z"/>
</g>
<text transform="matrix(1 0 0 1 45.426 93.5751)" display="none" fill="#FFFFFF" enable-background="new    " font-family="'AsapSemiCondensed-BlackItalic'" font-size="86">★ FAVORITES</text>
<text transform="matrix(1 0 0 1 4.9641 93.5751)" display="none" fill="#FFFFFF" enable-background="new    " font-family="'AsapSemiCondensed-BlackItalic'" font-size="86">⟲ LAST PLAYED</text>
</svg>
