<svg xmlns="http://www.w3.org/2000/svg" viewBox="0 0 264 38"><path d="M24.835 10.837h15.891l-6.957 7.231h-8.934zM24.82 27.165h15.891l-6.957-7.231H24.82zM24.49.746v9.11c-1.625-1.002-3.431-1.497-5.421-1.497-1.899 0-3.662.474-5.286 1.431a10.3 10.3 0 0 0-3.838 3.893 10.5 10.5 0 0 0-1.402 5.276c0 1.897.469 3.648 1.402 5.266a10.4 10.4 0 0 0 3.85 3.841 10.36 10.36 0 0 0 5.274 1.42q2.959-.002 5.42-1.43v9.151a18.7 18.7 0 0 1-5.42.793c-3.4 0-6.574-.854-9.513-2.564a19.1 19.1 0 0 1-6.984-6.964Q0 24.078 0 18.96q0-3.792 1.491-7.301a19 19 0 0 1 4.148-6.132 19.2 19.2 0 0 1 6.079-4.073Q15.149 0 19.069 0c1.805 0 3.612.254 5.421.746M66.789 20.363c-.08 2.26-.363 3.232-1.251 4.118-1.291 1.309-2.948 1.654-8.281 1.654-4.152 0-5.899-.287-7.243-1.258-1.319-.912-1.748-2.371-1.748-5.94 0-3.253.401-4.683 1.602-5.65 1.288-1.056 3.066-1.368 7.645-1.368 4.493 0 6.47.34 7.763 1.396 1.09.855 1.453 1.915 1.534 4.452h-5.146c-.172-1.538-1.171-2.055-4.151-2.055-3.522 0-4.179.541-4.179 3.367 0 1.772.287 2.456 1.204 2.829.6.258 1.688.399 3.032.399 2.978 0 3.837-.399 4.066-1.943zM85.281 13.172c1.373.998 1.756 2.224 1.756 5.622 0 3.712-.344 4.971-1.575 5.996-1.291 1.058-2.987 1.346-7.993 1.346-5.067 0-6.763-.288-8.035-1.346-1.272-1.025-1.595-2.283-1.595-6.197 0-3.165.404-4.45 1.756-5.421 1.252-.913 3.229-1.229 7.853-1.229s6.581.315 7.833 1.229m-12.375 5.967c0 1.797.242 2.396 1.15 2.769.626.284 1.776.427 3.412.427 3.836 0 4.502-.487 4.502-3.343 0-1.826-.304-2.481-1.232-2.85-.645-.257-1.838-.402-3.27-.402-3.875 0-4.562.513-4.562 3.399M92.83 12.288v2.025h.264c.746-1.624 2.463-2.37 5.47-2.37 3.271 0 5.067.829 6.158 2.829.868-2.028 2.523-2.829 5.834-2.829 2.805 0 4.481.516 5.651 1.741 1.171 1.199 1.434 2.313 1.434 5.791v6.315h-5.068v-6.315c-.04-2.25-.101-2.505-.586-2.993-.504-.513-1.372-.742-2.845-.742-1.534 0-2.483.257-3.008.858-.586.627-.747 1.426-.747 3.622v5.57h-5.068v-6.315c0-2.107-.06-2.48-.543-2.993-.465-.513-1.353-.742-2.808-.742-1.534 0-2.523.257-3.087.827-.585.571-.747 1.428-.747 3.653v5.57h-5.067V12.288zM123.596 12.288v2.025h.242c.747-1.624 2.462-2.37 5.47-2.37 3.272 0 5.068.829 6.159 2.829.868-2.028 2.523-2.829 5.853-2.829 2.806 0 4.461.516 5.632 1.741 1.17 1.199 1.433 2.313 1.433 5.791v6.315h-5.066v-6.315c-.02-2.25-.082-2.505-.565-2.993-.526-.513-1.374-.742-2.868-.742-1.513 0-2.462.257-3.008.858-.584.627-.745 1.426-.745 3.622v5.57h-5.068v-6.315c0-2.107-.061-2.48-.545-2.993-.465-.513-1.352-.742-2.806-.742-1.514 0-2.524.257-3.089.827-.585.571-.746 1.428-.746 3.653v5.57h-5.067V12.288zM166.919 13.172c1.371.998 1.735 2.224 1.735 5.622 0 3.712-.343 4.971-1.573 5.996-1.293 1.058-2.968 1.346-7.995 1.346-5.067 0-6.742-.288-8.034-1.346-1.252-1.025-1.576-2.283-1.576-6.197 0-3.165.404-4.45 1.757-5.421 1.251-.913 3.23-1.229 7.832-1.229 4.644 0 6.582.315 7.854 1.229m-12.375 5.967c0 1.797.221 2.396 1.149 2.769.627.284 1.777.427 3.392.427 3.855 0 4.501-.487 4.501-3.343 0-1.826-.282-2.481-1.231-2.85-.626-.257-1.837-.402-3.27-.402-3.856 0-4.541.513-4.541 3.399M188.862 25.79h-4.765v-1.771h-.263c-.968 1.628-2.32 2.116-5.994 2.116-3.656 0-5.41-.373-6.582-1.428-1.112-1.029-1.453-2.402-1.453-5.77 0-3.427.544-5.051 1.977-5.991 1.232-.803 2.625-1.027 6.117-1.027 3.552 0 4.723.455 5.693 2.169h.202V6.749h5.066V25.79zm-13.991-6.909c0 2.966.565 3.424 4.382 3.424 1.857 0 3.229-.227 3.815-.627.565-.374.766-1.09.766-2.658 0-2.791-.666-3.308-4.279-3.308-3.996 0-4.684.458-4.684 3.169M207.212 13.172c1.372.998 1.756 2.224 1.756 5.622 0 3.712-.343 4.971-1.575 5.996-1.293 1.058-2.987 1.346-7.994 1.346-5.067 0-6.743-.288-8.036-1.346-1.27-1.025-1.573-2.283-1.573-6.197 0-3.165.404-4.45 1.736-5.421 1.272-.913 3.251-1.229 7.854-1.229 4.643 0 6.58.315 7.832 1.229m-12.356 5.967c0 1.797.223 2.396 1.152 2.769.605.284 1.755.427 3.391.427 3.834 0 4.501-.487 4.501-3.343 0-1.826-.283-2.481-1.231-2.85-.626-.257-1.837-.402-3.27-.402-3.856 0-4.543.513-4.543 3.399M214.782 12.288v2.025h.263c.928-1.715 2.362-2.37 5.208-2.37 4.077 0 5.451 1.372 5.451 5.425v.913h-4.765c0-2.001-.585-2.541-2.664-2.541-1.151 0-2.1.344-2.585.971-.485.657-.625 1.399-.625 3.483v5.596h-5.068V12.288zM244.759 21.479c-.383 3.741-2.241 4.656-9.488 4.656-3.916 0-5.774-.345-7.006-1.258-1.332-.998-1.715-2.345-1.715-5.798 0-3.625.382-4.967 1.817-5.963 1.332-.913 3.008-1.197 7.428-1.197 4.563 0 6.177.284 7.409 1.28 1.191.999 1.657 2.513 1.657 5.567 0 .171 0 .797-.021 1.367h-13.244c0 1.373.163 1.827.647 2.202.545.4 1.595.573 3.432.573 3.229 0 3.834-.229 4.037-1.428zm-4.985-4.111c-.042-1.057-.101-1.312-.406-1.628-.464-.487-1.492-.685-3.49-.685-3.412 0-4.219.428-4.28 2.313z" style="fill-opacity:1;fill:#fff"/><path d="M253.419 23.24q-.776 0-1.424-.338a2.47 2.47 0 0 1-1.016-.968q-.372-.631-.372-1.473 0-.594.184-1.167.183-.578.775-1.66.596-1.082 1.898-3.222l1.098.639a52 52 0 0 0-1.861 2.982.6.6 0 0 1-.082.113 1.3 1.3 0 0 1 .49-.272q.31-.102.71-.102.755 0 1.339.358.58.357.893.956.315.598.315 1.294 0 .89-.376 1.537a2.43 2.43 0 0 1-1.045.985q-.67.338-1.526.338m.082-1.116q.718 0 1.134-.455.417-.456.417-1.175 0-.753-.429-1.189-.429-.439-1.09-.438-.73 0-1.171.442-.441.445-.441 1.209 0 .695.453 1.151.45.456 1.127.455m7.997.944v-2.095h-3.84l2.412-6.561 1.188.444-1.817 4.922h2.057l.07-1.904h1.265v1.904H264v1.195h-1.167v2.095z" style="fill:#fff;white-space:pre"/></svg>