<svg xmlns="http://www.w3.org/2000/svg" viewBox="0 0 600 87"><path d="M110.65 86.525C61.438 83.539 22.622 72.591 7.25 57.33.173 50.363-1.597 44.17 1.389 37.424 8.245 22.052 36.114 9.666 78.579 3.031 97.158.156 142.499-.95 162.847.93c30.301 2.875 61.818 10.838 77.19 19.463 7.078 3.981 16.035 11.059 16.035 12.829 0 .552-7.52.995-17.583.995-15.925 0-17.805-.221-20.348-2.212-20.238-15.925-91.014-22.56-139.672-13.16-30.965 5.972-47.885 16.699-43.683 27.758 3.429 9.178 21.012 17.141 48.77 22.117 16.035 2.875 56.842 3.981 75.42 2.101 25.546-2.654 47.442-8.404 57.948-15.482l4.977-3.428h17.141c9.289 0 17.03.442 17.03.995 0 2.212-10.395 10.285-18.468 14.266-14.376 7.188-30.743 11.943-53.414 15.593-22.67 3.649-51.534 5.197-73.54 3.76M264.919 44.723V5.464h52.861c77.522 0 101.741 1.991 127.176 10.506 17.915 6.082 27.978 12.939 31.628 21.786 7.741 18.468-14.598 35.056-56.842 42.244-19.132 3.207-36.494 3.981-95.88 3.981h-58.943zm143.322 22.338c19.352-3.539 32.955-9.621 36.494-16.367 5.75-11.169-5.53-21.232-29.085-26.43-15.703-3.428-33.619-4.424-79.07-4.424h-42.908v49.986l52.308-.553c42.134-.332 54.188-.774 62.261-2.212M574.564 58.546V33.111H600v50.87h-25.436zM492.73 47.487c0-7.188.331-9.953 1.437-9.953 2.986-.11 58.28 9.4 58.28 9.953s-55.294 10.064-58.28 9.953c-1.106 0-1.437-2.765-1.437-9.953" style="fill:#fff"/><path d="M117.285 54.123c-7.963-1.438-14.266-4.092-17.141-7.189-2.212-2.322-2.433-3.096-1.327-5.418 1.548-3.429 7.52-6.525 15.814-8.405 8.183-1.88 29.637-.885 36.494 1.548 9.842 3.539 12.717 9.511 6.856 13.713-7.188 5.087-28.089 8.073-40.696 5.751m26.983-5.64c7.188-1.549 11.169-4.424 9.179-6.857-.774-.885-3.76-2.322-6.635-3.096-6.857-1.991-29.085-1.88-34.946.221-4.976 1.769-7.409 4.645-5.419 6.635 3.65 3.65 26.541 5.53 37.821 3.097M574.564 14.311V5.464H600v17.694h-25.436z" style="fill:#fff"/></svg>