<svg xmlns="http://www.w3.org/2000/svg" width="343.64" height="70.468" viewBox="0 0 343.64 70.468"><path d="M273.133 70.468h28.176L343.64 0h-28.166l-42.343 70.468M110.587 19.225v38.398h23.039c7.167-1.175 11.266-5.19 12.825-11.519.014-5.124.002-10.235 0-15.359-1.559-6.329-5.658-10.344-12.825-11.519zm9.011 7.705h10.214c3.208.569 6.252 1.575 7.705 6.4l-.025 10.239c-1.466 4.818-4.498 5.831-7.706 6.4h-10.214zM11.993 57.631V28.202H.466l-.003-8.957h35.862l-3.844 8.957-8.965.004v29.425zM40.164 19.25 26.085 57.623H37.63l4.454-14.053 4.48 6.399h7.68l2.559 7.654h11.623L54.244 19.251H40.165Zm6.989 10.214 4.531 11.546h-8.96zM69.594 57.631V19.245h14.11l14.085 28.163V19.245h8.965l-.007 38.386H92.664L78.577 29.492l-.004 28.139z" style="fill:#fff"/><path d="m156.681 39.74-15.356-20.495h11.517l8.351 12.777 8.311-12.777h12.783l-15.404 20.431.028 17.955h-10.22zM236.148 70.468h28.176L306.65 0h-28.171l-42.334 70.468M199.155 70.468h28.176L269.657 0h-28.166l-42.343 70.468" style="fill:#fff"/></svg>