<svg xmlns="http://www.w3.org/2000/svg" viewBox="0 0 264 78"><path d="M295.2 91.202v24.801h-70.4c-8.048 0-7.597 7.999 0 7.999h46.399c36.151 0 36.141 53.599 0 53.599H198.4v-23.999h69.599c8.331 0 7.766-8 0-8H224.8c-37.148 0-37.017-54.4 0-54.4zm161.601 0H539.2c14.789 0 27.966 11.483 28 27.201v59.199h-29.6v-51.197c0-8.547-5.082-10.278-11.202-10.401H486.4v61.598h-29.601v-86.4zm-77.599 24.095c-7.866.047-11.201 4.986-11.201 11.104v16.001c0 6.646 5.714 11.199 11.201 11.199h32.8c3.891 0 10.402-2.633 10.402-11.199v-16.001c0-5.384-3.274-11.339-10.402-11.3zm-11.201-24.095h55.201c17.524 0 28.799 11.934 28.799 26.398v31.998c0 22.691-19.605 28.001-28.799 28.001h-55.201c-20.735 0-29.6-16.685-29.6-28.001V117.6c0-18.425 16.489-26.398 29.6-26.398m-64.8 0h29.6v86.399h-29.6zm-142.402 0h29.6v86.399h-29.6zm-134.4 0h32.8l31.999 56 37.601-56h27.2l-51.2 86.402H77.906zM290.401.001H384v21.601h-64.8v8H384v21.601h-64.8c0 7.941 5.835 11.2 11.999 11.2H384v23.199h-68c-15.236 0-25.711-12.647-25.675-26.399zm-75.202 0H244v51.2c0 7.354 5.543 11.275 12 11.199h31.201v23.2H242.4c-12.72 0-27.199-5.717-27.199-26.399zM480.802 0H416c-18.643 0-26.356 17.149-26.398 26.399v31.999c0 20.753 17.073 28.121 26.398 28.001h64.802v-24H431.2c-3.531 0-11.999-2.613-11.999-10.4V35.2c0-8.003 6.024-11.201 11.999-11.201h49.602zm46.399 24.097C519.336 24.142 516 29.082 516 35.2v16.001c0 6.647 5.714 11.199 11.201 11.199h32.801c3.89 0 10.401-2.634 10.401-11.199V35.202c0-5.381-3.278-11.339-10.401-11.297zM516 .001h55.203C588.723.001 600 11.935 600 26.4v31.999C600 81.09 580.395 86.4 571.203 86.4H516c-20.733 0-29.6-16.684-29.6-28.001V26.4C486.401 7.975 502.89.001 516 .001M136.799 24.097c-7.865.046-11.2 4.985-11.2 11.104v16.001c0 6.647 5.715 11.199 11.2 11.199h32.8c3.889 0 10.4-2.634 10.4-11.199v-16c0-5.381-3.279-11.339-10.4-11.297zM125.599.001H180.8c17.52 0 28.801 11.934 28.801 26.399v31.999c0 22.691-19.606 28.001-28.801 28.001h-55.201c-20.734 0-28.8-16.684-28.8-28.001V26.4c0-18.425 15.689-26.399 28.8-26.399M91.2.001H26.4C7.755.001.042 17.15 0 26.4v31.999C0 79.152 17.072 86.52 26.4 86.4h64.8V62.401H40.799c-3.528 0-12-2.614-12-10.4V35.202c0-8.002 6.025-11.201 12-11.201H91.2z" style="fill-opacity:1;fill:#fff" transform="scale(.44 .43918)"/></svg>