<svg xmlns="http://www.w3.org/2000/svg" xml:space="preserve" width="4689" height="1248" viewBox="0 0 4689 1248"><g style="fill:none;fill-opacity:1;stroke:#fff;stroke-width:26.4;stroke-dasharray:none;stroke-opacity:1"><path d="m1252.487 646.834-403.6 587.9h212.6l50.9-78.4h204.3l10 78.4h207.6l-88.3-587.9zm-53.4 371.1 90.9-141.8 15.8 141.8zm733.8-366.9h-227.6l-156.8 583.7h195.2l45-166.8h48.4l65 166.8h210.1l-80.9-194.3c115.1-35.9 162.6-114.2 162.6-205.1 0-45.9-13.3-89.2-45.9-121.7-39.1-39.2-107.5-62.6-215.1-62.6zm-36.6 277.7h-70.9l30.9-114.2h69.2c27.5 0 46.7 5.8 57.5 16.7 8.3 8.3 12.5 19.2 12.5 30.9 0 36.6-34.2 66.6-99.2 66.6zm857.8 191-135.1-106.7c-31.7 39.2-68.4 60.9-113.4 60.9-51.7 0-91.7-35.9-91.7-100.1 0-80.1 56.7-160.1 144.3-160.1 44.2 0 78.4 23.3 90.9 70.9l174.3-75.9c-24.2-103.5-113.5-170.2-239.4-170.2-251.8 0-374.4 193.5-374.4 352.7 0 156.8 113.4 256 276.9 256 124.2 0 209.3-50.8 267.6-127.5zm361.1-472.9-403.6 587.9h212.6l50.9-78.4h204.3l10 78.4h207.6l-88.3-587.9zm-53.4 371.1 90.9-141.8 15.8 141.8zm941.5-291.8c-44.2-44.2-115.1-75-228.5-75h-206.8l-156.8 583.7h253.5c135.1 0 236-37.5 306-107.6 62.5-62.5 95.9-142.6 95.9-230.2.1-70.9-20-127.6-63.3-170.9zm-176.8 291c-30 30-80.9 47.5-140.1 47.5h-34.2l65-243.5h32.5c46.7 0 75.9 10.8 94.2 29.2 15 15 24.2 35.9 24.2 67.5.1 35.9-17.4 75.1-41.6 99.3zm818-206 43.4-160.1h-497.8l-156.8 583.7h502l42.5-160.1h-310.2l17.5-63.4h285.2l37.5-140.9h-285.1l15.8-59.2z" style="fill:none;fill-opacity:1;stroke:#fff;stroke-width:26.4;stroke-dasharray:none;stroke-opacity:1" transform="translate(-34 -20)"/><g style="fill:none;fill-opacity:1;stroke:#fff;stroke-width:26.4;stroke-dasharray:none;stroke-opacity:1"><path d="m598.5 32.3 83.6 555.9h-175l-8.2-64.4-1.8-14H270l-4.7 7.3-46.1 71.1H45.6L427.2 32.3h171.3M336.2 403.4h153.9l-2-17.8-15.8-141.8-5-44.8-24.4 38L352 378.8l-15.8 24.6M612.3 16.3H418.8L15.2 604.2h212.6l50.9-78.4H483l10 78.4h207.6zM365.4 387.4l90.9-141.8 15.8 141.8zM1099.2 36.5c96.9 0 165.4 19.5 203.8 57.9 13.9 13.9 24.5 30.7 31.4 50 6.5 18.1 9.8 38.5 9.8 60.5 0 44.1-11.8 82.3-35 113.7-25.5 34.4-64.7 60.1-116.4 76.2L1176 400l6.7 16.2 71.7 172.1h-175.2l-61.1-156.6-4-10.2h-71.4l-3.2 11.8-41.8 154.9h-162L883.9 36.5h215.3M970.8 314.2h91.8c34.1 0 63-7.8 83.4-22.6 20.5-14.9 31.8-36.2 31.8-60.1 0-16.1-6.1-31.1-17.2-42.2-14.2-14.2-37.3-21.4-68.9-21.4h-81.5l-3.2 11.8L976.2 294l-5.4 20.2m128.4-293.7H871.6L714.8 604.2H910l45-166.8h48.4l65 166.8h210.1l-80.9-194.3c115.1-35.9 162.6-114.2 162.6-205.1 0-45.9-13.3-89.2-45.9-121.7-39.1-39.2-107.5-62.6-215.1-62.6ZM991.7 298.2l30.9-114.2h69.2c27.5 0 46.7 5.8 57.5 16.7 8.3 8.3 12.5 19.2 12.5 30.9 0 36.7-34.2 66.7-99.2 66.7h-70.9zM1750.3 24c57.9 0 109.2 15 148.5 43.3 34.7 25 59.3 60 71.9 101.7L1825 232.4c-7.6-18.4-18.8-33.3-33.5-44.4-18.1-13.6-41.2-20.8-67-20.8-45.5 0-87.1 19.8-117.2 55.8-27.3 32.7-43 76.5-43 120.3 0 34.9 10.7 64.3 31 85.2 19.3 19.9 46.5 30.8 76.7 30.8 24.7 0 48-6 69.4-17.7 16.4-9 31.6-21.2 46.1-37.1l110.4 87.3c-27.1 32.4-58.6 57.9-93.8 75.7-43.7 22.1-94.6 33.3-151.3 33.3-38.6 0-74.6-5.7-106.9-17.1-31.6-11-59.2-27.2-82-48-47-42.8-71.9-103.3-71.9-175 0-38.4 7.6-78.7 22-116.6 15.4-40.6 37.8-77.1 66.6-108.7C1526.8 84.6 1611.1 24 1750.3 24m0-16c-251.8 0-374.4 193.5-374.4 352.7 0 156.8 113.4 256 276.9 256 124.2 0 209.3-50.9 267.7-127.6l-135.1-106.7c-31.7 39.2-68.4 60.9-113.4 60.9-51.7 0-91.7-35.9-91.7-100.1 0-80.1 56.7-160.1 144.3-160.1 44.2 0 78.4 23.3 90.9 70.9l174.3-75.9C1965.5 74.7 1876.2 8 1750.3 8ZM2461.2 32.3l83.6 555.9h-175l-8.2-64.4-1.8-14h-227.1l-4.7 7.3-46.1 71.1h-173.6l381.6-555.9h171.3m-262.3 371.1h153.9l-2-17.8-15.8-141.8-5-44.8-24.4 38-90.9 141.8-15.8 24.6M2475 16.3h-193.5l-403.6 587.9h212.6l50.9-78.4h204.3l10 78.4h207.6zm-246.9 371.1 90.9-141.8 15.8 141.8zM2941.1 36.5c51.9 0 97.3 6.7 134.9 20 32.8 11.6 60.5 28.5 82.3 50.3 39.5 39.5 58.7 91.7 58.7 159.6 0 41.5-7.8 81.3-23.3 118.3-15.4 37.1-38.3 70.9-67.9 100.5-33.6 33.6-74.8 59.2-122.7 76.3-49.5 17.6-107.4 26.6-172 26.6h-232.6l148.2-551.7h194.4m-143.4 413.7h55c63 0 118.2-19 151.4-52.2 28.2-28.2 46.4-71.6 46.4-110.5 0-33.6-9.4-59.4-28.9-78.9-22.8-22.8-57.3-33.9-105.5-33.9h-44.8l-3.2 11.9-65 243.5-5.4 20.1m143.4-429.6h-206.8l-156.8 583.7H2831c135.1 0 236-37.5 306-107.6 62.5-62.5 95.9-142.6 95.9-230.2 0-70.9-20-127.6-63.4-170.9-44.1-44.1-115-75-228.4-75zm-122.6 413.6 65-243.5h32.5c46.7 0 75.9 10.8 94.2 29.2 15 15 24.2 35.9 24.2 67.5 0 35.9-17.5 75-41.7 99.2-30 30-80.9 47.5-140.1 47.5h-34.1zM3833.3 36.5l-34.7 128.1h-306.1l-3.2 11.9-15.8 59.2-5.4 20.1h285.2l-29 108.9h-285.1l-3.2 11.7-17.5 63.4-5.6 20.3h310.4l-34 128.1h-468.8l148.2-551.7h464.6m20.9-16h-497.8l-156.8 583.7h502l42.5-160.1h-310.2l17.5-63.4h285.2l37.5-140.9H3489l15.8-59.2h306z" style="fill:none;fill-opacity:1;stroke:#fff;stroke-width:26.4;stroke-dasharray:none;stroke-opacity:1" transform="translate(799.687 610.534)"/></g></g><g aria-label="CONSOLE" style="font-size:833.836px;line-height:1.25;font-family:&quot;Gotham Ultra&quot;;-inkscape-font-specification:&quot;Gotham Ultra&quot;;text-align:center;letter-spacing:0;word-spacing:0;text-anchor:middle;stroke-width:4.3429;fill:#fefefe;fill-opacity:1"><path d="M281.344 608.967q-61.704 0-112.568-17.511-50.864-18.344-87.553-51.698-35.855-33.353-56.7-80.048Q4.51 412.18 4.51 352.979q0-60.036 22.514-122.574 23.347-62.538 70.042-113.402 46.695-51.698 116.737-84.217Q284.68.266 378.903.266q47.528 0 86.719 12.508 40.024 11.673 70.876 34.187 30.852 21.68 51.697 53.366 20.846 31.685 30.019 70.042l-174.272 75.879q-9.172-35.855-33.354-53.366-24.18-17.51-57.534-17.51-32.52 0-59.203 14.175-26.682 13.341-45.86 35.855-18.345 22.514-29.185 51.698-10.006 28.35-10.006 58.368 0 48.363 25.849 74.212 26.683 25.849 65.873 25.849 34.187 0 61.704-15.843 27.516-15.843 51.698-45.027l135.081 106.73q-44.193 57.535-109.232 92.556-65.04 35.022-158.43 35.022M916.726 436.362q30.852 0 55.033-13.34 25.015-14.176 42.526-35.856 17.51-21.68 26.683-49.196 10.006-27.517 10.006-55.033 0-23.348-7.505-43.36-6.67-20.012-20.012-35.02-13.341-15.01-34.187-23.348-20.012-8.339-45.861-8.339-30.852 0-55.867 14.176-24.181 13.34-41.692 35.02t-27.516 49.197q-9.173 27.517-9.173 55.033 0 23.348 6.671 43.36 7.505 20.012 20.846 35.02 13.341 15.01 33.353 23.348t46.695 8.338m-13.341 171.77q-64.206 0-117.571-20.011-53.366-20.846-91.722-55.867-38.356-35.855-60.036-84.218-20.846-48.362-20.846-104.23 0-67.54 25.849-129.244 26.683-62.538 72.544-110.066T820 29.45Q883.373 1.1 956.751 1.1q64.205 0 117.57 20.845 53.366 20.012 91.722 55.867 38.357 35.021 59.203 83.384 21.68 48.362 21.68 104.23 0 67.54-26.684 130.078-25.848 61.703-71.71 109.232-45.86 47.529-109.232 75.88-62.538 27.516-135.915 27.516M1372 12.774h182.61l132.58 278.501 75.044-278.501h193.45l-156.76 583.685h-173.439l-138.417-290.175-78.38 290.175h-193.45zM2149.134 608.133q-87.553 0-160.93-28.35-73.378-29.185-126.744-77.547l111.734-133.414q50.03 42.525 100.06 62.537 50.03 20.013 96.725 20.013 19.179 0 30.852-6.671 11.674-6.67 11.674-19.178 0-6.671-3.335-11.674-2.502-5.837-12.508-10.84-10.006-5.837-29.184-13.341-19.178-8.339-50.864-20.012-40.858-15.01-70.876-30.018-30.018-15.843-50.03-35.022-19.179-19.178-29.185-42.525-9.172-24.181-9.172-56.701 0-42.526 18.345-79.215 19.178-37.522 53.365-65.039 34.187-27.516 82.55-43.36Q2159.973 1.1 2220.01 1.1q78.38 0 145.087 23.347 67.54 23.348 115.07 64.206l-111.735 133.414q-33.353-26.683-77.546-45.861-44.194-19.179-90.889-19.179-19.178 0-30.851 5.837-11.674 5.003-11.674 17.51 0 6.672 3.335 11.675 3.336 4.169 13.342 9.172t28.35 12.507q18.344 6.671 48.362 17.51 37.523 14.176 67.541 29.185 30.018 15.01 50.864 35.021 21.68 19.178 32.52 45.027 11.673 25.015 11.673 58.369 0 44.193-18.344 82.55-17.51 38.356-51.698 66.707-33.353 27.516-82.55 44.193-49.196 15.843-111.734 15.843M2771.175 436.362q30.852 0 55.033-13.34 25.015-14.176 42.526-35.856 17.51-21.68 26.683-49.196 10.006-27.517 10.006-55.033 0-23.348-7.505-43.36-6.67-20.012-20.012-35.02-13.341-15.01-34.187-23.348-20.012-8.339-45.861-8.339-30.852 0-55.867 14.176-24.182 13.34-41.692 35.02t-27.517 49.197q-9.172 27.517-9.172 55.033 0 23.348 6.67 43.36 7.505 20.012 20.847 35.02 13.341 15.01 33.353 23.348t46.695 8.338m-13.341 171.77q-64.206 0-117.571-20.011-53.366-20.846-91.722-55.867-38.357-35.855-60.036-84.218-20.846-48.362-20.846-104.23 0-67.54 25.849-129.244 26.682-62.538 72.543-110.066T2674.45 29.45Q2737.822 1.1 2811.2 1.1q64.205 0 117.57 20.845 53.366 20.012 91.722 55.867 38.356 35.021 59.202 83.384 21.68 48.362 21.68 104.23 0 67.54-26.683 130.078-25.849 61.703-71.71 109.232t-109.232 75.88q-62.538 27.516-135.915 27.516M3226.448 12.774h195.118l-111.734 416.918h265.993l-45.027 166.767h-461.111zM3734.254 12.774h497.8l-43.36 160.096h-306.018l-15.843 59.203h285.172l-37.522 140.918H3829.31l-17.51 63.371h310.186l-42.525 160.097h-501.97z" style="fill:#fefefe;fill-opacity:1" transform="translate(-4.05)"/></g></svg>