<svg xmlns="http://www.w3.org/2000/svg" viewBox="0 0 1758.6 493"><path d="M206.186 350.241h1346.09c39.44 0 71.414 31.974 71.414 71.414s-31.974 71.367-71.368 71.367H206.186c-39.44 0-71.367-31.973-71.367-71.367.045-39.44 31.973-71.414 71.367-71.414m209.339 103.937h18.002V435.58h8.933c16.17 0 27.942-8.062 27.942-23.407v-.183c0-14.43-10.581-22.858-27.026-22.858h-27.851Zm18.048-32.752v-17.178h8.429c6.504 0 10.398 2.978 10.398 8.566v.183c0 5.131-3.894 8.475-10.307 8.475Zm72.284 32.752h49.517v-15.804h-31.469v-49.242h-18.002Zm79.888-.046h18.964l4.626-11.589h25.057l4.718 11.589h19.331l-27.668-65.458h-17.361Zm28.904-25.606 7.329-18.506 7.238 18.506Zm86.621 25.606h18.094v-24.598l24.69-40.402h-20.155l-13.467 23.682-13.376-23.682h-20.522l24.691 40.677Zm155.241 1.145c15.803 0 26.293-7.879 26.293-21.163v-.183c0-12.185-9.299-16.994-24.232-20.247-8.978-2.061-11.223-3.344-11.223-6.321v-.183c0-2.291 2.153-4.169 6.505-4.169 5.726 0 12.231 2.245 18.186 6.413l9.024-12.734c-7.055-5.68-15.712-8.658-26.752-8.658-15.574 0-25.148 8.704-25.148 20.797v.183c0 13.376 10.673 17.269 24.507 20.43 8.795 2.061 10.948 3.527 10.948 6.23v.183c0 2.794-2.611 4.443-7.421 4.443-7.512 0-14.658-2.656-21.071-7.787l-10.032 12.002c7.97 7.146 18.964 10.764 30.416 10.764m78.926-1.145h18.094v-24.598l24.69-40.402h-20.156l-13.467 23.682-13.376-23.682h-20.521l24.69 40.677Zm98.439 1.145c15.804 0 26.294-7.879 26.294-21.163v-.183c0-12.185-9.299-16.994-24.232-20.247-8.979-2.061-11.223-3.344-11.223-6.321v-.183c0-2.291 2.153-4.169 6.505-4.169 5.725 0 12.23 2.245 18.185 6.413l9.024-12.734c-7.054-5.68-15.712-8.658-26.751-8.658-15.575 0-25.149 8.704-25.149 20.797v.183c0 13.376 10.674 17.269 24.507 20.43 8.795 2.061 10.948 3.527 10.948 6.23v.183c0 2.794-2.611 4.443-7.421 4.443-7.512 0-14.658-2.656-21.071-7.787l-10.032 12.002c8.017 7.146 18.965 10.764 30.416 10.764m76.956-1.099h18.003v-49.243h19.514v-15.803h-57.03v15.803h19.513Zm73.292 0h52.77v-15.345h-34.905v-10.307h31.194v-14.2h-31.194v-9.849h34.447v-15.345h-52.312Zm89.874-65.046v65h17.635v-37.15l16.537 25.286h.366l16.628-25.469v37.333h17.911v-65h-19.056l-15.528 25.148-15.529-25.148Z" class="st0" style="clip-rule:evenodd;fill-rule:evenodd;stroke-width:.458072;fill:#fff"/><path d="m310.901 79.154-83.14 88.179-54.877-37.791s18.048-17.315 1.558-29.912c-12.872-9.803-48.876 11.04-47.365 51.991 1.832 47.228 30.92 73.979 63.031 73.979 29.775 0 37.608-24.14 37.608-24.14h66.832v55.655l93.997-248.87h107.417l86.255 223.631s6.276 11.818 12.552 14.979c0 0 .366-146.721.366-150.844s-.55-8.657-3.115-11.589c-4.214-4.901-11.36-6.871-11.36-6.871V8.245h150.568c78.056 0 98.119 21.3 120.748 62.206C883.262 28.171 926.275.366 987.657.366c63.168 0 107.83 23.362 133.345 62.206C1156.64 19.834 1213.99 0 1266.485 0c64.497 0 118.366 31.332 146.263 79.933V8.245h145.071l15.3 38.982 11.36-38.982h149.789v67.703c-10.581 5.13-14.841 10.352-12.963 22.445l20.934 133.849c.87 4.352 2.382 8.887 6.138 12.231 4.352 3.893 10.215 3.16 10.215 3.16v77.185h-150.568v-58.312h-86.301v58.45h-141.544v-37.974s-51.717 45.669-118.412 45.669c-85.293 0-142.323-62.984-142.323-62.984v55.106h-100.409c-89.324 0-166.005-49.106-187.443-138.567-10.169 9.711-54.923 41.822-108.609 53.915-4.169.916-6.276 2.519-6.276 7.1 0 8.291 17.682 11.223 17.682 11.223v66.329H183.878C81.911 324.818.008 254.733.008 165.776S63.863 1.145 169.724 1.145c101.188 0 141.177 78.009 141.177 78.009m-142.735-47.96c-66.374 0-139.574 46.907-139.574 131.421 0 55.106 54.098 131.467 151.347 131.467h81.582V230.41h-14.887s-9.207 24.415-52.541 24.415c-74.482 0-97.249-67.749-97.249-104.761s21.209-81.903 69.032-81.903 49.38 31.057 49.38 38.569c0 7.467-4.306 11.406-4.306 12.964 0 .595.183 1.053.504 1.328l7.421 6.093c2.565 2.107 6.367 1.878 8.657-.55l43.746-46.082S232.48 31.194 168.166 31.194m160.417 225.051s-1.97 6.321-7.879 12.231c-5.359 5.405-12.505 7.878-12.505 7.878v18.507h78.788v-18.507s-9.161-.962-11.772-7.512c-1.558-3.894-1.558-10.215 0-14.154 1.557-3.94 18.048-48.052 18.048-48.052h80.391s16.491 43.746 18.827 49.243c2.382 5.496 2.382 9.848-.779 15.345-3.16 5.543-9.436 4.718-9.436 4.718v18.919h98.44v-18.507s-9.437-3.16-13.33-7.878c-3.94-4.719-7.879-10.215-10.215-16.125L475.578 38.157h-67.061ZM431.695 91.706l26.66 74.803h-51.762Zm180.343-32.707s7.421 4.306 10.581 7.467c3.115 3.161 2.749 11.039 2.749 11.039v185.061s-.779 4.719-4.718 8.658-9.437 5.13-9.437 5.13v18.507h90.973v-18.919s-4.351-1.191-8.245-5.909c-3.939-4.764-4.306-7.512-4.306-7.512v-40.906s44.158-12.093 77.643-27.576c29.042-13.376 62.756-32.248 62.756-85.797s-46.265-70.085-92.53-70.085H612.038Zm152.126 53.182c0 43.334-73.704 74.025-73.704 74.025V76.772s73.704-18.139 73.704 35.409m234.532-80.574c-66.374 0-139.574 46.906-139.574 131.42 0 55.152 54.098 131.513 151.347 131.513h81.583v-63.672h-14.888s-9.207 24.415-52.541 24.415c-74.482 0-97.248-67.749-97.248-104.761s21.208-81.903 69.031-81.903 49.38 31.057 49.38 38.569c0 7.467-4.306 11.406-4.306 12.964 0 .595.184 1.053.504 1.328l7.421 6.093c2.565 2.107 6.367 1.878 8.658-.55l43.745-46.082s-38.844-49.289-103.112-49.334m407.455 132.978c0-75.628-62.435-134.215-145.575-134.215s-145.575 58.633-145.575 134.215 60.878 137.696 145.575 137.696c84.698 0 145.575-62.068 145.575-137.696m-145.529-93.309c32.157 0 76.086 23.636 76.086 94.5s-39.257 94.5-76.086 94.5c-36.875 0-75.307-18.918-75.307-94.5 0-75.628 43.105-94.5 75.307-94.5m183.32-32.936v18.323s11.086 2.84 13.147 6.138c1.97 3.115.183 10.032.183 10.032l-29.591 184.832s-.779 7.1-5.497 12.597-11.177 6.505-11.177 6.505v18.094h81.17v-16.903s-7.833 0-12.139-6.322c-3.114-4.58-2.336-12.963-2.336-12.963l20.384-140.17 40.402 118.915h49.381l40.768-126.794s22.354 143.285 23.133 149.606c.824 6.276-.367 8.658-3.115 12.597-2.703 3.94-10.948 5.131-10.948 5.131v17.04h93.721v-15.849s-7.466-3.573-9.024-7.879c-1.557-4.352-2.382-7.879-3.16-14.2-.779-6.276-25.881-177.137-26.66-183.458-.779-6.276-.779-9.482 2.748-13.788 2.932-3.573 9.437-6.322 9.437-6.322V38.157h-97.616l-36.05 104.761-33.714-104.578Z" class="st3" style="stroke-width:.458072;fill:#fff"/></svg>