<svg xmlns="http://www.w3.org/2000/svg" viewBox="0 0 1758.6 493"><path d="m310.901 79.154-83.14 88.179-54.877-37.791s18.048-17.315 1.558-29.912c-12.872-9.803-48.876 11.04-47.365 51.991 1.832 47.228 30.92 73.979 63.031 73.979 29.775 0 37.608-24.14 37.608-24.14h66.832v55.655l93.997-248.87h107.417l86.255 223.631s6.276 11.818 12.552 14.979c0 0 .366-146.721.366-150.844s-.55-8.657-3.115-11.589c-4.214-4.901-11.36-6.871-11.36-6.871V8.245h150.568c78.056 0 98.119 21.3 120.748 62.206C883.262 28.171 926.275.366 987.657.366c63.168 0 107.83 23.362 133.345 62.206C1156.64 19.834 1213.99 0 1266.485 0c64.497 0 118.366 31.332 146.263 79.933V8.245h145.071l15.3 38.982 11.36-38.982h149.789v67.703c-10.581 5.13-14.841 10.352-12.963 22.445l20.934 133.849c.87 4.352 2.382 8.887 6.138 12.231 4.352 3.893 10.215 3.16 10.215 3.16v77.185h-150.568v-58.312h-86.301v58.45h-141.544v-37.974s-51.717 45.669-118.412 45.669c-85.293 0-142.323-62.984-142.323-62.984v55.106h-100.409c-89.324 0-166.005-49.106-187.443-138.567-10.169 9.711-54.923 41.822-108.609 53.915-4.169.916-6.276 2.519-6.276 7.1 0 8.291 17.682 11.223 17.682 11.223v66.329H183.878C81.911 324.818.008 254.733.008 165.776S63.863 1.145 169.724 1.145c101.188 0 141.177 78.009 141.177 78.009m-142.735-47.96c-66.374 0-139.574 46.907-139.574 131.421 0 55.106 54.098 131.467 151.347 131.467h81.582V230.41h-14.887s-9.207 24.415-52.541 24.415c-74.482 0-97.249-67.749-97.249-104.761s21.209-81.903 69.032-81.903 49.38 31.057 49.38 38.569c0 7.467-4.306 11.406-4.306 12.964 0 .595.183 1.053.504 1.328l7.421 6.093c2.565 2.107 6.367 1.878 8.657-.55l43.746-46.082S232.48 31.194 168.166 31.194m160.417 225.051s-1.97 6.321-7.879 12.231c-5.359 5.405-12.505 7.878-12.505 7.878v18.507h78.788v-18.507s-9.161-.962-11.772-7.512c-1.558-3.894-1.558-10.215 0-14.154 1.557-3.94 18.048-48.052 18.048-48.052h80.391s16.491 43.746 18.827 49.243c2.382 5.496 2.382 9.848-.779 15.345-3.16 5.543-9.436 4.718-9.436 4.718v18.919h98.44v-18.507s-9.437-3.16-13.33-7.878c-3.94-4.719-7.879-10.215-10.215-16.125L475.578 38.157h-67.061ZM431.695 91.706l26.66 74.803h-51.762Zm180.343-32.707s7.421 4.306 10.581 7.467c3.115 3.161 2.749 11.039 2.749 11.039v185.061s-.779 4.719-4.718 8.658-9.437 5.13-9.437 5.13v18.507h90.973v-18.919s-4.351-1.191-8.245-5.909c-3.939-4.764-4.306-7.512-4.306-7.512v-40.906s44.158-12.093 77.643-27.576c29.042-13.376 62.756-32.248 62.756-85.797s-46.265-70.085-92.53-70.085H612.038Zm152.126 53.182c0 43.334-73.704 74.025-73.704 74.025V76.772s73.704-18.139 73.704 35.409m234.532-80.574c-66.374 0-139.574 46.906-139.574 131.42 0 55.152 54.098 131.513 151.347 131.513h81.583v-63.672h-14.888s-9.207 24.415-52.541 24.415c-74.482 0-97.248-67.749-97.248-104.761s21.208-81.903 69.031-81.903 49.38 31.057 49.38 38.569c0 7.467-4.306 11.406-4.306 12.964 0 .595.184 1.053.504 1.328l7.421 6.093c2.565 2.107 6.367 1.878 8.658-.55l43.745-46.082s-38.844-49.289-103.112-49.334m407.455 132.978c0-75.628-62.435-134.215-145.575-134.215s-145.575 58.633-145.575 134.215 60.878 137.696 145.575 137.696c84.698 0 145.575-62.068 145.575-137.696m-145.529-93.309c32.157 0 76.086 23.636 76.086 94.5s-39.257 94.5-76.086 94.5c-36.875 0-75.307-18.918-75.307-94.5 0-75.628 43.105-94.5 75.307-94.5m183.32-32.936v18.323s11.086 2.84 13.147 6.138c1.97 3.115.183 10.032.183 10.032l-29.591 184.832s-.779 7.1-5.497 12.597-11.177 6.505-11.177 6.505v18.094h81.17v-16.903s-7.833 0-12.139-6.322c-3.114-4.58-2.336-12.963-2.336-12.963l20.384-140.17 40.402 118.915h49.381l40.768-126.794s22.354 143.285 23.133 149.606c.824 6.276-.367 8.658-3.115 12.597-2.703 3.94-10.948 5.131-10.948 5.131v17.04h93.721v-15.849s-7.466-3.573-9.024-7.879c-1.557-4.352-2.382-7.879-3.16-14.2-.779-6.276-25.881-177.137-26.66-183.458-.779-6.276-.779-9.482 2.748-13.788 2.932-3.573 9.437-6.322 9.437-6.322V38.157h-97.616l-36.05 104.761-33.714-104.578Z" class="st3" style="stroke-width:.458072;fill:#fff"/><path d="M357.231 412.767v.185c0 5.133-3.885 8.463-10.312 8.463h-8.555v-17.203h8.462c6.52 0 10.405 3.006 10.405 8.555m169.621-2.82 7.26 18.497h-14.613zM1623.7 421.6c0 39.446-31.954 71.4-71.4 71.4H206.2c-39.446 0-71.4-31.954-71.4-71.4s31.954-71.4 71.4-71.4h1346.1c39.446 0 71.4 31.954 71.4 71.4m-1248.434-9.665c0-14.382-10.59-22.844-27.006-22.844h-27.931v65.018h18.035v-18.59h8.925c16.185 0 27.977-8.092 27.977-23.399zm84.995 26.359H428.77v-49.203h-17.989v64.972h49.48zm103.123 15.815-27.7-65.481h-17.387l-27.608 65.481h18.96l4.625-11.607h25.064l4.716 11.607zm85.504-65.018h-20.162l-13.457 23.676-13.364-23.676h-20.532l24.694 40.694v24.324h18.127v-24.601zm138.731 44.763c0-12.162-9.295-17.017-24.232-20.254-9.017-2.081-11.237-3.376-11.237-6.336v-.185c0-2.312 2.173-4.161 6.52-4.161 5.781 0 12.255 2.265 18.22 6.427l9.018-12.717c-7.029-5.688-15.677-8.647-26.729-8.647-15.584 0-25.157 8.74-25.157 20.809v.185c0 13.365 10.683 17.295 24.51 20.44 8.832 2.081 10.959 3.561 10.959 6.243v.185c0 2.774-2.636 4.439-7.445 4.439-7.538 0-14.659-2.728-21.087-7.815l-10.035 11.977c8 7.168 18.96 10.775 30.428 10.775 15.769 0 26.267-7.908 26.267-21.18zm95.446-44.763h-20.162l-13.457 23.676-13.364-23.676H815.55l24.694 40.694v24.324h18.127v-24.601zm81.99 44.763c0-12.162-9.295-17.017-24.232-20.254-9.017-2.081-11.237-3.376-11.237-6.336v-.185c0-2.312 2.173-4.161 6.52-4.161 5.781 0 12.255 2.265 18.22 6.427l9.018-12.717c-7.029-5.688-15.677-8.647-26.729-8.647-15.584 0-25.156 8.74-25.156 20.809v.185c0 13.365 10.682 17.295 24.509 20.44 8.832 2.081 10.959 3.561 10.959 6.243v.185c0 2.774-2.636 4.439-7.445 4.439-7.538 0-14.659-2.728-21.087-7.815l-10.035 11.977c8 7.168 18.96 10.775 30.428 10.775 15.769 0 26.267-7.908 26.267-21.18zm88.14-44.763h-57.018v15.769h19.514v49.203h18.035V404.86h19.469zm88.51 49.665h-34.914v-10.312h31.214v-14.197h-31.214v-9.85h34.497v-15.306h-52.347v64.972h52.764zm106.128-49.665h-19.052l-15.491 25.156-15.492-25.156h-19.099v64.972h17.665v-37.134l16.509 25.249h.37l16.648-25.434v37.365h17.942zm190.246 61.411a135 135 0 0 1-3.653-.277q-2.428-.209-3.33-.555c-1.11-.463-1.896-1.064-2.312-1.804s-.601-1.711-.601-2.867v-46.105c0-1.017.231-1.896.601-2.728.416-.786 1.156-1.434 2.358-1.942.74-.324 1.804-.601 3.237-.925s2.683-.555 3.7-.648v-3.56h-108.21v3.56c1.018.139 2.266.324 3.7.648 1.433.324 2.497.647 3.237.925 1.156.508 1.942 1.11 2.358 1.942.416.786.601 1.711.601 2.728v46.105c0 1.156-.185 2.127-.601 2.867s-1.202 1.341-2.312 1.804q-.902.346-3.33.555c-1.618.138-2.82.231-3.653.277v3.561h108.21zm-62.66-54.29c.416.786.601 1.711.601 2.729v46.104h-.092c0 1.156-.185 2.128-.601 2.867-.417.74-1.203 1.341-2.313 1.804q-.902.346-3.329.555h-.046c-2.405.185-4.81.185-7.168 0h-.046q-2.428-.209-3.33-.555c-1.11-.463-1.896-1.064-2.312-1.804-.416-.739-.601-1.711-.601-2.867v-46.104c0-1.018.185-1.943.601-2.729s1.156-1.433 2.358-1.942c.74-.324 1.804-.601 3.237-.925h.047a16.44 16.44 0 0 1 7.352 0h.047c1.433.324 2.497.648 3.237.925 1.156.509 1.942 1.11 2.358 1.942m36.07 0c.416.786.601 1.711.601 2.729v46.104h-.092c0 1.156-.185 2.128-.602 2.867-.416.74-1.202 1.341-2.312 1.804q-.902.346-3.329.555h-.047a46.3 46.3 0 0 1-7.167 0h-.047q-2.427-.209-3.329-.555c-1.11-.463-1.896-1.064-2.312-1.804-.416-.739-.601-1.711-.601-2.867v-46.104c0-1.018.185-1.943.601-2.729s1.156-1.433 2.358-1.942c.74-.324 1.804-.601 3.237-.925h.046a16.44 16.44 0 0 1 7.353 0h.046c1.434.324 2.498.648 3.237.925 1.157.509 1.943 1.11 2.359 1.942" class="st0" style="fill:#fff"/></svg>