<svg xmlns="http://www.w3.org/2000/svg" width="840" height="434.2" viewBox="0 0 1680 869.2"><path d="m1476.301 1327.812-.291-292.497-46.767 163.407-46.705-162.661-.283 222.034-152.495-114.372 11.56-8.667-.53-569.307 144.947.378 43.449 152.196 43.513-152.4 214.434.696-70.365 52.577-.124 814.43zM78.33 619.062l-71.196-53.33 401.3.543 45.931 35.087.038 533.504 12.168 8.813L78.42 1434.931zm235.519 416.218-.153-307.892-10.758-8.785-83.448.404-.183 387.172zm152.398 82.782-.072-516.755 47.073-35.277 281.698-.015 46.98 35.422.173 597.962-133.224 100.2zm223.129-399.763-71.048.492-11.099 8.527.16 308.103 93.32 69.994.249-377.928zm164.808 481.66-.34-598.797 46.918-35.239 282.07.27 47.218 35.279-.324 515.558-241.336 182.453zm234.652-164.742-.03-308.027-11.873-9.073-70.936.233-11.405 8.782.704 377.327z" style="fill:#fff;fill-opacity:1;stroke:none" transform="translate(-7.133 -565.731)"/></svg>