<svg xmlns="http://www.w3.org/2000/svg" viewBox="0 0 264 116"><path d="M12.844-.373c3.824-4.957 9.918-7.668 15.991-8.455 2.451-.007 4.906.105 7.357-.05 5.734.558 11.435 2.99 15.322 7.358 3.302 3.632 5.116 8.437 5.625 13.292-4.361.062-8.725.195-13.085.167-.552-3.201-2.625-6.077-5.471-7.609-3.022-1.638-6.742-2.156-10.016-1.005-1.771.611-3.479 1.591-4.632 3.104-1.54 1.964-1.327 4.961.202 6.865 1.577 1.927 3.995 2.848 6.289 3.592 5.477 1.648 11.209 2.349 16.585 4.359 3.722 1.374 7.362 3.489 9.635 6.851 2.599 3.86 3.148 8.783 2.522 13.311-.647 4.753-3.177 9.185-6.883 12.19-4.978 4.102-11.541 5.87-17.9 5.805-6.146-.087-12.43-1.697-17.427-5.41-3.367-2.488-5.986-6.034-7.17-10.078-.635-1.973-.807-4.052-.91-6.111 4.287-.056 8.573.062 12.863-.003 1.231 3.595 3.892 6.719 7.426 8.167 3.563 1.495 7.735 1.69 11.328.177 1.724-.726 3.377-1.824 4.375-3.449 1.111-1.79 1.247-4.222.096-6.027-1.104-1.753-3.026-2.736-4.882-3.484-3.527-1.355-7.255-2.047-10.904-2.978-4.743-1.19-9.597-2.553-13.619-5.457-2.852-2.025-5.008-5.039-5.877-8.452-1.453-5.645-.475-12.038 3.16-16.67" style="fill:#fff" transform="rotate(-90 34.14 25.263)"/><path d="M5.764 50.974c6.256-.043 12.508-.006 18.764-.021 3.348 12.612 6.525 25.271 9.905 37.871 2.554-12.606 4.861-25.268 7.386-37.88 7.078.03 14.158-.003 21.237.014.008 22.22-.014 44.439.011 66.659-4.268.015-8.532.037-12.799-.013-.261-12.336-.461-24.676-.838-37.006-2.482 12.349-5.088 24.676-7.592 37.022-4.534.015-9.067.019-13.6 0-3.057-11.738-6.049-23.491-9.153-35.217-.106 1.073-.099 2.153-.09 3.23.012 10.664-.009 21.325.009 31.99-3.279.016-6.556.002-9.835.009-1.134-.003-2.278.065-3.405-.13z" style="fill:#fff" transform="rotate(-90 34.416 84.293)"/><path d="M140.022 9.864c9.547-7.326 21.897-10.279 33.815-9.817 5.508.274 10.965 1.284 16.269 2.766.194.114.574.337.766.446-6.482 4.537-12.053 10.537-15.544 17.651-6.582-.742-13.398.907-18.776 4.792-6.728 4.695-11.611 12.186-12.512 20.377-1.042 8.274-2.011 16.558-3.043 24.832-.302 2.29-.401 4.678-1.444 6.786-1.453 3.047-3.648 5.684-5.956 8.13-2.095 2.175-5.279 2.528-8.145 2.559-6.671-14.631-8.031-31.437-4.539-47.068 2.684-12.149 9.005-23.853 19.109-31.454" style="fill:#fff"/><path d="M190.221 7.89c9.839-6.346 22.101-7.719 33.55-6.543 10.13 1.01 20.49 4.668 27.494 12.304 5.768 6.114 8.473 14.46 9.067 22.699-7.29.134-14.586.071-21.876.03-.793-4.352-3.023-8.507-6.587-11.222-5.165-3.979-12.074-5.082-18.437-4.274-4.784.695-9.803 2.212-13.185 5.839-2.022 2.243-3.319 5.647-2.006 8.548 1.277 3.57 2.517 7.155 3.763 10.735 1.917 5.715 1.026 11.849.417 17.709-8.015-2.14-16.301-5.616-21.387-12.45-4.899-6.637-5.524-15.434-4.174-23.319 1.381-8.165 6.337-15.61 13.361-20.056M77.963 4.238c13.371-.358 26.749-.695 40.125-1.011 6.624-.021 13.237.964 19.543 3.006.03.911-.146 1.797-.964 2.331-5.488 4.776-9.599 10.843-13.321 17.014-7.707-.036-15.414.14-23.126.145.156 21.791.036 43.592.187 65.388 4.675.373 9.359.71 14.039.969 4.528-.016 9.057-.078 13.586-.156 4.361-.145 7.858-3.274 10.443-6.486 3.455-4.476 6.117-9.776 6.566-15.471.583-6.952 1.24-13.899 1.871-20.847.26-2.953.849-5.901 2.011-8.642 2.538-6.196 7.733-11.107 13.835-13.807 8.682 14.595 9.959 32.645 5.952 48.893-2.908 11.584-9.766 22.391-19.902 28.997-9.896 6.595-22.106 8.962-33.872 8.455-12.325-.513-24.66-.85-36.973-1.497z" style="fill:#fff"/><path d="M206.715 26.479c4.815-2.253 10.281-2.212 15.461-1.611 5.336 9.642 8.484 20.516 8.551 31.547.261 12.284-3.095 24.475-8.853 35.292-5.805.684-11.881-.456-16.842-3.581-2.096-1.305-3.899-3.667-3.226-6.252 1.36-5.398 3.21-10.673 4.695-16.04.782-3.083.453-6.28.412-9.419-.099-3.7-.829-7.357-1.892-10.896-1.298-4.445-3.226-8.807-3.419-13.491.115-2.798 2.793-4.523 5.113-5.549" style="fill:#fff"/><path d="M233.745 50.513c7.984 2.161 16.263 4.798 22.46 10.502 5.128 4.653 7.546 11.579 7.795 18.351v3.875c-.354 6.399-2.652 12.746-6.904 17.61-5.654 6.57-13.867 10.424-22.22 12.356-11.121 2.508-22.872 1.949-33.842-1.057-8.848-2.486-17.603-7.409-22.225-15.599-3.153-5.642-5.909-12.237-4.211-18.775 7.129-.084 14.263.052 21.397.103.792 4.86 2.814 9.823 6.884 12.864 5.065 3.813 11.71 4.394 17.854 4.455 5.586-.118 11.558-.693 16.29-3.931 4.111-2.705 5.727-8.58 3.408-12.937-1.673-3.047-4.779-4.901-7.744-6.517.193-7.109.725-14.201 1.058-21.3M165.229 93.463c2.803-.435 5.732-.01 8.582.047 3.7 8.393 10.803 14.703 18.427 19.569-5.602 1.891-11.501 2.796-17.41 2.921h-.329c-8.546-.088-17.004-1.958-24.956-5.004l-.042-.41c2.924-2.844 5.952-5.59 8.922-8.393 2.861-2.415 4.481-5.865 6.806-8.73" style="fill:#fff"/></svg>