<svg xmlns="http://www.w3.org/2000/svg" xml:space="preserve" width="504" height="116.145" viewBox="-1 -1 504 116.145"><g style="fill:#fff;fill-opacity:1"><path d="M40.54 78.175v7.862H-.033v-57.93H39.39v7.863H11.576v16.8h25.63v7.696h-25.63v17.71z" style="font-weight:700;font-size:97.196px;line-height:1.25;font-family:Akrobat;-inkscape-font-specification:&quot;Akrobat Bold&quot;;text-align:center;letter-spacing:0;word-spacing:0;baseline-shift:baseline;text-anchor:middle;stroke:#fff;stroke-width:1.83622;stroke-linecap:butt;stroke-linejoin:miter;stroke-miterlimit:4;stroke-dasharray:none;stroke-opacity:1;stop-color:#000;fill:#fff;fill-opacity:1" transform="matrix(.99694 0 0 1.00005 -.001 -.003)"/><path d="M115.934 28.108v57.93h-11.378l.03-22.522c.149-8.11.316-14.194.408-18.724l.01-.712c-1.532 3.09-4.126 8.662-7.803 15.723L90.19 72.962H78.696l-7.01-13.159c-3.678-7.061-6.143-12.454-7.676-15.544l.02.583c.186 8.18.147 14.19.3 18.603v22.592H52.952v-57.93H64.79l13.562 23.504q2.643 4.717 5.861 11.503h.46q3.218-6.787 5.861-11.503l13.562-23.503Z" style="font-weight:700;font-size:97.196px;line-height:1.25;font-family:Akrobat;-inkscape-font-specification:&quot;Akrobat Bold&quot;;text-align:center;letter-spacing:0;word-spacing:0;baseline-shift:baseline;text-anchor:middle;stroke:#fff;stroke-width:1.83622;stroke-linecap:butt;stroke-linejoin:round;stroke-miterlimit:4;stroke-dasharray:none;stroke-opacity:1;stop-color:#000;fill:#fff;fill-opacity:1" transform="matrix(.99694 0 0 1.00005 -.001 -.003)"/><path d="M154.207 86.865q-10.804 0-17.24-4.8-6.321-4.883-6.321-13.655V28.108h11.838V68.41q0 5.131 3.103 7.78 3.103 2.565 8.62 2.565 5.631 0 8.735-2.566 3.103-2.648 3.103-7.779V28.108h11.723V68.41q0 8.772-6.321 13.655-6.322 4.8-17.24 4.8zM230.866 78.093v7.944h-38.272v-57.93h11.608v49.986zM273.711 74.369H252.45l-3.678 11.668h-12.183l20.228-57.93h12.528l20.228 57.93h-12.068zm-2.414-7.78-5.057-15.558q-1.723-5.793-2.988-12.413h-.345q-1.494 7.862-2.988 12.413l-4.942 15.558zM333.476 36.052h-16.78v49.985h-11.838V36.052h-16.666v-7.944h45.284zM365.656 87.113q-11.493 0-18.044-5.13-6.551-5.214-6.551-14.318V46.48q0-9.104 6.551-14.234 6.551-5.214 18.044-5.214t18.045 5.214q6.55 5.13 6.55 14.234v21.185q0 9.104-6.55 14.317-6.551 5.131-18.045 5.131zm0-8.193q6.207 0 9.425-2.896t3.218-8.359V46.48q0-5.462-3.218-8.359-3.218-2.896-9.425-2.896-6.206 0-9.424 2.896t-3.218 8.359v21.185q0 5.462 3.218 8.359 3.218 2.896 9.424 2.896zM422.893 65.017h-7.241v21.02h-11.608v-57.93h20.802q11.494 0 17.815 4.8 6.321 4.718 6.321 13.324 0 6.704-3.793 11.255-3.792 4.552-10.688 6.373l17.47 22.178h-12.873Zm-7.241-7.944h8.965q6.09 0 9.194-2.731 3.218-2.731 3.218-7.945 0-5.131-3.103-7.696-3.103-2.649-9.195-2.649h-9.08zM480.129 87.113q-10.804 0-17.125-4.552-6.322-4.551-6.436-12.413h11.838q.114 4.386 3.103 6.62 3.103 2.235 8.62 2.235 5.631 0 8.505-2.152 2.988-2.151 2.988-5.793 0-3.475-3.563-5.875-3.563-2.483-10.804-5.545-6.321-2.814-10.114-4.965-3.792-2.152-6.55-5.38-2.644-3.227-2.644-7.613 0-4.138 2.643-7.448 2.759-3.393 7.7-5.297 5.058-1.903 11.724-1.903 10.229 0 16.205 4.386 5.977 4.386 6.206 11.834h-11.838q-.115-4.055-2.873-6.124t-7.585-2.069-7.586 1.82q-2.758 1.822-2.758 4.966 0 2.4 1.839 4.22 1.839 1.822 4.482 3.228 2.758 1.325 7.7 3.476 6.437 2.731 10.344 4.883 3.908 2.151 6.666 5.544 2.759 3.31 2.759 7.945 0 4.386-2.759 8.027-2.758 3.642-8.16 5.793-5.287 2.152-12.527 2.152z" style="font-weight:700;font-size:97.196px;line-height:1.25;font-family:Akrobat;-inkscape-font-specification:&quot;Akrobat Bold&quot;;text-align:center;letter-spacing:0;word-spacing:0;baseline-shift:baseline;text-anchor:middle;stroke:#fff;stroke-width:1.83622;stroke-linecap:butt;stroke-linejoin:miter;stroke-miterlimit:4;stroke-dasharray:none;stroke-opacity:1;stop-color:#000;fill:#fff;fill-opacity:1" transform="matrix(.99694 0 0 1.00005 -.001 -.003)"/></g><text xml:space="preserve" x="200.674" y="102.043" style="font-style:normal;font-variant:normal;font-weight:700;font-stretch:normal;font-size:92px;line-height:1.25;font-family:Akrobat;-inkscape-font-specification:&quot;Akrobat Bold&quot;;font-variant-ligatures:normal;font-variant-position:normal;font-variant-caps:normal;font-variant-numeric:normal;font-variant-alternates:normal;font-variant-east-asian:normal;font-feature-settings:normal;font-variation-settings:normal;text-indent:0;text-align:center;text-decoration-line:none;text-decoration-style:solid;text-decoration-color:#000;letter-spacing:0;word-spacing:0;text-transform:none;writing-mode:lr-tb;direction:ltr;text-orientation:mixed;dominant-baseline:auto;baseline-shift:baseline;text-anchor:middle;white-space:normal;vector-effect:none;fill:#000;fill-opacity:1;stroke:none;stroke-width:2.23485;stroke-linecap:butt;stroke-linejoin:miter;stroke-miterlimit:4;stroke-dasharray:none;stroke-dashoffset:0;stroke-opacity:1;-inkscape-stroke:none;stop-color:#000" transform="scale(1.23974 .80662)"/></svg>