<svg xmlns="http://www.w3.org/2000/svg" viewBox="0 0 1078.9 618.7"><path d="M257.221 560.401v-58.292l9.991-1.002c48.016-4.813 70.977-15.185 101.759-45.967 35.902-35.902 59.944-80.902 99.753-186.711 26.342-70.014 48.179-112.521 82.39-160.38 29.859-41.771 77.178-75.62 130.164-93.112C707.386 6.319 742.898 0 765.22 0h8.567v116.694l-9.991.873c-26.478 2.311-47.939 8.879-68.659 21.013-27.562 16.14-61.414 57.572-80.451 98.465-6.606 14.19-10.25 13.097 43.65 13.097h47.365v118.382l-72.656.384-72.656.384-7.991 17.663c-20.485 45.279-44.381 87.918-67.793 120.968-44.988 63.509-105.049 98.039-188.901 108.603-9.361 1.179-21.85 2.15-27.752 2.156l-10.731.012z" style="fill-opacity:1;stroke:none;fill:#fff"/><path d="m60.799 347.309-5.895-14.906H25.518l-5.575 14.906H0l31.846-75.924h17.803l31.525 75.924zm-20.374-55.656-9.652 26.057h19.089zm117.945 17.478q0 9.976-3.698 17.211-3.701 7.24-9.758 11.908-6.06 4.663-13.673 6.861a55.4 55.4 0 0 1-15.445 2.198H87.487v-75.924h27.455q8.04 0 15.867 1.878 7.832 1.878 13.94 6.22 6.114 4.344 9.87 11.636 3.751 7.288 3.751 18.012m-19.089 0q0-6.434-2.092-10.67-2.09-4.236-5.575-6.755-3.484-2.518-7.933-3.59a39 39 0 0 0-9.171-1.073h-9.113v44.394h8.686q4.93 0 9.491-1.126 4.556-1.125 8.04-3.697 3.484-2.577 5.575-6.866 2.092-4.29 2.092-10.617m110.346-.107q0 9.01-3.11 16.464t-8.632 12.762q-5.523 5.304-13.135 8.2-7.614 2.897-16.518 2.897-8.9 0-16.459-2.897-7.56-2.896-13.082-8.2-5.521-5.308-8.632-12.762t-3.11-16.464q0-9.112 3.11-16.459t8.632-12.494q5.522-5.149 13.082-7.934 7.56-2.79 16.459-2.79 8.904 0 16.518 2.79 7.612 2.785 13.135 7.934 5.521 5.148 8.632 12.494 3.11 7.347 3.11 16.459m-19.622 0q0-4.929-1.611-9.219-1.606-4.29-4.45-7.347-2.844-3.056-6.861-4.828-4.023-1.766-8.851-1.766-4.823 0-8.792 1.766-3.965 1.772-6.861 4.828-2.898 3.057-4.45 7.347-1.557 4.29-1.557 9.219 0 5.149 1.61 9.491 1.606 4.343 4.45 7.454t6.808 4.881q3.97 1.767 8.792 1.766 4.828 0 8.798-1.766 3.963-1.772 6.861-4.881t4.503-7.454q1.611-4.342 1.611-9.491m90.922 16.192q0 6.221-2.465 10.457-2.47 4.236-6.541 6.808-4.075 2.577-9.277 3.702a50.3 50.3 0 0 1-10.67 1.126h-30.24v-75.924h30.24q4.395 0 9.005.912 4.615.912 8.366 3.11 3.756 2.199 6.114 5.949 2.358 3.756 2.358 9.545 0 6.327-3.431 10.457t-9.006 5.953v.214a20.6 20.6 0 0 1 6.056 1.985 17.5 17.5 0 0 1 4.935 3.697q2.091 2.252 3.324 5.255t1.232 6.754m-20.802-31.845q0-3.862-2.95-5.634-2.95-1.766-8.739-1.766h-9.011v15.654h9.87q5.143 0 7.987-2.092t2.843-6.162m2.465 30.133q0-4.722-3.537-6.541-3.542-1.825-9.438-1.825h-10.19v17.372h10.297q2.145 0 4.45-.374 2.304-.378 4.182-1.339a8 8 0 0 0 3.057-2.737q1.179-1.772 1.179-4.556m30.463 23.805v-75.924h51.042v15.552h-33.35v14.261h31.525v14.692h-31.525v15.761h35.281v15.658zM770.255 286.984v15.695h29.464v15.161h-29.464v29.571h-18.172v-76.127h50.108v15.7zm43.754 60.427v-76.127h18.493v60.105h29.459v16.022zm108.17 0-5.916-14.946h-29.46l-5.59 14.946h-20.001l31.936-76.127h17.845l31.615 76.127zm-20.43-55.805-9.677 26.127h19.14zm87.401-.535q-2.365-3.012-6.184-4.788-3.815-1.776-7.366-1.776-1.825 0-3.708.326-1.883.321-3.386 1.236a8.4 8.4 0 0 0-2.53 2.365q-1.022 1.45-1.022 3.712 0 1.932.808 3.226.808 1.289 2.365 2.257 1.561.969 3.712 1.771 2.15.808 4.836 1.669a243 243 0 0 1 8.067 2.851q4.194 1.557 7.633 4.135 3.44 2.584 5.698 6.398 2.257 3.82 2.257 9.517 0 6.558-2.418 11.346-2.418 4.782-6.505 7.901t-9.356 4.622a39.3 39.3 0 0 1-10.859 1.508q-8.169 0-15.808-2.851-7.634-2.851-12.683-8.115l12.041-12.261q2.793 3.44 7.366 5.756 4.569 2.311 9.084 2.311 2.043 0 3.98-.433 1.935-.429 3.386-1.396a7 7 0 0 0 2.311-2.579q.861-1.615.861-3.873 0-2.15-1.075-3.654-1.076-1.508-3.065-2.744-1.99-1.236-4.944-2.257a252 252 0 0 0-6.723-2.204 64 64 0 0 1-7.147-2.798 23.7 23.7 0 0 1-6.238-4.14q-2.743-2.525-4.408-6.125-1.669-3.606-1.669-8.763 0-6.344 2.584-10.864 2.579-4.515 6.772-7.415 4.195-2.904 9.463-4.247a42.8 42.8 0 0 1 10.646-1.348q6.452 0 13.17 2.37 6.719 2.364 11.774 6.986zm71.388 56.34v-31.829h-29.678v31.829h-18.386v-76.127h18.386v28.817h29.678v-28.817h18.386v76.127z" style="fill:#fff"/></svg>