<svg xmlns="http://www.w3.org/2000/svg" viewBox="0 0 264 31"><path d="M225.74 59.585c-5.057 6.87-10.066 8.822-12.257 9.875-2.187 1.056-5.503 1.883-8.403 1.883-8.137 0-14.486-2.652-19.051-7.938-4.565-5.308-6.846-12.748-6.846-22.401 0-11.408 2.878-21.085 8.659-29.072C193.621 3.97 201.284.002 210.834.002c7.245 0 13.171 2.034 17.811 6.125 4.638 4.071 6.946 10.47 6.946 19.175h-14.015q0-6.25-2.758-8.78c-1.832-1.663-4.466-2.508-7.911-2.508-5.631 0-9.973 2.755-13.074 8.238-3.075 5.506-4.641 11.755-4.641 18.776 0 4.789 1.02 8.708 3.002 11.732 2.01 3.053 5.009 4.565 9.007 4.565 4.167 0 7.389-1.192 9.722-3.549 2.308-2.329 4.019-5.358 5.111-9.055h-13.05l2.112-12.699h25.448l-2.157 12.301c.003.006-1.611 8.391-6.647 15.262M346.74 1.764l-11.385 67.92h-12.253l9.649-52.64-21.284 52.64h-10.044l-4.638-52.616-7.323 52.616h-12.398l11.333-67.92h17.392l3.895 47.824L329.23 1.637zM359.714 28.057h20.02l-2.088 13.173h-20.017l-2.577 14.462h22.594l-2.227 13.992h-35.622l11.26-67.995h35.197L384.1 15.777h-22.153zM253.028 1.637l-27.385 68.047h13.346l4.885-13.273h17.464l1.14 13.273h12.923L267.662 1.64h-14.634Zm-4.912 43.166 9.924-27.065 2.305 27.065zM455.384 59.585c-5.06 6.87-10.063 8.822-12.254 9.875-2.19 1.056-5.506 1.883-8.406 1.883-8.134 0-14.486-2.652-19.048-7.935-4.568-5.311-6.849-12.751-6.849-22.401 0-11.411 2.878-21.085 8.659-29.072C423.264 3.973 430.928.002 440.481.002c7.242 0 13.171 2.037 17.808 6.128 4.641 4.071 6.946 10.47 6.946 19.175h-14.012q.001-6.25-2.755-8.78c-1.835-1.663-4.466-2.505-7.914-2.505-5.631 0-9.973 2.752-13.071 8.235-3.078 5.506-4.641 11.755-4.641 18.776 0 4.789 1.017 8.708 2.999 11.732 2.013 3.053 5.012 4.565 9.007 4.565 4.17 0 7.392-1.189 9.725-3.549 2.308-2.329 4.019-5.355 5.111-9.054h-13.05l2.109-12.7h25.451l-2.16 12.304s-1.614 8.385-6.65 15.256M481.532 28.081h19.992l-2.058 13.149h-20.019l-2.601 14.462h22.62l-2.232 14.013h-35.623l11.264-68.016h35.2l-2.158 14.088h-22.156zM525.783 1.665l-27.385 68.043h13.373l4.858-13.273h17.488l1.141 13.273h12.899l-7.74-68.043zM520.895 44.8l9.9-27.062 2.332 27.062zM568.846 31.578l2.978-16.743h7.142c2.628 0 4.59.471 5.905 1.415 1.313.966 1.958 2.876 1.958 5.754 0 3.226-1.065 5.606-3.174 7.193-2.136 1.591-4.837 2.381-8.11 2.381zm-8.062-29.889-11.261 68.016h13.02l4.369-25.922h6.026l10.071 25.922h14.933l-11.164-28.701c3.895-1.982 7.245-5.283 9.577-8.729q3.644-5.322 3.645-12.428c0-6.424-1.439-11.04-4.342-13.892-2.875-2.851-6.973-4.266-12.229-4.266zM10.872 27.816C22.361 8.544 38.181-3.486 46.204.907c8.005 4.412 5.184 23.608-6.33 42.867-11.49 19.275-27.307 31.302-35.312 26.908-8.023-4.408-5.183-23.61 6.31-42.866M62.277 27.816C73.77 8.544 89.587-3.486 97.607.907c8.005 4.412 5.184 23.608-6.327 42.867-11.493 19.275-27.31 31.302-35.312 26.908-8.023-4.408-5.184-23.61 6.309-42.866M113.683 27.816c11.49-19.275 27.31-31.302 35.33-26.912 8.005 4.412 5.183 23.611-6.328 42.87-11.492 19.275-27.306 31.302-35.311 26.905-8.026-4.405-5.184-23.607 6.309-42.863" style="fill-opacity:1;fill:#fff" transform="scale(.44 .43304)"/></svg>