<svg xmlns="http://www.w3.org/2000/svg" viewBox="0 0 264 73"><path d="M144.397 67.576c-.482-1.463-1.758-2.857-1.758-2.857s-1.915-2.486-5.679-3.336c-3.223-.674-5.754.747-5.754.747s-2.299.921-4.027 2.826c-2.752 2.648-3.544 6.515-3.544 6.515s-1.055 3.366.616 6.033l1.815 2.196c2.563 2.138 5.301 2.355 5.301 2.355s2.21.499 4.789-.173c2.254-.456 3.894-1.569 3.894-1.569s3.733-2.064 4.758-6.279zm-5.815 7.012s-1.492 2.607-4.771 2.298c-3.851-.394-4.304-3.776-4.304-3.776s-.528-2.489 1.844-4.657c2.402-2.018 4.906-1.712 4.906-1.712s1.682.16 2.548 2.943c1.112 3.543-.223 4.904-.223 4.904" style="fill-opacity:1;fill:#fff" transform="scale(.88 .8753)"/><path d="M156.841 74.632c-1.232-.271-3.207.234-3.207.234s-2.751 1.01-3.176.995c-.162-.233-.511-4.729-.411-6.529.06-3.177-.206-5.769-.206-5.769s-.131-3.061-1.771-4.875c-1.932-1.948-3.28-1.112-4.055-.646-1.86 1.671-.995 3.704-.995 3.704l.966 2.74s.468 1.171.411 3.088l.409 6.458c0 .864.703 6.677.703 6.677s.072 1.889 1.888 2.225c1.861.308 3.69-.616 4.466-.983.776-.364 1.801-.686 1.801-.686s.849-.191 1.698-.263c1.992-.192 2.708-.541 2.708-.541s.77-.117 1.29-.851c.518-.733 1.144-4.171-2.519-4.978M124.251 77.501c-1.31-.391-2.81-.13-2.81-.13s-4.247.409-6.458-.059c-3.425-.6-3.311-4.29-3.311-4.29s-.114-2.447 1.949-5.755c2.548-4.085 5.36-4.817 5.36-4.817s.7-.263 1.36.088c.41 2.37 2.707 2.355 2.707 2.355s3.312.222 3.148-3.79c-.38-3.295-3.556-3.747-4.889-4.056-3.995-.718-6.59 1.421-6.59 1.421s-2.678 1.448-5.884 6.499c-2.184 3.133-2.447 5.595-2.447 5.595s-.262.584-.161 3.192c-.057 2.034.705 3.513.705 3.513s1.156 3.502 4.817 4.936c2.225.922 5.475.908 5.475.908s3.148-.045 5.563-.176c1.319.102 1.948-.587 1.948-.587s1.477-.966 1.332-2.65c0 0-.286-1.739-1.814-2.197" style="fill-opacity:1;fill:#fff" transform="scale(.88 .8753)"/><path d="M177.442 66.799c-2.56-4.186-7.071-4.816-7.071-4.816s-1.435-.485-4.509-.076c-5.768 1.1-7.775 5.536-7.775 5.536s-2.065 3.25-1.245 7.189l2.521 4.978c1.859 1.743 2.62 1.743 2.736 1.847 2.461 1.112 5.315.468 5.315.468s3.604-.352 6.898-2.915c2.634-1.932 3.777-4.772 3.777-4.772l.349-3.812zm-7.011 8.549c-4.143 2.491-6.752-.233-6.752-.233s-1.156-.762-1.406-3.075c-.177-2.679 2.491-4.07 2.491-4.07s1.405-.865 3.162-.732c1.756.131 2.311.015 3.734 1.07 1.345 1.214 1.257 2.106 1.257 2.106s.484 3.018-2.486 4.934" style="fill-opacity:1;fill:#fff" transform="scale(.88 .8753)"/><path d="M178.087 74.238s.088 2.342-.278 2.914c-.498 1.068-.424 2.106-.424 2.106s-.339 3.164 3.325 3.689c2.515-.013 2.823-2.108 2.867-3.001.145-.702.088-3.967.088-3.967l3.266 2.664s2.371 1.991 3.764 3.147c1.449 1.142 1.814 1.348 1.814 1.348s.308.365 1.42.233c.895.016 1.715-.791 1.715-.791s1.037-.759 1.301-2.093c.321-1.581-.908-2.357-.908-2.357s-4.537-3.661-7.611-6.179c2.062-1.128 3.058-1.902 3.058-1.902s2.872-1.904 3.485-4.818c.851-3.208-1.566-4.466-1.566-4.466s-1.509-1.083-2.781-1.655c-3.208-1.566-6.194-1.245-6.194-1.245s-4.246-.292-7.012 3.121c-1.275 1.653-.483 3.821-.483 3.821s.157.347.512 1.99c.709 3.309.642 7.441.642 7.441m5.564-6.502-.278-3.821s2.679-.059 3.792.132c2.197.335 2.078.952 2.078.952s-.073.776-1.741 1.537c-1.814.878-3.851 1.2-3.851 1.2" style="fill-opacity:1;fill:#fff" transform="scale(.88 .8753)"/><path d="M286.972.484H300l-18.367 28.573-2.979 22.291H266.88l3.451-25.435L258.557.484h12.715l6.282 14.445ZM149.773 31.253h15.537l1.571-11.302h-15.382l1.101-8.165h17.891l1.73-11.302h-29.67l-7.064 50.864h29.511l1.57-11.307h-17.895ZM59.352 26.227l3.925-10.517 1.257 10.517h-5.181Zm-4.238 10.047h10.673l1.886 15.07H86.98l8.949-27.629 4.396 27.629h10.205l11.302-29.198 1.884 29.198h11.301L131.878.482h-13.501l-10.519 26.843L103.776.482H91.689L77.874 42.239 72.694.482h-15.07L40.826 42.708l2.198-16.481h-20.41L21.2 36.272h8.949l-.629 3.454c-1.569.941-5.179 1.099-6.592 1.099s-11.93-.941-11.46-12.245c.468-11.301 15.537-21.819 33.433-16.011l1.728-10.832C34.698-2.343 3.363-.059.161 27.952-1.721 44.436 13.35 52.285 23.395 52.13c5.808.314 12.403-1.884 14.756-3.141l-.784 2.355h11.931l5.808-15.07Z" style="fill:#fff" transform="scale(.88 .8753)"/><path d="M245.841.014c-8.163-.315-19.937 4.395-23.861 23.39-3.924 18.993 6.592 26.686 16.326 27.943 9.733 1.255 23.391-4.867 25.901-23.076C266.722 10.06 257.768.485 245.841.014m-1.253 10.832c3.296 0 10.359 2.198 8.632 15.382-1.726 13.187-9.889 14.757-12.871 14.444-2.985-.316-9.106-2.355-7.379-14.444 1.73-12.085 8.165-15.54 11.621-15.382Z" style="fill:#fff" transform="scale(.88 .8753)"/><path d="M196.234 19.951h6.594c4.865 0 5.808-3.14 5.963-4.395.157-1.256-1.255-3.768-3.765-3.768h-7.692l-1.096 8.163Zm-2.826 20.093h8.949c4.865 0 5.964-3.767 6.121-5.024.157-1.255-1.256-3.767-3.767-3.767h-10.046l-1.255 8.791Zm-13.182 11.303L187.291.485h21.662c5.182 0 12.716 5.967 11.775 13.971-.942 8.007-3.454 8.479-5.181 9.734 2.67 2.353 5.337 6.12 4.239 13.185-1.1 7.066-6.908 13.972-17.11 13.972h-22.449Z" style="fill:#fff" transform="scale(.88 .8753)"/></svg>