<svg xmlns="http://www.w3.org/2000/svg" viewBox="0 0 264 56"><path d="M31.801 28.458v5.851H7.636v14.943h17.608v-4.141H15.092v-6.256H32.25v11.41c-.074 1.912-3.888 5.736-6.019 5.736H6.57C3.8 56.001 0 52.195 0 50.274V33.768c0-3.214 2.092-5.31 4.818-5.31zM50.523 49.094v6.481h-19.91l16.17-27.442h6.401l12.398 20.96v-20.96h7.04l11.083 18.8 11.05-18.8h6.973v27.442h-6.973l-.034-13.941-8.085 13.941h-5.929l-8.052-13.976-.033 13.976H60.731L49.748 36.773l-7.277 12.32zM104.322 28.133v27.442h28.095v-6.482h-20.482v-4.726h11.859V38.36h-11.859v-4.321h20.482v-5.906zM160.491 38.922h7.006v-5.941s.763-4.881-4.312-4.881h-22.097c-2.178 0-3.211 1.035-3.211 2.699v19.442c0 2.725 2.605 5.334 4.267 5.334h21.628s3.766.516 3.766-3.714v-8.078h-7.023v5.355h-15.632V34.579h15.071v4.342zM170.214 28.098h7.546v21.063h15.615V28.098h7.554v22.7s.481 4.86-6.459 4.86h-18.325s-5.93.541-5.93-4.86zM233.266 44.279v7.059c0 2.499-1.832 4.336-7.551 4.336h-22.093V28.1h25.882c2.383 0 3.764 1.382 3.764 3.78v7.55c0 .599-.815 1.631-2.685 1.631.012.128 0 0 0 .524 1.255 0 2.683 1.431 2.683 2.694m-7.006 4.349v-3.225c0-.891-.21-1.102-.54-1.102h-14.542v4.861h14.014c.776 0 1.068-.292 1.068-.534m0-10.802v-3.225c0-.89-.21-1.1-.54-1.1h-14.542v4.859h14.014c.776 0 1.068-.292 1.068-.534M235.939 55.673H264v-6.546h-21.054v-4.793h11.858V38.36h-11.858v-4.321h20.515v-5.974h-27.522zM103.122.288v3.24h6.467v17.248h4.357V3.528h6.423V.288zM5.82.016v20.488h3.772V5.45l8.085 15.054h4.279V.016h-4.312v12.353L11.176.016zM70.493.016v20.488h3.773V5.45l8.085 15.054h4.279V.016h-4.312v12.353L75.851.016zM44.08.016h4.303v20.488H44.08zM141.648 7.565v.551h11.857v3.241h-11.857v4.321c0 .464 1.138 1.603 1.6 1.603h10.257v3.269h-11.857c-2.218 0-3.785-1.91-3.785-3.792V3.786c0-2.357 1.409-3.77 3.762-3.77h11.88v3.24h-9.702c-1.033 0-2.155 1.125-2.155 1.654M224.147 3.797V16.79c0 .983-2.77 3.759-4.376 3.759h-11.826V.016h10.747c3.341 0 5.455 2.117 5.455 3.781m-3.817 11.891V4.909c0-.378-1.271-1.653-2.16-1.653h-6.453v14.582h6.468c.663 0 2.145-1.486 2.145-2.15M259.16 4.876v10.77c0 3.104-2.329 5.433-5.897 5.433h-5.465c-3.449 0-5.734-2.166-5.891-5.109q-.006-.162-.005-.324V4.289c0-2.063 2.22-4.288 4.835-4.288h7.545c3.164-.001 4.878 1.711 4.878 4.875m-4.339 10.278V5.417c0-.794-1.38-2.177-2.156-2.177h-4.279c-1.11 0-2.189 1.081-2.189 2.09v9.824c0 1.538.588 2.128 1.633 2.128h4.868c1.046 0 2.123-1.081 2.123-2.128M171.558.288v20.488h3.772V5.723l8.085 15.053h4.278V.288h-4.311v12.353L176.914.288z" style="fill:#fff"/></svg>