<svg xmlns="http://www.w3.org/2000/svg" viewBox="0 0 264 128"><path d="M264 98.604c-2.055 0-3.998.04-5.941-.02-1.151-.033-1.75-.62-1.983-1.794-.126-.626-.099-1.28-.219-1.907-.206-1.073-.792-1.367-1.75-.866q-.838.478-1.577 1.086-8.331 6.503-18.569 3.995c-5.456-1.334-9.002-5.802-9.401-11.556-.632-9.108 5.329-14.87 12.202-16.783 2.695-.754 5.562-.927 8.363-1.254 2.475-.293 4.97-.427 7.445-.66 1.377-.133 1.823-.613 1.703-1.967-.199-2.28-.266-4.608-.791-6.815-.852-3.62-3.433-5.454-7.046-5.821-5.416-.56-10.672.24-15.775 2.134-.406.153-.838.427-1.237.387-.36-.034-.865-.334-1.012-.654-.372-.853-.585-1.787-.865-2.687-.386-1.22-.126-1.907 1.038-2.34 6.367-2.368 12.848-4.168 19.72-3.508 2.176.187 4.325.634 6.401 1.321 5.083 1.753 7.465 5.727 8.742 10.795.612 2.407.506 4.734.519 7.095.053 10.115.02 20.237.02 30.359Zm-14.464-23.951c-3.034.067-6.048.213-8.988 1.1-3.859 1.174-6.041 3.661-6.441 7.762-.499 5.141 2.582 8.988 7.658 9.375 2.628.206 5.037-.634 7.385-1.694 2.768-1.24 4.545-3.341 4.817-6.381.266-2.987.227-6.008.273-9.015.007-.754-.506-1.147-1.271-1.147-1.144-.007-2.288 0-3.433 0M168.287 78.234v17.883c0 2.08-.406 2.487-2.475 2.507-.606 0-1.211.02-1.817 0-2.155-.093-3.073-1-3.326-3.167-.067-.6-.313-1.174-.479-1.767-.619.28-1.331.447-1.85.853-3.439 2.694-7.265 4.508-11.616 5.101-4.352.594-8.463-.16-12.202-2.533-2.682-1.707-3.946-4.395-4.591-7.375-1.51-6.995.585-14.63 10.013-18.19a36.1 36.1 0 0 1 11.949-2.268c1.544-.04 3.081-.06 4.618-.1 1.33-.033 2.062-.493 2.342-1.667.758-3.24.572-6.387-1.125-9.328-1.537-2.661-4.045-3.594-6.913-3.961-4.73-.613-9.241.427-13.732 1.721-.805.226-1.597.506-2.395.78-.845.286-1.271-.087-1.477-.88-.18-.681-.346-1.367-.592-2.028-.606-1.627-.313-2.44 1.35-2.953 2.795-.874 5.602-1.741 8.443-2.408 5.389-1.26 10.799-1.467 16.188.1 6.014 1.741 9.521 6.315 9.607 12.616.033 2.847 0 5.688 0 8.535v8.535Zm-9.155 2.553h-.067c0-1.52.014-3.047 0-4.561-.013-1.273-.306-1.587-1.55-1.573-1.75.013-3.506-.027-5.249.127-2.103.18-4.238.353-6.281.846-4.338 1.054-6.374 3.341-6.893 7.548-.372 3.028.1 5.855 2.695 7.849 2.289 1.753 4.93 2.293 7.738 1.707 3.1-.647 5.715-2.347 8.25-4.141 1.144-.814 1.364-2.107 1.364-3.441q-.009-2.18-.007-4.361M198.785 89.222c1.324-3.967 2.815-7.888 3.946-11.909 1.836-6.568 3.506-13.189 5.103-19.817.545-2.287.698-4.674.958-7.035.186-1.66.339-1.9 2.022-1.913 2.229-.027 4.451-.027 6.667.04 1.191.033 1.49.487 1.224 1.653-3 13.11-6.081 26.199-10.938 38.788-.945 2.454-1.982 4.874-3.034 7.295-.818 1.88-1.776 2.353-3.819 2.3a151 151 0 0 0-7.371 0c-1.724.033-2.283-.293-2.801-1.96a91599 91599 0 0 1-14.338-46.056c-.1-.32-.18-.653-.233-.987-.113-.706.16-1.1.918-1.093 1.923 0 3.846-.014 5.762 0 1.909.013 3.286.973 3.925 2.787 1.045 2.961 2.096 5.921 2.988 8.942 2.601 8.808 5.123 17.643 7.684 26.458.246.834.625 1.627.945 2.441ZM120.956 63.817c0 7.515.086 15.023-.034 22.531-.066 4.121-.186 8.269-.798 12.329-1.124 7.502-5.056 13.163-11.816 16.824-2.761 1.5-6.301-.46-7.232-2.507-.346-.754-.406-1.354.485-1.861 5.662-3.254 8.417-8.395 9.102-14.729.286-2.647.319-5.335.326-8.009.053-12.315.08-24.631.073-36.953 0-5.895-.093-11.776-.126-17.664-.013-3.067.625-3.694 3.692-3.587 1.278.04 2.555.12 3.826.273 1.437.18 1.989.74 2.222 2.187q.162 1.11.133 2.227.021 14.465 0 28.939ZM62.247.012c.12.146.3.273.346.44 1.165 4.607 1.484 9.202-.173 13.782-1.191 3.281-3.14 6.048-5.602 8.469-4.091 4.027-8.23 8.001-12.295 12.055-1.364 1.361-2.581 2.861-3.825 4.328-3.899 4.581-4.658 9.655-2.096 15.103 1.271 2.687 2.814 5.241 4.218 7.861.166.307.293.641.432.967l-.292.234c-.4-.454-.792-.927-1.211-1.367a65.7 65.7 0 0 1-9.275-12.129c-2.022-3.401-2.069-6.802.166-10.016 1.597-2.28 3.36-4.527 5.396-6.408 4.012-3.707 8.29-7.134 12.409-10.722 1.936-1.68 3.885-3.374 5.628-5.247 3.793-4.094 5.616-9.082 6.028-14.616.04-.527-.126-1.067-.166-1.601-.027-.36 0-.727 0-1.093Zm0 0" style="stroke:none;fill-rule:nonzero;fill:#fff;fill-opacity:1"/><path d="M73.285 25.443c-3.692 2.774-7.305 5.268-10.672 8.075-2.095 1.761-3.965 3.861-5.648 6.035-2.342 3.02-2.349 6.301-.293 9.555 1.257 2 2.555 3.981 3.719 6.034 1.231 2.167 2.142 4.475 1.763 7.055a6.6 6.6 0 0 1-.572 2.034c-1.583 3.114-4.045 5.401-6.873 7.315l-.233-.154c.173-.28.333-.573.519-.847 2.196-3.227 2.243-6.501.147-9.782-.719-1.14-1.597-2.18-2.389-3.273-1.783-2.448-3.32-5.028-3.912-8.055-.911-4.595.419-8.562 3.506-11.989 3.314-3.668 7.326-6.375 11.77-8.435 2.675-1.241 5.456-2.294 8.197-3.421.246-.1.545-.087.971-.147M89.193 110.673c.745.814.572 1.467-.013 1.894-1.377 1.013-2.735 2.127-4.265 2.847-3.779 1.76-7.831 2.701-11.916 3.427-8.616 1.534-17.332 2.041-26.054 2.307-9.175.274-18.336.087-27.485-.493-5.189-.333-10.332-1-15.349-2.42a14.5 14.5 0 0 1-3.14-1.347c-1.098-.627-1.271-1.581-.486-2.574a7.7 7.7 0 0 1 2.063-1.901c3.08-1.767 6.453-2.653 10.046-2.893-.332.153-.672.293-.998.453-.945.453-1.903.873-2.807 1.387-.746.413-1.231 1.067-1.158 1.987s.699 1.42 1.47 1.627c2.469.653 4.93 1.42 7.439 1.814 11.31 1.727 22.681 2.027 34.084 1.34 7.399-.454 14.797-.9 22.182-1.54 4.697-.407 9.375-1.101 13.779-2.981 1.257-.547 2.322-1.254 2.608-2.934M66.971 105.019c-3.453.86-6.873 1.907-10.366 2.554-8.682 1.627-17.365 1.446-25.947-.747a16.4 16.4 0 0 1-4.504-1.954c-1.97-1.234-1.903-2.947.026-4.281.759-.52 1.617-.9 2.628-1.453.087 2.573 1.697 3.2 3.606 3.4 8.55.934 17.186.72 25.682-.633 2.269-.367 4.085-.24 5.915 1.067.918.653 1.969 1.133 2.954 1.693ZM68.615 90.989c-3.846.814-7.672 1.761-11.531 2.441-7.631 1.32-15.309.88-22.98.32-3.712-.267-7.372-.754-10.865-2.134-1.024-.407-2.022-.813-2.175-2.114-.16-1.307.452-2.307 1.53-2.974.938-.58 1.936-1.053 2.981-1.627-.34 3.048.193 3.561 3.193 4.381 1.763.487 3.653.587 5.496.687 9.907.52 19.713-.473 29.48-2.034a3.04 3.04 0 0 1 1.863.407c1.052.64 2.003 1.454 3.008 2.207ZM72.666 74.893c-1.889 2.254-4.371 2.38-6.766 2.707-9.414 1.28-18.842 2.567-28.363 2.527-8.19-.033-16.387-.226-24.404-2.154a7.3 7.3 0 0 1-1.716-.58c-.346-.18-.832-.6-.812-.88.027-.42.346-1 .705-1.193 1.597-.867 3.2-1.774 4.91-2.368 2.828-.986 5.722-1.76 8.596-2.593.3-.094.646-.014 1.038.173-.605.287-1.231.567-1.843.854-1.131.533-2.269 1.04-3.373 1.627-.778.406-1.371 1.013-1.211 2.02s.991 1.167 1.79 1.36c4.524 1.107 9.148 1.054 13.752 1.18 10.985.314 21.869-.886 32.747-2.12ZM25.555 125.656c2.069 0 4.151-.127 6.214.02 10.033.693 20.059.847 30.093.067 8.582-.674 17.118-1.627 25.255-4.661 2.169-.814 4.232-1.921 6.341-2.894.233-.107.466-.22.698-.327l.207.24c-.759.674-1.451 1.427-2.276 2.007-3.899 2.714-8.316 4.121-12.907 5.041-10.925 2.174-21.956 2.988-33.073 2.847-6.82-.086-13.606-.466-20.279-2.02-.094-.02-.187-.06-.28-.087ZM79.785 91.463c.978-.76 1.976-1.514 2.934-2.274 2.329-1.86 4.638-3.767 6.175-6.361.845-1.421 1.616-3.014 1.949-4.621.951-4.588-1.836-8.262-6.547-8.915-.831-.114-1.676-.154-2.508-.234l-.04-.286c1.238-.167 2.462-.454 3.699-.48 3.26-.074 5.975 1.247 8.164 3.6 2.242 2.407 2.681 6.282 1.011 9.275a15.8 15.8 0 0 1-2.548 3.488c-3.001 3-6.64 5.267-10.645 6.634-.499.174-1.025.274-1.544.407Zm0 0" style="stroke:none;fill-rule:nonzero;fill:#fff;fill-opacity:1"/></svg>