<svg xmlns="http://www.w3.org/2000/svg" xml:space="preserve" width="4689" height="982" viewBox="0 0 4689 982"><g fill-rule="evenodd" clip-rule="evenodd" style="fill:#fff;fill-opacity:1;stroke:none;stroke-opacity:1"><path d="M5.745 0h10.13l-3.629 21.317H2.42zM11.49 26.91h8.316l-1.21 8.618H0l1.814-11.035h9.978zM131.834 1.814h9.222l-.907 6.047h-9.222zM130.549 10.432h9.222l-1.663 11.188h-9.222zM128.433 24.493h9.221l-1.663 11.035h-9.222zM86.251 24.493h9.223L93.81 35.528h-9.223z" style="fill:#fff;fill-opacity:1;stroke:none;stroke-opacity:1" transform="translate(0 .238)scale(26.68024)"/><path d="M412.61 880.051c-.327 3.012-.554 6.85-.216 10.299.464 4.208 2.098 7.575 6.092 7.575 5.26 0 8.43-4.63 10.247-10.092 1.027-2.847 1.761-5.199 2.294-7.88l36.31-.1-7.398 46.953h-32.281l1.896-9.349c-7.998 10.175-14.404 12.625-27.865 12.625-25.706 0-29.814-28.518-28.184-50.022zM432.646 867.913c.03-2.674-.004-4.258-.134-6.131-.375-4.844-1.891-9.046-6.727-9.046-5.048 0-8.068 5.048-10.183 11.15-.301.949-.565 1.865-1.751 4.01l-39.444-.025c5.236-22.484 17.02-48.787 42.695-49.317 7.01-.145 20.104.813 25.226 10.828l1.118.217 1.657-9.05h31.635l-7.286 47.363zM479.047 867.913c-2.356-4.704-3.34-10.332-2.404-17.03 3.204-22.928 20.44-34.565 46.31-34.565 11.146 0 18.894 2.618 27.806 8.085l-4.243 29.44c-6.47-5.413-18.185-8.289-25.127-8.289-2.944 0-6.602.696-7.501 4.19-1.31 5.073 4.373 7.862 11.286 10.305 5.717 2.021 10.575 4.522 14.454 7.814zM548.465 880.15c1.76 4.828 2.286 10.637 1.43 16.768-3.5 25.028-24.978 34.443-47.902 34.443-15.144 0-21.515-2.822-33.556-9.976l5.384-32.942c4.101 5.257 18 13.64 27.3 13.162 3.57-.182 10.782-2.64 11.34-6.634s-1.16-6.94-10.132-9.795c-4.198-1.329-8.188-2.74-11.722-4.918zM591.113 880.068c-1.551 9.39-1.906 24.136 6.655 25.176 5.514.677 11.262-3.796 13.005-15.125h34.633c-6.036 35.598-26.899 42.06-51.716 41.878-27.04-.198-43.228-22.214-41.243-51.979zM954.572 867.905c5.08-27.906 18.674-50.702 57.549-51.587 7.629-.173 13.694 2.41 16.867 4.254l-5.026 30.216c-15.427-6.255-23.819 6.024-26.781 17.166zM996.29 880.068c1.04 6.956 5.046 13.442 12.848 13.442l8.483-.644-4.943 33.817c-6.024 1.592-11.771 2.55-19.57 2.442-29.677-.42-41.84-22.239-40.116-49.098zM777.05 880.068c-4.646 7.525-9.291 13.07-19.83 12.114l1.82-12.147-41.032.025-7.418 46.615h41.519c34.356 0 57.944-15.027 69.505-46.714zM760.588 867.938l8.132-52.402c16.607 0 20.436 12.774 17.242 35.768-.796 5.75-1.914 11.814-3.412 16.724l43.203.05c1.563-6.47 2.248-13.65 3.007-21.245 5.748-57.488-25.547-70.262-56.847-70.262h-38.965l-5.43 40.88c-6.387 1.276-22.036 3.193-30.342 14.372-1.597 1.597-2.554.957-2.236-.96l1.597-10.22h-36.725l-7.027 47.27h38.966c1.592-6.71 19.16-16.61 30.02-11.5l-1.824 11.458zM878.907 867.913c-2.356-4.704-3.342-10.332-2.405-17.03 3.205-22.928 20.44-34.565 46.309-34.565 11.148 0 18.897 2.618 27.809 8.085l-4.246 29.44c-6.47-5.413-18.187-8.289-25.127-8.289-2.941 0-6.601.696-7.5 4.19-1.309 5.073 4.373 7.862 11.288 10.305 5.714 2.021 10.575 4.522 14.449 7.814zM948.322 880.15c1.761 4.828 2.285 10.637 1.431 16.768-3.498 25.028-24.978 34.443-47.902 34.443-15.146 0-21.516-2.822-33.556-9.976l5.384-32.942c4.102 5.257 17.998 13.64 27.298 13.162 3.573-.182 10.785-2.64 11.342-6.634.56-3.994-1.16-6.94-10.13-9.795-4.2-1.329-8.19-2.74-11.721-4.918z" style="stroke-width:4.22495;fill:#fff;fill-opacity:1;stroke:none;stroke-opacity:1" transform="translate(-1808.975 -4903.745)scale(6.31492)"/><path d="M171.86 7.106h-.318V5.043h-.793v-.28h1.903v.28h-.793z" style="fill:#fff;fill-opacity:1;stroke:none;stroke-opacity:1" transform="translate(0 .238)scale(26.68024)"/><path d="M1025.3 806.593v-5.846c0-.29.03-1.545.03-2.47h-.03l-2.786 8.316h-1.324l-2.785-8.301h-.025c0 .91.025 2.164.025 2.455v5.846h-1.296v-9.902h1.919l2.826 8.37h.025l2.814-8.37h1.902v9.902zM606.758 816.318c-31.264.213-46.65 22.152-52.72 51.578l94.399.026c1.043-13.653.55-26.875-3.576-32.876-7.195-10.47-16.668-18.872-38.103-18.727zm.61 24.648c7.362 0 8.558 7.992 7.917 14.09h-19.14c.583-5.677 4.282-14.09 11.222-14.09" style="stroke-width:4.22495;fill:#fff;fill-opacity:1;stroke:none;stroke-opacity:1" transform="translate(-1808.975 -4903.745)scale(6.31492)"/></g></svg>