<svg xmlns="http://www.w3.org/2000/svg" viewBox="0 0 264 97"><path d="M63.098 45.537h19.834c8.108 0 14.704-6.598 14.704-14.704 0-8.104-6.596-14.663-14.704-14.663h-5.171a.73.73 0 0 1-.735-.733c0-.448.326-.773.735-.773h19.795l.041-6.192H77.761a6.92 6.92 0 0 0-6.925 6.925c0 3.87 3.095 7.006 6.925 7.006h5.171c4.644 0 8.433 3.789 8.433 8.431 0 4.644-3.789 8.391-8.433 8.391H63.098z" style="fill-opacity:1;fill:#fff"/><path d="M63.098 37.799h19.834a6.964 6.964 0 0 0 6.967-6.966 6.96 6.96 0 0 0-6.967-6.964h-5.171c-4.643 0-8.391-3.829-8.391-8.473a8.38 8.38 0 0 1 8.391-8.389h19.835L97.555.734H77.759c-8.105 0-14.663 6.557-14.663 14.703 0 8.106 6.558 14.663 14.663 14.663h5.132c.407 0 .734.327.734.733a.73.73 0 0 1-.734.733H63.096zM112.992 39.265a6.205 6.205 0 0 1-6.23-6.232V13.115c0-3.339 2.81-6.15 6.23-6.15h21.181V.734h-21.181c-6.882 0-12.463 5.58-12.463 12.463v19.836c0 6.884 5.58 12.464 12.463 12.464h21.1v-6.231z" style="fill-opacity:1;fill:#fff"/><path d="M108.267 13.196c0-2.606 2.118-4.766 4.725-4.766h21.181v6.233h-18.247c-1.468 0-1.468 1.466-1.468 1.466h15.234v6.232h-21.425zM112.992 37.759a4.73 4.73 0 0 1-4.725-4.726v-9.166h21.424v6.232h-15.233c0 1.467 1.466 1.467 1.466 1.467h18.166v6.191zM149.039 39.265c-3.461 0-6.273-2.812-6.273-6.232V13.197c0-3.421 2.812-6.232 6.233-6.232h20.529V.734h-20.57c-6.884 0-12.463 5.58-12.463 12.463v19.836c0 6.884 5.619 12.464 12.504 12.464h20.529V16.13h-17.637v6.232h11.405v16.903z" style="fill-opacity:1;fill:#fff"/><path d="M144.231 33.033c0 2.606 2.161 4.766 4.767 4.766h12.83V23.828h-9.938V30.1h3.707v1.466h-3.665c-.816 0-1.467-.69-1.467-1.466V16.13s0-1.467 1.467-1.467h17.595V8.43h-20.529c-2.606 0-4.766 2.159-4.766 4.766zM188.793 8.351c.284-.815 1.018-1.385 1.914-1.385s1.631.571 1.916 1.385l9.938 29.489h-14.539v-6.925h4.888l-2.2-6.558-7.17 21.14h-7.331z" style="fill-opacity:1;fill:#fff"/><path d="M204.597 39.265h-16.578v6.231h25.213L200.116 6.598C198.975 2.811 195.187 0 190.706 0c-4.479 0-8.267 2.77-9.408 6.598l-13.24 38.898h6.599l12.829-37.838c.53-1.263 1.751-2.118 3.217-2.118a3.43 3.43 0 0 1 3.179 2.118zM43.152 86.145H27.761v-1.743a25 25 0 0 0 2.148-.173q1.314-.145 1.805-.418.762-.463 1.117-1.067.356-.602.356-1.51v-25.33h-.368L20.938 85.58h-1.226L8.395 55.29h-.318v20.79q0 3.019.38 4.59.38 1.572 1.167 2.257c.36.342 1.103.673 2.232.985q1.694.467 2.21.488v1.743H0V84.4a18 18 0 0 0 2.32-.366q1.214-.27 1.878-.81.858-.685 1.178-2.111.32-1.422.318-4.762V58.53q0-1.546-.367-2.527-.368-.981-1.055-1.595-.761-.663-1.866-.983a9.6 9.6 0 0 0-2.184-.368v-1.742h11.881l9.964 26.116 8.518-21.846a21 21 0 0 0 .798-2.516q.332-1.314.357-1.754h11.364v1.742q-.688.026-1.755.221-1.067.199-1.559.368-.834.294-1.13.983a3.8 3.8 0 0 0-.294 1.496v25.11q0 .859.294 1.448.295.59 1.13 1.029.443.248 1.572.456c.752.137 1.35.218 1.791.231z" style="fill-opacity:1;fill:#fff"/><path d="M64.936 85.702q-1.152.42-2.025.676-.871.258-1.975.257-1.916.002-3.057-.895-1.141-.894-1.46-2.613h-.148c-1.063 1.176-2.205 2.079-3.424 2.699q-1.83.933-4.407.932c-1.816 0-3.309-.552-4.479-1.669q-1.754-1.667-1.754-4.369 0-1.4.393-2.504a6 6 0 0 1 1.177-1.988q.615-.732 1.62-1.313a15 15 0 0 1 1.89-.92q1.107-.417 4.48-1.547 3.375-1.126 4.553-1.766v-2.43q.001-.32-.136-1.227a5.1 5.1 0 0 0-.576-1.719 4.9 4.9 0 0 0-1.388-1.583q-.894-.674-2.539-.675-1.13 0-2.099.381-.97.383-1.362.798 0 .492.234 1.447.233.958.233 1.767 0 .86-.775 1.57c-.514.479-1.231.712-2.147.712-.817 0-1.419-.287-1.805-.87a3.46 3.46 0 0 1-.575-1.952q0-1.127.797-2.16.798-1.03 2.075-1.84c.737-.456 1.629-.848 2.675-1.166q1.571-.48 3.069-.479 2.061 0 3.596.282a6.6 6.6 0 0 1 2.786 1.215q1.251.91 1.902 2.466.65 1.56.651 4.014-.001 3.51-.074 6.221-.073 2.714-.072 5.929 0 .958.33 1.524.332.566 1.019.955.369.223 1.166.246a54 54 0 0 0 1.632.026zm-8.566-12.96c-1.391.41-2.609.808-3.657 1.203a14.6 14.6 0 0 0-2.92 1.473q-1.228.834-1.94 1.974c-.474.761-.712 1.668-.712 2.713q0 2.038 1.068 2.994t2.711.958q1.744 0 3.069-.848a8.9 8.9 0 0 0 2.233-2.001z" style="fill-opacity:1;fill:#fff"/><path d="M78.106 74.289a6.2 6.2 0 0 1 1.547 2.035q.54 1.158.54 2.823-.001 3.365-2.515 5.499-2.517 2.135-6.518 2.136-2.112 0-3.891-.762-1.78-.76-2.541-1.399l-.49 1.596h-1.841l-.245-8.421h1.693c.131.638.409 1.385.834 2.232a10.8 10.8 0 0 0 1.547 2.307 8.5 8.5 0 0 0 2.295 1.818q1.338.735 3.007.737 2.357 0 3.634-1.069 1.276-1.067 1.277-3.057c0-.688-.135-1.277-.405-1.778q-.406-.746-1.191-1.314-.81-.563-1.989-1.018a39 39 0 0 0-2.626-.897 24 24 0 0 1-2.565-.945q-1.412-.603-2.418-1.412a6.9 6.9 0 0 1-1.768-2.11q-.687-1.252-.687-2.946 0-2.969 2.209-5.032t5.916-2.063q1.422 0 2.909.367 1.484.37 2.417.883l.565-1.276h1.767l.368 7.78h-1.693q-.516-2.6-2.222-4.235-1.707-1.631-4.161-1.632-2.012.002-3.167 1.008-1.154 1.01-1.153 2.431 0 1.104.38 1.84c.254.492.633.907 1.142 1.253q.735.492 1.853.92c.745.286 1.664.612 2.762.969q1.62.516 3.056 1.203 1.435.698 2.368 1.529" style="fill-opacity:1;fill:#fff"/><path d="M93.558 85.088a37 37 0 0 1-3.019 1.117q-1.424.455-3.486.454-3.044.002-4.283-1.533-1.24-1.536-1.24-4.331V64.398h-4.37v-2.357h4.468v-7.536h4.468v7.536h6.946v2.357h-6.897v13.524q0 1.524.111 2.543c.073.678.249 1.275.527 1.778a2.52 2.52 0 0 0 1.178 1.08q.785.368 2.111.368.612 0 1.804-.113 1.19-.108 1.682-.282z" style="fill-opacity:1;fill:#fff"/><path d="M112.275 80.45q-1.522 2.897-4.075 4.614-2.553 1.719-5.867 1.717-2.919 0-5.119-1.03-2.194-1.03-3.62-2.798-1.423-1.766-2.123-4.122c-.467-1.572-.699-3.229-.699-4.982q0-2.357.748-4.628a13.1 13.1 0 0 1 2.197-4.086 10.7 10.7 0 0 1 3.474-2.811q2.074-1.069 4.651-1.068 2.651.002 4.54.835 1.89.835 3.069 2.281 1.129 1.38 1.682 3.242.551 1.865.552 4.049v1.62H95.657q0 2.383.453 4.322.456 1.939 1.436 3.412a6.8 6.8 0 0 0 2.504 2.246c1.03.55 2.258.82 3.682.82q2.184 0 3.767-1.02c1.057-.675 2.075-1.901 3.056-3.667zm-5.425-9.229q0-1.374-.233-2.945-.234-1.57-.749-2.627a5 5 0 0 0-1.547-1.841q-.98-.71-2.527-.711-2.58-.001-4.284 2.149-1.706 2.148-1.853 5.975z" style="fill-opacity:1;fill:#fff"/><path d="M128.438 65.059q0 1.251-.613 2.221c-.409.649-1.038.969-1.889.969q-1.376 0-2.101-.713-.722-.71-.723-1.569 0-.54.085-.982.087-.444.16-.884-1.154 0-2.7.933t-2.627 2.65v14.089q.001.862.332 1.401.33.542 1.043.811.614.246 1.583.365.968.125 1.682.173v1.62h-12.764v-1.62l1.165-.097a4.2 4.2 0 0 0 1.044-.198q.687-.22 1.018-.771.332-.553.332-1.436V67.073q0-.762-.356-1.497a3 3 0 0 0-.995-1.178 3.3 3.3 0 0 0-1.104-.43q-.639-.133-1.374-.183v-1.596l8.05-.541.343.344v3.412h.122q1.525-1.989 3.388-3.019 1.867-1.032 3.412-1.031 1.547.001 2.517 1.007.971 1.005.97 2.698M154.581 70.166a8.2 8.2 0 0 1 1.63 2.688q.53 1.462.53 3.399-.001 4.619-3.412 7.61c-2.275 1.999-5.097 2.994-8.469 2.994q-2.332.001-4.663-.723-2.332-.723-4.026-1.754l-1.055 1.792h-1.962l-.344-11.929h1.988q.614 2.209 1.437 3.988a14 14 0 0 0 2.172 3.327 9.9 9.9 0 0 0 2.981 2.307q1.707.86 3.963.859 1.693 0 2.959-.442 1.264-.445 2.049-1.253.783-.81 1.166-1.901t.381-2.518c0-1.386-.391-2.687-1.176-3.89q-1.177-1.805-3.511-2.737a171 171 0 0 0-3.658-1.411 54 54 0 0 1-3.558-1.462q-2.946-1.325-4.579-3.473-1.631-2.147-1.631-5.61 0-1.986.809-3.706a9.7 9.7 0 0 1 2.308-3.069q1.423-1.275 3.362-2.001a11.5 11.5 0 0 1 4.05-.723q2.405-.001 4.308.737a20.6 20.6 0 0 1 3.473 1.716l1.007-1.669h1.964l.197 11.56h-1.987a44 44 0 0 0-1.216-3.806 13.4 13.4 0 0 0-1.754-3.288 8.1 8.1 0 0 0-2.577-2.272q-1.523-.846-3.73-.847-2.331.002-3.977 1.497-1.644 1.5-1.645 3.657 0 2.26 1.055 3.745 1.057 1.485 3.069 2.441a38 38 0 0 0 3.52 1.483q1.731.629 3.351 1.339 1.473.639 2.834 1.449a11 11 0 0 1 2.367 1.896" style="fill-opacity:1;fill:#fff"/><path d="M153.391 94.049q-.001-1.227.675-2.002.673-.774 1.681-.773.784-.002 1.351.295a3.9 3.9 0 0 1 1.006.76q.37.367.785 1.006.419.64.662 1.056 1.229-.664 2.936-3.46c1.135-1.866 1.961-3.499 2.465-4.911a1284 1284 0 0 0-4.222-10.407q-1.89-4.59-3.951-9.5-.467-1.129-1.572-1.756a6.5 6.5 0 0 0-2.209-.798v-1.62h11.046v1.718q-.736.025-1.768.306-1.03.283-1.03.651 0 .148.111.49.11.346.259.712.931 2.43 2.847 7.008c1.278 3.055 2.267 5.494 2.969 7.328q1.107-2.627 2.295-5.436a208 208 0 0 0 2.665-6.64c.114-.309.281-.738.489-1.288q.32-.823.321-1.411.001-.637-1.117-1.191-1.117-.551-2.124-.676v-1.57h8.984v1.523q-.739.124-1.94.847a4.43 4.43 0 0 0-1.793 2.048 654 654 0 0 0-5.192 12.347q-2.27 5.573-3.447 8.198c-1.032 2.294-1.952 4.079-2.762 5.364q-1.216 1.928-2.37 3.03-1.13 1.034-2.047 1.389a5.3 5.3 0 0 1-1.901.355q-1.915 0-3.008-.906c-.731-.603-1.094-1.301-1.094-2.086" style="fill-opacity:1;fill:#fff"/><path d="M190.738 74.289a6.2 6.2 0 0 1 1.546 2.035q.54 1.158.54 2.823-.002 3.365-2.514 5.499-2.519 2.135-6.519 2.136c-1.406 0-2.705-.255-3.889-.762q-1.782-.76-2.542-1.399l-.491 1.596h-1.841l-.245-8.421h1.693c.129.638.408 1.385.835 2.232a10.7 10.7 0 0 0 1.548 2.307 8.5 8.5 0 0 0 2.294 1.818q1.336.735 3.006.737 2.356 0 3.633-1.069 1.275-1.067 1.277-3.057c0-.688-.136-1.277-.406-1.778q-.406-.746-1.191-1.314-.81-.563-1.986-1.018a40 40 0 0 0-2.628-.897 23 23 0 0 1-2.565-.945c-.944-.402-1.747-.873-2.419-1.412a6.9 6.9 0 0 1-1.768-2.11q-.688-1.252-.687-2.946 0-2.969 2.211-5.032c1.474-1.375 3.442-2.063 5.915-2.063q1.423 0 2.908.367 1.485.37 2.419.883l.566-1.276h1.766l.368 7.78h-1.694q-.516-2.6-2.219-4.235-1.707-1.631-4.162-1.632-2.014.002-3.167 1.008-1.154 1.01-1.153 2.431 0 1.104.38 1.84c.254.492.634.907 1.141 1.253q.74.492 1.855.92c.742.286 1.664.612 2.761.969q1.622.516 3.058 1.203 1.431.698 2.366 1.529" style="fill-opacity:1;fill:#fff"/><path d="M206.189 85.088a37 37 0 0 1-3.021 1.117q-1.42.455-3.483.454-3.043.002-4.284-1.533-1.24-1.536-1.24-4.331V64.398h-4.368v-2.357h4.465v-7.536h4.469v7.536h6.947v2.357h-6.899v13.524q0 1.524.112 2.543c.073.679.25 1.275.53 1.778.259.475.655.835 1.175 1.08q.785.368 2.11.368.613 0 1.805-.113 1.19-.108 1.681-.282z" style="fill-opacity:1;fill:#fff"/><path d="M224.906 80.45q-1.52 2.897-4.075 4.614-2.553 1.719-5.867 1.717-2.916 0-5.117-1.03c-1.465-.687-2.67-1.62-3.623-2.798-.946-1.177-1.657-2.551-2.123-4.122-.467-1.572-.698-3.229-.698-4.982q.001-2.357.748-4.628a13.1 13.1 0 0 1 2.197-4.086 10.7 10.7 0 0 1 3.473-2.811q2.075-1.069 4.65-1.068 2.652.002 4.541.835 1.89.835 3.068 2.281 1.13 1.38 1.682 3.242.55 1.865.551 4.049v1.62h-16.027q.001 2.383.454 4.322.45 1.939 1.437 3.412a6.8 6.8 0 0 0 2.502 2.246c1.03.55 2.257.82 3.683.82 1.457 0 2.71-.339 3.768-1.02 1.055-.675 2.074-1.901 3.058-3.667zm-5.426-9.229q0-1.374-.232-2.945-.233-1.57-.749-2.627a5 5 0 0 0-1.546-1.841q-.983-.71-2.53-.711-2.576-.001-4.283 2.149-1.704 2.148-1.853 5.975z" style="fill-opacity:1;fill:#fff"/><path d="M263.996 86.145h-11.807v-1.622l1.142-.096a4.2 4.2 0 0 0 1.017-.197q.687-.222 1.019-.773.333-.552.333-1.435V69.528q0-2.552-1.168-3.94-1.166-1.386-2.907-1.386-1.202-.001-2.258.367a7 7 0 0 0-1.938 1.031 6.2 6.2 0 0 0-1.194 1.166q-.477.627-.725 1.042v13.966q0 .863.297 1.412.294.552 1.007.848.564.221 1.019.331.452.11 1.189.159v1.62h-11.558v-1.62c.378-.032.738-.064 1.092-.097a4 4 0 0 0 .967-.199q.688-.22 1.019-.772.334-.552.334-1.436V69.526q0-2.551-1.169-3.939-1.166-1.386-2.906-1.387-1.204 0-2.26.381a7.5 7.5 0 0 0-1.939 1.044 5.9 5.9 0 0 0-1.202 1.215l-.738 1.019v13.868q0 .837.345 1.4.343.566 1.028.86.516.246 1.055.366c.363.084.761.14 1.203.174v1.621h-11.759v-1.621l1.168-.098q.599-.046 1.043-.197.689-.22 1.017-.774.331-.55.331-1.435V66.977c0-.523-.115-.995-.355-1.411a3.26 3.26 0 0 0-.993-1.07 4.2 4.2 0 0 0-1.153-.478 7.6 7.6 0 0 0-1.424-.234V62.19l8.102-.541.343.343v3.461h.172q.613-.612 1.497-1.449c.592-.553 1.138-1.007 1.646-1.349q.858-.586 2.15-.982a9.6 9.6 0 0 1 2.785-.392q2.354 0 4.05 1.262 1.697 1.266 2.429 3.057l1.56-1.509q.674-.65 1.779-1.387.933-.638 2.197-1.031 1.262-.391 2.811-.392c2.045 0 3.665.674 4.861 2.012q1.79 2.015 1.791 6.187v12.298q-.002.858.297 1.411c.197.366.53.653 1.006.846q.565.221 1.116.332.553.11 1.24.159v1.621h-.003v-.002Z" style="fill-opacity:1;fill:#fff"/></svg>