<svg xmlns="http://www.w3.org/2000/svg" viewBox="0 0 3839 1299.2"><path d="m2916.1 0 242.213 340.972L3400.5 0h410l-447.176 629.574L3839 1299.2h-410.1l-270.595-380.981L2887.7 1299.2h-410l475.608-669.603L2743.571 334.3H1899.2c0-27.875 0-55.75 0 0-98.7 0-98.7 148.1 0 148.1h293.5c544.467 0 544.5 816.6.1 816.7h-559.727l.027.1h-346.5L1126.9 714l-159.6 585.2H665.7L506.2 714l-159.7 585.2H0L354.4 0h303.5l158.6 581.5L975.1 0h303.6l263.181 964.8H2192.7c98.7 0 98.7-148.1 0-148.1h-293.5c-544.5 0-544.5-816.7 0-816.7Z" class="st0" style="fill:#fff"/></svg>