<svg xmlns="http://www.w3.org/2000/svg" viewBox="0 0 1152.4 161.9"><path d="M431.576.002c-6.355.027-12.743.418-13.472 1.147-.932.932-1.041 7.524-1.041 62.616 0 39.181-.24 62.204-.659 63.307-1.329 3.495-2.779 3.657-32.639 3.657-30.668 0-30.87-.03-33.173-4.641-1.079-2.158-1.16-6.564-1.16-63.108 0-54.377-.111-60.899-1.043-61.831-.914-.914-4.453-1.041-28.828-1.041h-27.786l-1.053 1.608c-.949 1.447-1.028 7.628-.792 61.829.252 57.816.317 60.461 1.622 66.19 4.168 18.297 13.079 28.033 28.513 31.154 3.6.727 13.663.881 50.252.768 41.305-.128 46.137-.254 49.729-1.299 13.177-3.834 19.75-10.977 23.664-25.716 1.473-5.548 1.48-5.828 1.697-69.125.162-47.533.023-63.789-.552-64.482-.601-.724-6.924-1.06-13.279-1.033m706.462.042c-6.465.024-12.906.349-13.409.956-.53.639-.789 17.583-.91 59.676l-.169 58.785-26.479-58.757c-14.563-32.316-26.892-59.17-27.398-59.676-.762-.762-7.109-.92-36.972-.92H996.65l-1.033 1.473c-.92 1.314-1.032 9.959-1.032 79.567 0 77.209.015 78.108 1.326 79.419 1.227 1.227 2.211 1.327 13.135 1.327 9.151 0 12.097-.213 13.095-.942 1.253-.916 1.296-2.505 1.619-60.102l.331-59.161 26.822 59.487c15.628 34.66 27.301 59.744 27.97 60.102.665.356 15.962.616 36.288.616 31.06 0 35.259-.122 36.18-1.043.935-.935 1.042-9.112 1.042-80.097 0-60.603-.186-79.241-.796-79.851-.603-.603-7.093-.882-13.559-.859M682.21.106l-57.542.002c-54.724 0-57.788.062-62.558 1.282-6.828 1.746-11.341 4.166-15.467 8.292-5.714 5.714-9.509 14.859-10.879 26.213-.888 7.368-.895 82.853-.008 89.929 1.312 10.466 4.645 19.375 9.374 25.061 4.074 4.899 11.923 9.025 19.637 10.324v-.004c4.882.824 120.004.823 121.54 0 1.25-.668 1.283-1.913 1.283-49.082V63.727l-1.701-.647c-1.039-.395-17.638-.647-42.62-.647-35.961 0-41.097.126-42.392 1.033-1.443 1.01-1.474 1.324-1.474 14.786 0 9.813.228 13.981.796 14.549s4.744.796 14.587.796h13.792v16.54c0 16.523-.004 16.541-1.599 18.399l-1.599 1.861-12.946.204c-14.372.228-16.526-.227-17.497-3.697-.662-2.366-.662-89.445 0-91.81 1.083-3.871.524-3.824 45.543-3.824 40.258 0 41.171-.029 42.468-1.326 1.235-1.235 1.326-2.21 1.326-14.108 0-10.496-.184-13.046-1.032-14.256zM2.064.108 1.032 1.581C.112 2.895 0 11.54 0 81.148c0 77.209.014 78.108 1.325 79.419 1.227 1.227 2.21 1.327 13.135 1.327 9.15 0 12.098-.213 13.095-.942 1.251-.914 1.296-2.447 1.619-54.345l.331-53.404 16.492 53.516c9.519 30.89 16.931 53.867 17.532 54.346.778.619 5.833.829 20.016.829 14.154 0 19.253-.211 20.07-.829.673-.509 7.692-21.606 18.195-54.684l17.1-53.854.331 54.044c.289 47.074.461 54.126 1.327 54.673.584.37 12.271.633 28.345.639 26.474.01 27.394-.032 28.678-1.316 1.311-1.311 1.326-2.21 1.326-79.419 0-69.608-.112-78.253-1.032-79.567L196.852.108h-69.515l-.96 1.491c-.528.821-6.693 19.246-13.7 40.944-7.008 21.699-12.938 39.675-13.178 39.948S93.578 64.926 86.874 42.85 74.276 2.128 73.773 1.411C72.885.143 71.902.108 37.462.108zm778.429 0-1.033 1.473c-.92 1.314-1.032 9.959-1.032 79.567 0 77.209.015 78.108 1.326 79.419 1.307 1.307 2.211 1.327 62.703 1.327 41.041 0 61.801-.228 62.659-.687 1.206-.646 1.283-1.525 1.283-14.786 0-10.083-.227-14.327-.796-14.896-.598-.597-9.092-.796-34.148-.796h-33.351v-37.13H899.8l.685-1.801c1.028-2.705.523-27.066-.584-28.171-.676-.675-7.44-.901-31.33-1.046l-30.467-.185V31.271h32.864c21.387 0 33.313-.239 34.148-.686 1.206-.646 1.283-1.525 1.283-14.787 0-10.082-.227-14.326-.796-14.895-.608-.608-15.492-.795-62.953-.795zM162.557 5.411h31.055v.009h-30.808zm81.779 110.068c-23.442 0-26.888.13-27.801 1.042-.904.904-1.042 3.847-1.042 22.165 0 18.319.138 21.262 1.042 22.165.913.913 4.359 1.043 27.801 1.043 23.443 0 26.888-.13 27.801-1.043.903-.903 1.042-3.846 1.042-22.165s-.139-21.261-1.042-22.165c-.913-.912-4.358-1.042-27.801-1.042m247.32 0c-23.442 0-26.888.13-27.801 1.042-.904.904-1.042 3.847-1.042 22.165 0 18.319.138 21.262 1.042 22.165.913.913 4.359 1.043 27.801 1.043 23.443 0 26.889-.13 27.802-1.043.903-.903 1.041-3.846 1.041-22.165s-.138-21.261-1.041-22.165c-.913-.912-4.359-1.042-27.802-1.042m241.353 0c-23.443 0-26.888.13-27.801 1.042-.903.904-1.042 3.847-1.042 22.165 0 18.319.139 21.262 1.042 22.165.913.913 4.358 1.043 27.801 1.043s26.888-.13 27.801-1.043c.904-.903 1.042-3.846 1.042-22.165s-.138-21.261-1.042-22.165c-.913-.912-4.359-1.042-27.801-1.042m216.156 0c-23.442 0-26.887.13-27.8 1.042-.904.904-1.042 3.847-1.042 22.165 0 18.319.138 21.262 1.042 22.165.913.913 4.358 1.043 27.8 1.043 23.443 0 26.889-.13 27.802-1.043.903-.903 1.042-3.846 1.042-22.165s-.139-21.261-1.042-22.165c-.913-.912-4.359-1.042-27.802-1.042" style="fill-opacity:1;stroke:none;stroke-width:1.077;stroke-linecap:square;stroke-miterlimit:4;stroke-dasharray:none;stroke-opacity:.998405;stop-color:#000;fill:#fff"/></svg>