<svg xmlns="http://www.w3.org/2000/svg" viewBox="0 0 338.339 52.948"><path d="M99.525 31.555H94.45a.915.915 0 0 1-.911-.911V2.02c0-.501.41-.911.911-.911h5.076c.501 0 .911.41.911.911v28.625a.916.916 0 0 1-.912.91m7.719 0h-5.076a.915.915 0 0 1-.911-.911V2.02c0-.501.41-.911.911-.911h5.076c.501 0 .911.41.911.911v28.625c0 .5-.41.91-.911.91m-63.233-4.623c-1.724 0-1.806-1.24-1.806-2.443V14.077h2.702c.524 0 .952-.392.952-.872v-2.768c0-.479-.428-.872-.952-.872h-2.702V3.334c0-.479-.428-.872-.952-.872H36.26c-.524 0-.952.392-.952.872v6.233H30.06c-.524 0-.952.392-.952.872v2.768c0 .479.428.872.952.872h5.247V26.37c0 3.352 2.504 5.187 5.501 5.187h7.636v-4.623c.001-.002-2.709-.002-4.433-.002" style="fill:#fff"/><path d="M60.658 8.683c-2.782 0-5.261 1.116-7.041 3.157V1.98c0-.479-.428-.872-.952-.872h-4.993c-.524 0-.952.392-.952.872v28.703c0 .479.428.872.952.872h4.993c.524 0 .952-.392.952-.872V18.127c0-2.283 2.053-4.05 4.547-4.05s4.005 1.814 4.005 3.496v13.112c0 .479.428.872.952.872h4.993c.524 0 .952-.392.952-.872V16.333c0-3.111-2.865-7.65-8.408-7.65" style="fill:#fff"/><path d="M90.834 22.327h3.106q.156-.948.158-1.945c0-6.742-5.488-12.207-12.563-12.207-7.074 0-12.563 5.465-12.563 12.207s5.488 11.981 12.563 11.981c5.4 0 9.873-3.055 11.689-7.499h-6.622c-1.055 1.418-2.85 2.312-5.283 2.312-2.583 0-4.768-2.039-5.498-4.849zm-9.515-8.964c2.352 0 4.373 1.692 5.267 4.116H76.052c.894-2.424 2.915-4.116 5.267-4.116m39.597-5.188c-7.404 0-13.148 5.465-13.148 12.207s5.744 11.981 13.148 11.981 13.148-5.24 13.148-11.981-5.744-12.207-13.148-12.207m0 19.23c-4.649 0-5.916-3.091-5.916-7.069s1.637-7.202 5.916-7.202 5.916 3.224 5.916 7.202-1.266 7.069-5.916 7.069M17.027 0C7.623 0 0 7.333 0 16.379s7.623 16.379 17.027 16.379 17.027-7.333 17.027-16.379S26.431 0 17.027 0m.321 27.189c-6.201 0-9.025-4.84-9.025-10.81s3.131-10.81 9.025-10.81 9.025 4.84 9.025 10.81-2.824 10.81-9.025 10.81M289.989 7.142h-5.677a.61.61 0 0 1-.61-.61V3.467c0-.335.274-.61.61-.61h5.677c.335 0 .61.274.61.61v3.065c0 .335-.275.61-.61.61m-30.276 0h-5.694a.604.604 0 0 1-.602-.602V3.458c0-.331.271-.602.602-.602h5.694c.331 0 .602.271.602.602V6.54a.604.604 0 0 1-.602.602m-28.798 0h-5.751a.575.575 0 0 1-.573-.573V3.43c0-.315.258-.573.573-.573h5.751c.315 0 .573.258.573.573v3.139a.575.575 0 0 1-.573.573M209.429 31.95h-5.076a.915.915 0 0 1-.911-.911V2.414c0-.501.41-.911.911-.911h5.076c.501 0 .911.41.911.911v28.625c0 .501-.41.911-.911.911m80.259 0h-5.076a.915.915 0 0 1-.911-.911V9.857c0-.501.41-.911.911-.911h5.076c.501 0 .911.41.911.911v21.182c0 .501-.41.911-.911.911m-30.284 0h-5.076a.915.915 0 0 1-.911-.911V9.857c0-.501.41-.911.911-.911h5.076c.501 0 .911.41.911.911v21.182c0 .501-.41.911-.911.911m-28.826 0h-5.076a.915.915 0 0 1-.911-.911V9.857c0-.501.41-.911.911-.911h5.076c.501 0 .911.41.911.911v21.182c0 .501-.41.911-.911.911" style="fill:#fff"/><path d="M221.794 27.327c-1.724 0-1.806-1.24-1.806-2.443V14.472h3.018c.35 0 .635-.262.635-.582v-3.347c0-.32-.286-.582-.635-.582h-3.018V3.432c0-.316-.283-.575-.628-.575h-5.642c-.345 0-.628.259-.628.575v6.529h-5.564c-.349 0-.635.262-.635.582v3.347c0 .32.286.582.635.582h5.564v12.291c0 3.352 2.504 5.187 5.501 5.187h7.636v-4.623zM329.931 9.078c-2.782 0-5.261 1.116-7.041 3.157V9.366c0-.479-.428-.872-.952-.872h-4.993c-.524 0-.952.392-.952.872v21.712c0 .479.428.872.952.872h4.993c.524 0 .952-.392.952-.872V18.521c0-2.283 2.053-4.05 4.547-4.05s4.005 1.814 4.005 3.496v13.112c0 .479.428.872.952.872h4.993c.524 0 .952-.392.952-.872V16.727c0-3.111-2.865-7.649-8.408-7.649M187.685 31.367c2.782 0 5.261-1.116 7.041-3.157v2.868c0 .479.428.872.952.872h4.993c.524 0 .952-.392.952-.872V9.366c0-.479-.428-.872-.952-.872h-4.993c-.524 0-.952.392-.952.872v12.557c0 2.283-2.053 4.05-4.547 4.05s-4.005-1.814-4.005-3.496V9.366c0-.479-.428-.872-.952-.872h-4.993c-.524 0-.952.392-.952.872v14.352c0 3.111 2.866 7.649 8.408 7.649" style="fill:#fff"/><path d="M303.377 8.57c-7.404 0-13.148 5.465-13.148 12.207s5.744 11.981 13.148 11.981 13.148-5.24 13.148-11.981S310.781 8.57 303.377 8.57m0 19.23c-4.649 0-5.917-3.091-5.917-7.069s1.637-7.202 5.917-7.202 5.917 3.224 5.917 7.202-1.267 7.069-5.917 7.069M253.372 8.946h-4.993c-.524 0-1.067.392-1.207.872l-4.476 15.294-5.352-15.294c-.168-.479-.733-.872-1.257-.872h-4.993c-.524 0-.815.392-.647.872l5.395 15.42q.07.265.153.548c1.909 6.524 6.7 6.164 6.7 6.164s4.791.36 6.7-6.164l4.673-15.968c.141-.48-.172-.872-.696-.872m18.22 4.736h14.985V8.946h-16.463c-4.019 0-7.308 3.011-7.308 6.691s3.288 6.691 7.308 6.691h1.684c1.446 0 2.668 1.119 2.668 2.443s-1.222 2.443-2.669 2.443h-12.85v4.736h14.821c4.313 0 7.841-3.231 7.841-7.179s-3.529-7.179-7.841-7.179h-2.176c-1.157 0-2.135-.895-2.135-1.955s.978-1.955 2.135-1.955m-94.556-9.341-.002-.012a3.04 3.04 0 0 0-.986-1.904 3.57 3.57 0 0 0-2.079-.903l-.013-.002a4 4 0 0 0-.348-.016h-.002l-.057.003a4 4 0 0 0-.28.013c-.048.004-.095.013-.143.019q-.098.011-.196.028-.057.012-.113.025-.113.023-.223.053-.028.008-.055.018c-.5.149-.971.401-1.367.763l-2.415 2.211-3.043 2.786-3.439 3.149-3.439-3.149-3.043-2.786-2.415-2.211a3.5 3.5 0 0 0-1.367-.763l-.055-.018q-.112-.03-.223-.053-.056-.013-.113-.025-.097-.016-.196-.028-.071-.01-.143-.019a4 4 0 0 0-.28-.013l-.057-.003h-.002q-.174 0-.348.016l-.013.002c-.761.072-1.5.372-2.079.903a3.04 3.04 0 0 0-.986 1.904l-.002.012a3 3 0 0 0-.018.319v26.42c0 .479.428.872.952.872h4.993c.524 0 .952-.392.952-.872V12.297l6.837 6.26a1.577 1.577 0 0 0 2.09 0l6.837-6.26V31.08c0 .479.428.872.952.872h4.993c.524 0 .952-.392.952-.872V4.659q0-.16-.018-.318M55.92 38.823h226.5v14H55.92Zm26.869 4.715h-3.19V41.35h-1.002v2.186h-4.62v.891h3.991q-1.18 2.226-4.069 4.425l.729.763q2.683-2.025 3.969-4.013v4.687c0 .037 1.002.371 1.002.034v-5.895h3.19Zm8.976.249-4.414.674v-2.633h-1.058v2.805l-2.655.401.145.991 2.51-.39v3.34c-.002.285.11.559.312.76q.312.326.757.326h4.392v-.991h-4.091q-.312 0-.312-.284v-3.295l3.251-.49a12 12 0 0 1-1.598 1.959l.773.663q1.07-1.047 2.171-2.872Zm11.474-1.035h-6.391v6.591h1.036v-.501h4.319v.501h1.036Zm-5.355 5.133v-4.164h4.319v4.164Zm17.202-3.307v-.936h-5.444q.446-1.185.612-1.881l-.946-.273q-.925 3.085-2.6 4.938l.835.612a12 12 0 0 0 1.665-2.46h2.733q-.267 3.218-3.045 5.427l.824.657q2.938-2.382 3.25-6.084Zm-1.208-2.883-.707.351q.56.642.985 1.38l.718-.328a7.2 7.2 0 0 0-.996-1.403m1.185-.479-.685.373q.69.807 1.041 1.509l.685-.368q-.468-.918-1.041-1.514m11.163 4.203h-8.377v1.007h8.377Zm8.353.322-.869.612a14.6 14.6 0 0 1 1.531 1.698 54 54 0 0 1-4.286.356 44 44 0 0 0 2.321-6.256l-1.024-.278q-1.024 3.779-2.494 6.59h-1.475l.268 1.075q4.502-.14 7.397-.563.33.463.612.958l.813-.612q-.908-1.659-2.794-3.58m14.657-3.056h-3.98q.051-.86.083-1.72l-1.019-.011a37 37 0 0 1-.067 1.731h-4.069v8.183h1.046v-7.236h2.895q-.345 2.727-2.549 4.698l.74.718q1.776-1.758 2.427-3.64 1.291 1.553 2.427 3.685l.813-.651a31.6 31.6 0 0 0-2.956-4.186q.077-.309.117-.624h3.078v5.917q0 .351-.378.351-1.408 0-1.731-.022l.351 1.002q.695.042 1.392.033 1.38 0 1.38-1.208Zm10.657 5.777q-.184 1.37-.445 1.37-.129 0-.404-.292a2.5 2.5 0 0 1-.465-.732q.84-1.436 1.464-3.479l-.902-.262q-.535 1.72-.991 2.566-.346-1.247-.401-3.045h2.861v-.835h-2.883a6 6 0 0 1 0-.646l-.979-.022a5 5 0 0 0 0 .668h-5.372v3.251q0 2.06-.774 3.217l.763.718q.969-1.474.969-3.774v-2.577h4.447q.134 2.577.707 4.208-.507.74-1.436 1.72l.818.479q.69-.707 1.107-1.263.819 1.197 1.531 1.197.585 0 .902-.729t.339-1.269Zm-4.482-6.862h-1.175v-.673h-1.013v.673h-2.544v.891h2.544v.707h1.013v-.707h1.175Zm1.141 3.502H152.8v4.948h3.579v-.785h-1.002v-.673h.98v-2.099h-.98v-.629h1.175Zm-2.827 1.391v-.629h.751v.629Zm-.001 1.403v-.718h1.72v.718Zm.001 1.369v-.673h.751v.673Zm6.884-7.665h-2.471v-.673h-1.041v.673h-1.208v.891h1.208v.306h1.041v-.306h2.471Zm-1.663.958-.535.562q1.097.486 1.208.557l.523-.59q-.602-.312-1.196-.529m14.445 4.48a10.4 10.4 0 0 0 2.382-1.687l-.718-.64q-1.074 1.057-2.249 1.642-.312-.84-1.024-1.62.418-.244.696-.523h2.338v-.885h-6.44v.885h2.767a11 11 0 0 1-4.286 1.336l.457.868q2.076-.368 3.646-1.186.357.384.39.429-2.205 1.587-4.665 1.998l.434.83q2.628-.546 4.665-2.121.152.285.239.595a11.5 11.5 0 0 1-5.438 2.745l.445.857q3.01-.768 5.154-2.577.01.24.011.518 0 .874-.072 1.044a.8.8 0 0 1-.203.287q-.13.117-.548.117-.335 0-1.119-.028l.334.969q.456.018.74.017 1.085 0 1.464-.481.378-.482.378-1.79a8 8 0 0 0-.017-.535q.952 1.226 2.928 2.333l.579-.83q-2.21-1.13-3.268-2.567m2.895-5.265h-4.13q-.239-.462-.512-.891l-1.08.217q.25.316.434.674h-4.108v2.065h1.007v-1.164h7.398v1.164h.991Zm11.448 0h-4.036q-.407-.73-.512-.869l-1.085.229q.255.294.434.64h-3.863v4.787q0 2.243-.846 3.796l.824.629q1.024-1.76 1.024-4.32v-3.946h8.06Zm.14 8.003h-3.433q-1.52 0-2.349-.573.48-.902.674-2.321v-.935h-1.347a9.8 9.8 0 0 0 1.208-1.542v-.935h-2.505v.935h1.358q-.762 1.041-1.358 1.542v.935h1.642q-.056.896-.379 1.536-.195-.295-.49-1.163l-.913.306q.45 1.197.879 1.687-.523.54-1.336.924l.651.791q.883-.501 1.38-1.019 1.174.813 2.961.813h3.056l.301-.979Zm-.267-1.713h-1.832v-1.447h1.436v-.918h-1.436v-1.292q.802-.133 1.798-.423l-.545-.84q-1.714.519-4.058.646l.384.913q.562-.039 1.414-.123v1.119h-1.481v.918h1.481v1.447h-1.854v.935h4.693Zm10.661 1.692v-8.561h-8.438v5.049a10.3 10.3 0 0 1-.262 2.24q-.261 1.171-.74 1.884l.902.584q.824-1.302 1.013-3.501h2.761v3.189h.968V47.45h2.806v2.054a.36.36 0 0 1-.106.248.32.32 0 0 1-.239.114l-1.274.011.306 1.002q.412.028.796.028.84 0 1.174-.345t.334-.807Zm-7.425-5.917v-1.653h2.661v1.653Zm0 2.655v-1.709h2.661v1.709Zm3.629-2.655v-1.653h2.806v1.653Zm0 2.655v-1.709h2.806v1.709Zm14.512-1.263v-.936h-8.333v.935h3.807q.012 1.481-.108 2.14-.12.66-.643 1.261-.523.602-1.687 1.136l.685.774q1.259-.573 1.868-1.358a3.86 3.86 0 0 0 .774-1.684q.164-.898.164-2.268Zm-1.318-3.185h-5.667v.958h5.667Zm11.521 2.668q-1.447 1.975-2.661 2.752t-2.789 1.116v-6.635h-1.035v7.843q2.41-.302 4.033-1.242 1.622-.94 3.192-3.078Zm10.897 5.042v-.983h-4.876q-.089 0-.197-.097-.11-.097-.109-.187v-2.667a22.7 22.7 0 0 0 5.083-1.119l-.523-.863q-2.065.718-4.559 1.024v-2.917h-1.074v6.702a1.02 1.02 0 0 0 .351.793q.351.315.824.314Zm-.633-7.821-.64.429q.585.697 1.036 1.486l.662-.412a6.6 6.6 0 0 0-1.058-1.503m.98-.662-.64.412c.409.465.762.977 1.052 1.525l.657-.445q-.506-.902-1.069-1.492m11.743 2.37h-5.445q.446-1.185.613-1.881l-.947-.273q-.924 3.085-2.599 4.938l.835.612a12 12 0 0 0 1.665-2.46h2.734q-.269 3.218-3.045 5.427l.822.657q2.94-2.382 3.252-6.084h2.115Zm-1.209-1.947-.707.351q.56.642.986 1.38l.717-.328a7 7 0 0 0-.996-1.403m1.186-.479-.684.373q.69.807 1.041 1.509l.684-.368q-.466-.918-1.041-1.514m11.204 4.203h-8.377v1.007h8.377Zm8.29.322-.868.612a15 15 0 0 1 1.531 1.698 54 54 0 0 1-4.286.356 44 44 0 0 0 2.321-6.256l-1.024-.278q-1.024 3.779-2.494 6.59h-1.475l.267 1.075q4.503-.14 7.398-.563.232.312.612.958l.813-.612q-.907-1.659-2.795-3.58" style="fill:#fff"/></svg>