<svg xmlns="http://www.w3.org/2000/svg" viewBox="0 0 600 73"><path d="M324.01 65.594c0 .743-.743 1.485-1.485 1.485h-26.98c-.743 0-1.486-.742-1.486-1.485V46.04c0-.743.743-1.486 1.486-1.486h26.98c.742 0 1.485.743 1.485 1.486zm-1.238-26.98-27.475.002a7.184 7.184 0 0 0-7.178 7.179v19.554a7.184 7.184 0 0 0 7.178 7.178h27.475a7.184 7.184 0 0 0 7.179-7.178V45.795a7.184 7.184 0 0 0-7.179-7.179M6.436 9.406v25.247H0V.495h5.446l25.742 25v-25h6.188v34.158h-4.95zM70.05 9.406v25.247h-6.436V.495h5.445l25.743 25v-25h6.188v34.158h-4.95zM201.485 9.406v25.247h-6.435V.495h5.445l25.743 25v-25h6.188v34.158h-4.951zM52.475.495h1.238v34.158h-6.436V.495zM144.059.495h1.238v5.941h-15.346v28.217h-6.684V6.436h-15.346V.495h35.891ZM184.406.495h1.238v5.941h-26.981v7.673h21.04v5.941h-21.04v8.91h26.981v5.941h-33.416V.743h32.178ZM267.574 28.713h-19.307V6.436h19.555c6.188 0 8.168 5.94 8.168 11.138s-2.228 11.139-8.168 11.139m10.396-23.267C275.743 2.228 272.03.495 267.574.495h-25.247v34.158h25.247c4.456 0 8.169-1.732 10.644-4.95 2.228-2.97 3.465-7.178 3.465-12.129s-1.237-9.158-3.465-12.128M324.01 27.475c0 .743-.743 1.485-1.485 1.485h-26.98c-.743 0-1.486-.742-1.486-1.485V7.921c0-.743.743-1.485 1.486-1.485h26.98c.742 0 1.485.742 1.485 1.485zM322.772.495h-27.475a7.184 7.184 0 0 0-7.178 7.178v19.802a7.183 7.183 0 0 0 7.178 7.178h27.475a7.183 7.183 0 0 0 7.179-7.178V7.673a7.184 7.184 0 0 0-7.179-7.178M528.218 58.663c6.436 2.476 20.297 4.703 31.188 4.703 11.881 0 16.832-3.96 16.832-9.158 0-4.456-4.456-7.178-17.575-12.129-17.574-6.435-30.198-11.633-30.198-23.02 0-11.881 15.347-18.811 38.862-18.811 12.624 0 16.831.742 25 2.227v11.386c-7.921-1.485-14.852-3.96-25.743-3.96-11.633 0-16.584 3.713-16.584 7.426 0 5.445 7.673 8.168 21.04 12.871C589.604 36.881 600 42.079 600 53.218c0 11.633-12.871 19.802-42.327 19.802-11.881 0-20.297-.743-29.455-2.228zM466.089 10.149h-13.861v52.722h13.861c21.287 0 34.901-9.158 34.901-26.237s-13.366-26.485-34.901-26.485m37.376 57.673c-6.93 3.218-19.802 5.198-31.188 5.198h-43.564V.495h43.564c11.386 0 24.505 1.98 31.436 5.198 16.832 7.673 22.277 19.555 22.277 31.188 0 11.386-5.445 23.515-22.277 31.188M398.02 33.168s20.297-3.218 20.297-15.841C418.317 4.95 396.782 0 373.762 0c-20.792 0-34.406 2.475-34.406 2.475v11.139c9.406-2.228 18.317-4.208 30.694-4.208 13.118 0 23.267 3.96 23.267 9.406 0 6.683-9.901 10.643-31.436 10.643h-9.901v10.149h9.159c22.524 0 35.396 3.465 35.396 11.634 0 7.425-11.386 11.881-25.743 11.881-12.376 0-23.762-2.723-33.168-5.198V70.05c4.455.742 16.336 3.217 38.119 3.217 24.257 0 45.544-7.92 45.544-21.534 0-11.634-14.604-18.317-23.267-18.317" style="fill:#fff"/></svg>