<svg xmlns="http://www.w3.org/2000/svg" viewBox="0 0 264 38"><path d="M33.122 85.023h29.351v-65.22H42.615v37.399h-.171L29.347 19.803H0v65.22h19.846V47.375h.179zM143.849 85.023H173.2v-65.22h-19.846v37.399h-.179l-13.097-37.399h-29.347v65.22h19.858V47.375h.171zM334.517 85.023h29.355v-65.22h-19.854v37.399h-.175L330.75 19.803h-29.351v65.22h19.85V47.375h.175zM74.46 19.803h24.482v65.22H74.46zM195.856 37.52h-15.557V19.803h55.642V37.52H220.33v47.503h-24.474zM243.169 19.783h48.414v17.254h-24.318v6.819h22.392v16.721h-22.392v7.317h25.097v17.11h-49.193zM374.408 19.803h29.004c24.735 0 32.608 14 32.608 33.332 0 19.694-12.147 31.888-31.144 31.888h-30.468zm23.964 50.399h2.386c3.939 0 6.577-1.206 8.119-3.826 1.623-2.713 1.81-7.648 1.81-13.965 0-6.321-.187-11.252-1.81-13.969-1.542-2.623-4.18-3.83-8.119-3.83h-2.386zM474.397 18.09c21.309 0 31.915 13.996 31.915 34.321 0 20.329-10.61 34.329-31.915 34.329-21.317 0-31.92-14-31.92-34.329 0-20.325 10.599-34.321 31.92-34.321m0 52.124c3.76 0 6.589-1.849 6.589-17.803 0-15.596-2.662-17.799-6.589-17.799-3.935 0-6.593 2.203-6.593 17.799 0 15.954 2.825 17.803 6.593 17.803" style="fill-opacity:1;fill:#fff" transform="scale(.44 .4381)"/><path d="M33.122 85.023h29.351v-65.22H42.615v37.399h-.171L29.347 19.803H0v65.22h19.846V47.375h.179zM143.849 85.023H173.2v-65.22h-19.846v37.399h-.179l-13.097-37.399h-29.347v65.22h19.858V47.375h.171zM334.517 85.023h29.355v-65.22h-19.854v37.399h-.175L330.75 19.803h-29.351v65.22h19.85V47.375h.175zM74.46 19.803h24.482v65.22H74.46zM195.856 37.52h-15.557V19.803h55.642V37.52H220.33v47.503h-24.474zM243.169 19.783h48.414v17.254h-24.318v6.819h22.392v16.721h-22.392v7.317h25.097v17.11h-49.193zM550.095 11.131c-1.304-.113-2.569-.062-4.336.02-10.326.478-14.502 4.876-15.919 9.851h.249c2.573-2.25 5.749-3.297 10.007-3.297 8.193 0 15.674 5.955 15.674 17.129 0 10.692-8.22 19.021-19.251 19.021-14.533 0-20.85-11.1-20.85-23.002 0-9.665 3.429-17.854 9.057-23.135 5.36-4.963 12.264-7.469 20.722-7.664 2.238-.128 3.569 0 4.647.097zm-13.759 32.208c3.348 0 5.379-3.422 5.379-7.792-.027-3.686-1.716-7.707-6.208-7.707-2.74 0-4.88 1.74-5.686 3.838-.311.646-.432 1.56-.432 3.117.288 4.169 2.296 8.544 6.866 8.544zM581.376 52.976V41.272h-21.757v-9.353L577.087.79h17.382v29.759H600v10.723h-5.531v11.704zm0-22.427v-8.967c0-3.317.199-6.761.37-10.389h-.284c-1.619 3.523-3.028 6.874-4.865 10.513l-4.278 8.687-.047.16z" style="fill-opacity:1;fill:#fff" transform="scale(.44 .4381)"/></svg>