<svg xmlns="http://www.w3.org/2000/svg" xml:space="preserve" id="Layer_1" x="0" y="0" viewBox="0 0 3839 672.6"><style id="style2" type="text/css">.st4{fill:#cf3312}</style><g id="g34" style="fill:#fff;fill-opacity:1"><g id="g32" style="fill:#fff;fill-opacity:1"><g id="g24" style="fill:#fff;fill-opacity:1"><path id="polygon4" d="M3160.6 39.2v12.7h26.4V140h17.4V52.2l31.1-.3V39.2z" style="fill:#fff;fill-opacity:1"/><path id="path6" d="M3350.2 140H3334V84.1l-37.2 47.1-37.3-47.1s-.1 55.8.1 55.9-14.9 0-14.9 0V39.2l52.4 65.1 53-65.1V140z" style="fill:#fff;fill-opacity:1"/><path id="rect8" d="M2994.5 39.2h96.7v582h-96.7z" style="fill:#fff;fill-opacity:1"/><path id="polygon10" d="m2789.5 39.2-343 397.2-342.9-397.2v582h96.7V299.1l246.2 285.2 246.3-285.2v322.1h96.7z" style="fill:#fff;fill-opacity:1"/><path id="rect12" d="M475.8 39.2h96.7v483.5h-96.7z" style="fill:#fff;fill-opacity:1" transform="matrix(-1 0 0 -1 1048.33 561.916)"/><path id="rect14" d="M0 132.2h96.7v489.1H0z" style="fill:#fff;fill-opacity:1" transform="matrix(-1 0 0 -1 96.683 753.388)"/><path id="rect16" d="M873.3 214H970v492.2h-96.7z" style="fill:#fff;fill-opacity:1" transform="rotate(-90 921.653 460.09)"/><path id="polygon18" d="M572.5 496.2v125L0 152.1V27.2z" style="fill:#fff;fill-opacity:1"/><path id="path20" d="M1674.5 0c-185.7 0-336.3 150.6-336.3 336.3s150.6 336.3 336.3 336.3 336.3-150.6 336.3-336.3S1860.2 0 1674.5 0m0 96.7c-132.3 0-239.6 107.3-239.6 239.6s107.3 239.6 239.6 239.6 239.6-107.3 239.6-239.6-107.3-239.6-239.6-239.6m0 461.9c-122.6 0-222.3-99.7-222.3-222.3S1551.9 114 1674.5 114s222.3 99.7 222.3 222.3-99.8 222.3-222.3 222.3m0 17.4c-132.3 0-239.6-107.3-239.6-239.6s107.3-239.6 239.6-239.6 239.6 107.3 239.6 239.6S1806.8 576 1674.5 576" class="st4" style="fill:#fff;fill-opacity:1"/><path id="polygon22" d="m785.2 621.2 215.5-393.6 215.4 393.6h110.2l-325.6-595-325.7 595z" style="fill:#fff;fill-opacity:1"/></g><g id="g30" style="fill:#fff;fill-opacity:1"><path id="rect26" d="M3623.4 405.6h96.7v334.5h-96.7z" class="st4" style="fill:#fff;fill-opacity:1" transform="rotate(-90 3671.75 572.881)"/><path id="path28" d="M3796 102.2c-42.2-47.9-96.4-73.2-156.7-73.2-71.9 0-134.8 36.8-174.7 67.4l68.4 68.7c47.1-33.3 128-71.1 191.2.5 94.4 106.9-189.8 335.9-268.9 392.7v62.9h76.3c78.4-58.9 289-230 306.3-382.5 5.7-51.8-8.8-99-41.9-136.5" class="st4" style="fill:#fff;fill-opacity:1"/></g></g></g></svg>