<svg xmlns="http://www.w3.org/2000/svg" viewBox="0 0 264 38"><path d="M381.537 77.19c0 .912-.747 1.731-1.668 1.731h-31.914c-.93 0-1.677-.819-1.677-1.731V54.132c0-.909.747-1.638 1.677-1.638h31.914c.921 0 1.668.729 1.668 1.638zm-1.386-31.623h-32.487c-4.704 0-8.541 3.828-8.541 8.565V77.28c0 4.65 3.837 8.568 8.541 8.568h32.487c4.713 0 8.541-3.918 8.541-8.568V54.132c0-4.737-3.828-8.565-8.541-8.565M7.455 10.935v29.802H0V.456h6.369l30.195 29.346V.456h7.353v40.281h-5.823z" style="fill-rule:nonzero;stroke:none;fill:#fff" transform="scale(.44 .44264)"/><path d="M82.194 10.935v29.802h-7.455V.456h6.36l30.192 29.346V.456h7.365v40.281h-5.823zM237.09 10.935v29.802h-7.452V.456h6.36l30.192 29.346V.456h7.365v40.281h-5.817zM61.671.456h1.374v40.281H55.59V.456zM169.425.456h1.368v6.927H152.82v33.354h-7.746V7.383h-17.97V.456zM217.179.456h1.395v6.927h-31.953v9.021h24.717v6.927h-24.717V33.81h31.953v6.927h-39.333V.456zM315 33.81h-22.893V7.383H315c7.164 0 9.708 7.107 9.708 13.212 0 6.015-2.544 13.215-9.708 13.215m12.231-27.429C324.315 2.46 320.004.456 314.79.456h-29.871v40.281h29.871c5.214 0 9.525-2.097 12.441-5.925 2.733-3.552 4.182-8.475 4.182-14.217 0-5.739-1.449-10.662-4.182-14.214M381.537 32.169c0 .822-.747 1.641-1.668 1.641h-31.914c-.93 0-1.677-.819-1.677-1.641V9.021c0-.909.747-1.638 1.677-1.638h31.914c.921 0 1.668.729 1.668 1.638zM380.151.456h-32.487c-4.704 0-8.541 3.828-8.541 8.565v23.148c0 4.74 3.837 8.568 8.541 8.568h32.487c4.713 0 8.541-3.828 8.541-8.568V9.021c0-4.737-3.828-8.565-8.541-8.565M515.484 68.805c7.728 3.099 24.051 5.559 36.792 5.559 13.941 0 19.71-4.737 19.71-10.752 0-5.469-5.358-8.568-20.751-14.217-20.586-7.566-35.688-13.578-35.688-27.159C515.547 8.292 533.721 0 561.414 0c14.874 0 19.977.912 29.418 2.643l.075 13.305c-9.279-1.731-17.499-4.737-30.267-4.737-13.686 0-19.521 4.374-19.521 8.838 0 6.471 8.988 9.57 24.744 15.219C587.799 43.107 600 49.122 600 62.334c0 13.671-15.282 23.514-49.749 23.514-14.151 0-23.913-.912-34.767-2.733zM442.122 11.757h-16.404v62.151h16.404c25.179 0 41.064-10.845 41.064-30.984s-15.885-31.167-41.064-31.167M486.15 79.65c-8.112 3.645-23.46 6.015-36.873 6.015h-51.273V.183h51.273c13.413 0 28.761 2.37 36.891 6.015 19.746 8.931 26.181 23.238 26.181 36.726s-6.378 27.795-26.199 36.726" style="fill-rule:nonzero;stroke:none;stroke-width:.05;stroke-linecap:butt;stroke-linejoin:miter;stroke-miterlimit:4;stroke-dasharray:none;fill:#fff" transform="scale(.44 .44264)"/></svg>