<svg xmlns="http://www.w3.org/2000/svg" viewBox="0 0 264 78"><path d="m35.961 115.284-.072-44.013h5.7v52.701h-5.7L5.556 79.602l.141 44.37H0V71.271h5.982zM47.952 71.271h27.96v5.199H53.793v18.303h21.978v5.199H53.793v18.801h22.119v5.199h-27.96zM78.573 97.764c0-16.236 12.606-27.42 27.492-27.42 15.453 0 27.489 11.823 27.489 27.276 0 15.456-11.964 27.279-27.489 27.279-15.597 0-27.492-12.039-27.492-27.066zm5.91-.144c0 12.393 9.33 22.08 21.651 22.08 12.465 0 21.582-10.041 21.582-22.08 0-12.036-9.117-22.077-21.651-22.077-12.393 0-21.582 9.828-21.582 22.005zM182.202 84.945a22.4 22.4 0 0 0-5.91-5.697c-3.42-2.352-7.551-3.705-12.249-3.705-11.538 0-21.579 8.832-21.579 22.005 0 13.389 10.113 22.221 21.648 22.221 5.556 0 10.47-1.92 14.103-4.77 3.705-2.922 6.267-6.909 7.122-11.043h-28.686v-4.842h35.523c-.072 3.063-.783 6.909-2.352 10.185-4.557 9.9-15.099 15.669-25.71 15.669-15.381 0-27.561-11.823-27.561-27.42 0-15.81 12.393-27.207 27.633-27.207 10.683 0 20.583 5.985 24.714 14.601h-6.696zM195 71.271h29.199v5.199h-23.358v18.303h23.214v5.199h-23.214v18.801h23.358v5.199H195zM226.548 97.764c0-16.236 12.606-27.42 27.492-27.42 15.453 0 27.489 11.823 27.489 27.276 0 15.456-11.964 27.279-27.489 27.279-15.597 0-27.492-12.039-27.492-27.066zm5.913-.144c0 12.393 9.327 22.08 21.648 22.08 12.465 0 21.579-10.041 21.579-22.08 0-12.036-9.114-22.077-21.648-22.077-12.393 0-21.579 9.828-21.579 22.005zM346.569 97.764c0-16.236 12.606-27.42 27.492-27.42 15.456 0 27.492 11.823 27.492 27.276 0 15.456-11.964 27.279-27.492 27.279-15.597 0-27.492-12.039-27.492-27.066zm5.91-.144c0 12.393 9.33 22.08 21.654 22.08 12.462 0 21.579-10.041 21.579-22.08 0-12.036-9.114-22.077-21.651-22.077-12.39 0-21.582 9.828-21.582 22.005zM460.377 109.8c-3.417 8.121-12.603 15.102-24.213 15.102-15.597 0-27.492-12.039-27.492-27.276 0-15.03 11.61-27.279 27.417-27.279 13.032 0 21.225 8.691 24.285 15.384h-6.339c-1.782-3.132-7.761-10.185-17.946-10.185-12.321 0-21.579 9.756-21.579 22.005 0 12.465 9.327 22.152 21.579 22.152 11.043 0 16.665-7.908 17.946-9.9zM518.208 71.271h29.202v5.199h-23.358v18.303h23.214v5.199h-23.214v18.801h23.358v5.199h-29.202zM577.035 76.47h-16.983v-5.199H600v5.199h-17.052v47.502h-5.913zM226.743 164.583c-2.172 7.389-9.129 12.654-17.484 12.654-10.917 0-18.741-8.646-18.741-18.594 0-9.513 7.389-18.498 18.693-18.498 10.287.051 16.131 7.632 17.532 12.849h-7.584c-1.11-2.463-4.296-6.471-9.996-6.519-6.957 0-11.448 5.841-11.448 12.171 0 6.519 4.686 12.27 11.496 12.27 6.375 0 9.273-5.025 9.948-6.33zM246.015 158.979c0-11.445 8.79-18.837 18.741-18.837 10.818 0 18.789 8.403 18.789 18.546s-7.923 18.546-18.837 18.546c-10.965 0-18.693-8.646-18.693-18.207zm7.197-.288c0 6.522 4.686 12.219 11.64 12.219 7.248 0 11.496-6.279 11.496-12.171 0-5.988-4.248-12.27-11.544-12.27-7.149 0-11.592 5.892-11.592 12.174zM304.797 140.82h7.197v29.415h11.736v6.327h-18.933zM341.427 158.979c0-11.445 8.79-18.837 18.738-18.837 10.821 0 18.792 8.403 18.792 18.546s-7.923 18.546-18.84 18.546c-10.962 0-18.69-8.646-18.69-18.207zm7.197-.288c0 6.522 4.686 12.219 11.637 12.219 7.248 0 11.496-6.279 11.496-12.171 0-5.988-4.251-12.27-11.541-12.27-7.149 0-11.592 5.892-11.592 12.174zM503.319 123.972h7.335l-27.381-26.424 25.17-26.28h-6.408l-27.627 28.575V71.271h-5.841v52.701h5.841v-17.175l5.376-5.616zM408.315 140.82c4.02.102 7.572.309 10.77 2.988a10.8 10.8 0 0 1 2.163 2.421c1.65 2.529 1.803 5.358 1.803 6.339 0 .873-.102 3.297-1.44 5.514-.363.564-.825 1.338-1.908 2.316-1.185 1.032-2.421 1.596-2.886 1.803-.876.36-1.752.618-3.657 1.032l10.512 13.962h-8.091l-10.101-13.758v13.758h-7.263v-36.378zm-2.835 17.262h3.609c.411 0 .771 0 1.185-.051.771 0 3.348-.105 5.049-2.163.411-.519 1.134-1.599 1.134-3.351 0-.567-.051-1.959-.981-3.243-1.599-2.166-4.071-2.373-6.546-2.424h-3.453v11.232zM320.457 128.001c-11.469-22.812-22.908-45.561-34.353-68.328.063-.045.114-.09.171-.117l8.565-4.38c4.032-2.058 8.07-4.11 12.099-6.18 4.236-2.175 8.688-3.483 13.494-3.33 3.273.108 6.27 1.059 8.904 3.066 2.322 1.77 3.963 4.071 5.223 6.672 1.194 2.469 2.046 5.037 2.094 7.809.069 3.846-1.095 7.326-3.159 10.557-1.38 2.163-2.958 4.152-4.809 5.91-1.275 1.215-2.637 2.334-3.957 3.492L310.41 73.02c.903-3.294 1.791-6.561 2.685-9.834h13.695V52.791c-7.071.069-14.064.135-21.057.204l-7.62 21.528c8.187 6.771 16.344 13.521 24.51 20.274 3.246-1.236 6.324-2.76 9.222-4.641 4.617-3 8.466-6.771 11.292-11.517 2.628-4.41 3.948-9.216 4.02-14.349.042-3.18-.438-6.291-1.374-9.339-1.242-4.038-3.162-7.692-6.093-10.758-5.49-5.748-12.225-8.838-20.193-9.123-4.71-.168-9.165.897-13.368 3.009-1.893.951-3.747 1.98-5.652 2.904-4.245 2.052-8.511 4.059-12.768 6.081q-5.631 2.676-11.262 5.343l-3.81 1.809a444644 444644 0 0 1 38.211 77.922c3.225-1.389 6.387-2.751 9.609-4.137" style="fill-opacity:1;fill:#fff" transform="scale(.44)"/><path d="M320.457 128.001c-3.225 1.386-6.384 2.748-9.615 4.137a301039 301039 0 0 0-38.211-77.919l3.81-1.812q5.632-2.668 11.265-5.34c4.254-2.022 8.52-4.032 12.765-6.084 1.905-.924 3.759-1.953 5.652-2.904 4.203-2.112 8.658-3.174 13.368-3.009 7.968.285 14.703 3.375 20.196 9.126 2.928 3.063 4.848 6.717 6.09 10.758.936 3.045 1.419 6.156 1.374 9.336-.072 5.133-1.389 9.939-4.017 14.352-2.829 4.743-6.678 8.514-11.298 11.514-2.895 1.881-5.973 3.405-9.219 4.641-8.163-6.753-16.323-13.5-24.51-20.271 2.538-7.173 5.073-14.331 7.62-21.531 6.993-.069 13.989-.135 21.06-.204v10.398h-13.695c-.897 3.273-1.788 6.537-2.688 9.831 4.752 3.369 9.483 6.723 14.319 10.155 1.323-1.161 2.685-2.28 3.957-3.492 1.851-1.761 3.429-3.75 4.809-5.91 2.064-3.231 3.228-6.711 3.162-10.56-.051-2.769-.903-5.34-2.097-7.806-1.257-2.601-2.901-4.902-5.223-6.675-2.631-2.007-5.631-2.958-8.901-3.063-4.806-.156-9.261 1.152-13.497 3.33-4.026 2.07-8.064 4.119-12.099 6.177q-4.283 2.19-8.562 4.38c-.06.03-.111.075-.174.117 11.451 22.767 22.89 45.516 34.359 68.328M328.548 28.074l-6.798-1.401c1.332-8.886 2.661-17.769 3.996-26.673 4.164.606 8.289 1.212 12.477 1.824-3.231 8.772-6.447 17.493-9.675 26.25M365.697 20.826c2.211 3.579 4.389 7.113 6.606 10.704-7.218 4.467-14.433 8.931-21.666 13.41-1.518-2.265-3.006-4.488-4.53-6.765 6.525-5.778 13.038-11.544 19.59-17.349M348.267 6.861c3.192 2.205 6.327 4.374 9.474 6.549a79287 79287 0 0 1-17.076 20.364l-6.015-3.714c4.521-7.698 9.048-15.417 13.617-23.199" style="fill-opacity:1;fill:#fff" transform="scale(.44)"/></svg>