<svg xmlns="http://www.w3.org/2000/svg" viewBox="0 0 155.865 44.289"><path d="M87.184 36.749q.161.324.346.634.165.261.351.507a7 7 0 0 0 1.237 1.393q.663.571 1.869.95v2.979H78.948L70.626 29.18h12.015s4.542 7.57 4.543 7.569m-22.428.065q0 1.584.535 2.439.543.855 2.124.98v2.979H51.45v-3.04c.972-.043 1.655-.359 2.057-.952q.602-.887.601-2.343V29.18h-.001V15.11h10.648v4.026h5.194c1.986.043 3.799-.349 5.449-1.171q1.723-.863 2.244-2.852l3.63-.001h-3.629a7.6 7.6 0 0 0 .226-1.932q0-3.55-2.215-4.879c-1.482-.886-3.275-1.332-5.388-1.332h-5.51v8.14H54.108V7.414q0-1.65-.535-2.378-.543-.726-2.124-.98V.95H74.07a.5.5 0 0 0 .219.064h.158q5.26.065 9.665 2.694 4.4 2.63 4.721 8.586 0 1.484-.296 2.817h-.004a10.7 10.7 0 0 1-2.267 4.624q-2.568 3.074-6.686 4.341l3.061 5.103H70.626l-2.387-4.025h-3.483ZM12.161 29.18a19.7 19.7 0 0 0 1.813 3.704q3.01 4.816 9.533 4.815 5.83.001 8.841-4.372a19.6 19.6 0 0 0 2.189-4.148 19.2 19.2 0 0 0 1.202-5.481q.061-.378.061-.761v-.759q0-.444-.031-.889-.03-.443-.031-.886a19.8 19.8 0 0 0-1.202-5.292h-.005a20 20 0 0 0-2.185-4.149Q29.4 6.654 23.572 6.654q-6.591 0-9.599 4.848a20 20 0 0 0-1.77 3.607H1.053q1.664-5.15 5.949-8.932C11.672 2.06 17.192 0 23.573 0q9.313.001 16.249 6.146 4.301 3.812 5.938 8.963h.001q1.002 3.156 1.003 6.814 0 3.908-1.056 7.239h.001q-1.633 5.148-5.788 8.916c-4.563 4.14-10.073 6.21-16.54 6.21-6.503 0-12.028-1.986-16.566-5.956Q2.533 34.593.942 29.2 0 26.008 0 22.239v-.061q0-3.808 1.054-7.068l11.15-.001q-1.233 3.335-1.239 7.094c.007 2.385 1.106 6.65 1.191 6.977Zm95.106 7.634q-.002 1.585.54 2.439.534.855 2.124.98v2.979h-15.97v-3.04q1.46-.063 2.062-.952c.397-.591.601-1.372.601-2.343V7.415q.001-1.65-.54-2.378-.534-.727-2.124-.98V.95h15.97v3.043l-.764.127c-.672.125-1.141.443-1.39.95a5.4 5.4 0 0 0-.509 1.647v.758l.001 7.634v14.052h-.001Zm23.506-4.72q4.37 5.48 11.468 5.479a21 21 0 0 0 2.221-.125 11.2 11.2 0 0 0 4.023-1.268q1.866-1.012 2.562-3.231l3.422-.064v10.326c-.972.255-1.95.453-2.943.601q-1.49.222-3.01.349-1.994.128-3.992.128h-1.395q-.695-.001-1.39-.064a46 46 0 0 1-9.981-1.614 24.3 24.3 0 0 1-8.902-4.593 22.5 22.5 0 0 1-6.05-7.667 22 22 0 0 1-.53-1.172h-.008v-.018a21.4 21.4 0 0 1-1.652-8.315q0-3.071.738-5.737h.003q1.558-5.639 6.419-9.469Q128.938.002 137.873 0q5.447 0 10.007 1.998 4.565 1.996 7.985 6.304l-6.495 6.809h-.002l-1.422 1.49-2.394-1.49h-.003l-.454-.283q.325-.46.54-.983c.145-.355.241-.727.285-1.108q-.001-3.23-2.409-4.815t-5.388-1.584q-6.082 0-8.902 3.959a14.6 14.6 0 0 0-2.113 4.379l-.116.433h-.003q-.584 2.219-.584 4.787 0 4.97 2.394 9.265a21.6 21.6 0 0 0 1.974 2.933M10.965 22.178v.006Z" style="fill:#fff"/></svg>