<svg xmlns="http://www.w3.org/2000/svg" viewBox="0 0 100 81.8"><path d="M59.281.001v60.805h-6.776V6.371c0-.531-.562-.889-1.09-.889h-1.808V0h9.674M36.069 12.442c-6.02 0-9.203 3.473-9.203 10.055l-.002 4.605c.688 0 3.183.011 3.183.011 1.143.011 1.86-.159 2.243-.532.273-.286.402-.698.402-1.344v-3.456c0-3.57 1.406-4.298 3.514-4.298 2.021 0 3.008 1.546 3.008 4.733v6.918l-.118.042c-7.081 2.657-12.511 5.321-12.511 13.336v8.826c0 6.841 2.129 9.611 7.338 9.611 2.234 0 3.757-.745 5.266-2.574l.234-.28.088.351c0 .009.233 1.033.656 1.549.678.807 1.194.807 1.706.807h3.668V21.78c-.001-6.372-3.002-9.338-9.472-9.338m3.146 36.216c0 5.29-.925 7.266-3.431 7.266-2.645 0-2.867-2.666-2.867-5.901v-6.851c0-5.358 1.839-6.822 6.041-8.863l.257-.13zm45.578-32.413a7.27 7.27 0 0 1 6.299-3.803c5.907 0 8.908 3.865 8.908 11.482v36.878h-6.614V21.913c0-2.919-1.079-4.335-3.292-4.335-2.243 0-3.724 1.055-3.724 6.212v37.014h-6.615V21.916c0-2.919-1.075-4.335-3.291-4.335-2.234 0-3.721 1.054-3.721 6.212v37.014h-6.744V12.736h3.747c.846 0 1.09 0 1.617.384.753.547.857 2.104.857 2.122l.032.496.301-.398c1.374-1.897 3.322-2.893 5.627-2.893 2.14 0 4.786.434 6.289 3.792l.144.326zm-71.92-4.127c-2.252 0-4.574.234-6.201 2.595a5.4 5.4 0 0 0-.402-.967c-.677-1.323-1.735-1.323-2.666-1.323H.018v61.151H0a63 63 0 0 0 7.476 8.197L7.5 59.38c1.799 1.942 3.7 2.14 5.373 2.14 5.12 0 8.31-4.041 8.31-10.551V23.698c0-7.793-2.724-11.58-8.31-11.58m.901 37.774c0 2.563-.373 4.165-1.144 4.919-.562.556-1.301.638-2.019.62-1.502-.011-3.121-1.632-3.121-4.238V23.356c0-3.907 1.111-5.797 3.405-5.797 1.628 0 2.879.402 2.879 5.514z" style="fill:#fff"/></svg>