<svg xmlns="http://www.w3.org/2000/svg" viewBox="0 0 264 93"><path d="M50.173 22.879h-5.184l4.178-8.503c-1.159 0-4.277-.607-5.436-1.619-1.459-1.368-2.667-4.049-1.862-7.289.906-3.544 4.883-6.279 9.26-5.164 3.12.81 4.932 2.379 5.434 5.772.253 1.567.152 3.086-.904 5.415zM46.298 7.543c0 3.694 5.686 3.798 5.686.152 0-3.848-5.686-3.848-5.686-.152M63.91.253c4.984-.658 9.361 3.29 7.801 8.455-.252.808-1.611 2.529-1.611 2.529s2.115 1.924 2.316 3.19c.956 5.265-2.969 8.301-6.944 8.452-4.228.102-8.858-2.733-7.951-8.149.1-.709.604-1.418.855-1.873s1.409-1.62 1.409-1.62-1.561-2.481-1.711-3.542C57.57 3.899 59.835.811 63.91.253m-.955 6.278c0 2.732 4.126 2.732 4.126.152 0-2.886-4.126-2.937-4.126-.152m2.114 12.047c3.221 0 3.221-4.86-.051-4.86-3.321 0-3.221 4.86.051 4.86M81.274.253c2.515-.253 4.729.658 5.988 1.873 3.724 3.544 4.327 15.288-.152 19.184-1.811 1.62-5.635 2.432-8.555 1.013-2.767-1.366-4.427-5.061-4.68-9.314C73.423 6.327 75.335.861 81.274.253m.855 18.325c4.428-.101 4.277-15.035-.705-13.718-3.523.859-3.473 13.768.705 13.718M98.886.102c2.517-.253 4.731.657 5.989 1.873 3.724 3.543 4.328 15.287-.151 19.185-1.812 1.618-5.636 2.428-8.555 1.012-2.768-1.366-4.429-5.062-4.68-9.315C91.036 6.176 92.949.709 98.886.102m.855 18.325c4.429-.102 4.279-15.035-.703-13.719-3.523.861-3.473 13.769.703 13.719M28.533.456V4.91c-12.078-3.29-11.977 16.4-.15 13.112v4.452c-18.319 4.557-18.42-26.269.15-22.018" class="st1" style="fill:#fff"/><path d="M5.888 13.718V9.315c2.113 0 3.422-.759 3.422-2.279 0-1.264-.202-2.531-4.53-2.531v18.374H.15L.251 0h4.478c8.607.051 9.614 3.493 9.614 6.883 0 4.81-3.373 6.835-8.455 6.835M120.526 1.67v4.304h-9.965V1.67zM185.897 22.679h-4.73c-.553-2.278-3.624-6.329-3.624-6.329l-5.183 5.365c-.957.964-2.667.964-4.428.964h-1.46v-4.051h1.006c1.058 0 2.013-.1 2.819-.91l9.057-9.618c.957-.962.454-2.328-1.207-2.328l-11.675.05V1.67h11.725c5.687 0 7.347 6.126 5.284 8.354l-2.97 3.086c.051 0 5.084 7.291 5.386 9.569M136.478 1.67v10.023h-4.579V1.67z" class="st1" style="fill:#fff"/><path d="M147.851 1.67v13.06c0 4.403-3.27 7.695-7.347 7.695h-8.555V18.12h7.951c2.215 0 3.422-1.162 3.422-3.541V1.67zM129.433 2.835v11.846c0 4.505-4.075 7.744-7.75 7.744h-11.122v-4.556h11.071c1.862 0 3.321-1.012 3.321-3.088V2.886z" class="st1" style="fill:#fff"/><path d="M120.526 12.554h-9.965V8.301h9.965zM28.684 9.971h11.071v3.443H28.684zM167.478 10.124v4.151h-17.814v-4.151z" class="st1" style="fill:#fff"/><circle cx="211.545" cy="33.907" r="1.276" class="st1" style="fill:#fff" transform="matrix(1.4592 0 0 1.46778 -121.231 -46.326)"/><circle cx="214.718" cy="33.907" r="1.276" class="st1" style="fill:#fff" transform="matrix(1.4592 0 0 1.46778 -121.231 -46.326)"/><path d="M130.944 92.481h-14.696l11.876-24.094c-3.22 0-12.078-1.72-15.298-4.655-4.176-3.798-7.6-11.491-5.234-20.654 2.618-10.073 13.89-17.718 26.12-14.579 8.755 2.228 13.888 6.683 15.399 16.35.703 4.456.401 8.757-2.517 15.337zm-10.87-43.278c0 10.478 16.102 10.782 16.102.406 0-10.833-16.102-10.934-16.102-.406M172.007 28.599c14.141-1.821 26.472 9.365 22.144 23.896-.656 2.276-4.53 7.136-4.53 7.136s5.888 5.516 6.542 9.06c2.717 14.832-8.404 23.538-19.727 23.894-11.977.353-25.112-7.798-22.545-23.085.352-2.075 1.71-4.048 2.415-5.263s3.976-4.606 3.976-4.606-4.379-6.985-4.781-9.973c-1.46-10.831 4.932-19.589 16.506-21.059m-2.818 17.769c0 7.795 11.676 7.693 11.676.405 0-8.25-11.676-8.353-11.676-.405m6.039 33.967c9.109 0 9.159-13.77-.151-13.77-9.361.052-9.108 13.77.151 13.77M221.073 28.599c7.146-.706 13.387 1.874 16.909 5.266 10.467 10.073 12.179 43.179-.402 54.214-5.184 4.556-15.952 6.883-24.156 2.833-7.851-3.896-12.481-14.273-13.286-26.271-1.207-18.88 4.177-34.32 20.935-36.042m2.416 51.736c12.582-.254 12.078-42.47-2.013-38.827-9.964 2.582-9.813 39.129 2.013 38.827M84.344 29.106V41.66c-34.171-9.263-33.92 46.317-.454 37.104v12.554c-51.834 13.008-52.085-74.259.454-62.212" class="st1" style="fill:#fff"/><path d="m16.205 66.716.049-12.503c6.04 0 9.663-2.124 9.663-6.53 0-3.644-.604-7.238-12.834-7.238l.051 52.036H0l.15-64.64h12.682c24.357.101 27.226 9.921 27.226 19.438-.051 13.668-9.512 19.437-23.853 19.437M86.054 54.973h15.147v8.605H86.054zM251.57 28.448H264v64.033h-12.43z" class="st1" style="fill:#fff"/></svg>