<svg xmlns="http://www.w3.org/2000/svg" viewBox="0 0 264 44"><path d="M17.572 8.763h9.264v9.061h-9.264ZM.002 44.003h17.444l.072-17.645 26.482.01L43.896.031 9.102.033-.02 9.124ZM52.963.044h34.911v8.563h-8.612v26.571h8.587v8.783H52.956v-8.627h8.879l-.014-26.983-8.958.014ZM96.833 9.401l9.402-9.398h25.686v8.703h-17.419v26.567h17.235v8.676H97.023ZM158.568 8.77h8.769v26.305h-8.769Zm-17.696 35.057h34.553l9.322-9.305V.033h-34.509l-9.234 9.216ZM193.787 17.498h17.521v8.797h-17.521zM237.723 8.809h17.871v8.826h-17.871Zm.031 17.512h17.87v8.826h-17.87ZM263.98 43.88V.003h-34.984v9.426l-8.699 8.681v25.837Z" style="fill:#fff"/></svg>