<svg xmlns="http://www.w3.org/2000/svg" width="264" height="46" fill="none" viewBox="0 0 264 46"><path fill="#fff" d="M38.323 33.444h18.032v3.075H38.323z"/><path fill="#fff" d="M40.136 31.987h2.816v8.352h-2.816z"/><path fill="#fff" d="M51.952 38.235v-6.248h2.558v5.989c0 3.94-2.743 7.478-8.353 7.478h-5.956v-3.431h6.572c3.452 0 5.18-1.595 5.18-3.788M68.222 39.12v1.14c0 1.16-.757 1.763-1.786 1.763h-8.06v3.431h7.991c2.353 0 4.235-1.59 4.235-3.838v-3.25M59.523 31.956h14.65v3.25h-14.65z"/><path fill="#fff" d="M58.378 36.488h16.848v3.068H58.378zM91.662 39.12v1.14c0 1.16-.757 1.763-1.785 1.763H78.475v3.431h11.333c2.353 0 4.235-1.59 4.235-3.838v-5.128"/><path fill="#fff" d="M77.012 36.488h17.03v3.068h-17.03zM78.202 31.956h14.88v3.25h-14.88zM107.96 35.527H97.213v3.067h10.747z"/><path fill="#fff" d="M98.557 31.934v8.326c0 1.16.757 1.763 1.786 1.763h12.615v3.431h-12.547c-2.353 0-4.234-1.59-4.234-3.838v-9.683"/><path fill="#fff" d="M112.964 36.563H97.213v2.42h15.751zM108.922 31.988h1.625v3.583h-1.625zM111.349 31.988h1.625v3.583h-1.625zM114.771 42.346H129v3.108h-14.229zM116.22 35.872h9.535v3.107h-9.535z"/><path fill="#fff" d="M123.659 35.872h2.096v7.996h-2.096zM129.68 36.843h16.51v3.367h-16.51zM60.375 11.825a5.1 5.1 0 0 1 5.1 5.1v5.267a5.1 5.1 0 0 1-5.1 5.102H37.628V22.77H57.4c1.358 0 2.458-1.1 2.458-2.458v-1.416c0-1.358-1.1-2.458-2.458-2.458H42.714c-2.817 0-5.1-2.332-5.1-5.207V5.856c0-2.875 2.283-5.206 5.1-5.206h20.571v4.617H45.69c-1.357 0-2.458 1.123-2.458 2.508v1.446c0 1.385 1.1 2.603 2.458 2.603h14.685M68.629 8.747v4.534H80.51c1.014 0 1.935.818 1.935 1.823L68.938 18.64a2.17 2.17 0 0 0-1.61 2.098v1.484a5.1 5.1 0 0 0 5.102 5.101h10.793a5.1 5.1 0 0 0 5.1-5.101v-8.373a5.1 5.1 0 0 0-5.1-5.101zM82.538 19.28v1.779a1.915 1.915 0 0 1-1.915 1.915h-5.894c-.913 0-1.594-.634-1.766-1.274zM98.02 13.31h3.938V8.56h-3.935V.599h-5.657v8.006h-2.35v4.704h2.35v11.67a2.4 2.4 0 0 0 2.402 2.4h6.874v-4.751l-3.622-.003zM124.48 27.29v-4.534h-13.226c-1.014 0-1.936-.819-1.936-1.823l13.508-3.536a2.17 2.17 0 0 0 1.61-2.097v-1.484a5.1 5.1 0 0 0-5.101-5.101h-10.794a5.1 5.1 0 0 0-5.1 5.101v8.373c0 2.817 2.284 5.1 5.101 5.1zm-15.253-10.534v-1.78c0-1.057.857-1.914 1.915-1.914h5.894c.913 0 1.594.634 1.766 1.274zM127.378.599h5.476v26.78h-5.476zM135.791.599h5.476v26.78h-5.476zM144.532 8.747v4.534h11.883c1.014 0 1.935.818 1.935 1.823l-13.508 3.535a2.17 2.17 0 0 0-1.609 2.098v1.484a5.1 5.1 0 0 0 5.1 5.101h10.794a5.1 5.1 0 0 0 5.1-5.101v-8.373a5.1 5.1 0 0 0-5.1-5.101zm13.91 10.534v1.779a1.915 1.915 0 0 1-1.915 1.915h-5.894c-.913 0-1.595-.634-1.766-1.274zM176.957 27.559c-2.179 0-3.503-.755-4.478-2.443L164.156 8.65h6.152l7.418 14.34 7.419-14.34h6.152l-8.323 16.466c-.975 1.688-2.299 2.442-4.479 2.442h-1.538M192.787 8.65h5.476v18.73h-5.476zM195.549 6.705a3.076 3.076 0 1 0 0-6.151 3.076 3.076 0 0 0 0 6.151M222.006 27.29v-4.534H208.78c-1.014 0-1.936-.819-1.936-1.823l13.508-3.536a2.17 2.17 0 0 0 1.61-2.097v-1.484a5.1 5.1 0 0 0-5.101-5.101h-10.794a5.1 5.1 0 0 0-5.1 5.101v8.373c0 2.817 2.284 5.1 5.101 5.1zm-15.253-10.534v-1.78c0-1.057.857-1.914 1.915-1.914h5.894c.913 0 1.594.634 1.766 1.274zM234.326 27.559c-2.179 0-3.504-.755-4.478-2.443L221.525 8.65h6.152l7.418 14.34 5.112-14.34h5.111l-5.157 16.24c-.748 1.642-2.117 2.668-4.297 2.668h-1.538"/><path fill="#fff" d="M251.199 27.559c2.179 0 3.503-.755 4.478-2.443L264 8.65h-6.152l-7.418 14.34-5.112-14.34h-5.111l5.156 16.24c.749 1.642 2.118 2.668 4.298 2.668h1.538M.81 45.464h15.92c-4.624-1.706-11.609-8.49-14.19-12.593C5.302 40.424 5.836 43.727.81 45.464M26.354.497h6.133v12.957C30.735 8.222 28.715 3.6 26.354.497M20.482.497h3.458c3.338 5.419 6.252 10.49 8.547 16.659v3.847C28.932 12.98 25.24 5.175 20.482.497M32.487 27.726V24.34C27.697 12.712 20.915 4.674 15.182.479h-7.15c12.905 5.105 20.4 15.654 24.455 27.247"/><path fill="#fff" d="M30.265 41.578c-3.91 6.426-14.05 5.228-22.892-5.292C.3 27.87-2.118 16.544 2.031 9.993 5.885 3.907 17.395 6.51 23.79 14.236c6.296 7.607 11.545 19.007 6.475 27.341M23.24 29.513c-2.864 0-5.187 1.845-5.187 4.12s2.323 4.119 5.187 4.119 5.187-1.844 5.187-4.12c0-2.274-2.322-4.118-5.187-4.118m-1.793-11.437c-.959-.001-1.819.315-2.448.977-1.229 1.292-1.133 3.895.228 6.227q.39-.056.784-.059c2.61.002 4.831 1.776 5.24 4.185 1.071.068 2.022-.217 2.655-.865 1.549-1.585 1.006-5.32-1.454-7.94-1.537-1.638-3.408-2.523-5.005-2.525M9.929 15.439c-1.048-.007-1.988.362-2.65 1.145-1.26 1.489-.952 4.018.386 6.25.482-.106.98-.16 1.48-.16 2.983.002 5.43 1.868 5.54 4.224a3.22 3.22 0 0 0 1.846-1.077c1.631-1.927.603-5.56-1.853-8.071-1.458-1.49-3.218-2.302-4.749-2.311m2.123 11.734c-2.865 0-5.187 1.844-5.187 4.119s2.322 4.119 5.187 4.119 5.187-1.844 5.187-4.12c0-2.274-2.322-4.119-5.187-4.119"/></svg>