<svg xmlns="http://www.w3.org/2000/svg" id="Layer_1" x="0" y="0" viewBox="0 0 3839 475.1"><style>.st0{fill:#fff}.st3{fill:none}</style><defs><circle id="SVGID_00000127026289565982019850000005364352978926819487_" cx="380.2" cy="237.6" r="237.6"/></defs><clipPath id="SVGID_00000150820265061396769290000005966050882369408650_"><circle cx="380.2" cy="237.6" r="237.6" style="overflow:visible"/></clipPath><path d="M320.1 474.6 128.4 281.2l35.7 74.4L281.8 470z" class="st0" style="clip-path:url(#SVGID_00000150820265061396769290000005966050882369408650_)"/><defs><path id="SVGID_00000116948191691183556870000016426785880775297673_" d="M265.2 327.8c31.9-7.2 63.8-14.2 95.5-22.4 31.9-8.4 63.1-18.5 94.1-29.9 30.8-11.3 61.4-23.3 91.8-35.5 14.4-5.8 29-11.1 43.6-16.1 8.9-3.1 17.8-6.3 26.5-9.9-3.6-36.8-15.7-71-34.1-101-27.3 9.8-55.6 16.6-83.4 24.7-31 9.1-61.9 18.4-92.7 28.6s-61.3 20.7-92.1 30.4c-31.1 9.7-62.4 18.9-93.4 29.1-25.9 8.5-51.6 18.3-78 25 1.9 35.3 11.6 68.6 27.2 98.1 32.2-4.6 63.3-14 95-21.1"/></defs><clipPath id="SVGID_00000001644350140067927200000011561912657665558948_"><path d="M265.2 327.8c31.9-7.2 63.8-14.2 95.5-22.4 31.9-8.4 63.1-18.5 94.1-29.9 30.8-11.3 61.4-23.3 91.8-35.5 14.4-5.8 29-11.1 43.6-16.1 8.9-3.1 17.8-6.3 26.5-9.9-3.6-36.8-15.7-71-34.1-101-27.3 9.8-55.6 16.6-83.4 24.7-31 9.1-61.9 18.4-92.7 28.6s-61.3 20.7-92.1 30.4c-31.1 9.7-62.4 18.9-93.4 29.1-25.9 8.5-51.6 18.3-78 25 1.9 35.3 11.6 68.6 27.2 98.1 32.2-4.6 63.3-14 95-21.1" style="overflow:visible"/></clipPath><path d="M124.5 451.7c-11.5 0-22.7-.3-33.6-.8-16.5-.8-29.6-14.5-29-31.1.6-16.7 14.8-29.7 31.5-28.8 93.7 4.8 220.6-13.8 339.5-49.4 116.2-35 207.8-80.7 245.2-122.4 4.4-4.9 10.8-12.9 13.6-21 1.9-5.5-1.5-11.5-7.3-12.5-12.5-2.1-40.4-2.3-100.5 12.1-63.8 15.3-143.2 41.7-219.9 67.3-79.5 26.5-154.6 51.5-214.7 65.4-60.5 13.8-124.7 21.9-143.5-23.6-7.5-17.9-11.5-46.2 11.5-79.3 49.5-71.2 201.3-125.1 287.2-150.8C433.5 37.9 571 15 654.8 18.2c16.6.6 29.5 14.5 28.8 31.1-.6 16.7-14.5 29.6-31.1 28.9-77.7-3-207.6 18.9-331 55.9C191.8 173 94 221.9 66.3 261.6c-1.4 2.1-2.6 4-3.5 5.8-2.6 4.9-.5 13 8.2 13.8 13.1 1.2 38.1-1.9 83.5-14.2 54.6-14.5 120.3-35.9 190.1-59.2 199.2-66.4 324.2-104.2 379.3-70.9 15.4 9.3 25.1 23.6 27.9 41.3 4.4 26.9-5.5 54.1-29.5 80.7-45 50.3-144.4 101.3-272.6 139.8-112.9 34.2-229.3 53-325.2 53" style="clip-path:url(#SVGID_00000001644350140067927200000011561912657665558948_);fill:#fff"/><path d="M560.8 83.1c34.9-4.1 66.3-5.8 92-4.9 16.6.6 30.5-12.2 31.1-28.8s-12.2-30.5-28.8-31.1c-41.4-1.5-96.3 3.2-156.5 13.3C522 45 543.1 62.5 560.8 83.1M71.1 281.2c-8.8-.8-10.8-8.9-8.2-13.8.9-1.8 2.1-3.7 3.5-5.8 12.7-18.3 40.2-38.5 78.8-58.7 4.1-28.1 13.1-54.4 26-78.4C107.4 152 45.6 187 17.3 227.7c-22.9 33-18.9 61.3-11.5 79.2 18.8 45.4 83 37.3 143.4 23.4 3.6-.9 7.3-1.7 11.1-2.6-7.5-18.3-12.9-37.8-15.6-58-39.1 10.1-61.4 12.7-73.6 11.5M752 178.2c-2.8-17.8-12.5-32-27.9-41.3-26.8-16.2-70-15.6-130.1-3.1 8.8 18 15.3 37.3 19.3 57.4 40.3-7.9 61-7.3 71.2-5.7 5.8 1 9.3 6.9 7.3 12.5-2.8 8.1-9.3 16.1-13.6 21-13.8 15.4-35 31.4-62 47.1-3.3 28.4-11.8 55.2-24.3 79.7 58.9-27.4 104.2-57.3 130.8-86.9 23.8-26.6 33.7-53.8 29.3-80.7M196.3 388.1c-36.9 3.3-71.8 4.4-103 2.7-16.7-.9-30.9 12.1-31.5 28.8-.6 16.6 12.5 30.4 29 31.1 10.9.5 22.1.8 33.6.8 41.3 0 86.5-3.5 133.6-10.2-23.5-13.9-44.3-32.1-61.7-53.2" class="st0"/><path d="M498.5 31.5C463.6 11.5 423.2 0 380.2 0c-90.3 0-168.8 50.4-209 124.6 47.7-20.5 96.6-36.7 133.5-47.7C369.8 57.3 437 41.7 498.5 31.5M145.1 203.1c-1.7 11.3-2.4 22.9-2.4 34.6 0 10.9.8 21.6 2.2 32 3.2-.8 6.6-1.7 9.9-2.6 54.6-14.5 120.3-35.9 190.1-59.2 102.6-34.2 185.4-60.9 249.2-74.1-8.9-18.4-20.2-35.4-33.3-50.7-70.9 8.2-156.4 26.3-239.1 51-70.3 21.1-131.2 45-176.6 69M258.1 441.4c35.6 21.5 77.5 33.7 122.1 33.7 92.3 0 172.2-52.6 211.6-129.3-41.2 19.2-89.1 37.1-141.8 52.9-64.4 19.4-129.9 34-191.9 42.7M616.1 266.1c1.2-9.4 1.7-18.9 1.7-28.6 0-15.8-1.5-31.3-4.5-46.3-8.8 1.7-18.5 3.9-29.3 6.4-63.9 15.4-143.3 41.8-220 67.4-74.8 25-145.6 48.5-203.7 62.8 9 22 21.2 42.3 36 60.4 74.3-6.7 157.3-22.9 236.7-46.7 73.3-22.1 136.8-48.5 183.1-75.4" class="st3"/><defs><circle id="SVGID_00000071517772776938632310000017487385853729780406_" cx="380.2" cy="237.6" r="237.6"/></defs><clipPath id="SVGID_00000027600947757592142000000001460140752701970583_"><circle cx="380.2" cy="237.6" r="237.6" style="overflow:visible"/></clipPath><path d="M406.1-95.2S536.2 60.8 567 90.5c29.6 28.7 213.6 185.1 213.6 185.1l-5.4 24.8L374.9-88.5" class="st0" style="clip-path:url(#SVGID_00000027600947757592142000000001460140752701970583_)"/><path d="M381-75.9S512.7 79.9 543.4 109.7c29.6 28.7 211.8 185.7 211.8 185.7l-6.4 24.2-398-388.1" class="st0" style="clip-path:url(#SVGID_00000027600947757592142000000001460140752701970583_)"/><path d="M355.9-56.6S489.2 99.1 520 129c29.6 28.7 210 186.2 210 186.2l-7.3 23.6L326.4-48.6" class="st0" style="clip-path:url(#SVGID_00000027600947757592142000000001460140752701970583_)"/><path d="M330.8-37.2s134.9 155.7 165.6 185.4C526 177 704.6 335 704.6 335l-8.4 22.9L302.1-28.8" class="st0" style="clip-path:url(#SVGID_00000027600947757592142000000001460140752701970583_)"/><path d="M305.7-17.9s136.4 155.6 167.2 185.3c29.6 28.7 206.6 187.4 206.6 187.4l-9.4 22.4L277.8-8.9" class="st0" style="clip-path:url(#SVGID_00000027600947757592142000000001460140752701970583_)"/><path d="M280.6 1.4s138 155.5 168.7 185.2c29.6 28.7 204.8 187.9 204.8 187.9l-10.4 21.7L253.4 11.1" class="st0" style="clip-path:url(#SVGID_00000027600947757592142000000001460140752701970583_)"/><path d="M255.4 20.7S394.9 176 425.7 205.8c29.6 28.7 202.9 188.4 202.9 188.4l-11.3 21.1L229.1 30.9" class="st0" style="clip-path:url(#SVGID_00000027600947757592142000000001460140752701970583_)"/><path d="M230.3 40.2s141 155.2 171.9 184.9c29.6 28.7 201.1 189.1 201.1 189.1L591 434.6 204.8 50.8" class="st0" style="clip-path:url(#SVGID_00000027600947757592142000000001460140752701970583_)"/><path d="M205.2 59.5s142.7 155.1 173.5 184.8C408.3 273 578 433.8 578 433.8l-13.4 19.8-384.1-383" class="st0" style="clip-path:url(#SVGID_00000027600947757592142000000001460140752701970583_)"/><path d="M180.1 78.8s144.3 154.9 175 184.7c29.6 28.7 197.5 190.1 197.5 190.1l-14.3 19.2L156.2 90.3" class="st0" style="clip-path:url(#SVGID_00000027600947757592142000000001460140752701970583_)"/><path d="M155 98.1S300.8 253 331.6 282.8c29.6 28.7 195.7 190.7 195.7 190.7L512 492 131.8 110.4" class="st0" style="clip-path:url(#SVGID_00000027600947757592142000000001460140752701970583_)"/><path d="M129.9 117.5S277.3 272.3 308 302c29.6 28.7 194 191.3 194 191.3l-16.3 18-378.3-380.9" class="st0" style="clip-path:url(#SVGID_00000027600947757592142000000001460140752701970583_)"/><path d="M104.8 136.8s148.9 154.7 179.7 184.4c29.6 28.7 192.1 191.9 192.1 191.9l-17.4 17.4L83.1 150.2" class="st0" style="clip-path:url(#SVGID_00000027600947757592142000000001460140752701970583_)"/><path d="M79.7 156.1S230.3 310.7 261 340.4c29.6 28.7 190.3 192.4 190.3 192.4L433 549.5 58.7 170.1" class="st0" style="clip-path:url(#SVGID_00000027600947757592142000000001460140752701970583_)"/><path d="M54.6 175.4s152.1 154.4 182.9 184.2C267.1 388.3 426 552.5 426 552.5l-19.3 16.1L34.4 190" class="st0" style="clip-path:url(#SVGID_00000027600947757592142000000001460140752701970583_)"/><defs><circle id="SVGID_00000005982865404356749440000009962860988056558255_" cx="380.2" cy="237.6" r="237.6"/></defs><clipPath id="SVGID_00000085237003188126297170000011228989193750720906_"><circle cx="380.2" cy="237.6" r="237.6" style="overflow:visible"/></clipPath><path d="M207.79 363.482h18.699v79.896H207.79z" class="st0" style="clip-path:url(#SVGID_00000085237003188126297170000011228989193750720906_)" transform="rotate(-41.562 217.082 403.503)"/><defs><circle id="SVGID_00000178883765755013006150000015372286763842180276_" cx="380.2" cy="237.6" r="237.6"/></defs><clipPath id="SVGID_00000111173260055166012400000014892836500658947201_"><circle cx="380.2" cy="237.6" r="237.6" style="overflow:visible"/></clipPath><path d="M548.695 44.7h17v54.999h-17z" class="st0" style="clip-path:url(#SVGID_00000111173260055166012400000014892836500658947201_)" transform="rotate(-45 557.24 72.155)"/><path d="M2911.1 90.2h-191.9c-15.9 0-28.9 12.9-28.9 28.9 0 15.9 12.9 28.9 28.9 28.9h67.1v207c0 15.9 12.9 28.9 28.9 28.9s28.9-12.9 28.9-28.9V148h67.1c15.9 0 28.9-12.9 28.9-28.9-.1-15.9-13-28.9-29-28.9M2659.9 134.2c-14.9-30.5-43.9-57-75.6-57s-60.7 26.5-75.6 57c-26 53-50.6 121.7-75.2 210.1-4.3 15.6 4.8 31.7 20.3 36 2.6.7 5.3 1.1 7.9 1.1 12.8 0 24.6-8.5 28.2-21.4 5.4-19.5 10.9-37.9 16.3-55.4h156.3c5.4 17.5 10.8 35.9 16.3 55.4 4.3 15.6 20.5 24.7 36 20.3 15.6-4.3 24.7-20.5 20.3-36-24.7-88.4-49.3-157.1-75.2-210.1m-134.6 112.7c11.9-33.2 23.8-62.1 36-86.9 5.2-10.6 13.6-24.2 23-24.2 9.5 0 17.9 13.6 23.1 24.2 12.2 24.9 24.1 53.7 36 86.9zM1936.3 134.2c-14.9-30.5-43.9-57-75.6-57s-60.7 26.5-75.6 57c-26 53-50.6 121.7-75.2 210.1-4.3 15.6 4.8 31.7 20.3 36 2.6.7 5.3 1.1 7.9 1.1 12.8 0 24.6-8.5 28.2-21.4 5.4-19.5 10.9-37.9 16.3-55.4h156.2c5.4 17.5 10.8 35.9 16.3 55.4 4.3 15.6 20.5 24.7 36 20.3 15.6-4.3 24.7-20.5 20.3-36-24.6-88.4-49.2-157.1-75.1-210.1m-134.7 112.6c11.9-33.2 23.8-62.1 36-86.9 5.2-10.6 13.6-24.2 23-24.2 9.5 0 17.9 13.6 23.1 24.2 12.2 24.9 24.1 53.7 36 86.9zM1702.3 243.9c0-.8 0-1.6-.1-2.3 0-.2 0-.4-.1-.6-.1-.8-.2-1.5-.3-2.3 0-.2-.1-.4-.1-.6-.2-.7-.3-1.5-.6-2.2-.1-.2-.1-.4-.2-.6-.2-.7-.5-1.4-.8-2.1-.1-.2-.2-.4-.2-.6-.3-.7-.6-1.3-.9-2l-.3-.6c-.4-.6-.7-1.2-1.1-1.8-.1-.2-.2-.4-.4-.5-.4-.6-.8-1.1-1.3-1.7-.1-.2-.3-.3-.4-.5-.5-.5-.9-1.1-1.4-1.6l-.5-.5c-.5-.5-1-1-1.5-1.4-.2-.1-.4-.3-.5-.4-.5-.4-1.1-.8-1.7-1.2-.2-.1-.4-.3-.6-.4-.6-.4-1.1-.7-1.7-1.1-.2-.1-.5-.2-.7-.4l-1.8-.9c-.3-.1-.6-.2-.8-.3-.6-.2-1.2-.5-1.8-.6-.3-.1-.6-.2-1-.3-.6-.2-1.2-.3-1.7-.4-.4-.1-.7-.1-1.1-.2-.6-.1-1.1-.2-1.7-.3-.4 0-.8-.1-1.2-.1s-.7-.1-1.1-.1h-110.2c-15.9 0-28.9 12.9-28.9 28.9 0 15.9 12.9 28.9 28.9 28.9h76.4c-13.2 53.6-55.9 62.5-85.6 62.5-58.9 0-100.1-44.6-100.1-108.4 0-46.6 47.7-89 100.1-89 32.1 0 55.9 7.3 82.1 25.1 13.2 9 31.1 5.5 40.1-7.6 9-13.2 5.5-31.1-7.6-40.1-35.7-24.3-71-35.1-114.5-35.1-40.9 0-80 15.4-110.3 43.5-30.2 27.9-47.5 65.6-47.5 103.2 0 48.4 16.1 90.3 46.6 121 28.9 29.1 68.4 45.1 111.2 45.1 40.2 0 75.5-11.6 102.2-33.5 22.2-18.2 42.8-52.8 45-114.6v-1c-.3 0-.3-.1-.3-.3" class="st0"/><path d="M1368.9 326.1h-135.5v-65.2h94.8c15.9 0 28.9-12.9 28.9-28.9 0-15.9-12.9-28.9-28.9-28.9h-94.8v-55.3h135.5c15.9 0 28.9-12.9 28.9-28.9 0-15.9-12.9-28.9-28.9-28.9h-164.4c-15.9 0-28.9 12.9-28.9 28.9v235.9c0 15.9 12.9 28.9 28.9 28.9h164.4c15.9 0 28.9-12.9 28.9-28.9-.1-15.8-13-28.7-28.9-28.7M2430.2 288.1c-3.8-46.9-41.7-82.6-87.2-82.6h-94.8c-16 .6-29.5-12.2-30.9-29.3-.9-13.3 5.6-26.6 14-28.5l1.6-.4c37.6-10.7 117.8-7.9 145.9 2.3 15 5.4 31.5-2.4 36.9-17.4s-2.4-31.5-17.4-36.9c-41.4-14.9-133.8-16.7-180.6-3.6-36.1 8.6-61.1 46.6-58 88.8v.3c3.8 46.9 41.7 82.6 87.2 82.6h94.8c16-.6 29.5 12.2 30.9 29.3.9 13.3-5.6 26.6-14 28.5l-1.6.4c-37.6 10.7-117.8 7.9-145.9-2.3-15-5.4-31.5 2.4-36.9 17.4s2.4 31.5 17.4 36.9c22.7 8.2 60.8 12.4 98.3 12.4 30.8 0 61.2-2.9 82.3-8.8 36.1-8.6 61.1-46.6 58-88.8zM1150.8 288.1c-3.8-46.9-41.7-82.6-87.2-82.6h-94.8c-16 .6-29.5-12.2-30.9-29.3-.9-13.3 5.6-26.6 14-28.5l1.6-.4c37.6-10.7 117.8-7.9 145.9 2.3 15 5.4 31.5-2.4 36.9-17.4s-2.4-31.5-17.4-36.9c-41.4-14.9-133.8-16.7-180.6-3.6-36.1 8.6-61.1 46.6-58 88.8v.3c3.8 46.9 41.7 82.6 87.2 82.6h94.8c16-.6 29.5 12.2 30.9 29.3.9 13.3-5.6 26.6-14 28.5l-1.6.4c-37.6 10.7-117.8 7.9-145.9-2.3-15-5.4-31.5 2.4-36.9 17.4s2.4 31.5 17.4 36.9c22.7 8.2 60.8 12.4 98.3 12.4 30.8 0 61.2-2.9 82.3-8.8 36.1-8.6 61.1-46.6 58-88.8zM3209.9 77.8c-15.7 0-28.4 12.7-28.4 28.4v175.4c0 27.1-38.6 50.9-82.7 50.9-44 0-82.7-23.8-82.7-50.9V106.2c0-15.7-12.7-28.4-28.4-28.4s-28.4 12.7-28.4 28.4v175.4c0 30.1 16.2 59 44.4 79.1 25.7 18.4 59.5 28.5 95 28.5s69.2-10.1 95-28.5c28.2-20.1 44.4-49 44.4-79.1V106.2c.2-15.7-12.5-28.4-28.2-28.4M3467.6 271.3c-1.9-1.8-.8-5.1 1.9-5.3 52.7-3.3 68.4-42.8 71.1-76.4v-.3c1.7-23.8-7.6-49.1-24.8-67.6-13.4-14.4-37.9-31.5-78.9-31.5-30.4 0-64.6.5-93.7 1.4-47.8 1.5-51.2 2.7-55.7 4.4-11.4 4.1-19 14.9-19 27v230.4c0 16.4 13.7 29.6 30.2 28.8 15.5-.7 27.5-14.1 27.5-29.6V150c25.3-1 67.2-2.1 110.7-2.1 16.2 0 28.5 4.4 36.6 13.1 8.2 8.8 9.8 19.2 9.5 24.1-.7 8.9-3.1 35.2-50.3 35.2H3408c-12.7 0-24.5 7.2-29.6 18.8-5.4 12.3-2.5 26.5 7.3 35.6l108.6 101.8c5.6 5.2 12.7 7.8 19.7 7.8 7.7 0 15.4-3.1 21.1-9.1 10.9-11.6 10.3-29.9-1.3-40.8zM3810.6 90.7c-15.7 0-28.4 12.7-28.4 28.4v161.7l-162.5-180.7c-7.9-8.8-20.3-11.8-31.3-7.5-11 4.2-18.2 14.8-18.2 26.5V355c0 15.7 12.7 28.4 28.4 28.4s28.4-12.7 28.4-28.4V193.3L3789.5 374c5.5 6.1 13.2 9.4 21.1 9.4 3.4 0 6.9-.6 10.2-1.9 11-4.2 18.2-14.8 18.2-26.5V119.1c0-15.7-12.7-28.4-28.4-28.4" class="st0"/></svg>