<svg xmlns="http://www.w3.org/2000/svg" viewBox="0 0 264 68"><path d="m262.539 24.974-6.638-.026h-.286l-.074.277-2.238 8.102-.013.049v.052l-.033 11.698h-4.744l1.103-12.829c.058-.69-.176-.763-.52-.165L230.646 64.2c-.342.601-1.188 1.029-1.874.956l-5.319-.567c-.687-.073-1.405-.676-1.598-1.34l-3.832-13.185h2.385V35.918h5.183l3.272 12.158c.179.666.596.717.929.112l17.254-31.582h7.303l.088-.259 3.171-9.535 5.249.457a1.26 1.26 0 0 1 1.138 1.362zm-2.97 33.399h-3.452l-.102.21-.623 1.265-2.498.331-.303.039-.022.308-.486 6.911-4.189-.435a1.29 1.29 0 0 1-1.14-1.384l1.694-19.738h5.559l.001-.377.032-12.024 2.144-7.774 6.286.025zm-2.116 9.62-4.621-.478.467-6.63 2.393-.315.198-.027.089-.18.61-1.234h2.914l-.689 7.743a1.24 1.24 0 0 1-1.361 1.121M211.249 26.75c-.195-.663-.429-.646-.525.039l-2.802 20.195h-5.167l-1.737-.946-.083-.047-.094-.001-3.221-.019 3.904-26.291h5.405l.083-.262 1.481-4.669h11.399l5.492 20.416h-5.733V49.31h-1.852zm-6.755 35.848-7.977-.699a1.17 1.17 0 0 1-1.066-1.353l1.2-8.069 10.339 1.234-1.075 7.752a1.337 1.337 0 0 1-1.421 1.135m-3.751-15.853 1.737.946.085.047h5.254l-.726 5.224-10.332-1.231.746-5.008zm4.753-45.24 9.89.997c.688.07 1.396.673 1.575 1.341l2.731 10.15h-11.746l-.084.263-1.481 4.67h-4.742l2.424-16.303c.1-.684.746-1.187 1.433-1.118m46.533 5.977c.332-.608 1.166-1.056 1.853-.995l2.955.257-3.029 9.107h-6.35zM202.442 1.016l-4.045 23.947h-4.576v2.382l-.99.97-.112.11-.001.158-.024 7.951-.001.378h3.685l-1.374 8.13-2.851 2.245-2.664-.022h-.129l-.102.078-2.136 1.64-.148.112v3.522l-7.476 2.766-8.343-14.087 9.223-7.712 4.454 7.939c.339.603.692.535.785-.149l3.526-25.665h3.684l.106-.088 1.409-1.185.135-.112V8.216l.899-.961.102-.108V5.072l.873-.775.126-.112V1.023l4.944-.998c.676-.138 1.135.31 1.021.991m-8.97 27.726.99-.971.113-.111v-1.943h3.695l-1.762 10.44h-3.057zm-1.125 32.055c-.114.682-.763 1.346-1.441 1.473l-5.355 1.015c-.676.127-1.522-.254-1.875-.848l-3.785-6.396 7.592-2.808.245-.091v-3.674l1.885-1.446 2.665.021.133.001.104-.081 2.305-1.816zM153.576 9.276l10.573-2.191c.673-.14 1.504.239 1.843.841l2.217 3.954h-2.502l-.115.155-.665.909h-3.925v5.021h-3.662l-4.356-7.354c-.351-.595-.086-1.196.592-1.335m7.805 9.443h.378v-5.022h3.553l.113-.154.664-.91h2.544l11.373 20.282-9.237 7.722-12.982-21.918zm29.457-15.347c.094-.684.725-1.356 1.4-1.494l3.486-.704v2.67l-.874.774-.127.114v2.115l-.899.961-.101.11v6.053l-1.17.982h-3.308z" style="fill:#fff"/><path d="M28.279 42.866q1.157 2.29 1.158 5.453 0 3.052-1.271 5.284a11.3 11.3 0 0 1-3.306 3.672q-2.033 1.44-4.604 2.148a19.5 19.5 0 0 1-5.17.706q-5.198 0-8.731-1.921-3.53-1.92-6.355-5.82l4.014-5.078c.371-.469 1.003-.487 1.4-.042 0 0 .462.516 1.252 1.137a15.7 15.7 0 0 0 2.572 1.639q1.383.706 2.825 1.16 1.44.45 2.683.452 1.243-.002 1.893-.452.65-.453.651-1.696-.001-1.074-1.159-2.035-1.158-.96-2.881-2.006-1.725-1.042-3.731-2.26a21.7 21.7 0 0 1-3.727-2.854 15.2 15.2 0 0 1-2.883-3.757q-1.158-2.12-1.158-4.887 0-2.714 1.017-4.747a10.1 10.1 0 0 1 2.741-3.42q1.721-1.382 3.984-2.091 2.258-.704 4.802-.705 4.519 0 8.108 1.666 3.587 1.667 6.809 4.944l-3.251 5.018c-.325.504-.962.594-1.415.2 0 0-.816-.708-1.72-1.293a24 24 0 0 0-2.655-1.496 15 15 0 0 0-2.43-.932q-1.13-.312-1.978-.312-1.016 0-1.496.51-.483.508-.481 1.299 0 1.017 1.158 1.892 1.157.877 2.91 1.81 1.75.933 3.758 2.089a20.6 20.6 0 0 1 3.757 2.798q1.75 1.641 2.91 3.927m13.813-2.187a4.5 4.5 0 0 1 1.463-1.069q.814-.364 1.605-.366 2.363.001 3.518 1.183c.768.789 1.117 1.593 1.117 1.593.237.548.903.878 1.481.735l6.83-1.709q-1.07-4.67-4.335-7.543-3.265-2.871-8.781-2.871-3.377 0-6.024 1.042-2.645 1.041-4.446 2.984t-2.73 4.672q-.93 2.732-.929 6.107 0 2.93.844 5.575.845 2.647 2.619 4.644 1.77 1.999 4.474 3.181 2.702 1.18 6.472 1.181 2.14-.002 4.166-.647a11.8 11.8 0 0 0 3.716-1.971q1.688-1.322 2.955-3.35c.844-1.351 1.57-3.745 1.57-3.745a1.07 1.07 0 0 0-.726-1.339l-6.614-1.897a3.8 3.8 0 0 1-.731 1.632 6.8 6.8 0 0 1-1.267 1.266q-.704.537-1.436.847t-1.351.308q-2.195 0-3.573-1.688c-.921-1.128-1.38-2.607-1.38-4.449q0-1.461.422-2.534.422-1.064 1.071-1.772m46.446 4.771q-.142-3.501-.283-7.142c-.093-2.427-.221-6.73-.221-6.73a1.103 1.103 0 0 0-1.119-1.065l-9.245.201q.17 2.712.311 4.687.141 1.977.225 3.782.085 1.808.115 3.726c.016 1.281.028 2.787.028 4.518q0 1.976-1.299 3.132-1.297 1.158-3.104 1.157-1.92 0-2.88-1.157t-.959-2.793c0-1.954.089-3.786.281-5.702q.281-2.821.566-5.195c.226-1.807.611-4.119.611-4.119.097-.591-.31-1.071-.908-1.063l-9.64.101q-.397 2.823-.678 5.646a120 120 0 0 0-.479 5.138 67 67 0 0 0-.197 4.855q0 3.05.734 5.494.733 2.444 2.258 4.155 1.523 1.709 3.923 2.635 2.4.924 5.731.926.958 0 1.976-.256a10 10 0 0 0 1.948-.705 10.7 10.7 0 0 0 1.721-1.044c.236-.177.652-.74.993-.622.442.156.193 1.15.193 1.48 0 .598.488 1.077 1.086 1.064l8.849-.198a643 643 0 0 0-.254-7.778zm39.599-9.499q-1.295-1.996-3.545-3.124-2.253-1.125-5.855-1.125-2.702 0-4.645 1.181c-.344.21-.682.434-1.005.675a9 9 0 0 0-.838.698c-.196.185-.366.469-.652.52-.072.012-.148.031-.225.023-.26-.024-.333-.199-.467-.394a5.5 5.5 0 0 0-1.4-1.381q-1.409-.984-3.546-.986-1.07 0-2.027.339-.959.338-1.716.872c-.429.301-.798.665-1.207.988-.201.159-.28.377-.563.36-.289-.019-.249-.391-.268-.589q-.04-.355-.074-.709l-.055-.518a1.196 1.196 0 0 0-1.196-1.054l-8.092.2q.17 3.433.255 6.587.084 3.151.112 6.387a433 433 0 0 1 0 6.84c-.019 2.401-.026 6.851-.026 6.851a1.066 1.066 0 0 0 1.081 1.069l7.853-.134a1.14 1.14 0 0 0 1.105-1.103l.317-15.465q0-.79.393-1.604.392-.817 1.857-.817.677-.002 1.071.507.391.507.646 1.351.254.844.339 1.941.083 1.097.083 2.279v4.785q0 1.857-.028 3.236a103 103 0 0 1-.084 2.59c-.038.808-.072 1.703-.072 1.703a1.07 1.07 0 0 0 1.042 1.11l9.219.199a32 32 0 0 1-.197-2.082 54 54 0 0 1-.113-2.534q-.027-1.293-.056-2.476a77 77 0 0 1-.028-1.915q-.001-5.4.451-8.049.45-2.647 2.363-2.647 1.182 0 1.831.987.646.985.647 3.292 0 2.197-.536 5.602c-.356 2.271-1.476 7.189-1.476 7.189a.968.968 0 0 0 .836 1.194l9.282 1.159q.617-3.488 1.041-6.756a50 50 0 0 0 .423-6.362q0-3.32-.478-6.108-.482-2.782-1.777-4.782m42.864 4.785q-.478-2.786-1.771-4.785-1.296-1.996-3.548-3.124-2.251-1.125-5.853-1.125-2.7 0-4.645 1.181-.497.303-.968.645a9 9 0 0 0-.843.697c-.219.205-.503.7-.853.599-.247-.073-.465-.35-.611-.551a5.5 5.5 0 0 0-1.311-1.247q-1.41-.987-3.546-.988a6 6 0 0 0-2.027.339 7 7 0 0 0-1.716.872 6 6 0 0 0-1.239 1.126 3 3 0 0 1-.157.184c-.081.084-.207.198-.334.166-.143-.033-.228-.248-.259-.374-.058-.222-.064-.457-.086-.685q-.044-.443-.092-.885a1.2 1.2 0 0 0-1.194-1.054l-8.092.2q.168 3.433.253 6.587a368 368 0 0 1 .113 13.228c-.019 2.402-.027 6.85-.027 6.85a1.064 1.064 0 0 0 1.083 1.069l7.854-.133a1.14 1.14 0 0 0 1.105-1.104l.315-15.463q.001-.789.395-1.605.392-.817 1.857-.817.675-.001 1.07.506.392.507.647 1.351.252.846.337 1.942.085 1.098.085 2.28v4.785q0 1.855-.028 3.235-.029 1.382-.085 2.591c-.037.808-.072 1.701-.072 1.701a1.07 1.07 0 0 0 1.043 1.11h.017l.895.02q.963.02 1.929.042l2.361.051q1.114.023 2.226.049c.456.01.989.11 1.437.006.378-.087.294-.387.283-.689-.011-.459-.095-.904-.129-1.361a60 60 0 0 1-.113-2.533 560 560 0 0 0-.056-2.477 83 83 0 0 1-.029-1.914q0-5.402.45-8.05.45-2.645 2.365-2.646 1.182.001 1.831.985.647.985.648 3.294.001 2.195-.536 5.601c-.357 2.273-1.476 7.188-1.476 7.188a.965.965 0 0 0 .835 1.194q.381.046.757.094l3.806.477c.805.1 1.611.186 2.417.28.489.056.972.164 1.46.221.301.032.685.186.928-.083.232-.259.218-.732.272-1.05.082-.483.131-.968.171-1.454.059-.744.155-1.474.259-2.214.09-.621.171-1.243.252-1.866q.422-3.264.422-6.361-.002-3.322-.482-6.108" style="fill:#fff"/></svg>