<svg xmlns="http://www.w3.org/2000/svg" xml:space="preserve" id="Layer_1" x="0" y="0" viewBox="0 0 3839 358.8"><style id="style2" type="text/css">.st0{fill:#ff221d}.st1{fill:#fdeb05}</style><g id="g2979"><g id="g44" style="fill:#fff;fill-opacity:1"><path id="path4" d="M1575.1 358.8c-8 0-11.3-1.6-14.2-3.6l16-71.1c27.8-4.2 39.3-23.3 45.2-73.9 14.6-126.7 99.2-134.1 108.7-134.5 1.1-.1 2.1-.1 3.1-.1 3 0 5.5.2 9.3.9l-17 75.4c-27.5 3.8-33.7 27.4-44.9 95.7-16.9 102.2-88.8 110.5-103 111.1-1.1 0-2.2.1-3.2.1" class="st0" style="fill:#fff;fill-opacity:1"/><path id="path6" d="M3027.5 358.8c-8 0-11.3-1.6-14.2-3.6l16-71.1c27.8-4.2 39.3-23.3 45.2-73.9 14.6-126.7 99.1-134.1 108.7-134.5 1.1-.1 2.1-.1 3.1-.1 3 0 5.5.2 9.3.9l-17 75.4c-27.5 3.8-33.7 27.4-44.9 95.7-16.9 102.2-88.8 110.5-103 111.1-1.2 0-2.2.1-3.2.1" class="st0" style="fill:#fff;fill-opacity:1"/><path id="path8" d="M1458 358.8c-8 0-11.3-1.6-14.2-3.6l16-71.1c27.8-4.2 39.3-23.3 45.2-73.9 14.6-126.7 99.2-134.1 108.7-134.5 1.1-.1 2.1-.1 3.1-.1 3 0 5.5.2 9.3.9l-17 75.4c-27.5 3.8-33.7 27.4-44.9 95.7-16.9 102.2-88.8 110.5-103 111.1-1.1 0-2.2.1-3.2.1" class="st0" style="fill:#fff;fill-opacity:1"/><path id="rect10" d="M2702.5 0h72.7v358.8h-72.7z" class="st0" style="fill:#fff;fill-opacity:1"/><path id="path12" d="M3440 75.6c-80.1 0-147.3 58.2-154.3 138.2s52.2 145 132.3 145 158.2-62.3 157.7-145c-.6-80.4-55.7-138.2-135.7-138.2m51 190.9c-19 19.1-46.3 30.6-73 30.6-21.1 0-40-7.9-53.1-22.2-13.3-14.5-19.6-34.2-17.7-55.6 4.1-46.7 44-81.9 92.8-81.9 45.3 0 73.6 29.5 74 76.9.1 23.9-12.4 41.6-23 52.2" class="st0" style="fill:#fff;fill-opacity:1"/><path id="path14" d="M1418.7 358.2h-63.8l31.3-139c.1-1.8.2-3.7.2-5.6-.3-47.4-28.7-76.9-74-76.9-48.8 0-88.7 35.2-92.8 81.9-1.9 21.4 4.4 41.1 17.7 55.6 13.1 14.3 32 22.2 53.1 22.2 18.7 0 37.7-5.6 53.9-15.5l-16.4 72.8-.4.1s-24.6 4.4-37.1 4.4c-80.1 0-139.3-64.9-132.3-145S1232.3 75 1312.4 75s135.1 57.9 135.7 138.2c.1 7.6-.6 15-1.8 22.1z" class="st0" style="fill:#fff;fill-opacity:1"/><path id="path16" d="M2122.9 144.8h48.1l12.9-57.3h-48.1L2155.5 0h-66.9l-58.8 260.7s-1.3 5.9-1.8 7.9c-10.7 45.6 1.2 90.2 60.5 90.2h8.5l32.2-57.3h-28.1c-11.9 0-11-12-8.1-24.5 7.2-31 29.9-132.2 29.9-132.2" class="st0" style="fill:#fff;fill-opacity:1"/><path id="path18" d="M2269.1 144.8h48.1l12.9-57.3H2282L2301.8 0h-66.9l-58.8 260.7s-1.3 5.9-1.8 7.9c-10.7 45.6 1.2 90.2 60.5 90.2h8.5l32.2-57.3h-28.1c-11.9 0-11-12-8.1-24.5 7.1-31 29.8-132.2 29.8-132.2" class="st0" style="fill:#fff;fill-opacity:1"/><path id="path20" d="M1137.1 358.4c-47.5-4.5-89.8-24.8-117.7-56.7-28.2-32.3-40.5-73.9-35.7-120.3C999.5 31.3 1130.7.8 1238.6 1.7l-13.8 61.8c-146.9 2.4-173.8 68.9-179.7 124.4-7.6 72.4 48.3 107.2 105.7 109.7z" class="st0" style="fill:#fff;fill-opacity:1"/><path id="path22" d="m2981.7 87.5-61.2 271.3h66.9c11.7-51.9 41.2-182.7 61.1-271.3z" class="st0" style="fill:#fff;fill-opacity:1"/><g id="g28" style="fill:#fff;fill-opacity:1"><path id="path24" d="M3298.8 57.3c7.6-33.5 12.9-57.3 12.9-57.3h-66.9l-12.9 57.3z" class="st0" style="fill:#fff;fill-opacity:1"/><path id="path26" d="m3225.1 87.5-61.2 271.3h66.9c11.7-51.9 41.2-182.7 61.1-271.3z" class="st0" style="fill:#fff;fill-opacity:1"/></g><g id="g32" style="fill:#fff;fill-opacity:1"><path id="path30" d="m3633.9 87.5-61.2 271.3h66.9c11.7-51.9 41.2-182.7 61.1-271.3z" class="st0" style="fill:#fff;fill-opacity:1"/></g><path id="path34" d="m3692.3 87.5-12.9 57.3h75.3c9.2 0 16.1 8.6 14 17.6l-44.3 196.4h66.9c9-40 28.7-127.1 46.3-205.3 7.6-33.8-18.1-65.9-52.8-65.9z" class="st0" style="fill:#fff;fill-opacity:1"/><g id="g38" style="fill:#fff;fill-opacity:1"><path id="path36" d="M3026.1 0h-51.6c-21.4 0-41.2 10.9-52.6 29l-208.2 329.8h86L2990 57.3h65.5C3063 23.8 3068.4 0 3068.4 0Z" class="st0" style="fill:#fff;fill-opacity:1"/></g><path id="path40" d="m2406 282.4 199.8-97.8c-12-64.8-62.9-109.1-132.9-109.1-80.1 0-147.3 58.2-154.3 138.2-7 80.1 52.2 145 132.3 145 13 0 25.9-1.6 38.4-4.7 1.4-.3 2.7-.7 4.1-1.1l16.9-75.1c-17.4 12.2-38.6 19.1-59.4 19.1-17.1.2-32.6-5-44.9-14.5m-26-63.2c4.1-46.7 44-81.9 92.8-81.9 24.8 0 44.4 8.8 57.3 24.5l-149.9 73.4c-.6-5.2-.7-10.6-.2-16" class="st0" style="fill:#fff;fill-opacity:1"/><path id="path42" d="m1823.9 282.4 199.8-97.8c-12-64.8-62.9-109.1-132.9-109.1-80.1 0-147.3 58.2-154.3 138.2-7 80.1 52.2 145 132.3 145 13 0 25.9-1.6 38.4-4.7 1.4-.3 2.7-.7 4.1-1.1l16.9-75.1c-17.4 12.2-38.6 19.1-59.4 19.1-17.1.2-32.6-5-44.9-14.5m-26-63.2c4.1-46.7 44-81.9 92.8-81.9 24.8 0 44.4 8.8 57.3 24.5l-149.9 73.4c-.6-5.2-.6-10.6-.2-16" class="st0" style="fill:#fff;fill-opacity:1"/></g><g id="g2844" style="fill:#fff;fill-opacity:1" transform="translate(9.423)"><path id="path82" d="m318.217 289.26.724-3.208c-6.107 1.76-14.389 3.209-25.362 3.209h-25.466c-14.078 0-27.225-6.315-36.128-17.392-8.799-10.973-12.111-25.258-9.006-39.026l24.638-109.11h50.724l-25.259 112.112c-.414 1.967 0 4.037 1.243 5.59a6.58 6.58 0 0 0 5.175 2.484h35.715c7.763 0 14.389-5.28 16.045-12.836l24.327-107.35h50.724l-37.37 165.631z" class="st1" style="stroke-width:1.03519;fill:#fff;fill-opacity:1"/><path id="path88" d="m769.145 289.26 37.37-165.63h50.725l-.725 3.21c6.108-1.76 14.39-3.21 25.362-3.21h33.644l-10.248 45.342h-45.031c-7.764 0-14.39 5.279-16.045 12.836l-24.224 107.35z" class="st1" style="stroke-width:1.03519;fill:#fff;fill-opacity:1"/><path id="path94" d="M638.4 289.26c-14.078 0-27.225-6.314-36.127-17.39-8.8-10.974-12.112-25.26-9.007-39.027l13.665-60.87c6.522-28.364 31.366-48.24 60.662-48.24h57.557c14.078 0 27.225 6.315 36.128 17.392 8.799 10.973 12.112 25.259 9.006 39.027l-1.656 7.35c-4.348 19.047-17.806 33.747-35.3 40.061h26.086l-3.002 13.458c-6.418 28.468-31.262 48.447-60.558 48.447H638.4zm4.97-53.415c-.414 1.967 0 4.037 1.242 5.59a6.58 6.58 0 0 0 5.176 2.484h43.581c6.833 0 12.63-4.658 14.182-11.283l.415-1.864h-63.458zm66.355-50.517c4.97 0 9.317-3.417 10.352-8.282.414-1.967 0-3.934-1.242-5.486-1.242-1.553-3.106-2.381-5.072-2.381H671.63c-7.764 0-14.389 5.28-16.045 12.836l-.725 3.313z" class="st1" style="stroke-width:1.03519;fill:#fff;fill-opacity:1"/><path id="path100" d="m388.92 305.513 40.994-181.78h50.724l-.725 3.21c6.108-1.76 14.39-3.21 25.362-3.21h31.263c14.079 0 27.226 6.315 36.128 17.392 8.8 10.973 12.112 25.259 9.006 39.027l-11.904 53.001c-6.418 28.468-31.263 48.447-60.559 48.447h-36.542c-12.63 0-21.118-1.967-26.708-4.14l-6.418 28.26zm94.616-136.438c-7.764 0-14.389 5.28-16.045 12.836l-10.352 45.963c-.414 1.967 0 4.037 1.242 5.59a6.58 6.58 0 0 0 5.176 2.484h41.511c7.764 0 14.39-5.28 16.15-12.836l10.351-45.962c.414-1.967 0-4.038-1.242-5.59a6.58 6.58 0 0 0-5.176-2.485z" class="st1" style="stroke-width:1.03519;fill:#fff;fill-opacity:1"/><path id="path106" d="M36.852 289.26c-14.079 0-27.226-6.314-36.128-17.39-8.8-10.974-12.112-25.26-9.006-39.027l1.138-5.176 5.383-.31h45.342l-1.864 8.384c-.414 1.967 0 4.038 1.243 5.59a6.58 6.58 0 0 0 5.176 2.485h85.092c7.764 0 14.39-5.28 16.15-12.837l3.933-17.494c.724-3.002 0-6.211-1.967-8.696s-4.865-3.83-7.971-3.83H60.868c-15.113 0-29.192-6.729-38.716-18.633-9.42-11.802-12.94-27.019-9.627-41.822l3.83-17.184c6.522-28.365 31.47-48.24 60.662-48.24H177.12c14.182 0 27.33 6.315 36.128 17.391 8.8 11.077 12.112 25.259 8.903 39.027l-1.139 5.176-5.28.207h-44.926l1.863-8.385c.414-1.967 0-4.038-1.242-5.59a6.58 6.58 0 0 0-5.176-2.485H81.055c-7.764 0-14.39 5.28-16.046 12.837l-2.174 9.834c-.724 3.002 0 6.211 1.967 8.695s4.865 3.83 7.971 3.83h93.788c12.319 0 23.81 5.487 31.47 15.114s10.559 22.05 7.764 34.058l-8.282 36.128c-6.521 28.364-31.366 48.24-60.455 48.24z" class="st1" style="stroke-width:1.03519;fill:#fff;fill-opacity:1"/></g></g></svg>