<svg xmlns="http://www.w3.org/2000/svg" viewBox="0 0 264 101"><path d="M34.926 100.122c-2.85-.174-5.706-.542-8.522-1.039-11.455-2.025-16.783-4.734-19.98-5.991-1.528-.602-3.021-1.17-4.682-.56-.188.069-.412.065-.619.069-1.054.011-1.38-.398-.92-1.343.545-1.124 1.187-2.206 1.832-3.278 1.749-2.905 3.521-5.798 5.286-8.695.081-.136.174-.261.253-.398.361-.604.755-1.162 1.579-1.045.775.107.944.748 1.105 1.353.355 1.323 1.16 2.308 2.218 3.127 2.506 1.943 5.335 3.25 8.304 4.286 3.849 1.346 7.811 2.189 11.837 2.821 4.765.75 9.555.846 14.34.568 4.056-.236 8.05-.97 11.875-2.468 2.327-.911 4.09-2.517 5.506-4.484 1.873-2.607 1.107-6.19-1.45-8.227-3.47-2.769-7.507-3.864-11.783-4.599-3.845-.659-7.683-.588-11.532-.538-1.808.023-6.127.194-7.782 1.732-.608.54-1.094.58-1.383.319-.291-.264-.303-.681-.306-1.043q-.048-5.648-.011-11.291c.009-1.232.583-1.604 1.535-.935 1.204.843 2.541 1.213 3.937 1.394 2.317.298 9.882.034 11.428-.167 4.132-.542 3.77-.477 6.182-1.124 2.581-.692 5.044-2.508 6.33-4.008q.03-.037.061-.073c1.792-2.162 1.19-4.652-.476-6.433-1.602-1.713-3.613-2.806-5.853-3.468-3.673-1.084-7.435-1.679-11.249-1.499-6.911.325-13.684 1.384-19.931 4.601-1.43.74-2.772 1.665-4.092 2.595-1.127.792-1.695 1.952-1.727 3.35-.016.727.099 1.556-.763 1.873-.869.32-1.317-.436-1.815-.94-3.18-3.237-6.348-6.489-9.519-9.736-.184-.187-.387-.364-.521-.585-.384-.621-.148-1.136.587-1.222.821-.094 1.702.036 2.465-.213 1.128-.369 2.183-.97 3.256-1.497 2.854-1.401 5.633-2.98 8.564-4.189 4.641-1.913 9.528-2.941 14.519-3.561 4.775-.596 13.203-.841 19.301.061 4.074.618 8.114 1.437 11.897 3.126 3.337 1.49 6.595 3.154 9.086 5.964 1.8 2.03 3.01 4.301 3.415 7.055.388 2.639-.044 5.052-1.172 7.419-.774 1.631-1.935 2.685-3.531 3.645-3.129 1.881-4.983 2.349-5.379 2.591-.631.386-.658.897-.016 1.265.578.331 1.242.527 1.887.728 3.767 1.178 7.003 3.248 9.698 6.089 1.973 2.071 3.139 4.556 3.531 7.491.402 3.004-.302 5.662-1.601 8.275-1.007 2.033-2.681 3.462-4.44 4.76-3.562 2.627-7.524 4.402-11.776 5.663-3.162.937-6.368 1.572-9.615 2.003-11.099 1.215-16.769.584-19.368.426m129.404.511c-1.249-1.318-4.608-1.437-5.13-1.437q-35.285-.002-70.571 0c-2.393 0-2.823.293-2.528-2.742.479-4.968 2.301-9.585 5.902-13.152.69-.702.921-.939 2.497-2.371 6.678-6.063 19.985-10.923 19.985-10.923s11.135-4.12 17.388-6.586c2.808-1.106 5.551-2.383 8.053-4.118 9.069-7.161 4.36-14.27-7.599-15.927-8.374-1.199-16.005.848-23.059 5.355-.922.589-1.699 1.177-2.588 1.816-1.576 1.336-2.929 2.893-3.224 4.616-.158.928-.006 1.569.012 1.72.061.483.207 1.248-.149 1.596-.43.421-1.322-.001-1.718-.376-3.636-3.442-7.276-6.876-10.915-10.311-.228-.216-.647-.677-.647-.677s-.399-.461-.412-.779c-.016-.355.332-.689.75-.82 1.983-.367 2.898-.483 4.087-1.357 3.204-2.342 6.548-4.439 10.124-6.184 4.776-2.335 9.801-3.723 15.063-4.434 4.046-.544 15.93-2.399 29.812 3.783 3.66 1.609 6.8 3.887 9.168 7.101 1.402 1.901 6.68 12.331-4.078 20.658-3.847 3.091-8.437 5.002-13.077 6.625-3.971 1.39-6.884 2.431-13.381 4.314-4.934 1.467-8.475 2.618-14.12 5.303-4.49 2.132-7.439 4.727-7.439 4.727s-1.47 1.135-1.184 2.024c.244.772 1.473.695 2.195.696 17.369.011 34.738.007 52.108.008 1.798 0 3.54-.126 4.911-1.539.202-.207.728-.317.968-.198.228.112.387.588.39.902.027 4.077.028 8.241.005 12.317-.004.396-.134.538-.329.653-.297.172-.928.082-1.27-.283m23.498-67.054q5.553 0 11.109.003c.367 0 .735-.028 1.095.014.828.099.954.449.435 1.123-.926 1.209-.918 1.34.136 2.457l.11.109 15.506 15.713c.258.261.5.545.796.754.518.373 1.074.38 1.584-.029.285-.228.535-.498.792-.76q7.657-7.733 15.312-15.47c.183-.187.375-.366.539-.569.681-.847.664-1.145.029-2.054-.572-.772-.572-1.247.594-1.275.256-.007.519-.013.78-.013 7.513 0 15.026-.003 22.535.002.467 0 .945-.006 1.397.093.192.043.424.331.457.538.032.202-.11.557-.278.641a6.8 6.8 0 0 1-1.605.595c-2.103.462-3.816 1.502-5.336 3.053-6.539 6.674-13.145 13.283-19.716 19.928a349 349 0 0 0-4.884 5.073c-1.023 1.075-1.025 1.586.011 2.645 1.82 1.862 3.69 3.67 5.501 5.54 1.342 1.382 2.59 2.858 3.942 4.23 3.595 3.642 7.234 7.239 10.834 10.875a637 637 0 0 1 7.207 7.402c1.37 1.436 2.968 2.434 4.895 2.93.701.176 1.389.445 2.05.74.181.082.369.421.342.613-.029.197-.286.449-.494.515-.337.108-.717.109-1.078.109q-11.502.008-23.005 0c-.312 0-.635.007-.929-.075-.489-.142-.674-.435-.372-.942.253-.426.654-.911.61-1.33-.051-.443-.506-.877-.86-1.241-5.95-6.08-11.909-12.15-17.866-18.223-.22-.223-.441-.447-.666-.663-1.315-1.276-1.798-1.292-3.115.023-3.809 3.795-7.622 7.59-11.397 11.421-2.451 2.489-4.84 5.04-7.253 7.57-.908.952-.907 1.012-.218 2.277.394.72.246 1.037-.577 1.157-.356.052-.727.03-1.092.03-7.407.002-14.815.011-22.223-.011-.663-.003-1.779.177-1.835-.635-.118-.848.905-.89 1.505-1.032 2.698-.632 4.759-2.172 6.666-4.132 6.08-6.249 12.263-12.396 18.38-18.604 1.902-1.93 3.717-3.939 5.597-5.889.722-.753 1.525-1.422 2.266-2.156 1.546-1.539 1.551-1.948.063-3.453-4.509-4.57-9.03-9.128-13.536-13.703-3.664-3.713-7.343-7.416-10.958-11.178-1.394-1.446-3.029-2.35-4.954-2.799-.354-.083-.703-.194-1.052-.301-.495-.153-1.108-.271-1.039-.948.068-.688.672-.688 1.21-.685l.939-.003z" style="fill-opacity:1;fill:#fff"/><path d="M109.385 12.379c0 .988.805 1.771 1.771 1.761h7.233v-2.203h-6.793v-.617h5.353V9.128h-7.553zM109.396 5.118c0-.911.784-1.756 1.76-1.752h7.233v2.192h-6.793v.617h5.353v2.222h-7.564z" style="fill-rule:evenodd;fill:#fff" transform="matrix(1.25917 0 0 1.27255 -23.626 0)"/><path d="M110.898.411a4.446 4.446 0 0 0-4.446 4.445v7.781a4.446 4.446 0 0 0 4.446 4.445h7.493v-2.191h-7.307c-1.289 0-2.432-1.222-2.432-2.51V5.11c0-1.289 1.143-2.48 2.432-2.48h7.307V.408h-7.493zM125.084 11.997V5.558h7.145V3.366h-7.546c-.976-.004-1.76.841-1.76 1.752l-.009 7.261c0 .988.803 1.771 1.769 1.761h4.603l-.012-5.051h-3.463v2.172h1.28v.735zM104.333.39h-7.178a5.477 5.477 0 0 0-5.477 5.476c0 3.025 2.453 5.418 5.477 5.392h2.187v.739h-7.616v2.144h7.368a2.51 2.51 0 0 0 2.509-2.507 2.493 2.493 0 0 0-2.509-2.489l-1.909-.008a3.254 3.254 0 1 1 0-6.507h7.153z" style="fill-rule:evenodd;fill:#fff" transform="matrix(1.25917 0 0 1.27255 -23.626 0)"/><path d="M104.333 5.499h-7.461v.735l2.238.004c3.026 0 5.477 2.393 5.477 5.417s-2.451 5.424-5.477 5.424l-7.384-.015v-2.179h7.368a3.253 3.253 0 0 0 3.254-3.253 3.24 3.24 0 0 0-3.254-3.234l-1.909-.007a2.509 2.509 0 0 1 0-5.017h7.153zM140.576 2.991c-.089-.209-.12-.259-.36-.259-.241 0-.299.125-.391.334l-4.55 14.016 2.394.003 2.574-7.77.847 2.624h-1.699v2.211h4.835z" style="fill-rule:evenodd;fill:#fff" transform="matrix(1.25917 0 0 1.27255 -23.626 0)"/><path d="M124.425 17.084a4.447 4.447 0 0 1-4.447-4.445V4.858a4.447 4.447 0 0 1 4.447-4.445h7.804v2.222h-7.616c-1.291 0-2.434 1.191-2.434 2.48v7.27c0 1.289 1.142 2.51 2.434 2.51h5.395V8.359h-4.195V6.177h6.425v10.395l4.577-14.163a3.603 3.603 0 0 1 6.83.093l4.753 14.583h-9.007v-2.191h5.851l-3.967-12.163c-.232-.669-.646-.748-1.059-.748-.432 0-.831.177-1.056.788l-4.657 14.314h-10.078z" style="fill-rule:evenodd;fill:#fff" transform="matrix(1.25917 0 0 1.27255 -23.626 0)"/></svg>