<svg xmlns="http://www.w3.org/2000/svg" viewBox="0 0 264 50"><path d="M438.72 66.222h-8.472v-28.65h31.194c5.391 0 9.6 3.822 9.747 9.219v19.431h-7.998V48.414c0-2.649-1.56-4.482-4.185-4.725-1.443-.132-2.901-.024-4.464-.024v22.557h-8.37V43.509h-7.452zM567.528 66.222h-8.472v-28.65h31.194c5.391 0 9.6 3.822 9.75 9.219v19.431h-8.001V48.414c0-2.649-1.557-4.482-4.185-4.725-1.44-.132-2.901-.024-4.461-.024v22.557h-8.373V43.509h-7.452zM336.168 55.293c2.706 3.57 5.517 7.269 8.289 10.929h-9.513l-7.287-10.623h-8.103v10.623h-8.346v-28.65h1.212c7.296 0 14.589-.003 21.885 0 5.946.003 10.203 5.361 9.009 11.139-.66 3.192-2.712 5.151-5.739 6.171-.42.141-.846.252-1.407.411m-16.593-4.836h11.007c.576-.009 1.176-.258 1.719-.489 1.212-.516 2.052-1.344 2.058-2.784.003-1.524-.555-2.739-2.025-3.294a7.9 7.9 0 0 0-2.61-.519h-10.152c.003 0 .003 4.761.003 7.086M425.508 66.21h-21.273c-1.581-.021-3.213-.306-4.719-.78-3.924-1.233-5.976-4.329-5.745-8.331.237-4.095 2.823-7.239 6.708-8.07a13.7 13.7 0 0 1 2.778-.297h13.572c.372 0-.372 0 0 0-.048-3.126-2.628-5.655-5.931-5.667H396.06v-5.493h17.361c6.669 0 11.883 4.989 12.087 11.637v17.004Zm-8.412-12.087h-10.41c-2.208 0-3.705 1.32-3.741 3.288-.03 1.911 1.413 3.177 3.657 3.18h10.494zM174.711 66.21v-5.625h18.738c1.728 0 2.784-.861 3.156-2.559.273-1.251-.513-2.535-2.022-3.093a6.6 6.6 0 0 0-2.178-.408h-11.556c-4.716-.069-7.47-2.874-7.893-7.86-.33-3.882 2.529-8.316 6.402-9.09h24.648v5.772h-1.188c-5.496 0-10.998-.006-16.494.003a9 9 0 0 0-1.557.138c-1.293.243-2.253 1.038-2.487 2.286-.234 1.224.312 2.367 1.335 3.141.315.237.825.351 1.248.354h12.453c3.087.087 5.988.879 7.557 3.915 2.736 5.298.627 12.909-7.431 13.026zM537.417 36.918c3.201.105 6.309.471 9.219 1.812 4.05 1.863 7.074 4.797 7.935 9.249 1.077 5.604.09 10.842-4.401 14.844-2.547 2.274-5.769 3.273-9.066 3.84-5.124.882-10.029.054-14.676-2.292-4.347-2.19-6.168-5.985-6.663-10.584-.246-2.313-.195-4.629.525-6.876 1.704-5.292 5.652-8.004 10.812-9.165 2.061-.462 3.249-.759 6.315-.828m9.327 14.976c-.024-.522-.045-1.044-.075-1.566-.243-3.912-2.538-6.861-6.12-7.8-2.097-.552-4.23-.489-6.327-.048-3.048.636-5.04 2.505-5.91 5.478-.696 2.367-.693 4.806-.288 7.218.471 2.793 2.163 4.695 4.86 5.442 1.62.45 3.378.618 5.064.579 5.751-.141 8.934-3.576 8.796-9.303M306.699 49.062v5.445h-19.875c.051 3.435 2.475 5.88 5.76 5.883 4.263.006 13.968.003 13.968.003v5.802h-16.068c-7.992-.369-12.858-6.003-12.591-13.404.087-2.439.249-4.842 1.158-7.143 1.962-4.977 6.48-8.073 11.805-8.073h15.849v5.793s-10.848-.033-13.464-.021c-3.192.015-5.847 2.394-6.27 5.715zM231.12 60.363V37.575h8.166v28.638l-21.498.009c-2.655.009-4.794-1.017-6.459-3.033-1.581-1.917-2.553-3.987-2.481-6.63.156-5.718.045-18.984.045-18.984h8.193l-.033 18.306c-.06 2.691 1.434 4.26 3.918 4.482zM252.156 56.538v9.675h-7.968V37.575h21.744c3.849-.105 7.713 2.763 8.856 7.023 1.671 6.216-2.667 11.91-9.144 11.937-4.116.018-8.232.003-12.348.003zm.27-5.574h11.022c.444-.006.933-.288 1.32-.549 1.206-.81 2.043-3.03 1.656-4.248-.606-1.899-1.818-2.814-3.819-2.82h-10.179zM391.533 37.575v5.493h-13.98c-2.373.066-4.404 1.188-5.793 3.141-.474.669-.765 1.515-.831 2.661h20.25v6.063h-20.325v11.292h-8.256V49.29c0-6.123 4.644-11.514 10.782-11.712zM517.233 60.603v5.619h-15.108c-6.261 0-11.025-3.681-12.549-9.774-1.188-4.755-.639-9.561 2.052-13.704 2.238-3.444 5.52-5.16 9.645-5.169h16.122v5.667h-13.689c-2.685 0-4.413 1.242-5.304 3.777-1.038 2.958-1.218 6.255-.246 9.279.9 2.802 3.042 4.305 5.979 4.305zM335.889 92.316v-5.169h19.914V78.6h-19.551v-4.95h23.853v18.666zM173.628 78.474v-5.046h19.899c.51 3.627.267 7.134-.951 10.542l-.306.873s3.693 5.193 5.361 7.512h-5.568s-1.899-2.565-2.64-3.621l-1.068.846c-2.319 1.854-4.884 2.946-7.932 2.82h-7.467v-5.109s3.489.018 5.232-.003c2.208-.027 4.389-.189 6.486-1.014 3.24-1.275 5.163-4.179 4.992-7.8zM476.28 37.575h8.835V66.24h-8.835zM264.6 92.328v-5.145h10.284c4.188.213 7.473-2.439 7.365-7.608-.006-.33-.048-.66-.081-1.071h-18.813v-4.875h22.755v9.204c-.021.873-.297 1.779-.606 2.61-1.545 4.122-4.674 6.525-8.925 6.888zM288.03 82.35v-4.437h20.028v6.525c0 2.607-1.833 3.735-9.249 3.735 0 0-.066 1.167-.3 1.494-.783 1.941-2.301 2.742-4.512 2.742h-4.875v-4.566h4.782c1.593 0 2.004-.351 2.265-1.95.078-.48.135-.963.219-1.533 2.055 0 4.104.009 6.153-.003 1.389-.006 1.806-.444 1.863-2.004-5.439-.003-10.878-.003-16.374-.003M386.427 73.809V84.33c-.852 5.868-6.147 8.106-10.038 7.986h-13.734v-5.169h14.127c2.907.147 5.862-2.571 5.817-5.97-.027-2.13-.003-4.263-.003-6.396v-.972zM227.073 73.413h4.356v6.153c0 .411.024.825-.003 1.233-.315 4.848 3.078 6.273 6.24 6.273h1.281v5.151c-7.005.405-11.58-2.715-11.856-9.597-.111-2.685-.021-5.382-.021-8.073.003-.366.003-.732.003-1.14M333.633 86.433l-23.502-2.97v-4.554l23.502 2.808zM333.633 80.238l-23.502-2.967v-4.557l23.502 2.811zM333.651 88.038v4.698c-7.86-.993-15.663-1.977-23.535-2.97v-4.623c7.818.858 15.648 2.028 23.535 2.895M213.351 92.184V87.06c1.029-.078 2.034-.084 3.018-.237 2.868-.453 4.539-2.442 4.548-5.34.012-2.574.003-5.151.003-7.812h4.377c0 2.106.03 4.224 0 6.342-.021 1.416.048 2.865-.228 4.239-.975 4.857-3.936 7.344-9.024 7.776-.879.078-1.764.105-2.694.156" style="fill:#fff" transform="scale(.44 .44245)"/><path d="M213.702 80.484v4.782h-18v-4.782zM239.166 80.307h18.018v4.701h-18.018zM376.896 73.65v4.95h-14.223v-4.95zM239.367 76.659c-.003 1.938-1.569 3.495-3.492 3.474-1.866-.024-3.411-1.557-3.441-3.429-.033-1.917 1.524-3.501 3.45-3.51a3.44 3.44 0 0 1 3.483 3.465m-2.109-.045c-.027-.789-.729-1.473-1.467-1.47-.78.006-1.512.783-1.419 1.566.102.873.657 1.383 1.503 1.35.864-.036 1.302-.636 1.383-1.446M68.439 68.859c0 9.45-15.318 17.112-34.218 17.112C15.324 85.971 0 78.312 0 68.862v-.003C0 59.412 15.318 51.75 34.215 51.75s34.221 7.659 34.221 17.106zM127.368 95.898c.003 9.447-15.315 17.109-34.212 17.109-18.9 0-34.221-7.659-34.224-17.106v-.003c-.003-9.45 15.318-17.109 34.215-17.109 18.9 0 34.218 7.656 34.221 17.106zM69.696 0C52.446 0 38.43 13.785 38.022 30.951a30 30 0 0 1 2.157-.081c17.505 0 31.695 14.205 31.695 31.725 0 .261-.012.516-.018.774 16.5-1.107 29.532-14.847 29.532-31.644C101.388 14.205 87.201 0 69.696 0M129.693 27.789c-17.499 0-31.683 14.193-31.683 31.704 0 .39.006.783.021 1.167.42-.015.837-.036 1.266-.036 17.103 0 31.044 13.569 31.665 30.534 16.914-.663 30.414-14.577 30.414-31.662.003-17.514-14.184-31.707-31.683-31.707" style="fill:#fff" transform="scale(.44 .44245)"/></svg>