<svg xmlns="http://www.w3.org/2000/svg" viewBox="0 0 264 67"><path d="M36 37.14q-9.78-3.31-12.3-5.36a6.18 6.18 0 0 1-2.51-4.94 6.93 6.93 0 0 1 3.32-6.28c2.21-1.39 5.22-2.09 9-2.09A38.4 38.4 0 0 1 50.07 22l1.28-14a53.3 53.3 0 0 0-8.21-2A58.7 58.7 0 0 0 33 5.16q-14 0-22 5.9T3 27.81q0 9.23 5.21 14.06t15.89 8.26q8 2.68 10.72 5.21a7.5 7.5 0 0 1 2.69 5.53A6.91 6.91 0 0 1 33.92 67a17.23 17.23 0 0 1-9.29 2.26A37.4 37.4 0 0 1 13 67.36a33 33 0 0 1-7.63-3.17L4 79.22q3.65 1.08 9.44 2.2a63 63 0 0 0 12.16 1.13q13.73 0 21.84-6t8.11-16.85q0-8.91-4.36-14T36 37.14M245.78 6.45l-23.87 61.61h-29.73V6.45h-17.61v74.92l60.25-.1 6.12-16.43h29.74l6 16.43H296L266.49 6.45Zm-.22 45.4 10.51-30.38 10.1 30.38ZM347.43 59.36q-1.6-4.39-3.81-9.12a10.42 10.42 0 0 0-6.92-6q7.85-1.6 11.48-6.65a18.67 18.67 0 0 0 3.65-11.17q0-10.2-7-15.08t-20.15-4.89H296v74.82h17.61V50.88H319a8.46 8.46 0 0 1 6.76 2.74 20.1 20.1 0 0 1 3.75 6.93L337 81.27h18.9l-8-20.94Zm-17-23.67C328.18 37.24 325 38 321 38h-7.41V19.33h6.87c4.44 0 7.77.73 10 2.19s3.39 3.85 3.39 7.15a7.9 7.9 0 0 1-3.38 7.02ZM402.27 49.6q0 9.56-3.47 14.54t-10.91 5c-4.87 0-8.47-1.61-10.85-4.83s-3.53-7.9-3.53-14.06V6.45H355.9v47.12q0 14.28 8.27 21.63T388 82.55q15.88 0 23.88-7.62t8-23V6.45h-17.61ZM472.17 45.73q-4.35-5-15.18-8.59c-6.51-2.21-10.62-4-12.3-5.36a6.15 6.15 0 0 1-2.51-4.94 6.93 6.93 0 0 1 3.32-6.28c2.21-1.39 5.22-2.09 9-2.09A38.3 38.3 0 0 1 471 22l1.29-14a53.6 53.6 0 0 0-8.21-2A58.7 58.7 0 0 0 454 5.16q-14 0-22 5.9t-8 16.75c0 6.15 1.75 10.84 5.21 14.06s8.75 6 15.85 8.26q8 2.68 10.72 5.21a7.5 7.5 0 0 1 2.69 5.53 6.9 6.9 0 0 1-3.6 6.11 17.23 17.23 0 0 1-9.29 2.26A37.4 37.4 0 0 1 434 67.36c-3.86-1.25-6.42-2.31-7.64-3.17l-1.38 15c2.43.72 5.57 1.45 9.44 2.2a62.8 62.8 0 0 0 12.14 1.13q13.73 0 21.84-6t8.09-16.85q.02-8.89-4.32-13.94" style="fill:#fff" transform="matrix(.55754 0 0 .5582 -1.673 0)"/><path d="M61.942 0C38.989-.034 24.607 24.821 36.054 44.74q.184.32.375.636h1.712l22.658-22.685c2.074 2.07 4.918-.726 5.743-1.636l-1.421-1.424c-1.974-1.964-3.664 1.044-3.664 1.044l-4.315-4.326s6.735-3.075 10.398.593a651 651 0 0 0 2.743 2.745l5.018-5.023c-.978-2.699 1.328-5.445 4.151-4.945 2.823.502 4.046 3.875 2.201 6.072a3.72 3.72 0 0 1-4.121 1.106l-5.018 5.023 2.726 2.736c3.669 3.666.585 10.41.585 10.41l-4.315-4.327s3.005-1.674 1.043-3.666l-1.423-1.396c-.908.831-3.701 3.678-1.628 5.75L55.564 45.381h31.914C99.414 25.747 85.644.54 62.693.008q-.376-.01-.751-.008" style="fill:#fff"/><path d="M32.44 119.53h-7.18L23 113.41H12l-2.28 6.12H3l10.77-27.82h7.7Zm-11.1-10.94L17.6 97.31l-3.91 11.28ZM53.91 111.54V91.71H60v27.82h-7.89l-.23-.44-10.14-19.23v19.67h-6.15V91.71h8.14ZM104.26 119.53h-7.18l-2.23-6.12H83.79l-2.27 6.12h-6.7l10.77-27.82h7.7Zm-11.09-10.94-3.76-11.28-3.91 11.28ZM113.64 108.22v11.31h-6.55V91.71h10.65c3.27 0 5.78.62 7.51 1.82a6.37 6.37 0 0 1 2.58 5.61 6.94 6.94 0 0 1-1.34 4.14 6.68 6.68 0 0 1-4.28 2.48 3.87 3.87 0 0 1 2.57 2.24c.55 1.17 1 2.3 1.42 3.39l.17.36 3 7.78h-7l-2.8-7.71a7.4 7.4 0 0 0-1.41-2.56 3.09 3.09 0 0 0-2.51-1Zm0-4.78h2.74a6.16 6.16 0 0 0 3.51-.86 2.89 2.89 0 0 0 1.29-2.6 3 3 0 0 0-1.25-2.66 7 7 0 0 0-3.75-.82h-2.54ZM139.21 109.34v10.19h-6.55V91.71h8.55c3.74 0 6.6.72 8.56 2.14s3 3.6 3 6.53a8.19 8.19 0 0 1-2.8 6.64q-2.79 2.33-7.78 2.32Zm0-4.85 2.23.07a5.1 5.1 0 0 0 3.45-1.07 3.75 3.75 0 0 0 1.26-3 3.56 3.56 0 0 0-1.28-2.92 5.33 5.33 0 0 0-3.43-1h-2.23ZM162.06 105.67a9.1 9.1 0 0 0 2.61 6.8 9.3 9.3 0 0 0 6.82 2.55 9.5 9.5 0 0 0 1.93-.16 9 9 0 0 0 1.34-.36v-6.15h-5v-4.83h11.34v15a38 38 0 0 1-4.21 1 29.6 29.6 0 0 1-5.5.51q-7.53 0-11.79-3.77c-2.83-2.5-4.25-6-4.25-10.59s1.46-8.12 4.37-10.62 6.94-3.78 12.07-3.78a32 32 0 0 1 4.89.33 18 18 0 0 1 3.66 1v.28l-.44 5.1a13.5 13.5 0 0 0-3.44-1.26 17.4 17.4 0 0 0-3.83-.42 11.17 11.17 0 0 0-7.7 2.54 8.85 8.85 0 0 0-2.87 6.83M203.76 105.67a9.13 9.13 0 0 0 2.6 6.8 9.3 9.3 0 0 0 6.83 2.55 9.7 9.7 0 0 0 1.93-.16 8.4 8.4 0 0 0 1.33-.36v-6.15h-5v-4.83h11.32v15a37 37 0 0 1-4.21 1 29.4 29.4 0 0 1-5.49.51q-7.53 0-11.79-3.77c-2.83-2.5-4.24-6-4.24-10.59s1.46-8.12 4.37-10.62 6.93-3.78 12.07-3.78a32 32 0 0 1 4.88.33 17.5 17.5 0 0 1 3.65 1v.28l-.44 5.1a13.2 13.2 0 0 0-3.43-1.26 17.4 17.4 0 0 0-3.82-.42 11.2 11.2 0 0 0-7.71 2.54 8.81 8.81 0 0 0-2.85 6.83M255.15 119.53H248l-2.24-6.12h-11l-2.28 6.12h-6.7l10.77-27.82h7.71Zm-11.1-10.94-3.74-11.28-3.91 11.28ZM281.48 91.71h9.85v27.82H285l.07-22.07-7.46 21.63h-5.82l-7.32-21.66.09 22.1h-6.34V91.71h10.13l6.46 19.4ZM315.35 119.53h-18.43V91.71h18.21v4.79h-11.66v6.34h10.8v4.79h-10.8v7.06h11.88ZM350.38 119.53H332V91.71h18.19v4.79H338.5v6.34h10.82v4.79H338.5v7.06h11.88ZM373.72 111.54V91.71h6.15v27.82h-7.93l-.26-.44-10.13-19.23v19.67h-6.14V91.71h8.15ZM391.16 105.67a9.13 9.13 0 0 0 2.6 6.8 9.3 9.3 0 0 0 6.82 2.55 9.7 9.7 0 0 0 1.94-.16 7.7 7.7 0 0 0 1.32-.36v-6.15h-5v-4.83h11.34v15a37 37 0 0 1-4.21 1 29.3 29.3 0 0 1-5.48.51q-7.53 0-11.8-3.77c-2.83-2.5-4.24-6-4.24-10.59s1.45-8.12 4.36-10.62 6.94-3.78 12.08-3.78a32.4 32.4 0 0 1 4.89.33 17.3 17.3 0 0 1 3.63 1v.28L409 97.9a13.4 13.4 0 0 0-3.44-1.26 17.3 17.3 0 0 0-3.82-.42 11.2 11.2 0 0 0-7.74 2.54 8.81 8.81 0 0 0-2.84 6.91M422.24 119.53h-6.55V91.71h6.55Z" style="fill:#fff" transform="matrix(.55754 0 0 .5582 -1.673 0)"/><path d="M446.25 111.54V91.71h6.15v27.82h-7.94l-.24-.44-10.13-19.23v19.67H428V91.71h8.13Z" data-name="catchphrase_letter_n" style="fill:#fff" transform="matrix(.55754 0 0 .5582 -1.673 0)"/><path d="M476.51 119.53h-18.43V91.71h18.2v4.79h-11.65v6.34h10.79v4.79h-10.79v7.06h11.88Z" data-name="catchphrase_letter_e" style="fill:#fff" transform="matrix(.55754 0 0 .5582 -1.673 0)"/></svg>