<svg xmlns="http://www.w3.org/2000/svg" baseProfile="tiny" overflow="visible" viewBox="0 0 264 35"><path d="M263.94 34.547h-5.714c-5.294-7.195-10.647-14.45-16.121-21.884v21.884h-6.376V.551h5.474c5.354 7.315 10.767 14.69 16.241 22.005.06 0 .12-.06.18-.06V.491H264c-.06 11.392-.06 22.664-.06 34.056M101.053.551c.18 0 .3-.06.421-.06 3.97 0 7.94-.06 11.91.06 4.812.18 8.842 4.077 9.443 8.874.541 4.857-2.586 9.533-7.218 10.852-.18.06-.361.12-.601.18 3.248 4.677 6.496 9.293 9.804 14.03h-7.759c-3.128-4.437-6.256-8.934-9.564-13.61v13.61h-6.376c-.06-11.332-.06-22.604-.06-33.936m6.436 6.236v7.674c1.684 0 3.308.12 4.872 0a3.68 3.68 0 0 0 3.368-3.777c0-2.038-1.383-3.657-3.368-3.837-1.564-.18-3.188-.06-4.872-.06M23.399.491h6.375v.96c0 6.595.061 13.25 0 19.846-.06 3.717 2.767 6.655 6.076 7.134 3.97.54 7.759-2.698 7.819-6.715V.491h6.436v.72c0 6.775-.06 13.55 0 20.325.121 6.835-5.353 12.052-10.526 13.131-9.023 1.859-16.241-5.276-16.241-12.471V.911c.061-.06.061-.18.061-.42M86.015 14.341h11.79v6.356h-11.79v7.555h11.79v6.295H79.639V.611h18.166v6.296h-11.79zM138.406 22.436 146.165.491h7.158c-3.97 11.392-7.879 22.724-11.789 34.056h-6.436c-3.91-11.272-7.88-22.604-11.85-33.996h7.218c2.587 7.255 5.173 14.57 7.82 21.885zM60.211 20.757v13.79h-6.376V.611c.06-.06.18-.12.24-.12 4.09 0 8.181-.12 12.211.06 5.293.24 9.323 4.737 9.323 10.013 0 5.097-3.669 9.413-8.722 10.073-1.624.24-3.308.06-4.932.06-.541.06-1.083.06-1.744.06m.18-13.97v7.674c1.684 0 3.308.12 4.872 0a3.684 3.684 0 0 0 3.369-3.777c0-2.038-1.384-3.657-3.369-3.837-1.564-.18-3.188-.06-4.872-.06M184.12 3.789c-1.503 1.739-2.526 3.118-3.97 4.617-.18-.3-.842-.78-1.022-1.02-1.203-1.499-2.827-1.918-4.632-1.618s-2.947 1.379-3.428 3.117c-.361 1.259-.121 2.459.962 3.298.842.66 1.805 1.199 2.767 1.679 1.323.659 2.707 1.199 4.03 1.918 3.91 2.099 5.354 5.816 4.872 9.833-.601 5.217-5.112 9.114-10.406 9.234-3.308.06-6.135-.9-8.421-3.298-.06-.06-.12-.18-.18-.24 0-.06-.782-.539-.842-.659 1.323-1.439 2.406-3.238 3.729-4.677.481.54 1.925 1.919 2.466 2.338 1.985 1.439 4.872 1.08 6.376-.779 1.504-1.919 1.263-4.617-.782-6.235-1.022-.84-2.346-1.38-3.489-2.039-1.563-.899-3.308-1.619-4.691-2.758-3.369-2.818-3.79-7.914-1.263-11.692 4.09-5.876 13.173-6.415 17.924-1.019M20.03 3.729c-1.383 1.499-2.225 2.878-3.729 4.797-.241-.36-.842-1.02-1.023-1.259-1.143-1.32-3.248-1.919-5.052-1.32-1.745.54-2.767 1.739-3.008 3.538-.12 1.019.12 2.038.962 2.698.903.66 1.925 1.259 2.888 1.799 1.323.659 2.706 1.199 4.03 1.918 3.669 1.979 5.052 5.217 4.932 9.234-.12 5.216-4.992 9.773-10.466 9.893-3.308.06-6.135-.96-8.481-3.358-.06-.12-1.023-.779-1.083-.899 1.564-1.859 2.226-2.818 3.729-4.677.482.54 2.045 1.979 2.527 2.338 1.924 1.439 4.752 1.14 6.315-.659 1.564-1.739 1.444-4.317-.36-6.056-.843-.779-1.865-1.379-2.828-1.918-1.203-.66-2.526-1.14-3.729-1.799C-.12 15.001-.18 8.226 2.707 4.449c4.21-5.517 12.692-5.996 17.323-.72M161.384 34.547h-6.316V.551h6.316zM187.85.551h6.316v33.996h-6.316zM214.376 12.663l-13.293 21.884h26.586z" style="fill:#fff"/><path d="M196.812 18.598v.18c.06.78.181 1.619.361 2.399 0 .12.06.179.06.299.06.36.181.66.301 1.02.06.12.12.299.18.419.061.18.121.36.241.6.06.18.18.36.241.54.06.119.06.179.12.299.18.42.361.78.601 1.14.061.059.061.179.121.239.3.54.601 1.08.962 1.559.301.42.602.78.902 1.139l3.549-5.815a10.8 10.8 0 0 1-1.383-5.277c0-.479.06-.959.12-1.439 0-.18.06-.299.06-.479.06-.18.06-.3.121-.48.06-.18.06-.36.12-.54.06-.119.06-.299.12-.419 1.504-4.437 5.835-7.735 10.707-7.735 6.075 0 11.248 5.217 11.248 11.332 0 .48-.06.959-.12 1.439 0 .18-.06.3-.06.48-.061.18-.061.3-.121.479-.06.18-.06.36-.12.54-.06.12-.06.3-.12.42-.181.599-.482 1.139-.782 1.739l3.549 5.815c.3-.359.601-.779.902-1.139 1.323-1.858 2.346-4.017 2.827-6.235.06-.18.06-.36.12-.54 0-.12.06-.3.06-.42.061-.359.121-.719.121-1.079v-.24c.06-.359.06-.779.06-1.139 0-.42 0-.839-.06-1.199v-.18a16.5 16.5 0 0 0-.361-2.398c0-.12-.06-.18-.06-.3-.061-.36-.181-.66-.301-1.019-.06-.12-.12-.3-.181-.42-.06-.18-.12-.36-.24-.6-.06-.179-.181-.359-.241-.539-.06-.12-.06-.18-.12-.3a7 7 0 0 0-.602-1.139c-.06-.06-.06-.18-.12-.24-.301-.54-.601-1.079-.962-1.559-3.309-4.617-8.662-7.794-14.316-7.674-5.895-.12-11.128 3.177-14.316 7.674-1.323 1.859-2.346 4.017-2.827 6.236-.06.18-.06.359-.12.539 0 .12-.06.3-.06.42-.061.36-.121.719-.121 1.079v.24c-.06.36-.06.779-.06 1.139-.06.36-.06.78 0 1.139" style="fill:#fff"/></svg>