<svg xmlns="http://www.w3.org/2000/svg" viewBox="0 0 264 130"><path d="M85.185 0H25.926L0 29.631v62.964l29.628 29.628h25.926v-40.74H44.445V37.038h29.628v29.631h40.74V29.631z" style="fill:#fff" transform="scale(.44 .4429)"/><path d="M29.628 207.408h62.964l25.926-29.628v-66.666L88.89 81.483H62.964v40.74h11.109v44.445H44.445v-29.631H0v40.743zM125.925 177.78l31.482 29.628h24.075v-37.035H170.37V0h-44.445zM244.443 177.78l-31.479 29.628h-24.075v-37.035h11.109V0h44.445zM307.407 0v37.038h14.814v62.964h-14.814v40.74h29.628l29.631-29.628V31.482L335.184 0zM255.555 0H300v207.408h-44.445zM422.22 40.743h48.15V0h-88.89v207.408h88.89v-37.035h-48.15z" style="fill:#fff" transform="scale(.44 .4429)"/><path d="M429.63 81.483h29.631v37.038H429.63zM537.036 0h33.336L600 29.631v55.554l-20.37 20.37L600 125.928v81.48h-40.743v-81.48h-22.221V85.185h18.519V37.038h-18.519zM485.184 0h44.442v207.408h-44.442zM88.89 229.629l-9.261 9.261v42.594l12.036 12.036h67.593v-37.965h-37.035v11.115h25.923v14.814H96.297v-40.743h62.961v-11.112zM255.555 292.593l29.631-62.964h29.628l33.336 62.964h-18.522l-25.923-48.147h-7.41l-22.221 48.147zM248.148 257.409v-16.668l-11.109-11.112h-62.964v62.964h14.814V266.67h25.926l18.516 25.923h14.817l-18.519-25.923h7.41zm-14.817-1.854h-44.442v-14.811h44.442zM351.849 229.629v62.964h14.817V266.67h48.147v-11.115h-48.147v-14.814h55.554v-11.112zM429.63 229.629l29.631 29.631-33.336 33.333h22.221l22.224-22.224 22.221 22.224h22.221l-33.333-33.333 33.333-29.631h-22.221l-22.221 22.224-22.224-22.224z" style="fill:#fff" transform="scale(.44 .4429)"/></svg>