<svg xmlns="http://www.w3.org/2000/svg" viewBox="0 0 264 57"><path d="M0 0h13.076v3.867H9.249v52.496H4.624V3.867H0zM24.922 52.521h5.104V15.742h4.464v36.779c0 2.381-2.151 4.066-4.358 4.066h-5.21c-2.332 0-4.412-1.906-4.412-4.114V15.742h4.412zM120.923 24.725h6.817v31.9h-9.608c-2.054 0-4.584-1.582-4.584-3.979V4.426c0-2.026 2.112-4.183 4.484-4.183h5.243c2.326 0 4.435 2.138 4.435 4.137v11.423h-4.595V4.539h-5.222v48.143h5.342V28.629h-2.312zM186.851 37.047v19.335h-4.304v-37.03c0-1.673 1.655-3.496 3.747-3.496h7.097v3.569h-6.54v13.682h5.385v3.958zM202.121 15.866h4.518v14.749l2.552 2.578 2.497-2.506V15.866h4.465v14.033c0 1.713-4.41 6.228-4.41 6.228s4.464 4.512 4.464 6.34v13.997h-4.2V41.891l-2.71-2.755-2.712 2.719v14.609h-4.464V42.5c0-1.717 4.728-6.409 4.728-6.409s-4.728-4.463-4.728-6.262zM53.839 37.139c1.514 0 3.528-1.82 3.528-4.256v-13.31c0-1.914-2.173-3.697-4.645-3.697h-9.169v40.669h4.227V37.437h1.595l4.703 19.036h4.146zm-.837-3.978h-5.064V19.816h5.064zM147.363 37.033c1.516 0 3.531-1.823 3.531-4.258V19.466c0-1.915-2.175-3.701-4.645-3.701h-9.168v40.674h4.222v-19.11h1.596l4.706 19.034h4.145zm-.897-4.023h-5.06V19.665h5.06zM79.96 38.097c-.018-1.823-1.911-2.975-1.911-2.975s1.911-1.244 1.911-2.974V19.732c0-2.343-2.052-3.867-4.144-3.867h-9.648v40.599h9.648c1.953 0 4.144-1.226 4.144-3.866 0 0 .023-12.681 0-14.501m-4.344 14.389h-5.062V37.354h5.062zm0-19.334h-5.062V19.807h5.062zM98.439 15.565h-5.024c-2.532 0-4.374 2.175-4.374 3.829v32.973c0 2.131 2.361 4.064 4.354 4.064h5.462c2.134 0 4.265-2.213 4.265-3.979V19.283c0-1.486-2.013-3.718-4.683-3.718m.158 36.675h-4.89V19.581h4.89zM169.36 15.856h-5.578c-2.514 0-3.988 2.081-3.988 3.717v36.809h4.225V37.047h5.341v19.335h4.227V19.796c-.002-2.428-1.673-3.94-4.227-3.94m-.121 17.177h-5.06V19.946h5.06zM241.637 37.416h13.083v4.905h-13.083z" style="fill:#fff;fill-opacity:1"/><path d="M243.251 15.292c-11.459 0-20.745 9.336-20.745 20.853S231.792 57 243.251 57C254.709 57 264 47.663 264 36.145c0-11.517-9.29-20.853-20.749-20.853m-7.061 29.421h-6.579v-2.316h2.122V30.159h-2.082v-2.392h4.46v14.591h2.079zm20.797-12.501h-2.115v-2.129h-13.35v5.092h14.257l1.208 1.218v6.728l-1.512 1.519H240.88l-1.513-1.519V29.249l1.402-1.408h14.935l1.283 1.293z" style="fill:#fff;fill-opacity:1"/></svg>