<svg xmlns="http://www.w3.org/2000/svg" viewBox="0 0 264 81"><path d="m0 56.708 7.677-36.23 11.276.118-5.799 26.54 15.519-.09 5.468-26.487 9.854.057-2.44 10.366L110.469 0 70.105 53.845l26.524-12.604 4.667-20.567 36.177.329-2.375 9.198-26.508-.39-1.046 4.387 18.71.111-2.191 9.049-18.92-.271-.489 3.889 26.989.16-1.936 9.781-36.595-.37 1.575-7.924-69.27 32.337 31.831-46.193-17.861 8.021-2.842 14.398zM225.418 24.805l1.038-4.295 11.171.058 5.556 9.835 10.29-9.952 10.527.138-.253 3.838-15.784 14.004 8.605 13.91.137 4.344-11.344.094-5.754-9.879-10.202 9.772-11.056.123.537-3.642 15.427-14.51zM189.057 46.85l3.411-16.387 16.165-.01-3.214 16.649Zm23.247 10.299 8.339-36.363-36.274-.007-7.934 36.282ZM150.131 33.614l.537-3.335 16.934.048-.613 3.436Zm-2.422 13.262.537-3.334 16.933.047-.613 3.437Zm17.702 9.438 6.783-5.101 1.569-7.963-4.536-5.662 7.048-4.533 1.861-8.27-4.56-4.13-30.336-.057-7.776 35.73Z" style="fill:#fff"/></svg>