<svg xmlns="http://www.w3.org/2000/svg" viewBox="0 0 264 66"><path d="M254.61 81.768c-15.747 15.753-15.747 41.283 0 57.039 15.753 15.744 41.283 15.744 57.036 0 13.62-13.623 15.456-34.56 5.523-50.157l-21.696 21.696a12.32 12.32 0 0 1-3.612 8.673c-4.824 4.815-12.642 4.815-17.466 0-4.815-4.824-4.815-12.639 0-17.463 4.824-4.818 12.642-4.818 17.466 0l.369.393 19.797-19.794-.378-.387c-15.756-15.744-41.286-15.744-57.039 0M97.473 150.453l97.473-110.955h-40.674L91.968 102.93a4.816 4.816 0 0 1-6.891 0c-1.899-1.932-1.899-5.079 0-7.02l55.416-56.412H0zM532.485 110.106l-33.756 39.687h27.582l26.28-26.754a3.85 3.85 0 0 1 5.517 0c1.521 1.545 1.521 4.056 0 5.613l-20.766 21.147H600l-33.753-39.69L600 70.422h-27.582l-26.28 26.757a3.84 3.84 0 0 1-5.514 0c-1.524-1.548-1.524-4.056 0-5.613l20.766-21.144h-62.661zM377.127 70.419v79.377h25.332V98.205h19.209l23.628-27.786h-27.579l-26.289 26.757a3.83 3.83 0 0 1-5.505 0c-1.524-1.545-1.524-4.056 0-5.613l20.763-21.144z" style="fill-opacity:1;fill:#fff" transform="scale(.44 .4382)"/><path d="M358.239 70.758h15.309l25.287-26.133h-40.593V0L296.49 70.758h27.006l18.492-17.178a3.843 3.843 0 0 1 5.505 0 4.02 4.02 0 0 1 0 5.616L332.91 74.052v75.744h25.335V70.758zM168.189 81.768c-15.744 15.753-15.744 41.283 0 57.039 15.753 15.744 41.283 15.744 57.036 0 13.623-13.623 15.459-34.56 5.523-50.157l-21.696 21.696a12.3 12.3 0 0 1-3.612 8.673c-3.96 3.951-9.927 4.656-14.601 2.133l36.774-36.774c-.633-.756-4.683-4.773-5.901-5.736-15.828-12.543-38.898-11.499-53.523 3.126m17.118 33.276c-1.866-4.476-.978-9.843 2.667-13.488a12.36 12.36 0 0 1 13.491-2.667zM443.085 81.768c-15.744 15.753-15.744 41.283 0 57.039 15.756 15.744 41.286 15.744 57.039 0 13.623-13.623 15.459-34.56 5.526-50.157l-21.696 21.696a12.3 12.3 0 0 1-3.612 8.673c-3.957 3.951-9.927 4.656-14.601 2.133l36.774-36.774c-.636-.756-4.686-4.773-5.901-5.736-15.831-12.543-38.901-11.499-53.529 3.126m17.121 33.276c-1.869-4.476-.981-9.843 2.667-13.488 3.645-3.645 9.015-4.536 13.488-2.667z" style="fill-opacity:1;fill:#fff" transform="scale(.44 .4382)"/></svg>