<svg xmlns="http://www.w3.org/2000/svg" viewBox="0 0 264 36"><path d="M55.377 59.865 43.719 81.609 0 0h23.316ZM46.635 32.643 64.122 0h23.316L58.293 54.387ZM93.384 0h20.46l-.057 81.609H93.384ZM122.529 0h20.463l-.06 81.609h-20.403ZM148.761 20.403V0h8.745q16.902 0 28.854 11.949 11.948 11.951 11.949 28.857 0 16.902-11.949 28.854-11.952 11.948-28.854 11.949h-8.745V61.206h8.745q8.451 0 14.427-5.973 5.976-5.976 5.976-14.427 0-8.455-5.976-14.43-5.976-5.972-14.427-5.973ZM207.171 0h20.46l-.057 81.609h-20.403ZM233.403 0h32.058v20.403h-32.058ZM233.403 61.206h32.058v20.403h-32.058ZM233.403 30.603h32.058v20.403h-32.058ZM335.355 43.719h20.517q-.931 15.038-11.889 25.941-11.951 11.948-28.857 11.949-16.902 0-28.854-11.949-10.9-10.903-11.832-25.941h20.517q.877 6.588 5.772 11.484 5.945 6.003 14.397 6.003 8.455 0 14.457-6.003 4.897-4.896 5.772-11.484M294.957 37.89H274.44q.932-15.038 11.832-25.941Q298.224.001 315.126 0q16.906 0 28.857 11.949 10.957 10.903 11.889 25.941h-20.517q-.875-6.587-5.772-11.541-6.002-5.948-14.457-5.946-8.452-.002-14.397 5.946-4.895 4.954-5.772 11.541M364.791 0h20.403v81.609h-20.403ZM391.023 20.403V0h10.959q10.552 0 18.012 7.461 7.461 7.463 7.461 18.012 0 10.611-7.461 18.072-7.46 7.461-18.012 7.461h-10.959V30.603h10.959q2.099 0 3.585-1.485c.99-.993 1.488-2.205 1.488-3.645q-.002-2.096-1.488-3.585-1.487-1.485-3.585-1.485ZM472.632 48.966l-17.487 32.643h-23.316l29.145-54.387Z" style="font-size:40px;font-style:normal;font-weight:400;line-height:125%;letter-spacing:0;word-spacing:0;fill-opacity:1;stroke-opacity:1;font-family:Videopac;fill:#fff" transform="scale(.44 .44113)"/><path d="M481.143 53.919 463.89 21.744 475.548 0l43.719 81.609h-23.319l-3.903-7.287H464.88l10.899-20.403ZM563.103 61.032v20.46q-15.04-.932-25.941-11.832-11.95-11.952-11.949-28.854-.001-16.906 11.949-28.857 10.9-10.9 25.941-11.832v20.46q-6.588.874-11.484 5.772-6.005 6.002-6.006 14.457.001 8.452 6.006 14.397 4.896 4.955 11.484 5.829M583.038 29.439a21 21 0 0 0-2.565-3.09q-4.956-4.898-11.541-5.772V.117q15.039.932 25.938 11.832a42.5 42.5 0 0 1 5.13 6.18ZM600 63.48a42.3 42.3 0 0 1-5.13 6.18q-10.899 10.9-25.938 11.832v-20.46q6.585-.874 11.541-5.829a23 23 0 0 0 2.565-3.03Z" style="font-size:40px;font-style:normal;font-weight:400;line-height:125%;letter-spacing:0;word-spacing:0;fill-opacity:1;stroke-opacity:1;font-family:Videopac;fill:#fff" transform="scale(.44 .44113)"/></svg>