<svg xmlns="http://www.w3.org/2000/svg" width="345" height="70" fill="none" viewBox="0 0 345 70"><path d="M0 0v70h70V0H43.03a8 8 0 0 1 .017.4 8.057 8.057 0 0 1-8.057 8.057A8.057 8.057 0 0 1 26.934.4a8 8 0 0 1 .052-.4zm56.566 32.744a5.95 5.95 0 0 1 5.952 5.953 5.95 5.95 0 0 1-5.952 5.951 5.95 5.95 0 0 1-5.95-5.95 5.95 5.95 0 0 1 5.95-5.954m-40.777.893h6.512v8.209h8.209v6.511H22.3v8.21h-6.51v-8.21H7.58v-6.511h8.21zm51.973 5.638h.133v.06h-.133zm-21.87 6.258a5.95 5.95 0 0 1 5.952 5.951 5.95 5.95 0 0 1-5.951 5.952 5.95 5.95 0 0 1-5.952-5.952 5.95 5.95 0 0 1 5.952-5.95" style="fill:#fff;fill-opacity:1;fill-rule:evenodd;stroke-width:16.0135;stroke-linecap:square;paint-order:markers stroke fill;stop-color:#000"/><g aria-label="WASM-4" style="font-weight:700;font-size:62.6307px;line-height:1.25;font-family:Cantarell;-inkscape-font-specification:&quot;Cantarell Bold&quot;;text-align:center;letter-spacing:0;word-spacing:0;text-anchor:middle;fill:#fff;fill-opacity:1;stroke-width:2.9358"><path d="M128.045 68.547h8.58l9.458-32.819 10.209 32.819h8.392l12.652-43.466h-8.142l-8.518 32.756-9.708-32.505h-8.893l-9.395 33.194-8.267-33.445h-9.207zM177.586 68.547h8.58l3.57-10.898h16.66l3.507 10.898h8.957L203.828 25.08h-10.396zm14.468-18.1 6.012-18.414 6.013 18.413zM235.832 69.173c10.585 0 16.973-5.26 16.973-13.403 0-15.72-22.86-10.271-22.86-19.04 0-3.32 3.006-5.198 8.455-5.198 3.57 0 7.516.689 10.648 1.879l2.317-6.388c-3.695-1.629-8.205-2.568-12.526-2.568-10.334 0-17.286 5.323-17.286 13.528 0 14.843 22.797 9.958 22.797 18.79 0 3.193-2.818 5.135-8.142 5.135-3.945 0-8.768-.877-13.09-2.693l-2.317 6.513c4.635 2.13 10.021 3.445 15.031 3.445M259.82 68.547h7.829V39.36l11.461 22.484h6.2l11.65-23.298v30h7.829V25.08h-7.829l-14.342 28.184-14.844-28.184h-7.954ZM313.494 55.707h18.477v-6.513h-18.477zM357.65 68.985h7.828v-9.457h7.703v-6.702h-7.703V25.081h-7.641l-20.981 30.25v4.197h20.793zm-12.214-16.221 12.213-18.351v18.35z" style="fill:#fff;fill-opacity:1" transform="matrix(.9558 0 0 1.02534 -25.69 -13)"/></g></svg>