<svg xmlns="http://www.w3.org/2000/svg" width="3000" height="1434.99" viewBox="883.1 0 3000 1434.99"><path d="M2953.43 163.38c0 90.09 75.84 163.2 169.2 163.2 97.05 0 173.25-71.61 173.25-163.2C3295.865 71.775 3219.68 0 3122.63 0c-93.36 0-169.2 73.215-169.2 163.38M2981.51 490.155h288.87v934.635h-288.87zM3540.65 163.38c0 90.09 75.99 163.2 169.305 163.2 97.095 0 173.145-71.61 173.145-163.2C3883.1 71.775 3807.05 0 3709.955 0c-93.315 0-169.305 73.215-169.305 163.38M3568.64 490.155h288.945v934.635H3568.64zM2522.15 78.6l-253.305 993.105s-193.68-745.44-225.18-851.175c-31.5-105.915-96.36-152.31-188.31-152.31-92.01 0-156.96 46.395-188.46 152.31-31.395 105.735-225.105 851.175-225.105 851.175L1188.305 78.6H883.1s293.13 1059.6 332.985 1182.285c30.99 95.79 104.415 174.105 213.27 174.105 124.44 0 182.64-90.735 209.58-174.105 26.67-82.86 216.42-782.685 216.42-782.685s189.735 699.825 216.33 782.685c26.94 83.37 85.14 174.105 209.55 174.105 108.93 0 182.22-78.315 213.42-174.105C2534.405 1138.2 2827.34 78.6 2827.34 78.6z" style="fill:#fff"/></svg>