<svg xmlns="http://www.w3.org/2000/svg" fill-rule="evenodd" stroke-linejoin="bevel" stroke-width=".501" overflow="visible" viewBox="0 0 264 44"><path d="m252.166 0-21.219 17.194L209.836 0h-11.943l27.19 22-27.19 22h11.943l21.111-17.3L252.166 44H264l-27.083-22L264 0zM194.374 22c0-9.825-2.559-17.086-7.463-22h-43.395c-5.118 4.914-7.677 12.175-7.677 22 0 9.826 2.559 17.087 7.677 22h43.395c4.904-4.913 7.463-12.283 7.463-22m-7.25 0c0 3.311-.747 6.729-2.132 10.253l-2.025 4.593h-35.613l-2.026-4.593c-1.492-3.524-2.132-6.942-2.132-10.253q0-7.85 4.158-14.736h35.613q4.157 6.887 4.157 14.736M124.75 23.817v-3.632l3.199-1.709c-.747-8.223-3.199-14.417-7.357-18.476H77.196c-4.158 3.952-6.718 10.147-7.357 18.37h-7.038v7.262h7.038c.639 8.223 3.199 14.311 7.357 18.368h43.396c4.158-4.165 6.61-10.252 7.357-18.368zm-8.104-16.553c1.919 3.31 3.306 6.941 3.946 11.106H77.196c.64-4.165 1.919-7.796 3.944-11.106zm3.946 18.368a31.9 31.9 0 0 1-3.946 11.214H81.14c-2.025-3.312-3.304-7.049-3.944-11.214z" style="fill:#fff"/><path d="M38.917 22 66 0H54.057l-21.11 17.194L11.728 0H0l26.976 22L0 44h11.728l21.219-17.3L54.057 44H66z" style="fill:#fff"/></svg>