<svg xmlns="http://www.w3.org/2000/svg" viewBox="0 0 540 78.3"><path d="M11.971 78.344C5.36 78.344 0 72.984 0 66.373V11.971C0 5.359 5.36 0 11.971 0s11.97 5.358 11.97 11.971v54.401c0 6.612-5.36 11.972-11.97 11.972M174.308 28.059h-36.135v-6.512h36.135c5.949 0 10.772-4.823 10.772-10.772 0-5.951-4.823-10.774-10.772-10.774h-49.303c-5.95 0-10.773 4.823-10.773 10.774v55.598c0 6.611 5.36 11.971 11.971 11.971s11.97-5.36 11.97-11.971V49.604h36.135c5.949 0 10.772-4.823 10.772-10.773.001-5.949-4.822-10.772-10.772-10.772M539.536 62.874 524.039 8.826a11.84 11.84 0 0 0-5.773-7.176 10.7 10.7 0 0 0-5.709-1.648h-56.86q-.56 0-1.103.056c-6.092.558-10.868 5.674-10.868 11.915v54.401c0 6.611 5.358 11.971 11.971 11.971 6.61 0 11.97-5.36 11.97-11.971V21.547h5.301v44.828c0 6.611 5.36 11.971 11.971 11.971 6.609 0 11.968-5.36 11.968-11.971V21.547h6.027l13.732 47.885c1.496 5.22 6.256 8.623 11.429 8.623 1.085 0 2.188-.149 3.285-.464 6.314-1.815 9.968-8.402 8.156-14.717M249.895.001h-40.651c-11.31 0-20.565 9.253-20.565 20.564v37.214c0 11.311 9.255 20.564 20.565 20.564h40.651c11.311 0 20.565-9.253 20.565-20.564V20.566c0-11.311-9.254-20.565-20.565-20.565m-2.643 53.716a2.4 2.4 0 0 1-2.394 2.394h-30.577a2.4 2.4 0 0 1-2.395-2.394v-29.09a2.4 2.4 0 0 1 2.395-2.393h30.577a2.4 2.4 0 0 1 2.394 2.393zM418.296.001h-40.652c-11.308 0-20.565 9.253-20.565 20.564v37.214c0 11.311 9.257 20.564 20.565 20.564h40.652c11.311 0 20.563-9.253 20.563-20.564V20.566c0-11.311-9.252-20.565-20.563-20.565m-2.644 53.716a2.4 2.4 0 0 1-2.392 2.394h-30.577a2.4 2.4 0 0 1-2.395-2.394v-29.09a2.4 2.4 0 0 1 2.395-2.393h30.577a2.4 2.4 0 0 1 2.392 2.393zM105.206.001H34.657a5.43 5.43 0 0 0-5.428 5.427v60.945c0 6.611 5.36 11.971 11.971 11.971s11.832-5.36 11.832-11.971V24.617a2.4 2.4 0 0 1 2.394-2.392h28.785c1.316 0 2.481 1.077 2.481 2.392v41.755c0 6.611 5.36 11.971 11.971 11.971s11.971-5.36 11.971-11.971V5.429a5.43 5.43 0 0 0-5.428-5.428M344.198 56.112h-42.795a2.4 2.4 0 0 1-2.394-2.394V24.627a2.4 2.4 0 0 1 2.394-2.393h42.795c6.137 0 11.118-4.975 11.118-11.117C355.316 4.979 350.338 0 344.198 0h-48.545c-11.251 0-20.457 9.205-20.457 20.457v37.429c0 11.248 9.206 20.457 20.457 20.457h48.545c6.137 0 11.118-4.976 11.118-11.119 0-6.139-4.978-11.112-11.118-11.112" style="fill-opacity:1;fill:#fff"/></svg>