<svg xmlns="http://www.w3.org/2000/svg" style="fill-rule:evenodd;clip-rule:evenodd;stroke-linejoin:round;stroke-miterlimit:2" viewBox="0 0 492.9 108.4"><path d="M405.644 56.02a8.043 8.043 0 0 1-16.084 0V28.139a8.043 8.043 0 0 1 16.084 0zM295.873 56.02a8.042 8.042 0 1 1-16.084 0V12.098a8.04 8.04 0 0 1 8.042-8.041c4.442 0 8.042 3.6 8.042 8.041zM405.644 8.041a8.043 8.043 0 0 1-16.084 0 8.043 8.043 0 0 1 16.084 0M101.165 56.02a8.042 8.042 0 1 1-16.083 0V28.139a8.042 8.042 0 0 1 16.083 0zM101.165 8.041a8.042 8.042 0 1 1-16.082 0 8.042 8.042 0 0 1 16.082 0M412.684 34.121c0-7.796 6.319-14.08 14.116-14.08l60.149.002c3.306 0 5.984 2.782 5.984 6.086s-2.678 5.956-5.984 5.956l-51.955-.002c-3.423 0-6.239 2.775-6.239 6.199l.008 17.717a8.042 8.042 0 0 1-16.084 0zM382.728 34.168c0-7.796-6.318-14.116-14.116-14.116l-59.655.005a6.03 6.03 0 0 0-6.027 6.028 5.99 5.99 0 0 0 6.004 6.004l55.766-.015a2.01 2.01 0 0 1 0 4.02l-47.826-.008c-7.724 0-13.985 6.204-13.985 13.928s6.261 13.965 13.985 13.965l51.738-.006c7.798 0 14.116-6.322 14.116-14.116zm-61.861 17.923a2.01 2.01 0 0 1 0-4.02H364.7a2.01 2.01 0 0 1 0 4.02zM266.609 51.873c3.328 0 6.04 2.716 6.04 6.045a5.99 5.99 0 0 1-6.004 6.004l-52.355.008c-12.132 0-21.966-9.835-21.966-21.967 0-12.13 9.834-21.922 21.966-21.922h52.333c3.328 0 6.026 2.714 6.026 6.044a5.983 5.983 0 0 1-6.004 5.998l-48.364-.002c-5.472 0-9.908 4.401-9.908 9.874 0 5.472 4.436 9.914 9.908 9.914zM121.252 20.052c-7.796 0-14.116 6.32-14.116 14.116l.022 21.853c0 4.441 3.6 8.041 8.042 8.041a8.04 8.04 0 0 0 8.041-8.041l.007-17.851a6.197 6.197 0 0 1 6.198-6.198h35.64a6.197 6.197 0 0 1 6.198 6.198l.006 17.851c0 4.441 3.6 8.041 8.043 8.041a8.04 8.04 0 0 0 8.041-8.041l.022-21.853c0-7.796-6.319-14.116-14.116-14.116z" style="fill:#fff;fill-rule:nonzero"/><path d="M13.987 20.06C6.263 20.06 0 26.262 0 33.986c0 7.726 6.263 13.965 13.987 13.965l48.202-.014a2.011 2.011 0 1 1 0 4.021H6.056c-3.329 0-6.041 2.672-6.041 6.001a5.99 5.99 0 0 0 6.004 6.004l60.298.016c7.724 0 13.985-6.24 13.985-13.965s-6.261-13.926-13.985-13.926l-48.381.006a2.01 2.01 0 0 1 0-4.02l56.321.015a5.99 5.99 0 0 0 6.004-6.004 6.027 6.027 0 0 0-6.027-6.027z" style="fill:#fff"/><path d="M2.576 98.412 15.129 83.4H3.559v-4.326h18.419v4.065L9.427 98.15h12.879v4.326H2.576zM31.387 90.218l-7.539-11.144h5.966l4.588 7.472 4.753-7.472h5.637L37.287 90.25l8.16 12.225h-6.128l-5.113-8.094-5.211 8.094h-5.803zM60.789 94.708c0 3.114 2.425 4.326 5.178 4.326 1.803 0 4.556-.524 4.556-2.916 0-2.525-3.507-2.95-6.948-3.869-3.474-.916-6.981-2.26-6.981-6.653 0-4.786 4.523-7.08 8.751-7.08 4.883 0 9.374 2.132 9.374 7.54h-4.983c-.164-2.82-2.162-3.542-4.621-3.542-1.638 0-3.54.69-3.54 2.656 0 1.803 1.115 2.032 6.981 3.54 1.704.426 6.95 1.508 6.95 6.818 0 4.293-3.378 7.505-9.735 7.505-5.178 0-10.029-2.556-9.964-8.325zM90.78 94.053c0-2.688-1.083-5.473-4.064-5.473-3.048 0-4.032 2.72-4.032 5.473s1.049 5.375 4.064 5.375c3.048 0 4.032-2.623 4.032-5.375M78.195 85.53h4.424v2.163h.065c1.115-1.801 2.951-2.62 5.048-2.62 5.309 0 7.701 4.292 7.701 9.112 0 4.521-2.49 8.749-7.44 8.749-2.032 0-3.965-.884-5.08-2.556h-.065v8.063h-4.653zM109.857 92.184c-.425-2.36-1.443-3.605-3.704-3.605-2.949 0-3.801 2.295-3.867 3.605zm-7.571 2.951c.131 2.949 1.572 4.293 4.162 4.293 1.869 0 3.377-1.148 3.672-2.197h4.097c-1.312 3.999-4.097 5.704-7.932 5.704-5.343 0-8.653-3.671-8.653-8.915 0-5.081 3.506-8.948 8.653-8.948 5.768 0 8.553 4.851 8.227 10.063zM129.196 91.496c-.296-1.902-1.508-2.918-3.443-2.918-2.981 0-3.965 3.016-3.965 5.507 0 2.427.95 5.343 3.868 5.343 2.162 0 3.408-1.376 3.704-3.442h4.489c-.589 4.491-3.703 6.948-8.16 6.948-5.113 0-8.555-3.604-8.555-8.685 0-5.277 3.146-9.176 8.652-9.176 3.999 0 7.67 2.097 7.966 6.423zM142.634 85.531h3.41v3.113h-3.41v8.391c0 1.574.394 1.968 1.967 1.968a7 7 0 0 0 1.443-.132v3.637c-.787.132-1.803.164-2.72.164-2.852 0-5.343-.655-5.343-4.031v-9.997h-2.819v-3.113h2.819v-5.082h4.653zM148.601 85.531h4.424v3.146h.067c.852-2.13 3.146-3.605 5.406-3.605.328 0 .722.065 1.018.164v4.325c-.427-.097-1.115-.164-1.672-.164-3.41 0-4.59 2.459-4.59 5.442v7.637h-4.653zM177.542 102.476h-4.424v-2.36h-.098c-1.18 1.901-3.212 2.819-5.179 2.819-4.949 0-6.195-2.786-6.195-6.982V85.531h4.654v9.57c0 2.787.82 4.163 2.984 4.163 2.522 0 3.604-1.409 3.604-4.851v-8.882h4.654zM181.41 85.531h4.392v2.294h.066c1.212-1.737 2.982-2.753 5.178-2.753 2.131 0 4.031.787 4.95 2.82.982-1.476 2.753-2.82 5.113-2.82 3.605 0 6.194 1.672 6.194 6.064v11.34h-4.654v-9.603c0-2.261-.196-4.13-2.851-4.13-2.622 0-3.114 2.162-3.114 4.293v9.44h-4.655v-9.505c0-1.967.132-4.228-2.817-4.228-.919 0-3.147.59-3.147 3.9v9.833h-4.655zM221.105 79.074h5.112l9.768 15.7h.065v-15.7h4.819v23.402h-5.147l-9.733-15.666h-.067v15.666h-4.817zM256.637 92.184c-.426-2.36-1.442-3.605-3.703-3.605-2.951 0-3.803 2.295-3.869 3.605zm-7.572 2.951c.132 2.949 1.574 4.293 4.162 4.293 1.87 0 3.378-1.148 3.671-2.197h4.099c-1.312 3.999-4.099 5.704-7.934 5.704-5.342 0-8.652-3.671-8.652-8.915 0-5.081 3.507-8.948 8.652-8.948 5.77 0 8.555 4.851 8.228 10.063zM268.699 93.561l-5.572-8.03h5.311l2.981 4.424 2.951-4.424h5.145l-5.572 7.932 6.26 9.014h-5.309l-3.54-5.343-3.54 5.343h-5.211zM288.202 85.531h3.409v3.113h-3.409v8.391c0 1.574.393 1.968 1.968 1.968.491 0 .949-.034 1.441-.132v3.637c-.786.132-1.802.164-2.72.164-2.852 0-5.342-.655-5.342-4.031v-9.997h-2.819v-3.113h2.819v-5.082h4.653z" style="fill:#fff;fill-rule:nonzero"/></svg>