<svg xmlns="http://www.w3.org/2000/svg" style="fill-rule:evenodd;clip-rule:evenodd;stroke-linejoin:round;stroke-miterlimit:2" viewBox="0 0 64 64"><path d="M24 32a10 10 0 0 1-10 10A10 10 0 0 1 4 32a10 10 0 0 1 10-10 10 10 0 0 1 10 10M32 40c5.519 0 10 4.481 10 10s-4.481 10-10 10-10-4.481-10-10 4.481-10 10-10m0 2c-4.415 0-8 3.586-8 8 0 4.415 3.585 8 8 8s8-3.585 8-8c0-4.414-3.585-8-8-8M32 4c5.519 0 10 4.481 10 10s-4.481 10-10 10-10-4.481-10-10S26.481 4 32 4m0 2c-4.415 0-8 3.585-8 8s3.585 8 8 8 8-3.585 8-8-3.585-8-8-8M50 22c5.519 0 10 4.481 10 10s-4.481 10-10 10c-5.518 0-10-4.481-10-10s4.482-10 10-10m0 2c-4.414 0-8 3.585-8 8s3.586 8 8 8c4.415 0 8-3.585 8-8s-3.585-8-8-8" style="fill:#fff"/></svg>