<svg xmlns="http://www.w3.org/2000/svg" width="32" height="32" viewBox="0 0 256 256"><path d="m182.533 168.995-47.998-35.996 47.998-35.997c3.691-2.768 3.691-8.306 0-11.076l-55.379-41.534c-4.264-3.197-10.388-.581-11.026 4.71a7 7 0 0 0-.05.828v69.224L71.775 85.926c-4.263-3.196-10.388-.58-11.027 4.71a6.92 6.92 0 0 0 2.72 6.366l47.997 35.997-47.997 35.996c-4.263 3.198-3.466 9.811 1.435 11.904a6.92 6.92 0 0 0 6.872-.828l44.303-33.227v69.224c0 5.328 5.768 8.659 10.384 5.994a7 7 0 0 0 .692-.456l55.379-41.535c3.691-2.768 3.691-8.306 0-11.076M129.922 63.776l36.923 27.688-36.923 27.69zm0 138.447v-55.379l36.923 27.689z" style="fill:#fff"/></svg>