<svg xmlns="http://www.w3.org/2000/svg" width="32" height="32" viewBox="0 0 256 256"><path d="M133 72v43.05l36.42-18.21c5.508-2.756 11.934 1.484 11.566 7.632a8 8 0 0 1-4.406 6.678l-48 24c-5.318 2.661-11.577-1.204-11.58-7.15V72c0-6.158 6.667-10.007 12-6.928A8 8 0 0 1 133 72m-8 144c-67.742 0-110.081-73.333-76.21-132s118.549-58.667 152.42 0A88 88 0 0 1 213 128c0 6.158 6.667 10.007 12 6.928a8 8 0 0 0 4-6.928c0-80.059-86.667-130.096-156-90.067S3.667 178.037 73 218.067A104 104 0 0 0 125 232c6.158 0 10.007-6.667 6.928-12a8 8 0 0 0-6.928-4m103.73 5.94c1.697 5.92-3.65 11.457-9.626 9.967a8 8 0 0 1-5.834-5.857C210.44 215.42 200.46 208 189 208s-21.44 7.42-24.27 18.05a8 8 0 1 1-15.46-4.11 40 40 0 0 1 17.11-23.32c-17.428-17.409-9.475-47.156 14.316-53.545s45.576 15.373 39.213 39.17a32 32 0 0 1-8.299 14.375 40 40 0 0 1 17.12 23.32M173 176c0 12.317 13.333 20.015 24 13.856 10.667-6.158 10.667-21.554 0-27.712a16 16 0 0 0-8-2.144c-8.837 0-16 7.163-16 16" style="fill:#fff"/></svg>